<?xml version="1.0" standalone="no"?> <!DOCTYPE svg PUBLIC "-//W3C//DTD SVG 1.0//EN" "http://www.w3.org/TR/2001/REC-SVG-20010904/DTD/svg10.dtd" > <svg xmlns="http://www.w3.org/2000/svg" width="100%" height="100%">
<defs >
<font id="DanskeTextv2-Regular" horiz-adv-x="563" ><font-face
    font-family="Danske Text v2"
    units-per-em="1000"
    panose-1="2 11 5 3 4 5 2 4 2 4"
    ascent="900"
    descent="-200"
    alphabetic="0" />
<missing-glyph horiz-adv-x="817" d="M338 0V76H412V0H338ZM347 153L346 182Q345 219 353 237T382 268T450 298Q484 310 498 320T516 348T521 406Q521 449 510 470T475 499T403 507Q356 507 333 501T301 484T290 452L288 425H229Q225 441 225 463Q225 494 240
515T294 548T406 561Q468 561 506 549T565 503T586 409Q586 358 579 332T549 286T482 250Q445 237 429 229T408 210T403 182L402 153H347ZM697 685H120V-108H697V685ZM70 -156V733H747V-156H70Z" />

<glyph unicode="&#xd;" glyph-name="CR" horiz-adv-x="0" />
<glyph unicode=" " glyph-name="space" horiz-adv-x="223" />
<glyph unicode="!" glyph-name="exclam" horiz-adv-x="270" d="M102 183L91 665H179L168 183H102ZM91 0V91H179V0H91Z" />
<glyph unicode="&quot;" glyph-name="quotedbl" horiz-adv-x="388" d="M86 399L75 665H153L142 399H86ZM246 399L235 665H313L302 399H246Z" />
<glyph unicode="#" glyph-name="numbersign" horiz-adv-x="707" d="M373 0L404 200H261L230 0H173L204 200H92L101 253H213L237 412H125L133 465H246L277 665H334L303 465H446L477 665H534L503 465H615L606 412H494L470 253H582L574 200H461L430 0H373ZM437 412H294L270
253H413L437 412Z" />
<glyph unicode="$" glyph-name="dollar" horiz-adv-x="651" d="M296 -84V0Q214 2 167 13T98 48T76 110Q76 127 78 159H154L157 130Q161 89 190 78T296 66V305L251 309Q185 314 149 332T95 386T77 474Q77 541 99 581T169 641T296 665V735H355V665Q424 663 468 651T533
614T554 553Q554 541 552 519H476L473 546Q470 574 443 586T355 600V371L403 367Q470 362 506 343T559 289T576 197Q576 127 554 86T483 25T355 0V-84H296ZM355 301V66Q410 68 441 80T485 117T499 195Q499 248 476 270T393 298L355 301ZM296 600Q238 598 208 587T166
550T154 475Q154 426 177 405T260 378L296 375V600Z" />
<glyph unicode="%" glyph-name="percent" horiz-adv-x="881" d="M673 -5Q609 -5 579 9T536 58T524 164Q524 236 536 270T579 318T674 333Q736 333 766 320T810 272T823 164Q823 91 810 57T766 9T673 -5ZM177 0L636 665H704L245 0H177ZM207 332Q145 332 115 345T71
393T58 501Q58 573 70 607T113 655T208 670Q272 670 302 656T345 607T357 501Q357 428 344 394T300 346T207 332ZM674 48Q714 48 731 56T754 85T761 163Q761 221 755 242T731 272T673 280Q631 280 615 272T592 242T586 165Q586 110 592 88T615 57T674 48ZM208 385Q248
385 265 393T288 422T295 500Q295 555 289 577T266 608T207 617Q165 617 149 609T126 579T120 502Q120 444 126 423T150 393T208 385Z" />
<glyph unicode="&amp;" glyph-name="ampersand" horiz-adv-x="746" d="M617 0L536 68Q506 29 454 11T318 -7Q211 -7 159 9T85 64T63 189Q63 238 75 271T114 326T186 363Q147 396 128 432T109 514Q109 572 126 605T184 655T296 671Q367 671 407 657T465 610T483
515Q483 468 470 439T426 389T331 347L318 343L507 184Q513 229 513 293V313H587V293Q587 194 568 133L726 0H617ZM240 317L221 311Q187 300 170 287T146 253T139 191Q139 126 153 101T204 67T321 57Q387 57 425 70T482 113L240 317ZM296 399Q339 413 358 422T387
441T403 468T408 515Q408 556 399 574T367 600T296 608Q246 608 224 600T193 573T184 515Q184 485 199 458T247 403L264 388L296 399Z" />
<glyph unicode="&apos;" glyph-name="quotesingle" horiz-adv-x="228" d="M86 399L75 665H153L142 399H86Z" />
<glyph unicode="(" glyph-name="parenleft" horiz-adv-x="285" d="M223 -179Q171 -179 143 -165T100 -116T83 -20T80 134V422Q80 512 83 572T100 668T142 720T223 735H240V679H231Q202 679 186 673T161 638T151 547T149 374V182Q149 71 151 10T161 -81T185 -117T231
-123H240V-179H223Z" />
<glyph unicode=")" glyph-name="parenright" horiz-adv-x="285" d="M45 -179V-123H54Q83 -123 99 -117T124 -82T134 9T136 182V374Q136 485 134 546T124 637T100 673T54 679H45V735H62Q114 735 142 720T185 669T202 572T205 422V134Q205 41 202 -19T185 -115T143
-165T62 -179H45Z" />
<glyph unicode="*" glyph-name="asterisk" horiz-adv-x="458" d="M306 325L229 443L152 325L98 364L186 474L50 511L71 574L203 524L196 665H262L255 524L387 574L408 511L272 474L360 364L306 325Z" />
<glyph unicode="+" glyph-name="plus" horiz-adv-x="651" d="M360 271V72H291V271H92V334H291V532H360V334H559V271H360Z" />
<glyph unicode="," glyph-name="comma" horiz-adv-x="231" d="M62 -129L106 0H69V97H162V0L118 -129H62Z" />
<glyph unicode="-" glyph-name="hyphen" horiz-adv-x="282" d="M47 226V291H235V226H47Z" />
<glyph unicode="." glyph-name="period" horiz-adv-x="231" d="M69 0V97H162V0H69Z" />
<glyph unicode="/" glyph-name="slash" horiz-adv-x="490" d="M10 0L406 665H480L84 0H10Z" />
<glyph unicode="0" glyph-name="zero" horiz-adv-x="651" d="M325 -7Q214 -7 159 19T81 109T58 332Q58 481 80 548T156 644T326 672Q437 672 492 646T570 556T593 333Q593 183 571 116T494 21T325 -7ZM326 61Q410 61 448 79T500 146T515 333Q515 472 501 520T448
586T325 605Q239 605 202 586T150 518T136 332Q136 194 150 146T203 80T326 61Z" />
<glyph unicode="1" glyph-name="one" horiz-adv-x="651" d="M113 0V68H303V597L138 554V622L303 665H381V68H554V0H113Z" />
<glyph unicode="2" glyph-name="two" horiz-adv-x="651" d="M77 0V105Q77 186 94 229T153 294T279 330L345 340Q420 351 446 364T483 403T495 479Q495 529 479 556T427 595T315 606Q255 606 223 600T176 580T160 539L158 508H81Q77 526 77 553Q77 594 103 620T181
659T317 672Q421 672 472 653T548 592T573 481Q573 414 555 374T498 312T355 274L289 264Q230 255 203 241T165 200T154 115V68H576V0H77Z" />
<glyph unicode="3" glyph-name="three" horiz-adv-x="651" d="M270 317V411L479 582V598H77V665H556V565L347 394V377H378Q464 377 503 360T561 303T580 194Q580 120 555 76T477 13T314 -7Q225 -7 170 5T88 42T61 106Q61 122 63 154H142L144 121Q145 95 161 83T215
66T319 60Q402 60 438 71T488 110T502 198Q502 246 490 271T451 307T357 317H270Z" />
<glyph unicode="4" glyph-name="four" horiz-adv-x="651" d="M449 0V152H47V246L380 665H527V218H636L609 152H527V0H449ZM449 603H410L124 239V218H449V603Z" />
<glyph unicode="5" glyph-name="five" horiz-adv-x="651" d="M167 118Q168 94 183 83T234 66T327 60Q401 60 438 72T490 116T506 219Q506 285 493 315T445 358T336 371Q278 371 251 368T206 356T171 331H94V665H555V598H170V398Q189 413 210 421T262 433T340 437Q435
437 487 417T562 351T585 223Q585 125 561 81T479 15T324 -7Q244 -7 191 5T111 43T84 103Q84 119 86 151H165L167 118Z" />
<glyph unicode="6" glyph-name="six" horiz-adv-x="651" d="M482 520L480 545Q478 572 464 583T417 600T332 606Q248 606 212 590T163 534T149 368Q180 393 225 405T334 417Q437 417 487 397T559 330T582 203Q582 129 557 82T482 14T331 -7Q220 -7 166 18T92 105T71
349Q71 514 93 569T172 648T334 672Q412 672 462 661T537 627T561 561Q561 540 559 520H482ZM149 316Q149 193 162 145T209 78T335 60Q405 60 440 72T489 113T504 198Q504 261 490 294T443 340T323 353Q269 353 225 344T149 316Z" />
<glyph unicode="7" glyph-name="seven" horiz-adv-x="651" d="M138 0L516 569V598H80V665H593V556L231 0H138Z" />
<glyph unicode="8" glyph-name="eight" horiz-adv-x="651" d="M464 341Q526 330 554 293T582 188Q582 112 559 70T484 11T323 -7Q211 -7 163 10T92 69T69 183Q69 253 98 291T187 341V352Q148 359 124 377T89 425T78 499Q78 562 101 600T176 655T327 672Q428 672
477 656T550 602T573 499Q573 457 561 427T525 379T464 352V341ZM495 490Q495 540 480 563T430 596T325 606Q255 606 220 596T171 563T156 490Q156 440 171 417T221 385T326 375Q395 375 430 384T480 417T495 490ZM504 185Q504 239 489 264T436 300T326 311Q253
311 216 301T163 265T147 186Q147 132 162 107T215 71T325 60Q398 60 435 70T488 106T504 185Z" />
<glyph unicode="9" glyph-name="nine" horiz-adv-x="651" d="M503 349Q503 471 491 520T444 587T317 606Q247 606 212 594T163 552T148 467Q148 404 162 371T209 325T329 312Q383 312 427 321T503 349ZM165 118Q166 94 180 83T228 66T320 60Q405 60 441 76T490
132T503 297Q472 272 427 260T318 248Q215 248 165 268T93 335T70 462Q70 536 95 583T170 651T321 672Q432 672 486 647T560 560T581 316Q581 151 559 96T480 17T318 -7Q232 -7 180 3T105 35T82 103Q82 119 84 151H163L165 118Z" />
<glyph unicode=":" glyph-name="colon" horiz-adv-x="253" d="M80 368V465H173V368H80ZM80 0V97H173V0H80Z" />
<glyph unicode=";" glyph-name="semicolon" horiz-adv-x="253" d="M80 368V465H173V368H80ZM73 -129L117 0H80V97H173V0L129 -129H73Z" />
<glyph unicode="&lt;" glyph-name="less" horiz-adv-x="651" d="M116 262V342L535 532V459L188 311V293L535 145V72L116 262Z" />
<glyph unicode="=" glyph-name="equal" horiz-adv-x="651" d="M92 355V418H559V355H92ZM92 187V250H559V187H92Z" />
<glyph unicode="&gt;" glyph-name="greater" horiz-adv-x="651" d="M116 72V145L463 293V311L116 459V532L535 342V262L116 72Z" />
<glyph unicode="?" glyph-name="question" horiz-adv-x="533" d="M178 0V91H266V0H178ZM189 183L188 218Q187 250 192 270T210 305T248 330T312 356Q340 366 357 375T383 397T394 430T397 486Q397 525 390 548T366 585T322 602T256 606Q212 606 187 602T147 590T127
570T121 541L118 509H47Q45 516 44 530T43 554Q43 579 51 600T83 637T149 662T259 671Q306 671 345 665T413 639T458 584T474 489Q474 449 470 420T453 369T416 331T350 299Q318 287 300 279T272 263T259 245T256 218L255 183H189Z" />
<glyph unicode="@" glyph-name="at" horiz-adv-x="888" d="M648 -124Q603 -137 551 -144T446 -151Q306 -151 222 -114T99 3T60 233Q60 388 102 483T235 624T470 671Q598 671 677 634T792 518T828 291Q828 212 809 158T754 75T668 47Q622 47 594 64T558 116Q540
84 504 66T419 47Q362 47 325 68T270 130T252 237Q252 318 275 369T343 446T457 471Q492 471 534 466T612 451V230Q612 172 617 150T634 119T672 109Q701 109 720 128T748 187T758 286Q758 430 731 491T641 580T467 609Q343 609 270 572T163 456T130 237Q130 99
160 34T259 -60T451 -89Q502 -89 549 -83T648 -62V-124ZM538 402Q515 405 493 407T456 409Q413 409 385 392T342 338T328 243Q328 192 338 164T370 123T428 109Q466 109 490 124T526 169T538 252V402Z" />
<glyph unicode="A" glyph-name="A" horiz-adv-x="700" d="M595 0L536 164H159L99 0H18L272 665H434L682 0H595ZM376 603H323L182 228H512L376 603Z" />
<glyph unicode="B" glyph-name="B" horiz-adv-x="664" d="M365 373Q421 373 450 385T492 423T505 493Q505 534 493 557T456 589T375 599H157V373H365ZM80 665H394Q462 665 503 648T564 595T584 499Q584 443 559 407T485 352V343Q543 331 573 291T604 185Q604 124
583 83T519 21T409 0H80V665ZM383 67Q443 67 470 77T511 111T525 178Q525 228 512 255T470 295T394 308H157V67H383Z" />
<glyph unicode="C" glyph-name="C" horiz-adv-x="643" d="M503 169H580Q583 141 583 104Q583 65 558 41T478 5T337 -7Q216 -7 161 20T83 114T60 332Q60 478 82 546T161 643T337 672Q466 672 523 647T580 563Q580 542 576 510H502L499 542Q496 573 481 584T431
600T335 605Q244 605 206 585T154 514T139 335Q139 199 154 149T208 80T339 61Q391 61 421 64T468 74T492 92T500 122L503 169Z" />
<glyph unicode="D" glyph-name="D" horiz-adv-x="705" d="M80 0V665H372Q469 665 530 632T619 531T648 333Q648 200 619 133T529 33T375 0H80ZM372 67Q443 67 486 92T549 170T569 331Q569 443 550 495T486 573T367 599H157V67H372Z" />
<glyph unicode="E" glyph-name="E" horiz-adv-x="567" d="M80 0V665H512V599H157V373H483L457 308H157V67H518V0H80Z" />
<glyph unicode="F" glyph-name="F" horiz-adv-x="521" d="M80 0V665H498V599H157V367H472L447 302H157V0H80Z" />
<glyph unicode="G" glyph-name="G" horiz-adv-x="680" d="M535 0L529 33H520Q487 13 441 3T337 -7Q216 -7 161 20T83 114T60 332Q60 478 82 546T161 643T338 672Q429 672 484 661T566 626T593 561Q593 540 591 520H514L512 545Q509 575 493 586T441 601T337 606Q245
606 207 586T154 515T139 335Q139 199 154 149T208 80T338 61Q398 61 441 67T525 89V240H371V305H602V0H535Z" />
<glyph unicode="H" glyph-name="H" horiz-adv-x="713" d="M556 0V307H157V0H80V665H157V374H556V665H633V0H556Z" />
<glyph unicode="I" glyph-name="I" horiz-adv-x="237" d="M80 0V665H157V0H80Z" />
<glyph unicode="J" glyph-name="J" horiz-adv-x="492" d="M335 665H413V192Q413 118 392 75T327 13T201 -7Q131 -7 90 5T31 42T12 110Q12 137 14 169H91L93 126Q94 95 103 83T136 66T202 60Q255 60 283 72T323 112T335 200V665Z" />
<glyph unicode="K" glyph-name="K" horiz-adv-x="661" d="M544 0L245 308H157V0H80V665H157V373H245L517 665H618L314 347L654 0H544Z" />
<glyph unicode="L" glyph-name="L" horiz-adv-x="522" d="M80 0V665H157V67H504V0H80Z" />
<glyph unicode="M" glyph-name="M" horiz-adv-x="920" d="M763 0V609H746L497 0H423L174 609H157V0H80V665H230L463 95L696 665H840V0H763Z" />
<glyph unicode="N" glyph-name="N" horiz-adv-x="754" d="M538 0L174 605H157V0H80V665H222L586 60H597V665H674V0H538Z" />
<glyph unicode="O" glyph-name="O" horiz-adv-x="675" d="M337 -7Q218 -7 161 20T82 113T60 332Q60 481 82 548T161 644T338 672Q454 672 511 646T592 555T615 333Q615 182 592 115T512 20T337 -7ZM338 61Q426 61 466 79T521 146T536 333Q536 472 521 520T465
586T337 605Q247 605 208 586T154 517T139 332Q139 196 153 148T207 80T338 61Z" />
<glyph unicode="P" glyph-name="P" horiz-adv-x="633" d="M80 0V665H332Q444 665 494 644T569 576T593 452Q593 375 568 328T491 259T332 237H157V0H80ZM332 303Q415 303 449 316T498 361T514 451Q514 509 499 541T449 586T332 599H157V303H332Z" />
<glyph unicode="Q" glyph-name="Q" horiz-adv-x="677" d="M337 0Q221 0 164 26T83 116T60 335Q60 482 82 549T161 644T338 672Q454 672 511 646T592 556T615 336Q615 250 608 195T584 108T534 60L671 63L646 0H337ZM338 67Q428 67 467 86T521 153T536 336Q536
473 521 520T465 586T337 605Q247 605 208 586T154 518T139 335Q139 199 154 152T208 86T338 67Z" />
<glyph unicode="R" glyph-name="R" horiz-adv-x="646" d="M528 0L306 272H157V0H80V665H339Q447 665 495 646T567 584T591 469Q591 406 572 364T511 300T400 273L628 0H528ZM339 338Q418 338 450 349T497 389T512 468Q512 519 498 547T451 587T339 599H157V338H339Z" />
<glyph unicode="S" glyph-name="S" horiz-adv-x="628" d="M238 308Q172 313 135 331T79 385T61 476Q61 548 86 590T166 652T313 672Q394 672 445 660T522 623T547 557Q547 544 545 522H468L465 550Q463 572 447 584T398 601T312 606Q240 606 204 595T154 557T140
477Q140 427 164 405T248 378L393 367Q460 362 497 344T552 289T570 194Q570 118 545 76T462 13T309 -7Q217 -7 163 4T85 40T60 105Q60 123 62 155H140L143 126Q146 95 159 83T207 66T310 60Q384 60 422 71T475 110T491 192Q491 247 468 269T383 297L238 308Z"
/>
<glyph unicode="T" glyph-name="T" horiz-adv-x="573" d="M247 0V599H26V665H553L527 599H324V0H247Z" />
<glyph unicode="U" glyph-name="U" horiz-adv-x="694" d="M537 665H614V27Q478 -5 355 -5Q253 -5 192 17T103 87T75 217V665H152V225Q152 151 170 121T234 76T360 62Q452 62 537 77V665Z" />
<glyph unicode="V" glyph-name="V" horiz-adv-x="663" d="M263 0L21 665H104L321 58H348L561 665H642L400 0H263Z" />
<glyph unicode="W" glyph-name="W" horiz-adv-x="1078" d="M716 0L538 603L356 0H219L31 665H113L281 58H300L484 665H595L776 58H793L968 665H1048L851 0H716Z" />
<glyph unicode="X" glyph-name="X" horiz-adv-x="620" d="M511 0L316 311H299L104 0H18L238 344L33 665H124L302 380H319L497 665H583L380 347L602 0H511Z" />
<glyph unicode="Y" glyph-name="Y" horiz-adv-x="608" d="M153 0L291 241H238L11 665H99L293 296H323L529 665H608L233 0H153Z" />
<glyph unicode="Z" glyph-name="Z" horiz-adv-x="582" d="M44 0V107L445 581V599H51V665H520V561L119 87V67H549L523 0H44Z" />
<glyph unicode="[" glyph-name="bracketleft" horiz-adv-x="285" d="M80 -179V735H240V679H149V-123H240V-179H80Z" />
<glyph unicode="\" glyph-name="backslash" horiz-adv-x="490" d="M404 0L10 665H86L480 0H404Z" />
<glyph unicode="]" glyph-name="bracketright" horiz-adv-x="285" d="M45 -179V-123H136V679H45V735H205V-179H45Z" />
<glyph unicode="^" glyph-name="asciicircum" horiz-adv-x="536" d="M411 366L275 603H257L121 366H45L220 665H316L491 366H411Z" />
<glyph unicode="_" glyph-name="underscore" horiz-adv-x="523" d="M0 -130V-67H523V-130H0Z" />
<glyph unicode="`" glyph-name="grave" horiz-adv-x="287" d="M182 526L70 629L115 671L217 557L182 526Z" />
<glyph unicode="a" glyph-name="a" horiz-adv-x="532" d="M398 0L390 45H384Q363 19 327 7T237 -6Q164 -6 124 8T65 52T47 135Q47 188 64 217T122 260T243 274H386V325Q386 366 376 381T340 404T260 411Q221 411 197 408T160 397T145 372L143 360H71Q67 403 85
426T146 460T262 471Q337 471 380 459T440 420T458 330V0H398ZM386 218H243Q186 218 164 211T131 187T121 138Q121 107 132 89T168 62T242 54Q304 54 333 63T374 95T386 163V218Z" />
<glyph unicode="b" glyph-name="b" horiz-adv-x="540" d="M75 665H147V416Q167 444 201 457T288 471Q359 471 403 447T467 375T487 234Q487 135 465 88T393 17T262 -6Q222 -6 169 1T75 19V665ZM147 64Q174 60 203 58T262 56Q320 56 353 71T399 120T413 232Q413
308 401 342T359 393T278 409Q229 409 200 400T159 371T147 304V64Z" />
<glyph unicode="c" glyph-name="c" horiz-adv-x="508" d="M386 129H459Q464 79 445 50T382 8T264 -6Q178 -6 135 14T74 81T56 232Q56 332 73 380T134 450T266 471Q337 471 380 458T441 418T455 339H381L379 360Q377 382 365 391T329 405T263 409Q201 409 175 396T140
350T130 232Q130 145 140 113T177 68T265 56Q307 56 332 60T369 75T384 111L386 129Z" />
<glyph unicode="d" glyph-name="d" horiz-adv-x="540" d="M404 0L395 50Q375 22 340 8T252 -6Q181 -6 137 18T73 90T53 231Q53 329 74 376T143 446T264 470Q300 470 333 464T393 447V665H465V0H404ZM393 397Q364 403 335 406T278 409Q220 409 187 394T141 345T127
233Q127 157 139 123T181 72T262 56Q311 56 340 65T381 94T393 161V397Z" />
<glyph unicode="e" glyph-name="e" horiz-adv-x="526" d="M463 116Q468 74 450 48T389 8T273 -6Q181 -6 137 14T75 81T56 226Q56 326 75 377T140 449T269 471Q344 471 388 452T452 391T471 259Q471 241 469 218H130Q130 140 141 110T181 67T275 54Q317 54 340
58T375 71T389 103L391 116H463ZM398 274Q398 332 387 359T347 398T267 411Q216 411 188 400T147 364T130 274H398Z" />
<glyph unicode="f" glyph-name="f" horiz-adv-x="285" d="M87 0V405H15V465H87V510Q87 574 101 608T147 656T244 671Q264 671 297 668V607Q261 609 244 609Q204 609 188 601T165 573T159 504V465H282L265 405H159V0H87Z" />
<glyph unicode="g" glyph-name="g" horiz-adv-x="522" d="M128 -76L130 -101Q131 -117 143 -126T182 -139T258 -143Q328 -143 358 -137T401 -115T414 -68Q414 -41 406 -27T381 -6T320 0H197Q140 0 114 8T76 35T63 87Q63 123 77 145T119 176Q90 192 77 224T63 310Q63
372 81 406T141 455T257 471Q279 471 300 470T339 465H503V405H425V399Q439 387 445 365T452 311Q452 250 434 216T374 166T257 150Q237 150 209 150T176 151Q147 151 136 142T124 109Q124 88 129 79T150 67T202 64H325Q389 64 421 51T469 10T485 -65Q485 -114
462 -144T392 -187T254 -200Q178 -200 134 -192T72 -166T53 -111Q53 -97 56 -76H128ZM381 310Q381 353 371 374T335 404T257 414Q206 414 181 405T145 375T134 311Q134 268 144 247T180 216T257 207Q309 207 334 216T370 247T381 310Z" />
<glyph unicode="h" glyph-name="h" horiz-adv-x="550" d="M404 0V254Q404 301 403 323T397 359T383 382Q369 396 344 402T284 409Q249 409 213 403T147 386V0H75V665H147V429Q182 451 219 461T301 471Q349 471 383 460T439 428Q453 414 461 394T472 345T476 267V0H404Z" />
<glyph unicode="i" glyph-name="i" horiz-adv-x="222" d="M75 556V642H147V556H75ZM75 0V465H147V0H75Z" />
<glyph unicode="j" glyph-name="j" horiz-adv-x="222" d="M75 556V642H147V556H75ZM-20 -136H10Q43 -136 54 -133T70 -119T75 -74V465H147V-77Q147 -129 136 -153T101 -188T35 -198Q11 -198 -20 -195V-136Z" />
<glyph unicode="k" glyph-name="k" horiz-adv-x="486" d="M396 0L203 223H147V0H75V665H147V280H203L366 465H451L263 259L492 0H396Z" />
<glyph unicode="l" glyph-name="l" horiz-adv-x="222" d="M75 0V665H147V0H75Z" />
<glyph unicode="m" glyph-name="m" horiz-adv-x="858" d="M713 0V254Q713 304 711 327T705 362T692 383Q679 396 655 402T598 409Q560 409 523 402T456 381Q461 363 463 335T466 267V0H394V254Q394 304 392 327T386 362T373 383Q360 396 336 402T279 409Q245 409
210 403T147 386V0H75V465H138L143 431H150Q182 451 217 461T296 471Q347 471 383 458T439 418H443Q493 448 531 459T615 471Q660 471 693 461T747 430Q768 409 776 374T785 267V0H713Z" />
<glyph unicode="n" glyph-name="n" horiz-adv-x="549" d="M404 0V254Q404 303 402 326T396 361T383 382Q369 396 344 402T284 409Q249 409 213 403T147 386V0H75V465H138L143 431H150Q183 451 220 461T301 471Q349 471 383 460T439 428Q453 414 461 395T472 346T476
267V0H404Z" />
<glyph unicode="o" glyph-name="o" horiz-adv-x="534" d="M267 -6Q178 -6 135 14T74 83T56 232Q56 335 74 383T137 451T267 471Q353 471 397 452T459 385T478 233Q478 132 460 84T398 15T267 -6ZM267 56Q331 56 357 69T394 114T404 232Q404 319 394 351T356 396T267
409Q205 409 178 397T141 353T130 233Q130 149 139 116T175 70T267 56Z" />
<glyph unicode="p" glyph-name="p" horiz-adv-x="540" d="M75 -196V465H136L145 415Q165 443 200 457T288 471Q359 471 403 447T467 375T487 234Q487 136 466 89T397 19T276 -5Q240 -5 207 1T147 18V-196H75ZM147 68Q176 62 205 59T262 56Q320 56 353 71T399 120T413
232Q413 308 401 342T359 393T278 409Q229 409 200 400T159 371T147 304V68Z" />
<glyph unicode="q" glyph-name="q" horiz-adv-x="540" d="M393 -196V49Q373 21 339 8T252 -6Q181 -6 137 18T73 90T53 231Q53 330 75 377T147 448T278 471Q318 471 371 464T465 446V-196H393ZM393 401Q337 409 278 409Q220 409 187 394T141 345T127 233Q127 157
139 123T181 72T262 56Q311 56 340 65T381 94T393 161V401Z" />
<glyph unicode="r" glyph-name="r" horiz-adv-x="362" d="M75 0V465H138L143 431H150Q181 451 217 461T292 471Q318 471 341 467V397Q311 400 283 400Q247 400 211 395T147 381V0H75Z" />
<glyph unicode="s" glyph-name="s" horiz-adv-x="514" d="M370 358L368 373Q366 394 341 402T255 411Q202 411 176 404T140 382T129 334Q129 302 144 289T198 273L329 264Q380 260 407 247T448 207T462 138Q462 83 442 53T377 9T252 -6Q176 -6 132 4T70 35T55
116H130L132 101Q135 80 146 71T182 58T254 54Q312 54 339 61T378 84T389 136Q389 171 374 185T320 201L189 210Q138 214 111 227T70 266T56 332Q56 384 75 413T139 457T257 471Q326 471 368 462T428 433T445 358H370Z" />
<glyph unicode="t" glyph-name="t" horiz-adv-x="331" d="M292 0Q250 -6 222 -6Q167 -6 138 6T96 45T84 142V405H15V465H84V578H156V465H299L283 405H156V149Q156 101 161 85T179 62T225 56Q257 56 292 61V0Z" />
<glyph unicode="u" glyph-name="u" horiz-adv-x="550" d="M403 465H475V32Q350 -6 261 -6Q208 -6 171 4T111 37Q90 58 82 93T74 198V465H146V211Q146 145 150 121T167 83Q181 69 207 63T274 56Q334 56 403 75V465Z" />
<glyph unicode="v" glyph-name="v" horiz-adv-x="483" d="M174 0L17 465H93L229 53H259L392 465H466L307 0H174Z" />
<glyph unicode="w" glyph-name="w" horiz-adv-x="742" d="M474 0L371 421L268 0H148L25 465H101L204 53H219L321 465H428L530 53H545L645 465H717L592 0H474Z" />
<glyph unicode="x" glyph-name="x" horiz-adv-x="479" d="M377 0L245 215H228L96 0H14L170 244L29 465H117L232 275H249L364 465H446L307 246L465 0H377Z" />
<glyph unicode="y" glyph-name="y" horiz-adv-x="474" d="M102 -137H133Q163 -137 177 -131T201 -109T225 -52L243 0H174L17 465H93L229 53H259L383 465H457L292 -52Q270 -115 252 -145T212 -187T149 -199Q127 -199 102 -196V-137Z" />
<glyph unicode="z" glyph-name="z" horiz-adv-x="456" d="M42 0V91L324 391V405H47V465H396V376L114 76V60H418L402 0H42Z" />
<glyph unicode="{" glyph-name="braceleft" horiz-adv-x="300" d="M223 -179Q181 -179 153 -164T110 -117T95 -35V166Q95 202 90 218T72 243T37 256V314Q61 318 73 327T90 353T95 404V591Q95 639 108 671T150 719T223 735H255V679H229Q203 679 189 671T170 645T164
582V400Q164 358 147 329T101 291V279Q130 270 147 241T164 170V-26Q164 -71 169 -89T189 -115T229 -123H255V-179H223Z" />
<glyph unicode="|" glyph-name="bar" horiz-adv-x="229" d="M80 -179V735H149V-179H80Z" />
<glyph unicode="}" glyph-name="braceright" horiz-adv-x="300" d="M45 -179V-123H71Q97 -123 111 -115T130 -89T136 -26V170Q136 212 153 241T199 279V291Q170 300 153 329T136 400V582Q136 627 131 645T111 671T71 679H45V735H77Q121 735 149 719T191 671T205
591V404Q205 370 210 354T227 328T263 314V256Q239 252 227 243T210 217T205 166V-35Q205 -85 191 -117T148 -164T77 -179H45Z" />
<glyph unicode="~" glyph-name="asciitilde" horiz-adv-x="564" d="M522 553Q491 491 459 470T387 449Q357 449 329 459T275 483T224 506T175 517Q161 517 151 514T130 504T111 483T90 449L42 478Q57 509 72 529T104 561T139 577T177 582Q207 582 235 572T289
548T340 525T389 514Q402 514 413 517T434 527T453 548T474 582L522 553Z" />
<glyph unicode="&#xa0;" glyph-name="space" horiz-adv-x="223" />
<glyph unicode="&#xa1;" glyph-name="exclamdown" horiz-adv-x="270" d="M91 -130L102 352H168L179 -130H91ZM91 444V535H179V444H91Z" />
<glyph unicode="&#xa2;" glyph-name="cent" horiz-adv-x="651" d="M301 0V69Q223 72 183 92T126 158T109 307Q109 414 125 457T183 521T301 545V615H356V545Q422 543 461 530T516 491T528 414H455L453 435Q450 462 428 472T356 484V130Q409 132 431 143T458 186L460
204H532Q536 155 519 127T463 85T356 69V0H301ZM301 484Q249 482 225 468T191 422T182 307Q182 224 191 193T224 147T301 130V484Z" />
<glyph unicode="&#xa3;" glyph-name="sterling" horiz-adv-x="651" d="M77 0V101Q116 125 126 151T137 235V278H62V343H137V496Q137 562 159 598T230 653T354 672Q431 672 478 660T548 623T571 560Q571 535 568 518H493L490 551Q488 575 474 585T429 600T350 605Q300
605 270 595T227 565T214 500V343H448L421 278H214V235Q214 177 203 147T154 81V67H584V0H77Z" />
<glyph unicode="&#xa4;" glyph-name="currency" horiz-adv-x="534" d="M397 51L340 149Q305 144 267 144Q221 144 193 148L137 51L83 82L131 166Q91 185 74 224T56 338Q56 409 73 449T132 509L83 594L137 625L193 527Q230 532 267 532Q305 532 340 527L397 625L451
594L402 510Q443 491 460 452T478 338Q478 267 460 227T402 166L451 82L397 51ZM267 201Q324 201 352 213T392 252T404 338Q404 399 392 426T350 464T267 475Q213 475 184 464T143 426T130 338Q130 279 141 252T181 213T267 201Z" />
<glyph unicode="&#xa5;" glyph-name="yen" horiz-adv-x="651" d="M364 97V0H287V97H100V160H287V245H100V308H287V345L76 665H167L321 427H336L490 665H575L364 345V308H551V245H364V160H551V97H364Z" />
<glyph unicode="&#xa6;" glyph-name="brokenbar" horiz-adv-x="229" d="M80 369V735H149V369H80ZM80 -179V187H149V-179H80Z" />
<glyph unicode="&#xa7;" glyph-name="section" horiz-adv-x="651" d="M232 103Q179 120 151 138T112 181T100 247Q100 294 119 326T191 392Q155 414 139 445T123 522Q123 579 142 610T204 656T324 671Q391 671 433 662T495 634Q506 623 510 606T512 558H437L435
573Q433 587 423 595T388 607T322 611Q268 611 243 604T207 579T196 524Q196 495 202 479T226 452T286 426L420 382Q471 365 499 348T539 306T552 238Q552 208 544 184T517 139T461 93Q497 71 513 40T529 -37Q529 -98 509 -130T443 -176T319 -191Q249 -191 204
-182T140 -154Q128 -142 124 -126T122 -69H197L199 -84Q202 -106 214 -115T251 -127T321 -131Q378 -131 405 -124T444 -99T456 -39Q456 -10 450 6T426 33T366 59L232 103ZM400 119Q438 149 452 164T472 196T476 236Q475 254 472 265T460 285T437 302T396 319L252
366Q224 344 211 332T191 310T180 288T176 249Q176 232 181 217T203 190T256 166L400 119Z" />
<glyph unicode="&#xa8;" glyph-name="dieresis" horiz-adv-x="389" d="M247 556V642H319V556H247ZM70 556V642H142V556H70Z" />
<glyph unicode="&#xa9;" glyph-name="copyright" horiz-adv-x="866" d="M604 243Q608 198 592 173T537 136T433 124Q357 124 319 141T265 199T250 333Q250 431 266 470T321 526T434 543Q498 543 535 532T588 498T600 427H535L534 445Q532 464 523 472T492 485T432
489Q380 489 357 478T324 439T315 333Q315 257 323 229T355 190T434 178Q471 178 493 182T525 195T538 227L540 243H604ZM433 4Q550 4 621 36T724 135T756 333Q756 464 724 531T621 630T433 662Q316 662 245 630T142 531T110 333Q110 202 142 135T245 36T433 4ZM433
-40Q302 -40 220 -2T99 116T60 333Q60 470 98 549T219 667T433 706Q564 706 646 668T767 550T806 333Q806 196 768 117T647 -1T433 -40Z" />
<glyph unicode="&#xaa;" glyph-name="ordfeminine" horiz-adv-x="394" d="M62 288V335H332V288H62ZM180 517Q141 517 128 509T115 476Q115 454 130 445T183 435Q231 435 249 446T267 491V517H180ZM275 395L271 419H266Q251 403 232 397T180 390Q113 390 86 409T59
476Q59 521 82 540T165 560H267V585Q267 605 261 612T239 622T194 625Q172 625 159 624T139 619T131 607L130 599H74Q71 628 82 642T120 663T195 670Q245 670 272 662T311 637T322 581V395H275Z" />
<glyph unicode="&#xab;" glyph-name="guillemotleft" horiz-adv-x="556" d="M232 48L80 260L232 472L285 438L170 260L285 82L232 48ZM422 48L271 260L422 472L476 438L361 260L476 82L422 48Z" />
<glyph unicode="&#xac;" glyph-name="logicalnot" horiz-adv-x="651" d="M490 72V271H92V334H559V72H490Z" />
<glyph unicode="&#xad;" glyph-name="hyphen" horiz-adv-x="282" d="M47 226V291H235V226H47Z" />
<glyph unicode="&#xae;" glyph-name="registered" horiz-adv-x="508" d="M303 402L247 483H218V402H180V610H255Q292 610 308 605T331 586T339 549Q339 520 327 505T290 485L351 402H303ZM260 513Q284 513 291 520T299 546Q299 565 292 572T260 579H218V513H260ZM448
505Q448 435 429 394T366 332T254 311Q187 311 144 330T81 391T60 505Q60 575 79 616T142 678T254 699Q323 699 366 679T428 617T448 505ZM254 343Q312 343 347 359T397 408T413 505Q413 569 398 602T347 651T254 667Q196 667 161 651T111 602T95 505Q95 441 110
408T161 359T254 343Z" />
<glyph unicode="&#xaf;" glyph-name="macron" horiz-adv-x="384" d="M70 560V615H314V560H70Z" />
<glyph unicode="&#xb0;" glyph-name="degree" horiz-adv-x="376" d="M333 528Q333 489 315 456T263 404T188 385Q147 385 114 404T62 456T43 528Q43 568 62 601T114 652T188 671Q228 671 261 653T314 601T333 528ZM188 447Q223 447 244 470T266 528Q266 563 245
586T188 609Q153 609 132 586T110 528Q110 493 131 470T188 447Z" />
<glyph unicode="&#xb1;" glyph-name="plusminus" horiz-adv-x="651" d="M360 337V162H291V337H116V400H291V574H360V400H535V337H360ZM116 0V63H535V0H116Z" />
<glyph unicode="&#xb2;" glyph-name="twosuperior" horiz-adv-x="433" d="M70 270V335Q70 383 80 410T115 452T187 474L230 480Q264 485 279 491T300 511T307 552Q307 588 289 602T223 617Q185 617 169 613T146 600T138 573L137 551H77Q73 572 73 593Q73 621 87
637T133 661T228 669Q282 669 310 658T353 621T368 554Q368 511 357 486T320 449T237 428L194 422Q166 418 153 410T135 386T130 342V323H368V270H70Z" />
<glyph unicode="&#xb3;" glyph-name="threesuperior" horiz-adv-x="433" d="M183 514L298 605V613H69V665H358V587L249 500V497H253Q320 497 346 472T373 387Q373 343 357 316T307 276T215 264Q156 264 125 270T79 293T64 343Q64 353 67 371H125L126 359Q128 338
135 330T160 319T219 316Q261 316 278 321T304 341T312 386Q312 424 297 437T237 450H183V514Z" />
<glyph unicode="&#xb4;" glyph-name="acute" horiz-adv-x="287" d="M105 526L70 557L172 671L217 629L105 526Z" />
<glyph unicode="&#xb5;" glyph-name="mu" horiz-adv-x="551" d="M75 -196V465H147V211Q147 162 149 139T155 104T168 83Q195 56 275 56Q335 56 404 75V465H476V32Q351 -6 262 -6Q218 -5 192 1T147 22V-196H75Z" />
<glyph unicode="&#xb6;" glyph-name="paragraph" horiz-adv-x="574" d="M427 -196V603H356V-196H289V259H234Q148 259 115 278T65 341T49 462Q49 538 65 582T114 646T234 665H494V-196H427Z" />
<glyph unicode="&#xb7;" glyph-name="periodcentered" horiz-adv-x="231" d="M69 284V381H162V284H69Z" />
<glyph unicode="&#xb8;" glyph-name="cedilla" horiz-adv-x="250" d="M70 -196L92 -159Q98 -149 101 -141T104 -125Q104 -117 101 -111T85 -93L70 -79L122 13H180L139 -59L153 -72Q165 -83 170 -93T176 -116Q176 -128 171 -141T152 -172L135 -196H70Z" />
<glyph unicode="&#xb9;" glyph-name="onesuperior" horiz-adv-x="418" d="M81 269V321H190V613L93 589V639L194 665H251V321H350V269H81Z" />
<glyph unicode="&#xba;" glyph-name="ordmasculine" horiz-adv-x="394" d="M197 391Q139 391 112 402T73 442T62 530Q62 592 74 620T114 659T197 670Q255 670 282 659T321 619T332 531Q332 469 320 441T280 402T197 391ZM197 438Q233 438 248 444T268 468T274
530Q274 575 269 592T248 616T197 623Q161 623 146 617T125 593T119 531Q119 486 124 469T145 445T197 438ZM62 288V335H332V288H62Z" />
<glyph unicode="&#xbb;" glyph-name="guillemotright" horiz-adv-x="556" d="M80 82L195 260L80 438L134 472L285 260L134 48L80 82ZM271 82L386 260L271 438L324 472L476 260L324 48L271 82Z" />
<glyph unicode="&#xbc;" glyph-name="onequarter" horiz-adv-x="888" d="M684 0V84H468V156L642 356H745V136H810L791 84H745V0H684ZM184 0L593 665H658L249 0H184ZM85 309V361H165V612L85 597V647L168 665H226V361H299V309H85ZM684 307H665L528 146V136H684V307Z" />
<glyph unicode="&#xbd;" glyph-name="onehalf" horiz-adv-x="888" d="M184 0L593 665H658L249 0H184ZM85 309V361H165V612L85 597V647L168 665H226V361H299V309H85ZM521 0V59Q521 92 526 113T542 148T575 172T629 186L669 192Q693 196 704 200T722 210T732 226T735
255Q735 286 720 297T662 309Q626 309 612 306T593 297T587 274L586 254H527Q524 276 524 292Q524 317 537 332T579 354T666 361Q716 361 742 351T782 317T795 257Q795 226 789 206T770 174T736 155T675 141L635 135Q617 132 608 128T592 117T583 98T580 65V52H795V0H521Z"
/>
<glyph unicode="&#xbe;" glyph-name="threequarters" horiz-adv-x="949" d="M745 0V84H529V156L703 356H806V136H871L852 84H806V0H745ZM245 0L654 665H719L310 0H245ZM745 307H726L589 146V136H745V307ZM178 534L287 605V613H78V665H347V587L244 520V517H248Q291
517 314 507T349 475T361 415Q361 374 346 350T300 315T209 304Q155 304 127 310T85 333T72 383Q72 393 75 411H133L134 399Q136 378 142 370T161 359T211 356Q247 356 265 360T291 377T300 415Q300 439 294 450T275 465T235 470H178V534Z" />
<glyph unicode="&#xbf;" glyph-name="questiondown" horiz-adv-x="533" d="M267 444V535H355V444H267ZM486 26Q490 8 490 -19Q490 -56 473 -81T408 -121T274 -136Q204 -136 158 -123T86 -69T59 46Q59 104 67 136T102 192T183 236Q219 249 236 257T262 272T274
290T277 317L278 352H344L345 317Q346 273 337 252T306 217T221 179Q179 164 163 152T142 118T136 49Q136 -3 149 -28T192 -62T277 -71Q333 -71 361 -64T400 -44T412 -6L415 26H486Z" />
<glyph unicode="&#xc0;" glyph-name="Agrave" horiz-adv-x="700" d="M595 0L536 164H159L99 0H18L272 665H434L682 0H595ZM376 603H323L182 228H512L376 603ZM242 789L269 844L417 768L395 726L242 789Z" />
<glyph unicode="&#xc1;" glyph-name="Aacute" horiz-adv-x="700" d="M595 0L536 164H159L99 0H18L272 665H434L682 0H595ZM376 603H323L182 228H512L376 603ZM308 726L286 768L434 844L461 789L308 726Z" />
<glyph unicode="&#xc2;" glyph-name="Acircumflex" horiz-adv-x="700" d="M595 0L536 164H159L99 0H18L272 665H434L682 0H595ZM376 603H323L182 228H512L376 603ZM350 784L252 716L223 753L350 853L477 753L448 716L350 784Z" />
<glyph unicode="&#xc3;" glyph-name="Atilde" horiz-adv-x="700" d="M595 0L536 164H159L99 0H18L272 665H434L682 0H595ZM376 603H323L182 228H512L376 603ZM490 792Q466 749 449 734T408 718Q394 718 380 723T342 742Q315 757 307 760T291 764Q283 764 275 756T249
720L210 747Q234 790 251 805T292 821Q306 821 320 816T358 797Q385 782 393 779T409 775Q417 775 425 783T451 819L490 792Z" />
<glyph unicode="&#xc4;" glyph-name="Adieresis" horiz-adv-x="700" d="M595 0L536 164H159L99 0H18L272 665H434L682 0H595ZM376 603H323L182 228H512L376 603ZM403 738V824H475V738H403ZM226 738V824H298V738H226Z" />
<glyph unicode="&#xc5;" glyph-name="Aring" horiz-adv-x="700" d="M595 0L536 164H159L99 0H18L272 665H434L682 0H595ZM376 603H323L182 228H512L376 603ZM463 805Q463 763 453 744T420 718T350 710Q303 710 280 717T247 743T237 805Q237 846 246 865T279 892T350
900Q397 900 420 893T453 867T463 805ZM411 805Q411 832 406 841T389 853T350 857Q320 857 309 853T293 840T289 805Q289 778 294 769T311 757T350 753Q377 753 389 756T406 769T411 805Z" />
<glyph unicode="&#xc6;" glyph-name="AE" horiz-adv-x="959" d="M482 0V164H170L85 0H0L353 665H904V599H559V373H875L849 308H559V67H910V0H482ZM482 599H396L203 228H482V599Z" />
<glyph unicode="&#xc7;" glyph-name="Ccedilla" horiz-adv-x="643" d="M271 -196L293 -159Q299 -149 302 -141T305 -125Q305 -117 302 -111T286 -93L271 -79L312 -7Q203 -4 152 25T81 121T60 332Q60 478 82 546T161 643T337 672Q466 672 523 647T580 563Q580 542
576 510H502L499 542Q496 573 481 584T431 600T335 605Q244 605 206 585T154 514T139 335Q139 199 154 149T208 80T339 61Q391 61 421 64T468 74T492 92T500 122L503 169H580Q583 141 583 104Q583 67 560 44T490 8T370 -7L340 -59L354 -72Q366 -83 371 -93T377
-116Q377 -128 372 -141T353 -172L336 -196H271Z" />
<glyph unicode="&#xc8;" glyph-name="Egrave" horiz-adv-x="567" d="M80 0V665H512V599H157V373H483L457 308H157V67H518V0H80ZM173 789L200 844L348 768L326 726L173 789Z" />
<glyph unicode="&#xc9;" glyph-name="Eacute" horiz-adv-x="567" d="M80 0V665H512V599H157V373H483L457 308H157V67H518V0H80ZM284 726L262 768L410 844L437 789L284 726Z" />
<glyph unicode="&#xca;" glyph-name="Ecircumflex" horiz-adv-x="567" d="M80 0V665H512V599H157V373H483L457 308H157V67H518V0H80ZM300 784L202 716L173 753L300 853L427 753L398 716L300 784Z" />
<glyph unicode="&#xcb;" glyph-name="Edieresis" horiz-adv-x="567" d="M80 0V665H512V599H157V373H483L457 308H157V67H518V0H80ZM355 738V824H427V738H355ZM178 738V824H250V738H178Z" />
<glyph unicode="&#xcc;" glyph-name="Igrave" horiz-adv-x="237" d="M80 0V665H157V0H80ZM266 789L293 844L441 768L419 726L266 789Z" />
<glyph unicode="&#xcd;" glyph-name="Iacute" horiz-adv-x="237" d="M80 0V665H157V0H80ZM330 726L308 768L456 844L483 789L330 726Z" />
<glyph unicode="&#xce;" glyph-name="Icircumflex" horiz-adv-x="237" d="M80 0V665H157V0H80ZM374 784L276 716L247 753L374 853L501 753L472 716L374 784Z" />
<glyph unicode="&#xcf;" glyph-name="Idieresis" horiz-adv-x="237" d="M80 0V665H157V0H80ZM427 738V824H499V738H427ZM250 738V824H322V738H250Z" />
<glyph unicode="&#xd0;" glyph-name="Eth" horiz-adv-x="715" d="M90 0V311H32V368H90V665H382Q479 665 540 632T629 531T658 333Q658 200 629 133T539 33T385 0H90ZM382 67Q453 67 496 92T559 170T579 331Q579 443 560 495T496 573T377 599H167V368H404V311H167V67H382Z" />
<glyph unicode="&#xd1;" glyph-name="Ntilde" horiz-adv-x="754" d="M538 0L174 605H157V0H80V665H222L586 60H597V665H674V0H538ZM537 792Q513 749 496 734T455 718Q441 718 427 723T389 742Q362 757 354 760T338 764Q330 764 322 756T296 720L257 747Q281 790
298 805T339 821Q353 821 367 816T405 797Q432 782 440 779T456 775Q464 775 472 783T498 819L537 792Z" />
<glyph unicode="&#xd2;" glyph-name="Ograve" horiz-adv-x="675" d="M337 -7Q218 -7 161 20T82 113T60 332Q60 481 82 548T161 644T338 672Q454 672 511 646T592 555T615 333Q615 182 592 115T512 20T337 -7ZM338 61Q426 61 466 79T521 146T536 333Q536 472 521
520T465 586T337 605Q247 605 208 586T154 517T139 332Q139 196 153 148T207 80T338 61ZM230 789L257 844L405 768L383 726L230 789Z" />
<glyph unicode="&#xd3;" glyph-name="Oacute" horiz-adv-x="675" d="M337 -7Q218 -7 161 20T82 113T60 332Q60 481 82 548T161 644T338 672Q454 672 511 646T592 555T615 333Q615 182 592 115T512 20T337 -7ZM338 61Q426 61 466 79T521 146T536 333Q536 472 521
520T465 586T337 605Q247 605 208 586T154 517T139 332Q139 196 153 148T207 80T338 61ZM304 726L282 768L430 844L457 789L304 726Z" />
<glyph unicode="&#xd4;" glyph-name="Ocircumflex" horiz-adv-x="675" d="M337 -7Q218 -7 161 20T82 113T60 332Q60 481 82 548T161 644T338 672Q454 672 511 646T592 555T615 333Q615 182 592 115T512 20T337 -7ZM338 61Q426 61 466 79T521 146T536 333Q536 472
521 520T465 586T337 605Q247 605 208 586T154 517T139 332Q139 196 153 148T207 80T338 61ZM339 784L241 716L212 753L339 853L466 753L437 716L339 784Z" />
<glyph unicode="&#xd5;" glyph-name="Otilde" horiz-adv-x="675" d="M337 -7Q218 -7 161 20T82 113T60 332Q60 481 82 548T161 644T338 672Q454 672 511 646T592 555T615 333Q615 182 592 115T512 20T337 -7ZM338 61Q426 61 466 79T521 146T536 333Q536 472 521
520T465 586T337 605Q247 605 208 586T154 517T139 332Q139 196 153 148T207 80T338 61ZM477 792Q453 749 436 734T395 718Q381 718 367 723T329 742Q302 757 294 760T278 764Q270 764 262 756T236 720L197 747Q221 790 238 805T279 821Q293 821 307 816T345 797Q372
782 380 779T396 775Q404 775 412 783T438 819L477 792Z" />
<glyph unicode="&#xd6;" glyph-name="Odieresis" horiz-adv-x="675" d="M337 -7Q218 -7 161 20T82 113T60 332Q60 481 82 548T161 644T338 672Q454 672 511 646T592 555T615 333Q615 182 592 115T512 20T337 -7ZM338 61Q426 61 466 79T521 146T536 333Q536 472
521 520T465 586T337 605Q247 605 208 586T154 517T139 332Q139 196 153 148T207 80T338 61ZM390 738V824H462V738H390ZM213 738V824H285V738H213Z" />
<glyph unicode="&#xd7;" glyph-name="multiply" horiz-adv-x="651" d="M324 256L158 90L113 135L279 301L113 467L161 515L327 349L493 515L538 470L372 304L538 138L490 90L324 256Z" />
<glyph unicode="&#xd8;" glyph-name="Oslash" horiz-adv-x="675" d="M337 -7Q218 -7 161 20T82 113T60 332Q60 481 82 548T161 644T338 672Q457 672 514 645T593 552T615 333Q615 182 592 115T512 20T337 -7ZM161 128Q178 91 217 76T338 61Q426 61 466 79T521
146T536 333Q536 391 535 424T529 480L161 128ZM513 540Q495 576 456 590T337 605Q247 605 208 586T154 517T139 332Q139 277 140 245T145 188L513 540Z" />
<glyph unicode="&#xd9;" glyph-name="Ugrave" horiz-adv-x="694" d="M537 665H614V27Q478 -5 355 -5Q253 -5 192 17T103 87T75 217V665H152V225Q152 151 170 121T234 76T360 62Q452 62 537 77V665ZM220 789L247 844L395 768L373 726L220 789Z" />
<glyph unicode="&#xda;" glyph-name="Uacute" horiz-adv-x="694" d="M537 665H614V27Q478 -5 355 -5Q253 -5 192 17T103 87T75 217V665H152V225Q152 151 170 121T234 76T360 62Q452 62 537 77V665ZM323 726L301 768L449 844L476 789L323 726Z" />
<glyph unicode="&#xdb;" glyph-name="Ucircumflex" horiz-adv-x="694" d="M537 665H614V27Q478 -5 355 -5Q253 -5 192 17T103 87T75 217V665H152V225Q152 151 170 121T234 76T360 62Q452 62 537 77V665ZM351 784L253 716L224 753L351 853L478 753L449 716L351 784Z" />
<glyph unicode="&#xdc;" glyph-name="Udieresis" horiz-adv-x="694" d="M537 665H614V27Q478 -5 355 -5Q253 -5 192 17T103 87T75 217V665H152V225Q152 151 170 121T234 76T360 62Q452 62 537 77V665ZM401 738V824H473V738H401ZM224 738V824H296V738H224Z" />
<glyph unicode="&#xdd;" glyph-name="Yacute" horiz-adv-x="608" d="M153 0L291 241H238L11 665H99L293 296H323L529 665H608L233 0H153ZM294 726L272 768L420 844L447 789L294 726Z" />
<glyph unicode="&#xde;" glyph-name="Thorn" horiz-adv-x="639" d="M157 143V0H80V665H157V571H330Q442 571 492 550T567 482T591 358Q591 281 566 234T489 165T330 143H157ZM330 209Q413 209 447 222T496 267T512 357Q512 415 497 447T447 492T330 505H157V209H330Z" />
<glyph unicode="&#xdf;" glyph-name="germandbls" horiz-adv-x="542" d="M231 62Q277 56 308 56Q350 56 371 68T402 110T412 192Q412 260 401 289T362 330T271 342H231V400H258Q321 400 341 409T370 442T379 510Q379 554 369 572T333 600T265 609Q215 609 191
598T157 560T147 479V0H75V477Q75 552 93 593T151 652T267 671Q331 672 371 656T432 605T453 514Q453 477 446 449T424 403T386 376Q423 366 445 345T476 290T486 193Q486 120 468 77T412 14T308 -6Q280 -6 231 1V62Z" />
<glyph unicode="&#xe0;" glyph-name="agrave" horiz-adv-x="532" d="M398 0L390 45H384Q363 19 327 7T237 -6Q164 -6 124 8T65 52T47 135Q47 188 64 217T122 260T243 274H386V325Q386 366 376 381T340 404T260 411Q221 411 197 408T160 397T145 372L143 360H71Q67
403 85 426T146 460T262 471Q337 471 380 459T440 420T458 330V0H398ZM386 218H243Q186 218 164 211T131 187T121 138Q121 107 132 89T168 62T242 54Q304 54 333 63T374 95T386 163V218ZM285 526L173 629L218 671L320 557L285 526Z" />
<glyph unicode="&#xe1;" glyph-name="aacute" horiz-adv-x="532" d="M398 0L390 45H384Q363 19 327 7T237 -6Q164 -6 124 8T65 52T47 135Q47 188 64 217T122 260T243 274H386V325Q386 366 376 381T340 404T260 411Q221 411 197 408T160 397T145 372L143 360H71Q67
403 85 426T146 460T262 471Q337 471 380 459T440 420T458 330V0H398ZM386 218H243Q186 218 164 211T131 187T121 138Q121 107 132 89T168 62T242 54Q304 54 333 63T374 95T386 163V218ZM259 526L224 557L326 671L371 629L259 526Z" />
<glyph unicode="&#xe2;" glyph-name="acircumflex" horiz-adv-x="532" d="M398 0L390 45H384Q363 19 327 7T237 -6Q164 -6 124 8T65 52T47 135Q47 188 64 217T122 260T243 274H386V325Q386 366 376 381T340 404T260 411Q221 411 197 408T160 397T145 372L143 360H71Q67
403 85 426T146 460T262 471Q337 471 380 459T440 420T458 330V0H398ZM386 218H243Q186 218 164 211T131 187T121 138Q121 107 132 89T168 62T242 54Q304 54 333 63T374 95T386 163V218ZM345 526L266 595L187 526L154 559L266 671L378 559L345 526Z" />
<glyph unicode="&#xe3;" glyph-name="atilde" horiz-adv-x="532" d="M398 0L390 45H384Q363 19 327 7T237 -6Q164 -6 124 8T65 52T47 135Q47 188 64 217T122 260T243 274H386V325Q386 366 376 381T340 404T260 411Q221 411 197 408T160 397T145 372L143 360H71Q67
403 85 426T146 460T262 471Q337 471 380 459T440 420T458 330V0H398ZM386 218H243Q186 218 164 211T131 187T121 138Q121 107 132 89T168 62T242 54Q304 54 333 63T374 95T386 163V218ZM406 608Q382 565 365 550T324 534Q310 534 296 539T258 558Q231 573 223
576T207 580Q199 580 191 572T165 536L126 563Q150 606 167 621T208 637Q222 637 236 632T274 613Q301 598 309 595T325 591Q333 591 341 599T367 635L406 608Z" />
<glyph unicode="&#xe4;" glyph-name="adieresis" horiz-adv-x="532" d="M398 0L390 45H384Q363 19 327 7T237 -6Q164 -6 124 8T65 52T47 135Q47 188 64 217T122 260T243 274H386V325Q386 366 376 381T340 404T260 411Q221 411 197 408T160 397T145 372L143 360H71Q67
403 85 426T146 460T262 471Q337 471 380 459T440 420T458 330V0H398ZM386 218H243Q186 218 164 211T131 187T121 138Q121 107 132 89T168 62T242 54Q304 54 333 63T374 95T386 163V218ZM318 556V642H390V556H318ZM141 556V642H213V556H141Z" />
<glyph unicode="&#xe5;" glyph-name="aring" horiz-adv-x="532" d="M398 0L390 45H384Q363 19 327 7T237 -6Q164 -6 124 8T65 52T47 135Q47 188 64 217T122 260T243 274H386V325Q386 366 376 381T340 404T260 411Q221 411 197 408T160 397T145 372L143 360H71Q67
403 85 426T146 460T262 471Q337 471 380 459T440 420T458 330V0H398ZM386 218H243Q186 218 164 211T131 187T121 138Q121 107 132 89T168 62T242 54Q304 54 333 63T374 95T386 163V218ZM379 607Q379 566 370 547T337 520T266 512Q219 512 196 519T163 545T153
607Q153 648 162 667T195 694T266 702Q313 702 336 695T369 669T379 607ZM327 607Q327 634 322 643T305 655T266 659Q236 659 225 655T209 642T205 607Q205 580 210 571T227 559T266 555Q296 555 307 559T323 572T327 607Z" />
<glyph unicode="&#xe6;" glyph-name="ae" horiz-adv-x="843" d="M454 218Q454 140 465 110T505 67T595 54Q635 54 658 58T692 71T706 103L708 116H781Q786 73 767 46T705 7T595 -6Q542 -6 506 2T448 28T417 73Q400 32 357 13T237 -6Q164 -6 124 8T65 52T47 135Q47
190 65 219T125 261T243 274H382V323Q382 362 372 379T336 403T260 411Q221 411 197 408T160 397T145 372L143 360H71Q67 403 85 426T146 460T262 471Q314 471 346 465T398 445T428 406Q447 438 488 454T590 471Q663 471 706 452T769 391T788 259Q788 234 786 218H454ZM243
218Q186 218 164 211T131 187T121 138Q121 107 132 89T168 62T242 54Q303 54 331 63T370 95T382 163V218H243ZM715 274Q715 330 704 357T666 398T590 411Q539 411 511 400T471 364T454 274H715Z" />
<glyph unicode="&#xe7;" glyph-name="ccedilla" horiz-adv-x="508" d="M188 -196L210 -159Q216 -149 219 -141T222 -125Q222 -117 219 -111T203 -93L188 -79L230 -5Q158 -1 122 21T71 91T56 232Q56 332 73 380T134 450T266 471Q337 471 380 458T441 418T455 339H381L379
360Q377 382 365 391T329 405T263 409Q201 409 175 396T140 350T130 232Q130 148 139 115T175 69T265 56Q307 56 332 60T369 75T384 111L386 129H459Q463 82 447 54T391 11T287 -6L257 -59L271 -72Q283 -83 288 -93T294 -116Q294 -128 289 -141T270 -172L253 -196H188Z"
/>
<glyph unicode="&#xe8;" glyph-name="egrave" horiz-adv-x="526" d="M463 116Q468 74 450 48T389 8T273 -6Q181 -6 137 14T75 81T56 226Q56 326 75 377T140 449T269 471Q344 471 388 452T452 391T471 259Q471 241 469 218H130Q130 140 141 110T181 67T275 54Q317
54 340 58T375 71T389 103L391 116H463ZM398 274Q398 332 387 359T347 398T267 411Q216 411 188 400T147 364T130 274H398ZM286 526L174 629L219 671L321 557L286 526Z" />
<glyph unicode="&#xe9;" glyph-name="eacute" horiz-adv-x="526" d="M463 116Q468 74 450 48T389 8T273 -6Q181 -6 137 14T75 81T56 226Q56 326 75 377T140 449T269 471Q344 471 388 452T452 391T471 259Q471 241 469 218H130Q130 140 141 110T181 67T275 54Q317
54 340 58T375 71T389 103L391 116H463ZM398 274Q398 332 387 359T347 398T267 411Q216 411 188 400T147 364T130 274H398ZM257 526L222 557L324 671L369 629L257 526Z" />
<glyph unicode="&#xea;" glyph-name="ecircumflex" horiz-adv-x="526" d="M463 116Q468 74 450 48T389 8T273 -6Q181 -6 137 14T75 81T56 226Q56 326 75 377T140 449T269 471Q344 471 388 452T452 391T471 259Q471 241 469 218H130Q130 140 141 110T181 67T275
54Q317 54 340 58T375 71T389 103L391 116H463ZM398 274Q398 332 387 359T347 398T267 411Q216 411 188 400T147 364T130 274H398ZM347 526L268 595L189 526L156 559L268 671L380 559L347 526Z" />
<glyph unicode="&#xeb;" glyph-name="edieresis" horiz-adv-x="526" d="M463 116Q468 74 450 48T389 8T273 -6Q181 -6 137 14T75 81T56 226Q56 326 75 377T140 449T269 471Q344 471 388 452T452 391T471 259Q471 241 469 218H130Q130 140 141 110T181 67T275 54Q317
54 340 58T375 71T389 103L391 116H463ZM398 274Q398 332 387 359T347 398T267 411Q216 411 188 400T147 364T130 274H398ZM320 556V642H392V556H320ZM143 556V642H215V556H143Z" />
<glyph unicode="&#xec;" glyph-name="igrave" horiz-adv-x="222" d="M75 0V465H147V0H75ZM389 526L277 629L322 671L424 557L389 526Z" />
<glyph unicode="&#xed;" glyph-name="iacute" horiz-adv-x="222" d="M75 0V465H147V0H75ZM352 526L317 557L419 671L464 629L352 526Z" />
<glyph unicode="&#xee;" glyph-name="icircumflex" horiz-adv-x="222" d="M75 0V465H147V0H75ZM446 526L367 595L288 526L255 559L367 671L479 559L446 526Z" />
<glyph unicode="&#xef;" glyph-name="idieresis" horiz-adv-x="222" d="M75 0V465H147V0H75ZM403 556V642H475V556H403ZM259 556V642H331V556H259Z" />
<glyph unicode="&#xf0;" glyph-name="eth" horiz-adv-x="534" d="M260 550L166 516L145 562L227 591L169 665H250L290 614L379 646L400 600L323 573L425 443Q446 416 457 389T473 328T478 233Q478 132 460 84T398 15T267 -6Q178 -6 135 14T74 83T56 232Q56 333
74 381T136 450T267 471Q307 471 328 464L260 550ZM267 56Q331 56 357 69T394 114T404 232Q404 319 394 351T356 396T267 409Q203 409 177 396T140 351T130 233Q130 149 139 116T175 70T267 56Z" />
<glyph unicode="&#xf1;" glyph-name="ntilde" horiz-adv-x="549" d="M404 0V254Q404 303 402 326T396 361T383 382Q369 396 344 402T284 409Q249 409 213 403T147 386V0H75V465H138L143 431H150Q183 451 220 461T301 471Q349 471 383 460T439 428Q453 414 461
395T472 346T476 267V0H404ZM421 608Q397 565 380 550T339 534Q325 534 311 539T273 558Q246 573 238 576T222 580Q214 580 206 572T180 536L141 563Q165 606 182 621T223 637Q237 637 251 632T289 613Q316 598 324 595T340 591Q348 591 356 599T382 635L421 608Z"
/>
<glyph unicode="&#xf2;" glyph-name="ograve" horiz-adv-x="534" d="M267 -6Q178 -6 135 14T74 83T56 232Q56 335 74 383T137 451T267 471Q353 471 397 452T459 385T478 233Q478 132 460 84T398 15T267 -6ZM267 56Q331 56 357 69T394 114T404 232Q404 319 394
351T356 396T267 409Q205 409 178 397T141 353T130 233Q130 149 139 116T175 70T267 56ZM285 526L173 629L218 671L320 557L285 526Z" />
<glyph unicode="&#xf3;" glyph-name="oacute" horiz-adv-x="534" d="M267 -6Q178 -6 135 14T74 83T56 232Q56 335 74 383T137 451T267 471Q353 471 397 452T459 385T478 233Q478 132 460 84T398 15T267 -6ZM267 56Q331 56 357 69T394 114T404 232Q404 319 394
351T356 396T267 409Q205 409 178 397T141 353T130 233Q130 149 139 116T175 70T267 56ZM262 526L227 557L329 671L374 629L262 526Z" />
<glyph unicode="&#xf4;" glyph-name="ocircumflex" horiz-adv-x="534" d="M267 -6Q178 -6 135 14T74 83T56 232Q56 335 74 383T137 451T267 471Q353 471 397 452T459 385T478 233Q478 132 460 84T398 15T267 -6ZM267 56Q331 56 357 69T394 114T404 232Q404 319
394 351T356 396T267 409Q205 409 178 397T141 353T130 233Q130 149 139 116T175 70T267 56ZM346 526L267 595L188 526L155 559L267 671L379 559L346 526Z" />
<glyph unicode="&#xf5;" glyph-name="otilde" horiz-adv-x="534" d="M267 -6Q178 -6 135 14T74 83T56 232Q56 335 74 383T137 451T267 471Q353 471 397 452T459 385T478 233Q478 132 460 84T398 15T267 -6ZM267 56Q331 56 357 69T394 114T404 232Q404 319 394
351T356 396T267 409Q205 409 178 397T141 353T130 233Q130 149 139 116T175 70T267 56ZM407 608Q383 565 366 550T325 534Q311 534 297 539T259 558Q232 573 224 576T208 580Q200 580 192 572T166 536L127 563Q151 606 168 621T209 637Q223 637 237 632T275 613Q302
598 310 595T326 591Q334 591 342 599T368 635L407 608Z" />
<glyph unicode="&#xf6;" glyph-name="odieresis" horiz-adv-x="534" d="M267 -6Q178 -6 135 14T74 83T56 232Q56 335 74 383T137 451T267 471Q353 471 397 452T459 385T478 233Q478 132 460 84T398 15T267 -6ZM267 56Q331 56 357 69T394 114T404 232Q404 319 394
351T356 396T267 409Q205 409 178 397T141 353T130 233Q130 149 139 116T175 70T267 56ZM320 556V642H392V556H320ZM143 556V642H215V556H143Z" />
<glyph unicode="&#xf7;" glyph-name="divide" horiz-adv-x="651" d="M283 451V544H368V451H283ZM92 271V334H559V271H92ZM283 60V153H368V60H283Z" />
<glyph unicode="&#xf8;" glyph-name="oslash" horiz-adv-x="534" d="M267 -6Q178 -6 135 14T74 83T56 232Q56 333 74 381T136 450T267 471Q353 471 397 452T459 385T478 233Q478 132 460 84T398 15T267 -6ZM152 89Q165 71 191 64T267 56Q331 56 357 69T394 114T404
232Q404 299 401 323L152 89ZM382 376Q369 394 343 401T267 409Q203 409 177 396T140 351T130 233Q130 166 133 142L382 376Z" />
<glyph unicode="&#xf9;" glyph-name="ugrave" horiz-adv-x="550" d="M403 465H475V32Q350 -6 261 -6Q208 -6 171 4T111 37Q90 58 82 93T74 198V465H146V211Q146 145 150 121T167 83Q181 69 207 63T274 56Q334 56 403 75V465ZM280 526L168 629L213 671L315 557L280 526Z" />
<glyph unicode="&#xfa;" glyph-name="uacute" horiz-adv-x="550" d="M403 465H475V32Q350 -6 261 -6Q208 -6 171 4T111 37Q90 58 82 93T74 198V465H146V211Q146 145 150 121T167 83Q181 69 207 63T274 56Q334 56 403 75V465ZM268 526L233 557L335 671L380 629L268 526Z" />
<glyph unicode="&#xfb;" glyph-name="ucircumflex" horiz-adv-x="550" d="M403 465H475V32Q350 -6 261 -6Q208 -6 171 4T111 37Q90 58 82 93T74 198V465H146V211Q146 145 150 121T167 83Q181 69 207 63T274 56Q334 56 403 75V465ZM354 526L275 595L196 526L163
559L275 671L387 559L354 526Z" />
<glyph unicode="&#xfc;" glyph-name="udieresis" horiz-adv-x="550" d="M403 465H475V32Q350 -6 261 -6Q208 -6 171 4T111 37Q90 58 82 93T74 198V465H146V211Q146 145 150 121T167 83Q181 69 207 63T274 56Q334 56 403 75V465ZM328 556V642H400V556H328ZM151
556V642H223V556H151Z" />
<glyph unicode="&#xfd;" glyph-name="yacute" horiz-adv-x="474" d="M102 -137H133Q163 -137 177 -131T201 -109T225 -52L243 0H174L17 465H93L229 53H259L383 465H457L292 -52Q270 -115 252 -145T212 -187T149 -199Q127 -199 102 -196V-137ZM233 526L198 557L300
671L345 629L233 526Z" />
<glyph unicode="&#xfe;" glyph-name="thorn" horiz-adv-x="540" d="M75 -196V665H147V416Q167 444 201 457T288 471Q359 471 403 447T467 375T487 234Q487 136 466 89T397 19T276 -5Q240 -5 207 1T147 18V-196H75ZM147 68Q176 62 205 59T262 56Q320 56 353 71T399
120T413 232Q413 308 401 342T359 393T278 409Q229 409 200 400T159 371T147 304V68Z" />
<glyph unicode="&#xff;" glyph-name="ydieresis" horiz-adv-x="474" d="M102 -137H133Q163 -137 177 -131T201 -109T225 -52L243 0H174L17 465H93L229 53H259L383 465H457L292 -52Q270 -115 252 -145T212 -187T149 -199Q127 -199 102 -196V-137ZM294 556V642H366V556H294ZM117
556V642H189V556H117Z" />
<glyph unicode="&#x100;" glyph-name="Amacron" horiz-adv-x="700" d="M595 0L536 164H159L99 0H18L272 665H434L682 0H595ZM376 603H323L182 228H512L376 603ZM229 740V795H473V740H229Z" />
<glyph unicode="&#x101;" glyph-name="amacron" horiz-adv-x="532" d="M398 0L390 45H384Q363 19 327 7T237 -6Q164 -6 124 8T65 52T47 135Q47 188 64 217T122 260T243 274H386V325Q386 366 376 381T340 404T260 411Q221 411 197 408T160 397T145 372L143 360H71Q67
403 85 426T146 460T262 471Q337 471 380 459T440 420T458 330V0H398ZM386 218H243Q186 218 164 211T131 187T121 138Q121 107 132 89T168 62T242 54Q304 54 333 63T374 95T386 163V218ZM143 560V615H387V560H143Z" />
<glyph unicode="&#x102;" glyph-name="Abreve" horiz-adv-x="700" d="M595 0L536 164H159L99 0H18L272 665H434L682 0H595ZM376 603H323L182 228H512L376 603ZM470 839Q470 799 458 773T419 732T351 718Q309 718 283 731T243 771T230 839H278Q278 801 294 787T351
772Q390 772 406 787T422 839H470Z" />
<glyph unicode="&#x103;" glyph-name="abreve" horiz-adv-x="532" d="M398 0L390 45H384Q363 19 327 7T237 -6Q164 -6 124 8T65 52T47 135Q47 188 64 217T122 260T243 274H386V325Q386 366 376 381T340 404T260 411Q221 411 197 408T160 397T145 372L143 360H71Q67
403 85 426T146 460T262 471Q337 471 380 459T440 420T458 330V0H398ZM386 218H243Q186 218 164 211T131 187T121 138Q121 107 132 89T168 62T242 54Q304 54 333 63T374 95T386 163V218ZM384 665Q384 619 372 591T334 548T267 534Q224 534 198 548T160 590T148
665H196Q196 620 211 604T267 588Q307 588 321 604T336 665H384Z" />
<glyph unicode="&#x104;" glyph-name="Aogonek" horiz-adv-x="700" d="M682 -195Q657 -200 634 -200Q572 -200 549 -181T526 -123Q526 -98 540 -69T595 0L536 164H159L99 0H18L272 665H434L682 0Q634 -30 615 -59T596 -112Q596 -130 605 -137T636 -145Q662 -145
682 -141V-195ZM376 603H323L182 228H512L376 603Z" />
<glyph unicode="&#x105;" glyph-name="aogonek" horiz-adv-x="532" d="M476 -195Q451 -200 428 -200Q366 -200 343 -181T320 -123Q320 -97 335 -68T396 6L390 45H384Q364 20 329 7T237 -6Q164 -6 124 8T65 52T47 135Q47 188 64 217T122 260T243 274H386V325Q386
366 376 381T340 404T260 411Q221 411 197 408T160 397T145 372L143 360H71Q67 403 85 426T146 460T262 471Q337 471 380 459T440 420T458 330V0Q420 -42 405 -65T390 -112Q390 -130 399 -137T430 -145Q456 -145 476 -141V-195ZM386 218H243Q186 218 164 211T131
187T121 138Q121 107 132 89T168 62T242 54Q304 54 333 63T374 95T386 163V218Z" />
<glyph unicode="&#x106;" glyph-name="Cacute" horiz-adv-x="643" d="M503 169H580Q583 141 583 104Q583 65 558 41T478 5T337 -7Q216 -7 161 20T83 114T60 332Q60 478 82 546T161 643T337 672Q466 672 523 647T580 563Q580 542 576 510H502L499 542Q496 573 481
584T431 600T335 605Q244 605 206 585T154 514T139 335Q139 199 154 149T208 80T339 61Q391 61 421 64T468 74T492 92T500 122L503 169ZM304 726L282 768L430 844L457 789L304 726Z" />
<glyph unicode="&#x107;" glyph-name="cacute" horiz-adv-x="508" d="M386 129H459Q464 79 445 50T382 8T264 -6Q178 -6 135 14T74 81T56 232Q56 332 73 380T134 450T266 471Q337 471 380 458T441 418T455 339H381L379 360Q377 382 365 391T329 405T263 409Q201
409 175 396T140 350T130 232Q130 145 140 113T177 68T265 56Q307 56 332 60T369 75T384 111L386 129ZM255 526L220 557L322 671L367 629L255 526Z" />
<glyph unicode="&#x108;" glyph-name="Ccircumflex" horiz-adv-x="643" d="M503 169H580Q583 141 583 104Q583 65 558 41T478 5T337 -7Q216 -7 161 20T83 114T60 332Q60 478 82 546T161 643T337 672Q466 672 523 647T580 563Q580 542 576 510H502L499 542Q496
573 481 584T431 600T335 605Q244 605 206 585T154 514T139 335Q139 199 154 149T208 80T339 61Q391 61 421 64T468 74T492 92T500 122L503 169ZM344 784L246 716L217 753L344 853L471 753L442 716L344 784Z" />
<glyph unicode="&#x109;" glyph-name="ccircumflex" horiz-adv-x="508" d="M386 129H459Q464 79 445 50T382 8T264 -6Q178 -6 135 14T74 81T56 232Q56 332 73 380T134 450T266 471Q337 471 380 458T441 418T455 339H381L379 360Q377 382 365 391T329 405T263 409Q201
409 175 396T140 350T130 232Q130 145 140 113T177 68T265 56Q307 56 332 60T369 75T384 111L386 129ZM346 526L267 595L188 526L155 559L267 671L379 559L346 526Z" />
<glyph unicode="&#x10a;" glyph-name="Cdotaccent" horiz-adv-x="643" d="M503 169H580Q583 141 583 104Q583 65 558 41T478 5T337 -7Q216 -7 161 20T83 114T60 332Q60 478 82 546T161 643T337 672Q466 672 523 647T580 563Q580 542 576 510H502L499 542Q496 573
481 584T431 600T335 605Q244 605 206 585T154 514T139 335Q139 199 154 149T208 80T339 61Q391 61 421 64T468 74T492 92T500 122L503 169ZM303 738V824H380V738H303Z" />
<glyph unicode="&#x10b;" glyph-name="cdotaccent" horiz-adv-x="508" d="M386 129H459Q464 79 445 50T382 8T264 -6Q178 -6 135 14T74 81T56 232Q56 332 73 380T134 450T266 471Q337 471 380 458T441 418T455 339H381L379 360Q377 382 365 391T329 405T263 409Q201
409 175 396T140 350T130 232Q130 145 140 113T177 68T265 56Q307 56 332 60T369 75T384 111L386 129ZM229 556V642H301V556H229Z" />
<glyph unicode="&#x10c;" glyph-name="Ccaron" horiz-adv-x="643" d="M503 169H580Q583 141 583 104Q583 65 558 41T478 5T337 -7Q216 -7 161 20T83 114T60 332Q60 478 82 546T161 643T337 672Q466 672 523 647T580 563Q580 542 576 510H502L499 542Q496 573 481
584T431 600T335 605Q244 605 206 585T154 514T139 335Q139 199 154 149T208 80T339 61Q391 61 421 64T468 74T492 92T500 122L503 169ZM345 716L218 816L247 853L345 785L443 853L472 816L345 716Z" />
<glyph unicode="&#x10d;" glyph-name="ccaron" horiz-adv-x="508" d="M386 129H459Q464 79 445 50T382 8T264 -6Q178 -6 135 14T74 81T56 232Q56 332 73 380T134 450T266 471Q337 471 380 458T441 418T455 339H381L379 360Q377 382 365 391T329 405T263 409Q201
409 175 396T140 350T130 232Q130 145 140 113T177 68T265 56Q307 56 332 60T369 75T384 111L386 129ZM156 638L189 671L268 602L347 671L380 638L268 526L156 638Z" />
<glyph unicode="&#x10e;" glyph-name="Dcaron" horiz-adv-x="705" d="M80 0V665H372Q469 665 530 632T619 531T648 333Q648 200 619 133T529 33T375 0H80ZM372 67Q443 67 486 92T549 170T569 331Q569 443 550 495T486 573T367 599H157V67H372ZM332 716L205 816L234
853L332 785L430 853L459 816L332 716Z" />
<glyph unicode="&#x10f;" glyph-name="dcaron" horiz-adv-x="560" d="M404 0L395 50Q375 22 340 8T252 -6Q181 -6 137 18T73 90T53 231Q53 329 74 376T143 446T264 470Q300 470 333 464T393 447V665H465V0H404ZM393 397Q364 403 335 406T278 409Q220 409 187 394T141
345T127 233Q127 157 139 123T181 72T262 56Q311 56 340 65T381 94T393 161V397ZM510 516L531 665H595L558 516H510Z" />
<glyph unicode="&#x110;" glyph-name="Dcroat" horiz-adv-x="715" d="M90 0V311H32V368H90V665H382Q479 665 540 632T629 531T658 333Q658 200 629 133T539 33T385 0H90ZM382 67Q453 67 496 92T559 170T579 331Q579 443 560 495T496 573T377 599H167V368H404V311H167V67H382Z"
/>
<glyph unicode="&#x111;" glyph-name="dcroat" horiz-adv-x="540" d="M404 0L395 50Q375 22 340 8T252 -6Q181 -6 137 18T73 90T53 231Q53 329 74 376T143 446T264 470Q300 470 333 464T393 447V538H260V598H393V665H465V598H539L523 538H465V0H404ZM393 397Q364
403 335 406T278 409Q220 409 187 394T141 345T127 233Q127 157 139 123T181 72T262 56Q311 56 340 65T381 94T393 161V397Z" />
<glyph unicode="&#x112;" glyph-name="Emacron" horiz-adv-x="567" d="M80 0V665H512V599H157V373H483L457 308H157V67H518V0H80ZM178 740V795H422V740H178Z" />
<glyph unicode="&#x113;" glyph-name="emacron" horiz-adv-x="526" d="M463 116Q468 74 450 48T389 8T273 -6Q181 -6 137 14T75 81T56 226Q56 326 75 377T140 449T269 471Q344 471 388 452T452 391T471 259Q471 241 469 218H130Q130 140 141 110T181 67T275 54Q317
54 340 58T375 71T389 103L391 116H463ZM398 274Q398 332 387 359T347 398T267 411Q216 411 188 400T147 364T130 274H398ZM145 560V615H389V560H145Z" />
<glyph unicode="&#x114;" glyph-name="Ebreve" horiz-adv-x="567" d="M80 0V665H512V599H157V373H483L457 308H157V67H518V0H80ZM424 839Q424 799 412 773T373 732T305 718Q263 718 237 731T197 771T184 839H232Q232 801 248 787T305 772Q344 772 360 787T376 839H424Z" />
<glyph unicode="&#x115;" glyph-name="ebreve" horiz-adv-x="526" d="M463 116Q468 74 450 48T389 8T273 -6Q181 -6 137 14T75 81T56 226Q56 326 75 377T140 449T269 471Q344 471 388 452T452 391T471 259Q471 241 469 218H130Q130 140 141 110T181 67T275 54Q317
54 340 58T375 71T389 103L391 116H463ZM398 274Q398 332 387 359T347 398T267 411Q216 411 188 400T147 364T130 274H398ZM385 665Q385 619 373 591T335 548T268 534Q225 534 199 548T161 590T149 665H197Q197 620 212 604T268 588Q308 588 322 604T337 665H385Z"
/>
<glyph unicode="&#x116;" glyph-name="Edotaccent" horiz-adv-x="567" d="M80 0V665H512V599H157V373H483L457 308H157V67H518V0H80ZM263 738V824H340V738H263Z" />
<glyph unicode="&#x117;" glyph-name="edotaccent" horiz-adv-x="526" d="M463 116Q468 74 450 48T389 8T273 -6Q181 -6 137 14T75 81T56 226Q56 326 75 377T140 449T269 471Q344 471 388 452T452 391T471 259Q471 241 469 218H130Q130 140 141 110T181 67T275
54Q317 54 340 58T375 71T389 103L391 116H463ZM398 274Q398 332 387 359T347 398T267 411Q216 411 188 400T147 364T130 274H398ZM227 556V642H299V556H227Z" />
<glyph unicode="&#x118;" glyph-name="Eogonek" horiz-adv-x="567" d="M518 -195Q493 -200 470 -200Q408 -200 385 -181T362 -123Q362 -96 379 -62T441 0H80V665H512V599H157V373H483L457 308H157V67H518V0Q471 -30 452 -59T432 -112Q432 -130 441 -137T472 -145Q498
-145 518 -141V-195Z" />
<glyph unicode="&#x119;" glyph-name="eogonek" horiz-adv-x="526" d="M457 -195Q432 -200 409 -200Q347 -200 324 -181T301 -123Q301 -97 315 -62T365 9Q344 1 320 -2T273 -6Q181 -6 137 14T75 81T56 226Q56 326 75 377T140 449T269 471Q344 471 388 452T452
391T471 259Q471 241 469 218H130Q130 140 141 110T181 67T275 54Q317 54 340 58T375 71T389 103L391 116H463Q466 88 460 67T433 16L414 -12Q391 -46 381 -69T371 -112Q371 -130 380 -137T411 -145Q437 -145 457 -141V-195ZM398 274Q398 332 387 359T347 398T267
411Q216 411 188 400T147 364T130 274H398Z" />
<glyph unicode="&#x11a;" glyph-name="Ecaron" horiz-adv-x="567" d="M80 0V665H512V599H157V373H483L457 308H157V67H518V0H80ZM304 716L177 816L206 853L304 785L402 853L431 816L304 716Z" />
<glyph unicode="&#x11b;" glyph-name="ecaron" horiz-adv-x="526" d="M463 116Q468 74 450 48T389 8T273 -6Q181 -6 137 14T75 81T56 226Q56 326 75 377T140 449T269 471Q344 471 388 452T452 391T471 259Q471 241 469 218H130Q130 140 141 110T181 67T275 54Q317
54 340 58T375 71T389 103L391 116H463ZM398 274Q398 332 387 359T347 398T267 411Q216 411 188 400T147 364T130 274H398ZM156 638L189 671L268 602L347 671L380 638L268 526L156 638Z" />
<glyph unicode="&#x11c;" glyph-name="Gcircumflex" horiz-adv-x="680" d="M535 0L529 33H520Q487 13 441 3T337 -7Q216 -7 161 20T83 114T60 332Q60 478 82 546T161 643T338 672Q429 672 484 661T566 626T593 561Q593 540 591 520H514L512 545Q509 575 493 586T441
601T337 606Q245 606 207 586T154 515T139 335Q139 199 154 149T208 80T338 61Q398 61 441 67T525 89V240H371V305H602V0H535ZM350 784L252 716L223 753L350 853L477 753L448 716L350 784Z" />
<glyph unicode="&#x11d;" glyph-name="gcircumflex" horiz-adv-x="522" d="M128 -76L130 -101Q131 -117 143 -126T182 -139T258 -143Q328 -143 358 -137T401 -115T414 -68Q414 -41 406 -27T381 -6T320 0H197Q140 0 114 8T76 35T63 87Q63 123 77 145T119 176Q90
192 77 224T63 310Q63 372 81 406T141 455T257 471Q279 471 300 470T339 465H503V405H425V399Q439 387 445 365T452 311Q452 250 434 216T374 166T257 150Q237 150 209 150T176 151Q147 151 136 142T124 109Q124 88 129 79T150 67T202 64H325Q389 64 421 51T469
10T485 -65Q485 -114 462 -144T392 -187T254 -200Q178 -200 134 -192T72 -166T53 -111Q53 -97 56 -76H128ZM381 310Q381 353 371 374T335 404T257 414Q206 414 181 405T145 375T134 311Q134 268 144 247T180 216T257 207Q309 207 334 216T370 247T381 310ZM332
526L253 595L174 526L141 559L253 671L365 559L332 526Z" />
<glyph unicode="&#x11e;" glyph-name="Gbreve" horiz-adv-x="680" d="M535 0L529 33H520Q487 13 441 3T337 -7Q216 -7 161 20T83 114T60 332Q60 478 82 546T161 643T338 672Q429 672 484 661T566 626T593 561Q593 540 591 520H514L512 545Q509 575 493 586T441
601T337 606Q245 606 207 586T154 515T139 335Q139 199 154 149T208 80T338 61Q398 61 441 67T525 89V240H371V305H602V0H535ZM471 839Q471 799 459 773T420 732T352 718Q310 718 284 731T244 771T231 839H279Q279 801 295 787T352 772Q391 772 407 787T423 839H471Z"
/>
<glyph unicode="&#x11f;" glyph-name="gbreve" horiz-adv-x="522" d="M128 -76L130 -101Q131 -117 143 -126T182 -139T258 -143Q328 -143 358 -137T401 -115T414 -68Q414 -41 406 -27T381 -6T320 0H197Q140 0 114 8T76 35T63 87Q63 123 77 145T119 176Q90 192
77 224T63 310Q63 372 81 406T141 455T257 471Q279 471 300 470T339 465H503V405H425V399Q439 387 445 365T452 311Q452 250 434 216T374 166T257 150Q237 150 209 150T176 151Q147 151 136 142T124 109Q124 88 129 79T150 67T202 64H325Q389 64 421 51T469 10T485
-65Q485 -114 462 -144T392 -187T254 -200Q178 -200 134 -192T72 -166T53 -111Q53 -97 56 -76H128ZM381 310Q381 353 371 374T335 404T257 414Q206 414 181 405T145 375T134 311Q134 268 144 247T180 216T257 207Q309 207 334 216T370 247T381 310ZM371 665Q371
619 359 591T321 548T254 534Q211 534 185 548T147 590T135 665H183Q183 620 198 604T254 588Q294 588 308 604T323 665H371Z" />
<glyph unicode="&#x120;" glyph-name="Gdotaccent" horiz-adv-x="680" d="M535 0L529 33H520Q487 13 441 3T337 -7Q216 -7 161 20T83 114T60 332Q60 478 82 546T161 643T338 672Q429 672 484 661T566 626T593 561Q593 540 591 520H514L512 545Q509 575 493 586T441
601T337 606Q245 606 207 586T154 515T139 335Q139 199 154 149T208 80T338 61Q398 61 441 67T525 89V240H371V305H602V0H535ZM306 738V824H383V738H306Z" />
<glyph unicode="&#x121;" glyph-name="gdotaccent" horiz-adv-x="522" d="M128 -76L130 -101Q131 -117 143 -126T182 -139T258 -143Q328 -143 358 -137T401 -115T414 -68Q414 -41 406 -27T381 -6T320 0H197Q140 0 114 8T76 35T63 87Q63 123 77 145T119 176Q90
192 77 224T63 310Q63 372 81 406T141 455T257 471Q279 471 300 470T339 465H503V405H425V399Q439 387 445 365T452 311Q452 250 434 216T374 166T257 150Q237 150 209 150T176 151Q147 151 136 142T124 109Q124 88 129 79T150 67T202 64H325Q389 64 421 51T469
10T485 -65Q485 -114 462 -144T392 -187T254 -200Q178 -200 134 -192T72 -166T53 -111Q53 -97 56 -76H128ZM381 310Q381 353 371 374T335 404T257 414Q206 414 181 405T145 375T134 311Q134 268 144 247T180 216T257 207Q309 207 334 216T370 247T381 310ZM219
556V642H291V556H219Z" />
<glyph unicode="&#x122;" glyph-name="Gcommaaccent" horiz-adv-x="680" d="M535 0L529 33H520Q487 13 441 3T337 -7Q216 -7 161 20T83 114T60 332Q60 478 82 546T161 643T338 672Q429 672 484 661T566 626T593 561Q593 540 591 520H514L512 545Q509 575 493 586T441
601T337 606Q245 606 207 586T154 515T139 335Q139 199 154 149T208 80T338 61Q398 61 441 67T525 89V240H371V305H602V0H535ZM279 -196L300 -67H368L331 -196H279Z" />
<glyph unicode="&#x123;" glyph-name="gcommaaccent" horiz-adv-x="522" d="M128 -76L130 -101Q131 -117 143 -126T182 -139T258 -143Q328 -143 358 -137T401 -115T414 -68Q414 -41 406 -27T381 -6T320 0H197Q140 0 114 8T76 35T63 87Q63 123 77 145T119 176Q90
192 77 224T63 310Q63 372 81 406T141 455T257 471Q279 471 300 470T339 465H503V405H425V399Q439 387 445 365T452 311Q452 250 434 216T374 166T257 150Q237 150 209 150T176 151Q147 151 136 142T124 109Q124 88 129 79T150 67T202 64H325Q389 64 421 51T469
10T485 -65Q485 -114 462 -144T392 -187T254 -200Q178 -200 134 -192T72 -166T53 -111Q53 -97 56 -76H128ZM381 310Q381 353 371 374T335 404T257 414Q206 414 181 405T145 375T134 311Q134 268 144 247T180 216T257 207Q309 207 334 216T370 247T381 310ZM222
536L259 665H311L290 536H222Z" />
<glyph unicode="&#x124;" glyph-name="Hcircumflex" horiz-adv-x="713" d="M556 0V307H157V0H80V665H157V374H556V665H633V0H556ZM356 784L258 716L229 753L356 853L483 753L454 716L356 784Z" />
<glyph unicode="&#x125;" glyph-name="hcircumflex" horiz-adv-x="550" d="M404 0V254Q404 301 403 323T397 359T383 382Q369 396 344 402T284 409Q249 409 213 403T147 386V0H75V665H147V429Q182 451 219 461T301 471Q349 471 383 460T439 428Q453 414 461 394T472
345T476 267V0H404ZM367 784L269 716L240 753L367 853L494 753L465 716L367 784Z" />
<glyph unicode="&#x126;" glyph-name="Hbar" horiz-adv-x="733" d="M566 0V307H167V0H90V504H20V564H90V665H167V564H566V665H643V564H713V504H643V0H566ZM566 504H167V373H566V504Z" />
<glyph unicode="&#x127;" glyph-name="hbar" horiz-adv-x="550" d="M404 0V254Q404 303 402 326T396 361T383 382Q369 396 344 402T284 409Q211 409 147 386V0H75V538H9V598H75V665H147V598H288L272 538H147V429Q182 451 219 461T301 471Q349 471 383 460T439
428Q453 414 461 395T472 346T476 267V0H404Z" />
<glyph unicode="&#x128;" glyph-name="Itilde" horiz-adv-x="237" d="M80 0V665H157V0H80ZM514 792Q490 749 473 734T432 718Q418 718 404 723T366 742Q339 757 331 760T315 764Q307 764 299 756T273 720L234 747Q258 790 275 805T316 821Q330 821 344 816T382
797Q409 782 417 779T433 775Q441 775 449 783T475 819L514 792Z" />
<glyph unicode="&#x129;" glyph-name="itilde" horiz-adv-x="222" d="M75 0V465H147V0H75ZM507 608Q483 565 466 550T425 534Q411 534 397 539T359 558Q332 573 324 576T308 580Q300 580 292 572T266 536L227 563Q251 606 268 621T309 637Q323 637 337 632T375
613Q402 598 410 595T426 591Q434 591 442 599T468 635L507 608Z" />
<glyph unicode="&#x12a;" glyph-name="Imacron" horiz-adv-x="237" d="M80 0V665H157V0H80ZM252 740V795H496V740H252Z" />
<glyph unicode="&#x12b;" glyph-name="imacron" horiz-adv-x="222" d="M75 0V465H147V0H75ZM245 560V615H489V560H245Z" />
<glyph unicode="&#x12c;" glyph-name="Ibreve" horiz-adv-x="237" d="M80 0V665H157V0H80ZM494 839Q494 799 482 773T443 732T375 718Q333 718 307 731T267 771T254 839H302Q302 801 318 787T375 772Q414 772 430 787T446 839H494Z" />
<glyph unicode="&#x12d;" glyph-name="ibreve" horiz-adv-x="222" d="M75 0V465H147V0H75ZM485 665Q485 619 473 591T435 548T368 534Q325 534 299 548T261 590T249 665H297Q297 620 312 604T368 588Q408 588 422 604T437 665H485Z" />
<glyph unicode="&#x12e;" glyph-name="Iogonek" horiz-adv-x="237" d="M171 -195Q146 -200 123 -200Q61 -200 38 -181T15 -123Q15 -97 28 -69T80 0V665H157V0Q116 -42 101 -65T85 -112Q85 -130 94 -137T125 -145Q151 -145 171 -141V-195Z" />
<glyph unicode="&#x12f;" glyph-name="iogonek" horiz-adv-x="222" d="M75 556V642H147V556H75ZM163 -195Q138 -200 115 -200Q53 -200 30 -181T7 -123Q7 -97 21 -69T75 0V465H147V0Q111 -36 94 -62T77 -112Q77 -130 86 -137T117 -145Q143 -145 163 -141V-195Z" />
<glyph unicode="&#x130;" glyph-name="Idotaccent" horiz-adv-x="237" d="M80 0V665H157V0H80ZM80 738V824H157V738H80Z" />
<glyph unicode="&#x131;" glyph-name="dotlessi" horiz-adv-x="222" d="M75 0V465H147V0H75Z" />
<glyph unicode="&#x132;" glyph-name="IJ" horiz-adv-x="729" d="M80 0V665H157V0H80ZM572 665H650V192Q650 118 629 75T564 13T438 -7Q368 -7 327 5T268 42T249 110Q249 137 251 169H328L330 126Q331 95 340 83T373 66T439 60Q492 60 520 72T560 112T572 200V665Z" />
<glyph unicode="&#x133;" glyph-name="ij" horiz-adv-x="444" d="M75 556V642H147V556H75ZM75 0V465H147V0H75ZM297 556V642H369V556H297ZM202 -136H232Q265 -136 276 -133T292 -119T297 -74V465H369V-77Q369 -129 358 -153T323 -188T257 -198Q233 -198 202 -195V-136Z" />
<glyph unicode="&#x134;" glyph-name="Jcircumflex" horiz-adv-x="492" d="M335 665H413V192Q413 118 392 75T327 13T201 -7Q131 -7 90 5T31 42T12 110Q12 137 14 169H91L93 126Q94 95 103 83T136 66T202 60Q255 60 283 72T323 112T335 200V665ZM373 784L275 716L246
753L373 853L500 753L471 716L373 784Z" />
<glyph unicode="&#x135;" glyph-name="jcircumflex" horiz-adv-x="222" d="M-20 -136H10Q43 -136 54 -133T70 -119T75 -74V465H147V-77Q147 -129 136 -153T101 -188T35 -198Q11 -198 -20 -195V-136ZM446 526L367 595L288 526L255 559L367 671L479 559L446 526Z" />
<glyph unicode="&#x136;" glyph-name="Kcommaaccent" horiz-adv-x="661" d="M544 0L245 308H157V0H80V665H157V373H245L517 665H618L314 347L654 0H544ZM262 -196L283 -67H351L314 -196H262Z" />
<glyph unicode="&#x137;" glyph-name="kcommaaccent" horiz-adv-x="486" d="M396 0L203 223H147V0H75V665H147V280H203L366 465H451L263 259L492 0H396ZM198 -196L219 -67H287L250 -196H198Z" />
<glyph unicode="&#x138;" glyph-name="kgreenlandic" horiz-adv-x="486" d="M387 0L203 213H147V0H75V465H147V270H203L375 465H461L263 249L483 0H387Z" />
<glyph unicode="&#x139;" glyph-name="Lacute" horiz-adv-x="522" d="M80 0V665H157V67H504V0H80ZM166 726L144 768L292 844L319 789L166 726Z" />
<glyph unicode="&#x13a;" glyph-name="lacute" horiz-adv-x="222" d="M75 0V665H147V0H75ZM321 726L299 768L447 844L474 789L321 726Z" />
<glyph unicode="&#x13b;" glyph-name="Lcommaaccent" horiz-adv-x="522" d="M80 0V665H157V67H504V0H80ZM236 -196L257 -67H325L288 -196H236Z" />
<glyph unicode="&#x13c;" glyph-name="lcommaaccent" horiz-adv-x="222" d="M75 0V665H147V0H75ZM311 -196L332 -67H400L363 -196H311Z" />
<glyph unicode="&#x13d;" glyph-name="Lcaron" horiz-adv-x="522" d="M80 0V665H157V67H504V0H80ZM232 516L253 665H317L280 516H232Z" />
<glyph unicode="&#x13e;" glyph-name="lcaron" horiz-adv-x="242" d="M75 0V665H147V0H75ZM192 516L213 665H277L240 516H192Z" />
<glyph unicode="&#x141;" glyph-name="Lslash" horiz-adv-x="533" d="M91 0V253L27 215V288L91 326V665H168V372L335 472V399L168 299V67H515V0H91Z" />
<glyph unicode="&#x142;" glyph-name="lslash" horiz-adv-x="248" d="M88 0V287L24 234V301L88 353V665H160V412L224 465V398L160 346V0H88Z" />
<glyph unicode="&#x143;" glyph-name="Nacute" horiz-adv-x="754" d="M538 0L174 605H157V0H80V665H222L586 60H597V665H674V0H538ZM384 726L362 768L510 844L537 789L384 726Z" />
<glyph unicode="&#x144;" glyph-name="nacute" horiz-adv-x="549" d="M404 0V254Q404 303 402 326T396 361T383 382Q369 396 344 402T284 409Q249 409 213 403T147 386V0H75V465H138L143 431H150Q183 451 220 461T301 471Q349 471 383 460T439 428Q453 414 461
395T472 346T476 267V0H404ZM278 526L243 557L345 671L390 629L278 526Z" />
<glyph unicode="&#x145;" glyph-name="Ncommaaccent" horiz-adv-x="754" d="M538 0L174 605H157V0H80V665H222L586 60H597V665H674V0H538ZM303 -196L324 -67H392L355 -196H303Z" />
<glyph unicode="&#x146;" glyph-name="ncommaaccent" horiz-adv-x="549" d="M404 0V254Q404 303 402 326T396 361T383 382Q369 396 344 402T284 409Q249 409 213 403T147 386V0H75V465H138L143 431H150Q183 451 220 461T301 471Q349 471 383 460T439 428Q453 414
461 395T472 346T476 267V0H404ZM221 -196L242 -67H310L273 -196H221Z" />
<glyph unicode="&#x147;" glyph-name="Ncaron" horiz-adv-x="754" d="M538 0L174 605H157V0H80V665H222L586 60H597V665H674V0H538ZM384 716L257 816L286 853L384 785L482 853L511 816L384 716Z" />
<glyph unicode="&#x148;" glyph-name="ncaron" horiz-adv-x="549" d="M404 0V254Q404 303 402 326T396 361T383 382Q369 396 344 402T284 409Q249 409 213 403T147 386V0H75V465H138L143 431H150Q183 451 220 461T301 471Q349 471 383 460T439 428Q453 414 461
395T472 346T476 267V0H404ZM171 638L204 671L283 602L362 671L395 638L283 526L171 638Z" />
<glyph unicode="&#x14a;" glyph-name="Eng" horiz-adv-x="754" d="M502 -136H532Q565 -136 576 -133T592 -119T597 -74V0H538L174 605H157V0H80V665H222L586 60H597V665H674V-77Q674 -126 663 -151T626 -187T557 -198Q534 -198 502 -195V-136Z" />
<glyph unicode="&#x14b;" glyph-name="eng" horiz-adv-x="549" d="M309 -136H339Q372 -136 383 -133T399 -119T404 -74V254Q404 303 402 326T396 361T383 382Q369 396 344 402T284 409Q249 409 213 403T147 386V0H75V465H138L143 431H150Q183 451 220 461T301
471Q349 471 383 460T439 428Q453 414 461 395T472 346T476 267V-77Q476 -129 465 -153T430 -188T364 -198Q341 -198 309 -195V-136Z" />
<glyph unicode="&#x14c;" glyph-name="Omacron" horiz-adv-x="675" d="M337 -7Q218 -7 161 20T82 113T60 332Q60 481 82 548T161 644T338 672Q454 672 511 646T592 555T615 333Q615 182 592 115T512 20T337 -7ZM338 61Q426 61 466 79T521 146T536 333Q536 472
521 520T465 586T337 605Q247 605 208 586T154 517T139 332Q139 196 153 148T207 80T338 61ZM215 740V795H459V740H215Z" />
<glyph unicode="&#x14d;" glyph-name="omacron" horiz-adv-x="534" d="M267 -6Q178 -6 135 14T74 83T56 232Q56 335 74 383T137 451T267 471Q353 471 397 452T459 385T478 233Q478 132 460 84T398 15T267 -6ZM267 56Q331 56 357 69T394 114T404 232Q404 319 394
351T356 396T267 409Q205 409 178 397T141 353T130 233Q130 149 139 116T175 70T267 56ZM145 560V615H389V560H145Z" />
<glyph unicode="&#x14e;" glyph-name="Obreve" horiz-adv-x="675" d="M337 -7Q218 -7 161 20T82 113T60 332Q60 481 82 548T161 644T338 672Q454 672 511 646T592 555T615 333Q615 182 592 115T512 20T337 -7ZM338 61Q426 61 466 79T521 146T536 333Q536 472 521
520T465 586T337 605Q247 605 208 586T154 517T139 332Q139 196 153 148T207 80T338 61ZM457 839Q457 799 445 773T406 732T338 718Q296 718 270 731T230 771T217 839H265Q265 801 281 787T338 772Q377 772 393 787T409 839H457Z" />
<glyph unicode="&#x14f;" glyph-name="obreve" horiz-adv-x="534" d="M267 -6Q178 -6 135 14T74 83T56 232Q56 335 74 383T137 451T267 471Q353 471 397 452T459 385T478 233Q478 132 460 84T398 15T267 -6ZM267 56Q331 56 357 69T394 114T404 232Q404 319 394
351T356 396T267 409Q205 409 178 397T141 353T130 233Q130 149 139 116T175 70T267 56ZM385 665Q385 619 373 591T335 548T268 534Q225 534 199 548T161 590T149 665H197Q197 620 212 604T268 588Q308 588 322 604T337 665H385Z" />
<glyph unicode="&#x150;" glyph-name="Ohungarumlaut" horiz-adv-x="675" d="M337 -7Q218 -7 161 20T82 113T60 332Q60 481 82 548T161 644T338 672Q454 672 511 646T592 555T615 333Q615 182 592 115T512 20T337 -7ZM338 61Q426 61 466 79T521 146T536 333Q536
472 521 520T465 586T337 605Q247 605 208 586T154 517T139 332Q139 196 153 148T207 80T338 61ZM393 721L369 758L510 849L541 799L393 721ZM225 721L198 756L324 853L360 807L225 721Z" />
<glyph unicode="&#x151;" glyph-name="ohungarumlaut" horiz-adv-x="534" d="M267 -6Q178 -6 135 14T74 83T56 232Q56 335 74 383T137 451T267 471Q353 471 397 452T459 385T478 233Q478 132 460 84T398 15T267 -6ZM267 56Q331 56 357 69T394 114T404 232Q404
319 394 351T356 396T267 409Q205 409 178 397T141 353T130 233Q130 149 139 116T175 70T267 56ZM148 552L240 671L286 634L183 526L148 552ZM329 526L296 555L400 671L443 631L329 526Z" />
<glyph unicode="&#x152;" glyph-name="OE" horiz-adv-x="987" d="M513 0V57Q491 24 448 9T337 -7Q221 -7 164 19T83 110T60 332Q60 481 82 548T161 644T338 672Q406 672 452 656T513 607V665H932V599H587V373H903L877 308H587V67H938V0H513ZM338 61Q401 61 433
69T481 97T503 151T510 331Q510 459 504 501T482 565T434 596T337 605Q247 605 208 586T154 517T139 332Q139 194 154 146T209 80T338 61Z" />
<glyph unicode="&#x153;" glyph-name="oe" horiz-adv-x="855" d="M262 56Q324 56 350 69T385 115T395 232Q395 317 386 350T350 396T262 409Q200 409 175 396T140 350T130 233Q130 148 139 115T174 69T262 56ZM467 218Q467 140 478 110T518 67T609 54Q650 54 673
58T707 71T721 103L723 116H796Q801 73 782 47T720 7T607 -6Q556 -6 522 3T465 31T432 79Q422 49 402 30T351 3T262 -6Q176 -6 134 15T74 84T56 232Q56 332 74 380T135 450T262 471Q313 471 347 463T402 438T432 390Q452 432 494 451T603 471Q677 471 721 451T784
389T803 259Q803 246 803 236T801 218H467ZM730 274Q730 332 719 359T680 398T601 411Q551 411 523 400T483 363T467 274H730Z" />
<glyph unicode="&#x154;" glyph-name="Racute" horiz-adv-x="646" d="M528 0L306 272H157V0H80V665H339Q447 665 495 646T567 584T591 469Q591 406 572 364T511 300T400 273L628 0H528ZM339 338Q418 338 450 349T497 389T512 468Q512 519 498 547T451 587T339
599H157V338H339ZM294 726L272 768L420 844L447 789L294 726Z" />
<glyph unicode="&#x155;" glyph-name="racute" horiz-adv-x="362" d="M75 0V465H138L143 431H150Q181 451 217 461T292 471Q318 471 341 467V397Q311 400 283 400Q247 400 211 395T147 381V0H75ZM201 526L166 557L268 671L313 629L201 526Z" />
<glyph unicode="&#x156;" glyph-name="Rcommaaccent" horiz-adv-x="646" d="M528 0L306 272H157V0H80V665H339Q447 665 495 646T567 584T591 469Q591 406 572 364T511 300T400 273L628 0H528ZM339 338Q418 338 450 349T497 389T512 468Q512 519 498 547T451 587T339
599H157V338H339ZM272 -196L293 -67H361L324 -196H272Z" />
<glyph unicode="&#x157;" glyph-name="rcommaaccent" horiz-adv-x="362" d="M75 0V465H138L143 431H150Q181 451 217 461T292 471Q318 471 341 467V397Q311 400 283 400Q247 400 211 395T147 381V0H75ZM312 -196L333 -67H401L364 -196H312Z" />
<glyph unicode="&#x158;" glyph-name="Rcaron" horiz-adv-x="646" d="M528 0L306 272H157V0H80V665H339Q447 665 495 646T567 584T591 469Q591 406 572 364T511 300T400 273L628 0H528ZM339 338Q418 338 450 349T497 389T512 468Q512 519 498 547T451 587T339
599H157V338H339ZM323 716L196 816L225 853L323 785L421 853L450 816L323 716Z" />
<glyph unicode="&#x159;" glyph-name="rcaron" horiz-adv-x="362" d="M75 0V465H138L143 431H150Q181 451 217 461T292 471Q318 471 341 467V397Q311 400 283 400Q247 400 211 395T147 381V0H75ZM93 638L126 671L205 602L284 671L317 638L205 526L93 638Z" />
<glyph unicode="&#x15a;" glyph-name="Sacute" horiz-adv-x="628" d="M238 308Q172 313 135 331T79 385T61 476Q61 548 86 590T166 652T313 672Q394 672 445 660T522 623T547 557Q547 544 545 522H468L465 550Q463 572 447 584T398 601T312 606Q240 606 204 595T154
557T140 477Q140 427 164 405T248 378L393 367Q460 362 497 344T552 289T570 194Q570 118 545 76T462 13T309 -7Q217 -7 163 4T85 40T60 105Q60 123 62 155H140L143 126Q146 95 159 83T207 66T310 60Q384 60 422 71T475 110T491 192Q491 247 468 269T383 297L238
308ZM294 726L272 768L420 844L447 789L294 726Z" />
<glyph unicode="&#x15b;" glyph-name="sacute" horiz-adv-x="514" d="M370 358L368 373Q366 394 341 402T255 411Q202 411 176 404T140 382T129 334Q129 302 144 289T198 273L329 264Q380 260 407 247T448 207T462 138Q462 83 442 53T377 9T252 -6Q176 -6 132
4T70 35T55 116H130L132 101Q135 80 146 71T182 58T254 54Q312 54 339 61T378 84T389 136Q389 171 374 185T320 201L189 210Q138 214 111 227T70 266T56 332Q56 384 75 413T139 457T257 471Q326 471 368 462T428 433T445 358H370ZM244 526L209 557L311 671L356
629L244 526Z" />
<glyph unicode="&#x15c;" glyph-name="Scircumflex" horiz-adv-x="628" d="M238 308Q172 313 135 331T79 385T61 476Q61 548 86 590T166 652T313 672Q394 672 445 660T522 623T547 557Q547 544 545 522H468L465 550Q463 572 447 584T398 601T312 606Q240 606 204
595T154 557T140 477Q140 427 164 405T248 378L393 367Q460 362 497 344T552 289T570 194Q570 118 545 76T462 13T309 -7Q217 -7 163 4T85 40T60 105Q60 123 62 155H140L143 126Q146 95 159 83T207 66T310 60Q384 60 422 71T475 110T491 192Q491 247 468 269T383
297L238 308ZM313 784L215 716L186 753L313 853L440 753L411 716L313 784Z" />
<glyph unicode="&#x15d;" glyph-name="scircumflex" horiz-adv-x="514" d="M370 358L368 373Q366 394 341 402T255 411Q202 411 176 404T140 382T129 334Q129 302 144 289T198 273L329 264Q380 260 407 247T448 207T462 138Q462 83 442 53T377 9T252 -6Q176 -6
132 4T70 35T55 116H130L132 101Q135 80 146 71T182 58T254 54Q312 54 339 61T378 84T389 136Q389 171 374 185T320 201L189 210Q138 214 111 227T70 266T56 332Q56 384 75 413T139 457T257 471Q326 471 368 462T428 433T445 358H370ZM335 526L256 595L177 526L144
559L256 671L368 559L335 526Z" />
<glyph unicode="&#x15e;" glyph-name="Scedilla" horiz-adv-x="628" d="M238 -196L260 -159Q266 -149 269 -141T272 -125Q272 -117 269 -111T253 -93L238 -79L279 -7Q200 -5 153 6T83 41T60 105Q60 123 62 155H140L143 126Q146 93 161 82T210 65T310 60Q382 60
420 71T474 108T491 192Q491 247 468 269T383 297L238 308Q171 313 134 332T79 386T61 476Q61 548 86 590T166 652T313 672Q394 672 445 660T522 623T547 557Q547 544 545 522H468L465 550Q463 572 447 584T398 601T312 606Q240 606 204 595T154 557T140 477Q140
427 164 405T248 378L393 367Q460 362 497 344T552 289T570 194Q570 120 546 79T472 17T337 -6L307 -59L321 -72Q333 -83 338 -93T344 -116Q344 -128 339 -141T320 -172L303 -196H238Z" />
<glyph unicode="&#x15f;" glyph-name="scedilla" horiz-adv-x="514" d="M183 -196L205 -159Q211 -149 214 -141T217 -125Q217 -117 214 -111T198 -93L183 -79L224 -6Q158 -4 120 7T67 39T55 116H130L132 101Q135 80 146 71T182 58T254 54Q312 54 339 61T378 84T389
136Q389 171 374 185T320 201L189 210Q138 214 111 227T70 266T56 332Q56 386 76 415T141 457T257 471Q326 471 368 462T428 433T445 358H370L368 373Q366 394 341 402T255 411Q206 411 180 405T141 384T129 334Q129 302 144 289T198 273L329 264Q380 260 407 247T448
207T462 138Q462 86 445 57T388 12T282 -6L252 -59L266 -72Q278 -83 283 -93T289 -116Q289 -128 284 -141T265 -172L248 -196H183Z" />
<glyph unicode="&#x160;" glyph-name="Scaron" horiz-adv-x="628" d="M238 308Q172 313 135 331T79 385T61 476Q61 548 86 590T166 652T313 672Q394 672 445 660T522 623T547 557Q547 544 545 522H468L465 550Q463 572 447 584T398 601T312 606Q240 606 204 595T154
557T140 477Q140 427 164 405T248 378L393 367Q460 362 497 344T552 289T570 194Q570 118 545 76T462 13T309 -7Q217 -7 163 4T85 40T60 105Q60 123 62 155H140L143 126Q146 95 159 83T207 66T310 60Q384 60 422 71T475 110T491 192Q491 247 468 269T383 297L238
308ZM315 716L188 816L217 853L315 785L413 853L442 816L315 716Z" />
<glyph unicode="&#x161;" glyph-name="scaron" horiz-adv-x="514" d="M370 358L368 373Q366 394 341 402T255 411Q202 411 176 404T140 382T129 334Q129 302 144 289T198 273L329 264Q380 260 407 247T448 207T462 138Q462 83 442 53T377 9T252 -6Q176 -6 132
4T70 35T55 116H130L132 101Q135 80 146 71T182 58T254 54Q312 54 339 61T378 84T389 136Q389 171 374 185T320 201L189 210Q138 214 111 227T70 266T56 332Q56 384 75 413T139 457T257 471Q326 471 368 462T428 433T445 358H370ZM144 638L177 671L256 602L335
671L368 638L256 526L144 638Z" />
<glyph unicode="&#x162;" glyph-name="uni0162" horiz-adv-x="573" d="M221 -196L243 -159Q249 -149 252 -141T255 -125Q255 -117 252 -111T236 -93L221 -79L266 0H247V599H26V665H553L527 599H324V0L290 -59L304 -72Q316 -83 321 -93T327 -116Q327 -128 322 -141T303
-172L286 -196H221Z" />
<glyph unicode="&#x163;" glyph-name="uni0163" horiz-adv-x="331" d="M132 -197L154 -160Q160 -150 163 -142T166 -126Q166 -118 163 -112T147 -94L132 -80L175 -3Q140 2 120 15T92 55T84 142V405H15V465H84V578H156V465H299L283 405H156V149Q156 101 161 85T179
62T225 56Q257 56 292 61V0Q264 -4 232 -6L201 -60L215 -73Q227 -84 232 -94T238 -117Q238 -129 233 -142T214 -173L197 -197H132Z" />
<glyph unicode="&#x164;" glyph-name="Tcaron" horiz-adv-x="573" d="M247 0V599H26V665H553L527 599H324V0H247ZM286 716L159 816L188 853L286 785L384 853L413 816L286 716Z" />
<glyph unicode="&#x165;" glyph-name="tcaron" horiz-adv-x="331" d="M292 0Q250 -6 222 -6Q167 -6 138 6T96 45T84 142V405H15V465H84V578H156V465H299L283 405H156V149Q156 101 161 85T179 62T225 56Q257 56 292 61V0ZM212 516L233 665H297L260 516H212Z" />
<glyph unicode="&#x166;" glyph-name="Tbar" horiz-adv-x="573" d="M247 0V302H114V367H247V599H26V665H553L527 599H324V367H472L447 302H324V0H247Z" />
<glyph unicode="&#x167;" glyph-name="tbar" horiz-adv-x="331" d="M292 0Q250 -6 222 -6Q167 -6 138 6T96 45T84 142V215H25V275H84V405H15V465H84V578H156V465H299L283 405H156V275H259L243 215H156V149Q156 101 161 85T179 62T225 56Q257 56 292 61V0Z" />
<glyph unicode="&#x168;" glyph-name="Utilde" horiz-adv-x="694" d="M537 665H614V27Q478 -5 355 -5Q253 -5 192 17T103 87T75 217V665H152V225Q152 151 170 121T234 76T360 62Q452 62 537 77V665ZM487 792Q463 749 446 734T405 718Q391 718 377 723T339 742Q312
757 304 760T288 764Q280 764 272 756T246 720L207 747Q231 790 248 805T289 821Q303 821 317 816T355 797Q382 782 390 779T406 775Q414 775 422 783T448 819L487 792Z" />
<glyph unicode="&#x169;" glyph-name="utilde" horiz-adv-x="550" d="M403 465H475V32Q350 -6 261 -6Q208 -6 171 4T111 37Q90 58 82 93T74 198V465H146V211Q146 145 150 121T167 83Q181 69 207 63T274 56Q334 56 403 75V465ZM416 608Q392 565 375 550T334 534Q320
534 306 539T268 558Q241 573 233 576T217 580Q209 580 201 572T175 536L136 563Q160 606 177 621T218 637Q232 637 246 632T284 613Q311 598 319 595T335 591Q343 591 351 599T377 635L416 608Z" />
<glyph unicode="&#x16a;" glyph-name="Umacron" horiz-adv-x="694" d="M537 665H614V27Q478 -5 355 -5Q253 -5 192 17T103 87T75 217V665H152V225Q152 151 170 121T234 76T360 62Q452 62 537 77V665ZM226 740V795H470V740H226Z" />
<glyph unicode="&#x16b;" glyph-name="umacron" horiz-adv-x="550" d="M403 465H475V32Q350 -6 261 -6Q208 -6 171 4T111 37Q90 58 82 93T74 198V465H146V211Q146 145 150 121T167 83Q181 69 207 63T274 56Q334 56 403 75V465ZM152 560V615H396V560H152Z" />
<glyph unicode="&#x16c;" glyph-name="Ubreve" horiz-adv-x="694" d="M537 665H614V27Q478 -5 355 -5Q253 -5 192 17T103 87T75 217V665H152V225Q152 151 170 121T234 76T360 62Q452 62 537 77V665ZM467 839Q467 799 455 773T416 732T348 718Q306 718 280 731T240
771T227 839H275Q275 801 291 787T348 772Q387 772 403 787T419 839H467Z" />
<glyph unicode="&#x16d;" glyph-name="ubreve" horiz-adv-x="550" d="M403 465H475V32Q350 -6 261 -6Q208 -6 171 4T111 37Q90 58 82 93T74 198V465H146V211Q146 145 150 121T167 83Q181 69 207 63T274 56Q334 56 403 75V465ZM394 665Q394 619 382 591T344 548T277
534Q234 534 208 548T170 590T158 665H206Q206 620 221 604T277 588Q317 588 331 604T346 665H394Z" />
<glyph unicode="&#x16e;" glyph-name="Uring" horiz-adv-x="694" d="M537 665H614V27Q478 -5 355 -5Q253 -5 192 17T103 87T75 217V665H152V225Q152 151 170 121T234 76T360 62Q452 62 537 77V665ZM459 805Q459 763 449 744T416 718T346 710Q299 710 276 717T243
743T233 805Q233 846 242 865T275 892T346 900Q393 900 416 893T449 867T459 805ZM407 805Q407 832 402 841T385 853T346 857Q316 857 305 853T289 840T285 805Q285 778 290 769T307 757T346 753Q373 753 385 756T402 769T407 805Z" />
<glyph unicode="&#x16f;" glyph-name="uring" horiz-adv-x="550" d="M403 465H475V32Q350 -6 261 -6Q208 -6 171 4T111 37Q90 58 82 93T74 198V465H146V211Q146 145 150 121T167 83Q181 69 207 63T274 56Q334 56 403 75V465ZM388 607Q388 566 379 547T346 520T275
512Q228 512 205 519T172 545T162 607Q162 648 171 667T204 694T275 702Q322 702 345 695T378 669T388 607ZM336 607Q336 634 331 643T314 655T275 659Q245 659 234 655T218 642T214 607Q214 580 219 571T236 559T275 555Q305 555 316 559T332 572T336 607Z" />
<glyph unicode="&#x170;" glyph-name="Uhungarumlaut" horiz-adv-x="694" d="M537 665H614V27Q478 -5 355 -5Q253 -5 192 17T103 87T75 217V665H152V225Q152 151 170 121T234 76T360 62Q452 62 537 77V665ZM413 721L389 758L530 849L561 799L413 721ZM245 721L218
756L344 853L380 807L245 721Z" />
<glyph unicode="&#x171;" glyph-name="uhungarumlaut" horiz-adv-x="550" d="M403 465H475V32Q350 -6 261 -6Q208 -6 171 4T111 37Q90 58 82 93T74 198V465H146V211Q146 145 150 121T167 83Q181 69 207 63T274 56Q334 56 403 75V465ZM156 552L248 671L294 634L191
526L156 552ZM337 526L304 555L408 671L451 631L337 526Z" />
<glyph unicode="&#x172;" glyph-name="Uogonek" horiz-adv-x="694" d="M614 -195Q589 -200 566 -200Q504 -200 481 -181T458 -123Q458 -97 474 -61T537 20Q505 7 459 1T355 -5Q253 -5 192 17T103 87T75 217V665H152V225Q152 151 170 121T234 76T360 62Q452 62
537 77V665H614V27Q589 3 573 -17T546 -55T532 -86T528 -112Q528 -130 537 -137T568 -145Q594 -145 614 -141V-195Z" />
<glyph unicode="&#x173;" glyph-name="uogonek" horiz-adv-x="550" d="M475 -195Q450 -200 427 -200Q365 -200 342 -181T319 -123Q319 -97 335 -61T396 19Q356 5 323 0T261 -6Q208 -6 171 4T111 37Q90 58 82 93T74 198V465H146V211Q146 145 150 121T167 83Q181
69 207 63T274 56Q334 56 403 75V465H475V32Q450 6 434 -15T407 -54T393 -86T389 -112Q389 -130 398 -137T429 -145Q455 -145 475 -141V-195Z" />
<glyph unicode="&#x174;" glyph-name="Wcircumflex" horiz-adv-x="1078" d="M716 0L538 603L356 0H219L31 665H113L281 58H300L484 665H595L776 58H793L968 665H1048L851 0H716ZM539 784L441 716L412 753L539 853L666 753L637 716L539 784Z" />
<glyph unicode="&#x175;" glyph-name="wcircumflex" horiz-adv-x="742" d="M474 0L371 421L268 0H148L25 465H101L204 53H219L321 465H428L530 53H545L645 465H717L592 0H474ZM449 526L370 595L291 526L258 559L370 671L482 559L449 526Z" />
<glyph unicode="&#x176;" glyph-name="Ycircumflex" horiz-adv-x="608" d="M153 0L291 241H238L11 665H99L293 296H323L529 665H608L233 0H153ZM312 784L214 716L185 753L312 853L439 753L410 716L312 784Z" />
<glyph unicode="&#x177;" glyph-name="ycircumflex" horiz-adv-x="474" d="M102 -137H133Q163 -137 177 -131T201 -109T225 -52L243 0H174L17 465H93L229 53H259L383 465H457L292 -52Q270 -115 252 -145T212 -187T149 -199Q127 -199 102 -196V-137ZM320 526L241
595L162 526L129 559L241 671L353 559L320 526Z" />
<glyph unicode="&#x178;" glyph-name="Ydieresis" horiz-adv-x="608" d="M153 0L291 241H238L11 665H99L293 296H323L529 665H608L233 0H153ZM364 738V824H436V738H364ZM187 738V824H259V738H187Z" />
<glyph unicode="&#x179;" glyph-name="Zacute" horiz-adv-x="582" d="M44 0V107L445 581V599H51V665H520V561L119 87V67H549L523 0H44ZM274 726L252 768L400 844L427 789L274 726Z" />
<glyph unicode="&#x17a;" glyph-name="zacute" horiz-adv-x="456" d="M42 0V91L324 391V405H47V465H396V376L114 76V60H418L402 0H42ZM213 526L178 557L280 671L325 629L213 526Z" />
<glyph unicode="&#x17b;" glyph-name="Zdotaccent" horiz-adv-x="582" d="M44 0V107L445 581V599H51V665H520V561L119 87V67H549L523 0H44ZM257 738V824H334V738H257Z" />
<glyph unicode="&#x17c;" glyph-name="zdotaccent" horiz-adv-x="456" d="M42 0V91L324 391V405H47V465H396V376L114 76V60H418L402 0H42ZM194 556V642H266V556H194Z" />
<glyph unicode="&#x17d;" glyph-name="Zcaron" horiz-adv-x="582" d="M44 0V107L445 581V599H51V665H520V561L119 87V67H549L523 0H44ZM296 716L169 816L198 853L296 785L394 853L423 816L296 716Z" />
<glyph unicode="&#x17e;" glyph-name="zcaron" horiz-adv-x="456" d="M42 0V91L324 391V405H47V465H396V376L114 76V60H418L402 0H42ZM118 638L151 671L230 602L309 671L342 638L230 526L118 638Z" />
<glyph unicode="&#x17f;" glyph-name="longs" horiz-adv-x="226" d="M75 0V515Q75 574 87 607T130 655T217 671Q235 671 265 668V607Q235 609 220 609Q188 609 173 600T153 572T147 509V0H75Z" />
<glyph unicode="&#x192;" glyph-name="florin" horiz-adv-x="651" d="M337 301L281 -52Q272 -111 252 -142T195 -186T93 -200Q66 -200 36 -197V-131Q63 -134 101 -134Q145 -134 163 -127T191 -101T210 -24L261 301H124V365H271L296 523Q305 582 325 613T382 657T484
671Q511 671 541 668V602Q514 605 476 605Q432 605 414 598T386 572T368 495L347 365H524L507 301H337Z" />
<glyph unicode="&#x1e6;" glyph-name="Gcaron" horiz-adv-x="680" d="M535 0L529 33H520Q487 13 441 3T337 -7Q216 -7 161 20T83 114T60 332Q60 478 82 546T161 643T338 672Q429 672 484 661T566 626T593 561Q593 540 591 520H514L512 545Q509 575 493 586T441
601T337 606Q245 606 207 586T154 515T139 335Q139 199 154 149T208 80T338 61Q398 61 441 67T525 89V240H371V305H602V0H535ZM346 716L219 816L248 853L346 785L444 853L473 816L346 716Z" />
<glyph unicode="&#x1e7;" glyph-name="gcaron" horiz-adv-x="522" d="M128 -76L130 -101Q131 -117 143 -126T182 -139T258 -143Q328 -143 358 -137T401 -115T414 -68Q414 -41 406 -27T381 -6T320 0H197Q140 0 114 8T76 35T63 87Q63 123 77 145T119 176Q90 192
77 224T63 310Q63 372 81 406T141 455T257 471Q279 471 300 470T339 465H503V405H425V399Q439 387 445 365T452 311Q452 250 434 216T374 166T257 150Q237 150 209 150T176 151Q147 151 136 142T124 109Q124 88 129 79T150 67T202 64H325Q389 64 421 51T469 10T485
-65Q485 -114 462 -144T392 -187T254 -200Q178 -200 134 -192T72 -166T53 -111Q53 -97 56 -76H128ZM381 310Q381 353 371 374T335 404T257 414Q206 414 181 405T145 375T134 311Q134 268 144 247T180 216T257 207Q309 207 334 216T370 247T381 310ZM144 638L177
671L256 602L335 671L368 638L256 526L144 638Z" />
<glyph unicode="&#x1fa;" glyph-name="Aringacute" horiz-adv-x="700" d="M595 0L536 164H159L99 0H18L272 665H434L682 0H595ZM376 603H323L182 228H512L376 603ZM440 752Q440 726 433 714T409 696T353 690Q317 690 299 695T274 712T266 752Q266 777 273 789T297
807T353 813Q392 813 409 808T433 790T440 752ZM400 752Q400 766 397 772T385 780T353 783Q333 783 324 781T310 774T306 752Q306 735 310 730T323 722T353 720Q376 720 385 722T397 731T400 752ZM319 831L307 858L423 900L440 864L319 831Z" />
<glyph unicode="&#x1fb;" glyph-name="aringacute" horiz-adv-x="532" d="M398 0L390 45H384Q363 19 327 7T237 -6Q164 -6 124 8T65 52T47 135Q47 188 64 217T122 260T243 274H386V325Q386 366 376 381T340 404T260 411Q221 411 197 408T160 397T145 372L143 360H71Q67
403 85 426T146 460T262 471Q337 471 380 459T440 420T458 330V0H398ZM386 218H243Q186 218 164 211T131 187T121 138Q121 107 132 89T168 62T242 54Q304 54 333 63T374 95T386 163V218ZM373 600Q373 560 364 542T332 517T266 510Q219 510 198 517T168 543T159
600Q159 638 167 656T198 682T266 690Q311 690 333 683T364 658T373 600ZM323 600Q323 624 319 633T303 645T266 648Q238 648 227 644T213 631T209 600Q209 578 212 569T227 556T266 552Q291 552 302 555T318 567T323 600ZM228 722L203 757L330 843L361 795L228
722Z" />
<glyph unicode="&#x1fc;" glyph-name="AEacute" horiz-adv-x="959" d="M482 0V164H170L85 0H0L353 665H904V599H559V373H875L849 308H559V67H910V0H482ZM482 599H396L203 228H482V599ZM594 726L572 768L720 844L747 789L594 726Z" />
<glyph unicode="&#x1fd;" glyph-name="aeacute" horiz-adv-x="843" d="M454 218Q454 140 465 110T505 67T595 54Q635 54 658 58T692 71T706 103L708 116H781Q786 73 767 46T705 7T595 -6Q542 -6 506 2T448 28T417 73Q400 32 357 13T237 -6Q164 -6 124 8T65 52T47
135Q47 190 65 219T125 261T243 274H382V323Q382 362 372 379T336 403T260 411Q221 411 197 408T160 397T145 372L143 360H71Q67 403 85 426T146 460T262 471Q314 471 346 465T398 445T428 406Q447 438 488 454T590 471Q663 471 706 452T769 391T788 259Q788 234
786 218H454ZM243 218Q186 218 164 211T131 187T121 138Q121 107 132 89T168 62T242 54Q303 54 331 63T370 95T382 163V218H243ZM715 274Q715 330 704 357T666 398T590 411Q539 411 511 400T471 364T454 274H715ZM439 526L404 557L506 671L551 629L439 526Z" />
<glyph unicode="&#x1fe;" glyph-name="Oslashacute" horiz-adv-x="675" d="M337 -7Q218 -7 161 20T82 113T60 332Q60 481 82 548T161 644T338 672Q457 672 514 645T593 552T615 333Q615 182 592 115T512 20T337 -7ZM161 128Q178 91 217 76T338 61Q426 61 466 79T521
146T536 333Q536 391 535 424T529 480L161 128ZM513 540Q495 576 456 590T337 605Q247 605 208 586T154 517T139 332Q139 277 140 245T145 188L513 540ZM304 726L282 768L430 844L457 789L304 726Z" />
<glyph unicode="&#x1ff;" glyph-name="oslashacute" horiz-adv-x="534" d="M267 -6Q178 -6 135 14T74 83T56 232Q56 333 74 381T136 450T267 471Q353 471 397 452T459 385T478 233Q478 132 460 84T398 15T267 -6ZM152 89Q165 71 191 64T267 56Q331 56 357 69T394
114T404 232Q404 299 401 323L152 89ZM382 376Q369 394 343 401T267 409Q203 409 177 396T140 351T130 233Q130 166 133 142L382 376ZM262 526L227 557L329 671L374 629L262 526Z" />
<glyph unicode="&#x218;" glyph-name="Scommaaccent" horiz-adv-x="628" d="M238 308Q172 313 135 331T79 385T61 476Q61 548 86 590T166 652T313 672Q394 672 445 660T522 623T547 557Q547 544 545 522H468L465 550Q463 572 447 584T398 601T312 606Q240 606
204 595T154 557T140 477Q140 427 164 405T248 378L393 367Q460 362 497 344T552 289T570 194Q570 118 545 76T462 13T309 -7Q217 -7 163 4T85 40T60 105Q60 123 62 155H140L143 126Q146 95 159 83T207 66T310 60Q384 60 422 71T475 110T491 192Q491 247 468 269T383
297L238 308ZM258 -196L279 -67H347L310 -196H258Z" />
<glyph unicode="&#x219;" glyph-name="scommaaccent" horiz-adv-x="514" d="M370 358L368 373Q366 394 341 402T255 411Q202 411 176 404T140 382T129 334Q129 302 144 289T198 273L329 264Q380 260 407 247T448 207T462 138Q462 83 442 53T377 9T252 -6Q176 -6
132 4T70 35T55 116H130L132 101Q135 80 146 71T182 58T254 54Q312 54 339 61T378 84T389 136Q389 171 374 185T320 201L189 210Q138 214 111 227T70 266T56 332Q56 384 75 413T139 457T257 471Q326 471 368 462T428 433T445 358H370ZM200 -196L221 -67H289L252
-196H200Z" />
<glyph unicode="&#x21a;" glyph-name="Tcommaaccent" horiz-adv-x="573" d="M247 0V599H26V665H553L527 599H324V0H247ZM232 -196L253 -67H321L284 -196H232Z" />
<glyph unicode="&#x21b;" glyph-name="tcommaaccent" horiz-adv-x="331" d="M292 0Q250 -6 222 -6Q167 -6 138 6T96 45T84 142V405H15V465H84V578H156V465H299L283 405H156V149Q156 101 161 85T179 62T225 56Q257 56 292 61V0ZM143 -196L164 -67H232L195 -196H143Z" />
<glyph unicode="&#x237;" glyph-name="dotlessj" horiz-adv-x="222" d="M-20 -136H10Q43 -136 54 -133T70 -119T75 -74V465H147V-77Q147 -129 136 -153T101 -188T35 -198Q11 -198 -20 -195V-136Z" />
<glyph unicode="&#x2c6;" glyph-name="circumflex" horiz-adv-x="364" d="M261 526L182 595L103 526L70 559L182 671L294 559L261 526Z" />
<glyph unicode="&#x2c7;" glyph-name="caron" horiz-adv-x="364" d="M70 638L103 671L182 602L261 671L294 638L182 526L70 638Z" />
<glyph unicode="&#x2d8;" glyph-name="breve" horiz-adv-x="376" d="M306 665Q306 619 294 591T256 548T189 534Q146 534 120 548T82 590T70 665H118Q118 620 133 604T189 588Q229 588 243 604T258 665H306Z" />
<glyph unicode="&#x2d9;" glyph-name="dotaccent" horiz-adv-x="212" d="M70 556V642H142V556H70Z" />
<glyph unicode="&#x2da;" glyph-name="ring" horiz-adv-x="366" d="M296 605Q296 564 287 545T254 518T183 510Q136 510 113 517T80 543T70 605Q70 646 79 665T112 692T183 700Q230 700 253 693T286 667T296 605ZM244 605Q244 632 239 641T222 653T183 657Q153
657 142 653T126 640T122 605Q122 578 127 569T144 557T183 553Q213 553 224 557T240 570T244 605Z" />
<glyph unicode="&#x2db;" glyph-name="ogonek" horiz-adv-x="296" d="M226 -195Q201 -200 178 -200Q116 -200 93 -181T70 -123Q70 -94 86 -65T140 0H208Q168 -44 154 -67T140 -112Q140 -130 149 -137T180 -145Q206 -145 226 -141V-195Z" />
<glyph unicode="&#x2dc;" glyph-name="tilde" horiz-adv-x="420" d="M350 608Q326 565 309 550T268 534Q254 534 240 539T202 558Q175 573 167 576T151 580Q143 580 135 572T109 536L70 563Q94 606 111 621T152 637Q166 637 180 632T218 613Q245 598 253 595T269
591Q277 591 285 599T311 635L350 608Z" />
<glyph unicode="&#x2dd;" glyph-name="hungarumlaut" horiz-adv-x="435" d="M70 552L162 671L208 634L105 526L70 552ZM251 526L218 555L322 671L365 631L251 526Z" />
<glyph unicode="&#x300;" glyph-name="gravecomb" horiz-adv-x="0" d="M39 526L-73 629L-28 671L74 557L39 526Z" />
<glyph unicode="&#x312;" glyph-name="uni0312" horiz-adv-x="229" d="M70 536L107 665H159L138 536H70Z" />
<glyph unicode="&#x315;" glyph-name="uni0315" horiz-adv-x="225" d="M70 516L91 665H155L118 516H70Z" />
<glyph unicode="&#x326;" glyph-name="uni0326" horiz-adv-x="229" d="M70 -196L91 -67H159L122 -196H70Z" />
<glyph unicode="&#x394;" glyph-name="Delta" horiz-adv-x="691" d="M42 0V64L272 665H434L658 64V0H42ZM376 603H323L121 64H572L376 603Z" />
<glyph unicode="&#x3a9;" glyph-name="Omega" horiz-adv-x="715" d="M417 0V184Q483 184 516 200T562 255T576 370Q576 473 559 519T499 585T357 604Q260 604 217 585T156 520T139 369Q139 287 152 250T198 199T298 184V0H79V68H236V126Q170 132 132 157T77 231T60
369Q60 492 85 555T172 645T358 672Q481 672 542 646T629 559T655 370Q655 289 638 239T583 161T479 126V68H655L629 0H417Z" />
<glyph unicode="&#x3c0;" glyph-name="pi" horiz-adv-x="582" d="M537 -2Q513 -6 490 -6Q441 -6 416 6T379 47T364 142L350 405H169L149 0H77L97 405H15V465H544L528 405H422L436 172Q439 113 444 92T458 63T495 56Q509 56 537 58V-2Z" />
<glyph unicode="&#x400;" glyph-name="uni0400" horiz-adv-x="567" d="M80 0V665H512V599H157V373H483L457 308H157V67H518V0H80ZM173 789L200 844L348 768L326 726L173 789Z" />
<glyph unicode="&#x401;" glyph-name="uni0401" horiz-adv-x="567" d="M80 0V665H512V599H157V373H483L457 308H157V67H518V0H80ZM355 738V824H427V738H355ZM178 738V824H250V738H178Z" />
<glyph unicode="&#x402;" glyph-name="uni0402" horiz-adv-x="743" d="M403 0V66H442Q525 66 559 79T608 124T624 214Q624 272 609 304T559 349T442 362H277V0H200V599H26V665H486L460 599H277V428H442Q554 428 604 407T679 339T703 215Q703 138 678 91T601 22T442
0H403Z" />
<glyph unicode="&#x403;" glyph-name="uni0403" horiz-adv-x="514" d="M80 0V665H509L483 598H157V0H80ZM253 726L231 768L379 844L406 789L253 726Z" />
<glyph unicode="&#x404;" glyph-name="uni0404" horiz-adv-x="653" d="M502 159H581Q583 137 583 104Q583 64 557 40T477 5T337 -7Q216 -7 161 20T83 114T60 332Q60 478 82 546T161 643T337 672Q466 672 523 647T580 563Q580 540 578 520H501L499 542Q497 571
481 583T430 600T335 605Q250 605 212 588T158 528T139 373H445L419 308H139Q141 186 156 141T211 79T339 61Q390 61 420 64T467 73T491 91T500 122L502 159Z" />
<glyph unicode="&#x405;" glyph-name="uni0405" horiz-adv-x="628" d="M238 308Q172 313 135 331T79 385T61 476Q61 548 86 590T166 652T313 672Q394 672 445 660T522 623T547 557Q547 544 545 522H468L465 550Q463 572 447 584T398 601T312 606Q240 606 204 595T154
557T140 477Q140 427 164 405T248 378L393 367Q460 362 497 344T552 289T570 194Q570 118 545 76T462 13T309 -7Q217 -7 163 4T85 40T60 105Q60 123 62 155H140L143 126Q146 95 159 83T207 66T310 60Q384 60 422 71T475 110T491 192Q491 247 468 269T383 297L238
308Z" />
<glyph unicode="&#x406;" glyph-name="uni0406" horiz-adv-x="237" d="M80 0V665H157V0H80Z" />
<glyph unicode="&#x407;" glyph-name="uni0407" horiz-adv-x="237" d="M80 0V665H157V0H80ZM427 738V824H499V738H427ZM250 738V824H322V738H250Z" />
<glyph unicode="&#x408;" glyph-name="uni0408" horiz-adv-x="492" d="M335 665H413V192Q413 118 392 75T327 13T201 -7Q131 -7 90 5T31 42T12 110Q12 137 14 169H91L93 126Q94 95 103 83T136 66T202 60Q255 60 283 72T323 112T335 200V665Z" />
<glyph unicode="&#x409;" glyph-name="uni0409" horiz-adv-x="1016" d="M493 0V599H249L246 566Q224 318 204 201T155 39T56 -7Q37 -7 11 -2V66H44Q85 66 103 107T136 251T170 566L179 665H570V428H715Q827 428 877 407T952 339T976 215Q976 138 951 91T874 22T715
0H493ZM715 66Q798 66 832 79T881 124T897 214Q897 272 882 304T832 349T715 362H570V66H715Z" />
<glyph unicode="&#x40a;" glyph-name="uni040A" horiz-adv-x="1049" d="M526 0V307H157V0H80V665H157V374H526V665H603V428H748Q860 428 910 407T985 339T1009 215Q1009 138 984 91T907 22T748 0H526ZM748 66Q831 66 865 79T914 124T930 214Q930 272 915 304T865
349T748 362H603V66H748Z" />
<glyph unicode="&#x40b;" glyph-name="uni040B" horiz-adv-x="768" d="M621 0V204Q621 275 605 305T549 349T437 363Q358 363 277 348V0H200V599H26V665H486L460 599H277V414Q368 430 443 430Q535 430 591 408T672 340T698 213V0H621Z" />
<glyph unicode="&#x40c;" glyph-name="uni040C" horiz-adv-x="661" d="M544 0L245 308H157V0H80V665H157V373H245L517 665H618L314 347L654 0H544ZM302 726L280 768L428 844L455 789L302 726Z" />
<glyph unicode="&#x40d;" glyph-name="uni040D" horiz-adv-x="733" d="M576 0V605H565L214 0H80V665H157V60H169L520 665H653V0H576ZM252 789L279 844L427 768L405 726L252 789Z" />
<glyph unicode="&#x40e;" glyph-name="uni040E" horiz-adv-x="608" d="M153 0L291 241H238L11 665H99L293 296H323L529 665H608L233 0H153ZM449 831Q451 786 439 760T398 721T309 709Q250 709 221 721T179 759T169 831H235Q235 804 241 789T263 767T309 760Q339
760 354 767T376 789T383 831H449Z" />
<glyph unicode="&#x40f;" glyph-name="uni040F" horiz-adv-x="699" d="M388 0L383 -160H316L311 0H80V665H157V67H542V665H619V0H388Z" />
<glyph unicode="&#x410;" glyph-name="uni0410" horiz-adv-x="700" d="M595 0L536 164H159L99 0H18L272 665H434L682 0H595ZM376 603H323L182 228H512L376 603Z" />
<glyph unicode="&#x411;" glyph-name="uni0411" horiz-adv-x="654" d="M80 0V665H545L519 599H157V376H389Q461 376 506 356T572 295T594 191Q594 126 573 84T508 21T399 0H80ZM373 66Q433 66 461 77T502 115T515 188Q515 233 502 260T461 298T373 310H157V66H373Z" />
<glyph unicode="&#x412;" glyph-name="uni0412" horiz-adv-x="664" d="M365 373Q421 373 450 385T492 423T505 493Q505 534 493 557T456 589T375 599H157V373H365ZM80 665H394Q462 665 503 648T564 595T584 499Q584 443 559 407T485 352V343Q543 331 573 291T604
185Q604 124 583 83T519 21T409 0H80V665ZM383 67Q443 67 470 77T511 111T525 178Q525 228 512 255T470 295T394 308H157V67H383Z" />
<glyph unicode="&#x413;" glyph-name="uni0413" horiz-adv-x="514" d="M80 0V665H509L483 598H157V0H80Z" />
<glyph unicode="&#x414;" glyph-name="uni0414" horiz-adv-x="710" d="M628 -160L623 0H85L81 -160H14L8 66H80Q120 130 138 222T178 566L187 665H601V66H700L695 -160H628ZM524 599H257L254 566Q232 325 214 224T160 66H524V599Z" />
<glyph unicode="&#x415;" glyph-name="uni0415" horiz-adv-x="567" d="M80 0V665H512V599H157V373H483L457 308H157V67H518V0H80Z" />
<glyph unicode="&#x416;" glyph-name="uni0416" horiz-adv-x="951" d="M832 0L595 308H514V0H437V308H356L119 0H19L291 347L49 665H142L356 373H437V665H514V373H595L809 665H902L660 347L932 0H832Z" />
<glyph unicode="&#x417;" glyph-name="uni0417" horiz-adv-x="644" d="M465 343Q523 331 553 291T584 185Q584 116 558 74T477 12T310 -7Q212 -7 161 4T86 40T61 105Q61 124 63 156H142L144 120Q145 96 159 84T203 67T311 61Q401 61 436 72T488 108T505 178Q505
226 493 254T452 295T374 308H225V373H345Q399 373 428 384T471 422T485 493Q485 538 471 561T424 594T310 604Q237 604 206 600T162 584T146 547L144 516H68Q65 546 65 565Q65 602 91 626T168 661T313 672Q416 672 467 655T541 600T564 499Q564 443 539 407T465
352V343Z" />
<glyph unicode="&#x418;" glyph-name="uni0418" horiz-adv-x="733" d="M576 0V605H565L214 0H80V665H157V60H169L520 665H653V0H576Z" />
<glyph unicode="&#x419;" glyph-name="uni0419" horiz-adv-x="733" d="M576 0V605H565L214 0H80V665H157V60H169L520 665H653V0H576ZM506 831Q508 786 496 760T455 721T366 709Q307 709 278 721T236 759T226 831H292Q292 804 298 789T320 767T366 760Q396 760
411 767T433 789T440 831H506Z" />
<glyph unicode="&#x41a;" glyph-name="uni041A" horiz-adv-x="661" d="M544 0L245 308H157V0H80V665H157V373H245L517 665H618L314 347L654 0H544Z" />
<glyph unicode="&#x41b;" glyph-name="uni041B" horiz-adv-x="664" d="M507 0V599H249L246 566Q224 318 204 201T155 39T56 -7Q37 -7 11 -2V66H44Q85 66 103 107T136 251T170 566L179 665H584V0H507Z" />
<glyph unicode="&#x41c;" glyph-name="uni041C" horiz-adv-x="920" d="M763 0V609H746L497 0H423L174 609H157V0H80V665H230L463 95L696 665H840V0H763Z" />
<glyph unicode="&#x41d;" glyph-name="uni041D" horiz-adv-x="713" d="M556 0V307H157V0H80V665H157V374H556V665H633V0H556Z" />
<glyph unicode="&#x41e;" glyph-name="uni041E" horiz-adv-x="675" d="M337 -7Q218 -7 161 20T82 113T60 332Q60 481 82 548T161 644T338 672Q454 672 511 646T592 555T615 333Q615 182 592 115T512 20T337 -7ZM338 61Q426 61 466 79T521 146T536 333Q536 472
521 520T465 586T337 605Q247 605 208 586T154 517T139 332Q139 196 153 148T207 80T338 61Z" />
<glyph unicode="&#x41f;" glyph-name="uni041F" horiz-adv-x="713" d="M556 0V599H157V0H80V665H633V0H556Z" />
<glyph unicode="&#x420;" glyph-name="uni0420" horiz-adv-x="633" d="M80 0V665H332Q444 665 494 644T569 576T593 452Q593 375 568 328T491 259T332 237H157V0H80ZM332 303Q415 303 449 316T498 361T514 451Q514 509 499 541T449 586T332 599H157V303H332Z" />
<glyph unicode="&#x421;" glyph-name="uni0421" horiz-adv-x="643" d="M503 169H580Q583 141 583 104Q583 65 558 41T478 5T337 -7Q216 -7 161 20T83 114T60 332Q60 478 82 546T161 643T337 672Q466 672 523 647T580 563Q580 542 576 510H502L499 542Q496 573
481 584T431 600T335 605Q244 605 206 585T154 514T139 335Q139 199 154 149T208 80T339 61Q391 61 421 64T468 74T492 92T500 122L503 169Z" />
<glyph unicode="&#x422;" glyph-name="uni0422" horiz-adv-x="573" d="M247 0V599H26V665H553L527 599H324V0H247Z" />
<glyph unicode="&#x423;" glyph-name="uni0423" horiz-adv-x="608" d="M153 0L291 241H238L11 665H99L293 296H323L529 665H608L233 0H153Z" />
<glyph unicode="&#x424;" glyph-name="uni0424" horiz-adv-x="1025" d="M474 -40V44Q279 44 201 70T87 159T50 331Q50 440 87 503T205 594T474 621V700H551V621Q746 621 824 595T938 506T975 334Q975 225 938 162T820 71T551 44V-40H474ZM474 555Q306 555 244
537T156 472T129 333Q129 241 155 194T243 129T474 110V555ZM551 110Q719 110 781 128T869 193T896 332Q896 424 870 471T782 536T551 555V110Z" />
<glyph unicode="&#x425;" glyph-name="uni0425" horiz-adv-x="620" d="M511 0L316 311H299L104 0H18L238 344L33 665H124L302 380H319L497 665H583L380 347L602 0H511Z" />
<glyph unicode="&#x426;" glyph-name="uni0426" horiz-adv-x="729" d="M647 -160L642 0H80V665H157V67H543V665H620V67H719L714 -160H647Z" />
<glyph unicode="&#x427;" glyph-name="uni0427" horiz-adv-x="668" d="M511 0V241Q416 225 332 225Q233 225 173 247T86 317T58 447V665H135V455Q135 382 153 351T215 306T337 292Q426 292 511 307V665H588V0H511Z" />
<glyph unicode="&#x428;" glyph-name="uni0428" horiz-adv-x="1019" d="M80 0V665H157V67H471V665H548V67H862V665H939V0H80Z" />
<glyph unicode="&#x429;" glyph-name="uni0429" horiz-adv-x="1048" d="M966 -160L961 0H80V665H157V67H471V665H548V67H862V665H939V67H1038L1033 -160H966Z" />
<glyph unicode="&#x42a;" glyph-name="uni042A" horiz-adv-x="743" d="M200 0V599H26V665H277V428H442Q554 428 604 407T679 339T703 215Q703 138 678 91T601 22T442 0H200ZM442 66Q525 66 559 79T608 124T624 214Q624 272 609 304T559 349T442 362H277V66H442Z" />
<glyph unicode="&#x42b;" glyph-name="uni042B" horiz-adv-x="825" d="M668 0V665H745V0H668ZM80 0V665H157V428H312Q424 428 474 407T549 339T573 215Q573 138 548 91T471 22T312 0H80ZM312 66Q395 66 429 79T478 124T494 214Q494 272 479 304T429 349T312 362H157V66H312Z"
/>
<glyph unicode="&#x42c;" glyph-name="uni042C" horiz-adv-x="633" d="M80 0V665H157V428H332Q444 428 494 407T569 339T593 215Q593 138 568 91T491 22T332 0H80ZM332 66Q415 66 449 79T498 124T514 214Q514 272 499 304T449 349T332 362H157V66H332Z" />
<glyph unicode="&#x42d;" glyph-name="uni042D" horiz-adv-x="643" d="M211 308V373H504Q501 487 485 529T428 588T304 605Q242 605 208 600T160 583T144 542L142 520H65Q63 540 63 563Q63 602 87 625T165 660T306 672Q426 672 481 645T560 550T583 332Q583 186
561 118T482 21T306 -7Q220 -7 166 4T86 40T60 104Q60 137 62 159H141L143 122Q144 102 152 91T177 74T225 64T308 61Q395 61 433 79T487 142T504 308H211Z" />
<glyph unicode="&#x42e;" glyph-name="uni042E" horiz-adv-x="930" d="M80 0V665H157V373H315Q319 505 343 563T423 647T593 672Q712 672 769 645T848 552T870 333Q870 182 847 115T767 20T592 -7Q478 -7 421 18T341 103T315 308H157V0H80ZM593 61Q681 61 721
79T776 146T791 333Q791 469 777 517T723 585T592 605Q502 605 463 586T409 517T394 332Q394 196 408 148T462 80T593 61Z" />
<glyph unicode="&#x42f;" glyph-name="uni042F" horiz-adv-x="646" d="M489 0V272H337L115 0H18L245 273Q174 277 134 298T75 361T55 468Q55 539 79 582T154 645T307 665H566V0H489ZM489 599H307Q228 599 196 588T149 548T134 469Q134 418 148 390T195 350T307
338H489V599Z" />
<glyph unicode="&#x430;" glyph-name="uni0430" horiz-adv-x="532" d="M398 0L390 45H384Q363 19 327 7T237 -6Q164 -6 124 8T65 52T47 135Q47 188 64 217T122 260T243 274H386V325Q386 366 376 381T340 404T260 411Q221 411 197 408T160 397T145 372L143 360H71Q67
403 85 426T146 460T262 471Q337 471 380 459T440 420T458 330V0H398ZM386 218H243Q186 218 164 211T131 187T121 138Q121 107 132 89T168 62T242 54Q304 54 333 63T374 95T386 163V218Z" />
<glyph unicode="&#x431;" glyph-name="uni0431" horiz-adv-x="534" d="M298 600Q231 597 200 584T155 540T134 427H142Q159 448 194 459T274 471Q355 471 398 451T459 384T478 233Q478 132 460 84T398 15T267 -6Q181 -6 137 13T75 80T56 232Q56 400 66 472T101
584T174 642T316 665L448 671L430 606L298 600ZM267 56Q331 56 357 69T394 114T404 232Q404 319 394 351T356 396T267 409Q203 409 177 396T140 351T130 233Q130 146 140 114T178 69T267 56Z" />
<glyph unicode="&#x432;" glyph-name="uni0432" horiz-adv-x="529" d="M405 240Q445 231 464 206T483 136Q483 79 461 50T391 7T257 -6Q216 -6 170 0T75 17V454Q117 462 168 466T260 471Q337 471 382 459T448 418T469 341Q469 304 453 280T405 247V240ZM292 266Q330
266 351 272T384 295T395 338Q395 367 383 382T342 404T257 411Q201 411 147 404V266H292ZM147 210V63Q215 54 260 54Q327 54 355 60T396 84T409 136Q409 167 400 182T368 204T289 210H147Z" />
<glyph unicode="&#x433;" glyph-name="uni0433" horiz-adv-x="389" d="M75 0V465H371L355 405H147V0H75Z" />
<glyph unicode="&#x434;" glyph-name="uni0434" horiz-adv-x="539" d="M460 -149L455 0H84L79 -149H17L12 60H67Q91 103 102 168T128 387L135 465H452V60H527L522 -149H460ZM380 405H200L198 383Q185 239 173 168T140 60H380V405Z" />
<glyph unicode="&#x435;" glyph-name="uni0435" horiz-adv-x="526" d="M463 116Q468 74 450 48T389 8T273 -6Q181 -6 137 14T75 81T56 226Q56 326 75 377T140 449T269 471Q344 471 388 452T452 391T471 259Q471 241 469 218H130Q130 140 141 110T181 67T275 54Q317
54 340 58T375 71T389 103L391 116H463ZM398 274Q398 332 387 359T347 398T267 411Q216 411 188 400T147 364T130 274H398Z" />
<glyph unicode="&#x436;" glyph-name="uni0436" horiz-adv-x="690" d="M595 0L434 213H381V0H309V213H256L95 0H4L197 248L25 465H105L256 270H309V465H381V270H434L585 465H665L493 248L686 0H595Z" />
<glyph unicode="&#x437;" glyph-name="uni0437" horiz-adv-x="515" d="M391 240Q431 231 450 206T469 136Q469 84 448 53T382 8T245 -6Q175 -6 132 7T71 47T56 121H129L131 108Q134 85 146 75T182 61T248 56Q317 56 344 62T383 86T395 136Q395 167 386 182T355
203T275 209H215V267H278Q319 267 340 274T371 296T381 338Q381 365 370 380T333 402T248 409Q207 409 183 405T147 391T132 360L130 344H56Q53 394 71 420T134 458T249 471Q329 471 371 458T434 417T455 341Q455 304 439 280T391 247V240Z" />
<glyph unicode="&#x438;" glyph-name="uni0438" horiz-adv-x="583" d="M436 0V410H424L201 0H75V465H147V55H159L380 465H508V0H436Z" />
<glyph unicode="&#x439;" glyph-name="uni0439" horiz-adv-x="583" d="M436 0V410H424L201 0H75V465H147V55H159L380 465H508V0H436ZM431 665Q433 620 421 594T380 555T291 543Q232 543 203 555T161 593T151 665H217Q217 638 223 623T245 601T291 594Q321 594
336 601T358 623T365 665H431Z" />
<glyph unicode="&#x43a;" glyph-name="uni043A" horiz-adv-x="486" d="M387 0L203 213H147V0H75V465H147V270H203L375 465H461L263 249L483 0H387Z" />
<glyph unicode="&#x43b;" glyph-name="uni043B" horiz-adv-x="527" d="M380 0V405H200L198 383Q187 261 175 187T147 71T109 12T48 -6Q40 -6 31 -5T14 -2V61H36Q63 61 78 91T105 192T128 387L135 465H452V0H380Z" />
<glyph unicode="&#x43c;" glyph-name="uni043C" horiz-adv-x="730" d="M583 0V412H569L400 0H330L161 412H147V0H75V465H212L365 89L518 465H655V0H583Z" />
<glyph unicode="&#x43d;" glyph-name="uni043D" horiz-adv-x="550" d="M403 0V207H147V0H75V465H147V269H403V465H475V0H403Z" />
<glyph unicode="&#x43e;" glyph-name="uni043E" horiz-adv-x="534" d="M267 -6Q178 -6 135 14T74 83T56 232Q56 335 74 383T137 451T267 471Q353 471 397 452T459 385T478 233Q478 132 460 84T398 15T267 -6ZM267 56Q331 56 357 69T394 114T404 232Q404 319 394
351T356 396T267 409Q205 409 178 397T141 353T130 233Q130 149 139 116T175 70T267 56Z" />
<glyph unicode="&#x43f;" glyph-name="uni043F" horiz-adv-x="548" d="M401 0V405H147V0H75V465H473V0H401Z" />
<glyph unicode="&#x440;" glyph-name="uni0440" horiz-adv-x="540" d="M75 -196V465H136L145 415Q165 443 200 457T288 471Q359 471 403 447T467 375T487 234Q487 136 466 89T397 19T276 -5Q240 -5 207 1T147 18V-196H75ZM147 68Q176 62 205 59T262 56Q320 56
353 71T399 120T413 232Q413 308 401 342T359 393T278 409Q229 409 200 400T159 371T147 304V68Z" />
<glyph unicode="&#x441;" glyph-name="uni0441" horiz-adv-x="508" d="M386 129H459Q464 79 445 50T382 8T264 -6Q178 -6 135 14T74 81T56 232Q56 332 73 380T134 450T266 471Q337 471 380 458T441 418T455 339H381L379 360Q377 382 365 391T329 405T263 409Q201
409 175 396T140 350T130 232Q130 145 140 113T177 68T265 56Q307 56 332 60T369 75T384 111L386 129Z" />
<glyph unicode="&#x442;" glyph-name="uni0442" horiz-adv-x="420" d="M174 0V405H15V465H418L402 405H246V0H174Z" />
<glyph unicode="&#x443;" glyph-name="uni0443" horiz-adv-x="474" d="M102 -137H133Q163 -137 177 -131T201 -109T225 -52L243 0H174L17 465H93L229 53H259L383 465H457L292 -52Q270 -115 252 -145T212 -187T149 -199Q127 -199 102 -196V-137Z" />
<glyph unicode="&#x444;" glyph-name="uni0444" horiz-adv-x="748" d="M338 -196V-3Q214 -1 156 19T75 86T52 232Q52 331 75 378T157 446T338 469V665H410V469Q533 467 591 447T672 380T696 233Q696 132 672 85T589 19T410 -3V-196H338ZM410 58Q507 60 548 72T606
115T623 232Q623 314 608 346T552 392T410 408V58ZM338 408Q239 406 198 393T141 348T125 233Q125 151 140 119T196 73T338 58V408Z" />
<glyph unicode="&#x445;" glyph-name="uni0445" horiz-adv-x="479" d="M377 0L245 215H228L96 0H14L170 244L29 465H117L232 275H249L364 465H446L307 246L465 0H377Z" />
<glyph unicode="&#x446;" glyph-name="uni0446" horiz-adv-x="552" d="M473 -149L468 0H75V465H147V60H393V465H465V60H540L535 -149H473Z" />
<glyph unicode="&#x447;" glyph-name="uni0447" horiz-adv-x="522" d="M375 0V181Q297 162 235 162Q183 162 146 173T88 205Q74 219 66 238T55 287T51 366V465H123V379Q123 330 125 307T131 272T144 251Q171 224 248 224Q306 224 375 243V465H447V0H375Z" />
<glyph unicode="&#x448;" glyph-name="uni0448" horiz-adv-x="794" d="M75 0V465H147V60H361V465H433V60H647V465H719V0H75Z" />
<glyph unicode="&#x449;" glyph-name="uni0449" horiz-adv-x="806" d="M727 -149L722 0H75V465H147V60H361V465H433V60H647V465H719V60H794L789 -149H727Z" />
<glyph unicode="&#x44a;" glyph-name="uni044A" horiz-adv-x="581" d="M140 405H15V465H212V286Q237 294 274 299T345 304Q418 304 459 289T521 240T541 151Q541 91 520 57T453 9T322 -6Q280 -6 236 -1T140 17V405ZM212 63Q277 54 325 54Q390 54 417 62T455 90T467
149Q467 187 455 207T415 235T333 244Q264 244 212 237V63Z" />
<glyph unicode="&#x44b;" glyph-name="uni044B" horiz-adv-x="702" d="M75 465H147V286Q171 294 207 299T277 304Q348 304 389 289T449 240T469 151Q469 91 448 57T383 9T255 -6Q214 -6 171 -1T75 17V465ZM147 63Q210 54 257 54Q319 54 345 62T383 90T395 149Q395
187 383 207T345 235T265 244Q197 244 147 237V63ZM555 0V465H627V0H555Z" />
<glyph unicode="&#x44c;" glyph-name="uni044C" horiz-adv-x="522" d="M75 465H147V286Q175 294 211 299T283 304Q356 304 398 289T461 241T482 151Q482 91 461 57T393 9T260 -6Q217 -6 172 -1T75 17V465ZM147 63Q214 54 263 54Q328 54 355 61T395 89T408 149Q408
187 396 207T355 235T271 244Q200 244 147 237V63Z" />
<glyph unicode="&#x44d;" glyph-name="uni044D" horiz-adv-x="513" d="M184 209V267H383Q382 330 371 358T333 397T248 409Q206 409 182 405T148 391T134 360L132 344H58Q55 393 73 419T135 458T249 471Q336 471 379 451T439 382T457 233Q457 133 440 85T379 15T247
-6Q174 -6 130 7T68 48T54 121H127L129 108Q132 86 143 76T179 61T250 56Q308 56 334 68T371 108T383 209H184Z" />
<glyph unicode="&#x44e;" glyph-name="uni044E" horiz-adv-x="744" d="M75 0V465H147V267H286Q290 355 308 395T368 453T487 471Q571 471 612 451T671 383T688 233Q688 130 671 82T611 14T487 -6Q409 -6 368 11T308 71T286 209H147V0H75ZM487 56Q544 56 569 68T604
112T614 232Q614 317 605 350T572 396T487 409Q428 409 403 396T369 351T360 233Q360 145 370 113T405 68T487 56Z" />
<glyph unicode="&#x44f;" glyph-name="uni044F" horiz-adv-x="536" d="M389 0V188H297L121 0H30L213 190Q159 195 126 211T78 255T62 326Q62 381 84 411T155 456T288 471Q327 471 371 467T461 454V0H389ZM389 404Q362 407 333 409T281 411Q224 411 194 403T150
377T136 328Q136 283 163 266T263 248H389V404Z" />
<glyph unicode="&#x450;" glyph-name="uni0450" horiz-adv-x="526" d="M463 116Q468 74 450 48T389 8T273 -6Q181 -6 137 14T75 81T56 226Q56 326 75 377T140 449T269 471Q344 471 388 452T452 391T471 259Q471 241 469 218H130Q130 140 141 110T181 67T275 54Q317
54 340 58T375 71T389 103L391 116H463ZM398 274Q398 332 387 359T347 398T267 411Q216 411 188 400T147 364T130 274H398ZM286 526L174 629L219 671L321 557L286 526Z" />
<glyph unicode="&#x451;" glyph-name="uni0451" horiz-adv-x="526" d="M463 116Q468 74 450 48T389 8T273 -6Q181 -6 137 14T75 81T56 226Q56 326 75 377T140 449T269 471Q344 471 388 452T452 391T471 259Q471 241 469 218H130Q130 140 141 110T181 67T275 54Q317
54 340 58T375 71T389 103L391 116H463ZM398 274Q398 332 387 359T347 398T267 411Q216 411 188 400T147 364T130 274H398ZM320 556V642H392V556H320ZM143 556V642H215V556H143Z" />
<glyph unicode="&#x452;" glyph-name="uni0452" horiz-adv-x="550" d="M309 -136H339Q372 -136 383 -133T399 -119T404 -74V254Q404 303 402 326T396 361T383 382Q369 396 344 402T284 409Q211 409 147 386V0H75V538H9V598H75V665H147V598H288L272 538H147V429Q182
451 219 461T301 471Q349 471 383 460T439 428Q453 414 461 395T472 346T476 267V-77Q476 -129 465 -153T430 -188T364 -198Q341 -198 309 -195V-136Z" />
<glyph unicode="&#x453;" glyph-name="uni0453" horiz-adv-x="389" d="M75 0V465H371L355 405H147V0H75ZM212 526L177 557L279 671L324 629L212 526Z" />
<glyph unicode="&#x454;" glyph-name="uni0454" horiz-adv-x="510" d="M386 121H459Q462 76 444 49T381 8T264 -6Q177 -6 134 14T74 83T56 232Q56 332 73 380T134 450T266 471Q337 471 380 458T440 419T455 344H381L379 360Q377 382 365 391T329 405T263 409Q205
409 179 398T142 358T130 267H343L327 209H130Q131 139 141 110T178 68T265 56Q308 56 333 60T369 75T384 107L386 121Z" />
<glyph unicode="&#x455;" glyph-name="uni0455" horiz-adv-x="514" d="M370 358L368 373Q366 394 341 402T255 411Q202 411 176 404T140 382T129 334Q129 302 144 289T198 273L329 264Q380 260 407 247T448 207T462 138Q462 83 442 53T377 9T252 -6Q176 -6 132
4T70 35T55 116H130L132 101Q135 80 146 71T182 58T254 54Q312 54 339 61T378 84T389 136Q389 171 374 185T320 201L189 210Q138 214 111 227T70 266T56 332Q56 384 75 413T139 457T257 471Q326 471 368 462T428 433T445 358H370Z" />
<glyph unicode="&#x456;" glyph-name="uni0456" horiz-adv-x="222" d="M75 556V642H147V556H75ZM75 0V465H147V0H75Z" />
<glyph unicode="&#x457;" glyph-name="uni0457" horiz-adv-x="222" d="M75 0V465H147V0H75ZM403 556V642H475V556H403ZM259 556V642H331V556H259Z" />
<glyph unicode="&#x458;" glyph-name="uni0458" horiz-adv-x="222" d="M75 556V642H147V556H75ZM-20 -136H10Q43 -136 54 -133T70 -119T75 -74V465H147V-77Q147 -129 136 -153T101 -188T35 -198Q11 -198 -20 -195V-136Z" />
<glyph unicode="&#x459;" glyph-name="uni0459" horiz-adv-x="802" d="M368 405H200L198 383Q187 261 175 187T147 71T109 12T48 -6Q40 -6 31 -5T14 -2V61H36Q63 61 78 91T105 192T128 387L135 465H440V286Q464 294 500 299T570 304Q643 304 683 288T743 239T762
151Q762 91 741 57T676 9T548 -6Q507 -6 464 -1T368 17V405ZM440 63Q503 54 550 54Q612 54 638 62T676 90T688 149Q688 185 677 205T640 235T558 244Q490 244 440 237V63Z" />
<glyph unicode="&#x45a;" glyph-name="uni045A" horiz-adv-x="827" d="M393 207H147V0H75V465H147V269H393V465H465V286Q489 294 525 299T595 304Q668 304 708 288T768 239T787 151Q787 91 766 57T701 9T573 -6Q532 -6 489 -1T393 17V207ZM465 63Q528 54 575 54Q637
54 663 62T701 90T713 149Q713 185 702 205T665 235T583 244Q515 244 465 237V63Z" />
<glyph unicode="&#x45b;" glyph-name="uni045B" horiz-adv-x="550" d="M404 0V254Q404 303 402 326T396 361T383 382Q369 396 344 402T284 409Q211 409 147 386V0H75V538H9V598H75V665H147V598H288L272 538H147V429Q182 451 219 461T301 471Q349 471 383 460T439
428Q453 414 461 395T472 346T476 267V0H404Z" />
<glyph unicode="&#x45c;" glyph-name="uni045C" horiz-adv-x="486" d="M387 0L203 213H147V0H75V465H147V270H203L375 465H461L263 249L483 0H387ZM249 526L214 557L316 671L361 629L249 526Z" />
<glyph unicode="&#x45d;" glyph-name="uni045D" horiz-adv-x="583" d="M436 0V410H424L201 0H75V465H147V55H159L380 465H508V0H436ZM300 526L188 629L233 671L335 557L300 526Z" />
<glyph unicode="&#x45e;" glyph-name="uni045E" horiz-adv-x="474" d="M102 -137H133Q163 -137 177 -131T201 -109T225 -52L243 0H174L17 465H93L229 53H259L383 465H457L292 -52Q270 -115 252 -145T212 -187T149 -199Q127 -199 102 -196V-137ZM379 665Q381 620
369 594T328 555T239 543Q180 543 151 555T109 593T99 665H165Q165 638 171 623T193 601T239 594Q269 594 284 601T306 623T313 665H379Z" />
<glyph unicode="&#x45f;" glyph-name="uni045F" horiz-adv-x="540" d="M306 0L301 -149H239L234 0H75V465H147V60H393V465H465V0H306Z" />
<glyph unicode="&#x472;" glyph-name="uni0472" horiz-adv-x="675" d="M337 -7Q218 -7 161 20T82 113T60 332Q60 483 83 550T163 645T338 672Q454 672 511 646T592 554T615 332Q615 181 592 114T512 20T337 -7ZM139 308Q140 190 155 144T209 80T338 61Q424 61
463 78T519 141T536 308H139ZM536 373Q534 484 518 527T462 588T337 605Q253 605 213 588T157 527T139 373H536Z" />
<glyph unicode="&#x473;" glyph-name="uni0473" horiz-adv-x="534" d="M267 -6Q181 -6 137 13T75 80T56 232Q56 333 74 381T136 450T267 471Q356 471 399 451T460 382T478 233Q478 132 460 84T398 15T267 -6ZM130 209Q131 137 142 108T181 67T267 56Q329 56 355
68T392 109T404 209H130ZM403 267Q401 330 391 358T354 397T267 409Q206 409 180 398T143 358T130 267H403Z" />
<glyph unicode="&#x490;" glyph-name="uni0490" horiz-adv-x="514" d="M80 0V665H420L425 825H492L497 598H157V0H80Z" />
<glyph unicode="&#x491;" glyph-name="uni0491" horiz-adv-x="389" d="M75 0V465H292L297 614H359L364 405H147V0H75Z" />
<glyph unicode="&#x492;" glyph-name="uni0492" horiz-adv-x="524" d="M90 0V302H32V367H90V665H519L493 598H167V367H332L307 302H167V0H90Z" />
<glyph unicode="&#x493;" glyph-name="uni0493" horiz-adv-x="399" d="M85 0V206H26V264H85V465H381L365 405H157V264H260L244 206H157V0H85Z" />
<glyph unicode="&#x496;" glyph-name="uni0496" horiz-adv-x="981" d="M907 -160L902 0H832L595 308H514V0H437V308H356L119 0H19L291 347L49 665H142L356 373H437V665H514V373H595L809 665H902L660 347L880 66H979L974 -160H907Z" />
<glyph unicode="&#x497;" glyph-name="uni0497" horiz-adv-x="721" d="M648 -149L643 0H595L434 213H381V0H309V213H256L95 0H4L197 248L25 465H105L256 270H309V465H381V270H434L585 465H666L493 248L639 60H715L710 -149H648Z" />
<glyph unicode="&#x498;" glyph-name="uni0498" horiz-adv-x="644" d="M285 -160L280 -7Q199 -6 153 5T84 41T61 105Q61 124 63 156H142L144 120Q145 96 159 84T203 67T311 61Q401 61 436 72T488 108T505 178Q505 226 493 254T452 295T374 308H225V373H345Q399
373 428 384T471 422T485 493Q485 538 471 561T424 594T310 604Q237 604 206 600T162 584T146 547L144 516H68Q65 546 65 565Q65 602 91 626T168 661T313 672Q416 672 467 655T541 600T564 499Q564 443 539 407T465 352V343Q523 331 553 291T584 185Q584 120 561
79T490 18T357 -6L352 -160H285Z" />
<glyph unicode="&#x499;" glyph-name="uni0499" horiz-adv-x="515" d="M229 -149L224 -6Q159 -4 121 10T68 51T56 121H129L131 108Q134 86 145 76T180 61T248 56Q316 56 343 62T383 85T395 136Q395 166 386 181T356 203T275 209H215V267H278Q318 267 339 274T371
296T381 338Q381 365 370 380T333 402T248 409Q207 409 183 405T147 391T132 360L130 344H56Q53 394 71 420T134 458T249 471Q329 471 371 458T434 417T455 341Q455 304 439 280T391 247V240Q431 231 450 206T469 136Q469 88 451 58T397 13T296 -5L291 -149H229Z"
/>
<glyph unicode="&#x49a;" glyph-name="uni049A" horiz-adv-x="690" d="M616 -160L611 0H544L245 308H157V0H80V665H157V373H245L517 665H618L314 347L589 66H688L683 -160H616Z" />
<glyph unicode="&#x49b;" glyph-name="uni049B" horiz-adv-x="512" d="M439 -149L434 0H387L203 213H147V0H75V465H147V270H203L375 465H461L263 249L430 60H506L501 -149H439Z" />
<glyph unicode="&#x49c;" glyph-name="uni049C" horiz-adv-x="761" d="M644 0L345 308H300V160H231V308H157V0H80V665H157V373H231V505H300V373H345L617 665H718L414 347L754 0H644Z" />
<glyph unicode="&#x49d;" glyph-name="uni049D" horiz-adv-x="586" d="M487 0L303 213H266V113H206V213H147V0H75V465H147V270H206V360H266V270H303L475 465H561L363 249L583 0H487Z" />
<glyph unicode="&#x4a0;" glyph-name="uni04A0" horiz-adv-x="781" d="M664 0L365 308H277V0H200V599H26V665H277V373H365L637 665H738L434 347L774 0H664Z" />
<glyph unicode="&#x4a1;" glyph-name="uni04A1" horiz-adv-x="551" d="M452 0L268 213H212V0H140V405H15V465H212V270H268L440 465H526L328 249L548 0H452Z" />
<glyph unicode="&#x4a2;" glyph-name="uni04A2" horiz-adv-x="742" d="M660 -160L655 0H556V307H157V0H80V665H157V374H556V665H633V67H732L727 -160H660Z" />
<glyph unicode="&#x4a3;" glyph-name="uni04A3" horiz-adv-x="562" d="M483 -149L478 0H403V207H147V0H75V465H147V269H403V465H475V60H550L545 -149H483Z" />
<glyph unicode="&#x4aa;" glyph-name="uni04AA" horiz-adv-x="643" d="M312 -160L307 -7Q200 -4 150 25T80 122T60 332Q60 478 82 546T161 643T337 672Q466 672 523 647T580 563Q580 554 579 539T576 510H502L499 542Q496 573 481 584T431 600T335 605Q244 605
206 585T154 514T139 335Q139 202 153 152T206 81T339 61Q391 61 421 64T468 74T492 92T500 122L503 169H580Q583 141 583 104Q583 69 563 46T498 10T384 -6L379 -160H312Z" />
<glyph unicode="&#x4ab;" glyph-name="uni04AB" horiz-adv-x="508" d="M235 -149L230 -5Q159 -1 123 20T72 89T56 232Q56 332 73 380T134 450T266 471Q338 471 381 458T441 418T455 339H381L379 360Q377 382 365 391T329 405T263 409Q201 409 175 396T140 350T130
232Q130 145 140 113T177 68T265 56Q310 56 335 61T370 76T384 111L386 129H459Q463 84 449 57T399 14T302 -5L297 -149H235Z" />
<glyph unicode="&#x4ae;" glyph-name="uni04AE" horiz-adv-x="619" d="M271 0V241H244L11 665H99L299 296H329L529 665H608L375 241H348V0H271Z" />
<glyph unicode="&#x4af;" glyph-name="uni04AF" horiz-adv-x="478" d="M203 -196V0H173L17 465H93L228 53H257L387 465H461L305 0H275V-196H203Z" />
<glyph unicode="&#x4b0;" glyph-name="uni04B0" horiz-adv-x="619" d="M271 0V235H98V296H214L11 665H99L299 296H329L529 665H608L405 296H534L508 235H348V0H271Z" />
<glyph unicode="&#x4b1;" glyph-name="uni04B1" horiz-adv-x="478" d="M203 -196V0H54V57H155L17 465H93L228 57H257L387 465H461L323 57H430L414 0H275V-196H203Z" />
<glyph unicode="&#x4b2;" glyph-name="uni04B2" horiz-adv-x="661" d="M587 -160L582 0H511L316 311H299L104 0H18L238 344L33 665H124L302 380H319L497 665H583L380 347L560 66H659L654 -160H587Z" />
<glyph unicode="&#x4b3;" glyph-name="uni04B3" horiz-adv-x="508" d="M435 -149L430 0H377L245 215H228L96 0H14L170 244L29 465H117L232 275H249L364 465H446L307 246L426 60H502L497 -149H435Z" />
<glyph unicode="&#x4b8;" glyph-name="uni04B8" horiz-adv-x="688" d="M531 0V241Q451 227 372 225V90H303V225Q215 228 161 251T83 321T58 447V665H135V455Q135 386 150 356T202 311T303 293V435H372V292Q454 294 531 307V665H608V0H531Z" />
<glyph unicode="&#x4b9;" glyph-name="uni04B9" horiz-adv-x="537" d="M390 0V181Q329 167 286 163V71H226V162Q177 163 143 174T88 205Q74 219 66 238T55 287T51 366V465H123V379Q123 332 124 310T130 274T144 251Q156 239 176 232T226 224V318H286V224Q336 228
390 243V465H462V0H390Z" />
<glyph unicode="&#x4ba;" glyph-name="uni04BA" horiz-adv-x="668" d="M533 0V210Q533 283 515 314T453 359T331 373Q242 373 157 358V0H80V665H157V424Q252 440 336 440Q435 440 495 418T582 348T610 218V0H533Z" />
<glyph unicode="&#x4bb;" glyph-name="uni04BB" horiz-adv-x="550" d="M404 0V254Q404 301 403 323T397 359T383 382Q369 396 344 402T284 409Q249 409 213 403T147 386V0H75V665H147V429Q182 451 219 461T301 471Q349 471 383 460T439 428Q453 414 461 394T472
345T476 267V0H404Z" />
<glyph unicode="&#x4d8;" glyph-name="uni04D8" horiz-adv-x="675" d="M60 347H536Q534 477 518 522T460 586T324 605Q252 605 217 598T167 573T147 514L145 499H78Q71 564 93 600T171 654T327 672Q453 672 511 644T592 548T615 332Q615 184 593 117T514 21T337
-7Q218 -7 161 20T82 113T60 332V347ZM139 282Q141 181 156 139T211 79T338 61Q422 61 461 77T517 134T536 282H139Z" />
<glyph unicode="&#x4d9;" glyph-name="uni04D9" horiz-adv-x="526" d="M396 247Q396 327 384 357T342 399T251 411Q209 411 186 407T151 394T137 362L135 349H63Q58 391 76 417T137 457T253 471Q343 471 387 452T451 385T470 239Q470 139 451 88T386 16T257 -6Q182
-6 138 13T74 74T55 206Q55 231 57 247H396ZM128 191Q128 133 139 106T179 67T259 54Q310 54 338 65T379 101T396 191H128Z" />
<glyph unicode="&#x4e8;" glyph-name="uni04E8" horiz-adv-x="675" d="M337 -7Q218 -7 161 20T82 113T60 332Q60 483 83 550T163 645T338 672Q454 672 511 646T592 554T615 332Q615 181 592 114T512 20T337 -7ZM139 308Q140 190 155 144T209 80T338 61Q424 61
463 78T519 141T536 308H139ZM536 373Q534 484 518 527T462 588T337 605Q253 605 213 588T157 527T139 373H536Z" />
<glyph unicode="&#x4e9;" glyph-name="uni04E9" horiz-adv-x="534" d="M267 -6Q181 -6 137 13T75 80T56 232Q56 333 74 381T136 450T267 471Q356 471 399 451T460 382T478 233Q478 132 460 84T398 15T267 -6ZM130 209Q131 137 142 108T181 67T267 56Q329 56 355
68T392 109T404 209H130ZM403 267Q401 330 391 358T354 397T267 409Q206 409 180 398T143 358T130 267H403Z" />
<glyph unicode="&#x1e02;" glyph-name="uni1E02" horiz-adv-x="664" d="M365 373Q421 373 450 385T492 423T505 493Q505 534 493 557T456 589T375 599H157V373H365ZM80 665H394Q462 665 503 648T564 595T584 499Q584 443 559 407T485 352V343Q543 331 573 291T604
185Q604 124 583 83T519 21T409 0H80V665ZM383 67Q443 67 470 77T511 111T525 178Q525 228 512 255T470 295T394 308H157V67H383ZM283 738V824H360V738H283Z" />
<glyph unicode="&#x1e03;" glyph-name="uni1E03" horiz-adv-x="540" d="M75 665H147V416Q167 444 201 457T288 471Q359 471 403 447T467 375T487 234Q487 135 465 88T393 17T262 -6Q222 -6 169 1T75 19V665ZM147 64Q174 60 203 58T262 56Q320 56 353 71T399 120T413
232Q413 308 401 342T359 393T278 409Q229 409 200 400T159 371T147 304V64ZM255 556V642H327V556H255Z" />
<glyph unicode="&#x1e0a;" glyph-name="uni1E0A" horiz-adv-x="705" d="M80 0V665H372Q469 665 530 632T619 531T648 333Q648 200 619 133T529 33T375 0H80ZM372 67Q443 67 486 92T549 170T569 331Q569 443 550 495T486 573T367 599H157V67H372ZM293 738V824H370V738H293Z"
/>
<glyph unicode="&#x1e0b;" glyph-name="uni1E0B" horiz-adv-x="540" d="M404 0L395 50Q375 22 340 8T252 -6Q181 -6 137 18T73 90T53 231Q53 329 74 376T143 446T264 470Q300 470 333 464T393 447V665H465V0H404ZM393 397Q364 403 335 406T278 409Q220 409 187
394T141 345T127 233Q127 157 139 123T181 72T262 56Q311 56 340 65T381 94T393 161V397ZM226 556V642H298V556H226Z" />
<glyph unicode="&#x1e1e;" glyph-name="uni1E1E" horiz-adv-x="521" d="M80 0V665H498V599H157V367H472L447 302H157V0H80ZM252 738V824H329V738H252Z" />
<glyph unicode="&#x1e1f;" glyph-name="uni1E1F" horiz-adv-x="285" d="M87 0V405H15V465H87V510Q87 574 101 608T147 656T244 671Q264 671 297 668V607Q261 609 244 609Q204 609 188 601T165 573T159 504V465H282L265 405H159V0H87ZM183 738V824H260V738H183Z" />
<glyph unicode="&#x1e40;" glyph-name="uni1E40" horiz-adv-x="920" d="M763 0V609H746L497 0H423L174 609H157V0H80V665H230L463 95L696 665H840V0H763ZM422 738V824H499V738H422Z" />
<glyph unicode="&#x1e41;" glyph-name="uni1E41" horiz-adv-x="858" d="M713 0V254Q713 304 711 327T705 362T692 383Q679 396 655 402T598 409Q560 409 523 402T456 381Q461 363 463 335T466 267V0H394V254Q394 304 392 327T386 362T373 383Q360 396 336 402T279
409Q245 409 210 403T147 386V0H75V465H138L143 431H150Q182 451 217 461T296 471Q347 471 383 458T439 418H443Q493 448 531 459T615 471Q660 471 693 461T747 430Q768 409 776 374T785 267V0H713ZM393 556V642H465V556H393Z" />
<glyph unicode="&#x1e56;" glyph-name="uni1E56" horiz-adv-x="633" d="M80 0V665H332Q444 665 494 644T569 576T593 452Q593 375 568 328T491 259T332 237H157V0H80ZM332 303Q415 303 449 316T498 361T514 451Q514 509 499 541T449 586T332 599H157V303H332ZM278
738V824H355V738H278Z" />
<glyph unicode="&#x1e57;" glyph-name="uni1E57" horiz-adv-x="540" d="M75 -196V465H136L145 415Q165 443 200 457T288 471Q359 471 403 447T467 375T487 234Q487 136 466 89T397 19T276 -5Q240 -5 207 1T147 18V-196H75ZM147 68Q176 62 205 59T262 56Q320 56
353 71T399 120T413 232Q413 308 401 342T359 393T278 409Q229 409 200 400T159 371T147 304V68ZM246 556V642H318V556H246Z" />
<glyph unicode="&#x1e60;" glyph-name="uni1E60" horiz-adv-x="628" d="M238 308Q172 313 135 331T79 385T61 476Q61 548 86 590T166 652T313 672Q394 672 445 660T522 623T547 557Q547 544 545 522H468L465 550Q463 572 447 584T398 601T312 606Q240 606 204
595T154 557T140 477Q140 427 164 405T248 378L393 367Q460 362 497 344T552 289T570 194Q570 118 545 76T462 13T309 -7Q217 -7 163 4T85 40T60 105Q60 123 62 155H140L143 126Q146 95 159 83T207 66T310 60Q384 60 422 71T475 110T491 192Q491 247 468 269T383
297L238 308ZM276 738V824H353V738H276Z" />
<glyph unicode="&#x1e61;" glyph-name="uni1E61" horiz-adv-x="514" d="M370 358L368 373Q366 394 341 402T255 411Q202 411 176 404T140 382T129 334Q129 302 144 289T198 273L329 264Q380 260 407 247T448 207T462 138Q462 83 442 53T377 9T252 -6Q176 -6 132
4T70 35T55 116H130L132 101Q135 80 146 71T182 58T254 54Q312 54 339 61T378 84T389 136Q389 171 374 185T320 201L189 210Q138 214 111 227T70 266T56 332Q56 384 75 413T139 457T257 471Q326 471 368 462T428 433T445 358H370ZM220 556V642H292V556H220Z" />
<glyph unicode="&#x1e6a;" glyph-name="uni1E6A" horiz-adv-x="573" d="M247 0V599H26V665H553L527 599H324V0H247ZM248 738V824H325V738H248Z" />
<glyph unicode="&#x1e6b;" glyph-name="uni1E6B" horiz-adv-x="331" d="M292 0Q250 -6 222 -6Q167 -6 138 6T96 45T84 142V405H15V465H84V578H156V465H299L283 405H156V149Q156 101 161 85T179 62T225 56Q257 56 292 61V0ZM84 666V752H156V666H84Z" />
<glyph unicode="&#x1e80;" glyph-name="Wgrave" horiz-adv-x="1078" d="M716 0L538 603L356 0H219L31 665H113L281 58H300L484 665H595L776 58H793L968 665H1048L851 0H716ZM430 789L457 844L605 768L583 726L430 789Z" />
<glyph unicode="&#x1e81;" glyph-name="wgrave" horiz-adv-x="742" d="M474 0L371 421L268 0H148L25 465H101L204 53H219L321 465H428L530 53H545L645 465H717L592 0H474ZM388 526L276 629L321 671L423 557L388 526Z" />
<glyph unicode="&#x1e82;" glyph-name="Wacute" horiz-adv-x="1078" d="M716 0L538 603L356 0H219L31 665H113L281 58H300L484 665H595L776 58H793L968 665H1048L851 0H716ZM494 726L472 768L620 844L647 789L494 726Z" />
<glyph unicode="&#x1e83;" glyph-name="wacute" horiz-adv-x="742" d="M474 0L371 421L268 0H148L25 465H101L204 53H219L321 465H428L530 53H545L645 465H717L592 0H474ZM355 526L320 557L422 671L467 629L355 526Z" />
<glyph unicode="&#x1e84;" glyph-name="Wdieresis" horiz-adv-x="1078" d="M716 0L538 603L356 0H219L31 665H113L281 58H300L484 665H595L776 58H793L968 665H1048L851 0H716ZM592 738V824H664V738H592ZM415 738V824H487V738H415Z" />
<glyph unicode="&#x1e85;" glyph-name="wdieresis" horiz-adv-x="742" d="M474 0L371 421L268 0H148L25 465H101L204 53H219L321 465H428L530 53H545L645 465H717L592 0H474ZM423 556V642H495V556H423ZM246 556V642H318V556H246Z" />
<glyph unicode="&#x1ef2;" glyph-name="Ygrave" horiz-adv-x="608" d="M153 0L291 241H238L11 665H99L293 296H323L529 665H608L233 0H153ZM175 789L202 844L350 768L328 726L175 789Z" />
<glyph unicode="&#x1ef3;" glyph-name="ygrave" horiz-adv-x="474" d="M102 -137H133Q163 -137 177 -131T201 -109T225 -52L243 0H174L17 465H93L229 53H259L383 465H457L292 -52Q270 -115 252 -145T212 -187T149 -199Q127 -199 102 -196V-137ZM241 526L129 629L174
671L276 557L241 526Z" />
<glyph unicode="&#x2013;" glyph-name="endash" horiz-adv-x="450" d="M47 271V334H403V271H47Z" />
<glyph unicode="&#x2014;" glyph-name="emdash" horiz-adv-x="721" d="M47 271V334H674V271H47Z" />
<glyph unicode="&#x2015;" glyph-name="uni2015" horiz-adv-x="721" d="M47 271V334H674V271H47Z" />
<glyph unicode="&#x2018;" glyph-name="quoteleft" horiz-adv-x="231" d="M69 493V590L113 719H169L125 590H162V493H69Z" />
<glyph unicode="&#x2019;" glyph-name="quoteright" horiz-adv-x="231" d="M62 439L106 568H69V665H162V568L118 439H62Z" />
<glyph unicode="&#x201a;" glyph-name="quotesinglbase" horiz-adv-x="231" d="M62 -129L106 0H69V97H162V0L118 -129H62Z" />
<glyph unicode="&#x201c;" glyph-name="quotedblleft" horiz-adv-x="385" d="M69 493V590L113 719H169L125 590H162V493H69ZM223 493V590L267 719H323L279 590H316V493H223Z" />
<glyph unicode="&#x201d;" glyph-name="quotedblright" horiz-adv-x="385" d="M62 439L106 568H69V665H162V568L118 439H62ZM216 439L260 568H223V665H316V568L272 439H216Z" />
<glyph unicode="&#x201e;" glyph-name="quotedblbase" horiz-adv-x="385" d="M62 -129L106 0H69V97H162V0L118 -129H62ZM216 -129L260 0H223V97H316V0L272 -129H216Z" />
<glyph unicode="&#x2020;" glyph-name="dagger" horiz-adv-x="466" d="M197 -109V405H43V465H197V635H269V465H423V405H269V-109H197Z" />
<glyph unicode="&#x2021;" glyph-name="daggerdbl" horiz-adv-x="466" d="M197 -109V71H43V131H197V405H43V465H197V635H269V465H423V405H269V131H423V71H269V-109H197Z" />
<glyph unicode="&#x2022;" glyph-name="bullet" horiz-adv-x="314" d="M239 333Q239 297 216 274T157 251Q121 251 98 274T75 333Q75 369 98 392T157 415Q193 415 216 392T239 333Z" />
<glyph unicode="&#x2026;" glyph-name="ellipsis" horiz-adv-x="604" d="M69 0V93H154V0H69ZM259 0V93H344V0H259ZM450 0V93H535V0H450Z" />
<glyph unicode="&#x2030;" glyph-name="perthousand" horiz-adv-x="1233" d="M1025 -5Q963 -5 933 8T889 56T876 164Q876 236 888 270T931 318T1026 333Q1090 333 1120 319T1163 270T1175 164Q1175 91 1162 57T1118 9T1025 -5ZM661 -5Q597 -5 567 9T524 58T512
164Q512 236 524 270T567 318T662 333Q726 333 756 319T799 270T811 164Q811 91 798 57T754 9T661 -5ZM171 0L630 665H698L239 0H171ZM207 332Q143 332 113 346T70 395T58 501Q58 573 70 607T113 655T208 670Q272 670 302 656T345 607T357 501Q357 429 345 395T302
347T207 332ZM1026 48Q1066 48 1083 56T1106 85T1113 163Q1113 218 1107 240T1084 271T1025 280Q983 280 967 272T944 242T938 165Q938 107 944 86T968 56T1026 48ZM662 48Q702 48 719 56T742 85T749 163Q749 218 743 240T720 271T661 280Q619 280 603 272T580
242T574 165Q574 110 580 88T603 57T662 48ZM208 385Q250 385 266 393T289 423T295 500Q295 555 289 577T266 608T207 617Q165 617 149 609T126 579T120 502Q120 447 126 425T149 394T208 385Z" />
<glyph unicode="&#x2039;" glyph-name="guilsinglleft" horiz-adv-x="365" d="M232 48L80 260L232 472L285 438L170 260L285 82L232 48Z" />
<glyph unicode="&#x203a;" glyph-name="guilsinglright" horiz-adv-x="365" d="M80 82L195 260L80 438L133 472L285 260L133 48L80 82Z" />
<glyph unicode="&#x2044;" glyph-name="fraction" horiz-adv-x="550" d="M38 0L447 665H512L103 0H38Z" />
<glyph unicode="&#x20ac;" glyph-name="Euro" horiz-adv-x="651" d="M519 149H598Q600 127 600 104Q600 65 575 41T500 5T370 -7Q270 -7 219 13T144 83T112 229H27V292H109V377H27V440H112Q120 533 145 582T222 651T370 672Q489 672 543 646T597 563Q597 550 595
530H518L516 548Q512 577 499 587T455 601T368 605Q298 605 264 592T212 544T190 440H463L438 377H187V292H463L438 229H189Q194 157 211 123T263 75T372 61Q428 61 458 66T501 83T517 122L519 149Z" />
<glyph unicode="&#x20b4;" glyph-name="uni20B4" horiz-adv-x="651" d="M243 229Q219 207 210 186T201 132Q201 102 214 88T255 67T332 60Q384 60 412 64T453 77T469 108L472 129H550Q552 103 552 89Q552 55 530 34T460 3T329 -7Q254 -7 209 6T143 47T122 129Q122
166 128 187T150 229H57V292H216L329 377H57V440H410Q437 463 448 485T460 537Q460 568 448 581T410 600T338 606Q293 606 267 602T229 588T215 561L212 538H135Q133 558 133 567Q133 603 154 626T222 660T341 672Q411 672 454 660T518 620T539 542Q539 507 532
485T506 440H601L576 377H436L323 292H601L576 229H243Z" />
<glyph unicode="&#x20b8;" glyph-name="uni20B8" horiz-adv-x="651" d="M287 0V454H66V517H593L567 454H364V0H287ZM66 602V665H593L567 602H66Z" />
<glyph unicode="&#x20bd;" glyph-name="uni20BD" horiz-adv-x="651" d="M211 110V0H134V110H37V173H134V258H37V321H134V665H350Q461 665 511 645T586 580T611 462Q611 389 586 344T509 278T350 258H211V173H463L438 110H211ZM350 321Q434 321 467 333T516 375T532
460Q532 515 517 545T468 587T350 599H211V321H350Z" />
<glyph unicode="&#x2116;" glyph-name="uni2116" horiz-adv-x="1069" d="M492 0L174 605H157V0H80V665H224L542 60H554V665H631V0H492ZM872 391Q815 391 788 402T749 440T737 530Q737 590 748 618T786 658T872 670Q930 670 957 659T996 619T1007 531Q1007 469
995 441T955 402T872 391ZM872 438Q908 438 923 444T943 467T949 530Q949 575 944 592T923 616T872 623Q835 623 820 616T800 592T794 531Q794 485 800 468T821 445T872 438ZM737 288V335H1007V288H737Z" />
<glyph unicode="&#x2122;" glyph-name="trademark" horiz-adv-x="885" d="M748 327V616H732L614 327H555L437 616H421V327H359V665H480L587 403L694 665H810V327H748ZM133 327V613H26V665H308L287 613H195V327H133Z" />
<glyph unicode="&#x2126;" glyph-name="Omega" horiz-adv-x="715" d="M417 0V184Q483 184 516 200T562 255T576 370Q576 473 559 519T499 585T357 604Q260 604 217 585T156 520T139 369Q139 287 152 250T198 199T298 184V0H79V68H236V126Q170 132 132 157T77 231T60
369Q60 492 85 555T172 645T358 672Q481 672 542 646T629 559T655 370Q655 289 638 239T583 161T479 126V68H655L629 0H417Z" />
<glyph unicode="&#x2202;" glyph-name="partialdiff" horiz-adv-x="534" d="M231 665H309L453 443Q464 426 471 410T481 374T485 326Q485 292 479 235T456 122T413 41Q388 16 348 5T234 -6Q163 -6 123 7T66 52T48 139Q48 171 54 230T77 343T120 424Q145 449 185
460T299 471Q342 471 362 464L231 665ZM358 85Q374 101 386 144T405 242T412 324Q412 359 401 377T365 402T291 409Q244 409 217 402T175 380Q159 364 147 321T128 223T121 141Q121 106 132 88T168 63T242 56Q289 56 316 63T358 85Z" />
<glyph unicode="&#x2206;" glyph-name="Delta" horiz-adv-x="691" d="M42 0V64L272 665H434L658 64V0H42ZM376 603H323L121 64H572L376 603Z" />
<glyph unicode="&#x220f;" glyph-name="product" horiz-adv-x="713" d="M556 0V599H157V0H80V665H633V0H556Z" />
<glyph unicode="&#x2211;" glyph-name="summation" horiz-adv-x="585" d="M59 0V98L296 335L69 562V665H536L510 599H150V582L396 337L145 86V67H536V0H59Z" />
<glyph unicode="&#x2212;" glyph-name="minus" horiz-adv-x="651" d="M92 271V334H559V271H92Z" />
<glyph unicode="&#x2219;" glyph-name="periodcentered" horiz-adv-x="231" d="M69 284V381H162V284H69Z" />
<glyph unicode="&#x221a;" glyph-name="radical" horiz-adv-x="651" d="M262 0L136 405H30V465H199L324 58H348L563 665H644L402 0H262Z" />
<glyph unicode="&#x221e;" glyph-name="infinity" horiz-adv-x="841" d="M419 254L374 205Q341 169 316 151T265 126T203 118Q140 118 111 136T68 195T54 305Q54 375 68 416T111 474T203 492Q241 492 267 485T318 460T375 407L422 355L467 405Q500 441 525 459T576
484T638 492Q701 492 730 474T773 415T787 305Q787 236 774 195T731 136T638 118Q600 118 574 125T523 150T466 203L419 254ZM525 242Q555 209 579 195T635 181Q675 181 690 191T711 227T717 305Q717 357 711 382T690 418T635 429Q603 429 578 416T524 370L466
306L525 242ZM374 303L316 368Q286 402 262 415T206 429Q168 429 153 420T131 385T124 305Q124 253 130 228T151 192T206 181Q238 181 263 194T317 240L374 303Z" />
<glyph unicode="&#x222b;" glyph-name="integral'" horiz-adv-x="380" d="M9 -136Q45 -138 65 -138Q108 -138 126 -130T150 -102T157 -26V752Q157 810 171 841T218 886T319 900Q344 900 377 897V836Q341 838 321 838Q278 838 260 830T236 802T229 726V-52Q229
-110 215 -141T168 -186T67 -200Q42 -200 9 -197V-136Z" />
<glyph unicode="&#x2248;" glyph-name="approxequal" horiz-adv-x="651" d="M576 239Q543 196 510 178T432 159Q410 159 386 165T322 187Q279 205 259 210T222 215Q190 215 169 203T118 158L78 198Q111 241 144 259T222 278Q244 278 268 272T332 250Q375 232 395
227T432 222Q464 222 485 234T536 279L576 239ZM576 407Q543 364 510 346T432 327Q410 327 386 333T322 355Q279 373 259 378T222 383Q190 383 169 371T118 326L78 366Q111 409 144 427T222 446Q244 446 268 440T332 418Q375 400 395 395T432 390Q464 390 485 402T536
447L576 407Z" />
<glyph unicode="&#x2260;" glyph-name="notequal" horiz-adv-x="651" d="M310 187L260 72H191L241 187H92V250H268L314 355H92V418H341L391 532H460L410 418H559V355H383L337 250H559V187H310Z" />
<glyph unicode="&#x2264;" glyph-name="lessequal" horiz-adv-x="651" d="M116 0V63H535V0H116ZM116 329V409L535 599V526L188 378V360L535 212V139L116 329Z" />
<glyph unicode="&#x2265;" glyph-name="greaterequal" horiz-adv-x="651" d="M116 139V212L463 360V378L116 526V599L535 409V329L116 139ZM116 0V63H535V0H116Z" />
<glyph unicode="&#x25ca;" glyph-name="lozenge" horiz-adv-x="621" d="M246 0L65 329L250 665H376L556 336L372 0H246ZM476 332L326 610H296L145 332L296 55H326L476 332Z" />
<glyph unicode="&#xf8ff;" glyph-name="" horiz-adv-x="1040" d="M80 380V665H365V380H80ZM80 0V285H365V0H80ZM460 380V665H960V380H460ZM460 0V285H960V0H460Z" />
<glyph unicode="&#xfb01;" glyph-name="fi" horiz-adv-x="507" d="M360 0V405H159V0H87V405H15V465H87V510Q87 573 100 607T144 656T237 671Q261 671 291 668V607Q259 609 241 609Q203 609 187 601T165 573T159 504V465H432V0H360ZM360 556V642H432V556H360Z" />
<glyph unicode="&#xfb02;" glyph-name="fl" horiz-adv-x="507" d="M87 0V405H15V465H87V510Q87 574 101 608T147 656T244 671Q264 671 297 668V607Q261 609 244 609Q204 609 188 601T165 573T159 504V465H282L265 405H159V0H87ZM360 0V665H432V0H360Z" />
</font>
</defs>
</svg>
