<?xml version="1.0" standalone="no"?>
<!DOCTYPE svg PUBLIC "-//W3C//DTD SVG 1.1//EN" "http://www.w3.org/Graphics/SVG/1.1/DTD/svg11.dtd" >
<svg xmlns="http://www.w3.org/2000/svg">
<metadata>
This is a custom SVG webfont generated by Font Squirrel.
Copyright   : Copyright c DesignKontrapunkt AS 2000 All rights reserved
Designer    : Kontrapunkt AS
</metadata>
<defs>
<font id="DanskeHeadlineRegular" horiz-adv-x="1380" >
<font-face units-per-em="2048" ascent="1638" descent="-410" />
<missing-glyph horiz-adv-x="369" />
<glyph unicode=" "  horiz-adv-x="369" />
<glyph unicode="&#x09;" horiz-adv-x="369" />
<glyph unicode="&#xa0;" horiz-adv-x="369" />
<glyph unicode="!" horiz-adv-x="498" d="M154 1362h190l-22 -987h-150zM158 0v186h180v-186h-180z" />
<glyph unicode="&#x22;" horiz-adv-x="586" d="M68 1362h137l-19 -545h-100zM383 1362h135l-18 -545h-99z" />
<glyph unicode="#" d="M160 428l16 109h232l45 292h-232l19 109h231l68 424h116l-67 -424h291l67 424h117l-68 -424h230l-17 -109h-229l-47 -292h231l-16 -109h-232l-69 -428h-117l70 428h-291l-70 -428h-112l65 428h-231zM524 537h289l47 292h-289z" />
<glyph unicode="$" d="M133 977q0 231 123 317q104 74 367 78v117h114v-117q256 -2 365 -57q102 -51 102 -166q0 -49 -8 -135h-164l-12 123q-4 47 -20.5 64.5t-63.5 27.5q-64 12 -199 16v-475q123 -8 148 -10q182 -19 252 -70q116 -84 116 -303q0 -225 -137 -315q-115 -72 -379 -78v-146h-114 v146q-263 2 -371.5 53t-108.5 168q0 49 9 135h165l9 -95q7 -62 23 -81.5t63 -30.5q84 -16 211 -18v508q-256 16 -344 59q-146 74 -146 285zM307 981q2 -119 84 -164q53 -29 232 -39v465q-201 -10 -260.5 -62.5t-55.5 -199.5zM737 129q199 12 270.5 68.5t71.5 199.5 q0 146 -88 191q-55 24 -254 37v-496z" />
<glyph unicode="%" horiz-adv-x="1901" d="M88 1026q0 213 63.5 279.5t272.5 66.5q215 0 278 -74q54 -61 54 -272t-58 -274q-63 -72 -274 -72t-277 72q-59 65 -59 274zM213 1026q0 -158 36 -202t175 -44t174 44t35 202q0 160 -33 204t-176 44q-135 0 -173 -43t-38 -205zM371 0l1028 1362h143l-1034 -1362h-137z M1143 338q0 213 63.5 279.5t272.5 66.5q215 0 278 -74q53 -61 53 -272t-57 -275q-63 -69 -274 -69t-277 69q-59 66 -59 275zM1268 338q0 -158 35.5 -202t175.5 -44q139 0 174 44t35 202q0 160 -33 204t-176 44q-136 0 -173.5 -43t-37.5 -205z" />
<glyph unicode="&#x26;" horiz-adv-x="1612" d="M92 387q0 197 61.5 274.5t235.5 100.5l31 4l-19 14q-48 34 -71 57t-41 54q-31 51 -31 160q0 182 91 256.5t315 74.5q237 0 330 -72.5t93 -256.5q0 -174 -75.5 -248t-286.5 -100l426 -334q14 65 14 188v41h154q2 -27 2 -57q0 -74 -6 -135q-8 -78 -27 -146l334 -262h-227 l-168 131q-58 -84 -175.5 -115.5t-361.5 -31.5q-299 0 -430 63q-168 84 -168 340zM266 393q0 -135 42 -187t155 -69q125 -18 254 -18q168 0 253 24.5t132 85.5l-574 451q-168 -25 -211 -70q-51 -53 -51 -217zM414 1057q0 -74 24 -111q19 -31 86 -84l90 -69q129 18 207 47 q66 24 90.5 66t24.5 130q0 133 -53.5 178.5t-210.5 45.5q-148 0 -203 -43t-55 -160z" />
<glyph unicode="'" horiz-adv-x="272" d="M68 1362h137l-19 -545h-100z" />
<glyph unicode="(" horiz-adv-x="561" d="M133 4v791q0 190 2 223q12 194 84 273t238 79q10 0 37 -2v-129q-101 0 -142 -31q-49 -39 -53 -157q-6 -195 -6 -330v-488q0 -133 6 -327q4 -113 43 -151t152 -40v-127h-37q-230 0 -291 170q-33 90 -33 246z" />
<glyph unicode=")" horiz-adv-x="561" d="M68 -285q49 2 73 6q45 7 70 25q49 37 53 160q6 196 6 327v488q0 174 -6 330q-4 112 -43 149t-153 39v129q16 2 36 2q123 0 190.5 -40t100.5 -131t33 -247v-790q0 -185 -2 -221q-10 -197 -83 -275t-239 -78h-36v127z" />
<glyph unicode="*" horiz-adv-x="862" d="M68 1071l34 100l279 -100v291h100v-291l279 100l35 -100l-281 -102l168 -240l-80 -59l-170 248l-182 -248l-80 59l174 240z" />
<glyph unicode="+" d="M219 616v129h402v406h139v-406h401v-129h-401v-407h-139v407h-402z" />
<glyph unicode="," horiz-adv-x="326" d="M55 -223l99 223h-84v190h190v-190l-98 -223h-107z" />
<glyph unicode="-" horiz-adv-x="559" d="M68 430v133h424v-133h-424z" />
<glyph unicode="." horiz-adv-x="326" d="M68 0v190h190v-190h-190z" />
<glyph unicode="/" horiz-adv-x="926" d="M-66 -406l789 1768h135l-790 -1768h-134z" />
<glyph unicode="0" d="M88 680q0 428 113.5 561t488.5 133q268 0 394 -61.5t169 -214.5q37 -127 37 -418q0 -422 -104 -551q-115 -141 -494 -141q-381 0 -497 141q-107 131 -107 551zM260 680q0 -354 72 -451q76 -102 360 -102q285 0 359 102q69 97 69 451q0 358 -63 448q-74 107 -367 107 q-278 0 -354 -97.5t-76 -457.5z" />
<glyph unicode="1" d="M281 1171v129l337 62h177v-1229h278v-133h-751v133h299v1092z" />
<glyph unicode="2" d="M115 1126q0 110 88 164q137 84 473 84q266 0 391 -57q176 -81 176 -361q0 -212 -113 -303q-60 -48 -140 -71q-83 -24 -261 -41l-163 -16q-99 -13 -158 -40q-74 -33 -89 -102q-8 -40 -8 -137v-113h930v-133h-1106v215q0 160 27 242q30 92 110 141q74 45 225 68l241 26 l121 14q69 10 116 33q96 47 96 234q0 161 -88 225q-67 49 -307 49q-289 0 -340 -51q-43 -43 -43 -190h-162q-16 108 -16 120z" />
<glyph unicode="3" d="M88 244q0 -9 14 71h166q3 -76 10 -99q16 -51 70 -64q113 -29 305 -29q233 0 314 41q108 55 108 242q0 159 -78 204q-66 39 -403 39h-23v160l486 375v45h-762v-187h-166v320h1092v-215l-465 -359v-22h125q212 0 297 -94q79 -89 79 -275q0 -263 -206 -356 q-132 -59 -392 -59q-328 0 -449.5 55.5t-121.5 206.5z" />
<glyph unicode="4" d="M43 311v238l752 813h329v-916h224l-60 -135h-164v-311h-174v311h-907zM186 446h764v809h-71l-693 -751v-58z" />
<glyph unicode="5" d="M131 225q0 14 12 90h168q0 -145 84 -170q100 -28 277 -28q193 0 284 37q69 28 98 102t29 223q0 180 -51 242q-65 78 -350 78q-172 0 -250.5 -25.5t-107.5 -89.5h-174v678h1042v-133h-870v-400q84 105 360 105q308 0 434 -78q144 -89 144 -377q0 -161 -24 -242.5 t-87 -136.5q-130 -112 -477 -112q-220 0 -363 43q-178 53 -178 194z" />
<glyph unicode="6" d="M115 637q0 242 10 371q11 141 74 217q123 149 501 149q257 0 396 -53q153 -59 153 -195q0 -22 -12 -84h-168v62q0 91 -84 115q-96 26 -285 26q-270 0 -344 -84q-61 -70 -61 -321v-150q75 64 155 87q85 24 250 24q280 0 403 -69q163 -90 163 -335q0 -259 -170 -349 q-118 -62 -396 -60q-157 1 -228 11q-137 20 -218 85q-75 60 -106 173q-33 123 -33 380zM295 487q0 -163 41 -245q59 -119 364 -119q234 0 313 54.5t79 219.5q0 171 -99 226q-77 43 -293 43q-161 0 -225 -9q-118 -17 -180 -75v-95z" />
<glyph unicode="7" d="M109 1026v336h1120v-242l-746 -1120h-204l792 1165l-2 64h-803v-203h-157z" />
<glyph unicode="8" d="M117 375q0 282 289 321v27q-269 41 -269 299q0 215 146 291q114 61 407 61q291 0 406 -57q149 -76 149 -295q0 -137 -57 -203q-64 -71 -225 -96v-27q161 -22 229 -88q72 -71 72 -233q0 -234 -129 -314q-117 -71 -445 -71q-301 0 -414 55q-159 82 -159 330zM291 375 q0 -150 67 -195q76 -51 332 -55q234 -2 320 55q80 53 80 195q0 151 -80 205.5t-320 54.5q-239 0 -319 -50t-80 -210zM311 1022q0 -145 76 -198.5t303 -53.5q230 0 301 45q80 49 80 207q0 125 -67 168q-76 47 -314 47q-235 0 -311 -45q-68 -43 -68 -170z" />
<glyph unicode="9" d="M104 965q0 259 170 348q118 63 396 61q157 -1 228 -11q137 -20 218 -85q75 -60 106 -173q33 -123 33 -380q0 -242 -10 -371q-11 -141 -74 -217q-123 -149 -501 -149q-257 0 -396 53q-153 59 -153 195q0 22 12 83h168v-61q0 -91 84 -115q97 -26 285 -26q270 0 344 84 q61 70 61 321v150q-75 -65 -155 -87q-85 -24 -250 -24q-280 0 -403 69q-163 90 -163 335zM279 965q0 -171 98 -226q77 -43 293 -43q162 0 225 9q118 17 180 75v94q0 164 -41 246q-59 119 -364 119q-234 0 -312.5 -54.5t-78.5 -219.5z" />
<glyph unicode=":" horiz-adv-x="326" d="M68 0v190h190v-190h-190zM68 743v191h190v-191h-190z" />
<glyph unicode=";" horiz-adv-x="326" d="M55 -223l99 223h-84v190h190v-190l-98 -223h-107zM68 743v191h190v-191h-190z" />
<glyph unicode="&#x3c;" d="M219 621v120l944 410v-137l-794 -334l794 -334v-137z" />
<glyph unicode="=" d="M219 444v129h942v-129h-942zM219 786v129h942v-129h-942z" />
<glyph unicode="&#x3e;" d="M219 209v137l795 334l-795 334v137l944 -410v-123z" />
<glyph unicode="?" horiz-adv-x="1112" d="M59 1135q0 147 181 204q110 35 307 35q225 0 334 -63q141 -84 139 -299q-2 -189 -43 -260q-51 -90 -225 -144q-136 -41 -168.5 -66.5t-32.5 -103.5v-49h-174v49q0 127 57 183q51 47 232 108q129 43 160.5 87t29.5 196q0 131 -55 180q-64 57 -271 57q-221 0 -270 -49 q-22 -22 -28.5 -77.5t-12.5 -114.5h-147l-4 24q-9 49 -9 103zM373 0v186h182v-186h-182z" />
<glyph unicode="@" horiz-adv-x="1501" d="M92 680q0 430 119 559q123 137 537 135q233 0 319 -16q164 -31 244 -137q98 -129 98 -394q0 -149 -25 -323q-16 -121 -66 -164t-157 -43q-153 0 -200 96q-41 -57 -78 -78q-47 -22 -142 -22q-194 0 -274 108q-68 93 -68 295q0 230 99 314q88 75 252 69q129 -4 192 -51v45 h139v-532q0 -80 9 -105q12 -37 73 -39q68 -2 84 84q21 107 21 299q0 230 -60 330q-53 90 -176 113q-57 10 -284 12q-238 2 -336 -35q-109 -41 -146 -160q-30 -104 -30 -360q0 -250 26 -348q33 -119 133 -162q94 -39 324 -41q287 -2 354 14q47 11 88 72l111 -82 q-58 -96 -153 -119.5t-400 -23.5q-397 0 -516 139q-111 131 -111 551zM565 696q0 -164 21 -211q37 -88 176 -88q162 0 176 107q4 31 4 96v344q-49 27 -141 31q-152 8 -201 -66q-35 -55 -35 -213z" />
<glyph unicode="A" horiz-adv-x="1518" d="M10 0l574 1362h364l559 -1362h-196l-133 336h-850l-135 -336h-183zM381 467h743l-307 768h-119z" />
<glyph unicode="B" horiz-adv-x="1405" d="M131 0v1362h746q210 0 303 -90q86 -84 86 -268q0 -209 -244 -281v-21q289 -47 289 -323q0 -184 -104.5 -281.5t-299.5 -97.5h-776zM305 137h510q166 0 232 35q90 49 90 193q0 141 -62 202q-69 66 -235 66h-535v-496zM305 768h469q170 0 238 47q80 55 80 207 q0 133 -91 178q-57 27 -204 27h-492v-459z" />
<glyph unicode="C" horiz-adv-x="1389" d="M92 680q0 420 139 561q129 133 508 133q400 0 504 -104q49 -49 49 -168q0 -15 -1.5 -48t-4.5 -73h-164l-6 133q-3 52 -33 76q-16 14 -71 27q-109 22 -277 22q-282 0 -370 -102q-95 -107 -95 -457q0 -348 99 -455q90 -100 374 -100q224 0 318 35q49 18 57 89q5 50 8 134 h164q3 -51 6 -121q0 -119 -49 -168q-104 -102 -502 -102q-380 0 -512 129q-141 141 -141 559z" />
<glyph unicode="D" horiz-adv-x="1499" d="M131 0v1362h612q291 0 433 -82q229 -135 229 -514v-184q0 -582 -608 -582h-666zM305 137h483q443 0 443 436v222q0 432 -459 432h-467v-1090z" />
<glyph unicode="E" horiz-adv-x="1190" d="M131 0v1362h987v-135h-813v-463h735l-59 -133h-676v-494h813v-137h-987z" />
<glyph unicode="F" horiz-adv-x="1094" d="M131 0v1362h942v-135h-768v-475h711l-58 -134h-653v-618h-174z" />
<glyph unicode="G" horiz-adv-x="1470" d="M92 680q0 420 139 561q129 133 508 133q471 0 576 -104q49 -49 49 -168q0 -25 -8 -121h-162q-5 87 -10 135q-4 53 -28 74q-17 14 -73 27q-108 22 -348 22q-282 0 -370 -100q-95 -109 -95 -459q0 -346 101 -453q90 -98 374 -98q216 0 310 25q80 20 131 79v310h-344v135 h516v-678h-150l-10 113q-31 -50 -104 -82q-105 -45 -355 -45q-379 0 -508 133q-139 141 -139 561z" />
<glyph unicode="H" horiz-adv-x="1509" d="M131 0v1362h174v-598h899v598h174v-1362h-174v623h-899v-623h-174z" />
<glyph unicode="I" horiz-adv-x="436" d="M131 0v1362h174v-1362h-174z" />
<glyph unicode="J" horiz-adv-x="1032" d="M0 221q0 60 6 121h164l6 -84q6 -74 29 -102q33 -35 260 -35q129 0 190 53q74 62 74 211v977h172v-963q0 -227 -121 -321q-110 -86 -362 -86q-297 0 -371 74q-47 49 -47 155z" />
<glyph unicode="K" horiz-adv-x="1415" d="M131 0v1362h174v-596h201l610 596h227l-684 -651l766 -711h-247l-674 631h-199v-631h-174z" />
<glyph unicode="L" horiz-adv-x="1098" d="M131 0v1362h174v-1225h782v-137h-956z" />
<glyph unicode="M" horiz-adv-x="1950" d="M131 0v1362h322l522 -1165l522 1165h322v-1362h-174v1247h-25l-557 -1247h-172l-561 1247h-25v-1247h-174z" />
<glyph unicode="N" horiz-adv-x="1587" d="M131 0v1362h307l817 -1243h27v1243h174v-1362h-307l-819 1235h-25v-1235h-174z" />
<glyph unicode="O" horiz-adv-x="1436" d="M92 680q0 428 118 561t509 133q280 0 410.5 -61.5t177.5 -214.5q36 -127 36 -418q0 -422 -108 -551q-119 -141 -514 -141q-397 0 -518 141q-111 131 -111 551zM270 680q0 -354 74 -451q80 -102 377 -102q295 0 373 102q71 95 71 451q0 252 -22 346q-29 123 -120 166 t-304 43q-289 0 -369 -97.5t-80 -457.5z" />
<glyph unicode="P" horiz-adv-x="1352" d="M131 0v1362h719q211 0 324 -119q106 -108 106 -293q0 -166 -61 -276q-105 -187 -365 -187h-549v-487h-174zM305 625h420q213 0 285 45q96 61 96 260q0 164 -84 233q-78 64 -248 64h-469v-602z" />
<glyph unicode="Q" horiz-adv-x="1452" d="M92 688q0 426 118 556t509 130q280 0 410.5 -59.5t177.5 -210.5q36 -125 36 -416q0 -250 -24 -356q-23 -113 -94 -174q-29 -25 -68 -39l311 6l-55 -125h-692q-397 0 -518 139q-111 129 -111 549zM270 688q0 -354 74 -448q80 -103 377 -103q285 0 354 51q55 39 72 158 q12 86 16 195q2 55 2 147q0 252 -22 344q-29 119 -119 161t-305 42q-203 0 -287 -35q-96 -39 -131 -156q-31 -104 -31 -356z" />
<glyph unicode="R" horiz-adv-x="1376" d="M131 0v1362h574q180 0 233 -6q125 -17 205 -78q137 -109 137 -291q0 -178 -66 -270q-100 -144 -372 -144l524 -573h-213l-506 567h-342v-567h-174zM305 700h279q325 0 399 29q119 45 123 238q2 182 -143 237q-62 23 -246 23h-412v-527z" />
<glyph unicode="S" horiz-adv-x="1331" d="M92 977q0 240 148 326q120 69 417 69h33q273 0 389 -53q111 -53 111 -170q0 -49 -8 -135h-164l-12 123q-5 47 -21 64.5t-63 27.5q-107 20 -231 20h-23q-246 -4 -326 -58q-76 -51 -76 -195v-15q2 -119 94 -162q58 -28 201 -39l309 -20q181 -19 252 -70q117 -84 117 -303 q0 -237 -158 -326q-127 -67 -428 -67h-32q-275 0 -397 52t-122 169q0 49 9 135h165l11 -114q4 -46 20.5 -64t63.5 -29q106 -20 241 -20h25q248 4 338 61.5t90 212.5q0 158 -109 197q-43 16 -303 35q-301 22 -385 55q-176 72 -176 293z" />
<glyph unicode="T" horiz-adv-x="1229" d="M27 1227v135h1187l-59 -135h-457v-1227h-174v1227h-497z" />
<glyph unicode="U" horiz-adv-x="1479" d="M129 432v930h174v-930q0 -172 92 -235q99 -72 371 -72q252 0 403 31v1206h179l-2 -1309q-226 -59 -578 -61q-301 0 -444 76q-195 102 -195 364z" />
<glyph unicode="V" horiz-adv-x="1440" d="M16 1362h187l489 -1243h62l483 1243h186l-544 -1362h-314z" />
<glyph unicode="W" horiz-adv-x="2343" d="M27 1362h184l379 -1243h43l414 1243h249l408 -1243h39l393 1243h180l-442 -1362h-305l-402 1235l-409 -1235h-307z" />
<glyph unicode="X" horiz-adv-x="1366" d="M10 0l520 719l-491 643h209l424 -565h33l409 565h205l-488 -657l525 -705h-205l-457 627h-41l-446 -627h-197z" />
<glyph unicode="Y" horiz-adv-x="1366" d="M10 1362h199l436 -756h68l465 756h178l-846 -1362h-180l311 494h-119z" />
<glyph unicode="Z" horiz-adv-x="1386" d="M90 0v150l965 1054v25h-772v-197h-164v330h1149v-162l-967 -1061h999l-59 -139h-1151z" />
<glyph unicode="[" horiz-adv-x="547" d="M133 -406v1768h346v-117h-194v-1536h194v-115h-346z" />
<glyph unicode="\" horiz-adv-x="926" d="M68 1362h135l790 -1768h-135z" />
<glyph unicode="]" horiz-adv-x="547" d="M68 -291h196v1536h-196v117h346v-1768h-346v115z" />
<glyph unicode="^" horiz-adv-x="1047" d="M68 750l362 614h184l365 -614h-160l-299 507l-295 -507h-157z" />
<glyph unicode="_" horiz-adv-x="1020" d="M0 -135h1020v-129h-1020v129z" />
<glyph unicode="`" horiz-adv-x="475" d="M68 1249l71 99l269 -205l-46 -74z" />
<glyph unicode="a" horiz-adv-x="1114" d="M66 283q0 114 44 183t132 93q57 14 168 14h421v107q0 98 -40 125q-56 37 -242 37q-208 -2 -238 -47q-14 -15 -30 -103h-158q-2 33 -4 92v7q0 53 31 83q83 84 372 87h15q299 0 389 -80q49 -43 61 -119q6 -47 6 -225v-537h-135l-18 90q-90 -102 -344 -102q-238 0 -334 64.5 t-96 230.5zM240 276q0 -94 43 -124q61 -46 225 -46t231 29q92 39 92 199v127h-311q-176 0 -221 -25q-59 -33 -59 -160z" />
<glyph unicode="b" horiz-adv-x="1135" d="M123 35v1327h162v-512q28 37 61 57q88 56 256 56q268 0 369 -138q45 -61 61 -143q19 -90 19 -203q0 -293 -109 -389q-119 -102 -389 -102q-143 0 -297 20q-84 12 -133 27zM285 119q127 -17 231 -17q129 0 219 35q84 33 116 105.5t32 234.5q0 207 -62.5 280.5t-238.5 73.5 q-162 0 -236 -40q-45 -25 -55 -82q-6 -27 -6 -107v-483z" />
<glyph unicode="c" horiz-adv-x="1085" d="M84 496q0 223 68 323q41 62 145 103t268 41q207 0 336 -45q121 -44 121 -140q0 -51 -4 -110h-166q0 1 -0.5 8t-1 17.5t-1.5 22.5l-2 23q-5 45 -32 66q-55 41 -235 41q-191 0 -256 -66q-72 -71 -72 -325q0 -213 51 -277q59 -74 275 -74q182 0 237 41q27 21 33 95l4 43h166 q6 -90 6 -111q0 -96 -123 -139q-129 -43 -336 -43q-305 0 -403 119q-78 98 -78 387z" />
<glyph unicode="d" horiz-adv-x="1135" d="M84 477q0 281 117 385q110 99 342 99q57 0 131 -11q102 -14 176 -47v459h162v-1362h-138l-18 102q-86 -114 -332 -114q-270 0 -362 125q-78 106 -78 364zM260 492q0 -187 29 -261q47 -122 258 -122q170 0 250 45q41 22 51 86q2 20 2 106v463l-31 6q-100 19 -225 19 q-123 0 -197 -29q-108 -43 -131 -199q-6 -39 -6 -114z" />
<glyph unicode="e" horiz-adv-x="1104" d="M84 457q0 272 96 383q109 123 385 123q275 0 375 -117q78 -90 78 -314q0 -49 -2 -88h-762v-36q0 -172 51 -230q64 -72 250 -72h9q215 0 253 46q26 30 35 131h164q4 -90 4 -111q-4 -98 -123 -139q-129 -43 -338 -43q-219 0 -323 63q-152 94 -152 404zM258 561h604 q0 96 -18 154q-41 131 -271 131q-211 0 -270 -86q-39 -55 -45 -199z" />
<glyph unicode="f" horiz-adv-x="600" d="M0 838v114h164v150q0 94 16 143q21 72 86 113q76 47 260 47q68 0 133 -6v-115q-112 4 -127 4q-131 0 -170 -39q-28 -28 -34 -100q-2 -16 -2 -131v-66h327l-37 -114h-290v-838h-162v838h-164z" />
<glyph unicode="g" horiz-adv-x="1083" d="M84 -217q2 51 8 98h158q1 -49 5 -96q3 -47 46 -61q70 -25 248 -25q135 0 225 18q68 15 94.5 45.5t26.5 94.5q0 104 -66 131q-36 12 -245 12h-144h-104q-78 0 -90 2q-58 6 -86 23q-70 41 -70 149q0 148 119 182q-37 23 -53 41q-70 72 -70 236q0 186 97.5 262t338.5 76 q135 0 217 -19h340v-114h-190q74 -60 74 -209q0 -199 -103 -267q-84 -55 -325 -55q-5 0 -76 2l-72 2h-57q-60 0 -84.5 -20.5t-24.5 -71.5q0 -61 43 -78q29 -12 135 -12q50 0 148 2h145q152 0 226 -20q126 -35 126 -248q0 -166 -116 -219q-60 -27 -150 -39q-108 -15 -256 -15 q-170 0 -295 29q-82 19 -112.5 54.5t-30.5 109.5zM256 623q0 -121 57 -170q49 -43 203 -43q133 0 199 26q92 37 92 201q0 133 -58.5 181t-224.5 48q-157 0 -212.5 -50t-55.5 -193z" />
<glyph unicode="h" horiz-adv-x="1145" d="M123 0v1362h162v-483q57 39 106 55q88 31 236 31q342 0 383 -217q14 -78 14 -203v-545h-162v518q0 117 -2 141q-8 91 -47 123q-61 54 -225 54q-90 0 -187 -17q-57 -10 -116 -28v-791h-162z" />
<glyph unicode="i" horiz-adv-x="508" d="M-2 838v114h387v-952h-162v838h-225zM223 1200v162h162v-162h-162z" />
<glyph unicode="j" horiz-adv-x="508" d="M-98 -274h121q159 0 179.5 15t20.5 99v998h-225v114h387v-1097q0 -113 -6 -144q-17 -73 -88 -98q-62 -21 -176 -21q-121 0 -213 11v123zM225 1200v162h160v-162h-160z" />
<glyph unicode="k" horiz-adv-x="1004" d="M123 0v1362h162v-789h80l366 379h184l-417 -422l516 -530h-213l-436 457h-80v-457h-162z" />
<glyph unicode="l" horiz-adv-x="508" d="M-2 1247v115h387v-1362h-162v1247h-225z" />
<glyph unicode="m" horiz-adv-x="1845" d="M123 0v952h137l16 -75q125 92 320 92q274 0 352 -127q117 127 379 127q160 0 268 -64q99 -57 117 -155q12 -68 12 -203v-547h-163v522v-2l-3 102q-2 114 -45 154q-67 62 -223 62q-162 0 -307 -70q10 -31 14 -77t4 -120v-571h-161v629q0 108 -49 151q-66 58 -222 58 q-84 0 -159 -15q-33 -6 -125 -32v-791h-162z" />
<glyph unicode="n" horiz-adv-x="1145" d="M123 0v952h145l13 -75q63 43 112 59q88 31 236 31q342 0 383 -217q12 -66 12 -203v-547h-162v520q0 139 -9 189.5t-40 76.5q-59 52 -225 52q-90 0 -187 -17q-53 -8 -116 -28v-793h-162z" />
<glyph unicode="o" horiz-adv-x="1120" d="M84 475q0 299 96 394.5t381 95.5q293 0 387 -101q88 -96 88 -389t-93 -389t-382 -96t-383 96t-94 389zM252 475q0 -242 52 -306.5t257 -64.5t256 64.5t51 306.5q0 244 -45 303q-51 70 -262 70q-201 0 -255 -63.5t-54 -309.5z" />
<glyph unicode="p" horiz-adv-x="1135" d="M123 -399v1351h137l21 -100q88 115 331 115q269 0 361 -127q78 -107 78 -363q0 -280 -113 -381.5t-344 -101.5q-57 0 -131 8q-98 14 -178 49v-450h-162zM285 141l24 -4q123 -20 232 -20q127 0 200 28q136 54 136 314q0 182 -31 258q-49 123 -256 123q-180 0 -248 -43 q-47 -29 -53 -80q-4 -31 -4 -113v-463z" />
<glyph unicode="q" horiz-adv-x="1133" d="M84 475q0 291 111 389q118 105 389 105q250 0 426 -49v-1319h-162v501q-21 -30 -62 -55q-88 -53 -256 -53q-266 0 -368 135q-43 57 -62 143q-16 74 -16 203zM252 473q0 -207 62.5 -280.5t238.5 -73.5q160 0 235 43q43 24 54 84q6 26 6 106v479q-125 17 -232 17 q-129 0 -216 -34t-117.5 -106.5t-30.5 -234.5z" />
<glyph unicode="r" horiz-adv-x="862" d="M123 0v952h141l12 -78q127 93 308 93q260 0 260 -155q0 -35 -6 -112h-156l-10 78q-7 43 -21 53.5t-80 10.5q-163 0 -288 -45v-797h-160z" />
<glyph unicode="s" horiz-adv-x="1090" d="M84 166q0 29 4 125h156q11 -121 33 -143q42 -44 245 -44q172 0 256 43q62 31 62 132q0 65 -19.5 92.5t-72.5 38.5l-66 6q-76 2 -223 8q-135 8 -195 22q-170 43 -170 232q0 158 95.5 222.5t334.5 64.5q142 0 244 -14.5t154.5 -48.5t52.5 -140q0 -33 -2 -66h-158l-6 35 q-10 64 -31 84q-45 35 -219 35q-156 0 -228.5 -29.5t-72.5 -132.5q0 -80 38 -105.5t257 -31.5q57 0 131 -2q129 -2 201 -31q123 -49 123 -239q0 -162 -103 -222q-117 -65 -393 -65q-174 0 -260 18q-168 39 -168 156z" />
<glyph unicode="t" horiz-adv-x="721" d="M33 838v114h143v232h162v-232h369l-37 -114h-332v-463q0 -131 2 -146q12 -86 78 -108q46 -16 137 -16q54 0 125 6v-111q-37 -4 -148 -8q-184 0 -256 43q-63 41 -86 112q-14 48 -14 144v547h-143z" />
<glyph unicode="u" horiz-adv-x="1145" d="M121 410v542h162v-512v1l2 -117q2 -117 53 -162q61 -53 231 -53q97 0 185 12q55 8 106 18v813h162v-897q-115 -26 -221 -43q-154 -20 -248 -20q-217 0 -316.5 65.5t-109.5 210.5q-6 80 -6 142z" />
<glyph unicode="v" horiz-adv-x="1012" d="M0 952h172l307 -843h68l299 843h166l-357 -952h-301z" />
<glyph unicode="w" horiz-adv-x="1587" d="M16 952h166l236 -852h28l234 852h240l231 -852h31l227 852h162l-281 -952h-266l-231 862l-234 -862h-266z" />
<glyph unicode="x" horiz-adv-x="944" d="M0 0l383 498l-342 454h182l240 -352h16l248 352h176l-336 -454l377 -498h-186l-279 393h-12l-285 -393h-182z" />
<glyph unicode="y" horiz-adv-x="975" d="M8 952h166l279 -848h79l273 848h162l-371 -1116q-25 -72 -47.5 -125t-54.5 -80q-50 -39 -156 -39q-82 0 -141 9v125h47q112 0 143 18q35 27 76 152l35 104h-154z" />
<glyph unicode="z" horiz-adv-x="954" d="M57 0v168l662 641v29h-498v-115h-131v229h795v-178l-654 -622v-35h676l-37 -117h-813z" />
<glyph unicode="{" horiz-adv-x="586" d="M78 420v112q65 19 91 61t26 128v336q0 149 41 219q51 86 192 86h90v-111q-90 0 -131 -28q-57 -39 -57 -170v-340q0 -99 -28 -151t-95 -87q67 -35 95 -86t28 -149v-340q0 -119 49 -162q39 -35 125 -35h14v-109h-90q-143 0 -192 84q-41 70 -41 220v335q0 84 -27 125t-90 62 z" />
<glyph unicode="|" horiz-adv-x="401" d="M131 -338v1700h139v-1700h-139z" />
<glyph unicode="}" horiz-adv-x="584" d="M68 -297q90 0 131 29q57 41 57 170v340q0 96 27.5 148t95.5 87q-68 35 -95.5 87t-27.5 151v340q0 121 -47 162q-39 34 -127 34h-14v111h90q141 0 192 -86q41 -70 41 -219v-336q0 -86 25.5 -127t91.5 -62v-112q-66 -21 -91.5 -62t-25.5 -125v-335q0 -150 -41 -220 q-49 -84 -192 -84h-90v109z" />
<glyph unicode="~" horiz-adv-x="1116" d="M68 1247q63 127 125.5 179.5t152.5 52.5q76 0 227 -72q144 -68 203 -68q103 0 187 144l86 -51q-56 -111 -115 -160q-80 -66 -170 -66q-80 0 -174 45q-199 95 -254 95q-103 0 -184 -154z" />
<glyph d="M70 469v129h127v168h-127v129h135q28 295 128.5 387t414.5 92q399 0 503 -104q52 -51 50 -168q0 -30 -3 -51h-172q0 45 -8 93t-96 68q-100 23 -279 23q-223 0 -286 -64q-56 -55 -80 -276h584v-129h-592q-2 -72 -2 -86q0 -10 2 -82h592v-129h-584q24 -221 84 -279 q65 -63 289 -63q165 0 274 23q51 10 70.5 24t26.5 57q4 32 9 84h175l1 -62q1 -110 -46 -157q-109 -106 -504 -106q-316 0 -419.5 91t-131.5 388h-135z" />
<glyph unicode="&#x20ac;" d="M70 469v129h127v168h-127v129h135q28 295 128.5 387t414.5 92q399 0 503 -104q52 -51 50 -168q0 -30 -3 -51h-172q0 45 -8 93t-96 68q-100 23 -279 23q-223 0 -286 -64q-56 -55 -80 -276h584v-129h-592q-2 -72 -2 -86q0 -10 2 -82h592v-129h-584q24 -221 84 -279 q65 -63 289 -63q165 0 274 23q51 10 70.5 24t26.5 57q4 32 9 84h175l1 -62q1 -110 -46 -157q-109 -106 -504 -106q-316 0 -419.5 91t-131.5 388h-135z" />
<glyph horiz-adv-x="326" d="M55 -223l99 223h-84v190h190v-190l-98 -223h-107z" />
<glyph unicode="&#x201a;" horiz-adv-x="326" d="M55 -223l99 223h-84v190h190v-190l-98 -223h-107z" />
<glyph d="M94 -266l23 123q131 -4 176 -2q90 6 126 35.5t54 105.5q2 8 23 119l137 770h-242v135h266l35 192q17 97 41 144q35 74 109 114q84 48 272 48q68 0 137 -7l-20 -125q-131 5 -176 3q-90 -7 -127 -37.5t-54 -94.5q-6 -18 -24 -131l-19 -106h336l-59 -135h-301l-152 -856 q-34 -191 -149 -256q-84 -47 -273 -47q-67 0 -139 8z" />
<glyph unicode="&#x192;" d="M94 -266l23 123q131 -4 176 -2q90 6 126 35.5t54 105.5q2 8 23 119l137 770h-242v135h266l35 192q17 97 41 144q35 74 109 114q84 48 272 48q68 0 137 -7l-20 -125q-131 5 -176 3q-90 -7 -127 -37.5t-54 -94.5q-6 -18 -24 -131l-19 -106h336l-59 -135h-301l-152 -856 q-34 -191 -149 -256q-84 -47 -273 -47q-67 0 -139 8z" />
<glyph horiz-adv-x="641" d="M55 -223l99 223h-84v190h190v-190l-98 -223h-107zM370 -223l99 223h-84v190h190v-190l-98 -223h-107z" />
<glyph unicode="&#x201e;" horiz-adv-x="641" d="M55 -223l99 223h-84v190h190v-190l-98 -223h-107zM370 -223l99 223h-84v190h190v-190l-98 -223h-107z" />
<glyph unicode="&#x85;" horiz-adv-x="1139" d="M68 0v190h190v-190h-190zM473 0v190h191v-190h-191zM881 0v190h190v-190h-190z" />
<glyph unicode="&#x2026;" horiz-adv-x="1139" d="M68 0v190h190v-190h-190zM473 0v190h191v-190h-191zM881 0v190h190v-190h-190z" />
<glyph horiz-adv-x="915" d="M68 868v119h317v375h147v-375h316v-119h-316v-1274h-147v1274h-317z" />
<glyph unicode="&#x2020;" horiz-adv-x="915" d="M68 868v119h317v375h147v-375h316v-119h-316v-1274h-147v1274h-317z" />
<glyph horiz-adv-x="915" d="M68 -33v117h317v784h-317v119h317v375h147v-375h316v-119h-316v-784h316v-117h-316v-373h-147v373h-317z" />
<glyph unicode="&#x2021;" horiz-adv-x="915" d="M68 -33v117h317v784h-317v119h317v375h147v-375h316v-119h-316v-784h316v-117h-316v-373h-147v373h-317z" />
<glyph horiz-adv-x="657" d="M68 1141l262 209l260 -209l-55 -72l-205 152l-205 -152z" />
<glyph unicode="&#x2c6;" horiz-adv-x="657" d="M68 1141l262 209l260 -209l-55 -72l-205 152l-205 -152z" />
<glyph horiz-adv-x="2695" d="M90 1026q0 213 62.5 279.5t271.5 66.5q215 0 278 -74q54 -61 54 -272t-58 -274q-63 -72 -274 -72t-274 72q-60 65 -60 274zM213 1026q0 -158 36 -202t175 -44t174 44t35 202q0 160 -33 204t-176 44q-135 0 -173 -43t-38 -205zM371 0l1028 1362h143l-1034 -1362h-137z M1143 338q0 213 63.5 279.5t272.5 66.5q215 0 278 -74q53 -61 53 -272t-57 -275q-63 -69 -274 -69t-277 69q-59 66 -59 275zM1268 338q0 -158 35.5 -202t175.5 -44q139 0 174 44t35 202q0 160 -33 204t-176 44q-136 0 -173.5 -43t-37.5 -205zM1937 338q0 213 63.5 279.5 t272.5 66.5q215 0 279 -74q53 -61 53 -272t-57 -275q-64 -69 -275 -69t-276 69q-60 66 -60 275zM2062 338q0 -158 36 -202t175 -44q140 0 174.5 44t34.5 202q0 160 -32.5 204t-176.5 44q-135 0 -173 -43t-38 -205z" />
<glyph unicode="&#x2030;" horiz-adv-x="2695" d="M90 1026q0 213 62.5 279.5t271.5 66.5q215 0 278 -74q54 -61 54 -272t-58 -274q-63 -72 -274 -72t-274 72q-60 65 -60 274zM213 1026q0 -158 36 -202t175 -44t174 44t35 202q0 160 -33 204t-176 44q-135 0 -173 -43t-38 -205zM371 0l1028 1362h143l-1034 -1362h-137z M1143 338q0 213 63.5 279.5t272.5 66.5q215 0 278 -74q53 -61 53 -272t-57 -275q-63 -69 -274 -69t-277 69q-59 66 -59 275zM1268 338q0 -158 35.5 -202t175.5 -44q139 0 174 44t35 202q0 160 -33 204t-176 44q-136 0 -173.5 -43t-37.5 -205zM1937 338q0 213 63.5 279.5 t272.5 66.5q215 0 279 -74q53 -61 53 -272t-57 -275q-64 -69 -275 -69t-276 69q-60 66 -60 275zM2062 338q0 -158 36 -202t175 -44q140 0 174.5 44t34.5 202q0 160 -32.5 204t-176.5 44q-135 0 -173 -43t-38 -205z" />
<glyph horiz-adv-x="1331" d="M92 977q0 240 148 326q120 69 417 69h33q273 0 389 -53q111 -53 111 -170q0 -49 -8 -135h-164l-12 123q-5 47 -21 64.5t-63 27.5q-107 20 -231 20h-23q-246 -4 -326 -58q-76 -51 -76 -195v-15q2 -119 94 -162q58 -28 201 -39l309 -20q181 -19 252 -70q117 -84 117 -303 q0 -237 -158 -326q-127 -67 -428 -67h-32q-275 0 -397 52t-122 169q0 49 9 135h165l11 -114q4 -46 20.5 -64t63.5 -29q106 -20 241 -20h25q248 4 338 61.5t90 212.5q0 158 -109 197q-43 16 -303 35q-301 22 -385 55q-176 72 -176 293zM387 1681l57 70l205 -152l205 152 l55 -70l-260 -211z" />
<glyph unicode="&#x160;" horiz-adv-x="1331" d="M92 977q0 240 148 326q120 69 417 69h33q273 0 389 -53q111 -53 111 -170q0 -49 -8 -135h-164l-12 123q-5 47 -21 64.5t-63 27.5q-107 20 -231 20h-23q-246 -4 -326 -58q-76 -51 -76 -195v-15q2 -119 94 -162q58 -28 201 -39l309 -20q181 -19 252 -70q117 -84 117 -303 q0 -237 -158 -326q-127 -67 -428 -67h-32q-275 0 -397 52t-122 169q0 49 9 135h165l11 -114q4 -46 20.5 -64t63.5 -29q106 -20 241 -20h25q248 4 338 61.5t90 212.5q0 158 -109 197q-43 16 -303 35q-301 22 -385 55q-176 72 -176 293zM387 1681l57 70l205 -152l205 152 l55 -70l-260 -211z" />
<glyph horiz-adv-x="508" d="M68 524l245 518l103 -61l-213 -457l237 -458l-98 -66z" />
<glyph unicode="&#x2039;" horiz-adv-x="508" d="M68 524l245 518l103 -61l-213 -457l237 -458l-98 -66z" />
<glyph horiz-adv-x="2159" d="M92 680q0 428 118 561t509 133q328 0 395 -131v119h973v-135h-807v-463h737l-59 -133h-678v-494h807v-137h-973v121q-82 -84 -184 -113q-78 -20 -225 -20q-273 0 -401 58t-173 212q-39 129 -39 422zM270 678q0 -354 72 -449q80 -102 375 -102q203 0 280.5 41t96.5 162 q12 71 12 348q0 274 -14 358q-23 121 -100 160t-273 39q-289 0 -369 -98.5t-80 -458.5z" />
<glyph unicode="&#x152;" horiz-adv-x="2159" d="M92 680q0 428 118 561t509 133q328 0 395 -131v119h973v-135h-807v-463h737l-59 -133h-678v-494h807v-137h-973v121q-82 -84 -184 -113q-78 -20 -225 -20q-273 0 -401 58t-173 212q-39 129 -39 422zM270 678q0 -354 72 -449q80 -102 375 -102q203 0 280.5 41t96.5 162 q12 71 12 348q0 274 -14 358q-23 121 -100 160t-273 39q-289 0 -369 -98.5t-80 -458.5z" />
<glyph horiz-adv-x="326" d="M68 1098v190l98 223h107l-99 -223h84v-190h-190z" />
<glyph unicode="&#x2018;" horiz-adv-x="326" d="M68 1098v190l98 223h107l-99 -223h84v-190h-190z" />
<glyph horiz-adv-x="326" d="M53 948l99 223h-84v191h190v-191l-98 -223h-107z" />
<glyph unicode="&#x2019;" horiz-adv-x="326" d="M53 948l99 223h-84v191h190v-191l-98 -223h-107z" />
<glyph horiz-adv-x="641" d="M68 1098v190l98 223h107l-99 -223h84v-190h-190zM383 1098v190l98 223h107l-99 -223h84v-190h-190z" />
<glyph unicode="&#x201c;" horiz-adv-x="641" d="M68 1098v190l98 223h107l-99 -223h84v-190h-190zM383 1098v190l98 223h107l-99 -223h84v-190h-190z" />
<glyph horiz-adv-x="641" d="M53 948l99 223h-84v191h190v-191l-98 -223h-107zM368 948l99 223h-84v191h190v-191l-98 -223h-107z" />
<glyph unicode="&#x201d;" horiz-adv-x="641" d="M53 948l99 223h-84v191h190v-191l-98 -223h-107zM368 948l99 223h-84v191h190v-191l-98 -223h-107z" />
<glyph horiz-adv-x="700" d="M68 692q0 117 84 200t202 83q115 0 197 -83t82 -200q0 -119 -82 -201.5t-197 -82.5q-118 0 -202 82.5t-84 201.5z" />
<glyph unicode="&#x2022;" horiz-adv-x="700" d="M68 692q0 117 84 200t202 83q115 0 197 -83t82 -200q0 -119 -82 -201.5t-197 -82.5q-118 0 -202 82.5t-84 201.5z" />
<glyph horiz-adv-x="936" d="M68 430v133h800v-133h-800z" />
<glyph unicode="&#x2013;" horiz-adv-x="936" d="M68 430v133h800v-133h-800z" />
<glyph horiz-adv-x="1548" d="M68 430v133h1413v-133h-1413z" />
<glyph unicode="&#x2014;" horiz-adv-x="1548" d="M68 430v133h1413v-133h-1413z" />
<glyph horiz-adv-x="686" d="M68 1151q71 123 161 123q39 0 125 -39t109 -39q39 0 76 76l79 -51q-71 -125 -159 -125q-39 0 -121 37.5t-113 37.5q-41 0 -78 -71z" />
<glyph unicode="&#x2dc;" horiz-adv-x="686" d="M68 1151q71 123 161 123q39 0 125 -39t109 -39q39 0 76 76l79 -51q-71 -125 -159 -125q-39 0 -121 37.5t-113 37.5q-41 0 -78 -71z" />
<glyph horiz-adv-x="1823" d="M68 1268v94h680l-43 -94h-252v-682h-103v682h-282zM793 586v776h184l297 -670l297 670h184v-776h-100v688h-13l-317 -688h-100l-320 688h-12v-688h-100z" />
<glyph unicode="&#x2122;" horiz-adv-x="1823" d="M68 1268v94h680l-43 -94h-252v-682h-103v682h-282zM793 586v776h184l297 -670l297 670h184v-776h-100v688h-13l-317 -688h-100l-320 688h-12v-688h-100z" />
<glyph horiz-adv-x="1090" d="M84 166q0 29 4 125h156q11 -121 33 -143q42 -44 245 -44q172 0 256 43q62 31 62 132q0 65 -19.5 92.5t-72.5 38.5l-66 6q-76 2 -223 8q-135 8 -195 22q-170 43 -170 232q0 158 95.5 222.5t334.5 64.5q142 0 244 -14.5t154.5 -48.5t52.5 -140q0 -33 -2 -66h-158l-6 35 q-10 64 -31 84q-45 35 -219 35q-156 0 -228.5 -29.5t-72.5 -132.5q0 -80 38 -105.5t257 -31.5q57 0 131 -2q129 -2 201 -31q123 -49 123 -239q0 -162 -103 -222q-117 -65 -393 -65q-174 0 -260 18q-168 39 -168 156zM283 1280l57 70l205 -152l205 152l55 -70l-260 -211z" />
<glyph unicode="&#x161;" horiz-adv-x="1090" d="M84 166q0 29 4 125h156q11 -121 33 -143q42 -44 245 -44q172 0 256 43q62 31 62 132q0 65 -19.5 92.5t-72.5 38.5l-66 6q-76 2 -223 8q-135 8 -195 22q-170 43 -170 232q0 158 95.5 222.5t334.5 64.5q142 0 244 -14.5t154.5 -48.5t52.5 -140q0 -33 -2 -66h-158l-6 35 q-10 64 -31 84q-45 35 -219 35q-156 0 -228.5 -29.5t-72.5 -132.5q0 -80 38 -105.5t257 -31.5q57 0 131 -2q129 -2 201 -31q123 -49 123 -239q0 -162 -103 -222q-117 -65 -393 -65q-174 0 -260 18q-168 39 -168 156zM283 1280l57 70l205 -152l205 152l55 -70l-260 -211z" />
<glyph horiz-adv-x="508" d="M68 66l237 458l-215 457l107 61l243 -518l-274 -524z" />
<glyph unicode="&#x203a;" horiz-adv-x="508" d="M68 66l237 458l-215 457l107 61l243 -518l-274 -524z" />
<glyph horiz-adv-x="1843" d="M84 475q0 301 91 395.5t374 94.5q153 0 233 -27q109 -37 150 -139q102 164 373 164q274 0 374 -117q78 -90 78 -297q0 -68 -2 -88h-743v-53q0 -172 51 -230q63 -72 231 -72q217 0 262 46q19 18 35 131h164q4 -90 4 -111q-4 -98 -123 -139q-129 -43 -333 -43 q-308 0 -371 172q-39 -109 -154 -148q-76 -24 -217 -24q-289 0 -383 96t-94 389zM252 475q0 -248 39 -305q45 -66 246 -66q204 0 257.5 64.5t53.5 306.5t-47 303q-53 70 -264 70q-197 0 -241 -60.5t-44 -312.5zM1016 573h586q0 84 -19 142q-41 131 -270 131 q-156 0 -222.5 -54.5t-74.5 -218.5z" />
<glyph unicode="&#x153;" horiz-adv-x="1843" d="M84 475q0 301 91 395.5t374 94.5q153 0 233 -27q109 -37 150 -139q102 164 373 164q274 0 374 -117q78 -90 78 -297q0 -68 -2 -88h-743v-53q0 -172 51 -230q63 -72 231 -72q217 0 262 46q19 18 35 131h164q4 -90 4 -111q-4 -98 -123 -139q-129 -43 -333 -43 q-308 0 -371 172q-39 -109 -154 -148q-76 -24 -217 -24q-289 0 -383 96t-94 389zM252 475q0 -248 39 -305q45 -66 246 -66q204 0 257.5 64.5t53.5 306.5t-47 303q-53 70 -264 70q-197 0 -241 -60.5t-44 -312.5zM1016 573h586q0 84 -19 142q-41 131 -270 131 q-156 0 -222.5 -54.5t-74.5 -218.5z" />
<glyph horiz-adv-x="1366" d="M10 1362h199l436 -756h68l465 756h178l-846 -1362h-180l311 494h-119zM424 1517v135h159v-135h-159zM786 1517v135h160v-135h-160z" />
<glyph unicode="&#x178;" horiz-adv-x="1366" d="M10 1362h199l436 -756h68l465 756h178l-846 -1362h-180l311 494h-119zM424 1517v135h159v-135h-159zM786 1517v135h160v-135h-160z" />
<glyph unicode="&#xa1;" horiz-adv-x="375" d="M92 -406l23 986h149l19 -986h-191zM96 768v186h183v-186h-183z" />
<glyph unicode="&#xa2;" d="M207 645q0 223 67 324q41 61 146 102q80 31 211 39v137h117v-135q155 -2 277 -45t122 -139q-2 -57 -6 -111h-164l-7 82q-5 37 -30 55q-47 35 -192 41v-741q145 6 192 41q25 18 31 69l6 68h164q6 -90 6 -110q0 -97 -122 -140t-277 -45v-141h-117v141q-269 10 -355 133 q-69 99 -69 375zM375 604q0 -196 41 -260q49 -78 215 -88v737q-131 -10 -185 -63q-71 -72 -71 -326z" />
<glyph unicode="&#xa3;" d="M121 530v136h170v409q0 154 107.5 224.5t332.5 74.5q322 6 461 -80q84 -51 84 -164q0 -61 -16 -169h-162q-11 137 -15 157q-8 92 -79 111q-82 20 -248 18q-135 -2 -195 -24q-96 -37 -96 -144v-413h526l-59 -136h-467v-178q0 -84 -14 -129q-21 -55 -78 -100l923 10v-133 h-1140v121q82 20 108.5 74.5t26.5 212.5v122h-170z" />
<glyph unicode="&#xa4;" d="M70 469v129h127v168h-127v129h135q28 295 128.5 387t414.5 92q399 0 503 -104q52 -51 50 -168q0 -30 -3 -51h-172q0 45 -8 93t-96 68q-100 23 -279 23q-223 0 -286 -64q-56 -55 -80 -276h584v-129h-592q-2 -72 -2 -86q0 -10 2 -82h592v-129h-584q24 -221 84 -279 q65 -63 289 -63q165 0 274 23q51 10 70.5 24t26.5 57q4 32 9 84h175l1 -62q1 -110 -46 -157q-109 -106 -504 -106q-316 0 -419.5 91t-131.5 388h-135z" />
<glyph unicode="&#xa5;" d="M135 1362h178l375 -637h4l375 637h180l-264 -430h184v-129h-262l-125 -201h387v-129h-405v-473h-154v473h-393v129h375l-123 201h-252v129h178z" />
<glyph unicode="&#xa6;" horiz-adv-x="401" d="M131 313h139v-651h-139v651zM131 684v678h139v-678h-139z" />
<glyph unicode="&#xa7;" d="M207 520q2 207 178 252l-12 4q-107 43 -142 127q-24 58 -24 176q0 160 102.5 228.5t352.5 68.5q147 0 254.5 -14t163 -48t54.5 -140l-4 -66h-163l-8 45q-10 62 -35 79q-41 30 -226 30q-227 0 -276 -52q-41 -41 -41 -141q0 -104 40 -139t255 -101q106 -30 336 -106 q100 -37 135 -105q24 -49 24 -153q0 -199 -178 -250l15 -6q106 -43 141 -127q22 -57 22 -174q0 -160 -101 -228.5t-351 -68.5q-150 0 -254 14q-111 15 -165 48.5t-54 140.5q0 34 2 65h168l6 -35q12 -69 31 -84q45 -34 219 -34q188 0 256.5 30.5t70.5 161.5q0 102 -38 137 q-46 39 -256 103q-107 30 -336 104q-99 37 -133 98q-29 54 -29 160zM381 545q2 -70 18 -103q23 -43 90 -65l314 -96l22 -7q123 -4 158 60q18 39 16 108q-2 70 -18 101q-25 43 -92 65l-311 97l-23 6q-123 4 -158 -60q-18 -37 -16 -106z" />
<glyph unicode="&#xa8;" horiz-adv-x="657" d="M68 1116v135h159v-135h-159zM430 1116v135h160v-135h-160z" />
<glyph unicode="&#xa9;" horiz-adv-x="1575" d="M92 682q0 287 204 490.5t492 203.5q287 0 491 -203.5t204 -490.5q0 -289 -204 -491.5t-491 -202.5q-288 0 -492 202.5t-204 491.5zM168 682q0 -256 182 -438.5t438 -182.5t437.5 182.5t181.5 438.5t-181.5 437t-437.5 181t-438 -181t-182 -437zM459 688q0 178 8 227 q20 127 166 156q61 12 205 12q98 0 139 -10q72 -18 102 -82q19 -37 23 -162h-103v31q0 96 -41 121q-24 16 -124 16q-189 0 -229 -28.5t-40 -165.5q0 -236 8 -297q11 -88 56 -111q33 -16 151 -16q156 0 193 22.5t37 114.5v51h102v-37q0 -145 -57 -190q-45 -37 -135 -45 q-29 -2 -146 -2q-125 0 -182 20q-111 39 -125 191q-8 82 -8 184z" />
<glyph unicode="&#xaa;" horiz-adv-x="739" d="M68 639v82h604v-82h-604zM102 981q0 66 25 104q41 64 174 64h242v59q0 60 -23 74q-33 21 -139 21q-111 0 -137 -27q-6 -6 -11 -27q0 -4 -6 -32h-92q-2 18 -2 53q-2 33 17 51q49 49 215 49q182 2 233 -45q29 -25 35 -70q4 -26 4 -129v-309h-78l-12 53q-53 -61 -197 -61 q-137 0 -192.5 38t-55.5 134zM203 977q0 -53 24 -72q37 -26 129 -26q95 0 133 16q54 23 54 115v73h-178q-103 0 -129 -14q-33 -18 -33 -92z" />
<glyph unicode="&#xab;" horiz-adv-x="844" d="M68 524l245 518l103 -61l-213 -457l237 -458l-98 -66zM403 524l244 518l105 -61l-215 -457l239 -458l-100 -66z" />
<glyph unicode="&#xac;" horiz-adv-x="1020" d="M68 414v131h884v-545h-139v414h-745z" />
<glyph unicode="&#xad;" d="M219 616v129h944v-129h-944z" />
<glyph unicode="&#x2212;" d="M219 616v129h944v-129h-944z" />
<glyph unicode="&#xae;" horiz-adv-x="1575" d="M92 682q0 287 204 490.5t492 203.5q287 0 491 -203.5t204 -490.5q0 -289 -204 -491.5t-491 -202.5q-288 0 -492 202.5t-204 491.5zM168 682q0 -256 182 -438.5t438 -182.5t437.5 182.5t181.5 438.5t-181.5 437t-437.5 181t-438 -181t-182 -437zM477 301v774h291 q160 0 229 -35q101 -51 101 -196q0 -101 -37 -152q-55 -80 -209 -82l297 -309h-125l-289 307h-155v-307h-103zM580 692h120q185 0 228 17q65 24 67 122q2 103 -63 136q-43 22 -156 22h-196v-297z" />
<glyph unicode="&#xaf;" horiz-adv-x="637" d="M68 1128v113h501v-113h-501z" />
<glyph unicode="&#x2c9;" horiz-adv-x="637" d="M68 1128v113h501v-113h-501z" />
<glyph unicode="&#xb0;" horiz-adv-x="748" d="M68 1092q0 127 91 218t218 91q129 0 216 -89t87 -222q0 -132 -89 -222t-216 -90q-129 0 -218 91.5t-89 222.5zM182 1083q0 -73 56.5 -130.5t130.5 -57.5q82 0 138 55.5t56 134.5q0 84 -58 136.5t-132 62.5q-80 0 -135.5 -58.5t-55.5 -142.5z" />
<glyph unicode="&#xb1;" d="M219 0v129h944v-129h-944zM219 688v129h402v406h139v-406h401v-129h-401v-407h-139v407h-402z" />
<glyph unicode="&#xb2;" horiz-adv-x="887" d="M111 1217q0 69 53 102q84 51 276 51q160 0 236 -35q108 -49 108 -217q0 -129 -69 -184q-62 -49 -238 -68l-94 -8q-57 -8 -88 -22q-39 -19 -47 -54q-4 -20 -4 -75v-56h540v-98h-663v135q0 121 29 172q38 70 149 92q27 6 182 23q109 12 133 26q50 29 50 125q0 91 -46 123 q-36 27 -165 27q-121 0 -172 -14q-35 -11 -39 -56l-2 -6l-7 -90h-112q-10 68 -10 107z" />
<glyph unicode="&#xb3;" horiz-adv-x="887" d="M98 702q0 43 8 89h115l6 -86q2 -37 33 -46q66 -16 176 -16q131 0 176 23q58 28 58 131q0 88 -37 109.5t-232 21.5h-24v108l282 217v11h-421v-107h-117v205h653v-139l-262 -207h55q129 0 179.5 -56.5t50.5 -166.5q0 -160 -127 -218q-78 -34 -232 -34q-192 0 -266 33.5 t-74 127.5z" />
<glyph unicode="&#xb4;" horiz-adv-x="475" d="M68 1143l270 205l70 -99l-291 -180z" />
<glyph unicode="&#xb5;" horiz-adv-x="1036" d="M68 -399v1351h161v-491q0 10 2 -117q2 -117 54 -162q71 -63 233 -63q209 0 264 100q21 39 23 125q2 127 2 117v491h162v-532q0 -131 -17 -205q-26 -117 -151 -178q-109 -53 -262 -53q-193 0 -310 71v-454h-161z" />
<glyph unicode="&#x3bc;" horiz-adv-x="1036" d="M68 -399v1351h161v-491q0 10 2 -117q2 -117 54 -162q71 -63 233 -63q209 0 264 100q21 39 23 125q2 127 2 117v491h162v-532q0 -131 -17 -205q-26 -117 -151 -178q-109 -53 -262 -53q-193 0 -310 71v-454h-161z" />
<glyph unicode="&#xb6;" horiz-adv-x="1192" d="M72 940q0 344 204 406q54 16 244 16h541v-1768h-137v1641h-162v-1641h-137v938h-80q-62 0 -154 5q-188 8 -266 137q-53 88 -53 266z" />
<glyph unicode="&#xb7;" horiz-adv-x="326" d="M68 586v190h190v-190h-190z" />
<glyph unicode="&#x2219;" horiz-adv-x="326" d="M68 586v190h190v-190h-190z" />
<glyph unicode="&#xb8;" horiz-adv-x="354" d="M68 -305l120 207l99 -54l-140 -192z" />
<glyph unicode="&#xb9;" horiz-adv-x="887" d="M213 1229v96l205 37h112v-713h162v-98h-456v98h174v611z" />
<glyph unicode="&#xba;" horiz-adv-x="739" d="M68 639v82h604v-82h-604zM96 1090q0 172 55.5 226t219.5 54q168 0 223 -57q49 -56 49 -223q0 -168 -53 -224.5t-219 -56.5t-220.5 56.5t-54.5 224.5zM193 1090q0 -129 20 -162q33 -51 158 -51q116 0 146 36.5t30 176.5q0 141 -27 174q-28 41 -149 41q-115 0 -146.5 -37 t-31.5 -178z" />
<glyph unicode="&#xbb;" horiz-adv-x="844" d="M68 66l237 458l-215 457l107 61l243 -518l-274 -524zM403 66l236 458l-215 457l106 61l246 -518l-276 -524z" />
<glyph unicode="&#xbc;" horiz-adv-x="1958" d="M170 1229v96l207 37h112v-713h162v-98h-456v98h174v611zM401 0l920 1362h109l-924 -1362h-105zM1038 180v152l443 479h207v-532h135l-45 -99h-90v-180h-123v180h-527zM1143 279h422v450h-27l-395 -430v-20z" />
<glyph unicode="&#xbd;" horiz-adv-x="1958" d="M170 1229v96l207 37h112v-713h162v-98h-456v98h174v611zM401 0l920 1362h109l-924 -1362h-105zM1118 664q0 69 53 102q84 51 277 51q160 0 235 -35q109 -49 109 -217q0 -129 -70 -184q-61 -49 -237 -68l-94 -8q-58 -8 -88 -22q-37 -17 -44.5 -50.5t-7.5 -78.5v-56h541 v-98h-664v135q0 121 29 172q39 70 150 92q26 7 182 23q108 12 133 27q51 28 51 126q0 87 -47 121q-37 27 -166 27q-121 0 -170 -16q-37 -9 -44 -88l-5 -62h-113q-10 68 -10 107z" />
<glyph unicode="&#xbe;" horiz-adv-x="1958" d="M84 702q0 31 10 89h113l4 -74q4 -49 41 -59q61 -15 170 -15q131 0 176 23q57 28 57 131q0 88 -36.5 109.5t-231.5 21.5h-22v108l280 217v11h-422v-107h-117v205h656v-139l-268 -207h59q129 0 179 -56.5t50 -166.5q0 -160 -127 -218q-77 -34 -229 -34q-193 0 -267.5 33.5 t-74.5 127.5zM553 0l920 1362h108l-924 -1362h-104zM1122 180v152l443 479h204v-532h136l-43 -99h-93v-180h-120v180h-527zM1227 279h422v450h-27l-395 -430v-20z" />
<glyph unicode="&#xbf;" horiz-adv-x="1030" d="M92 -55q2 186 43 258q51 90 225 143q136 41 168.5 66.5t32.5 103.5v49h174v-49q0 -127 -57 -182q-51 -47 -232 -109q-129 -43 -159.5 -87t-30.5 -193q0 -131 55 -181q64 -57 271 -57q221 0 270 49q22 23 28.5 78t12.5 115h147l4 -25q9 -49 9 -102q0 -148 -181 -205 q-110 -35 -307 -35q-225 0 -334 64q-141 84 -139 299zM557 768v186h182v-186h-182z" />
<glyph unicode="&#xc0;" horiz-adv-x="1518" d="M10 0l574 1362h364l559 -1362h-196l-133 336h-850l-135 -336h-183zM381 467h743l-307 768h-119zM590 1650l71 99l269 -205l-46 -74z" />
<glyph unicode="&#xc1;" horiz-adv-x="1518" d="M10 0l574 1362h364l559 -1362h-196l-133 336h-850l-135 -336h-183zM381 467h743l-307 768h-119zM600 1544l270 205l70 -99l-291 -180z" />
<glyph unicode="&#xc2;" horiz-adv-x="1518" d="M10 0l574 1362h364l559 -1362h-196l-133 336h-850l-135 -336h-183zM381 467h743l-307 768h-119zM498 1542l262 209l260 -209l-55 -72l-205 152l-205 -152z" />
<glyph unicode="&#xc3;" horiz-adv-x="1518" d="M10 0l574 1362h364l559 -1362h-196l-133 336h-850l-135 -336h-183zM381 467h743l-307 768h-119zM502 1552q71 123 161 123q39 0 125 -39t109 -39q39 0 76 76l79 -51q-71 -125 -159 -125q-39 0 -121 37.5t-113 37.5q-41 0 -78 -71z" />
<glyph unicode="&#xc4;" horiz-adv-x="1518" d="M10 0l574 1362h364l559 -1362h-196l-133 336h-850l-135 -336h-183zM381 467h743l-307 768h-119zM506 1517v135h159v-135h-159zM868 1517v135h160v-135h-160z" />
<glyph unicode="&#xc5;" horiz-adv-x="1518" d="M10 0l574 1362h364l559 -1362h-196l-133 336h-850l-135 -336h-183zM381 467h743l-307 768h-119zM594 1587q0 71 51 114t125 43q73 0 124.5 -43t51.5 -114q0 -72 -51.5 -115t-124.5 -43q-74 0 -125 43t-51 115zM671 1587q0 -88 99 -88q98 0 98 88q0 90 -98 90 q-99 0 -99 -90z" />
<glyph unicode="&#xc6;" horiz-adv-x="2152" d="M10 0l848 1362h1223v-135h-807v-463h735l-59 -133h-676v-494h807v-137h-981v281h-717l-178 -281h-195zM463 418h637v809h-148z" />
<glyph unicode="&#xc7;" horiz-adv-x="1389" d="M92 680q0 420 139 561q129 133 508 133q400 0 504 -104q49 -49 49 -168q-1 -40 -6 -121h-164l-5 121q-6 68 -34 88q-16 14 -71 27q-109 22 -277 22q-282 0 -370 -102q-95 -107 -95 -457q0 -348 99 -455q90 -100 374 -100q246 0 328 39q41 18 47 92l8 127h164 q6 -62 6 -121q0 -119 -49 -168q-104 -102 -502 -102q-380 0 -512 129q-141 141 -141 559zM586 -315l139 237l111 -61l-160 -226z" />
<glyph unicode="&#xc8;" horiz-adv-x="1190" d="M131 0v1362h987v-135h-813v-463h735l-59 -133h-676v-494h813v-137h-987zM439 1650l71 99l269 -205l-46 -74z" />
<glyph unicode="&#xc9;" horiz-adv-x="1190" d="M131 0v1362h987v-135h-813v-463h735l-59 -133h-676v-494h813v-137h-987zM488 1544l270 205l70 -99l-291 -180z" />
<glyph unicode="&#xca;" horiz-adv-x="1190" d="M131 0v1362h987v-135h-813v-463h735l-59 -133h-676v-494h813v-137h-987zM367 1542l262 209l260 -209l-55 -72l-205 152l-205 -152z" />
<glyph unicode="&#xcb;" horiz-adv-x="1190" d="M131 0v1362h987v-135h-813v-463h735l-59 -133h-676v-494h813v-137h-987zM377 1517v135h159v-135h-159zM739 1517v135h160v-135h-160z" />
<glyph unicode="&#xcc;" horiz-adv-x="436" d="M131 0v1362h174v-1362h-174zM47 1650l71 99l269 -205l-46 -74z" />
<glyph unicode="&#xcd;" horiz-adv-x="436" d="M131 0v1362h174v-1362h-174zM52 1544l270 205l70 -99l-291 -180z" />
<glyph unicode="&#xce;" horiz-adv-x="436" d="M131 0v1362h174v-1362h-174zM-43 1542l262 209l260 -209l-55 -72l-205 152l-205 -152z" />
<glyph unicode="&#xcf;" horiz-adv-x="436" d="M131 0v1362h174v-1362h-174zM-41 1517v135h159v-135h-159zM321 1517v135h160v-135h-160z" />
<glyph unicode="&#xd0;" horiz-adv-x="1509" d="M10 637v117h131v608h613q290 0 432 -82q229 -135 229 -514v-184q0 -582 -608 -582h-666v637h-131zM315 137h484q442 0 442 436v222q0 432 -459 432h-467v-473h535v-117h-535v-500z" />
<glyph unicode="&#xd1;" horiz-adv-x="1587" d="M131 0v1362h307l817 -1243h27v1243h174v-1362h-307l-819 1235h-25v-1235h-174zM541 1552q71 123 161 123q39 0 125 -39t109 -39q39 0 76 76l79 -51q-71 -125 -159 -125q-39 0 -121 37.5t-113 37.5q-41 0 -78 -71z" />
<glyph unicode="&#xd2;" horiz-adv-x="1436" d="M92 680q0 428 118 561t509 133q280 0 410.5 -61.5t177.5 -214.5q36 -127 36 -418q0 -422 -108 -551q-119 -141 -514 -141q-397 0 -518 141q-111 131 -111 551zM270 680q0 -354 74 -451q80 -102 377 -102q295 0 373 102q71 95 71 451q0 252 -22 346q-29 123 -120 166 t-304 43q-289 0 -369 -97.5t-80 -457.5zM525 1650l71 99l269 -205l-46 -74z" />
<glyph unicode="&#xd3;" horiz-adv-x="1436" d="M92 680q0 428 118 561t509 133q280 0 410.5 -61.5t177.5 -214.5q36 -127 36 -418q0 -422 -108 -551q-119 -141 -514 -141q-397 0 -518 141q-111 131 -111 551zM270 680q0 -354 74 -451q80 -102 377 -102q295 0 373 102q71 95 71 451q0 252 -22 346q-29 123 -120 166 t-304 43q-289 0 -369 -97.5t-80 -457.5zM596 1544l270 205l70 -99l-291 -180z" />
<glyph unicode="&#xd4;" horiz-adv-x="1436" d="M92 680q0 428 118 561t509 133q280 0 410.5 -61.5t177.5 -214.5q36 -127 36 -418q0 -422 -108 -551q-119 -141 -514 -141q-397 0 -518 141q-111 131 -111 551zM270 680q0 -354 74 -451q80 -102 377 -102q295 0 373 102q71 95 71 451q0 252 -22 346q-29 123 -120 166 t-304 43q-289 0 -369 -97.5t-80 -457.5zM459 1542l262 209l260 -209l-55 -72l-205 152l-205 -152z" />
<glyph unicode="&#xd5;" horiz-adv-x="1436" d="M92 680q0 428 118 561t509 133q280 0 410.5 -61.5t177.5 -214.5q36 -127 36 -418q0 -422 -108 -551q-119 -141 -514 -141q-397 0 -518 141q-111 131 -111 551zM270 680q0 -354 74 -451q80 -102 377 -102q295 0 373 102q71 95 71 451q0 252 -22 346q-29 123 -120 166 t-304 43q-289 0 -369 -97.5t-80 -457.5zM437 1552q71 123 161 123q39 0 125 -39t109 -39q39 0 76 76l79 -51q-71 -125 -159 -125q-39 0 -121 37.5t-113 37.5q-41 0 -78 -71z" />
<glyph unicode="&#xd6;" horiz-adv-x="1436" d="M92 680q0 428 118 561t509 133q280 0 410.5 -61.5t177.5 -214.5q36 -127 36 -418q0 -422 -108 -551q-119 -141 -514 -141q-397 0 -518 141q-111 131 -111 551zM270 680q0 -354 74 -451q80 -102 377 -102q295 0 373 102q71 95 71 451q0 252 -22 346q-29 123 -120 166 t-304 43q-289 0 -369 -97.5t-80 -457.5zM467 1517v135h159v-135h-159zM829 1517v135h160v-135h-160z" />
<glyph unicode="&#xd7;" d="M258 342l336 338l-336 338l96 94l336 -336l338 336l94 -92l-338 -340l338 -338l-94 -94l-338 338l-336 -338z" />
<glyph unicode="&#xd8;" horiz-adv-x="1491" d="M92 469v408q0 497 582 497h153q353 0 473 -151q58 -70 78.5 -143.5t20.5 -202.5v-408q0 -477 -553 -477h-189q-163 0 -251 16q-138 31 -207 117q-56 68 -76 129q-31 82 -31 215zM266 346l908 787q-54 104 -357 104h-143q-219 0 -313.5 -85t-94.5 -275v-531zM322 242 q55 -117 335 -117h201q367 0 367 344v547z" />
<glyph unicode="&#xd9;" horiz-adv-x="1479" d="M129 432v930h174v-930q0 -172 92 -235q99 -72 371 -72q252 0 403 31v1206h179l-2 -1309q-226 -59 -578 -61q-301 0 -444 76q-195 102 -195 364zM539 1650l71 99l269 -205l-46 -74z" />
<glyph unicode="&#xda;" horiz-adv-x="1479" d="M129 432v930h174v-930q0 -172 92 -235q99 -72 371 -72q252 0 403 31v1206h179l-2 -1309q-226 -59 -578 -61q-301 0 -444 76q-195 102 -195 364zM600 1544l270 205l70 -99l-291 -180z" />
<glyph unicode="&#xdb;" horiz-adv-x="1479" d="M129 432v930h174v-930q0 -172 92 -235q99 -72 371 -72q252 0 403 31v1206h179l-2 -1309q-226 -59 -578 -61q-301 0 -444 76q-195 102 -195 364zM463 1542l262 209l260 -209l-55 -72l-205 152l-205 -152z" />
<glyph unicode="&#xdc;" horiz-adv-x="1479" d="M129 432v930h174v-930q0 -172 92 -235q99 -72 371 -72q252 0 403 31v1206h179l-2 -1309q-226 -59 -578 -61q-301 0 -444 76q-195 102 -195 364zM469 1517v135h159v-135h-159zM831 1517v135h160v-135h-160z" />
<glyph unicode="&#xdd;" horiz-adv-x="1366" d="M10 1362h199l436 -756h68l465 756h178l-846 -1362h-180l311 494h-119zM539 1544l270 205l70 -99l-291 -180z" />
<glyph unicode="&#xde;" horiz-adv-x="1352" d="M131 0v1362h174v-193h545q211 0 324 -118q106 -109 106 -293q0 -166 -61 -277q-105 -186 -365 -186h-549v-295h-174zM305 432h420q213 0 285 45q96 62 96 260q0 164 -84 234q-78 63 -248 63h-469v-602z" />
<glyph unicode="&#xdf;" horiz-adv-x="1135" d="M123 0v1032q0 219 92 295t338 78q422 4 422 -313q0 -222 -152 -269q138 -32 191 -151q37 -86 37 -250q-2 -250 -105 -352q-86 -84 -266 -84q-78 0 -207 14v115q88 -11 141 -11q134 0 195 62q74 74 74 254q0 196 -58 264q-65 76 -262 76h-90v114h62q167 3 204 21 q72 37 68 188q-2 103 -45 146q-60 55 -219 55q-148 0 -203 -61.5t-55 -212.5v-1010h-162z" />
<glyph unicode="&#xe0;" horiz-adv-x="1114" d="M66 283q0 114 44 183t132 93q57 14 168 14h421v107q0 98 -40 125q-56 37 -242 37q-208 -2 -238 -47q-14 -15 -30 -103h-158q-2 33 -4 92v7q0 53 31 83q83 84 372 87h15q299 0 389 -80q49 -43 61 -119q6 -47 6 -225v-537h-135l-18 90q-90 -102 -344 -102q-238 0 -334 64.5 t-96 230.5zM240 276q0 -94 43 -124q61 -46 225 -46t231 29q92 39 92 199v127h-311q-176 0 -221 -25q-59 -33 -59 -160zM363 1249l71 99l269 -205l-46 -74z" />
<glyph unicode="&#xe1;" horiz-adv-x="1114" d="M66 283q0 114 44 183t132 93q57 14 168 14h421v107q0 98 -40 125q-56 37 -242 37q-208 -2 -238 -47q-14 -15 -30 -103h-158q-2 33 -4 92v7q0 53 31 83q83 84 372 87h15q299 0 389 -80q49 -43 61 -119q6 -47 6 -225v-537h-135l-18 90q-90 -102 -344 -102q-238 0 -334 64.5 t-96 230.5zM240 276q0 -94 43 -124q61 -46 225 -46t231 29q92 39 92 199v127h-311q-176 0 -221 -25q-59 -33 -59 -160zM406 1143l270 205l70 -99l-291 -180z" />
<glyph unicode="&#xe2;" horiz-adv-x="1114" d="M66 283q0 114 44 183t132 93q57 14 168 14h421v107q0 98 -40 125q-56 37 -242 37q-208 -2 -238 -47q-14 -15 -30 -103h-158q-2 33 -4 92v7q0 53 31 83q83 84 372 87h15q299 0 389 -80q49 -43 61 -119q6 -47 6 -225v-537h-135l-18 90q-90 -102 -344 -102q-238 0 -334 64.5 t-96 230.5zM240 276q0 -94 43 -124q61 -46 225 -46t231 29q92 39 92 199v127h-311q-176 0 -221 -25q-59 -33 -59 -160zM279 1141l262 209l260 -209l-55 -72l-205 152l-205 -152z" />
<glyph unicode="&#xe3;" horiz-adv-x="1114" d="M66 283q0 114 44 183t132 93q57 14 168 14h421v107q0 98 -40 125q-56 37 -242 37q-208 -2 -238 -47q-14 -15 -30 -103h-158q-2 33 -4 92v7q0 53 31 83q83 84 372 87h15q299 0 389 -80q49 -43 61 -119q6 -47 6 -225v-537h-135l-18 90q-90 -102 -344 -102q-238 0 -334 64.5 t-96 230.5zM240 276q0 -94 43 -124q61 -46 225 -46t231 29q92 39 92 199v127h-311q-176 0 -221 -25q-59 -33 -59 -160zM277 1151q71 123 161 123q39 0 125 -39t109 -39q39 0 76 76l79 -51q-71 -125 -159 -125q-39 0 -121 37.5t-113 37.5q-41 0 -78 -71z" />
<glyph unicode="&#xe4;" horiz-adv-x="1114" d="M66 283q0 114 44 183t132 93q57 14 168 14h421v107q0 98 -40 125q-56 37 -242 37q-208 -2 -238 -47q-14 -15 -30 -103h-158q-2 33 -4 92v7q0 53 31 83q83 84 372 87h15q299 0 389 -80q49 -43 61 -119q6 -47 6 -225v-537h-135l-18 90q-90 -102 -344 -102q-238 0 -334 64.5 t-96 230.5zM240 276q0 -94 43 -124q61 -46 225 -46t231 29q92 39 92 199v127h-311q-176 0 -221 -25q-59 -33 -59 -160zM287 1116v135h159v-135h-159zM649 1116v135h160v-135h-160z" />
<glyph unicode="&#xe5;" horiz-adv-x="1114" d="M66 283q0 114 44 183t132 93q57 14 168 14h421v107q0 98 -40 125q-56 37 -242 37q-208 -2 -238 -47q-14 -15 -30 -103h-158q-2 33 -4 92v7q0 53 31 83q83 84 372 87h15q299 0 389 -80q49 -43 61 -119q6 -47 6 -225v-537h-135l-18 90q-90 -102 -344 -102q-238 0 -334 64.5 t-96 230.5zM240 276q0 -94 43 -124q61 -46 225 -46t231 29q92 39 92 199v127h-311q-176 0 -221 -25q-59 -33 -59 -160zM381 1186q0 71 51 114t125 43q73 0 124.5 -43t51.5 -114q0 -72 -51.5 -115t-124.5 -43q-74 0 -125 43t-51 115zM458 1186q0 -88 99 -88q98 0 98 88 q0 90 -98 90q-99 0 -99 -90z" />
<glyph unicode="&#xe6;" horiz-adv-x="1812" d="M66 283q0 112 44 182t132 94q57 14 168 14h409v103q0 94 -41 121q-67 43 -284 43q-154 0 -195 -41q-13 -9 -29 -103h-159q-5 70 -5 92q0 60 31 91q82 82 377 82q166 0 252 -25q127 -37 147 -137q103 164 361 164q274 0 375 -117q77 -90 77 -297q0 -68 -2 -88h-743v-53 q0 -172 51 -230q64 -72 232 -72q217 0 262 46q26 26 35 131h163q5 -90 5 -111q-5 -98 -123 -139q-129 -43 -336 -43q-303 0 -367 172q-65 -174 -407 -174q-238 0 -334 64.5t-96 230.5zM240 276q0 -94 43 -124q61 -46 225 -46q151 0 219 29q92 39 92 199v127h-299 q-176 0 -221 -25q-59 -33 -59 -160zM985 573h586q0 84 -19 142q-41 131 -270 131q-156 0 -222.5 -54.5t-74.5 -218.5z" />
<glyph unicode="&#xe7;" horiz-adv-x="1085" d="M84 496q0 223 68 323q41 62 145 103t268 41q207 0 336 -45q123 -44 123 -140q0 -55 -6 -110h-166q-2 53 -4 69q-6 41 -23 60q-43 49 -243 49q-193 0 -258 -66q-72 -71 -72 -325q0 -213 51 -277q62 -76 277 -74q200 0 243 50q23 24 27 129h166q4 -37 4 -111 q0 -96 -123 -139q-129 -43 -334 -43q-305 0 -401 119q-78 98 -78 387zM440 -285l121 207l96 -53l-139 -193z" />
<glyph unicode="&#xe8;" horiz-adv-x="1104" d="M84 457q0 272 96 383q109 123 385 123q275 0 375 -117q78 -90 78 -314q0 -49 -2 -88h-762v-36q0 -172 51 -230q64 -72 250 -72h9q215 0 253 46q26 30 35 131h164q4 -90 4 -111q-4 -98 -123 -139q-129 -43 -338 -43q-219 0 -323 63q-152 94 -152 404zM258 561h604 q0 96 -18 154q-41 131 -271 131q-211 0 -270 -86q-39 -55 -45 -199zM371 1249l71 99l269 -205l-46 -74z" />
<glyph unicode="&#xe9;" horiz-adv-x="1104" d="M84 457q0 272 96 383q109 123 385 123q275 0 375 -117q78 -90 78 -314q0 -49 -2 -88h-762v-36q0 -172 51 -230q64 -72 250 -72h9q215 0 253 46q26 30 35 131h164q4 -90 4 -111q-4 -98 -123 -139q-129 -43 -338 -43q-219 0 -323 63q-152 94 -152 404zM258 561h604 q0 96 -18 154q-41 131 -271 131q-211 0 -270 -86q-39 -55 -45 -199zM414 1143l270 205l70 -99l-291 -180z" />
<glyph unicode="&#xea;" horiz-adv-x="1104" d="M84 457q0 272 96 383q109 123 385 123q275 0 375 -117q78 -90 78 -314q0 -49 -2 -88h-762v-36q0 -172 51 -230q64 -72 250 -72h9q215 0 253 46q26 30 35 131h164q4 -90 4 -111q-4 -98 -123 -139q-129 -43 -338 -43q-219 0 -323 63q-152 94 -152 404zM258 561h604 q0 96 -18 154q-41 131 -271 131q-211 0 -270 -86q-39 -55 -45 -199zM314 1141l262 209l260 -209l-55 -72l-205 152l-205 -152z" />
<glyph unicode="&#xeb;" horiz-adv-x="1104" d="M84 457q0 272 96 383q109 123 385 123q275 0 375 -117q78 -90 78 -314q0 -49 -2 -88h-762v-36q0 -172 51 -230q64 -72 250 -72h9q215 0 253 46q26 30 35 131h164q4 -90 4 -111q-4 -98 -123 -139q-129 -43 -338 -43q-219 0 -323 63q-152 94 -152 404zM258 561h604 q0 96 -18 154q-41 131 -271 131q-211 0 -270 -86q-39 -55 -45 -199zM316 1116v135h159v-135h-159zM678 1116v135h160v-135h-160z" />
<glyph unicode="&#xec;" horiz-adv-x="508" d="M-2 838v114h387v-952h-162v838h-225zM23 1249l71 99l269 -205l-46 -74z" />
<glyph unicode="&#xed;" horiz-adv-x="508" d="M-2 838v114h387v-952h-162v838h-225zM27 1143l270 205l70 -99l-291 -180z" />
<glyph unicode="&#xee;" horiz-adv-x="508" d="M-2 838v114h387v-952h-162v838h-225zM-55 1141l262 209l260 -209l-55 -72l-205 152l-205 -152z" />
<glyph unicode="&#xef;" horiz-adv-x="508" d="M-2 838v114h387v-952h-162v838h-225zM-49 1116v135h159v-135h-159zM313 1116v135h160v-135h-160z" />
<glyph unicode="&#xf0;" horiz-adv-x="1120" d="M84 475q0 299 96 394.5t381 95.5q86 0 139 -15l-172 203l-174 -96l-47 86l156 86l-113 133h164l61 -72l136 76l47 -86l-117 -66l283 -327q73 -86 98 -195q14 -69 14 -217q0 -293 -93 -389t-382 -96t-383 96t-94 389zM252 475q0 -242 52 -306.5t257 -64.5t256 64.5 t51 306.5q0 244 -45 303q-51 70 -262 70q-201 0 -255 -63.5t-54 -309.5z" />
<glyph unicode="&#xf1;" horiz-adv-x="1145" d="M123 0v952h145l13 -75q63 43 112 59q88 31 236 31q342 0 383 -217q12 -66 12 -203v-547h-162v520q0 139 -9 189.5t-40 76.5q-59 52 -225 52q-90 0 -187 -17q-53 -8 -116 -28v-793h-162zM297 1151q71 123 161 123q39 0 125 -39t109 -39q39 0 76 76l79 -51 q-71 -125 -159 -125q-39 0 -121 37.5t-113 37.5q-41 0 -78 -71z" />
<glyph unicode="&#xf2;" horiz-adv-x="1120" d="M84 475q0 299 96 394.5t381 95.5q293 0 387 -101q88 -96 88 -389t-93 -389t-382 -96t-383 96t-94 389zM252 475q0 -242 52 -306.5t257 -64.5t256 64.5t51 306.5q0 244 -45 303q-51 70 -262 70q-201 0 -255 -63.5t-54 -309.5zM371 1249l71 99l269 -205l-46 -74z" />
<glyph unicode="&#xf3;" horiz-adv-x="1120" d="M84 475q0 299 96 394.5t381 95.5q293 0 387 -101q88 -96 88 -389t-93 -389t-382 -96t-383 96t-94 389zM252 475q0 -242 52 -306.5t257 -64.5t256 64.5t51 306.5q0 244 -45 303q-51 70 -262 70q-201 0 -255 -63.5t-54 -309.5zM420 1143l270 205l70 -99l-291 -180z" />
<glyph unicode="&#xf4;" horiz-adv-x="1120" d="M84 475q0 299 96 394.5t381 95.5q293 0 387 -101q88 -96 88 -389t-93 -389t-382 -96t-383 96t-94 389zM252 475q0 -242 52 -306.5t257 -64.5t256 64.5t51 306.5q0 244 -45 303q-51 70 -262 70q-201 0 -255 -63.5t-54 -309.5zM304 1141l262 209l260 -209l-55 -72l-205 152 l-205 -152z" />
<glyph unicode="&#xf5;" horiz-adv-x="1120" d="M84 475q0 299 96 394.5t381 95.5q293 0 387 -101q88 -96 88 -389t-93 -389t-382 -96t-383 96t-94 389zM252 475q0 -242 52 -306.5t257 -64.5t256 64.5t51 306.5q0 244 -45 303q-51 70 -262 70q-201 0 -255 -63.5t-54 -309.5zM277 1151q71 123 161 123q39 0 125 -39 t109 -39q39 0 76 76l79 -51q-71 -125 -159 -125q-39 0 -121 37.5t-113 37.5q-41 0 -78 -71z" />
<glyph unicode="&#xf6;" horiz-adv-x="1120" d="M84 475q0 299 96 394.5t381 95.5q293 0 387 -101q88 -96 88 -389t-93 -389t-382 -96t-383 96t-94 389zM252 475q0 -242 52 -306.5t257 -64.5t256 64.5t51 306.5q0 244 -45 303q-51 70 -262 70q-201 0 -255 -63.5t-54 -309.5zM310 1116v135h159v-135h-159zM672 1116v135 h160v-135h-160z" />
<glyph unicode="&#xf7;" d="M219 616v129h942v-129h-942zM594 184v191h190v-191h-190zM594 987v191h190v-191h-190z" />
<glyph unicode="&#xf8;" horiz-adv-x="1120" d="M84 475q6 287 86 379q96 111 399 111q267 0 371 -101q70 -67 88 -184q10 -59 8 -205q-4 -274 -84 -371q-96 -114 -383 -114q-288 0 -395 98q-96 90 -90 387zM252 475q0 -102 6 -194l569 487q-39 80 -258 80q-200 0 -258.5 -65.5t-58.5 -307.5zM295 188q24 -84 274 -84 q197 0 248 68q47 61 53 303q2 98 -4 197z" />
<glyph unicode="&#xf9;" horiz-adv-x="1145" d="M121 410v542h162v-512v1l2 -117q2 -117 53 -162q61 -53 231 -53q97 0 185 12q55 8 106 18v813h162v-897q-115 -26 -221 -43q-154 -20 -248 -20q-217 0 -316.5 65.5t-109.5 210.5q-6 80 -6 142zM379 1249l71 99l269 -205l-46 -74z" />
<glyph unicode="&#xfa;" horiz-adv-x="1145" d="M121 410v542h162v-512v1l2 -117q2 -117 53 -162q61 -53 231 -53q97 0 185 12q55 8 106 18v813h162v-897q-115 -26 -221 -43q-154 -20 -248 -20q-217 0 -316.5 65.5t-109.5 210.5q-6 80 -6 142zM443 1143l270 205l70 -99l-291 -180z" />
<glyph unicode="&#xfb;" horiz-adv-x="1145" d="M121 410v542h162v-512v1l2 -117q2 -117 53 -162q61 -53 231 -53q97 0 185 12q55 8 106 18v813h162v-897q-115 -26 -221 -43q-154 -20 -248 -20q-217 0 -316.5 65.5t-109.5 210.5q-6 80 -6 142zM316 1141l262 209l260 -209l-55 -72l-205 152l-205 -152z" />
<glyph unicode="&#xfc;" horiz-adv-x="1145" d="M121 410v542h162v-512v1l2 -117q2 -117 53 -162q61 -53 231 -53q97 0 185 12q55 8 106 18v813h162v-897q-115 -26 -221 -43q-154 -20 -248 -20q-217 0 -316.5 65.5t-109.5 210.5q-6 80 -6 142zM312 1116v135h159v-135h-159zM674 1116v135h160v-135h-160z" />
<glyph unicode="&#xfd;" horiz-adv-x="975" d="M8 952h166l279 -848h79l273 848h162l-371 -1116q-25 -72 -47.5 -125t-54.5 -80q-50 -39 -156 -39q-82 0 -141 9v125h47q112 0 143 18q35 27 76 152l35 104h-154zM353 1143l270 205l70 -99l-291 -180z" />
<glyph unicode="&#xfe;" horiz-adv-x="1135" d="M123 -399v1761h162v-453q80 35 178 49q74 11 131 11q231 0 344 -102.5t113 -387.5q0 -286 -113 -387.5t-344 -101.5q-57 0 -131 10q-98 12 -178 47v-446h-162zM285 137q12 -2 32 -6q117 -18 224 -18q127 0 200 28q107 41 127 205q9 55 9 135q0 123 -21 193 q-33 108 -115 141q-73 29 -200 29q-109 0 -224 -19q-8 -2 -32 -6v-682z" />
<glyph unicode="&#xff;" horiz-adv-x="975" d="M8 952h166l279 -848h79l273 848h162l-371 -1116q-25 -72 -47.5 -125t-54.5 -80q-50 -39 -156 -39q-82 0 -141 9v125h47q112 0 143 18q35 27 76 152l35 104h-154zM230 1116v135h159v-135h-159zM592 1116v135h160v-135h-160z" />
<glyph unicode="&#x131;" horiz-adv-x="508" d="M-2 838v114h387v-952h-162v838h-225z" />
<glyph unicode="&#x2c7;" horiz-adv-x="657" d="M68 1280l57 70l205 -152l205 152l55 -70l-260 -211z" />
<glyph unicode="&#x2da;" horiz-adv-x="487" d="M68 1186q0 71 51 114t125 43q73 0 124.5 -43t51.5 -114q0 -72 -51.5 -115t-124.5 -43q-74 0 -125 43t-51 115zM145 1186q0 -88 99 -88q98 0 98 88q0 90 -98 90q-99 0 -99 -90z" />
<glyph unicode="&#xe000;" horiz-adv-x="950" d="M0 950h950v-950h-950v950z" />
<glyph unicode="&#xfb01;" horiz-adv-x="1108" d="M598 838v114h387v-952h-162v838h-225zM823 1200v162h162v-162h-162zM0 838v114h164v150q0 94 16 143q21 72 86 113q76 47 260 47q68 0 133 -6v-115q-112 4 -127 4q-131 0 -170 -39q-28 -28 -34 -100q-2 -16 -2 -131v-66h327l-37 -114h-290v-838h-162v838h-164z" />
<glyph unicode="&#xfb02;" horiz-adv-x="1108" d="M598 1247v115h387v-1362h-162v1247h-225zM0 838v114h164v150q0 94 16 143q21 72 86 113q76 47 260 47q68 0 133 -6v-115q-112 4 -127 4q-131 0 -170 -39q-28 -28 -34 -100q-2 -16 -2 -131v-66h327l-37 -114h-290v-838h-162v838h-164z" />
<glyph unicode="&#xfb03;" horiz-adv-x="1708" d="M1198 838v114h387v-952h-162v838h-225zM1423 1200v162h162v-162h-162zM600 838v114h164v150q0 94 16 143q21 72 86 113q76 47 260 47q68 0 133 -6v-115q-112 4 -127 4q-131 0 -170 -39q-28 -28 -34 -100q-2 -16 -2 -131v-66h327l-37 -114h-290v-838h-162v838h-164zM0 838 v114h164v150q0 94 16 143q21 72 86 113q76 47 260 47q68 0 133 -6v-115q-112 4 -127 4q-131 0 -170 -39q-28 -28 -34 -100q-2 -16 -2 -131v-66h327l-37 -114h-290v-838h-162v838h-164z" />
<glyph unicode="&#xfb04;" horiz-adv-x="1708" d="M1198 1247v115h387v-1362h-162v1247h-225zM600 838v114h164v150q0 94 16 143q21 72 86 113q76 47 260 47q68 0 133 -6v-115q-112 4 -127 4q-131 0 -170 -39q-28 -28 -34 -100q-2 -16 -2 -131v-66h327l-37 -114h-290v-838h-162v838h-164zM0 838v114h164v150q0 94 16 143 q21 72 86 113q76 47 260 47q68 0 133 -6v-115q-112 4 -127 4q-131 0 -170 -39q-28 -28 -34 -100q-2 -16 -2 -131v-66h327l-37 -114h-290v-838h-162v838h-164z" />
</font>
</defs>
</svg>
