<?xml version="1.0" encoding="UTF-8"?>
<svg xmlns="http://www.w3.org/2000/svg" xmlns:xlink="http://www.w3.org/1999/xlink" version="1.2" >
<font id="DanskeNarrow Italic">
<font-face  font-family="DanskeNarrow" units-per-em="1000" ascent="665" descent="-196" font-style="italic" font-weight="400" font-stretch="semi-condensed" slope="-9" cap-height="665" x-height="465" underline-position="-123" underline-thickness="20" />
<missing-glyph  horiz-adv-x="127" d="" />
<glyph glyph-name="NULL" d="" />
<glyph glyph-name="nonmarkingreturn" unicode="&#xd;" horiz-adv-x="241" d="" />
<glyph glyph-name="space" unicode="&#x20;" horiz-adv-x="241" d="" />
<glyph glyph-name="Thorn" unicode="&#xde;" horiz-adv-x="578" d="M529 352 Q512 247 455.5 193.5 Q399 140 294 140 L116 140 L93 0 L15 0 L124 665 L202 665 L186 567 L364 567 Q469 567 507.5 512 Q546 457 529 352 Z M449 352 Q462 434 435.5 467.5 Q409 501 348 501 L175 501 L127 207 L299 207 Q332 207 357 214 Q382 221 400 238 Q418 255 430 283 Q442 311 449 352 Z " />
<glyph glyph-name="thorn" unicode="&#xfe;" horiz-adv-x="469" d="M420 232 Q408 158 392 112 Q376 66 352 40 Q328 14 293.5 4.5 Q259 -5 211 -5 Q169 -5 143 5 Q117 15 102 25 L66 -196 L-5 -196 L135 665 L207 665 Q197 604 187 543 Q177 482 167 421 Q185 441 216.5 456.5 Q248 472 296 472 Q341 472 370.5 462.5 Q400 453 415 427 Q430 401 431 354 Q432 307 420 232 Z M347 232 Q356 286 356.5 321.5 Q357 357 348.5 377 Q340 397 322.5 405 Q305 413 278 413 Q245 413 221 405 Q197 397 176 380 Q165 371 159 354.5 Q153 338 150 319 L109 69 Q132 63 154.5 60 Q177 57 212 57 Q244 57 266 65.5 Q288 74 303.5 94 Q319 114 329 147.5 Q339 181 347 232 Z " />
<glyph glyph-name="onehalf" unicode="&#xbd;" horiz-adv-x="816" d="M170 0 L101 0 L611 665 L681 665 L170 0 Z M77 284 L84 331 L145 331 L191 613 L119 598 L127 649 L208 665 L265 665 L210 331 L267 331 L260 284 L77 284 Z M735 275 Q725 216 699 191.5 Q673 167 627 160 L549 148 Q532 145 521.5 138.5 Q511 132 504.5 120.5 Q498 109 494 92 Q490 75 486 51 L693 51 L685 0 L412 0 L425 82 Q433 132 460.5 160.5 Q488 189 539 196 L611 206 Q637 210 649 222.5 Q661 235 668 274 Q673 306 660 320 Q647 334 605 334 Q582 334 568 331.5 Q554 329 546 323 Q538 317 534.5 306 Q531 295 528 278 L466 278 L466 292 Q466 298 466.5 305 Q467 312 468 319 Q471 334 478.5 346 Q486 358 502.5 366.5 Q519 375 545.5 379.5 Q572 384 613 384 Q652 384 678 378 Q704 372 718 359.5 Q732 347 736 326 Q740 305 735 275 Z " />
<glyph glyph-name="onequarter" unicode="&#xbc;" horiz-adv-x="813" d="M685 88 L640 88 L626 0 L562 0 L576 88 L364 88 L375 154 Q376 154 377.5 156 Q379 158 385 164.5 Q391 171 403 184.5 Q415 198 437 223.5 Q459 249 492.5 287 Q526 325 575 381 L688 381 L648 136 L714 136 L685 88 Z M171 0 L103 0 L613 665 L683 665 L171 0 Z M77 284 L84 331 L145 331 L191 613 L119 598 L127 649 L208 665 L265 665 L210 331 L267 331 L260 284 L77 284 Z M584 136 Q594 194 600 230 Q606 266 609.5 287 Q613 308 614.5 318 Q616 328 617 336 L604 336 L433 148 L431 136 L584 136 Z " />
<glyph glyph-name="onesuperior" unicode="&#xb9;" horiz-adv-x="388" d="M74 284 L82 332 L144 332 L190 613 L117 598 L125 649 L206 665 L263 665 L208 332 L265 332 L257 284 L74 284 Z " />
<glyph glyph-name="threequarters" unicode="&#xbe;" horiz-adv-x="804" d="M203 0 L135 0 L644 665 L714 665 L203 0 Z M345 396 Q339 363 327.5 340.5 Q316 318 296.5 304.5 Q277 291 248.5 285.5 Q220 280 180 280 Q101 280 74.5 297 Q48 314 53 347 Q54 352 54.5 357 Q55 362 57 367 Q58 372 60 377 L125 377 Q120 348 131.5 338.5 Q143 329 188 329 Q211 329 227 332 Q243 335 253.5 342.5 Q264 350 270 363 Q276 376 279 396 Q281 411 281 422 Q281 433 276 440 Q271 447 258.5 450.5 Q246 454 224 454 L177 454 L185 501 L309 610 L310 616 L168 616 L161 575 L98 575 L113 665 L382 665 L371 601 L255 505 L255 504 Q284 503 303.5 498.5 Q323 494 334 482 Q345 470 347.5 449.5 Q350 429 345 396 Z M706 88 L661 88 L647 0 L582 0 L596 88 L385 88 L396 154 Q444 207 493 262 Q542 317 595 381 L709 381 L669 136 L733 136 L706 88 Z M626 267 Q629 286 632 304 Q635 322 637 336 L625 336 Q608 319 592 300.5 Q576 282 557 262 L453 148 L451 136 L604 136 L626 267 Z " />
<glyph glyph-name="threesuperior" unicode="&#xb3;" horiz-adv-x="374" d="M314 395 Q309 362 297.5 340 Q286 318 266.5 304.5 Q247 291 218 285 Q189 279 149 279 Q110 279 84 283.5 Q58 288 43.5 296.5 Q29 305 24 317.5 Q19 330 22 346 Q23 355 27 366 Q29 371 30 376 L94 376 Q89 347 100.5 338 Q112 329 157 329 Q181 329 196.5 332 Q212 335 222.5 342.5 Q233 350 239 362.5 Q245 375 248 395 Q250 410 250.5 421 Q251 432 246 439.5 Q241 447 228.5 450.5 Q216 454 194 454 L147 454 L154 501 L278 610 L279 616 L137 616 L130 575 L67 575 L82 665 L351 665 L341 601 L224 504 Q253 503 272.5 498.5 Q292 494 303 482 Q314 470 316.5 449 Q319 428 314 395 Z " />
<glyph glyph-name="twosuperior" unicode="&#xb2;" horiz-adv-x="369" d="M341 559 Q331 500 305 475.5 Q279 451 233 444 L154 432 Q137 430 126.5 423.5 Q116 417 110 405.5 Q104 394 100 376.5 Q96 359 92 335 L299 335 L291 284 L18 284 L31 366 Q39 416 66 444.5 Q93 473 146 480 L218 490 Q244 493 255.5 506 Q267 519 274 558 Q279 590 266 604 Q253 618 211 618 Q188 618 174 615.5 Q160 613 152 607 Q144 601 140.5 590 Q137 579 134 562 L72 562 L72 576 Q72 582 72.5 589 Q73 596 74 603 Q77 618 84.5 630 Q92 642 108.5 650.5 Q125 659 151.5 663.5 Q178 668 219 668 Q297 668 324 643.5 Q351 619 341 559 Z " />
<glyph glyph-name="brokenbar" unicode="&#xa6;" horiz-adv-x="197" d="M63 334 L63 665 L129 665 L129 334 L63 334 Z M63 -175 L63 148 L129 148 L129 -175 L63 -175 Z " />
<glyph glyph-name="minus" unicode="&#x2212;" horiz-adv-x="588" d="M50 297 L50 359 L537 359 L537 297 L50 297 Z " />
<glyph glyph-name="multiply" unicode="&#xd7;" horiz-adv-x="651" d="M476 121 L326 286 L177 121 L134 167 L283 332 L134 497 L177 543 L326 379 L476 543 L518 498 L368 332 L518 167 L476 121 Z " />
<glyph glyph-name="lslash" unicode="&#x142;" horiz-adv-x="247" d="M42 0 L85 266 L2 194 L14 268 L97 340 L142 609 L53 609 L62 665 L223 665 L181 412 L262 481 L250 407 L169 338 L114 0 L42 0 Z " />
<glyph glyph-name="exclam" unicode="&#x21;" horiz-adv-x="230" d="M119 183 L51 183 L124 665 L206 665 L119 183 Z M15 0 L30 91 L112 91 L97 0 L15 0 Z " />
<glyph glyph-name="quotedbl" unicode="&#x22;" horiz-adv-x="264" d="M68 399 L18 399 L51 665 L118 665 L68 399 Z M197 399 L147 399 L183 665 L246 665 L197 399 Z " />
<glyph glyph-name="numbersign" unicode="&#x23;" horiz-adv-x="589" d="M529 405 L414 405 L368 262 L484 262 L467 209 L351 209 L284 0 L226 0 L294 209 L187 209 L120 0 L64 0 L131 209 L26 209 L44 262 L148 262 L193 405 L89 405 L106 458 L210 458 L277 665 L334 665 L268 458 L374 458 L441 665 L499 665 L432 458 L547 458 L529 405 Z M250 405 L204 262 L311 262 L357 405 L250 405 Z " />
<glyph glyph-name="percent" unicode="&#x25;" horiz-adv-x="782" d="M171 0 L103 0 L611 665 L682 665 L171 0 Z M345 505 Q337 456 327 423 Q317 390 299.5 369.5 Q282 349 254 340.5 Q226 332 182 332 Q117 332 92.5 352.5 Q68 373 68 424 Q68 441 70 461 Q72 481 76 505 Q84 554 95 586 Q106 618 124 636.5 Q142 655 170 662 Q198 669 240 669 Q304 669 329 651.5 Q354 634 354 587 Q354 570 351.5 550 Q349 530 345 505 Z M281 505 Q289 551 289 574 Q289 600 276.5 611.5 Q264 623 232 623 Q209 623 193.5 618 Q178 613 168 599.5 Q158 586 151.5 563 Q145 540 139 505 Q136 485 134 468.5 Q132 452 132 439 Q132 408 145 394.5 Q158 381 190 381 Q214 381 229 387.5 Q244 394 254 409 Q264 424 269.5 447.5 Q275 471 281 505 Z M705 165 Q697 116 687 83 Q677 50 659.5 29.5 Q642 9 614 0.5 Q586 -8 542 -8 Q477 -8 452.5 12.5 Q428 33 428 84 Q428 101 430 121 Q432 141 436 165 Q444 214 455 246 Q466 278 484 296.5 Q502 315 530 322 Q558 329 600 329 Q664 329 689 311.5 Q714 294 714 248 Q714 216 705 165 Z M641 165 Q645 187 647.5 204 Q650 221 650 235 Q650 261 637.5 272 Q625 283 593 283 Q570 283 554.5 278 Q539 273 528.5 259.5 Q518 246 511.5 223 Q505 200 499 165 Q496 145 494 128.5 Q492 112 492 99 Q492 68 505 54.5 Q518 41 550 41 Q574 41 589 47.5 Q604 54 614 69 Q624 84 630 107.5 Q636 131 641 165 Z " />
<glyph glyph-name="ampersand" unicode="&#x26;" horiz-adv-x="634" d="M480 0 L431 51 Q418 38 399.5 27.5 Q381 17 355.5 9.5 Q330 2 295.5 -2.5 Q261 -7 216 -7 Q159 -7 119.5 0.5 Q80 8 55.5 23.5 Q31 39 20.5 64 Q10 89 10 124 Q10 137 11.5 151 Q13 165 15 180 Q22 224 34.5 256 Q47 288 67 310.5 Q87 333 116 347.5 Q145 362 184 370 Q157 405 142 433 Q127 461 127 496 Q127 503 127 509.5 Q127 516 129 524 Q141 597 187 634 Q233 671 326 671 Q404 671 439 644.5 Q474 618 474 557 Q474 546 472.5 532.5 Q471 519 469 505 Q463 467 450.5 440.5 Q438 414 417 396 Q396 378 364.5 365.5 Q333 353 289 342 L431 185 Q432 188 435 201 Q438 214 441 231.5 Q444 249 446.5 266 Q449 283 451 293 L521 293 L507 207 Q502 176 494.5 150 Q487 124 478 112 L570 0 L480 0 Z M387 506 Q389 517 390 527 Q391 537 391 545 Q391 583 373 598.5 Q355 614 318 614 Q266 614 241.5 593 Q217 572 209 526 Q208 519 207.5 513 Q207 507 207 501 Q207 477 215 457.5 Q223 438 238 419 L259 392 L297 400 Q339 410 359 434.5 Q379 459 387 506 Z M215 315 Q186 309 166.5 299 Q147 289 133.5 273 Q120 257 112 234 Q104 211 98 178 Q93 150 93 133 Q93 113 99 98 Q105 83 120.5 73.5 Q136 64 162 59.5 Q188 55 228 55 Q292 55 333 65.5 Q374 76 394 110 L215 315 Z " />
<glyph glyph-name="quotesingle" unicode="&#x27;" horiz-adv-x="131" d="M68 399 L17 399 L47 665 L121 665 L68 399 Z " />
<glyph glyph-name="parenleft" unicode="&#x28;" horiz-adv-x="254" d="M90 -42 Q87 -63 87 -78 Q87 -110 102 -125 Q117 -140 152 -142 L142 -201 L129 -201 Q68 -201 41 -181 Q14 -161 14 -101 Q14 -84 16 -63.5 Q18 -43 22 -18 L105 488 Q114 544 126.5 579.5 Q139 615 158.5 635.5 Q178 656 205.5 663.5 Q233 671 272 671 L285 671 L275 612 Q232 609 210.5 587 Q189 565 181 512 L90 -42 Z " />
<glyph glyph-name="parenright" unicode="&#x29;" horiz-adv-x="254" d="M-26 -142 Q16 -139 38 -117 Q60 -95 68 -42 L159 512 Q162 531 162 547 Q162 579 146.5 594.5 Q131 610 96 612 L106 671 L119 671 Q180 671 207 650.5 Q234 630 234 571 Q234 554 232 533.5 Q230 513 226 488 L143 -18 Q134 -74 121.5 -110 Q109 -146 89.5 -166 Q70 -186 43 -193.5 Q16 -201 -23 -201 L-36 -201 L-26 -142 Z " />
<glyph glyph-name="asterisk" unicode="&#x2a;" horiz-adv-x="440" d="M245 475 L320 358 L282 332 L209 450 L130 332 L93 358 L170 475 L47 525 L63 568 L186 519 L186 665 L231 665 L231 519 L354 568 L370 525 L245 475 Z " />
<glyph glyph-name="plus" unicode="&#x2b;" horiz-adv-x="588" d="M324 297 L324 98 L262 98 L262 297 L84 297 L84 360 L262 360 L262 558 L324 558 L324 360 L502 360 L502 297 L324 297 Z " />
<glyph glyph-name="comma" unicode="&#x2c;" horiz-adv-x="162" d="M66 -109 L17 -109 L75 0 L39 0 L52 82 L139 82 L126 0 L66 -109 Z " />
<glyph glyph-name="hyphen" unicode="&#x2d;" horiz-adv-x="373" d="M30 212 L41 274 L341 274 L330 212 L30 212 Z " />
<glyph glyph-name="period" unicode="&#x2e;" horiz-adv-x="162" d="M30 0 L43 82 L131 82 L118 0 L30 0 Z " />
<glyph glyph-name="slash" unicode="&#x2f;" horiz-adv-x="397" d="M-57 -198 L390 665 L446 665 L-1 -198 L-57 -198 Z " />
<glyph glyph-name="colon" unicode="&#x3a;" horiz-adv-x="162" d="M5 0 L19 83 L104 83 L90 0 L5 0 Z M48 264 L62 347 L147 347 L133 264 L48 264 Z " />
<glyph glyph-name="semicolon" unicode="&#x3b;" horiz-adv-x="162" d="M57 264 L71 347 L157 347 L143 264 L57 264 Z M40 -109 L-7 -109 L50 0 L14 0 L27 82 L113 82 L100 0 L40 -109 Z " />
<glyph glyph-name="less" unicode="&#x3c;" horiz-adv-x="589" d="M103 304 L103 360 L468 560 L468 485 L175 332 L468 179 L468 103 L103 304 Z " />
<glyph glyph-name="equal" unicode="&#x3d;" horiz-adv-x="517" d="M80 219 L80 281 L437 281 L437 219 L80 219 Z M80 385 L80 447 L437 447 L437 385 L80 385 Z " />
<glyph glyph-name="greater" unicode="&#x3e;" horiz-adv-x="589" d="M103 103 L103 179 L401 332 L103 485 L103 560 L468 360 L468 303 L103 103 Z " />
<glyph glyph-name="question" unicode="&#x3f;" horiz-adv-x="458" d="M441 501 Q433 456 424.5 426 Q416 396 402 375 Q388 354 366 339.5 Q344 325 308 312 Q277 301 259.5 290 Q242 279 232 266.5 Q222 254 218 238 Q214 222 210 200 L131 200 Q132 207 133 214 Q134 220 135 227.5 Q136 235 138 243 Q141 259 148 273 Q155 287 169.5 300.5 Q184 314 207 327.5 Q230 341 265 356 Q292 367 309 377.5 Q326 388 336.5 403.5 Q347 419 353.5 442 Q360 465 366 501 Q368 514 369 525 Q370 536 370 545 Q370 588 345.5 600.5 Q321 613 265 613 Q232 613 210 609.5 Q188 606 174.5 598.5 Q161 591 154 579.5 Q147 568 144 552 L135 509 L63 509 Q63 539 68.5 571 Q74 603 97 626 Q121 651 165 661 Q209 671 279 671 Q323 671 355 666.5 Q387 662 407.5 650 Q428 638 437.5 617 Q447 596 447 563 Q447 537 441 501 Z M97 0 L110 80 L192 80 L179 0 L97 0 Z " />
<glyph glyph-name="at" unicode="&#x40;" horiz-adv-x="613" d="M560 337 Q560 281 554 244 Q548 207 535 184 Q522 161 502 151.5 Q482 142 454 142 Q422 142 400.5 153.5 Q379 165 368 185 L367 185 Q362 165 344 153.5 Q326 142 290 142 Q258 142 236.5 149 Q215 156 202.5 176.5 Q190 197 185 235.5 Q180 274 180 337 Q180 393 185 428.5 Q190 464 201.5 483.5 Q213 503 231.5 510 Q250 517 278 517 Q331 517 349 488 L349 515 L421 515 L421 255 Q421 220 429.5 208.5 Q438 197 453 197 Q462 197 468.5 201.5 Q475 206 479 220.5 Q483 235 485 263 Q487 291 487 338 Q487 421 481 473.5 Q475 526 456 556 Q437 586 400.5 597.5 Q364 609 304 609 Q248 609 213 600 Q178 591 158.5 562.5 Q139 534 131.5 480.5 Q124 427 124 337 Q124 250 129.5 194 Q135 138 152.5 106 Q170 74 203.5 61.5 Q237 49 294 49 Q331 49 356 51 Q381 53 398 57.5 Q415 62 426.5 70.5 Q438 79 447 92 L500 53 Q489 37 475.5 25.5 Q462 14 439.5 7 Q417 0 382 -3.5 Q347 -7 294 -7 Q214 -7 166.5 9 Q119 25 93 64.5 Q67 104 59 170.5 Q51 237 51 337 Q51 440 60.5 504.5 Q70 569 98 604 Q126 639 175 651.5 Q224 664 304 664 Q379 664 428 654 Q477 644 506.5 610 Q536 576 548 511 Q560 446 560 337 Z M348 270 Q348 278 348.5 287.5 Q349 297 349 308 L349 445 Q340 453 330.5 456 Q321 459 304 459 Q290 459 281 454.5 Q272 450 266.5 437 Q261 424 258.5 400 Q256 376 256 337 Q256 289 258.5 261.5 Q261 234 267 219.5 Q273 205 283.5 201 Q294 197 309 197 Q330 197 338.5 213.5 Q347 230 348 270 Z " />
<glyph glyph-name="A" unicode="A" horiz-adv-x="598" d="M457 0 L429 165 L113 165 L31 0 L-48 0 L284 665 L424 665 L537 0 L457 0 Z M356 605 L331 605 L139 225 L424 225 L356 605 Z " />
<glyph glyph-name="B" unicode="B" horiz-adv-x="594" d="M426 342 Q468 334 494 306 Q520 278 520 224 Q520 205 517 184 Q501 87 445 43.5 Q389 0 284 0 L15 0 L124 665 L402 665 Q483 665 519 635 Q555 605 555 544 Q555 533 554 521.5 Q553 510 551 497 Q542 438 511 396.5 Q480 355 427 347 L426 342 Z M472 494 Q475 513 475 528 Q475 570 450.5 584.5 Q426 599 378 599 L190 599 L153 375 L347 375 Q373 375 393.5 380 Q414 385 429.5 398.5 Q445 412 455.5 435 Q466 458 472 494 Z M439 184 Q441 196 442 205.5 Q443 215 443 223 Q443 268 418.5 288.5 Q394 309 342 309 L143 309 L103 66 L292 66 Q323 66 348 71 Q373 76 391 89.5 Q409 103 421 126 Q433 149 439 184 Z " />
<glyph glyph-name="C" unicode="C" horiz-adv-x="586" d="M496 111 Q491 78 471 55.5 Q451 33 419 19.5 Q387 6 345.5 0 Q304 -6 255 -6 Q195 -6 153 0.5 Q111 7 84.5 25.5 Q58 44 46 77.5 Q34 111 34 164 Q34 197 38.5 238.5 Q43 280 51 332 Q69 443 91.5 510 Q114 577 149.5 613 Q185 649 237 660.5 Q289 672 366 672 Q477 672 523 650 Q569 628 569 576 Q569 558 563.5 530 Q558 502 551 479 L476 479 Q481 502 483.5 519.5 Q486 537 486 549 Q486 564 480.5 575 Q475 586 460 592.5 Q445 599 419 602.5 Q393 606 352 606 Q297 606 261 598 Q225 590 201 561.5 Q177 533 160.5 478.5 Q144 424 129 332 Q121 284 117 247 Q113 210 113 181 Q113 141 121.5 117 Q130 93 148.5 80.5 Q167 68 196.5 64 Q226 60 267 60 Q306 60 333 63 Q360 66 377 73 Q394 80 403 91 Q412 102 415 118 L431 187 L507 187 Q505 172 502.5 152.5 Q500 133 496 111 Z " />
<glyph glyph-name="D" unicode="D" horiz-adv-x="595" d="M532 274 Q509 130 436.5 65 Q364 0 234 0 L15 0 L124 665 L343 665 Q452 665 505.5 620 Q559 575 559 474 Q559 455 557 433.5 Q555 412 551 389 L532 274 Z M474 389 Q480 428 480 461 Q480 532 445.5 565.5 Q411 599 332 599 L190 599 L103 66 L245 66 Q289 66 324 76 Q359 86 384.5 110 Q410 134 427.5 174 Q445 214 455 274 L474 389 Z " />
<glyph glyph-name="E" unicode="E" horiz-adv-x="500" d="M15 0 L124 665 L516 665 L505 599 L191 599 L154 373 L443 373 L406 308 L143 308 L104 66 L418 66 L407 0 L15 0 Z " />
<glyph glyph-name="F" unicode="F" horiz-adv-x="476" d="M191 599 L154 373 L436 373 L399 308 L143 308 L93 0 L15 0 L124 665 L498 665 L487 599 L191 599 Z " />
<glyph glyph-name="G" unicode="G" horiz-adv-x="604" d="M453 281 L321 281 L331 343 L536 343 L480 0 L415 0 L417 44 L412 44 Q389 18 350 5.5 Q311 -7 240 -7 Q185 -7 146 1 Q107 9 82 28.5 Q57 48 45.5 81.5 Q34 115 34 167 Q34 200 38.5 240.5 Q43 281 51 332 Q69 441 91 508 Q113 575 147.5 611.5 Q182 648 232.5 660 Q283 672 357 672 Q418 672 459.5 666.5 Q501 661 526.5 649.5 Q552 638 562.5 620.5 Q573 603 573 579 Q573 570 571 557 Q569 544 566.5 530 Q564 516 561 502.5 Q558 489 556 479 L482 479 Q487 504 489.5 522.5 Q492 541 492 548 Q492 561 486 572 Q480 583 463.5 590 Q447 597 419 601 Q391 605 346 605 Q295 605 260.5 596 Q226 587 202 558 Q178 529 162 475.5 Q146 422 131 332 Q123 283 118.5 246 Q114 209 114 180 Q114 141 122.5 118 Q131 95 149.5 83 Q168 71 198 67 Q228 63 271 63 Q329 63 363 70.5 Q397 78 423 96 L453 281 Z " />
<glyph glyph-name="H" unicode="H" horiz-adv-x="615" d="M412 0 L462 304 L143 304 L93 0 L15 0 L124 665 L202 665 L154 373 L473 373 L521 665 L599 665 L490 0 L412 0 Z " />
<glyph glyph-name="I" unicode="I" horiz-adv-x="219" d="M15 0 L124 665 L201 665 L92 0 L15 0 Z " />
<glyph glyph-name="J" unicode="J" horiz-adv-x="449" d="M360 185 Q351 129 335 92.5 Q319 56 293 34.5 Q267 13 227.5 4 Q188 -5 133 -5 Q91 -5 62.5 -1 Q34 3 16.5 12 Q-1 21 -8 35.5 Q-15 50 -15 71 Q-15 86 -12 106 Q-10 115 -8.5 126 Q-7 137 -5 146 Q-3 157 0 167 L70 167 Q68 147 66 127.5 Q64 108 64 100 Q64 80 81 69 Q98 58 146 58 Q179 58 202 63.5 Q225 69 240.5 82.5 Q256 96 265.5 120 Q275 144 281 182 L360 665 L438 665 L360 185 Z " />
<glyph glyph-name="K" unicode="K" horiz-adv-x="592" d="M436 0 L202 310 L144 310 L93 0 L15 0 L124 665 L202 665 L154 372 L211 372 L517 665 L607 665 L272 345 L530 0 L436 0 Z " />
<glyph glyph-name="L" unicode="L" horiz-adv-x="461" d="M15 0 L124 665 L202 665 L104 66 L406 66 L395 0 L15 0 Z " />
<glyph glyph-name="M" unicode="M" horiz-adv-x="813" d="M611 0 L708 594 L696 594 L406 0 L304 0 L202 594 L190 594 L93 0 L15 0 L124 665 L272 665 L367 84 L370 84 L650 665 L797 665 L688 0 L611 0 Z " />
<glyph glyph-name="N" unicode="N" horiz-adv-x="664" d="M407 0 L198 597 L187 597 L89 0 L15 0 L124 665 L257 665 L466 67 L476 67 L574 665 L648 665 L539 0 L407 0 Z " />
<glyph glyph-name="O" unicode="O" horiz-adv-x="598" d="M545 332 Q528 229 509 163.5 Q490 98 457.5 60 Q425 22 374 7.5 Q323 -7 243 -7 Q185 -7 145 0.5 Q105 8 80 27 Q55 46 44 78 Q33 110 33 159 Q33 193 38 235.5 Q43 278 51 332 Q68 437 88.5 503.5 Q109 570 142 607.5 Q175 645 225.5 658.5 Q276 672 354 672 Q413 672 453.5 664.5 Q494 657 518.5 638.5 Q543 620 554 589 Q565 558 565 512 Q565 477 559.5 432.5 Q554 388 545 332 Z M467 332 Q475 383 480 422 Q485 461 485 491 Q485 523 478 545 Q471 567 454.5 580.5 Q438 594 410.5 599.5 Q383 605 343 605 Q288 605 253 594.5 Q218 584 195.5 554.5 Q173 525 158.5 471.5 Q144 418 130 332 Q122 281 117.5 242 Q113 203 113 174 Q113 140 120.5 117.5 Q128 95 144.5 82 Q161 69 188 64 Q215 59 254 59 Q312 59 347.5 70 Q383 81 405 111.5 Q427 142 440 195 Q453 248 467 332 Z " />
<glyph glyph-name="P" unicode="P" horiz-adv-x="581" d="M546 455 Q538 405 519.5 365 Q501 325 472 297 Q443 269 403 253.5 Q363 238 311 238 L132 238 L93 0 L15 0 L124 665 L381 665 Q469 665 510 624.5 Q551 584 551 510 Q551 497 549.5 483.5 Q548 470 546 455 Z M466 453 Q468 465 469 475.5 Q470 486 470 496 Q470 553 438 576 Q406 599 344 599 L191 599 L143 305 L296 305 Q338 305 367.5 312.5 Q397 320 416.5 337.5 Q436 355 447.5 383 Q459 411 466 453 Z " />
<glyph glyph-name="Q" unicode="Q" horiz-adv-x="607" d="M507 0 L340 0 Q318 -3 294.5 -4 Q271 -5 243 -5 Q185 -5 145 2.5 Q105 10 80 29 Q55 48 44 80 Q33 112 33 161 Q33 195 38 237 Q43 279 51 332 Q68 437 88.5 503.5 Q109 570 142.5 607.5 Q176 645 226.5 658.5 Q277 672 354 672 Q413 672 453.5 664 Q494 656 518.5 637.5 Q543 619 554 588 Q565 557 565 511 Q565 476 559.5 432 Q554 388 545 332 Q533 259 519.5 210 Q506 161 492.5 130.5 Q479 100 466.5 83.5 Q454 67 443 58 L550 59 L507 0 Z M467 332 Q475 386 480.5 426 Q486 466 486 496 Q486 529 478.5 550.5 Q471 572 454 584.5 Q437 597 410 601.5 Q383 606 343 606 Q289 606 254 595.5 Q219 585 196 555.5 Q173 526 158.5 472.5 Q144 419 130 332 Q122 284 118 246 Q114 208 114 179 Q114 143 121 120 Q128 97 144.5 83 Q161 69 187.5 63.5 Q214 58 253 58 Q311 58 347 70 Q383 82 405 113 Q427 144 440.5 197 Q454 250 467 332 Z " />
<glyph glyph-name="R" unicode="R" horiz-adv-x="572" d="M418 0 L269 277 L137 277 L92 0 L15 0 L124 665 L376 665 Q472 665 514 628 Q556 591 556 523 Q556 511 555 499 Q554 487 552 473 Q544 423 527.5 387.5 Q511 352 486 329 Q461 306 427 294.5 Q393 283 351 281 L510 0 L418 0 Z M472 473 Q475 491 475 507 Q475 556 446.5 577.5 Q418 599 358 599 L190 599 L148 342 L271 342 Q320 342 354.5 344.5 Q389 347 412.5 359.5 Q436 372 450 398.5 Q464 425 472 473 Z " />
<glyph glyph-name="S" unicode="S" horiz-adv-x="537" d="M474 188 Q464 129 443.5 91.5 Q423 54 389.5 32.5 Q356 11 309 2.5 Q262 -6 199 -6 Q144 -6 107.5 0 Q71 6 49 17.5 Q27 29 17.5 45 Q8 61 8 82 Q8 98 13.5 123.5 Q19 149 24 171 L98 171 Q97 164 96 154 Q95 144 94 134.5 Q93 125 92.5 117.5 Q92 110 92 109 Q92 83 116.5 69 Q141 55 208 55 Q256 55 288.5 61.5 Q321 68 342.5 83.5 Q364 99 376.5 124.5 Q389 150 395 189 Q397 201 398 211.5 Q399 222 399 231 Q399 277 375.5 293.5 Q352 310 307 312 L209 318 Q174 320 146 325.5 Q118 331 98.5 344.5 Q79 358 68.5 380.5 Q58 403 58 439 Q58 450 59.5 463 Q61 476 63 490 Q72 543 90 578 Q108 613 138.5 633.5 Q169 654 214.5 662.5 Q260 671 324 671 Q380 671 417 665 Q454 659 476 647.5 Q498 636 507 620 Q516 604 516 584 Q516 579 514.5 568 Q513 557 510.5 544.5 Q508 532 505 518.5 Q502 505 499 495 L424 495 Q426 516 427.5 532.5 Q429 549 429 552 Q429 568 424 579 Q419 590 406 597 Q393 604 371 607.5 Q349 611 315 611 Q268 611 237 605 Q206 599 187 584.5 Q168 570 158.5 547 Q149 524 143 490 Q140 469 140 452 Q140 412 161.5 398.5 Q183 385 231 382 L353 374 Q377 372 400 367 Q423 362 440.5 348.5 Q458 335 468.5 311 Q479 287 479 247 Q479 234 478 219.5 Q477 205 474 188 Z " />
<glyph glyph-name="T" unicode="T" horiz-adv-x="498" d="M508 599 L329 599 L231 0 L155 0 L253 599 L62 599 L73 665 L545 665 L508 599 Z " />
<glyph glyph-name="U" unicode="U" horiz-adv-x="615" d="M497 33 Q445 14 383.5 4 Q322 -6 251 -6 Q198 -6 158.5 0 Q119 6 93 22.5 Q67 39 54 66.5 Q41 94 41 138 Q41 154 43 171.5 Q45 189 48 209 L122 665 L199 665 L125 209 Q123 193 121 177.5 Q119 162 119 152 Q119 128 125.5 110.5 Q132 93 148.5 81.5 Q165 70 192.5 64.5 Q220 59 261 59 Q311 59 350 63 Q389 67 427 75 L523 665 L600 665 L497 33 Z " />
<glyph glyph-name="V" unicode="V" horiz-adv-x="569" d="M292 0 L172 0 L61 665 L141 665 L236 55 L247 55 Q258 79 292 153 Q307 184 328 229.5 Q349 275 378.5 337 Q408 399 446.5 480 Q485 561 534 665 L616 665 L292 0 Z " />
<glyph glyph-name="W" unicode="W" horiz-adv-x="906" d="M668 0 L554 0 L498 603 L495 603 L239 0 L121 0 L62 665 L141 665 L187 56 L191 56 Q204 87 236 164 Q249 197 268.5 242.5 Q288 288 313.5 349 Q339 410 372 488.5 Q405 567 447 665 L567 665 L620 54 L623 54 Q637 91 670 170 Q684 203 703 249 Q722 295 746.5 356 Q771 417 802.5 493.5 Q834 570 873 665 L952 665 L668 0 Z " />
<glyph glyph-name="X" unicode="X" horiz-adv-x="544" d="M577 665 L329 340 L482 0 L396 0 L266 297 L263 297 L39 0 L-47 0 L219 348 L75 665 L160 665 L283 389 L285 389 L490 665 L577 665 Z " />
<glyph glyph-name="Y" unicode="Y" horiz-adv-x="549" d="M161 0 L81 0 L250 241 L194 241 L60 665 L148 665 L249 311 L288 311 L516 665 L597 665 L161 0 Z " />
<glyph glyph-name="Z" unicode="Z" horiz-adv-x="552" d="M439 0 L4 0 L15 68 L465 595 L466 600 L179 600 L164 504 L86 504 L112 665 L558 665 L547 600 L96 72 L95 68 L487 68 L439 0 Z " />
<glyph glyph-name="bracketleft" unicode="&#x5b;" horiz-adv-x="250" d="M-7 -198 L133 665 L282 665 L273 607 L193 607 L71 -139 L151 -139 L141 -198 L-7 -198 Z " />
<glyph glyph-name="backslash" unicode="&#x5c;" horiz-adv-x="397" d="M249 -198 L83 665 L147 665 L313 -198 L249 -198 Z " />
<glyph glyph-name="bracketright" unicode="&#x5d;" horiz-adv-x="248" d="M-39 -198 L-29 -139 L50 -139 L172 607 L92 607 L101 665 L250 665 L109 -198 L-39 -198 Z " />
<glyph glyph-name="asciicircum" unicode="&#x5e;" horiz-adv-x="588" d="M509 370 L427 370 L309 598 L113 370 L31 370 L281 666 L358 666 L509 370 Z " />
<glyph glyph-name="underscore" unicode="&#x5f;" horiz-adv-x="454" d="M17 -130 L28 -67 L436 -67 L425 -130 L17 -130 Z " />
<glyph glyph-name="grave" unicode="&#x60;" horiz-adv-x="217" d="M155 510 L27 607 L71 658 L186 546 L155 510 Z " />
<glyph glyph-name="a" unicode="a" horiz-adv-x="485" d="M389 0 L323 0 L325 50 Q313 33 292 21 Q272 9 248.5 2.5 Q225 -4 190 -4 Q115 -4 77.5 33.5 Q40 71 40 138 Q40 168 43 193 Q46 218 48 232 Q60 308 78.5 352 Q97 396 129 422 Q189 473 305 473 Q353 473 393.5 465.5 Q434 458 462 449 L389 0 Z M383 406 Q370 408 362 409.5 Q354 411 345.5 411.5 Q337 412 326.5 412.5 Q316 413 299 413 Q279 413 257 410 Q235 407 214 399 Q194 391 179.5 378.5 Q165 366 154.5 346.5 Q144 327 136.5 299 Q129 271 123 231 Q121 217 118 192 Q115 167 115 142 Q115 99 140.5 78.5 Q166 58 211 58 Q269 58 301.5 82.5 Q334 107 345 172 L383 406 Z " />
<glyph glyph-name="b" unicode="b" horiz-adv-x="466" d="M418 232 Q406 157 389.5 110 Q373 63 348.5 37.5 Q324 12 288 3 Q252 -6 201 -6 Q155 -6 107.5 -0.5 Q60 5 23 18 L129 665 L201 665 L161 415 Q184 440 217 455 Q250 470 298 470 Q334 470 359 465 Q384 460 400 447 Q416 434 423.5 411.5 Q431 389 431 355 Q431 331 427.5 300.5 Q424 270 418 232 Z M344 232 Q356 305 356 341 Q356 363 351.5 376 Q347 389 338 395.5 Q329 402 314.5 404 Q300 406 281 406 Q241 406 213.5 397.5 Q186 389 169 375 Q159 367 153 350 Q147 333 143 309 L102 59 Q123 55 147.5 53 Q172 51 212 51 Q240 51 260.5 56 Q281 61 296 79.5 Q311 98 322.5 134 Q334 170 344 232 Z " />
<glyph glyph-name="c" unicode="c" horiz-adv-x="445" d="M431 393 Q431 383 427.5 366 Q424 349 419 332 L351 332 Q352 340 352.5 349.5 Q353 359 353 364 Q353 389 334.5 400.5 Q316 412 263 412 Q226 412 202 406 Q178 400 162.5 381 Q147 362 137 325.5 Q127 289 117 229 Q112 197 109 172 Q106 147 106 128 Q106 80 128 65.5 Q150 51 204 51 Q233 51 252.5 54.5 Q272 58 284 64.5 Q296 71 302.5 80.5 Q309 90 312 103 L320 132 L388 132 Q388 128 386.5 117 Q385 106 383 92 Q380 69 370 51.5 Q360 34 338.5 21 Q317 8 282.5 1.5 Q248 -5 195 -5 Q152 -5 122 0.5 Q92 6 73 20 Q54 34 45 58 Q36 82 36 119 Q36 164 48 233 Q60 306 76.5 352 Q93 398 118.5 424 Q144 450 181.5 460 Q219 470 273 470 Q317 470 347.5 464 Q378 458 396.5 447.5 Q415 437 423 423 Q431 409 431 393 Z " />
<glyph glyph-name="d" unicode="d" horiz-adv-x="472" d="M316 0 L316 50 Q293 24 261 10 Q229 -4 180 -4 Q143 -4 116.5 2.5 Q90 9 72.5 24.5 Q55 40 46.5 66 Q38 92 38 130 Q38 175 48 234 Q56 286 68 329 Q80 372 103 403 Q126 434 164 451.5 Q202 469 262 469 Q297 469 327 460.5 Q357 452 378 441 L414 665 L485 665 L376 0 L316 0 Z M370 395 Q356 398 340 402 Q326 404 310 406.5 Q294 409 278 409 Q243 409 217 402 Q191 395 172.5 376 Q154 357 142 323.5 Q130 290 121 236 Q112 179 112 144 Q112 117 117 99.5 Q122 82 132.5 72 Q143 62 158 58 Q173 54 193 54 Q224 54 245.5 58.5 Q267 63 285 71 Q305 79 314 95.5 Q323 112 328 136 L370 395 Z " />
<glyph glyph-name="e" unicode="e" horiz-adv-x="458" d="M424 361 Q424 314 412.5 286.5 Q401 259 384 241 Q366 222 332.5 211.5 Q299 201 262 195.5 Q225 190 190.5 189 Q156 188 136 188 L109 188 L105 132 Q105 81 128 66.5 Q151 52 202 52 Q232 52 251 55 Q270 58 282 64 Q294 70 300 79 Q306 88 310 100 L319 132 L387 132 Q387 126 386 119 Q385 113 384.5 104.5 Q384 96 382 88 Q374 37 328.5 16.5 Q283 -4 193 -4 Q153 -4 123.5 1 Q94 6 75 20.5 Q56 35 46.5 60 Q37 85 37 125 Q37 146 39.5 172 Q42 198 47 230 Q58 297 74 343 Q90 389 115.5 417 Q141 445 178 457 Q215 469 268 469 Q301 469 329.5 462 Q358 455 379 441.5 Q400 428 412 408 Q424 388 424 361 Z M151 237 Q176 237 202.5 238.5 Q229 240 253 244 Q277 248 296 255 Q315 262 326 273 Q334 281 343 300 Q352 319 352 348 Q352 377 331 395 Q310 413 261 413 Q229 413 206 406 Q183 399 167 383 Q151 367 140.5 340.5 Q130 314 124 274 L118 237 L151 237 Z " />
<glyph glyph-name="f" unicode="f" horiz-adv-x="243" d="M265 409 L162 409 L95 0 L23 0 L90 409 L27 409 L36 465 L99 465 L112 544 Q118 580 133 604 Q148 628 167.5 642 Q187 656 210 662.5 Q233 669 256 669 Q281 669 301 668 Q321 667 326 666 L317 611 L302 611 Q295 611 285.5 611.5 Q276 612 266 612 Q224 612 207 595 Q190 578 185 546 L172 465 L291 465 L265 409 Z " />
<glyph glyph-name="g" unicode="g" horiz-adv-x="482" d="M378 -70 Q372 -105 360.5 -129.5 Q349 -154 326 -170 Q303 -186 265.5 -193.5 Q228 -201 171 -201 Q125 -201 94 -197.5 Q63 -194 44.5 -186.5 Q26 -179 18.5 -167 Q11 -155 11 -139 Q11 -126 15 -104.5 Q19 -83 24 -65 L95 -65 Q93 -85 92 -97 Q91 -109 91 -111 Q91 -131 110.5 -138 Q130 -145 181 -145 Q218 -145 241.5 -141 Q265 -137 278.5 -128 Q292 -119 298.5 -104.5 Q305 -90 308 -69 L326 50 L323 50 Q318 42 310.5 34.5 Q303 27 292 21 Q272 9 248.5 2.5 Q225 -4 190 -4 Q115 -4 77.5 33.5 Q40 71 40 138 Q40 168 43 193 Q46 218 48 232 Q60 308 78.5 352 Q97 396 129 422 Q189 473 305 473 Q353 473 393.5 465.5 Q434 458 462 449 L378 -70 Z M383 406 Q370 408 362 409.5 Q354 411 345.5 411.5 Q337 412 326.5 412.5 Q316 413 299 413 Q279 413 257 410 Q235 407 214 399 Q194 391 179.5 378.5 Q165 366 154.5 346.5 Q144 327 136.5 299 Q129 271 123 231 Q121 217 118 192 Q115 167 115 142 Q115 99 140.5 78.5 Q166 58 211 58 Q269 58 301.5 82.5 Q334 107 345 172 L383 406 Z " />
<glyph glyph-name="h" unicode="h" horiz-adv-x="454" d="M297 471 Q368 471 395 448.5 Q422 426 422 378 Q422 366 420.5 353 Q419 340 417 325 L364 0 L292 0 L344 319 Q347 337 347 351 Q347 383 330.5 396 Q314 409 276 409 Q239 409 211.5 403.5 Q184 398 155 387 L92 0 L20 0 L129 665 L201 665 L162 429 Q188 446 220 458.5 Q252 471 297 471 Z " />
<glyph glyph-name="i" unicode="i" horiz-adv-x="213" d="M45 0 L112 409 L24 409 L33 465 L193 465 L117 0 L45 0 Z M131 530 L144 609 L216 609 L203 530 L131 530 Z " />
<glyph glyph-name="j" unicode="j" horiz-adv-x="213" d="M108 -56 Q100 -102 93 -130.5 Q86 -159 72 -174.5 Q58 -190 33 -195 Q8 -200 -34 -200 Q-48 -200 -69.5 -199 Q-91 -198 -114 -195 L-104 -135 L-35 -135 Q0 -135 13 -123.5 Q26 -112 31 -85 L112 409 L23 409 L32 465 L193 465 L108 -56 Z M132 530 L145 609 L217 609 L204 530 L132 530 Z " />
<glyph glyph-name="k" unicode="k" horiz-adv-x="440" d="M291 0 L165 223 L129 223 L92 0 L20 0 L129 665 L201 665 L138 280 L174 280 L357 465 L441 465 L228 251 L378 0 L291 0 Z " />
<glyph glyph-name="l" unicode="l" horiz-adv-x="190" d="M22 0 L122 609 L33 609 L42 665 L203 665 L94 0 L22 0 Z " />
<glyph glyph-name="m" unicode="m" horiz-adv-x="742" d="M580 471 Q654 471 681 447.5 Q708 424 708 374 Q708 358 706 340.5 Q704 323 701 302 L652 0 L580 0 L630 305 Q633 322 634.5 334.5 Q636 347 636 353 Q636 384 618.5 397 Q601 410 563 410 Q524 410 490.5 402.5 Q457 395 427 382 Q429 378 429 365 Q429 350 426 331 Q423 312 420 295 L372 0 L300 0 L348 295 Q355 336 355 352 Q355 383 336.5 396.5 Q318 410 276 410 Q239 410 209.5 402.5 Q180 395 155 385 L92 0 L20 0 L96 465 L157 465 L159 429 Q186 447 221 460 Q256 473 307 473 Q354 473 379.5 460.5 Q405 448 419 425 Q451 447 489.5 459 Q528 471 580 471 Z " />
<glyph glyph-name="n" unicode="n" horiz-adv-x="454" d="M294 471 Q364 471 393.5 448.5 Q423 426 423 378 Q423 371 422 360.5 Q421 350 419 339 L364 0 L292 0 L344 320 Q347 339 347 352 Q347 382 331 395.5 Q315 409 280 409 Q244 409 215 403.5 Q186 398 155 387 L92 0 L20 0 L96 465 L161 465 L160 428 Q186 447 219 459 Q252 471 294 471 Z " />
<glyph glyph-name="o" unicode="o" horiz-adv-x="461" d="M266 469 Q309 469 339.5 464 Q370 459 389 445.5 Q408 432 416.5 408.5 Q425 385 425 348 Q425 302 413 232 Q401 158 385.5 112 Q370 66 345.5 40 Q321 14 283.5 5 Q246 -4 189 -4 Q147 -4 117.5 1 Q88 6 70 19 Q52 32 43.5 54.5 Q35 77 35 113 Q35 136 38.5 166 Q42 196 48 233 Q60 307 74.5 353 Q89 399 113 425 Q137 451 173.5 460 Q210 469 266 469 Z M200 52 Q235 52 257.5 58 Q280 64 295 83 Q310 102 320 137.5 Q330 173 339 232 Q351 301 351 338 Q351 385 329.5 399 Q308 413 259 413 Q224 413 202 407 Q180 401 165 382.5 Q150 364 140.5 328.5 Q131 293 121 233 Q109 164 109 127 Q109 80 130 66 Q151 52 200 52 Z " />
<glyph glyph-name="p" unicode="p" horiz-adv-x="452" d="M404 232 Q392 158 375 112 Q358 66 334 40 Q310 14 277 4.5 Q244 -5 199 -5 Q158 -5 129.5 5 Q101 15 86 25 L50 -196 L-22 -196 L86 465 L147 465 L148 417 Q157 427 169 437 Q181 447 197.5 454.5 Q214 462 235.5 467 Q257 472 286 472 Q319 472 343 467 Q367 462 383 448 Q399 434 407 409.5 Q415 385 415 347 Q415 324 412.5 295.5 Q410 267 404 232 Z M331 232 Q340 286 340 321 Q340 351 334.5 369 Q329 387 318.5 397 Q308 407 294 410 Q280 413 263 413 Q230 413 206 405 Q182 397 162 382 Q148 371 142.5 354 Q137 337 134 319 L93 69 Q119 63 143 60 Q167 57 196 57 Q224 57 245.5 63.5 Q267 70 282.5 88.5 Q298 107 310 141.5 Q322 176 331 232 Z " />
<glyph glyph-name="q" unicode="q" horiz-adv-x="463" d="M263 -196 L303 50 Q289 31 257.5 13.5 Q226 -4 175 -4 Q101 -4 69 22.5 Q37 49 37 120 Q37 143 40 170.5 Q43 198 48 232 Q60 302 77.5 348.5 Q95 395 121.5 422.5 Q148 450 184 461 Q220 472 268 472 Q323 472 366 465 Q409 458 440 448 L335 -196 L263 -196 Z M361 405 Q343 409 320 412 Q297 415 267 415 Q235 415 212 407.5 Q189 400 172 380 Q155 360 142.5 324.5 Q130 289 121 232 Q116 203 114 180.5 Q112 158 112 140 Q112 113 117 97 Q122 81 132 72 Q142 63 156.5 60.5 Q171 58 190 58 Q225 58 247 64.5 Q269 71 287 83 Q304 94 311 118.5 Q318 143 323 169 L361 405 Z " />
<glyph glyph-name="r" unicode="r" horiz-adv-x="361" d="M372 413 Q372 403 368 382.5 Q364 362 359 342 L290 342 Q292 356 293 367.5 Q294 379 294 384 Q294 412 252 412 Q229 412 203 406.5 Q177 401 155 393 L91 0 L20 0 L96 465 L159 465 L158 430 L165 430 Q190 446 223 458 Q256 470 293 470 Q337 470 354.5 454.5 Q372 439 372 413 Z " />
<glyph glyph-name="s" unicode="s" horiz-adv-x="445" d="M393 180 Q393 141 382 104.5 Q371 68 354 48 Q339 31 320 21 Q301 11 279 5.5 Q257 0 232.5 -2 Q208 -4 183 -4 Q137 -4 106 0 Q75 4 56 12.5 Q37 21 28.5 34.5 Q20 48 20 66 Q20 78 25 101 Q30 124 36 142 L105 142 Q104 134 102.5 116 Q101 98 101 90 Q101 80 104.5 72.5 Q108 65 118 60 Q128 55 146 52.5 Q164 50 192 50 Q227 50 248.5 55 Q270 60 284 71 Q301 85 308.5 107 Q316 129 316 152 Q316 178 300.5 190.5 Q285 203 253 206 L166 215 Q114 220 90.5 239 Q67 258 67 303 Q67 319 69.5 337.5 Q72 356 77 373.5 Q82 391 90 406.5 Q98 422 109 432 Q131 452 166 461 Q201 470 259 470 Q339 470 377 453.5 Q415 437 415 400 Q415 392 412 375 Q409 358 404 340 L334 340 L336 377 Q336 399 319 407.5 Q302 416 250 416 Q217 416 197 411 Q177 406 165 395 Q153 384 147 360 Q141 336 141 316 Q141 273 187 270 L273 263 Q338 258 365.5 241.5 Q393 225 393 180 Z " />
<glyph glyph-name="t" unicode="t" horiz-adv-x="267" d="M215 0 Q210 -1 202 -2 Q195 -3 184.5 -3.5 Q174 -4 160 -4 Q105 -4 75 16 Q45 36 45 89 Q45 105 48 126 L94 409 L38 409 L48 465 L104 465 L122 578 L194 578 L176 465 L298 465 L272 409 L166 409 L123 145 Q119 122 119 102 Q119 71 134.5 61 Q150 51 190 51 L223 51 L215 0 Z " />
<glyph glyph-name="u" unicode="u" horiz-adv-x="462" d="M370 27 Q327 13 279.5 3 Q232 -7 183 -7 Q106 -7 72 20.5 Q38 48 38 116 Q38 147 44 186 L90 465 L162 465 L114 171 Q112 160 111 150 Q110 140 110 131 Q110 84 135 65.5 Q160 47 211 47 Q234 47 256.5 50 Q279 53 303 61 L370 465 L442 465 L370 27 Z " />
<glyph glyph-name="v" unicode="v" horiz-adv-x="418" d="M111 0 L44 465 L121 465 L173 55 L186 55 L373 465 L450 465 L229 0 L111 0 Z " />
<glyph glyph-name="w" unicode="w" horiz-adv-x="638" d="M482 0 L369 0 L351 415 L347 415 L187 0 L76 0 L45 465 L120 465 L140 55 L143 55 L302 465 L414 465 L434 55 L437 55 L594 465 L669 465 L482 0 Z " />
<glyph glyph-name="x" unicode="x" horiz-adv-x="397" d="M274 0 L194 199 L190 199 L43 0 L-36 0 L152 246 L59 465 L139 465 L208 283 L212 283 L339 465 L419 465 L251 240 L356 0 L274 0 Z " />
<glyph glyph-name="y" unicode="y" horiz-adv-x="419" d="M197 -129 Q179 -168 156 -184 Q133 -200 91 -200 Q76 -200 61.5 -199 Q47 -198 33 -196 L43 -135 L76 -135 Q92 -135 103 -132.5 Q114 -130 122 -124 Q130 -118 136.5 -107.5 Q143 -97 151 -80 L188 0 L120 0 L60 465 L138 465 L183 51 L208 51 L389 465 L467 465 L197 -129 Z " />
<glyph glyph-name="z" unicode="z" horiz-adv-x="404" d="M317 0 L-2 0 L10 79 L307 395 L309 409 L137 409 L130 364 L71 364 L88 465 L392 465 L379 387 L87 78 L84 57 L351 57 L317 0 Z " />
<glyph glyph-name="braceleft" unicode="&#x7b;" horiz-adv-x="260" d="M294 670 L284 611 Q255 611 237 600.5 Q219 590 208.5 574.5 Q198 559 194 542 Q190 525 188 513 L162 356 Q157 327 151.5 307.5 Q146 288 137.5 274.5 Q129 261 118.5 252 Q108 243 93 235 Q110 224 119 209 Q128 194 128 166 Q128 155 126.5 142 Q125 129 122 108 L100 -26 Q96 -47 95 -58 Q94 -69 94 -76 Q94 -103 108 -122 Q122 -141 161 -141 L151 -200 L134 -200 Q73 -200 47.5 -177 Q22 -154 22 -99 Q22 -83 24 -62.5 Q26 -42 29 -25 L51 112 Q53 123 54 132.5 Q55 142 55 151 Q55 199 22 216 L29 254 Q79 277 92 359 L118 521 Q129 594 164 632 Q199 670 277 670 L294 670 Z " />
<glyph glyph-name="bar" unicode="&#x7c;" horiz-adv-x="197" d="M63 -175 L63 665 L129 665 L129 -175 L63 -175 Z " />
<glyph glyph-name="braceright" unicode="&#x7d;" horiz-adv-x="260" d="M125 671 Q186 671 212 648.5 Q238 626 238 571 Q238 542 230 496 L208 359 Q206 348 205 338 Q204 328 204 319 Q204 271 237 254 L230 216 Q203 204 188.5 178.5 Q174 153 167 111 L145 -26 Q137 -75 125 -108.5 Q113 -142 94.5 -162.5 Q76 -183 49 -192 Q22 -201 -17 -201 L-34 -201 L-24 -142 Q10 -142 28.5 -127.5 Q47 -113 57 -92 Q67 -71 70.5 -46.5 Q74 -22 77 -2 L96 114 Q100 142 106 162 Q112 182 120.5 195.5 Q129 209 140 218 Q151 227 166 235 Q148 246 139 261.5 Q130 277 130 305 Q130 328 136 363 L162 521 Q165 536 165 549 Q165 575 151 594 Q137 613 98 613 L108 671 L125 671 Z " />
<glyph glyph-name="asciitilde" unicode="&#x7e;" horiz-adv-x="461" d="M219 586 Q197 598 181.5 602 Q166 606 150 606 Q133 606 113.5 593.5 Q94 581 70 552 L22 578 Q54 620 87 644.5 Q120 669 158 669 Q171 669 186 667 Q201 665 224 654 Q243 645 256 639.5 Q269 634 279 630 Q289 626 298 624.5 Q307 623 318 623 Q336 623 356 634 Q376 645 399 674 L447 644 Q415 599 381 579.5 Q347 560 312 560 Q296 560 275 563.5 Q254 567 219 586 Z " />
<glyph glyph-name="dagger" unicode="&#x2020;" horiz-adv-x="383" d="M180 403 L57 403 L67 465 L190 465 L223 665 L291 665 L258 465 L379 465 L369 403 L248 403 L150 -198 L82 -198 L180 403 Z " />
<glyph glyph-name="degree" unicode="&#xb0;" horiz-adv-x="323" d="M163 673 Q189 673 212 664.5 Q235 656 252.5 641 Q270 626 280 605.5 Q290 585 290 562 Q290 538 280 518 Q270 498 252.5 483 Q235 468 211.5 459.5 Q188 451 161 451 Q134 451 110.5 459.5 Q87 468 69.5 483 Q52 498 42 518 Q32 538 32 562 Q32 585 42 605.5 Q52 626 70 641 Q88 656 112 664.5 Q136 673 163 673 Z M161 622 Q133 622 115 604.5 Q97 587 97 562 Q97 536 115 519 Q133 502 161 502 Q188 502 207.5 519 Q227 536 227 562 Q227 587 207.5 604.5 Q188 622 161 622 Z " />
<glyph glyph-name="sterling" unicode="&#xa3;" horiz-adv-x="590" d="M198 305 L177 178 Q173 153 168.5 135.5 Q164 118 158 104.5 Q152 91 143.5 80 Q135 69 122 58 L474 58 L465 0 L14 0 L22 54 Q39 59 50.5 69 Q62 79 71 96.5 Q80 114 86.5 140.5 Q93 167 99 205 L116 305 L40 305 L50 367 L126 367 L149 508 Q155 545 169 575 Q183 605 210 626.5 Q237 648 280.5 659.5 Q324 671 389 671 Q439 671 473 665.5 Q507 660 528 649 Q549 638 558.5 621 Q568 604 568 582 Q568 565 563 540.5 Q558 516 553 494 L477 494 Q480 511 482 526 Q484 541 484 553 Q484 568 479.5 578.5 Q475 589 463 596 Q451 603 430.5 606.5 Q410 610 377 610 Q340 610 314 604.5 Q288 599 271 586.5 Q254 574 244.5 554.5 Q235 535 231 508 L208 367 L374 367 L346 305 L198 305 Z " />
<glyph glyph-name="section" unicode="&#xa7;" horiz-adv-x="588" d="M443 -18 Q443 -31 440.5 -50 Q438 -69 432.5 -89.5 Q427 -110 418 -128.5 Q409 -147 395 -160 Q372 -181 332.5 -190.5 Q293 -200 228 -200 Q177 -200 144 -195.5 Q111 -191 91.5 -182.5 Q72 -174 64 -161.5 Q56 -149 56 -132 Q56 -119 60 -103 Q64 -87 71 -71 L148 -71 Q147 -85 146.5 -92.5 Q146 -100 146 -101 Q146 -122 166 -129.5 Q186 -137 239 -137 Q281 -137 304 -131.5 Q327 -126 340 -112 Q353 -97 358.5 -74.5 Q364 -52 364 -28 Q364 10 339.5 30 Q315 50 271 69 L210 96 Q180 109 159 121 Q138 133 124.5 146.5 Q111 160 105 176 Q99 192 99 214 Q99 275 126.5 317.5 Q154 360 214 377 Q180 397 163 423 Q146 449 146 488 Q146 505 149 525.5 Q152 546 158 565.5 Q164 585 173 602.5 Q182 620 194 631 Q217 653 256.5 662 Q296 671 361 671 Q411 671 444 666 Q477 661 496.5 652 Q516 643 524 630 Q532 617 532 601 Q532 586 528 571 Q524 556 517 542 L441 542 Q443 556 443 564.5 Q443 573 443 576 Q443 595 421 601.5 Q399 608 348 608 Q310 608 287 603 Q264 598 251 586 Q239 575 231.5 549.5 Q224 524 224 498 Q224 479 230 465.5 Q236 452 248 441 Q260 430 277.5 420.5 Q295 411 318 401 L379 374 Q408 361 429 349.5 Q450 338 463.5 324.5 Q477 311 483 294.5 Q489 278 489 256 Q489 198 462.5 155 Q436 112 373 93 Q408 73 425.5 46.5 Q443 20 443 -18 Z M258 345 Q214 329 197.5 296 Q181 263 181 229 Q181 201 199 184.5 Q217 168 262 151 L330 125 Q372 140 389.5 173 Q407 206 407 241 Q407 272 388.5 287 Q370 302 328 318 L258 345 Z " />
<glyph glyph-name="bullet" unicode="&#x2022;" horiz-adv-x="362" d="M291 338 Q287 315 275 295 Q263 275 246 260 Q229 245 207.5 236 Q186 227 164 227 Q141 227 122 235.5 Q103 244 90 259 Q77 274 72 294.5 Q67 315 71 338 Q75 361 87 381 Q99 401 116.5 416 Q134 431 156 439.5 Q178 448 201 448 Q223 448 241.5 439 Q260 430 272 415.5 Q284 401 289.5 381 Q295 361 291 338 Z " />
<glyph glyph-name="paragraph" unicode="&#xb6;" horiz-adv-x="523" d="M309 -196 L440 604 L376 604 L245 -196 L179 -196 L257 281 L175 281 Q140 281 116 289 Q92 297 79 318 Q66 339 64 375.5 Q62 412 71 469 Q81 533 96.5 571.5 Q112 610 134 631 Q156 652 186 658.5 Q216 665 255 665 L517 665 L376 -196 L309 -196 Z " />
<glyph glyph-name="germandbls" unicode="&#xdf;" horiz-adv-x="485" d="M408 199 Q397 135 380 95 Q363 55 339.5 32 Q316 9 287 0.5 Q258 -8 224 -8 Q206 -8 187 -6.5 Q168 -5 149 -1 L158 51 Q167 50 176 49 Q184 48 191 47.5 Q198 47 202 47 Q226 47 246.5 52 Q267 57 283.5 73.5 Q300 90 313 120.5 Q326 151 334 202 Q343 256 342.5 289 Q342 322 331 341 Q320 360 297.5 366.5 Q275 373 240 373 L210 373 L220 431 L241 431 Q271 431 291.5 434.5 Q312 438 325.5 448.5 Q339 459 347.5 478.5 Q356 498 361 530 Q370 583 351.5 604.5 Q333 626 278 626 Q251 626 231 621 Q211 616 197 602 Q183 588 174 564 Q165 540 159 503 L76 0 L4 0 L88 508 Q96 557 110.5 590.5 Q125 624 148.5 644 Q172 664 206 673 Q240 682 287 682 Q324 682 354.5 675 Q385 668 405.5 651 Q426 634 434.5 606 Q443 578 436 537 Q428 484 409 446 Q390 408 353 403 L353 402 Q381 397 396 381.5 Q411 366 416 340.5 Q421 315 418 279.5 Q415 244 408 199 Z " />
<glyph glyph-name="registered" unicode="&#xae;" horiz-adv-x="794" d="M737 333 Q737 263 710 201 Q683 139 637 93 Q591 47 529 20 Q467 -7 397 -7 Q327 -7 265 20 Q203 47 157 93 Q111 139 84.5 201 Q58 263 58 333 Q58 403 84.5 465 Q111 527 157 573 Q203 619 265 645.5 Q327 672 397 672 Q467 672 529 645.5 Q591 619 637 573 Q683 527 710 465 Q737 403 737 333 Z M700 333 Q700 396 676 451 Q652 506 611 547 Q570 588 515 611.5 Q460 635 397 635 Q334 635 279 611.5 Q224 588 183 547 Q142 506 118.5 451 Q95 396 95 333 Q95 270 118.5 215 Q142 160 183 119 Q224 78 279 54 Q334 30 397 30 Q460 30 515 54 Q570 78 611 119 Q652 160 676 215 Q700 270 700 333 Z M512 147 L372 297 L295 297 L295 147 L245 147 L245 525 L388 525 Q419 525 448 522 Q477 519 499.5 508 Q522 497 535.5 474 Q549 451 549 412 Q549 395 546 375 Q543 355 531 338 Q519 321 494.5 309.5 Q470 298 428 298 L574 147 L512 147 Z M498 406 Q498 434 489.5 449.5 Q481 465 466.5 472.5 Q452 480 432.5 481.5 Q413 483 391 483 L295 483 L295 338 L354 338 Q374 338 390.5 338 Q407 338 421 339 Q450 341 465 346 Q482 352 489.5 364.5 Q497 377 498 406 Z " />
<glyph glyph-name="copyright" unicode="&#xa9;" horiz-adv-x="794" d="M737 333 Q737 263 710 201 Q683 139 637 93 Q591 47 529 20 Q467 -7 397 -7 Q327 -7 265 20 Q203 47 157 93 Q111 139 84.5 201 Q58 263 58 333 Q58 403 84.5 465 Q111 527 157 573 Q203 619 265 645.5 Q327 672 397 672 Q467 672 529 645.5 Q591 619 637 573 Q683 527 710 465 Q737 403 737 333 Z M700 333 Q700 396 676 451 Q652 506 611 547 Q570 588 515 611.5 Q460 635 397 635 Q334 635 279 611.5 Q224 588 183 547 Q142 506 118.5 451 Q95 396 95 333 Q95 270 118.5 215 Q142 160 183 119 Q224 78 279 54 Q334 30 397 30 Q460 30 515 54 Q570 78 611 119 Q652 160 676 215 Q700 270 700 333 Z M553 217 Q553 195 542 181 Q531 167 511.5 158.5 Q492 150 465 147 Q438 144 406 144 Q354 144 320 151 Q286 158 266.5 178.5 Q247 199 239.5 236.5 Q232 274 232 336 Q232 399 240 437.5 Q248 476 267.5 496.5 Q287 517 320.5 523.5 Q354 530 406 530 Q487 530 519.5 514.5 Q552 499 552 461 Q552 452 551.5 442 Q551 432 550 424 Q549 414 548 405 L499 405 L499 440 Q499 453 496 462 Q493 471 483.5 476.5 Q474 482 454.5 484.5 Q435 487 402 487 Q366 487 343 483.5 Q320 480 307 465 Q294 450 289.5 419.5 Q285 389 285 336 Q285 284 290 254 Q295 224 308 208.5 Q321 193 344.5 189 Q368 185 406 185 Q458 185 477.5 194 Q497 203 498 229 L500 277 L552 277 Q552 268 552.5 249.5 Q553 231 553 217 Z " />
<glyph glyph-name="trademark" unicode="&#x2122;" horiz-adv-x="796" d="M368 665 L464 665 L516 362 L519 362 L669 665 L765 665 L704 287 L645 287 L695 597 L692 597 L537 287 L475 287 L417 597 L415 597 L365 287 L307 287 L368 665 Z M321 621 L221 621 L167 287 L110 287 L164 621 L50 621 L57 665 L343 665 L321 621 Z " />
<glyph glyph-name="acute" unicode="&#xb4;" horiz-adv-x="219" d="M35 544 L149 656 L191 607 L64 510 L35 544 Z " />
<glyph glyph-name="dieresis" unicode="&#xa8;" horiz-adv-x="272" d="M26 545 L39 624 L111 624 L98 545 L26 545 Z M165 545 L178 624 L250 624 L237 545 L165 545 Z " />
<glyph glyph-name="notequal" unicode="&#x2260;" horiz-adv-x="588" d="M345 374 L310 281 L537 281 L537 219 L290 219 L246 98 L183 114 L223 219 L50 219 L50 281 L242 281 L277 374 L50 374 L50 436 L296 436 L341 557 L403 541 L363 436 L537 436 L537 374 L345 374 Z " />
<glyph glyph-name="AE" unicode="&#xc6;" horiz-adv-x="876" d="M382 0 L406 144 L130 144 L37 0 L-45 0 L390 665 L874 665 L863 599 L558 599 L521 373 L801 373 L764 308 L510 308 L471 66 L776 66 L765 0 L382 0 Z M167 209 L416 209 L480 599 L427 599 L167 209 Z " />
<glyph glyph-name="Oslash" unicode="&#xd8;" horiz-adv-x="598" d="M545 332 Q528 229 509 163.5 Q490 98 457.5 60 Q425 22 374 7.5 Q323 -7 243 -7 Q185 -7 145 0.5 Q105 8 80 27 Q55 46 44 78 Q33 110 33 159 Q33 193 38 235.5 Q43 278 51 332 Q68 437 88.5 503.5 Q109 570 142 607.5 Q175 645 225.5 658.5 Q276 672 354 672 Q413 672 453.5 664.5 Q494 657 518.5 638.5 Q543 620 554 589 Q565 558 565 512 Q565 477 559.5 432.5 Q554 388 545 332 Z M113 169 L478 544 Q467 578 435.5 591.5 Q404 605 343 605 Q288 605 253 594.5 Q218 584 195.5 554.5 Q173 525 158.5 471.5 Q144 418 130 332 Q122 281 117.5 242 Q113 203 113 174 L113 169 Z M467 332 Q474 374 478 408 Q482 442 484 469 L126 103 Q140 77 170.5 68 Q201 59 254 59 Q312 59 347.5 70 Q383 81 405 111.5 Q427 142 440 195 Q453 248 467 332 Z " />
<glyph glyph-name="infinity" unicode="&#x221e;" horiz-adv-x="603" d="M30 281 Q30 311 40 338 Q50 365 67.5 385.5 Q85 406 109 417.5 Q133 429 162 429 Q179 429 196 425.5 Q213 422 230 412.5 Q247 403 266 385 Q285 367 307 339 Q341 388 375 409 Q409 430 445 430 Q476 430 500 418.5 Q524 407 539.5 386.5 Q555 366 563 338.5 Q571 311 571 278 Q571 246 562 219 Q553 192 536.5 171.5 Q520 151 496.5 139.5 Q473 128 444 128 Q395 128 363.5 152.5 Q332 177 298 226 Q266 183 234.5 156 Q203 129 159 128 Q129 128 105.5 139.5 Q82 151 65 171.5 Q48 192 39 220 Q30 248 30 281 Z M337 288 Q371 240 397 213 Q423 186 444 186 Q470 186 485.5 212.5 Q501 239 501 279 Q501 320 485 346 Q469 372 443 372 Q420 372 396.5 354 Q373 336 337 288 Z M265 277 Q252 294 239.5 311 Q227 328 214 341.5 Q201 355 188.5 363.5 Q176 372 163 372 Q134 372 116.5 346 Q99 320 99 281 Q99 239 115.5 212.5 Q132 186 159 186 Q173 186 185 191 Q197 196 209 207.5 Q221 219 234.5 236 Q248 253 265 277 Z " />
<glyph glyph-name="plusminus" unicode="&#xb1;" horiz-adv-x="588" d="M332 336 L332 137 L270 137 L270 336 L92 336 L92 399 L270 399 L270 597 L332 597 L332 399 L510 399 L510 336 L332 336 Z M92 0 L92 63 L511 63 L511 0 L92 0 Z " />
<glyph glyph-name="lessequal" unicode="&#x2264;" horiz-adv-x="587" d="M111 0 L111 62 L477 62 L477 0 L111 0 Z M111 346 L111 398 L476 591 L476 519 L184 372 L476 225 L476 152 L111 346 Z " />
<glyph glyph-name="greaterequal" unicode="&#x2265;" horiz-adv-x="587" d="M111 0 L111 62 L477 62 L477 0 L111 0 Z M112 152 L112 225 L403 372 L112 519 L112 591 L477 398 L477 346 L112 152 Z " />
<glyph glyph-name="yen" unicode="&#xa5;" horiz-adv-x="588" d="M201 0 L224 138 L75 138 L84 198 L233 198 L242 252 L240 262 L95 262 L105 321 L224 321 L106 665 L193 665 L296 345 L297 345 L506 665 L588 665 L357 321 L478 321 L468 262 L322 262 L316 252 L307 198 L457 198 L448 138 L298 138 L275 0 L201 0 Z " />
<glyph glyph-name="mu" unicode="&#xb5;" horiz-adv-x="471" d="M57 465 L129 465 L129 170 Q129 133 137 109 Q145 85 160 71.5 Q175 58 197 52.5 Q219 47 246 47 Q263 47 275 48 Q287 49 296.5 51 Q306 53 315.5 55 Q325 57 337 60 L337 465 L409 465 L409 27 Q368 13 323 3 Q278 -7 227 -7 Q194 -7 171.5 -2 Q149 3 129 19 L129 -196 L57 -196 L57 465 Z " />
<glyph glyph-name="partialdiff" unicode="&#x2202;" horiz-adv-x="480" d="M193 752 Q303 752 368 660 Q433 568 433 386 Q433 304 419.5 232.5 Q406 161 378.5 108.5 Q351 56 308 25.5 Q265 -5 206 -5 Q167 -5 137.5 4 Q108 13 88 35 Q68 57 57.5 93.5 Q47 130 47 185 Q47 244 65.5 294.5 Q84 345 121.5 382.5 Q159 420 216 442 Q273 464 350 465 Q340 573 297 632.5 Q254 692 193 692 Q167 692 143 683 Q119 674 98 654 L51 710 Q75 729 113 740.5 Q151 752 193 752 Z M353 404 Q244 399 183.5 341 Q123 283 123 164 Q123 145 125.5 125.5 Q128 106 136.5 90 Q145 74 161.5 64 Q178 54 206 54 Q238 54 261.5 71.5 Q285 89 301 118.5 Q317 148 327.5 185 Q338 222 343.5 261 Q349 300 351 337.5 Q353 375 353 404 Z " />
<glyph glyph-name="summation" unicode="&#x2211;" horiz-adv-x="589" d="M70 -130 L70 -64 L320 264 L85 608 L85 665 L491 665 L491 599 L176 599 L403 266 L158 -64 L524 -64 L524 -130 L70 -130 Z " />
<glyph glyph-name="product" unicode="&#x220f;" horiz-adv-x="589" d="M27 665 L562 665 L562 599 L494 599 L494 -130 L416 -130 L416 599 L173 599 L173 -130 L95 -130 L95 599 L27 599 L27 665 Z " />
<glyph glyph-name="pi" unicode="&#x3c0;" horiz-adv-x="505" d="M403 402 L403 125 Q403 78 406.5 47.5 Q410 17 416 0 L347 0 Q342 12 336.5 43 Q331 74 331 121 L331 402 L196 402 Q196 348 190.5 290 Q185 232 176.5 178 Q168 124 156 77.5 Q144 31 131 0 L64 0 Q79 35 90.5 82.5 Q102 130 110 183 Q118 236 122 291.5 Q126 347 126 400 Q95 400 76.5 398 Q58 396 49 394 L34 444 Q45 454 74 459.5 Q103 465 160 465 L469 465 L460 402 L403 402 Z " />
<glyph glyph-name="integral" unicode="&#x222b;" horiz-adv-x="379" d="M41 -71 Q49 -73 58 -74 Q67 -75 74 -75 Q116 -75 136 -38.5 Q156 -2 156 75 Q156 130 155 195.5 Q154 261 152.5 327.5 Q151 394 150 456.5 Q149 519 149 569 Q149 674 183 728 Q217 782 303 782 Q331 782 353 772 L337 717 Q329 719 320.5 720 Q312 721 305 721 Q275 721 259 705.5 Q243 690 235.5 667 Q228 644 227 618.5 Q226 593 226 574 Q226 522 227 458.5 Q228 395 229.5 328.5 Q231 262 232 197.5 Q233 133 233 81 Q233 32 226 -8 Q219 -48 201 -76.5 Q183 -105 153 -120.5 Q123 -136 77 -136 Q64 -136 49.5 -133.5 Q35 -131 26 -126 L41 -71 Z " />
<glyph glyph-name="ordfeminine" unicode="&#xaa;" horiz-adv-x="308" d="M204 394 L198 420 Q187 408 172 400 Q157 392 131 392 Q82 392 60 407 Q38 422 38 455 Q38 460 38.5 466 Q39 472 40 478 Q47 521 73 540.5 Q99 560 162 560 Q184 560 201 559.5 Q218 559 219 559 Q225 589 225 599 Q225 616 214 622 Q203 628 174 628 Q159 628 150.5 625.5 Q142 623 137 618 Q130 611 127 587 L72 587 L72 600 Q72 614 74 625 Q76 636 87 645 Q98 656 121 662 Q144 668 181 668 Q236 668 258.5 658 Q281 648 281 611 Q281 603 279.5 590 Q278 577 276 562 L248 394 L204 394 Z M213 522 L155 522 Q126 522 113.5 511 Q101 500 97 477 Q96 472 96 465 Q96 433 140 433 Q169 433 186 445.5 Q203 458 208 491 L213 522 Z M14 356 L250 356 L242 309 L6 309 L14 356 Z " />
<glyph glyph-name="ordmasculine" unicode="&#xba;" horiz-adv-x="308" d="M269 531 Q263 490 254 463.5 Q245 437 230.5 421 Q216 405 194 399 Q172 393 138 393 Q104 393 83.5 399 Q63 405 53.5 421 Q44 437 43.5 463.5 Q43 490 49 531 Q56 573 65.5 600 Q75 627 90.5 642 Q106 657 128 662.5 Q150 668 183 668 Q217 668 237.5 661.5 Q258 655 267 639.5 Q276 624 276 597.5 Q276 571 269 531 Z M214 531 Q219 561 221 579.5 Q223 598 219 608.5 Q215 619 205 623 Q195 627 176 627 Q158 627 146.5 624 Q135 621 127.5 611 Q120 601 114.5 582 Q109 563 104 531 Q99 500 97.5 481.5 Q96 463 100.5 452.5 Q105 442 115.5 438.5 Q126 435 145 435 Q162 435 173 438.5 Q184 442 191.5 452.5 Q199 463 204 481.5 Q209 500 214 531 Z M5 309 L13 356 L251 356 L243 309 L5 309 Z " />
<glyph glyph-name="Omega" unicode="&#x2126;" horiz-adv-x="590" d="M342 0 L342 185 Q380 188 402.5 200.5 Q425 213 436.5 238 Q448 263 451.5 301.5 Q455 340 455 395 Q455 459 450.5 500.5 Q446 542 430 566.5 Q414 591 382.5 600.5 Q351 610 297 610 Q245 610 213.5 601.5 Q182 593 165.5 569.5 Q149 546 143.5 504 Q138 462 138 395 Q138 340 142 301.5 Q146 263 158 238 Q170 213 192.5 200.5 Q215 188 252 185 L252 0 L26 0 L26 66 L186 66 L186 137 Q148 145 123.5 163.5 Q99 182 85 213 Q71 244 66 290 Q61 336 61 399 Q61 480 70.5 533 Q80 586 105.5 616.5 Q131 647 177 659 Q223 671 297 671 Q374 671 420.5 658 Q467 645 492 614 Q517 583 525 530.5 Q533 478 533 399 Q533 335 528 289 Q523 243 509 212 Q495 181 471 162.5 Q447 144 408 136 L408 66 L563 66 L563 0 L342 0 Z " />
<glyph glyph-name="ae" unicode="&#xe6;" horiz-adv-x="749" d="M715 349 Q715 315 702.5 291.5 Q690 268 673 253 Q642 226 583.5 216.5 Q525 207 434 207 L404 207 Q403 198 400 176 Q397 154 397 137 Q397 86 419.5 69 Q442 52 493 52 Q523 52 542.5 54.5 Q562 57 574.5 62.5 Q587 68 593 77 Q599 86 602 98 L610 132 L678 132 Q678 126 677 119 Q676 113 675.5 104.5 Q675 96 673 88 Q665 37 619.5 16.5 Q574 -4 484 -4 Q421 -4 388.5 9.5 Q356 23 347 65 L344 65 Q321 23 281 9 Q241 -5 175 -5 Q96 -5 59.5 19 Q23 43 23 99 Q23 127 31.5 160 Q40 193 65 219 Q88 242 118 250.5 Q148 259 195 259 L341 259 Q348 302 351.5 327 Q355 352 355 361 Q355 392 336.5 402.5 Q318 413 268 413 Q216 413 194.5 402 Q173 391 165 368 L155 338 L84 338 Q85 347 86 356 Q87 364 88 373 Q89 382 91 392 Q94 410 109 424.5 Q124 439 149 448.5 Q174 458 207 463.5 Q240 469 278 469 Q339 469 368 457.5 Q397 446 410 422 Q432 447 470.5 458 Q509 469 561 469 Q646 469 680.5 437.5 Q715 406 715 349 Z M332 207 L220 207 Q149 207 122 177 Q112 166 106 148.5 Q100 131 100 115 Q100 79 123.5 65.5 Q147 52 195 52 Q254 52 284.5 75.5 Q315 99 325 162 L332 207 Z M453 258 Q504 258 545.5 263 Q587 268 613 286 Q633 300 639.5 318.5 Q646 337 646 351 Q646 379 624.5 396 Q603 413 556 413 Q496 413 465 390 Q434 367 422 308 L412 258 L453 258 Z " />
<glyph glyph-name="oslash" unicode="&#xf8;" horiz-adv-x="462" d="M266 469 Q309 469 339.5 464 Q370 459 389 445.5 Q408 432 416.5 408.5 Q425 385 425 348 Q425 302 413 232 Q401 158 385.5 112 Q370 66 345.5 40 Q321 14 283.5 5 Q246 -4 189 -4 Q147 -4 117.5 1 Q88 6 70 19 Q52 32 43.5 54.5 Q35 77 35 113 Q35 136 38.5 166 Q42 196 48 233 Q60 307 74.5 353 Q89 399 113 425 Q137 451 173.5 460 Q210 469 266 469 Z M200 52 Q235 52 257.5 58 Q280 64 295 83 Q310 102 320 137.5 Q330 173 339 232 Q344 260 346.5 282 Q349 304 350 321 L115 85 Q123 65 144 58.5 Q165 52 200 52 Z M121 233 Q112 178 109 145 L344 380 Q336 400 315 406.5 Q294 413 259 413 Q224 413 202 407 Q180 401 165 382.5 Q150 364 140.5 328.5 Q131 293 121 233 Z " />
<glyph glyph-name="questiondown" unicode="&#xbf;" horiz-adv-x="458" d="M11 -31 Q19 14 27 44 Q35 74 49 95 Q63 116 85.5 130.5 Q108 145 145 158 Q175 170 192.5 180.5 Q210 191 220 204 Q230 217 234 232.5 Q238 248 241 270 L321 270 Q320 264 317.5 252 Q315 240 313 227 Q310 211 303 196.5 Q296 182 282 168.5 Q268 155 244.5 141.5 Q221 128 186 114 Q159 102 142 91.5 Q125 81 114.5 65.5 Q104 50 98 27.5 Q92 5 86 -31 Q80 -67 82 -89 Q84 -111 96 -123 Q108 -135 130 -139 Q152 -143 186 -143 Q219 -143 240.5 -139.5 Q262 -136 275.5 -128 Q289 -120 296 -107.5 Q303 -95 307 -77 L316 -39 L388 -39 Q387 -59 387 -70 Q387 -81 385 -91 Q380 -118 368.5 -138.5 Q357 -159 333 -173 Q309 -187 270 -194 Q231 -201 172 -201 Q119 -201 83.5 -194 Q48 -187 29 -168 Q10 -149 6 -116 Q2 -83 11 -31 Z M353 466 L340 386 L259 386 L272 466 L353 466 Z " />
<glyph glyph-name="exclamdown" unicode="&#xa1;" horiz-adv-x="230" d="M100 0 L15 0 L98 472 L169 472 L100 0 Z M206 665 L193 585 L111 585 L124 665 L206 665 Z " />
<glyph glyph-name="logicalnot" unicode="&#xac;" horiz-adv-x="589" d="M471 224 L471 375 L51 375 L51 437 L538 437 L538 224 L471 224 Z " />
<glyph glyph-name="radical" unicode="&#x221a;" horiz-adv-x="519" d="M354 -104 L293 -104 L127 311 L51 288 L28 343 L179 392 L315 29 L317 29 L438 819 L498 819 L354 -104 Z " />
<glyph glyph-name="florin" unicode="&#x192;" horiz-adv-x="589" d="M54 -58 Q67 -61 82.5 -63 Q98 -65 118 -65 Q137 -65 150 -57.5 Q163 -50 171 -38.5 Q179 -27 183.5 -12.5 Q188 2 190 16 L246 409 L137 409 L137 465 L251 465 L271 607 Q280 672 312 706.5 Q344 741 419 741 Q451 741 469.5 737 Q488 733 492 731 L478 665 Q454 674 415 674 Q380 674 363.5 651.5 Q347 629 343 601 L324 465 L461 465 L444 409 L318 409 L265 20 Q260 -15 252 -43.5 Q244 -72 227.5 -92.5 Q211 -113 184 -124 Q157 -135 114 -135 Q82 -135 64 -130.5 Q46 -126 41 -124 L54 -58 Z " />
<glyph glyph-name="approxequal" unicode="&#x2248;" horiz-adv-x="499" d="M43 225 Q68 261 99 280.5 Q130 300 167 300 Q190 300 212.5 293 Q235 286 257 278 Q279 270 299 263 Q319 256 337 256 Q355 256 374.5 266 Q394 276 414 303 L460 264 Q412 192 332 192 Q306 192 285.5 199 Q265 206 246.5 214.5 Q228 223 209 230 Q190 237 167 237 Q149 237 129.5 226 Q110 215 90 187 L43 225 Z M43 376 Q68 413 99 432.5 Q130 452 167 452 Q190 452 212.5 445 Q235 438 257 430 Q279 422 299 415 Q319 408 337 408 Q355 408 374.5 418 Q394 428 414 455 L460 416 Q412 344 332 344 Q306 344 285.5 351 Q265 358 246.5 366 Q228 374 209 381 Q190 388 167 388 Q149 388 129.5 377 Q110 366 90 339 L43 376 Z " />
<glyph glyph-name="Delta" unicode="&#x2206;" horiz-adv-x="588" d="M28 0 L293 700 L560 0 L28 0 Z M294 499 L129 66 L459 66 L294 499 Z " />
<glyph glyph-name="guillemotleft" unicode="&#xab;" horiz-adv-x="366" d="M102 9 L38 256 L172 501 L227 484 L108 256 L165 25 L102 9 Z M240 9 L179 256 L313 501 L371 484 L249 256 L305 25 L240 9 Z " />
<glyph glyph-name="guillemotright" unicode="&#xbb;" horiz-adv-x="364" d="M122 25 L255 256 L210 484 L272 501 L325 256 L179 9 L122 25 Z M-17 25 L114 256 L66 484 L130 501 L184 256 L41 9 L-17 25 Z " />
<glyph glyph-name="ellipsis" unicode="&#x2026;" horiz-adv-x="602" d="M40 0 L53 82 L141 82 L128 0 L40 0 Z M250 0 L263 82 L351 82 L338 0 L250 0 Z M460 0 L473 82 L561 82 L548 0 L460 0 Z " />
<glyph glyph-name="OE" unicode="&#x152;" horiz-adv-x="891" d="M390 0 L396 34 Q373 12 335 2.5 Q297 -7 243 -7 Q165 -7 119 7.5 Q73 22 52.5 60 Q32 98 33.5 163.5 Q35 229 52 332 Q69 437 89 503.5 Q109 570 142 607 Q175 644 225.5 657.5 Q276 671 354 671 Q408 671 442 662 Q476 653 493 629 L499 665 L883 665 L873 603 L566 603 L528 372 L810 372 L766 310 L518 310 L477 60 L784 60 L774 0 L390 0 Z M445 332 Q460 423 464 477.5 Q468 532 457.5 561.5 Q447 591 420 600.5 Q393 610 344 610 Q289 610 254 599.5 Q219 589 196.5 559 Q174 529 159.5 474.5 Q145 420 131 332 Q117 248 113.5 194 Q110 140 122 109 Q134 78 165.5 66 Q197 54 253 54 Q301 54 331.5 63 Q362 72 382 101 Q402 130 416 185 Q430 240 445 332 Z " />
<glyph glyph-name="oe" unicode="&#x153;" horiz-adv-x="753" d="M275 469 Q333 469 365.5 456.5 Q398 444 406 407 L409 407 Q418 426 434 438 Q450 450 471 457 Q492 464 516.5 466.5 Q541 469 567 469 Q612 469 641.5 460 Q671 451 688 436 Q705 421 712 401 Q719 381 719 360 Q719 331 710.5 303 Q702 275 680 256 Q665 243 646.5 233.5 Q628 224 601 218 Q574 212 536.5 209.5 Q499 207 445 207 L412 207 Q409 186 407 167.5 Q405 149 405 131 Q405 83 427 67.5 Q449 52 503 52 Q532 52 550.5 54.5 Q569 57 580.5 63 Q592 69 598 78.5 Q604 88 607 101 L614 132 L682 132 Q682 125 681 117 Q680 110 679.5 101.5 Q679 93 677 85 Q669 41 626.5 18.5 Q584 -4 490 -4 Q428 -4 395 8.5 Q362 21 351 65 L348 65 Q336 43 319.5 29.5 Q303 16 283.5 8.5 Q264 1 242 -1.5 Q220 -4 198 -4 Q153 -4 121.5 1 Q90 6 70.5 19.5 Q51 33 42.5 56.5 Q34 80 34 116 Q34 162 46 233 Q58 307 73 353 Q88 399 113 425 Q138 451 177 460 Q216 469 275 469 Z M201 52 Q237 52 260 58 Q283 64 298 83 Q313 102 322.5 137.5 Q332 173 341 232 Q353 301 353 339 Q353 362 348 376.5 Q343 391 332 399 Q321 407 303 410 Q285 413 260 413 Q225 413 202 407 Q179 401 164 382.5 Q149 364 139 328.5 Q129 293 119 233 Q114 199 110.5 173 Q107 147 107 127 Q107 79 128.5 65.5 Q150 52 201 52 Z M453 258 Q503 258 551 263.5 Q599 269 625 292 Q635 301 642.5 316 Q650 331 650 351 Q650 377 631.5 395 Q613 413 563 413 Q525 413 501 404.5 Q477 396 462 377.5 Q447 359 438 329.5 Q429 300 422 258 L453 258 Z " />
<glyph glyph-name="endash" unicode="&#x2013;" horiz-adv-x="640" d="M45 212 L56 274 L594 274 L583 212 L45 212 Z " />
<glyph glyph-name="emdash" unicode="&#x2014;" horiz-adv-x="1280" d="M45 212 L56 274 L1234 274 L1223 212 L45 212 Z " />
<glyph glyph-name="quotedblleft" unicode="&#x201c;" horiz-adv-x="288" d="M94 665 L140 665 L83 556 L120 556 L107 474 L23 474 L36 556 L94 665 Z M220 665 L269 665 L209 556 L246 556 L233 474 L149 474 L162 556 L220 665 Z " />
<glyph glyph-name="quotedblright" unicode="&#x201d;" horiz-adv-x="290" d="M61 473 L13 473 L74 582 L36 582 L49 665 L134 665 L121 582 L61 473 Z M191 473 L142 473 L200 582 L164 582 L177 665 L261 665 L248 582 L191 473 Z " />
<glyph glyph-name="quoteleft" unicode="&#x2018;" horiz-adv-x="155" d="M88 665 L135 665 L77 556 L115 556 L102 474 L14 474 L27 556 L88 665 Z " />
<glyph glyph-name="quoteright" unicode="&#x2019;" horiz-adv-x="152" d="M60 473 L11 473 L72 582 L31 582 L44 665 L132 665 L119 582 L60 473 Z " />
<glyph glyph-name="divide" unicode="&#xf7;" horiz-adv-x="651" d="M283 482 L283 575 L367 575 L367 482 L283 482 Z M116 301 L116 364 L534 364 L534 301 L116 301 Z M283 90 L283 183 L367 183 L367 90 L283 90 Z " />
<glyph glyph-name="lozenge" unicode="&#x25ca;" horiz-adv-x="444" d="M248 0 L192 0 L39 376 L195 739 L256 739 L405 373 L248 0 Z M224 611 L116 376 L220 130 L331 373 L224 611 Z " />
<glyph glyph-name="fraction" unicode="&#x2044;" horiz-adv-x="478" d="M17 0 L-50 0 L457 665 L528 665 L17 0 Z " />
<glyph glyph-name="currency" unicode="&#xa4;" horiz-adv-x="601" d="M177 253 Q173 227 171.5 204.5 Q170 182 170 164 Q170 128 177.5 106.5 Q185 85 200 73 Q215 61 239 57.5 Q263 54 296 54 Q363 54 391.5 71.5 Q420 89 426 118 L439 183 L514 183 Q512 165 510.5 155.5 Q509 146 507 133 Q500 92 484.5 65.5 Q469 39 442.5 23 Q416 7 377.5 0.5 Q339 -6 286 -6 Q234 -6 197 1 Q160 8 136.5 26 Q113 44 102 76 Q91 108 91 158 Q91 178 93 202 Q95 226 98 253 L15 253 L41 307 L106 307 L116 365 L34 365 L60 420 L127 420 Q143 500 164.5 549.5 Q186 599 216.5 626 Q247 653 290.5 662.5 Q334 672 396 672 Q448 672 483.5 666 Q519 660 540 648.5 Q561 637 570 619.5 Q579 602 579 579 Q579 562 573 532.5 Q567 503 562 483 L487 483 Q490 503 492.5 520 Q495 537 495 551 Q495 567 490 578 Q485 589 472.5 596.5 Q460 604 438 607.5 Q416 611 382 611 Q343 611 315.5 604 Q288 597 267.5 577 Q247 557 232.5 519 Q218 481 205 420 L477 420 L450 365 L195 365 L185 307 L417 307 L389 253 L177 253 Z " />
<glyph glyph-name="guilsinglleft" unicode="&#x2039;" horiz-adv-x="222" d="M91 9 L28 256 L162 501 L217 484 L98 256 L155 25 L91 9 Z " />
<glyph glyph-name="guilsinglright" unicode="&#x203a;" horiz-adv-x="221" d="M-10 25 L122 256 L76 484 L139 501 L192 256 L46 9 L-10 25 Z " />
<glyph glyph-name="fi" unicode="&#xfb01;" horiz-adv-x="433" d="M246 0 L322 465 L394 465 L318 0 L246 0 Z M332 530 L345 609 L417 609 L404 530 L332 530 Z M265 409 L162 409 L95 0 L23 0 L90 409 L27 409 L36 465 L99 465 L112 544 Q118 580 133 604 Q148 628 167.5 642 Q187 656 210 662.5 Q233 669 256 669 Q281 669 301 668 Q321 667 326 666 L317 611 L302 611 Q295 611 285.5 611.5 Q276 612 266 612 Q224 612 207 595 Q190 578 185 546 L172 465 L291 465 L265 409 Z " />
<glyph glyph-name="fl" unicode="&#xfb02;" horiz-adv-x="431" d="M240 0 L349 665 L421 665 L312 0 L240 0 Z M265 409 L162 409 L95 0 L23 0 L90 409 L27 409 L36 465 L99 465 L112 544 Q118 580 133 604 Q148 628 167.5 642 Q187 656 210 662.5 Q233 669 256 669 Q281 669 301 668 Q321 667 326 666 L317 611 L302 611 Q295 611 285.5 611.5 Q276 612 266 612 Q224 612 207 595 Q190 578 185 546 L172 465 L291 465 L265 409 Z " />
<glyph glyph-name="daggerdbl" unicode="&#x2021;" horiz-adv-x="383" d="M1 62 L124 62 L180 403 L57 403 L67 465 L190 465 L223 665 L291 665 L258 465 L379 465 L369 403 L248 403 L192 62 L313 62 L303 0 L182 0 L150 -198 L82 -198 L114 0 L-8 0 L1 62 Z " />
<glyph glyph-name="periodcentered" unicode="&#xb7;" horiz-adv-x="259" d="M78 288 L91 370 L179 370 L166 288 L78 288 Z " />
<glyph glyph-name="quotesinglbase" unicode="&#x201a;" horiz-adv-x="153" d="M61 -109 L12 -109 L71 0 L34 0 L47 82 L134 82 L121 0 L61 -109 Z " />
<glyph glyph-name="quotedblbase" unicode="&#x201e;" horiz-adv-x="290" d="M64 -109 L15 -109 L74 0 L37 0 L50 82 L134 82 L121 0 L64 -109 Z M191 -109 L143 -109 L202 0 L164 0 L177 82 L261 82 L248 0 L191 -109 Z " />
<glyph glyph-name="perthousand" unicode="&#x2030;" horiz-adv-x="1100" d="M171 0 L103 0 L611 665 L682 665 L171 0 Z M345 509 Q337 460 327.5 429 Q318 398 301 380 Q284 362 256 355.5 Q228 349 184 349 Q141 349 116 355.5 Q91 362 79.5 380 Q68 398 68 429 Q68 460 76 509 Q84 558 95 589.5 Q106 621 124 638.5 Q142 656 170 662.5 Q198 669 240 669 Q283 669 308 662 Q333 655 344 637 Q355 619 354 588 Q353 557 345 509 Z M281 509 Q287 542 289 564.5 Q291 587 287 601 Q283 615 270 621 Q257 627 233 627 Q210 627 194.5 622 Q179 617 168.5 603.5 Q158 590 151.5 567 Q145 544 139 509 Q134 475 133 452.5 Q132 430 137 416.5 Q142 403 155 397.5 Q168 392 191 392 Q215 392 230 397.5 Q245 403 254.5 416.5 Q264 430 270 452.5 Q276 475 281 509 Z M705 157 Q697 108 686.5 77 Q676 46 658.5 28 Q641 10 613.5 3 Q586 -4 543 -4 Q499 -4 474 3 Q449 10 438.5 28 Q428 46 429 77 Q430 108 438 157 Q446 206 456 237.5 Q466 269 483 286 Q500 303 527 309.5 Q554 316 596 316 Q641 316 666.5 309 Q692 302 703 284.5 Q714 267 713.5 236 Q713 205 705 157 Z M639 157 Q644 190 646.5 212 Q649 234 644.5 248 Q640 262 627 268 Q614 274 589 274 Q567 274 552.5 269 Q538 264 528 250.5 Q518 237 511.5 214.5 Q505 192 499 157 Q493 123 491.5 100 Q490 77 494.5 63.5 Q499 50 512.5 44.5 Q526 39 550 39 Q574 39 589 45 Q604 51 613 64.5 Q622 78 627.5 100.5 Q633 123 639 157 Z M1022 157 Q1014 108 1004 77 Q994 46 976.5 28 Q959 10 931.5 3 Q904 -4 861 -4 Q817 -4 792 3 Q767 10 756 28 Q745 46 746 77 Q747 108 755 157 Q763 206 773 237.5 Q783 269 800.5 286 Q818 303 845 309.5 Q872 316 914 316 Q959 316 984 309 Q1009 302 1020.5 284.5 Q1032 267 1031 236 Q1030 205 1022 157 Z M958 157 Q963 190 965 212 Q967 234 962.5 248 Q958 262 945 268 Q932 274 907 274 Q885 274 870.5 269 Q856 264 846 250.5 Q836 237 829.5 214.5 Q823 192 817 157 Q811 123 809.5 100 Q808 77 812.5 63.5 Q817 50 830.5 44.5 Q844 39 868 39 Q892 39 907 45 Q922 51 931.5 64.5 Q941 78 946.5 100.5 Q952 123 958 157 Z " />
<glyph glyph-name="dotlessi" unicode="&#x131;" horiz-adv-x="233" d="M56 0 L123 409 L35 409 L45 465 L205 465 L128 0 L56 0 Z " />
<glyph glyph-name="circumflex" unicode="&#x2c6;" horiz-adv-x="301" d="M229 719 L154 779 L52 713 L27 753 L162 855 L264 753 L229 719 Z " />
<glyph glyph-name="tilde" unicode="&#x2dc;" horiz-adv-x="293" d="M108 633 Q122 633 136.5 626.5 Q151 620 163 612 Q175 604 184 597.5 Q193 591 196 591 Q204 591 211.5 596.5 Q219 602 230 623 L269 607 Q251 572 229 551.5 Q207 531 184 531 Q170 531 156 537.5 Q142 544 130 552 Q118 560 109.5 566.5 Q101 573 97 573 Q89 573 82 568 Q75 563 63 541 L23 557 Q41 592 63 612.5 Q85 633 108 633 Z " />
<glyph glyph-name="macron" unicode="&#xaf;" horiz-adv-x="277" d="M25 547 L34 600 L244 600 L235 547 L25 547 Z " />
<glyph glyph-name="breve" unicode="&#x2d8;" horiz-adv-x="304" d="M86 635 Q84 609 101.5 593.5 Q119 578 150 578 Q185 578 207.5 593.5 Q230 609 236 635 L279 635 Q273 589 236.5 560 Q200 531 143 531 Q83 531 58.5 561 Q34 591 42 635 L86 635 Z " />
<glyph glyph-name="dotaccent" unicode="&#x2d9;" horiz-adv-x="258" d="M87 540 L100 619 L172 619 L159 540 L87 540 Z " />
<glyph glyph-name="ring" unicode="&#x2da;" horiz-adv-x="250" d="M204 579 Q198 543 171 522.5 Q144 502 112 502 Q80 502 60.5 522.5 Q41 543 47 579 Q52 615 78.5 635.5 Q105 656 137 656 Q169 656 189 635.5 Q209 615 204 579 Z M169 579 Q172 600 161.5 611.5 Q151 623 132 623 Q113 623 99 611.5 Q85 600 82 579 Q78 559 88 547.5 Q98 536 117 536 Q136 536 150.5 547.5 Q165 559 169 579 Z " />
<glyph glyph-name="cedilla" unicode="&#xb8;" horiz-adv-x="213" d="M173 5 L129 -51 Q162 -51 181.5 -66 Q201 -81 194 -122 Q187 -167 161 -183.5 Q135 -200 77 -200 Q54 -200 33 -195 Q12 -190 -2 -182 L24 -142 Q44 -150 55.5 -153.5 Q67 -157 83 -157 Q109 -157 119.5 -147 Q130 -137 133 -119 Q136 -100 128.5 -90.5 Q121 -81 95 -81 L56 -81 L117 5 L173 5 Z " />
<glyph glyph-name="hungarumlaut" unicode="&#x2dd;" horiz-adv-x="337" d="M30 533 L132 664 L187 636 L69 513 L30 533 Z M156 535 L262 664 L316 634 L195 514 L156 535 Z " />
<glyph glyph-name="ogonek" unicode="&#x2db;" horiz-adv-x="214" d="M163 4 Q152 -5 138.5 -18 Q125 -31 112.5 -45 Q100 -59 91 -73.5 Q82 -88 80 -101 Q76 -124 91 -136 Q106 -148 126 -148 Q142 -148 156 -145.5 Q170 -143 184 -138 L188 -178 Q170 -189 145.5 -194 Q121 -199 100 -199 Q58 -199 33 -178.5 Q8 -158 14 -120 Q20 -84 47 -51.5 Q74 -19 106 4 L163 4 Z " />
<glyph glyph-name="caron" unicode="&#x2c7;" horiz-adv-x="296" d="M34 607 L68 641 L147 575 L249 641 L271 607 L144 511 L130 511 L34 607 Z " />
<glyph glyph-name="Euro" unicode="&#x20ac;" horiz-adv-x="600" d="M177 253 Q168 187 170 147.5 Q172 108 186.5 87.5 Q201 67 228 60.5 Q255 54 296 54 Q363 54 391.5 71.5 Q420 89 426 118 L439 183 L514 183 Q511 162 510 148 Q509 134 506 114 Q495 48 443 21 Q391 -6 286 -6 Q223 -6 182 4.5 Q141 15 119 43.5 Q97 72 92 122.5 Q87 173 97 253 L15 253 L41 307 L106 307 L116 365 L34 365 L60 420 L127 420 Q143 500 164.5 549.5 Q186 599 216.5 626 Q247 653 290.5 662.5 Q334 672 396 672 Q451 672 488 665.5 Q525 659 546.5 644.5 Q568 630 575 606 Q582 582 576 547 Q574 536 572 524.5 Q570 513 568 504 Q565 493 563 483 L487 483 Q493 517 495 541.5 Q497 566 487.5 581.5 Q478 597 453.5 604 Q429 611 382 611 Q343 611 315.5 604 Q288 597 267.5 577 Q247 557 232.5 519 Q218 481 205 420 L477 420 L450 365 L195 365 L185 307 L417 307 L389 253 L177 253 Z " />
<glyph glyph-name="Eth" unicode="&#xd0;" horiz-adv-x="604" d="M15 370 L85 370 L133 665 L352 665 Q481 665 532.5 600 Q584 535 560 389 L541 274 Q518 130 445.5 65 Q373 0 243 0 L24 0 L74 308 L4 308 L15 370 Z M483 389 Q500 496 469 547.5 Q438 599 341 599 L199 599 L162 370 L350 370 L339 308 L151 308 L112 66 L254 66 Q298 66 333 76 Q368 86 393.5 110 Q419 134 436.5 174 Q454 214 464 274 L483 389 Z " />
<glyph glyph-name="aacute" unicode="&#xe1;" horiz-adv-x="485" d="M389 0 L323 0 L325 50 Q313 33 292 21 Q272 9 248.5 2.5 Q225 -4 190 -4 Q115 -4 77.5 33.5 Q40 71 40 138 Q40 168 43 193 Q46 218 48 232 Q60 308 78.5 352 Q97 396 129 422 Q189 473 305 473 Q353 473 393.5 465.5 Q434 458 462 449 L389 0 Z M383 406 Q370 408 362 409.5 Q354 411 345.5 411.5 Q337 412 326.5 412.5 Q316 413 299 413 Q279 413 257 410 Q235 407 214 399 Q194 391 179.5 378.5 Q165 366 154.5 346.5 Q144 327 136.5 299 Q129 271 123 231 Q121 217 118 192 Q115 167 115 142 Q115 99 140.5 78.5 Q166 58 211 58 Q269 58 301.5 82.5 Q334 107 345 172 L383 406 Z M255 544 L369 656 L411 607 L284 510 L255 544 Z " />
<glyph glyph-name="agrave" unicode="&#xe0;" horiz-adv-x="485" d="M389 0 L323 0 L325 50 Q313 33 292 21 Q272 9 248.5 2.5 Q225 -4 190 -4 Q115 -4 77.5 33.5 Q40 71 40 138 Q40 168 43 193 Q46 218 48 232 Q60 308 78.5 352 Q97 396 129 422 Q189 473 305 473 Q353 473 393.5 465.5 Q434 458 462 449 L389 0 Z M383 406 Q370 408 362 409.5 Q354 411 345.5 411.5 Q337 412 326.5 412.5 Q316 413 299 413 Q279 413 257 410 Q235 407 214 399 Q194 391 179.5 378.5 Q165 366 154.5 346.5 Q144 327 136.5 299 Q129 271 123 231 Q121 217 118 192 Q115 167 115 142 Q115 99 140.5 78.5 Q166 58 211 58 Q269 58 301.5 82.5 Q334 107 345 172 L383 406 Z M301 510 L173 607 L217 658 L332 546 L301 510 Z " />
<glyph glyph-name="acircumflex" unicode="&#xe2;" horiz-adv-x="485" d="M389 0 L323 0 L325 50 Q313 33 292 21 Q272 9 248.5 2.5 Q225 -4 190 -4 Q115 -4 77.5 33.5 Q40 71 40 138 Q40 168 43 193 Q46 218 48 232 Q60 308 78.5 352 Q97 396 129 422 Q189 473 305 473 Q353 473 393.5 465.5 Q434 458 462 449 L389 0 Z M383 406 Q370 408 362 409.5 Q354 411 345.5 411.5 Q337 412 326.5 412.5 Q316 413 299 413 Q279 413 257 410 Q235 407 214 399 Q194 391 179.5 378.5 Q165 366 154.5 346.5 Q144 327 136.5 299 Q129 271 123 231 Q121 217 118 192 Q115 167 115 142 Q115 99 140.5 78.5 Q166 58 211 58 Q269 58 301.5 82.5 Q334 107 345 172 L383 406 Z M394 519 L319 579 L217 513 L192 553 L327 655 L429 553 L394 519 Z " />
<glyph glyph-name="adieresis" unicode="&#xe4;" horiz-adv-x="485" d="M389 0 L323 0 L325 50 Q313 33 292 21 Q272 9 248.5 2.5 Q225 -4 190 -4 Q115 -4 77.5 33.5 Q40 71 40 138 Q40 168 43 193 Q46 218 48 232 Q60 308 78.5 352 Q97 396 129 422 Q189 473 305 473 Q353 473 393.5 465.5 Q434 458 462 449 L389 0 Z M383 406 Q370 408 362 409.5 Q354 411 345.5 411.5 Q337 412 326.5 412.5 Q316 413 299 413 Q279 413 257 410 Q235 407 214 399 Q194 391 179.5 378.5 Q165 366 154.5 346.5 Q144 327 136.5 299 Q129 271 123 231 Q121 217 118 192 Q115 167 115 142 Q115 99 140.5 78.5 Q166 58 211 58 Q269 58 301.5 82.5 Q334 107 345 172 L383 406 Z M196 545 L209 624 L281 624 L268 545 L196 545 Z M335 545 L348 624 L420 624 L407 545 L335 545 Z " />
<glyph glyph-name="atilde" unicode="&#xe3;" horiz-adv-x="485" d="M389 0 L323 0 L325 50 Q313 33 292 21 Q272 9 248.5 2.5 Q225 -4 190 -4 Q115 -4 77.5 33.5 Q40 71 40 138 Q40 168 43 193 Q46 218 48 232 Q60 308 78.5 352 Q97 396 129 422 Q189 473 305 473 Q353 473 393.5 465.5 Q434 458 462 449 L389 0 Z M383 406 Q370 408 362 409.5 Q354 411 345.5 411.5 Q337 412 326.5 412.5 Q316 413 299 413 Q279 413 257 410 Q235 407 214 399 Q194 391 179.5 378.5 Q165 366 154.5 346.5 Q144 327 136.5 299 Q129 271 123 231 Q121 217 118 192 Q115 167 115 142 Q115 99 140.5 78.5 Q166 58 211 58 Q269 58 301.5 82.5 Q334 107 345 172 L383 406 Z M271 633 Q285 633 299.5 626.5 Q314 620 326 612 Q338 604 347 597.5 Q356 591 359 591 Q367 591 374.5 596.5 Q382 602 393 623 L432 607 Q414 572 392 551.5 Q370 531 347 531 Q333 531 319 537.5 Q305 544 293 552 Q281 560 272.5 566.5 Q264 573 260 573 Q252 573 245 568 Q238 563 226 541 L186 557 Q204 592 226 612.5 Q248 633 271 633 Z " />
<glyph glyph-name="aring" unicode="&#xe5;" horiz-adv-x="485" d="M389 0 L323 0 L325 50 Q313 33 292 21 Q272 9 248.5 2.5 Q225 -4 190 -4 Q115 -4 77.5 33.5 Q40 71 40 138 Q40 168 43 193 Q46 218 48 232 Q60 308 78.5 352 Q97 396 129 422 Q189 473 305 473 Q353 473 393.5 465.5 Q434 458 462 449 L389 0 Z M383 406 Q370 408 362 409.5 Q354 411 345.5 411.5 Q337 412 326.5 412.5 Q316 413 299 413 Q279 413 257 410 Q235 407 214 399 Q194 391 179.5 378.5 Q165 366 154.5 346.5 Q144 327 136.5 299 Q129 271 123 231 Q121 217 118 192 Q115 167 115 142 Q115 99 140.5 78.5 Q166 58 211 58 Q269 58 301.5 82.5 Q334 107 345 172 L383 406 Z M388 579 Q382 543 355 522.5 Q328 502 296 502 Q264 502 244.5 522.5 Q225 543 231 579 Q236 615 262.5 635.5 Q289 656 321 656 Q353 656 373 635.5 Q393 615 388 579 Z M353 579 Q356 600 345.5 611.5 Q335 623 316 623 Q297 623 283 611.5 Q269 600 266 579 Q262 559 272 547.5 Q282 536 301 536 Q320 536 334.5 547.5 Q349 559 353 579 Z " />
<glyph glyph-name="ccedilla" unicode="&#xe7;" horiz-adv-x="445" d="M240 5 L196 -51 Q229 -51 248.5 -66 Q268 -81 261 -122 Q254 -167 228 -183.5 Q202 -200 144 -200 Q121 -200 100 -195 Q79 -190 65 -182 L91 -142 Q111 -150 122.5 -153.5 Q134 -157 150 -157 Q176 -157 186.5 -147 Q197 -137 200 -119 Q203 -100 195.5 -90.5 Q188 -81 162 -81 L123 -81 L184 5 L240 5 Z M431 393 Q431 383 427.5 366 Q424 349 419 332 L351 332 Q352 340 352.5 349.5 Q353 359 353 364 Q353 389 334.5 400.5 Q316 412 263 412 Q226 412 202 406 Q178 400 162.5 381 Q147 362 137 325.5 Q127 289 117 229 Q112 197 109 172 Q106 147 106 128 Q106 80 128 65.5 Q150 51 204 51 Q233 51 252.5 54.5 Q272 58 284 64.5 Q296 71 302.5 80.5 Q309 90 312 103 L320 132 L388 132 Q388 128 386.5 117 Q385 106 383 92 Q380 69 370 51.5 Q360 34 338.5 21 Q317 8 282.5 1.5 Q248 -5 195 -5 Q152 -5 122 0.5 Q92 6 73 20 Q54 34 45 58 Q36 82 36 119 Q36 164 48 233 Q60 306 76.5 352 Q93 398 118.5 424 Q144 450 181.5 460 Q219 470 273 470 Q317 470 347.5 464 Q378 458 396.5 447.5 Q415 437 423 423 Q431 409 431 393 Z " />
<glyph glyph-name="eacute" unicode="&#xe9;" horiz-adv-x="458" d="M424 361 Q424 314 412.5 286.5 Q401 259 384 241 Q366 222 332.5 211.5 Q299 201 262 195.5 Q225 190 190.5 189 Q156 188 136 188 L109 188 L105 132 Q105 81 128 66.5 Q151 52 202 52 Q232 52 251 55 Q270 58 282 64 Q294 70 300 79 Q306 88 310 100 L319 132 L387 132 Q387 126 386 119 Q385 113 384.5 104.5 Q384 96 382 88 Q374 37 328.5 16.5 Q283 -4 193 -4 Q153 -4 123.5 1 Q94 6 75 20.5 Q56 35 46.5 60 Q37 85 37 125 Q37 146 39.5 172 Q42 198 47 230 Q58 297 74 343 Q90 389 115.5 417 Q141 445 178 457 Q215 469 268 469 Q301 469 329.5 462 Q358 455 379 441.5 Q400 428 412 408 Q424 388 424 361 Z M151 237 Q176 237 202.5 238.5 Q229 240 253 244 Q277 248 296 255 Q315 262 326 273 Q334 281 343 300 Q352 319 352 348 Q352 377 331 395 Q310 413 261 413 Q229 413 206 406 Q183 399 167 383 Q151 367 140.5 340.5 Q130 314 124 274 L118 237 L151 237 Z M230 544 L344 656 L386 607 L259 510 L230 544 Z " />
<glyph glyph-name="egrave" unicode="&#xe8;" horiz-adv-x="458" d="M424 361 Q424 314 412.5 286.5 Q401 259 384 241 Q366 222 332.5 211.5 Q299 201 262 195.5 Q225 190 190.5 189 Q156 188 136 188 L109 188 L105 132 Q105 81 128 66.5 Q151 52 202 52 Q232 52 251 55 Q270 58 282 64 Q294 70 300 79 Q306 88 310 100 L319 132 L387 132 Q387 126 386 119 Q385 113 384.5 104.5 Q384 96 382 88 Q374 37 328.5 16.5 Q283 -4 193 -4 Q153 -4 123.5 1 Q94 6 75 20.5 Q56 35 46.5 60 Q37 85 37 125 Q37 146 39.5 172 Q42 198 47 230 Q58 297 74 343 Q90 389 115.5 417 Q141 445 178 457 Q215 469 268 469 Q301 469 329.5 462 Q358 455 379 441.5 Q400 428 412 408 Q424 388 424 361 Z M151 237 Q176 237 202.5 238.5 Q229 240 253 244 Q277 248 296 255 Q315 262 326 273 Q334 281 343 300 Q352 319 352 348 Q352 377 331 395 Q310 413 261 413 Q229 413 206 406 Q183 399 167 383 Q151 367 140.5 340.5 Q130 314 124 274 L118 237 L151 237 Z M291 510 L163 607 L207 658 L322 546 L291 510 Z " />
<glyph glyph-name="ecircumflex" unicode="&#xea;" horiz-adv-x="458" d="M424 361 Q424 314 412.5 286.5 Q401 259 384 241 Q366 222 332.5 211.5 Q299 201 262 195.5 Q225 190 190.5 189 Q156 188 136 188 L109 188 L105 132 Q105 81 128 66.5 Q151 52 202 52 Q232 52 251 55 Q270 58 282 64 Q294 70 300 79 Q306 88 310 100 L319 132 L387 132 Q387 126 386 119 Q385 113 384.5 104.5 Q384 96 382 88 Q374 37 328.5 16.5 Q283 -4 193 -4 Q153 -4 123.5 1 Q94 6 75 20.5 Q56 35 46.5 60 Q37 85 37 125 Q37 146 39.5 172 Q42 198 47 230 Q58 297 74 343 Q90 389 115.5 417 Q141 445 178 457 Q215 469 268 469 Q301 469 329.5 462 Q358 455 379 441.5 Q400 428 412 408 Q424 388 424 361 Z M151 237 Q176 237 202.5 238.5 Q229 240 253 244 Q277 248 296 255 Q315 262 326 273 Q334 281 343 300 Q352 319 352 348 Q352 377 331 395 Q310 413 261 413 Q229 413 206 406 Q183 399 167 383 Q151 367 140.5 340.5 Q130 314 124 274 L118 237 L151 237 Z M373 519 L298 579 L196 513 L171 553 L306 655 L408 553 L373 519 Z " />
<glyph glyph-name="edieresis" unicode="&#xeb;" horiz-adv-x="458" d="M424 361 Q424 314 412.5 286.5 Q401 259 384 241 Q366 222 332.5 211.5 Q299 201 262 195.5 Q225 190 190.5 189 Q156 188 136 188 L109 188 L105 132 Q105 81 128 66.5 Q151 52 202 52 Q232 52 251 55 Q270 58 282 64 Q294 70 300 79 Q306 88 310 100 L319 132 L387 132 Q387 126 386 119 Q385 113 384.5 104.5 Q384 96 382 88 Q374 37 328.5 16.5 Q283 -4 193 -4 Q153 -4 123.5 1 Q94 6 75 20.5 Q56 35 46.5 60 Q37 85 37 125 Q37 146 39.5 172 Q42 198 47 230 Q58 297 74 343 Q90 389 115.5 417 Q141 445 178 457 Q215 469 268 469 Q301 469 329.5 462 Q358 455 379 441.5 Q400 428 412 408 Q424 388 424 361 Z M151 237 Q176 237 202.5 238.5 Q229 240 253 244 Q277 248 296 255 Q315 262 326 273 Q334 281 343 300 Q352 319 352 348 Q352 377 331 395 Q310 413 261 413 Q229 413 206 406 Q183 399 167 383 Q151 367 140.5 340.5 Q130 314 124 274 L118 237 L151 237 Z M175 545 L188 624 L260 624 L247 545 L175 545 Z M314 545 L327 624 L399 624 L386 545 L314 545 Z " />
<glyph glyph-name="iacute" unicode="&#xed;" horiz-adv-x="214" d="M45 0 L112 409 L24 409 L34 465 L194 465 L117 0 L45 0 Z M116 544 L230 656 L272 607 L145 510 L116 544 Z " />
<glyph glyph-name="igrave" unicode="&#xec;" horiz-adv-x="214" d="M45 0 L112 409 L24 409 L34 465 L194 465 L117 0 L45 0 Z M177 510 L49 607 L93 658 L208 546 L177 510 Z " />
<glyph glyph-name="icircumflex" unicode="&#xee;" horiz-adv-x="214" d="M45 0 L112 409 L24 409 L34 465 L194 465 L117 0 L45 0 Z M247 519 L172 579 L70 513 L45 553 L180 655 L282 553 L247 519 Z " />
<glyph glyph-name="idieresis" unicode="&#xef;" horiz-adv-x="214" d="M45 0 L112 409 L24 409 L34 465 L194 465 L117 0 L45 0 Z M28 545 L41 624 L113 624 L100 545 L28 545 Z M167 545 L180 624 L252 624 L239 545 L167 545 Z " />
<glyph glyph-name="odieresis" unicode="&#xf6;" horiz-adv-x="462" d="M266 469 Q309 469 339.5 464 Q370 459 389 445.5 Q408 432 416.5 408.5 Q425 385 425 348 Q425 302 413 232 Q401 158 385.5 112 Q370 66 345.5 40 Q321 14 283.5 5 Q246 -4 189 -4 Q147 -4 117.5 1 Q88 6 70 19 Q52 32 43.5 54.5 Q35 77 35 113 Q35 136 38.5 166 Q42 196 48 233 Q60 307 74.5 353 Q89 399 113 425 Q137 451 173.5 460 Q210 469 266 469 Z M200 52 Q235 52 257.5 58 Q280 64 295 83 Q310 102 320 137.5 Q330 173 339 232 Q351 301 351 338 Q351 385 329.5 399 Q308 413 259 413 Q224 413 202 407 Q180 401 165 382.5 Q150 364 140.5 328.5 Q131 293 121 233 Q109 164 109 127 Q109 80 130 66 Q151 52 200 52 Z M173 545 L186 624 L258 624 L245 545 L173 545 Z M312 545 L325 624 L397 624 L384 545 L312 545 Z " />
<glyph glyph-name="ograve" unicode="&#xf2;" horiz-adv-x="462" d="M266 469 Q309 469 339.5 464 Q370 459 389 445.5 Q408 432 416.5 408.5 Q425 385 425 348 Q425 302 413 232 Q401 158 385.5 112 Q370 66 345.5 40 Q321 14 283.5 5 Q246 -4 189 -4 Q147 -4 117.5 1 Q88 6 70 19 Q52 32 43.5 54.5 Q35 77 35 113 Q35 136 38.5 166 Q42 196 48 233 Q60 307 74.5 353 Q89 399 113 425 Q137 451 173.5 460 Q210 469 266 469 Z M200 52 Q235 52 257.5 58 Q280 64 295 83 Q310 102 320 137.5 Q330 173 339 232 Q351 301 351 338 Q351 385 329.5 399 Q308 413 259 413 Q224 413 202 407 Q180 401 165 382.5 Q150 364 140.5 328.5 Q131 293 121 233 Q109 164 109 127 Q109 80 130 66 Q151 52 200 52 Z M294 510 L166 607 L210 658 L325 546 L294 510 Z " />
<glyph glyph-name="oacute" unicode="&#xf3;" horiz-adv-x="462" d="M266 469 Q309 469 339.5 464 Q370 459 389 445.5 Q408 432 416.5 408.5 Q425 385 425 348 Q425 302 413 232 Q401 158 385.5 112 Q370 66 345.5 40 Q321 14 283.5 5 Q246 -4 189 -4 Q147 -4 117.5 1 Q88 6 70 19 Q52 32 43.5 54.5 Q35 77 35 113 Q35 136 38.5 166 Q42 196 48 233 Q60 307 74.5 353 Q89 399 113 425 Q137 451 173.5 460 Q210 469 266 469 Z M200 52 Q235 52 257.5 58 Q280 64 295 83 Q310 102 320 137.5 Q330 173 339 232 Q351 301 351 338 Q351 385 329.5 399 Q308 413 259 413 Q224 413 202 407 Q180 401 165 382.5 Q150 364 140.5 328.5 Q131 293 121 233 Q109 164 109 127 Q109 80 130 66 Q151 52 200 52 Z M213 544 L327 656 L369 607 L242 510 L213 544 Z " />
<glyph glyph-name="ocircumflex" unicode="&#xf4;" horiz-adv-x="462" d="M266 469 Q309 469 339.5 464 Q370 459 389 445.5 Q408 432 416.5 408.5 Q425 385 425 348 Q425 302 413 232 Q401 158 385.5 112 Q370 66 345.5 40 Q321 14 283.5 5 Q246 -4 189 -4 Q147 -4 117.5 1 Q88 6 70 19 Q52 32 43.5 54.5 Q35 77 35 113 Q35 136 38.5 166 Q42 196 48 233 Q60 307 74.5 353 Q89 399 113 425 Q137 451 173.5 460 Q210 469 266 469 Z M200 52 Q235 52 257.5 58 Q280 64 295 83 Q310 102 320 137.5 Q330 173 339 232 Q351 301 351 338 Q351 385 329.5 399 Q308 413 259 413 Q224 413 202 407 Q180 401 165 382.5 Q150 364 140.5 328.5 Q131 293 121 233 Q109 164 109 127 Q109 80 130 66 Q151 52 200 52 Z M370 519 L295 579 L193 513 L168 553 L303 655 L405 553 L370 519 Z " />
<glyph glyph-name="otilde" unicode="&#xf5;" horiz-adv-x="462" d="M266 469 Q309 469 339.5 464 Q370 459 389 445.5 Q408 432 416.5 408.5 Q425 385 425 348 Q425 302 413 232 Q401 158 385.5 112 Q370 66 345.5 40 Q321 14 283.5 5 Q246 -4 189 -4 Q147 -4 117.5 1 Q88 6 70 19 Q52 32 43.5 54.5 Q35 77 35 113 Q35 136 38.5 166 Q42 196 48 233 Q60 307 74.5 353 Q89 399 113 425 Q137 451 173.5 460 Q210 469 266 469 Z M200 52 Q235 52 257.5 58 Q280 64 295 83 Q310 102 320 137.5 Q330 173 339 232 Q351 301 351 338 Q351 385 329.5 399 Q308 413 259 413 Q224 413 202 407 Q180 401 165 382.5 Q150 364 140.5 328.5 Q131 293 121 233 Q109 164 109 127 Q109 80 130 66 Q151 52 200 52 Z M249 633 Q263 633 277.5 626.5 Q292 620 304 612 Q316 604 325 597.5 Q334 591 337 591 Q345 591 352.5 596.5 Q360 602 371 623 L410 607 Q392 572 370 551.5 Q348 531 325 531 Q311 531 297 537.5 Q283 544 271 552 Q259 560 250.5 566.5 Q242 573 238 573 Q230 573 223 568 Q216 563 204 541 L164 557 Q182 592 204 612.5 Q226 633 249 633 Z " />
<glyph glyph-name="ntilde" unicode="&#xf1;" horiz-adv-x="466" d="M300 471 Q370 471 399.5 448.5 Q429 426 429 378 Q429 371 428 360.5 Q427 350 425 339 L370 0 L298 0 L350 320 Q353 339 353 352 Q353 382 337 395.5 Q321 409 286 409 Q250 409 221 403.5 Q192 398 161 387 L98 0 L26 0 L102 465 L167 465 L166 428 Q192 447 225 459 Q258 471 300 471 Z M254 633 Q268 633 282.5 626.5 Q297 620 309 612 Q321 604 330 597.5 Q339 591 342 591 Q350 591 357.5 596.5 Q365 602 376 623 L415 607 Q397 572 375 551.5 Q353 531 330 531 Q316 531 302 537.5 Q288 544 276 552 Q264 560 255.5 566.5 Q247 573 243 573 Q235 573 228 568 Q221 563 209 541 L169 557 Q187 592 209 612.5 Q231 633 254 633 Z " />
<glyph glyph-name="scaron" unicode="&#x161;" horiz-adv-x="452" d="M393 180 Q393 141 382 104.5 Q371 68 354 48 Q339 31 320 21 Q301 11 279 5.5 Q257 0 232.5 -2 Q208 -4 183 -4 Q137 -4 106 0 Q75 4 56 12.5 Q37 21 28.5 34.5 Q20 48 20 66 Q20 78 25 101 Q30 124 36 142 L105 142 Q104 134 102.5 116 Q101 98 101 90 Q101 80 104.5 72.5 Q108 65 118 60 Q128 55 146 52.5 Q164 50 192 50 Q227 50 248.5 55 Q270 60 284 71 Q301 85 308.5 107 Q316 129 316 152 Q316 178 300.5 190.5 Q285 203 253 206 L166 215 Q114 220 90.5 239 Q67 258 67 303 Q67 319 69.5 337.5 Q72 356 77 373.5 Q82 391 90 406.5 Q98 422 109 432 Q131 452 166 461 Q201 470 259 470 Q339 470 377 453.5 Q415 437 415 400 Q415 392 412 375 Q409 358 404 340 L334 340 L336 377 Q336 399 319 407.5 Q302 416 250 416 Q217 416 197 411 Q177 406 165 395 Q153 384 147 360 Q141 336 141 316 Q141 273 187 270 L273 263 Q338 258 365.5 241.5 Q393 225 393 180 Z M158 607 L192 641 L271 575 L373 641 L395 607 L268 511 L254 511 L158 607 Z " />
<glyph glyph-name="Scaron" unicode="&#x160;" horiz-adv-x="537" d="M474 188 Q464 129 443.5 91.5 Q423 54 389.5 32.5 Q356 11 309 2.5 Q262 -6 199 -6 Q144 -6 107.5 0 Q71 6 49 17.5 Q27 29 17.5 45 Q8 61 8 82 Q8 98 13.5 123.5 Q19 149 24 171 L98 171 Q97 164 96 154 Q95 144 94 134.5 Q93 125 92.5 117.5 Q92 110 92 109 Q92 83 116.5 69 Q141 55 208 55 Q256 55 288.5 61.5 Q321 68 342.5 83.5 Q364 99 376.5 124.5 Q389 150 395 189 Q397 201 398 211.5 Q399 222 399 231 Q399 277 375.5 293.5 Q352 310 307 312 L209 318 Q174 320 146 325.5 Q118 331 98.5 344.5 Q79 358 68.5 380.5 Q58 403 58 439 Q58 450 59.5 463 Q61 476 63 490 Q72 543 90 578 Q108 613 138.5 633.5 Q169 654 214.5 662.5 Q260 671 324 671 Q380 671 417 665 Q454 659 476 647.5 Q498 636 507 620 Q516 604 516 584 Q516 579 514.5 568 Q513 557 510.5 544.5 Q508 532 505 518.5 Q502 505 499 495 L424 495 Q426 516 427.5 532.5 Q429 549 429 552 Q429 568 424 579 Q419 590 406 597 Q393 604 371 607.5 Q349 611 315 611 Q268 611 237 605 Q206 599 187 584.5 Q168 570 158.5 547 Q149 524 143 490 Q140 469 140 452 Q140 412 161.5 398.5 Q183 385 231 382 L353 374 Q377 372 400 367 Q423 362 440.5 348.5 Q458 335 468.5 311 Q479 287 479 247 Q479 234 478 219.5 Q477 205 474 188 Z M210 807 L244 841 L323 775 L425 841 L447 807 L320 711 L306 711 L210 807 Z " />
<glyph glyph-name="Zcaron" unicode="&#x17d;" horiz-adv-x="552" d="M439 0 L4 0 L15 68 L465 595 L466 600 L179 600 L164 504 L86 504 L112 665 L558 665 L547 600 L96 72 L95 68 L487 68 L439 0 Z M228 807 L262 841 L341 775 L443 841 L465 807 L338 711 L324 711 L228 807 Z " />
<glyph glyph-name="zcaron" unicode="&#x17e;" horiz-adv-x="404" d="M317 0 L-2 0 L10 79 L307 395 L309 409 L137 409 L130 364 L71 364 L88 465 L392 465 L379 387 L87 78 L84 57 L351 57 L317 0 Z M133 607 L167 641 L246 575 L348 641 L370 607 L243 511 L229 511 L133 607 Z " />
<glyph glyph-name="ydieresis" unicode="&#xff;" horiz-adv-x="419" d="M197 -129 Q179 -168 156 -184 Q133 -200 91 -200 Q76 -200 61.5 -199 Q47 -198 33 -196 L43 -135 L76 -135 Q92 -135 103 -132.5 Q114 -130 122 -124 Q130 -118 136.5 -107.5 Q143 -97 151 -80 L188 0 L120 0 L60 465 L138 465 L183 51 L208 51 L389 465 L467 465 L197 -129 Z M168 545 L181 624 L253 624 L240 545 L168 545 Z M307 545 L320 624 L392 624 L379 545 L307 545 Z " />
<glyph glyph-name="Ydieresis" unicode="&#x178;" horiz-adv-x="549" d="M161 0 L81 0 L250 241 L194 241 L60 665 L148 665 L249 311 L288 311 L516 665 L597 665 L161 0 Z M233 745 L246 824 L318 824 L305 745 L233 745 Z M372 745 L385 824 L457 824 L444 745 L372 745 Z " />
<glyph glyph-name="ugrave" unicode="&#xf9;" horiz-adv-x="471" d="M375 27 Q332 13 284.5 3 Q237 -7 188 -7 Q111 -7 77 20.5 Q43 48 43 116 Q43 147 49 186 L95 465 L167 465 L119 171 Q117 160 116 150 Q115 140 115 131 Q115 84 140 65.5 Q165 47 216 47 Q239 47 261.5 50 Q284 53 308 61 L375 465 L447 465 L375 27 Z M271 510 L143 607 L187 658 L302 546 L271 510 Z " />
<glyph glyph-name="uacute" unicode="&#xfa;" horiz-adv-x="471" d="M375 27 Q332 13 284.5 3 Q237 -7 188 -7 Q111 -7 77 20.5 Q43 48 43 116 Q43 147 49 186 L95 465 L167 465 L119 171 Q117 160 116 150 Q115 140 115 131 Q115 84 140 65.5 Q165 47 216 47 Q239 47 261.5 50 Q284 53 308 61 L375 465 L447 465 L375 27 Z M223 544 L337 656 L379 607 L252 510 L223 544 Z " />
<glyph glyph-name="ucircumflex" unicode="&#xfb;" horiz-adv-x="471" d="M375 27 Q332 13 284.5 3 Q237 -7 188 -7 Q111 -7 77 20.5 Q43 48 43 116 Q43 147 49 186 L95 465 L167 465 L119 171 Q117 160 116 150 Q115 140 115 131 Q115 84 140 65.5 Q165 47 216 47 Q239 47 261.5 50 Q284 53 308 61 L375 465 L447 465 L375 27 Z M371 519 L296 579 L194 513 L169 553 L304 655 L406 553 L371 519 Z " />
<glyph glyph-name="udieresis" unicode="&#xfc;" horiz-adv-x="471" d="M375 27 Q332 13 284.5 3 Q237 -7 188 -7 Q111 -7 77 20.5 Q43 48 43 116 Q43 147 49 186 L95 465 L167 465 L119 171 Q117 160 116 150 Q115 140 115 131 Q115 84 140 65.5 Q165 47 216 47 Q239 47 261.5 50 Q284 53 308 61 L375 465 L447 465 L375 27 Z M179 545 L192 624 L264 624 L251 545 L179 545 Z M318 545 L331 624 L403 624 L390 545 L318 545 Z " />
<glyph glyph-name="yacute" unicode="&#xfd;" horiz-adv-x="419" d="M197 -129 Q179 -168 156 -184 Q133 -200 91 -200 Q76 -200 61.5 -199 Q47 -198 33 -196 L43 -135 L76 -135 Q92 -135 103 -132.5 Q114 -130 122 -124 Q130 -118 136.5 -107.5 Q143 -97 151 -80 L188 0 L120 0 L60 465 L138 465 L183 51 L208 51 L389 465 L467 465 L197 -129 Z M222 544 L336 656 L378 607 L251 510 L222 544 Z " />
<glyph glyph-name="Acircumflex" unicode="&#xc2;" horiz-adv-x="598" d="M457 0 L429 165 L113 165 L31 0 L-48 0 L284 665 L424 665 L537 0 L457 0 Z M356 605 L331 605 L139 225 L424 225 L356 605 Z M456 719 L381 779 L279 713 L254 753 L389 855 L491 753 L456 719 Z " />
<glyph glyph-name="Atilde" unicode="&#xc3;" horiz-adv-x="598" d="M457 0 L429 165 L113 165 L31 0 L-48 0 L284 665 L424 665 L537 0 L457 0 Z M356 605 L331 605 L139 225 L424 225 L356 605 Z M335 833 Q349 833 363.5 826.5 Q378 820 390 812 Q402 804 411 797.5 Q420 791 423 791 Q431 791 438.5 796.5 Q446 802 457 823 L496 807 Q478 772 456 751.5 Q434 731 411 731 Q397 731 383 737.5 Q369 744 357 752 Q345 760 336.5 766.5 Q328 773 324 773 Q316 773 309 768 Q302 763 290 741 L250 757 Q268 792 290 812.5 Q312 833 335 833 Z " />
<glyph glyph-name="Adieresis" unicode="&#xc4;" horiz-adv-x="598" d="M457 0 L429 165 L113 165 L31 0 L-48 0 L284 665 L424 665 L537 0 L457 0 Z M356 605 L331 605 L139 225 L424 225 L356 605 Z M258 745 L271 824 L343 824 L330 745 L258 745 Z M397 745 L410 824 L482 824 L469 745 L397 745 Z " />
<glyph glyph-name="Aring" unicode="&#xc5;" horiz-adv-x="598" d="M457 0 L429 165 L113 165 L31 0 L-48 0 L284 665 L424 665 L537 0 L457 0 Z M356 605 L331 605 L139 225 L424 225 L356 605 Z M451 779 Q445 743 418 722.5 Q391 702 359 702 Q327 702 307.5 722.5 Q288 743 294 779 Q299 815 325.5 835.5 Q352 856 384 856 Q416 856 436 835.5 Q456 815 451 779 Z M416 779 Q419 800 408.5 811.5 Q398 823 379 823 Q360 823 346 811.5 Q332 800 329 779 Q325 759 335 747.5 Q345 736 364 736 Q383 736 397.5 747.5 Q412 759 416 779 Z " />
<glyph glyph-name="Egrave" unicode="&#xc8;" horiz-adv-x="500" d="M15 0 L124 665 L516 665 L505 599 L191 599 L154 373 L443 373 L406 308 L143 308 L104 66 L418 66 L407 0 L15 0 Z M336 710 L208 807 L252 858 L367 746 L336 710 Z " />
<glyph glyph-name="Eacute" unicode="&#xc9;" horiz-adv-x="500" d="M15 0 L124 665 L516 665 L505 599 L191 599 L154 373 L443 373 L406 308 L143 308 L104 66 L418 66 L407 0 L15 0 Z M291 744 L405 856 L447 807 L320 710 L291 744 Z " />
<glyph glyph-name="Ecircumflex" unicode="&#xca;" horiz-adv-x="500" d="M15 0 L124 665 L516 665 L505 599 L191 599 L154 373 L443 373 L406 308 L143 308 L104 66 L418 66 L407 0 L15 0 Z M411 719 L336 779 L234 713 L209 753 L344 855 L446 753 L411 719 Z " />
<glyph glyph-name="Edieresis" unicode="&#xcb;" horiz-adv-x="500" d="M15 0 L124 665 L516 665 L505 599 L191 599 L154 373 L443 373 L406 308 L143 308 L104 66 L418 66 L407 0 L15 0 Z M222 745 L235 824 L307 824 L294 745 L222 745 Z M361 745 L374 824 L446 824 L433 745 L361 745 Z " />
<glyph glyph-name="Agrave" unicode="&#xc0;" horiz-adv-x="598" d="M457 0 L429 165 L113 165 L31 0 L-48 0 L284 665 L424 665 L537 0 L457 0 Z M356 605 L331 605 L139 225 L424 225 L356 605 Z M354 710 L226 807 L270 858 L385 746 L354 710 Z " />
<glyph glyph-name="Aacute" unicode="&#xc1;" horiz-adv-x="598" d="M457 0 L429 165 L113 165 L31 0 L-48 0 L284 665 L424 665 L537 0 L457 0 Z M356 605 L331 605 L139 225 L424 225 L356 605 Z M321 743 L435 855 L477 806 L350 709 L321 743 Z " />
<glyph glyph-name="Ccedilla" unicode="&#xc7;" horiz-adv-x="586" d="M496 111 Q491 78 471 55.5 Q451 33 419 19.5 Q387 6 345.5 0 Q304 -6 255 -6 Q195 -6 153 0.5 Q111 7 84.5 25.5 Q58 44 46 77.5 Q34 111 34 164 Q34 197 38.5 238.5 Q43 280 51 332 Q69 443 91.5 510 Q114 577 149.5 613 Q185 649 237 660.5 Q289 672 366 672 Q477 672 523 650 Q569 628 569 576 Q569 558 563.5 530 Q558 502 551 479 L476 479 Q481 502 483.5 519.5 Q486 537 486 549 Q486 564 480.5 575 Q475 586 460 592.5 Q445 599 419 602.5 Q393 606 352 606 Q297 606 261 598 Q225 590 201 561.5 Q177 533 160.5 478.5 Q144 424 129 332 Q121 284 117 247 Q113 210 113 181 Q113 141 121.5 117 Q130 93 148.5 80.5 Q167 68 196.5 64 Q226 60 267 60 Q306 60 333 63 Q360 66 377 73 Q394 80 403 91 Q412 102 415 118 L431 187 L507 187 Q505 172 502.5 152.5 Q500 133 496 111 Z M302 5 L258 -51 Q291 -51 310.5 -66 Q330 -81 323 -122 Q316 -167 290 -183.5 Q264 -200 206 -200 Q183 -200 162 -195 Q141 -190 127 -182 L153 -142 Q173 -150 184.5 -153.5 Q196 -157 212 -157 Q238 -157 248.5 -147 Q259 -137 262 -119 Q265 -100 257.5 -90.5 Q250 -81 224 -81 L185 -81 L246 5 L302 5 Z " />
<glyph glyph-name="Igrave" unicode="&#xcc;" horiz-adv-x="221" d="M17 0 L126 665 L203 665 L94 0 L17 0 Z M196 710 L68 807 L112 858 L227 746 L196 710 Z " />
<glyph glyph-name="Iacute" unicode="&#xcd;" horiz-adv-x="221" d="M17 0 L126 665 L203 665 L94 0 L17 0 Z M118 744 L232 856 L274 807 L147 710 L118 744 Z " />
<glyph glyph-name="Icircumflex" unicode="&#xce;" horiz-adv-x="221" d="M17 0 L126 665 L203 665 L94 0 L17 0 Z M265 719 L190 779 L88 713 L63 753 L198 855 L300 753 L265 719 Z " />
<glyph glyph-name="Idieresis" unicode="&#xcf;" horiz-adv-x="221" d="M17 0 L126 665 L203 665 L94 0 L17 0 Z M72 745 L85 824 L157 824 L144 745 L72 745 Z M211 745 L224 824 L296 824 L283 745 L211 745 Z " />
<glyph glyph-name="Ntilde" unicode="&#xd1;" horiz-adv-x="664" d="M407 0 L198 597 L187 597 L89 0 L15 0 L124 665 L257 665 L466 67 L476 67 L574 665 L648 665 L539 0 L407 0 Z M366 833 Q380 833 394.5 826.5 Q409 820 421 812 Q433 804 442 797.5 Q451 791 454 791 Q462 791 469.5 796.5 Q477 802 488 823 L527 807 Q509 772 487 751.5 Q465 731 442 731 Q428 731 414 737.5 Q400 744 388 752 Q376 760 367.5 766.5 Q359 773 355 773 Q347 773 340 768 Q333 763 321 741 L281 757 Q299 792 321 812.5 Q343 833 366 833 Z " />
<glyph glyph-name="Ograve" unicode="&#xd2;" horiz-adv-x="598" d="M545 332 Q528 229 509 163.5 Q490 98 457.5 60 Q425 22 374 7.5 Q323 -7 243 -7 Q185 -7 145 0.5 Q105 8 80 27 Q55 46 44 78 Q33 110 33 159 Q33 193 38 235.5 Q43 278 51 332 Q68 437 88.5 503.5 Q109 570 142 607.5 Q175 645 225.5 658.5 Q276 672 354 672 Q413 672 453.5 664.5 Q494 657 518.5 638.5 Q543 620 554 589 Q565 558 565 512 Q565 477 559.5 432.5 Q554 388 545 332 Z M467 332 Q475 383 480 422 Q485 461 485 491 Q485 523 478 545 Q471 567 454.5 580.5 Q438 594 410.5 599.5 Q383 605 343 605 Q288 605 253 594.5 Q218 584 195.5 554.5 Q173 525 158.5 471.5 Q144 418 130 332 Q122 281 117.5 242 Q113 203 113 174 Q113 140 120.5 117.5 Q128 95 144.5 82 Q161 69 188 64 Q215 59 254 59 Q312 59 347.5 70 Q383 81 405 111.5 Q427 142 440 195 Q453 248 467 332 Z M387 710 L259 807 L303 858 L418 746 L387 710 Z " />
<glyph glyph-name="Oacute" unicode="&#xd3;" horiz-adv-x="598" d="M545 332 Q528 229 509 163.5 Q490 98 457.5 60 Q425 22 374 7.5 Q323 -7 243 -7 Q185 -7 145 0.5 Q105 8 80 27 Q55 46 44 78 Q33 110 33 159 Q33 193 38 235.5 Q43 278 51 332 Q68 437 88.5 503.5 Q109 570 142 607.5 Q175 645 225.5 658.5 Q276 672 354 672 Q413 672 453.5 664.5 Q494 657 518.5 638.5 Q543 620 554 589 Q565 558 565 512 Q565 477 559.5 432.5 Q554 388 545 332 Z M467 332 Q475 383 480 422 Q485 461 485 491 Q485 523 478 545 Q471 567 454.5 580.5 Q438 594 410.5 599.5 Q383 605 343 605 Q288 605 253 594.5 Q218 584 195.5 554.5 Q173 525 158.5 471.5 Q144 418 130 332 Q122 281 117.5 242 Q113 203 113 174 Q113 140 120.5 117.5 Q128 95 144.5 82 Q161 69 188 64 Q215 59 254 59 Q312 59 347.5 70 Q383 81 405 111.5 Q427 142 440 195 Q453 248 467 332 Z M313 744 L427 856 L469 807 L342 710 L313 744 Z " />
<glyph glyph-name="Ocircumflex" unicode="&#xd4;" horiz-adv-x="598" d="M545 332 Q528 229 509 163.5 Q490 98 457.5 60 Q425 22 374 7.5 Q323 -7 243 -7 Q185 -7 145 0.5 Q105 8 80 27 Q55 46 44 78 Q33 110 33 159 Q33 193 38 235.5 Q43 278 51 332 Q68 437 88.5 503.5 Q109 570 142 607.5 Q175 645 225.5 658.5 Q276 672 354 672 Q413 672 453.5 664.5 Q494 657 518.5 638.5 Q543 620 554 589 Q565 558 565 512 Q565 477 559.5 432.5 Q554 388 545 332 Z M467 332 Q475 383 480 422 Q485 461 485 491 Q485 523 478 545 Q471 567 454.5 580.5 Q438 594 410.5 599.5 Q383 605 343 605 Q288 605 253 594.5 Q218 584 195.5 554.5 Q173 525 158.5 471.5 Q144 418 130 332 Q122 281 117.5 242 Q113 203 113 174 Q113 140 120.5 117.5 Q128 95 144.5 82 Q161 69 188 64 Q215 59 254 59 Q312 59 347.5 70 Q383 81 405 111.5 Q427 142 440 195 Q453 248 467 332 Z M456 719 L381 779 L279 713 L254 753 L389 855 L491 753 L456 719 Z " />
<glyph glyph-name="Otilde" unicode="&#xd5;" horiz-adv-x="598" d="M545 332 Q528 229 509 163.5 Q490 98 457.5 60 Q425 22 374 7.5 Q323 -7 243 -7 Q185 -7 145 0.5 Q105 8 80 27 Q55 46 44 78 Q33 110 33 159 Q33 193 38 235.5 Q43 278 51 332 Q68 437 88.5 503.5 Q109 570 142 607.5 Q175 645 225.5 658.5 Q276 672 354 672 Q413 672 453.5 664.5 Q494 657 518.5 638.5 Q543 620 554 589 Q565 558 565 512 Q565 477 559.5 432.5 Q554 388 545 332 Z M467 332 Q475 383 480 422 Q485 461 485 491 Q485 523 478 545 Q471 567 454.5 580.5 Q438 594 410.5 599.5 Q383 605 343 605 Q288 605 253 594.5 Q218 584 195.5 554.5 Q173 525 158.5 471.5 Q144 418 130 332 Q122 281 117.5 242 Q113 203 113 174 Q113 140 120.5 117.5 Q128 95 144.5 82 Q161 69 188 64 Q215 59 254 59 Q312 59 347.5 70 Q383 81 405 111.5 Q427 142 440 195 Q453 248 467 332 Z M331 833 Q345 833 359.5 826.5 Q374 820 386 812 Q398 804 407 797.5 Q416 791 419 791 Q427 791 434.5 796.5 Q442 802 453 823 L492 807 Q474 772 452 751.5 Q430 731 407 731 Q393 731 379 737.5 Q365 744 353 752 Q341 760 332.5 766.5 Q324 773 320 773 Q312 773 305 768 Q298 763 286 741 L246 757 Q264 792 286 812.5 Q308 833 331 833 Z " />
<glyph glyph-name="Odieresis" unicode="&#xd6;" horiz-adv-x="598" d="M545 332 Q528 229 509 163.5 Q490 98 457.5 60 Q425 22 374 7.5 Q323 -7 243 -7 Q185 -7 145 0.5 Q105 8 80 27 Q55 46 44 78 Q33 110 33 159 Q33 193 38 235.5 Q43 278 51 332 Q68 437 88.5 503.5 Q109 570 142 607.5 Q175 645 225.5 658.5 Q276 672 354 672 Q413 672 453.5 664.5 Q494 657 518.5 638.5 Q543 620 554 589 Q565 558 565 512 Q565 477 559.5 432.5 Q554 388 545 332 Z M467 332 Q475 383 480 422 Q485 461 485 491 Q485 523 478 545 Q471 567 454.5 580.5 Q438 594 410.5 599.5 Q383 605 343 605 Q288 605 253 594.5 Q218 584 195.5 554.5 Q173 525 158.5 471.5 Q144 418 130 332 Q122 281 117.5 242 Q113 203 113 174 Q113 140 120.5 117.5 Q128 95 144.5 82 Q161 69 188 64 Q215 59 254 59 Q312 59 347.5 70 Q383 81 405 111.5 Q427 142 440 195 Q453 248 467 332 Z M260 745 L273 824 L345 824 L332 745 L260 745 Z M399 745 L412 824 L484 824 L471 745 L399 745 Z " />
<glyph glyph-name="Ugrave" unicode="&#xd9;" horiz-adv-x="615" d="M497 33 Q445 14 383.5 4 Q322 -6 251 -6 Q198 -6 158.5 0 Q119 6 93 22.5 Q67 39 54 66.5 Q41 94 41 138 Q41 154 43 171.5 Q45 189 48 209 L122 665 L199 665 L125 209 Q123 193 121 177.5 Q119 162 119 152 Q119 128 125.5 110.5 Q132 93 148.5 81.5 Q165 70 192.5 64.5 Q220 59 261 59 Q311 59 350 63 Q389 67 427 75 L523 665 L600 665 L497 33 Z M373 710 L245 807 L289 858 L404 746 L373 710 Z " />
<glyph glyph-name="Uacute" unicode="&#xda;" horiz-adv-x="615" d="M497 33 Q445 14 383.5 4 Q322 -6 251 -6 Q198 -6 158.5 0 Q119 6 93 22.5 Q67 39 54 66.5 Q41 94 41 138 Q41 154 43 171.5 Q45 189 48 209 L122 665 L199 665 L125 209 Q123 193 121 177.5 Q119 162 119 152 Q119 128 125.5 110.5 Q132 93 148.5 81.5 Q165 70 192.5 64.5 Q220 59 261 59 Q311 59 350 63 Q389 67 427 75 L523 665 L600 665 L497 33 Z M326 744 L440 856 L482 807 L355 710 L326 744 Z " />
<glyph glyph-name="Ucircumflex" unicode="&#xdb;" horiz-adv-x="615" d="M497 33 Q445 14 383.5 4 Q322 -6 251 -6 Q198 -6 158.5 0 Q119 6 93 22.5 Q67 39 54 66.5 Q41 94 41 138 Q41 154 43 171.5 Q45 189 48 209 L122 665 L199 665 L125 209 Q123 193 121 177.5 Q119 162 119 152 Q119 128 125.5 110.5 Q132 93 148.5 81.5 Q165 70 192.5 64.5 Q220 59 261 59 Q311 59 350 63 Q389 67 427 75 L523 665 L600 665 L497 33 Z M456 719 L381 779 L279 713 L254 753 L389 855 L491 753 L456 719 Z " />
<glyph glyph-name="Udieresis" unicode="&#xdc;" horiz-adv-x="615" d="M497 33 Q445 14 383.5 4 Q322 -6 251 -6 Q198 -6 158.5 0 Q119 6 93 22.5 Q67 39 54 66.5 Q41 94 41 138 Q41 154 43 171.5 Q45 189 48 209 L122 665 L199 665 L125 209 Q123 193 121 177.5 Q119 162 119 152 Q119 128 125.5 110.5 Q132 93 148.5 81.5 Q165 70 192.5 64.5 Q220 59 261 59 Q311 59 350 63 Q389 67 427 75 L523 665 L600 665 L497 33 Z M266 745 L279 824 L351 824 L338 745 L266 745 Z M405 745 L418 824 L490 824 L477 745 L405 745 Z " />
<glyph glyph-name="Yacute" unicode="&#xdd;" horiz-adv-x="549" d="M161 0 L81 0 L250 241 L194 241 L60 665 L148 665 L249 311 L288 311 L516 665 L597 665 L161 0 Z M286 744 L400 856 L442 807 L315 710 L286 744 Z " />
<glyph glyph-name="Amacron" unicode="&#x100;" horiz-adv-x="598" d="M457 0 L429 165 L113 165 L31 0 L-48 0 L284 665 L424 665 L537 0 L457 0 Z M356 605 L331 605 L139 225 L424 225 L356 605 Z M260 747 L269 800 L479 800 L470 747 L260 747 Z " />
<glyph glyph-name="Aogonek" unicode="&#x104;" horiz-adv-x="598" d="M457 0 L429 165 L113 165 L31 0 L-48 0 L284 665 L424 665 L537 0 L457 0 Z M356 605 L331 605 L139 225 L424 225 L356 605 Z M527 4 Q516 -5 502.5 -18 Q489 -31 476.5 -45 Q464 -59 455 -73.5 Q446 -88 444 -101 Q440 -124 455 -136 Q470 -148 490 -148 Q506 -148 520 -145.5 Q534 -143 548 -138 L552 -178 Q534 -189 509.5 -194 Q485 -199 464 -199 Q422 -199 397 -178.5 Q372 -158 378 -120 Q384 -84 411 -51.5 Q438 -19 470 4 L527 4 Z " />
<glyph glyph-name="aogonek" unicode="&#x105;" horiz-adv-x="473" d="M373 0 L307 0 L309 50 Q297 33 276 21 Q256 9 232.5 2.5 Q209 -4 174 -4 Q99 -4 61.5 33.5 Q24 71 24 138 Q24 168 27 193 Q30 218 32 232 Q44 308 62.5 352 Q81 396 113 422 Q173 473 289 473 Q337 473 377.5 465.5 Q418 458 446 449 L373 0 Z M367 406 Q354 408 346 409.5 Q338 411 329.5 411.5 Q321 412 310.5 412.5 Q300 413 283 413 Q263 413 241 410 Q219 407 198 399 Q178 391 163.5 378.5 Q149 366 138.5 346.5 Q128 327 120.5 299 Q113 271 107 231 Q105 217 102 192 Q99 167 99 142 Q99 99 124.5 78.5 Q150 58 195 58 Q253 58 285.5 82.5 Q318 107 329 172 L367 406 Z M372 4 Q361 -5 347.5 -18 Q334 -31 321.5 -45 Q309 -59 300 -73.5 Q291 -88 289 -101 Q285 -124 300 -136 Q315 -148 335 -148 Q351 -148 365 -145.5 Q379 -143 393 -138 L397 -178 Q379 -189 354.5 -194 Q330 -199 309 -199 Q267 -199 242 -178.5 Q217 -158 223 -120 Q229 -84 256 -51.5 Q283 -19 315 4 L372 4 Z " />
<glyph glyph-name="Ccaron" unicode="&#x10c;" horiz-adv-x="586" d="M496 111 Q491 78 471 55.5 Q451 33 419 19.5 Q387 6 345.5 0 Q304 -6 255 -6 Q195 -6 153 0.5 Q111 7 84.5 25.5 Q58 44 46 77.5 Q34 111 34 164 Q34 197 38.5 238.5 Q43 280 51 332 Q69 443 91.5 510 Q114 577 149.5 613 Q185 649 237 660.5 Q289 672 366 672 Q477 672 523 650 Q569 628 569 576 Q569 558 563.5 530 Q558 502 551 479 L476 479 Q481 502 483.5 519.5 Q486 537 486 549 Q486 564 480.5 575 Q475 586 460 592.5 Q445 599 419 602.5 Q393 606 352 606 Q297 606 261 598 Q225 590 201 561.5 Q177 533 160.5 478.5 Q144 424 129 332 Q121 284 117 247 Q113 210 113 181 Q113 141 121.5 117 Q130 93 148.5 80.5 Q167 68 196.5 64 Q226 60 267 60 Q306 60 333 63 Q360 66 377 73 Q394 80 403 91 Q412 102 415 118 L431 187 L507 187 Q505 172 502.5 152.5 Q500 133 496 111 Z M255 807 L289 841 L368 775 L470 841 L492 807 L365 711 L351 711 L255 807 Z " />
<glyph glyph-name="ccaron" unicode="&#x10d;" horiz-adv-x="469" d="M442 393 Q442 383 438.5 366 Q435 349 430 332 L362 332 Q363 340 363.5 349.5 Q364 359 364 364 Q364 389 345.5 400.5 Q327 412 274 412 Q237 412 213 406 Q189 400 173.5 381 Q158 362 148 325.5 Q138 289 128 229 Q123 197 120 172 Q117 147 117 128 Q117 80 139 65.5 Q161 51 215 51 Q244 51 263.5 54.5 Q283 58 295 64.5 Q307 71 313.5 80.5 Q320 90 323 103 L331 132 L399 132 Q399 128 397.5 117 Q396 106 394 92 Q391 69 381 51.5 Q371 34 349.5 21 Q328 8 293.5 1.5 Q259 -5 206 -5 Q163 -5 133 0.5 Q103 6 84 20 Q65 34 56 58 Q47 82 47 119 Q47 164 59 233 Q71 306 87.5 352 Q104 398 129.5 424 Q155 450 192.5 460 Q230 470 284 470 Q328 470 358.5 464 Q389 458 407.5 447.5 Q426 437 434 423 Q442 409 442 393 Z M175 607 L209 641 L288 575 L390 641 L412 607 L285 511 L271 511 L175 607 Z " />
<glyph glyph-name="Edotaccent" unicode="&#x116;" horiz-adv-x="500" d="M15 0 L124 665 L516 665 L505 599 L191 599 L154 373 L443 373 L406 308 L143 308 L104 66 L418 66 L407 0 L15 0 Z M301 740 L314 819 L386 819 L373 740 L301 740 Z " />
<glyph glyph-name="edotaccent" unicode="&#x117;" horiz-adv-x="458" d="M424 361 Q424 314 412.5 286.5 Q401 259 384 241 Q366 222 332.5 211.5 Q299 201 262 195.5 Q225 190 190.5 189 Q156 188 136 188 L109 188 L105 132 Q105 81 128 66.5 Q151 52 202 52 Q232 52 251 55 Q270 58 282 64 Q294 70 300 79 Q306 88 310 100 L319 132 L387 132 Q387 126 386 119 Q385 113 384.5 104.5 Q384 96 382 88 Q374 37 328.5 16.5 Q283 -4 193 -4 Q153 -4 123.5 1 Q94 6 75 20.5 Q56 35 46.5 60 Q37 85 37 125 Q37 146 39.5 172 Q42 198 47 230 Q58 297 74 343 Q90 389 115.5 417 Q141 445 178 457 Q215 469 268 469 Q301 469 329.5 462 Q358 455 379 441.5 Q400 428 412 408 Q424 388 424 361 Z M151 237 Q176 237 202.5 238.5 Q229 240 253 244 Q277 248 296 255 Q315 262 326 273 Q334 281 343 300 Q352 319 352 348 Q352 377 331 395 Q310 413 261 413 Q229 413 206 406 Q183 399 167 383 Q151 367 140.5 340.5 Q130 314 124 274 L118 237 L151 237 Z M242 540 L255 619 L327 619 L314 540 L242 540 Z " />
<glyph glyph-name="Eogonek" unicode="&#x118;" horiz-adv-x="500" d="M15 0 L124 665 L516 665 L505 599 L191 599 L154 373 L443 373 L406 308 L143 308 L104 66 L418 66 L407 0 L15 0 Z M402 4 Q391 -5 377.5 -18 Q364 -31 351.5 -45 Q339 -59 330 -73.5 Q321 -88 319 -101 Q315 -124 330 -136 Q345 -148 365 -148 Q381 -148 395 -145.5 Q409 -143 423 -138 L427 -178 Q409 -189 384.5 -194 Q360 -199 339 -199 Q297 -199 272 -178.5 Q247 -158 253 -120 Q259 -84 286 -51.5 Q313 -19 345 4 L402 4 Z " />
<glyph glyph-name="eogonek" unicode="&#x119;" horiz-adv-x="458" d="M424 361 Q424 314 412.5 286.5 Q401 259 384 241 Q366 222 332.5 211.5 Q299 201 262 195.5 Q225 190 190.5 189 Q156 188 136 188 L109 188 L105 132 Q105 81 128 66.5 Q151 52 202 52 Q232 52 251 55 Q270 58 282 64 Q294 70 300 79 Q306 88 310 100 L319 132 L387 132 Q387 126 386 119 Q385 113 384.5 104.5 Q384 96 382 88 Q376 50 352 32 Q332 16 311.5 -2 Q291 -20 274 -37.5 Q257 -55 245.5 -71.5 Q234 -88 232 -101 Q228 -124 243 -136 Q258 -148 278 -148 Q294 -148 308 -145.5 Q322 -143 336 -138 L340 -178 Q322 -189 297.5 -194 Q273 -199 252 -199 Q210 -199 184.5 -178.5 Q159 -158 166 -120 Q171 -86 195.5 -55 Q220 -24 250 -1 Q224 -4 193 -4 Q153 -4 123.5 1 Q94 6 75 20.5 Q56 35 46.5 60 Q37 85 37 125 Q37 146 39.5 172 Q42 198 47 230 Q58 297 74 343 Q90 389 115.5 417 Q141 445 178 457 Q215 469 268 469 Q301 469 329.5 462 Q358 455 379 441.5 Q400 428 412 408 Q424 388 424 361 Z M151 237 Q176 237 202.5 238.5 Q229 240 253 244 Q277 248 296 255 Q315 262 326 273 Q334 281 343 300 Q352 319 352 348 Q352 377 331 395 Q310 413 261 413 Q229 413 206 406 Q183 399 167 383 Q151 367 140.5 340.5 Q130 314 124 274 L118 237 L151 237 Z " />
<glyph glyph-name="Gcommaaccent" unicode="&#x122;" horiz-adv-x="604" d="M453 281 L321 281 L331 343 L536 343 L480 0 L415 0 L417 44 L412 44 Q389 18 350 5.5 Q311 -7 240 -7 Q185 -7 146 1 Q107 9 82 28.5 Q57 48 45.5 81.5 Q34 115 34 167 Q34 200 38.5 240.5 Q43 281 51 332 Q69 441 91 508 Q113 575 147.5 611.5 Q182 648 232.5 660 Q283 672 357 672 Q418 672 459.5 666.5 Q501 661 526.5 649.5 Q552 638 562.5 620.5 Q573 603 573 579 Q573 570 571 557 Q569 544 566.5 530 Q564 516 561 502.5 Q558 489 556 479 L482 479 Q487 504 489.5 522.5 Q492 541 492 548 Q492 561 486 572 Q480 583 463.5 590 Q447 597 419 601 Q391 605 346 605 Q295 605 260.5 596 Q226 587 202 558 Q178 529 162 475.5 Q146 422 131 332 Q123 283 118.5 246 Q114 209 114 180 Q114 141 122.5 118 Q131 95 149.5 83 Q168 71 198 67 Q228 63 271 63 Q329 63 363 70.5 Q397 78 423 96 L453 281 Z M220 -229 L171 -229 L229 -120 L193 -120 L206 -38 L293 -38 L280 -120 L220 -229 Z " />
<glyph glyph-name="Imacron" unicode="&#x12a;" horiz-adv-x="221" d="M17 0 L126 665 L203 665 L94 0 L17 0 Z M73 747 L82 800 L292 800 L283 747 L73 747 Z " />
<glyph glyph-name="imacron" unicode="&#x12b;" horiz-adv-x="233" d="M56 0 L123 409 L35 409 L45 465 L205 465 L128 0 L56 0 Z M38 547 L47 600 L257 600 L248 547 L38 547 Z " />
<glyph glyph-name="Kcommaaccent" unicode="&#x136;" horiz-adv-x="592" d="M436 0 L202 310 L144 310 L93 0 L15 0 L124 665 L202 665 L154 372 L211 372 L517 665 L607 665 L272 345 L530 0 L436 0 Z M192 -229 L143 -229 L201 -120 L165 -120 L178 -38 L265 -38 L252 -120 L192 -229 Z " />
<glyph glyph-name="kcommaaccent" unicode="&#x137;" horiz-adv-x="432" d="M283 0 L157 223 L121 223 L84 0 L12 0 L121 665 L193 665 L130 280 L166 280 L349 465 L433 465 L220 251 L370 0 L283 0 Z M133 -229 L84 -229 L142 -120 L106 -120 L119 -38 L206 -38 L193 -120 L133 -229 Z " />
<glyph glyph-name="Lcommaaccent" unicode="&#x13b;" horiz-adv-x="461" d="M15 0 L124 665 L202 665 L104 66 L406 66 L395 0 L15 0 Z M174 -229 L125 -229 L183 -120 L147 -120 L160 -38 L247 -38 L234 -120 L174 -229 Z " />
<glyph glyph-name="lcommaaccent" unicode="&#x13c;" horiz-adv-x="208" d="M17 0 L117 609 L28 609 L37 665 L198 665 L89 0 L17 0 Z M19 -229 L-30 -229 L28 -120 L-8 -120 L5 -38 L92 -38 L79 -120 L19 -229 Z " />
<glyph glyph-name="Ncommaaccent" unicode="&#x145;" horiz-adv-x="664" d="M407 0 L198 597 L187 597 L89 0 L15 0 L124 665 L257 665 L466 67 L476 67 L574 665 L648 665 L539 0 L407 0 Z M239 -229 L190 -229 L248 -120 L212 -120 L225 -38 L312 -38 L299 -120 L239 -229 Z " />
<glyph glyph-name="ncommaaccent" unicode="&#x146;" horiz-adv-x="454" d="M294 471 Q364 471 393.5 448.5 Q423 426 423 378 Q423 371 422 360.5 Q421 350 419 339 L364 0 L292 0 L344 320 Q347 339 347 352 Q347 382 331 395.5 Q315 409 280 409 Q244 409 215 403.5 Q186 398 155 387 L92 0 L20 0 L96 465 L161 465 L160 428 Q186 447 219 459 Q252 471 294 471 Z M159 -229 L110 -229 L168 -120 L132 -120 L145 -38 L232 -38 L219 -120 L159 -229 Z " />
<glyph glyph-name="Umacron" unicode="&#x16a;" horiz-adv-x="615" d="M497 33 Q445 14 383.5 4 Q322 -6 251 -6 Q198 -6 158.5 0 Q119 6 93 22.5 Q67 39 54 66.5 Q41 94 41 138 Q41 154 43 171.5 Q45 189 48 209 L122 665 L199 665 L125 209 Q123 193 121 177.5 Q119 162 119 152 Q119 128 125.5 110.5 Q132 93 148.5 81.5 Q165 70 192.5 64.5 Q220 59 261 59 Q311 59 350 63 Q389 67 427 75 L523 665 L600 665 L497 33 Z M266 747 L275 800 L485 800 L476 747 L266 747 Z " />
<glyph glyph-name="umacron" unicode="&#x16b;" horiz-adv-x="471" d="M375 27 Q332 13 284.5 3 Q237 -7 188 -7 Q111 -7 77 20.5 Q43 48 43 116 Q43 147 49 186 L95 465 L167 465 L119 171 Q117 160 116 150 Q115 140 115 131 Q115 84 140 65.5 Q165 47 216 47 Q239 47 261.5 50 Q284 53 308 61 L375 465 L447 465 L375 27 Z M178 547 L187 600 L397 600 L388 547 L178 547 Z " />
<glyph glyph-name="Uogonek" unicode="&#x172;" horiz-adv-x="615" d="M497 34 Q477 20 456.5 2 Q436 -16 418.5 -35 Q401 -54 389 -71 Q377 -88 375 -101 Q371 -124 386.5 -136 Q402 -148 422 -148 Q438 -148 451.5 -145.5 Q465 -143 479 -138 L484 -178 Q465 -189 440.5 -194 Q416 -199 395 -199 Q353 -199 328 -178.5 Q303 -158 309 -120 Q314 -85 342 -51.5 Q370 -18 407 8 Q371 1 332 -2.5 Q293 -6 251 -6 Q198 -6 158.5 0 Q119 6 93 22.5 Q67 39 54 66.5 Q41 94 41 138 Q41 154 43 171.5 Q45 189 48 209 L122 665 L199 665 L125 209 Q123 193 121 177.5 Q119 162 119 152 Q119 128 125.5 110.5 Q132 93 148.5 81.5 Q165 70 192.5 64.5 Q220 59 261 59 Q311 59 350 63 Q389 67 427 75 L523 665 L600 665 L497 34 Z " />
<glyph glyph-name="uogonek" unicode="&#x173;" horiz-adv-x="471" d="M375 27 Q355 15 334.5 -2 Q314 -19 297 -36.5 Q280 -54 268 -71 Q256 -88 254 -101 Q250 -124 265.5 -136 Q281 -148 301 -148 Q317 -148 330.5 -145.5 Q344 -143 358 -138 L363 -178 Q344 -189 319.5 -194 Q295 -199 274 -199 Q232 -199 207 -178.5 Q182 -158 188 -120 Q194 -85 219.5 -53.5 Q245 -22 277 1 Q231 -7 188 -7 Q111 -7 77 20.5 Q43 48 43 116 Q43 147 49 186 L95 465 L167 465 L119 171 Q117 160 116 150 Q115 140 115 131 Q115 84 140 65.5 Q165 47 216 47 Q239 47 261.5 50 Q284 53 308 61 L375 465 L447 465 L375 27 Z " />
<glyph glyph-name="amacron" unicode="&#x101;" horiz-adv-x="473" d="M373 0 L307 0 L309 50 Q297 33 276 21 Q256 9 232.5 2.5 Q209 -4 174 -4 Q99 -4 61.5 33.5 Q24 71 24 138 Q24 168 27 193 Q30 218 32 232 Q44 308 62.5 352 Q81 396 113 422 Q173 473 289 473 Q337 473 377.5 465.5 Q418 458 446 449 L373 0 Z M367 406 Q354 408 346 409.5 Q338 411 329.5 411.5 Q321 412 310.5 412.5 Q300 413 283 413 Q263 413 241 410 Q219 407 198 399 Q178 391 163.5 378.5 Q149 366 138.5 346.5 Q128 327 120.5 299 Q113 271 107 231 Q105 217 102 192 Q99 167 99 142 Q99 99 124.5 78.5 Q150 58 195 58 Q253 58 285.5 82.5 Q318 107 329 172 L367 406 Z M182 547 L191 600 L401 600 L392 547 L182 547 Z " />
<glyph glyph-name="zero" unicode="0" horiz-adv-x="561" d="M505 332 Q488 230 470 164.5 Q452 99 422 61 Q392 23 345.5 8 Q299 -7 225 -7 Q172 -7 136 0.5 Q100 8 78 25.5 Q56 43 46 73 Q36 103 36 148 Q36 183 41 229 Q46 275 56 332 Q73 438 92.5 504 Q112 570 143 607 Q174 644 220 657.5 Q266 671 337 671 Q390 671 426.5 663.5 Q463 656 485 638.5 Q507 621 516.5 592 Q526 563 526 520 Q526 484 520.5 438 Q515 392 505 332 Z M426 332 Q435 389 440.5 431 Q446 473 446 503 Q446 534 439.5 554 Q433 574 419 585 Q405 596 382 600.5 Q359 605 326 605 Q279 605 248.5 595 Q218 585 198 555.5 Q178 526 164 472.5 Q150 419 136 332 Q127 278 122 236.5 Q117 195 117 165 Q117 134 123 113.5 Q129 93 143.5 81 Q158 69 180.5 64 Q203 59 236 59 Q285 59 316 70.5 Q347 82 366.5 112.5 Q386 143 399 196 Q412 249 426 332 Z " />
<glyph glyph-name="one" unicode="1" horiz-adv-x="407" d="M15 0 L26 65 L142 65 L229 600 L96 574 L106 637 L239 665 L318 665 L220 65 L325 65 L314 0 L15 0 Z " />
<glyph glyph-name="two" unicode="2" horiz-adv-x="565" d="M530 482 Q521 426 506.5 388.5 Q492 351 470.5 327 Q449 303 420.5 290.5 Q392 278 355 272 L219 251 Q168 243 141.5 214 Q115 185 104 120 L95 65 L454 65 L444 0 L7 0 L26 120 Q39 202 80.5 255 Q122 308 208 320 L334 338 Q361 342 380 349 Q399 356 411.5 371.5 Q424 387 432.5 413.5 Q441 440 448 482 Q452 505 452 527 Q452 573 423 591 Q394 609 321 609 Q280 609 253.5 605 Q227 601 211 591.5 Q195 582 187.5 567 Q180 552 176 530 L165 469 L91 469 Q91 485 92 501 Q94 530 97 552 Q101 580 114.5 602 Q128 624 155 639.5 Q182 655 224.5 663 Q267 671 331 671 Q388 671 427 664 Q466 657 490 641.5 Q514 626 525 601.5 Q536 577 536 543 Q536 516 530 482 Z " />
<glyph glyph-name="three" unicode="3" horiz-adv-x="559" d="M481 190 Q472 133 453 95 Q434 57 401.5 34.5 Q369 12 322.5 2.5 Q276 -7 211 -7 Q152 -7 112.5 -1.5 Q73 4 49 16 Q25 28 15 46 Q5 64 5 88 Q5 108 11.5 134.5 Q18 161 27 184 L97 184 Q94 164 91.5 141 Q89 118 89 108 Q89 83 117.5 70 Q146 57 222 57 Q268 57 299 62.5 Q330 68 350 82.5 Q370 97 381.5 123 Q393 149 400 190 Q402 206 404 219.5 Q406 233 406 245 Q406 264 401 277.5 Q396 291 383 300 Q370 309 348 313 Q326 317 292 317 L239 317 L251 394 L455 588 L457 600 L178 600 L163 509 L89 509 L115 665 L545 665 L531 582 L324 385 L322 373 Q366 373 397.5 368.5 Q429 364 449 352 Q469 340 478.5 318 Q488 296 488 262 Q488 247 486.5 229 Q485 211 481 190 Z " />
<glyph glyph-name="four" unicode="4" horiz-adv-x="543" d="M305 0 L330 152 L-2 152 L10 232 L371 665 L491 665 L418 218 L502 218 L464 152 L407 152 L382 0 L305 0 Z M402 593 L399 593 L83 223 L82 218 L341 218 L402 593 Z " />
<glyph glyph-name="five" unicode="5" horiz-adv-x="565" d="M491 223 Q479 152 460 107.5 Q441 63 408.5 37.5 Q376 12 329 2.5 Q282 -7 215 -7 Q162 -7 125 -0.5 Q88 6 65 18 Q42 30 31.5 46.5 Q21 63 21 84 Q21 91 23 103 Q25 115 27.5 129 Q30 143 33.5 157 Q37 171 40 182 L115 182 Q112 153 110.5 133 Q109 113 109 110 Q109 96 113.5 86.5 Q118 77 130 72 Q148 64 178 60 Q208 56 246 56 Q281 56 308 61.5 Q335 67 354.5 84.5 Q374 102 387.5 135 Q401 168 410 223 Q415 249 417.5 270 Q420 291 420 308 Q420 353 395 371.5 Q370 390 303 390 Q228 390 191.5 374.5 Q155 359 142 326 L67 326 L123 665 L533 665 L522 600 L188 600 L155 397 Q184 427 223 441 Q262 455 325 455 Q374 455 407.5 448 Q441 441 462 425 Q483 409 492 383.5 Q501 358 501 321 Q501 300 498.5 276 Q496 252 491 223 Z " />
<glyph glyph-name="six" unicode="6" horiz-adv-x="589" d="M500 200 Q491 146 473 107 Q455 68 424.5 43 Q394 18 349.5 6 Q305 -6 243 -6 Q191 -6 154.5 0 Q118 6 94.5 23.5 Q71 41 60.5 71.5 Q50 102 50 150 Q50 185 55 229.5 Q60 274 69 331 Q87 439 107 505.5 Q127 572 158 608.5 Q189 645 235.5 658 Q282 671 352 671 Q457 671 503 645 Q549 619 549 571 Q549 555 543 530.5 Q537 506 529 484 L456 484 Q457 493 458.5 505 Q460 517 461 527.5 Q462 538 462.5 545.5 Q463 553 463 554 Q463 569 457 579.5 Q451 590 436.5 597 Q422 604 397.5 607 Q373 610 337 610 Q294 610 265 600.5 Q236 591 216 567 Q196 543 183 502 Q170 461 160 398 L156 370 Q183 391 225 403 Q267 415 327 415 Q424 415 465.5 382.5 Q507 350 507 275 Q507 258 505.5 239.5 Q504 221 500 200 Z M423 200 Q426 217 427 231 Q428 245 428 258 Q428 313 399.5 333 Q371 353 306 353 Q258 353 218.5 345.5 Q179 338 148 321 Q139 267 134 227.5 Q129 188 129 159 Q129 128 135.5 108.5 Q142 89 156.5 77.5 Q171 66 194.5 61.5 Q218 57 252 57 Q292 57 321 63.5 Q350 70 370 86 Q390 102 403 129.5 Q416 157 423 200 Z " />
<glyph glyph-name="seven" unicode="7" horiz-adv-x="513" d="M138 0 L55 0 L444 577 L447 600 L158 600 L142 501 L72 501 L99 665 L535 665 L519 567 L138 0 Z " />
<glyph glyph-name="eight" unicode="8" horiz-adv-x="563" d="M483 179 Q475 129 459.5 93.5 Q444 58 415.5 36 Q387 14 342 4 Q297 -6 229 -6 Q172 -6 133 1 Q94 8 70 23.5 Q46 39 35.5 63 Q25 87 25 121 Q25 134 26 148.5 Q27 163 30 179 Q37 219 47.5 248.5 Q58 278 74.5 297.5 Q91 317 114.5 328 Q138 339 170 343 L171 350 Q123 357 105 382 Q87 407 87 448 Q87 460 88.5 474 Q90 488 92 502 Q101 555 121 588 Q141 621 172 639.5 Q203 658 245 664.5 Q287 671 340 671 Q384 671 420 666.5 Q456 662 481.5 648.5 Q507 635 521 611 Q535 587 535 548 Q535 541 534 528 Q533 515 531 502 Q526 470 517.5 444.5 Q509 419 494 400 Q479 381 456 368.5 Q433 356 398 350 L397 343 Q446 337 467.5 312.5 Q489 288 489 240 Q489 213 483 179 Z M403 179 Q405 194 406.5 206.5 Q408 219 408 230 Q408 276 380 293 Q352 310 281 310 Q238 310 209 304 Q180 298 160.5 283.5 Q141 269 130 243.5 Q119 218 113 179 Q111 167 110 156.5 Q109 146 109 137 Q109 115 115.5 100 Q122 85 137.5 76 Q153 67 178 63 Q203 59 240 59 Q284 59 313 64 Q342 69 360 82.5 Q378 96 387.5 119.5 Q397 143 403 179 Z M449 502 Q451 511 451.5 520 Q452 529 452 535 Q452 572 425.5 588.5 Q399 605 329 605 Q286 605 258 599.5 Q230 594 212.5 581.5 Q195 569 185.5 549.5 Q176 530 172 502 Q170 488 168.5 475.5 Q167 463 167 452 Q167 407 194 391 Q221 375 291 375 Q331 375 358.5 380.5 Q386 386 404 400 Q422 414 432.5 439 Q443 464 449 502 Z " />
<glyph glyph-name="nine" unicode="9" horiz-adv-x="561" d="M77 460 Q86 516 104 556 Q122 596 152.5 621.5 Q183 647 228 659 Q273 671 336 671 Q388 671 424.5 664.5 Q461 658 484.5 641 Q508 624 518.5 595 Q529 566 529 522 Q529 496 525.5 465 Q522 434 516 396 L494 263 Q482 189 464.5 138 Q447 87 417 55 Q387 23 340.5 8.5 Q294 -6 224 -6 Q127 -6 77 19.5 Q27 45 27 93 Q27 108 33 134 Q39 160 46 181 L119 181 Q117 164 116 149 Q114 136 113.5 124.5 Q113 113 113 108 Q113 96 118 86.5 Q123 77 136.5 70.5 Q150 64 173.5 60.5 Q197 57 234 57 Q285 57 316 66.5 Q347 76 366 102.5 Q385 129 396.5 175.5 Q408 222 420 297 Q392 274 351.5 261.5 Q311 249 251 249 Q153 249 111.5 281.5 Q70 314 70 388 Q70 404 72 422 Q74 440 77 460 Z M157 460 Q151 425 151 401 Q151 349 179 331 Q207 313 272 313 Q331 313 367.5 322 Q404 331 427 343 L439 417 Q444 443 445.5 463.5 Q447 484 447 501 Q447 534 439.5 554 Q432 574 417 585 Q402 596 379 600 Q356 604 325 604 Q282 604 253 597 Q224 590 205 573.5 Q186 557 175 529.5 Q164 502 157 460 Z " />
<glyph glyph-name="gcommaaccent" unicode="&#x123;" horiz-adv-x="443" d="M362 -70 Q356 -105 344.5 -129.5 Q333 -154 310 -170 Q287 -186 249.5 -193.5 Q212 -201 155 -201 Q109 -201 78 -197.5 Q47 -194 28.5 -186.5 Q10 -179 2.5 -167 Q-5 -155 -5 -139 Q-5 -126 -1 -104.5 Q3 -83 8 -65 L79 -65 Q77 -85 76 -97 Q75 -109 75 -111 Q75 -131 94.5 -138 Q114 -145 165 -145 Q202 -145 225.5 -141 Q249 -137 262.5 -128 Q276 -119 282.5 -104.5 Q289 -90 292 -69 L310 50 L307 50 Q302 42 294.5 34.5 Q287 27 276 21 Q256 9 232.5 2.5 Q209 -4 174 -4 Q99 -4 61.5 33.5 Q24 71 24 138 Q24 168 27 193 Q30 218 32 232 Q44 308 62.5 352 Q81 396 113 422 Q173 473 289 473 Q337 473 377.5 465.5 Q418 458 446 449 L362 -70 Z M367 406 Q354 408 346 409.5 Q338 411 329.5 411.5 Q321 412 310.5 412.5 Q300 413 283 413 Q263 413 241 410 Q219 407 198 399 Q178 391 163.5 378.5 Q149 366 138.5 346.5 Q128 327 120.5 299 Q113 271 107 231 Q105 217 102 192 Q99 167 99 142 Q99 99 124.5 78.5 Q150 58 195 58 Q253 58 285.5 82.5 Q318 107 329 172 L367 406 Z M299 684 L346 684 L288 575 L326 575 L313 493 L225 493 L238 575 L299 684 Z " />
<glyph glyph-name="dollar" unicode="&#x24;" horiz-adv-x="537" d="M183 -7 Q87 -4 49 19 Q11 42 11 80 Q11 93 16.5 121 Q22 149 27 171 L98 171 Q95 145 93 127.5 Q91 110 91 108 Q91 85 114 72 Q137 59 193 56 L236 316 L210 318 Q176 321 148.5 327 Q121 333 102 346.5 Q83 360 73 382 Q63 404 63 439 Q63 450 64.5 463 Q66 476 68 490 Q76 539 92 572.5 Q108 606 134.5 627 Q161 648 200 658 Q239 668 294 670 L303 727 L361 727 L352 671 Q399 669 430.5 662.5 Q462 656 481 644.5 Q500 633 508 617.5 Q516 602 516 583 Q516 567 510 542.5 Q504 518 498 493 L428 493 Q431 518 432 529.5 Q433 541 433 547 Q433 576 414.5 591 Q396 606 342 609 L304 376 L354 374 Q377 373 399 368 Q421 363 438.5 349.5 Q456 336 467 311.5 Q478 287 478 247 Q478 234 477 219.5 Q476 205 473 188 Q464 135 446.5 99 Q429 63 400.5 40.5 Q372 18 332.5 7.5 Q293 -3 241 -6 L230 -75 L172 -75 L183 -7 Z M397 189 Q399 201 400 212 Q401 223 401 232 Q401 277 375.5 293 Q350 309 293 311 L251 57 Q287 60 312.5 68 Q338 76 355 91.5 Q372 107 381.5 131 Q391 155 397 189 Z M144 490 Q141 469 141 454 Q141 413 165.5 398.5 Q190 384 247 381 L284 609 Q246 607 221.5 599.5 Q197 592 181.5 577.5 Q166 563 157.5 541.5 Q149 520 144 490 Z " />
<glyph glyph-name="cent" unicode="&#xa2;" horiz-adv-x="575" d="M231 67 Q184 69 151.5 76 Q119 83 99 98 Q79 113 70 137 Q61 161 61 197 Q61 219 64.5 250 Q68 281 72 304 Q83 372 99 416.5 Q115 461 141 487.5 Q167 514 207.5 525.5 Q248 537 308 539 L319 609 L377 609 L366 539 Q414 537 446 531 Q478 525 497.5 515 Q517 505 525 492.5 Q533 480 533 466 Q533 458 530 441.5 Q527 425 522 408 L450 408 Q453 433 453 441 Q453 458 431 467.5 Q409 477 356 480 L298 124 Q339 125 361.5 130 Q384 135 396 143.5 Q408 152 412 165 Q416 178 419 196 L490 196 Q490 192 488 181 Q486 170 484 156 Q481 136 470.5 120 Q460 104 438.5 92.5 Q417 81 380.5 74.5 Q344 68 289 67 L278 0 L220 0 L231 67 Z M146 301 Q142 278 139 253 Q136 228 136 211 Q136 163 159 145 Q182 127 240 124 L298 480 Q258 478 232.5 469.5 Q207 461 190.5 441.5 Q174 422 164.5 388 Q155 354 146 301 Z " />
<glyph glyph-name="Emacron" unicode="&#x112;" horiz-adv-x="500" d="M15 0 L124 665 L516 665 L505 599 L191 599 L154 373 L443 373 L406 308 L143 308 L104 66 L418 66 L407 0 L15 0 Z M224 747 L233 800 L443 800 L434 747 L224 747 Z " />
<glyph glyph-name="emacron" unicode="&#x113;" horiz-adv-x="458" d="M424 361 Q424 314 412.5 286.5 Q401 259 384 241 Q366 222 332.5 211.5 Q299 201 262 195.5 Q225 190 190.5 189 Q156 188 136 188 L109 188 L105 132 Q105 81 128 66.5 Q151 52 202 52 Q232 52 251 55 Q270 58 282 64 Q294 70 300 79 Q306 88 310 100 L319 132 L387 132 Q387 126 386 119 Q385 113 384.5 104.5 Q384 96 382 88 Q374 37 328.5 16.5 Q283 -4 193 -4 Q153 -4 123.5 1 Q94 6 75 20.5 Q56 35 46.5 60 Q37 85 37 125 Q37 146 39.5 172 Q42 198 47 230 Q58 297 74 343 Q90 389 115.5 417 Q141 445 178 457 Q215 469 268 469 Q301 469 329.5 462 Q358 455 379 441.5 Q400 428 412 408 Q424 388 424 361 Z M151 237 Q176 237 202.5 238.5 Q229 240 253 244 Q277 248 296 255 Q315 262 326 273 Q334 281 343 300 Q352 319 352 348 Q352 377 331 395 Q310 413 261 413 Q229 413 206 406 Q183 399 167 383 Q151 367 140.5 340.5 Q130 314 124 274 L118 237 L151 237 Z M175 547 L184 600 L394 600 L385 547 L175 547 Z " />
<glyph glyph-name="Iogonek" unicode="&#x12e;" horiz-adv-x="221" d="M94 0 Q69 -11 52.5 -23.5 Q36 -36 24 -50 Q13 -64 5 -78.5 Q-3 -93 -3 -109 Q-3 -129 11.5 -138.5 Q26 -148 44 -148 Q60 -148 74 -145.5 Q88 -143 102 -138 L106 -178 Q88 -189 63.5 -194 Q39 -199 18 -199 Q-20 -199 -44.5 -182 Q-69 -165 -69 -133 Q-69 -113 -61 -94.5 Q-53 -76 -41 -59 Q-29 -42 -13.5 -27 Q2 -12 17 0 L126 665 L203 665 L94 0 Z " />
<glyph glyph-name="iogonek" unicode="&#x12f;" horiz-adv-x="213" d="M117 0 Q93 -11 76 -24.5 Q59 -38 45 -56 Q36 -69 30 -82 Q24 -95 24 -109 Q24 -129 38.5 -138.5 Q53 -148 71 -148 Q87 -148 101 -145.5 Q115 -143 129 -138 L133 -178 Q115 -189 90.5 -194 Q66 -199 45 -199 Q7 -199 -17.5 -182 Q-42 -165 -42 -133 Q-42 -95 -15.5 -61 Q11 -27 45 0 L112 409 L24 409 L33 465 L193 465 L117 0 Z M131 530 L144 609 L216 609 L203 530 L131 530 Z " />
<glyph glyph-name="eth" unicode="&#xf0;" horiz-adv-x="462" d="M176 550 L258 595 L215 665 L294 665 L317 627 L387 665 L406 623 L341 587 L342 587 Q367 546 382 506.5 Q397 467 403.5 424 Q410 381 408 332.5 Q406 284 396 226 Q386 166 373.5 122.5 Q361 79 338 51 Q315 23 278 9.5 Q241 -4 184 -4 Q125 -4 89 5 Q53 14 36.5 39 Q20 64 19.5 109 Q19 154 30 226 Q43 305 59.5 353 Q76 401 99.5 426.5 Q123 452 156.5 460 Q190 468 237 468 Q273 468 294.5 462.5 Q316 457 325 452 Q324 461 320 474 Q316 487 310 501 Q304 515 297 529.5 Q290 544 283 555 L195 507 L176 550 Z M322 226 Q331 278 334 313.5 Q337 349 329.5 371 Q322 393 301 402.5 Q280 412 241 412 Q207 412 185 407 Q163 402 148.5 383 Q134 364 123.5 327 Q113 290 103 226 Q94 169 92.5 134.5 Q91 100 100.5 82 Q110 64 132 58 Q154 52 192 52 Q229 52 251 62 Q273 72 286.5 93 Q300 114 307 147 Q314 180 322 226 Z " />
<glyph glyph-name="Lslash" unicode="&#x141;" horiz-adv-x="466" d="M15 0 L56 249 L-23 182 L-10 258 L68 325 L124 665 L202 665 L159 403 L318 539 L305 463 L147 327 L104 66 L406 66 L395 0 L15 0 Z " />
</font>
</svg>
