<?xml version="1.0" encoding="UTF-8"?>
<svg xmlns="http://www.w3.org/2000/svg" xmlns:xlink="http://www.w3.org/1999/xlink" version="1.2" >
<font id="DanskeNarrow">
<font-face  font-family="DanskeNarrow" units-per-em="1000" ascent="665" descent="-196" font-style="normal" font-weight="400" font-stretch="semi-condensed" cap-height="665" x-height="465" underline-position="-123" underline-thickness="20" />
<missing-glyph  horiz-adv-x="127" d="" />
<glyph glyph-name="NULL" d="" />
<glyph glyph-name="nonmarkingreturn" unicode="&#xd;" horiz-adv-x="241" d="" />
<glyph glyph-name="space" unicode="&#x20;" horiz-adv-x="241" d="" />
<glyph glyph-name="Thorn" unicode="&#xde;" horiz-adv-x="578" d="M526 352 Q526 247 478.5 193.5 Q431 140 326 140 L148 140 L148 0 L70 0 L70 665 L148 665 L148 567 L326 567 Q431 567 478.5 512 Q526 457 526 352 Z M446 352 Q446 435 414.5 468 Q383 501 321 501 L148 501 L148 207 L320 207 Q353 207 377 214 Q401 221 416 238 Q431 255 438.5 283 Q446 311 446 352 Z " />
<glyph glyph-name="thorn" unicode="&#xfe;" horiz-adv-x="469" d="M421 232 Q421 158 412.5 112 Q404 66 384.5 40 Q365 14 332 4.5 Q299 -5 251 -5 Q209 -5 181.5 5 Q154 15 137 25 L137 -196 L65 -196 L65 665 L137 665 L137 421 Q152 441 181 456.5 Q210 472 258 472 Q303 472 334 462.5 Q365 453 384.5 427 Q404 401 412.5 354 Q421 307 421 232 Z M348 232 Q348 286 342.5 321.5 Q337 357 325.5 377 Q314 397 295 405 Q276 413 249 413 Q216 413 193.5 405 Q171 397 153 380 Q143 371 140 354.5 Q137 338 137 319 L137 69 Q161 63 184 60 Q207 57 242 57 Q274 57 294.5 65.5 Q315 74 327 94 Q339 114 343.5 147.5 Q348 181 348 232 Z " />
<glyph glyph-name="onehalf" unicode="&#xbd;" horiz-adv-x="816" d="M225 0 L156 0 L557 665 L627 665 L225 0 Z M85 284 L85 331 L146 331 L146 613 L76 598 L76 649 L154 665 L211 665 L211 331 L268 331 L268 284 L85 284 Z M745 275 Q745 216 723 191.5 Q701 167 656 160 L580 148 Q563 145 553.5 138.5 Q544 132 539.5 120.5 Q535 109 534 92 Q533 75 533 51 L740 51 L740 0 L467 0 L467 82 Q467 132 489.5 160.5 Q512 189 562 196 L632 206 Q657 210 667.5 222.5 Q678 235 678 274 Q678 306 662.5 320 Q647 334 605 334 Q582 334 568.5 331.5 Q555 329 548 323 Q541 317 539 306 Q537 295 537 278 L475 278 Q474 285 473 292 Q472 298 471.5 305 Q471 312 471 319 Q471 334 476.5 346 Q482 358 497 366.5 Q512 375 538 379.5 Q564 384 605 384 Q644 384 671 378 Q698 372 714.5 359.5 Q731 347 738 326 Q745 305 745 275 Z " />
<glyph glyph-name="onequarter" unicode="&#xbc;" horiz-adv-x="813" d="M726 88 L681 88 L681 0 L617 0 L617 88 L405 88 L405 154 Q405 154 412.5 164 Q420 174 431 190 Q442 206 457 226.5 Q472 247 487 268 Q522 317 568 381 L681 381 L681 136 L747 136 L726 88 Z M226 0 L158 0 L559 665 L629 665 L226 0 Z M85 284 L85 331 L146 331 L146 613 L76 598 L76 649 L154 665 L211 665 L211 331 L268 331 L268 284 L85 284 Z M617 336 L604 336 L464 148 L464 136 L617 136 L617 336 Z " />
<glyph glyph-name="onesuperior" unicode="&#xb9;" horiz-adv-x="388" d="M106 284 L106 332 L168 332 L168 613 L97 598 L97 649 L175 665 L232 665 L232 332 L289 332 L289 284 L106 284 Z " />
<glyph glyph-name="threequarters" unicode="&#xbe;" horiz-adv-x="804" d="M258 0 L190 0 L590 665 L660 665 L258 0 Z M335 396 Q335 330 302 305 Q269 280 189 280 Q110 280 80.5 297 Q51 314 51 347 Q51 352 51 357 Q51 362 52 367 Q52 372 53 377 L118 377 Q118 348 131 338.5 Q144 329 189 329 Q236 329 252.5 342.5 Q269 356 269 396 Q269 411 267.5 422 Q266 433 259.5 440 Q253 447 240 450.5 Q227 454 205 454 L158 454 L158 501 L264 610 L264 616 L122 616 L122 575 L59 575 L59 665 L328 665 L328 601 L227 505 L227 504 Q256 503 276.5 498.5 Q297 494 310 482 Q323 470 329 449.5 Q335 429 335 396 Z M747 88 L702 88 L702 0 L637 0 L637 88 L426 88 L426 154 Q465 207 505 262 Q545 317 588 381 L702 381 L702 136 L766 136 L747 88 Z M637 336 L625 336 L484 148 L484 136 L637 136 L637 336 Z " />
<glyph glyph-name="threesuperior" unicode="&#xb3;" horiz-adv-x="374" d="M327 395 Q327 330 294 304.5 Q261 279 181 279 Q102 279 72.5 296.5 Q43 314 43 346 Q43 351 43 356 Q43 361 44 366 Q45 371 46 376 L110 376 Q110 361 112.5 352 Q115 343 123 338 Q131 333 144.5 331 Q158 329 181 329 Q228 329 244.5 342.5 Q261 356 261 395 Q261 410 259.5 421 Q258 432 251.5 439.5 Q245 447 232 450.5 Q219 454 197 454 L150 454 L150 501 L256 610 L256 616 L114 616 L114 575 L51 575 L51 665 L320 665 L320 601 L219 504 Q248 503 268.5 498.5 Q289 494 302 482 Q315 470 321 449 Q327 428 327 395 Z " />
<glyph glyph-name="twosuperior" unicode="&#xb2;" horiz-adv-x="369" d="M328 559 Q328 500 306 475.5 Q284 451 239 444 L162 432 Q147 430 137.5 423.5 Q128 417 123.5 405.5 Q119 394 117.5 376.5 Q116 359 116 335 L323 335 L323 284 L50 284 L50 366 Q50 416 72 444.5 Q94 473 146 480 L216 490 Q242 494 251.5 506.5 Q261 519 261 558 Q261 590 245.5 604 Q230 618 188 618 Q165 618 151.5 615.5 Q138 613 131 607 Q124 601 122 590 Q120 579 120 562 L58 562 Q57 569 56 576 Q55 582 54.5 589 Q54 596 54 603 Q54 618 59.5 630 Q65 642 80 650.5 Q95 659 121 663.5 Q147 668 188 668 Q266 668 297 643.5 Q328 619 328 559 Z " />
<glyph glyph-name="brokenbar" unicode="&#xa6;" horiz-adv-x="197" d="M63 334 L63 665 L129 665 L129 334 L63 334 Z M63 -175 L63 148 L129 148 L129 -175 L63 -175 Z " />
<glyph glyph-name="minus" unicode="&#x2212;" horiz-adv-x="588" d="M50 297 L50 359 L537 359 L537 297 L50 297 Z " />
<glyph glyph-name="multiply" unicode="&#xd7;" horiz-adv-x="651" d="M476 121 L326 286 L177 121 L134 167 L283 332 L134 497 L177 543 L326 379 L476 543 L518 498 L368 332 L518 167 L476 121 Z " />
<glyph glyph-name="lslash" unicode="&#x142;" horiz-adv-x="247" d="M97 0 L97 265 L26 194 L26 268 L97 339 L97 609 L8 609 L8 665 L169 665 L169 411 L239 481 L239 407 L169 337 L169 0 L97 0 Z " />
<glyph glyph-name="exclam" unicode="&#x21;" horiz-adv-x="230" d="M144 183 L76 183 L70 665 L152 665 L144 183 Z M70 0 L70 91 L152 91 L152 0 L70 0 Z " />
<glyph glyph-name="quotedbl" unicode="&#x22;" horiz-adv-x="264" d="M90 399 L40 399 L30 665 L97 665 L90 399 Z M219 399 L169 399 L162 665 L225 665 L219 399 Z " />
<glyph glyph-name="numbersign" unicode="&#x23;" horiz-adv-x="589" d="M518 405 L403 405 L380 262 L496 262 L488 209 L372 209 L339 0 L281 0 L315 209 L208 209 L175 0 L119 0 L152 209 L47 209 L56 262 L160 262 L182 405 L78 405 L86 458 L190 458 L223 665 L280 665 L248 458 L354 458 L387 665 L445 665 L412 458 L527 458 L518 405 Z M239 405 L216 262 L323 262 L346 405 L239 405 Z " />
<glyph glyph-name="percent" unicode="&#x25;" horiz-adv-x="782" d="M226 0 L158 0 L557 665 L628 665 L226 0 Z M317 505 Q317 456 312.5 423 Q308 390 293.5 369.5 Q279 349 252.5 340.5 Q226 332 182 332 Q139 332 113 340.5 Q87 349 72.5 369.5 Q58 390 53 423 Q48 456 48 505 Q48 554 53.5 586 Q59 618 74 636.5 Q89 655 116 662 Q143 669 185 669 Q228 669 254.5 661.5 Q281 654 294.5 635.5 Q308 617 312.5 585 Q317 553 317 505 Z M253 505 Q253 538 251.5 560.5 Q250 583 243.5 597 Q237 611 223 617 Q209 623 185 623 Q162 623 147.5 618 Q133 613 125 599.5 Q117 586 114 563 Q111 540 111 505 Q111 471 113.5 447.5 Q116 424 123.5 409 Q131 394 145 387.5 Q159 381 182 381 Q206 381 220 387.5 Q234 394 241.5 409 Q249 424 251 447.5 Q253 471 253 505 Z M733 165 Q733 116 728.5 83 Q724 50 709.5 29.5 Q695 9 668.5 0.5 Q642 -8 598 -8 Q555 -8 529 0.5 Q503 9 488.5 29.5 Q474 50 469 83 Q464 116 464 165 Q464 214 469.5 246 Q475 278 490 296.5 Q505 315 532 322 Q559 329 601 329 Q644 329 670.5 321.5 Q697 314 710.5 295.5 Q724 277 728.5 245 Q733 213 733 165 Z M669 165 Q669 198 667.5 220.5 Q666 243 659.5 257 Q653 271 639 277 Q625 283 601 283 Q578 283 563.5 278 Q549 273 541 259.5 Q533 246 530 223 Q527 200 527 165 Q527 131 529.5 107.5 Q532 84 539.5 69 Q547 54 561 47.5 Q575 41 598 41 Q622 41 636 47.5 Q650 54 657.5 69 Q665 84 667 107.5 Q669 131 669 165 Z " />
<glyph glyph-name="ampersand" unicode="&#x26;" horiz-adv-x="634" d="M535 0 L478 51 Q467 38 450.5 27.5 Q434 17 409.5 9.5 Q385 2 351 -2.5 Q317 -7 272 -7 Q204 -7 159.5 3.5 Q115 14 88.5 36.5 Q62 59 51 94.5 Q40 130 40 180 Q40 224 47.5 256 Q55 288 71.5 310.5 Q88 333 114 347.5 Q140 362 178 370 Q158 391 143.5 409 Q129 427 118.5 445 Q108 463 103 482 Q98 501 98 524 Q98 597 138 634 Q178 671 271 671 Q364 671 402.5 632.5 Q441 594 441 505 Q441 467 433 440.5 Q425 414 407 396 Q389 378 359.5 365.5 Q330 353 288 342 L456 185 Q457 190 457.5 197 Q458 204 458 213 L458 293 L528 293 L528 207 Q528 176 525 150 Q522 124 515 112 L625 0 L535 0 Z M359 506 Q359 566 338 590 Q317 614 272 614 Q220 614 199 593 Q178 572 178 526 Q178 494 189.5 468 Q201 442 224 419 L250 392 L286 400 Q327 410 343 434.5 Q359 459 359 506 Z M218 315 Q191 309 172.5 299 Q154 289 143.5 273 Q133 257 128.5 234 Q124 211 124 178 Q124 146 129 122.5 Q134 99 149.5 84 Q165 69 194.5 62 Q224 55 274 55 Q338 55 377 65.5 Q416 76 431 110 L218 315 Z " />
<glyph glyph-name="quotesingle" unicode="&#x27;" horiz-adv-x="131" d="M90 399 L39 399 L26 665 L100 665 L90 399 Z " />
<glyph glyph-name="parenleft" unicode="&#x28;" horiz-adv-x="254" d="M136 -42 Q136 -95 153.5 -117 Q171 -139 214 -142 L214 -201 L201 -201 Q162 -201 135.5 -193.5 Q109 -186 93.5 -165.5 Q78 -145 71 -109.5 Q64 -74 64 -18 L64 488 Q64 544 71 579.5 Q78 615 93.5 635.5 Q109 656 135.5 663.5 Q162 671 201 671 L214 671 L214 612 Q171 609 153.5 587 Q136 565 136 512 L136 -42 Z " />
<glyph glyph-name="parenright" unicode="&#x29;" horiz-adv-x="254" d="M35 -142 Q77 -139 95.5 -117 Q114 -95 114 -42 L114 512 Q114 563 96.5 586 Q79 609 35 612 L35 671 L48 671 Q87 671 113.5 663.5 Q140 656 155.5 635.5 Q171 615 178 579.5 Q185 544 185 488 L185 -18 Q185 -74 178 -110 Q171 -146 155.5 -166 Q140 -186 113.5 -193.5 Q87 -201 48 -201 L35 -201 L35 -142 Z " />
<glyph glyph-name="asterisk" unicode="&#x2a;" horiz-adv-x="440" d="M245 473 L320 356 L284 327 L209 448 L128 327 L93 356 L170 473 L47 523 L63 572 L186 523 L186 665 L231 665 L231 523 L354 572 L370 523 L245 473 Z " />
<glyph glyph-name="plus" unicode="&#x2b;" horiz-adv-x="588" d="M324 297 L324 98 L262 98 L262 297 L84 297 L84 360 L262 360 L262 558 L324 558 L324 360 L502 360 L502 297 L324 297 Z " />
<glyph glyph-name="comma" unicode="&#x2c;" horiz-adv-x="162" d="M82 -109 L33 -109 L73 0 L37 0 L37 82 L124 82 L124 0 L82 -109 Z " />
<glyph glyph-name="hyphen" unicode="&#x2d;" horiz-adv-x="373" d="M36 212 L36 274 L336 274 L336 212 L36 212 Z " />
<glyph glyph-name="period" unicode="&#x2e;" horiz-adv-x="162" d="M37 0 L37 82 L125 82 L125 0 L37 0 Z " />
<glyph glyph-name="slash" unicode="&#x2f;" horiz-adv-x="397" d="M13 -198 L320 665 L376 665 L69 -198 L13 -198 Z " />
<glyph glyph-name="colon" unicode="&#x3a;" horiz-adv-x="162" d="M34 0 L34 83 L119 83 L119 0 L34 0 Z M34 264 L34 347 L119 347 L119 264 L34 264 Z " />
<glyph glyph-name="semicolon" unicode="&#x3b;" horiz-adv-x="162" d="M34 264 L34 347 L120 347 L120 264 L34 264 Z M78 -109 L30 -109 L70 0 L34 0 L34 82 L120 82 L120 0 L78 -109 Z " />
<glyph glyph-name="less" unicode="&#x3c;" horiz-adv-x="589" d="M103 304 L103 360 L468 560 L468 485 L175 332 L468 179 L468 103 L103 304 Z " />
<glyph glyph-name="equal" unicode="&#x3d;" horiz-adv-x="517" d="M80 219 L80 281 L437 281 L437 219 L80 219 Z M80 385 L80 447 L437 447 L437 385 L80 385 Z " />
<glyph glyph-name="greater" unicode="&#x3e;" horiz-adv-x="589" d="M103 103 L103 179 L401 332 L103 485 L103 560 L468 360 L468 303 L103 103 Z " />
<glyph glyph-name="question" unicode="&#x3f;" horiz-adv-x="458" d="M420 501 Q420 457 417 427 Q414 397 403.5 376 Q393 355 372.5 340 Q352 325 318 312 Q289 301 273 290 Q257 279 249.5 266.5 Q242 254 240.5 238 Q239 222 239 200 L160 200 L160 243 Q160 259 164.5 273 Q169 287 181 300.5 Q193 314 214 327.5 Q235 341 268 356 Q293 367 308.5 377.5 Q324 388 332 403.5 Q340 419 342.5 442 Q345 465 345 501 Q345 537 339 559 Q333 581 319.5 593 Q306 605 283 609 Q260 613 226 613 Q193 613 172 609.5 Q151 606 138.5 598 Q126 590 121 577.5 Q116 565 115 547 L113 509 L41 509 Q38 529 37.5 540 Q37 551 37 561 Q37 588 45 608.5 Q53 629 75 643 Q97 657 134.5 664 Q172 671 231 671 Q284 671 320.5 664 Q357 657 379 638 Q401 619 410.5 586 Q420 553 420 501 Z M158 0 L158 80 L240 80 L240 0 L158 0 Z " />
<glyph glyph-name="at" unicode="&#x40;" horiz-adv-x="613" d="M560 337 Q560 281 554 244 Q548 207 535 184 Q522 161 502 151.5 Q482 142 454 142 Q422 142 400.5 153.5 Q379 165 368 185 L367 185 Q362 165 344 153.5 Q326 142 290 142 Q258 142 236.5 149 Q215 156 202.5 176.5 Q190 197 185 235.5 Q180 274 180 337 Q180 393 185 428.5 Q190 464 201.5 483.5 Q213 503 231.5 510 Q250 517 278 517 Q298 517 317 511 Q336 505 349 488 L349 515 L421 515 L421 255 Q421 220 429.5 208.5 Q438 197 453 197 Q462 197 468.5 201.5 Q475 206 479 220.5 Q483 235 485 263 Q487 291 487 338 Q487 421 481 473.5 Q475 526 456 556 Q437 586 400.5 597.5 Q364 609 304 609 Q248 609 213 600 Q178 591 158.5 562.5 Q139 534 131.5 480.5 Q124 427 124 337 Q124 250 129.5 194 Q135 138 152.5 106 Q170 74 203.5 61.5 Q237 49 294 49 Q331 49 356 51 Q381 53 398 57.5 Q415 62 426.5 70.5 Q438 79 447 92 L500 53 Q489 37 475.5 25.5 Q462 14 439.5 7 Q417 0 382 -3.5 Q347 -7 294 -7 Q214 -7 166.5 9 Q119 25 93 64.5 Q67 104 59 170.5 Q51 237 51 337 Q51 440 60.5 504.5 Q70 569 98 604 Q126 639 175 651.5 Q224 664 304 664 Q379 664 428 654 Q477 644 506.5 610 Q536 576 548 511 Q560 446 560 337 Z M348 270 Q348 274 348 280.5 Q348 287 348.5 305 Q349 323 349 355.5 Q349 388 349 445 Q340 453 330.5 456 Q321 459 304 459 Q290 459 281 454.5 Q272 450 266.5 437 Q261 424 258.5 400 Q256 376 256 337 Q256 289 258.5 261.5 Q261 234 267 219.5 Q273 205 283.5 201 Q294 197 309 197 Q330 197 338.5 213.5 Q347 230 348 270 Z " />
<glyph glyph-name="A" unicode="A" horiz-adv-x="598" d="M512 0 L457 165 L141 165 L86 0 L6 0 L230 665 L370 665 L592 0 L512 0 Z M312 605 L287 605 L157 225 L442 225 L312 605 Z " />
<glyph glyph-name="B" unicode="B" horiz-adv-x="594" d="M425 342 Q476 333 509 295.5 Q542 258 542 184 Q542 87 493 43.5 Q444 0 339 0 L70 0 L70 665 L348 665 Q443 665 484 623.5 Q525 582 525 497 Q525 438 500.5 396.5 Q476 355 425 347 L425 342 Z M446 494 Q446 557 418.5 578 Q391 599 335 599 L147 599 L147 375 L341 375 Q367 375 387 380 Q407 385 420 398.5 Q433 412 439.5 435 Q446 458 446 494 Z M464 184 Q464 250 436 279.5 Q408 309 346 309 L147 309 L147 66 L336 66 Q367 66 391 71 Q415 76 431 89.5 Q447 103 455.5 126 Q464 149 464 184 Z " />
<glyph glyph-name="C" unicode="C" horiz-adv-x="586" d="M533 111 Q533 78 516.5 55.5 Q500 33 470.5 19.5 Q441 6 400.5 0 Q360 -6 311 -6 Q233 -6 183 6 Q133 18 103.5 54 Q74 90 63 156.5 Q52 223 52 332 Q52 443 63.5 510 Q75 577 104 613 Q133 649 183.5 660.5 Q234 672 311 672 Q373 672 415 665.5 Q457 659 483 644 Q509 629 520.5 606 Q532 583 532 550 Q532 539 531.5 527 Q531 515 530 504 Q529 492 528 479 L453 479 L453 523 Q453 545 448.5 561 Q444 577 429 587 Q414 597 385.5 601.5 Q357 606 308 606 Q253 606 218 598 Q183 590 163.5 561.5 Q144 533 137 478.5 Q130 424 130 332 Q130 241 137.5 187 Q145 133 165 105 Q185 77 220.5 68.5 Q256 60 312 60 Q351 60 377.5 63 Q404 66 420 73 Q436 80 443 91 Q450 102 451 118 L455 187 L531 187 Q532 172 532.5 152.5 Q533 133 533 111 Z " />
<glyph glyph-name="D" unicode="D" horiz-adv-x="595" d="M542 274 Q542 130 480.5 65 Q419 0 289 0 L70 0 L70 665 L289 665 Q418 665 480 600 Q542 535 542 389 L542 274 Z M465 389 Q465 497 425.5 548 Q386 599 289 599 L147 599 L147 66 L289 66 Q333 66 366 76 Q399 86 421 110 Q443 134 454 174 Q465 214 465 274 L465 389 Z " />
<glyph glyph-name="E" unicode="E" horiz-adv-x="500" d="M70 0 L70 665 L462 665 L462 599 L148 599 L148 373 L437 373 L411 308 L148 308 L148 66 L462 66 L462 0 L70 0 Z " />
<glyph glyph-name="F" unicode="F" horiz-adv-x="476" d="M148 599 L148 373 L430 373 L404 308 L148 308 L148 0 L70 0 L70 665 L444 665 L444 599 L148 599 Z " />
<glyph glyph-name="G" unicode="G" horiz-adv-x="604" d="M462 281 L330 281 L330 343 L535 343 L535 0 L470 0 L465 44 L460 44 Q441 18 404 5.5 Q367 -7 296 -7 Q223 -7 176 7 Q129 21 101.5 58.5 Q74 96 63 162 Q52 228 52 332 Q52 441 63 508 Q74 575 102.5 611.5 Q131 648 179.5 660 Q228 672 302 672 Q371 672 416 665 Q461 658 487.5 643.5 Q514 629 524.5 607 Q535 585 535 554 Q535 541 534.5 528 Q534 515 534 504 Q533 491 533 479 L459 479 L458 535 Q458 551 452 564 Q446 577 429.5 586 Q413 595 382.5 600 Q352 605 302 605 Q251 605 218 596 Q185 587 165.5 558 Q146 529 138.5 475.5 Q131 422 131 332 Q131 241 138 187.5 Q145 134 165.5 106.5 Q186 79 222 71 Q258 63 316 63 Q374 63 406.5 70.5 Q439 78 462 96 L462 281 Z " />
<glyph glyph-name="H" unicode="H" horiz-adv-x="615" d="M467 0 L467 304 L148 304 L148 0 L70 0 L70 665 L148 665 L148 373 L467 373 L467 665 L545 665 L545 0 L467 0 Z " />
<glyph glyph-name="I" unicode="I" horiz-adv-x="221" d="M72 0 L72 665 L149 665 L149 0 L72 0 Z " />
<glyph glyph-name="J" unicode="J" horiz-adv-x="449" d="M384 185 Q384 129 374 92.5 Q364 56 341.5 34 Q319 12 281 3.5 Q243 -5 188 -5 Q137 -5 105 1 Q73 7 55 20 Q37 33 30.5 54 Q24 75 24 106 Q24 115 24 126 Q24 137 25 146 Q26 157 27 167 L97 167 L102 104 Q104 82 122 70 Q140 58 191 58 Q224 58 246.5 63.5 Q269 69 282 82.5 Q295 96 300.5 120 Q306 144 306 182 L306 665 L384 665 L384 185 Z " />
<glyph glyph-name="K" unicode="K" horiz-adv-x="592" d="M491 0 L206 310 L148 310 L148 0 L70 0 L70 665 L148 665 L148 372 L205 372 L463 665 L553 665 L270 345 L585 0 L491 0 Z " />
<glyph glyph-name="L" unicode="L" horiz-adv-x="461" d="M70 0 L70 665 L148 665 L148 66 L450 66 L450 0 L70 0 Z " />
<glyph glyph-name="M" unicode="M" horiz-adv-x="813" d="M666 0 L666 594 L654 594 L461 0 L359 0 L160 594 L148 594 L148 0 L70 0 L70 665 L218 665 L408 84 L411 84 L596 665 L743 665 L743 0 L666 0 Z " />
<glyph glyph-name="N" unicode="N" horiz-adv-x="664" d="M462 0 L155 597 L144 597 L144 0 L70 0 L70 665 L203 665 L510 67 L520 67 L520 665 L594 665 L594 0 L462 0 Z " />
<glyph glyph-name="O" unicode="O" horiz-adv-x="598" d="M546 332 Q546 229 537.5 163.5 Q529 98 502.5 60 Q476 22 427.5 7.5 Q379 -7 299 -7 Q221 -7 172.5 7.5 Q124 22 97 60 Q70 98 61 163.5 Q52 229 52 332 Q52 437 61.5 503.5 Q71 570 97.5 607 Q124 644 172.5 657.5 Q221 671 299 671 Q380 671 429 656.5 Q478 642 504 603.5 Q530 565 538 499.5 Q546 434 546 332 Z M468 332 Q468 412 463.5 464.5 Q459 517 442 548 Q425 579 391.5 591.5 Q358 604 299 604 Q244 604 211 593.5 Q178 583 160 553.5 Q142 524 136.5 471 Q131 418 131 332 Q131 248 136 195 Q141 142 158.5 111.5 Q176 81 209.5 70 Q243 59 299 59 Q357 59 390.5 70 Q424 81 441 111.5 Q458 142 463 195 Q468 248 468 332 Z " />
<glyph glyph-name="P" unicode="P" horiz-adv-x="581" d="M526 455 Q526 356 478 297 Q430 238 327 238 L148 238 L148 0 L70 0 L70 665 L327 665 Q431 665 478.5 610 Q526 555 526 455 Z M447 453 Q447 535 410 567 Q373 599 301 599 L148 599 L148 305 L301 305 Q343 305 371.5 312.5 Q400 320 416.5 337.5 Q433 355 440 383 Q447 411 447 453 Z " />
<glyph glyph-name="Q" unicode="Q" horiz-adv-x="607" d="M562 0 L395 0 Q374 -3 350.5 -4 Q327 -5 299 -5 Q221 -5 172.5 9.5 Q124 24 97 62 Q70 100 61 165 Q52 230 52 332 Q52 437 61.5 503.5 Q71 570 98 607 Q125 644 173.5 657.5 Q222 671 299 671 Q381 671 429.5 655.5 Q478 640 504 602 Q530 564 538 498 Q546 432 546 332 Q546 259 540.5 210 Q535 161 527 130.5 Q519 100 508.5 83.5 Q498 67 489 58 L595 59 L562 0 Z M468 332 Q468 419 463 472.5 Q458 526 441 555.5 Q424 585 390.5 595 Q357 605 299 605 Q245 605 212 594.5 Q179 584 161 554.5 Q143 525 137 471.5 Q131 418 131 332 Q131 249 137 196 Q143 143 161 112.5 Q179 82 212 70 Q245 58 299 58 Q357 58 391 70.5 Q425 83 442 114 Q459 145 463.5 198 Q468 251 468 332 Z " />
<glyph glyph-name="R" unicode="R" horiz-adv-x="572" d="M473 0 L279 277 L147 277 L147 0 L70 0 L70 665 L322 665 Q434 665 481.5 615 Q529 565 529 473 Q529 423 518.5 387.5 Q508 352 486.5 329 Q465 306 433.5 294.5 Q402 283 360 281 L565 0 L473 0 Z M449 473 Q449 541 416.5 570 Q384 599 315 599 L147 599 L147 342 L270 342 Q319 342 353 344.5 Q387 347 408.5 359.5 Q430 372 439.5 398.5 Q449 425 449 473 Z " />
<glyph glyph-name="S" unicode="S" horiz-adv-x="537" d="M498 188 Q498 129 483.5 91.5 Q469 54 439.5 32.5 Q410 11 364 2.5 Q318 -6 255 -6 Q195 -6 155 1.5 Q115 9 91.5 22.5 Q68 36 58 55.5 Q48 75 48 99 Q48 114 48 127 Q48 140 49 150 Q50 161 51 171 L125 171 L128 119 Q129 104 135 92 Q141 80 155.5 71.5 Q170 63 194 59 Q218 55 254 55 Q302 55 333.5 61.5 Q365 68 384 83.5 Q403 99 411 124.5 Q419 150 419 189 Q419 225 412 248 Q405 271 391.5 285 Q378 299 358 304.5 Q338 310 311 312 L212 318 Q171 320 139 327.5 Q107 335 84.5 354 Q62 373 50 405.5 Q38 438 38 490 Q38 543 50 578 Q62 613 89.5 633.5 Q117 654 161 662.5 Q205 671 269 671 Q332 671 372.5 663.5 Q413 656 436 642 Q459 628 468 608 Q477 588 477 563 Q477 540 475 521.5 Q473 503 473 495 L398 495 L395 538 Q393 557 387.5 571 Q382 585 368 594 Q354 603 330.5 607 Q307 611 270 611 Q223 611 193 604.5 Q163 598 146.5 584 Q130 570 124 547 Q118 524 118 490 Q118 458 124 438 Q130 418 142.5 406 Q155 394 175 389 Q195 384 223 382 L347 374 Q374 372 401 365.5 Q428 359 449.5 339.5 Q471 320 484.5 284 Q498 248 498 188 Z " />
<glyph glyph-name="T" unicode="T" horiz-adv-x="498" d="M465 599 L286 599 L286 0 L210 0 L210 599 L19 599 L19 665 L491 665 L465 599 Z " />
<glyph glyph-name="U" unicode="U" horiz-adv-x="615" d="M546 33 Q497 14 437 4 Q377 -6 306 -6 Q244 -6 199 2.5 Q154 11 125 35 Q96 59 82 101 Q68 143 68 209 L68 665 L145 665 L145 209 Q145 170 150.5 141.5 Q156 113 173.5 95 Q191 77 222.5 68 Q254 59 306 59 Q356 59 394.5 63 Q433 67 469 75 L469 665 L546 665 L546 33 Z " />
<glyph glyph-name="V" unicode="V" horiz-adv-x="569" d="M347 0 L227 0 L7 665 L87 665 L282 55 L293 55 Q300 79 322 153 Q331 184 345 229.5 Q359 275 378 337 Q397 399 422.5 480 Q448 561 480 665 L562 665 L347 0 Z " />
<glyph glyph-name="W" unicode="W" horiz-adv-x="906" d="M723 0 L609 0 L454 603 L451 603 L294 0 L176 0 L8 665 L87 665 L233 56 L237 56 Q245 87 264 164 Q272 197 283.5 242.5 Q295 288 311 349 Q327 410 347 488.5 Q367 567 393 665 L513 665 L666 54 L669 54 Q678 91 697 170 Q705 203 716.5 249 Q728 295 743 356 Q758 417 777 493.5 Q796 570 819 665 L898 665 L723 0 Z " />
<glyph glyph-name="X" unicode="X" horiz-adv-x="544" d="M523 665 L328 340 L537 0 L451 0 L272 297 L269 297 L94 0 L7 0 L217 348 L21 665 L106 665 L274 389 L276 389 L436 665 L523 665 Z " />
<glyph glyph-name="Y" unicode="Y" horiz-adv-x="549" d="M216 0 L136 0 L265 241 L209 241 L6 665 L94 665 L253 311 L292 311 L462 665 L543 665 L216 0 Z " />
<glyph glyph-name="Z" unicode="Z" horiz-adv-x="552" d="M494 0 L59 0 L59 68 L423 595 L423 600 L136 600 L136 504 L58 504 L58 665 L504 665 L504 600 L139 72 L139 68 L531 68 L494 0 Z " />
<glyph glyph-name="bracketleft" unicode="&#x5b;" horiz-adv-x="250" d="M63 -198 L63 665 L212 665 L212 607 L132 607 L132 -139 L212 -139 L212 -198 L63 -198 Z " />
<glyph glyph-name="backslash" unicode="&#x5c;" horiz-adv-x="397" d="M320 -198 L13 665 L77 665 L384 -198 L320 -198 Z " />
<glyph glyph-name="bracketright" unicode="&#x5d;" horiz-adv-x="248" d="M31 -198 L31 -139 L111 -139 L111 607 L31 607 L31 665 L180 665 L180 -198 L31 -198 Z " />
<glyph glyph-name="asciicircum" unicode="&#x5e;" horiz-adv-x="588" d="M534 370 L452 370 L296 598 L138 370 L56 370 L257 666 L334 666 L534 370 Z " />
<glyph glyph-name="underscore" unicode="&#x5f;" horiz-adv-x="454" d="M23 -130 L23 -67 L431 -67 L431 -130 L23 -130 Z " />
<glyph glyph-name="grave" unicode="&#x60;" horiz-adv-x="217" d="M155 510 L27 607 L71 658 L186 546 L155 510 Z " />
<glyph glyph-name="a" unicode="a" horiz-adv-x="473" d="M353 0 L345 44 L338 44 Q320 21 291 8 Q262 -5 214 -5 Q122 -5 82.5 28 Q43 61 43 138 Q43 174 51 200.5 Q59 227 79 245 Q99 263 132.5 271.5 Q166 280 218 280 Q270 280 302 278.5 Q334 277 339 277 L339 316 Q339 345 335.5 363.5 Q332 382 321.5 392.5 Q311 403 291 406.5 Q271 410 239 410 Q200 410 173.5 400.5 Q147 391 143 368 L138 338 L67 338 Q66 347 66 356 Q65 364 65 373 Q65 382 65 392 Q65 410 78 424.5 Q91 439 114 448.5 Q137 458 169.5 463.5 Q202 469 240 469 Q292 469 325 463 Q358 457 377 441.5 Q396 426 403.5 400 Q411 374 411 334 L411 0 L353 0 Z M339 225 L225 225 Q165 225 141.5 205 Q118 185 118 139 Q118 88 144 70 Q170 52 225 52 Q284 52 311.5 75.5 Q339 99 339 162 L339 225 Z " />
<glyph glyph-name="b" unicode="b" horiz-adv-x="475" d="M427 232 Q427 157 418.5 110 Q410 63 389.5 37.5 Q369 12 334.5 3 Q300 -6 249 -6 Q203 -6 154.5 -0.5 Q106 5 68 18 L68 665 L140 665 L140 415 Q159 440 189.5 455 Q220 470 268 470 Q316 470 347 460.5 Q378 451 395.5 424.5 Q413 398 420 351.5 Q427 305 427 232 Z M353 232 Q353 293 349.5 327.5 Q346 362 336 379.5 Q326 397 308 401.5 Q290 406 262 406 Q222 406 195.5 397.5 Q169 389 155 375 Q147 367 143.5 350 Q140 333 140 309 L140 59 Q162 55 186.5 53 Q211 51 251 51 Q279 51 298.5 56 Q318 61 330 79.5 Q342 98 347.5 134 Q353 170 353 232 Z " />
<glyph glyph-name="c" unicode="c" horiz-adv-x="469" d="M417 380 Q417 372 416.5 364.5 Q416 357 415 349 Q414 340 414 332 L346 332 L343 361 Q340 387 320 399.5 Q300 412 245 412 Q208 412 185 406 Q162 400 149.5 381 Q137 362 133 325.5 Q129 289 129 229 Q129 172 133 137 Q137 102 149.5 83 Q162 64 184.5 57.5 Q207 51 245 51 Q274 51 293 54.5 Q312 58 323 64.5 Q334 71 338.5 80.5 Q343 90 345 103 L348 132 L416 132 Q418 122 418 92 Q418 69 411 51.5 Q404 34 384.5 21 Q365 8 331.5 1.5 Q298 -5 245 -5 Q189 -5 153 4.5 Q117 14 96 40.5 Q75 67 67 113 Q59 159 59 233 Q59 306 68 352 Q77 398 99 424 Q121 450 156.5 460 Q192 470 246 470 Q294 470 327 463 Q360 456 380 443.5 Q400 431 408.5 414.5 Q417 398 417 380 Z " />
<glyph glyph-name="d" unicode="d" horiz-adv-x="480" d="M354 0 L345 50 Q327 24 297 10 Q267 -4 218 -4 Q171 -4 138 7 Q105 18 85 45.5 Q65 73 56 119 Q47 165 47 234 Q47 286 52 329 Q57 372 75 403 Q93 434 128 451.5 Q163 469 223 469 Q258 469 289 460.5 Q320 452 343 441 L343 665 L414 665 L414 0 L354 0 Z M343 395 Q328 398 312 402 Q298 404 281.5 406.5 Q265 409 249 409 Q214 409 189.5 402 Q165 395 149.5 376 Q134 357 127 323.5 Q120 290 120 236 Q120 179 126 143.5 Q132 108 144.5 88 Q157 68 176 61 Q195 54 222 54 Q253 54 273.5 58.5 Q294 63 311 71 Q329 79 336 95.5 Q343 112 343 136 L343 395 Z " />
<glyph glyph-name="e" unicode="e" horiz-adv-x="458" d="M410 263 Q410 246 409.5 235.5 Q409 225 409 217 L117 217 Q117 163 122.5 130.5 Q128 98 141 80.5 Q154 63 176 57.5 Q198 52 232 52 Q262 52 281 55 Q300 58 310.5 64 Q321 70 325.5 79 Q330 88 332 100 L336 132 L404 132 Q404 126 405 119 Q405 113 405.5 104.5 Q406 96 406 88 Q406 37 364 16.5 Q322 -4 232 -4 Q181 -4 146 4.5 Q111 13 89 38.5 Q67 64 57.5 110 Q48 156 48 230 Q48 297 56.5 343 Q65 389 86 417 Q107 445 142.5 457 Q178 469 232 469 Q287 469 321.5 458.5 Q356 448 375.5 424 Q395 400 402.5 360.5 Q410 321 410 263 Z M343 274 Q343 351 318 382 Q293 413 232 413 Q200 413 178.5 406 Q157 399 144 383 Q131 367 125 340 Q119 313 118 274 L343 274 Z " />
<glyph glyph-name="f" unicode="f" horiz-adv-x="285" d="M253 409 L150 409 L150 0 L78 0 L78 409 L15 409 L15 465 L78 465 L78 544 Q78 580 89 604 Q100 628 117.5 642 Q135 656 157 662.5 Q179 669 202 669 Q227 669 247 668 Q267 667 272 666 L272 611 L257 611 Q250 611 240.5 611.5 Q231 612 221 612 Q179 612 165 595 Q151 578 151 546 L151 465 L270 465 L253 409 Z " />
<glyph glyph-name="g" unicode="g" horiz-adv-x="443" d="M351 409 L351 403 Q363 393 373 368.5 Q383 344 383 309 Q383 262 375 231 Q367 200 348 181.5 Q329 163 297 155 Q265 147 216 147 Q202 147 185.5 148.5 Q169 150 151 150 Q118 150 108.5 138.5 Q99 127 99 103 Q99 79 111.5 69.5 Q124 60 156 60 Q168 60 185 60.5 Q202 61 219 62 Q236 63 251.5 63.5 Q267 64 275 64 Q316 64 343.5 57.5 Q371 51 387.5 35.5 Q404 20 410.5 -5.5 Q417 -31 417 -70 Q417 -105 409.5 -130 Q402 -155 380.5 -171 Q359 -187 320.5 -194 Q282 -201 221 -201 Q163 -201 127.5 -196 Q92 -191 72.5 -181 Q53 -171 46 -156.5 Q39 -142 39 -123 Q39 -115 39 -105.5 Q39 -96 40 -87 Q41 -76 42 -65 L113 -65 L116 -106 Q117 -118 122 -125.5 Q127 -133 139 -137.5 Q151 -142 171.5 -143.5 Q192 -145 222 -145 Q263 -145 288 -141 Q313 -137 326 -128 Q339 -119 343 -104.5 Q347 -90 347 -69 Q347 -30 332.5 -15 Q318 0 274 0 Q264 0 247.5 -0.5 Q231 -1 213.5 -1.5 Q196 -2 180.5 -2.5 Q165 -3 156 -3 Q118 -3 95 2.5 Q72 8 60 20 Q48 32 44 50 Q40 68 40 92 Q40 118 55 141 Q70 164 97 171 L97 172 Q70 186 55 217.5 Q40 249 40 309 Q40 352 48 382.5 Q56 413 76.5 432.5 Q97 452 131 460.5 Q165 469 217 469 Q236 469 250 468.5 Q264 468 273 467 Q284 466 290 465 L426 465 L426 409 L351 409 Z M311 309 Q311 338 307.5 358.5 Q304 379 294 392.5 Q284 406 265.5 412 Q247 418 217 418 Q185 418 165 413 Q145 408 133.5 395.5 Q122 383 118 362 Q114 341 114 309 Q114 277 118.5 256 Q123 235 134 222.5 Q145 210 165 204.5 Q185 199 216 199 Q246 199 265 205 Q284 211 294 224.5 Q304 238 307.5 259 Q311 280 311 309 Z " />
<glyph glyph-name="h" unicode="h" horiz-adv-x="466" d="M265 471 Q309 471 337 462.5 Q365 454 381 436 Q397 418 403 390.5 Q409 363 409 325 L409 0 L337 0 L337 319 Q337 370 318.5 389.5 Q300 409 254 409 Q217 409 190.5 403.5 Q164 398 137 387 L137 0 L65 0 L65 665 L137 665 L137 429 Q160 446 190 458.5 Q220 471 265 471 Z " />
<glyph glyph-name="i" unicode="i" horiz-adv-x="232" d="M95 0 L95 409 L7 409 L7 465 L167 465 L167 0 L95 0 Z M95 530 L95 609 L167 609 L167 530 L95 530 Z " />
<glyph glyph-name="j" unicode="j" horiz-adv-x="232" d="M174 -56 Q174 -102 171.5 -130.5 Q169 -159 157.5 -174.5 Q146 -190 122 -195 Q98 -200 55 -200 Q41 -200 19.5 -199 Q-2 -198 -26 -195 L-26 -135 L43 -135 Q79 -135 90.5 -123.5 Q102 -112 102 -85 L102 409 L13 409 L13 465 L174 465 L174 -56 Z M102 530 L102 609 L174 609 L174 530 L102 530 Z " />
<glyph glyph-name="k" unicode="k" horiz-adv-x="432" d="M338 0 L175 223 L139 223 L139 0 L67 0 L67 665 L139 665 L139 280 L175 280 L328 465 L412 465 L234 251 L425 0 L338 0 Z " />
<glyph glyph-name="l" unicode="l" horiz-adv-x="208" d="M72 0 L72 609 L-17 609 L-17 665 L144 665 L144 0 L72 0 Z " />
<glyph glyph-name="m" unicode="m" horiz-adv-x="758" d="M548 471 Q596 471 625.5 461 Q655 451 671 430.5 Q687 410 692 378 Q697 346 697 302 L697 0 L625 0 L625 330 Q625 374 605.5 392 Q586 410 541 410 Q502 410 470 402.5 Q438 395 410 382 Q412 376 413.5 366 Q415 356 415.5 344 Q416 332 416.5 319 Q417 306 417 295 L417 0 L345 0 L345 325 Q345 372 325 391 Q305 410 254 410 Q217 410 188.5 402.5 Q160 395 137 385 L137 0 L65 0 L65 465 L126 465 L134 429 Q158 447 191 460 Q224 473 275 473 Q322 473 350 460.5 Q378 448 395 425 Q424 447 460 459 Q496 471 548 471 Z " />
<glyph glyph-name="n" unicode="n" horiz-adv-x="466" d="M262 471 Q345 471 377 438.5 Q409 406 409 339 L409 0 L337 0 L337 327 Q337 370 318.5 389.5 Q300 409 258 409 Q222 409 194 403.5 Q166 398 137 387 L137 0 L65 0 L65 465 L130 465 L135 428 Q158 447 189 459 Q220 471 262 471 Z " />
<glyph glyph-name="o" unicode="o" horiz-adv-x="462" d="M228 469 Q285 469 321 459.5 Q357 450 377.5 424 Q398 398 406 352 Q414 306 414 232 Q414 158 406 112 Q398 66 377.5 40 Q357 14 321 5 Q285 -4 228 -4 Q172 -4 137 5.5 Q102 15 82 41 Q62 67 55 113 Q48 159 48 233 Q48 307 55 353 Q62 399 82 425 Q102 451 137 460 Q172 469 228 469 Z M230 52 Q265 52 286.5 58 Q308 64 320 83 Q332 102 336 137.5 Q340 173 340 232 Q340 291 336 326.5 Q332 362 320 381.5 Q308 401 286.5 407 Q265 413 230 413 Q195 413 174 407 Q153 401 141 382.5 Q129 364 125 328.5 Q121 293 121 233 Q121 174 125 138 Q129 102 141 83 Q153 64 174 58 Q195 52 230 52 Z " />
<glyph glyph-name="p" unicode="p" horiz-adv-x="469" d="M421 232 Q421 158 412 112 Q403 66 383 40 Q363 14 331.5 4.5 Q300 -5 255 -5 Q214 -5 184 5 Q154 15 137 25 L137 -196 L65 -196 L65 465 L126 465 L135 417 Q142 427 152.5 437 Q163 447 178 454.5 Q193 462 214 467 Q235 472 264 472 Q306 472 336 463 Q366 454 385 427.5 Q404 401 412.5 354 Q421 307 421 232 Z M348 232 Q348 292 341 328 Q334 364 321 383 Q308 402 290 407.5 Q272 413 250 413 Q217 413 194.5 405 Q172 397 155 382 Q143 371 140 354 Q137 337 137 319 L137 69 Q163 63 188 60 Q213 57 242 57 Q270 57 290.5 63.5 Q311 70 323.5 88.5 Q336 107 342 141.5 Q348 176 348 232 Z " />
<glyph glyph-name="q" unicode="q" horiz-adv-x="480" d="M343 -196 L343 50 Q332 31 303.5 13.5 Q275 -4 224 -4 Q175 -4 143 7 Q111 18 92 45 Q73 72 65.5 117.5 Q58 163 58 232 Q58 302 68.5 348.5 Q79 395 100.5 422.5 Q122 450 156.5 461 Q191 472 239 472 Q294 472 338.5 465 Q383 458 415 448 L415 -196 L343 -196 Z M343 405 Q324 409 300.5 412 Q277 415 247 415 Q215 415 193 407.5 Q171 400 157.5 380 Q144 360 137.5 324.5 Q131 289 131 232 Q131 173 137 138.5 Q143 104 155 86 Q167 68 185.5 63 Q204 58 229 58 Q264 58 284.5 64.5 Q305 71 322 83 Q336 94 339.5 118.5 Q343 143 343 169 L343 405 Z " />
<glyph glyph-name="r" unicode="r" horiz-adv-x="368" d="M351 395 Q351 381 350 364 Q349 347 349 342 L280 342 L277 382 Q275 396 264.5 404 Q254 412 231 412 Q208 412 182.5 406.5 Q157 401 137 393 L137 0 L66 0 L66 465 L129 465 L134 430 L141 430 Q163 446 194 458 Q225 470 262 470 Q313 470 332 450 Q351 430 351 395 Z " />
<glyph glyph-name="s" unicode="s" horiz-adv-x="452" d="M405 133 Q405 97 396.5 71 Q388 45 367 28.5 Q346 12 310.5 4 Q275 -4 222 -4 Q171 -4 137 1 Q103 6 83 17 Q63 28 55 45 Q47 62 47 85 Q47 96 47.5 106 Q48 116 49 124 Q50 134 51 142 L120 142 L124 95 Q125 83 129.5 74.5 Q134 66 144.5 60.5 Q155 55 173.5 52.5 Q192 50 222 50 Q255 50 276.5 55 Q298 60 310 70.5 Q322 81 326.5 96 Q331 111 331 132 Q331 169 314 185.5 Q297 202 258 206 L169 215 Q109 221 81 247.5 Q53 274 53 341 Q53 377 60.5 401.5 Q68 426 86.5 441 Q105 456 137.5 463 Q170 470 221 470 Q308 470 348.5 450.5 Q389 431 389 387 Q389 379 388.5 371 Q388 363 388 356 Q387 348 387 340 L317 340 L313 377 Q311 388 306.5 395.5 Q302 403 291.5 407.5 Q281 412 264 414 Q247 416 221 416 Q191 416 172 412 Q153 408 143 399 Q133 390 129.5 376 Q126 362 126 341 Q126 305 138.5 288.5 Q151 272 181 270 L269 263 Q309 260 335 253.5 Q361 247 376.5 232.5 Q392 218 398.5 194 Q405 170 405 133 Z " />
<glyph glyph-name="t" unicode="t" horiz-adv-x="300" d="M262 0 Q258 -1 250 -2 Q243 -3 232.5 -3.5 Q222 -4 208 -4 Q144 -4 109.5 24 Q75 52 75 126 L75 409 L19 409 L19 465 L75 465 L75 578 L147 578 L147 465 L269 465 L253 409 L147 409 L147 145 Q147 116 150 98 Q153 80 162 69.5 Q171 59 187 55 Q203 51 229 51 L262 51 L262 0 Z " />
<glyph glyph-name="u" unicode="u" horiz-adv-x="471" d="M409 27 Q368 13 322 3 Q276 -7 227 -7 Q180 -7 147.5 3 Q115 13 95 36 Q75 59 66 95.5 Q57 132 57 186 L57 465 L129 465 L129 171 Q129 101 157 74 Q185 47 246 47 Q269 47 291.5 50 Q314 53 337 61 L337 465 L409 465 L409 27 Z " />
<glyph glyph-name="v" unicode="v" horiz-adv-x="418" d="M150 0 L6 465 L83 465 L203 55 L216 55 L335 465 L412 465 L268 0 L150 0 Z " />
<glyph glyph-name="w" unicode="w" horiz-adv-x="638" d="M521 0 L408 0 L322 415 L318 415 L226 0 L115 0 L7 465 L82 465 L170 55 L173 55 L264 465 L376 465 L464 55 L467 55 L556 465 L631 465 L521 0 Z " />
<glyph glyph-name="x" unicode="x" horiz-adv-x="397" d="M313 0 L200 199 L196 199 L82 0 L2 0 L150 246 L21 465 L101 465 L200 283 L204 283 L301 465 L381 465 L250 240 L395 0 L313 0 Z " />
<glyph glyph-name="y" unicode="y" horiz-adv-x="419" d="M240 -129 Q229 -168 208.5 -184 Q188 -200 146 -200 Q131 -200 116 -199 Q101 -198 87 -196 L87 -135 L120 -135 Q136 -135 146.5 -132 Q157 -129 164 -122.5 Q171 -116 176 -105.5 Q181 -95 186 -80 L210 0 L142 0 L6 465 L84 465 L197 51 L222 51 L335 465 L413 465 L240 -129 Z " />
<glyph glyph-name="z" unicode="z" horiz-adv-x="404" d="M356 0 L36 0 L36 79 L281 395 L281 409 L109 409 L109 364 L50 364 L50 465 L354 465 L354 387 L113 78 L113 57 L380 57 L356 0 Z " />
<glyph glyph-name="braceleft" unicode="&#x7b;" horiz-adv-x="260" d="M223 670 L223 611 Q197 611 181.5 605 Q166 599 157.5 585 Q149 571 146 549 Q143 527 143 494 L143 356 Q143 327 140 307.5 Q137 288 131 274.5 Q125 261 115.5 252 Q106 243 93 235 Q106 227 115.5 218 Q125 209 131 195.5 Q137 182 140 162.5 Q143 143 143 115 L143 -49 Q143 -67 146.5 -83.5 Q150 -100 159 -112.5 Q168 -125 183.5 -133 Q199 -141 223 -141 L223 -200 L206 -200 Q167 -200 141 -191 Q115 -182 100 -161.5 Q85 -141 78.5 -107.5 Q72 -74 72 -25 L72 112 Q72 154 61.5 179 Q51 204 26 216 L26 254 Q51 266 61.5 291.5 Q72 317 72 359 L72 495 Q72 544 78.5 577.5 Q85 611 100 631.5 Q115 652 141 661 Q167 670 206 670 L223 670 Z " />
<glyph glyph-name="bar" unicode="&#x7c;" horiz-adv-x="197" d="M63 -175 L63 665 L129 665 L129 -175 L63 -175 Z " />
<glyph glyph-name="braceright" unicode="&#x7d;" horiz-adv-x="260" d="M54 671 Q93 671 119 662.5 Q145 654 160 635.5 Q175 617 181.5 588.5 Q188 560 188 521 L188 359 Q188 317 198 291.5 Q208 266 234 254 L234 216 Q208 204 198 178.5 Q188 153 188 111 L188 -26 Q188 -75 181.5 -108.5 Q175 -142 160 -162.5 Q145 -183 119 -192 Q93 -201 54 -201 L37 -201 L37 -142 Q61 -142 76.5 -136.5 Q92 -131 100.5 -117.5 Q109 -104 112.5 -81.5 Q116 -59 116 -26 L116 114 Q116 142 118.5 162 Q121 182 127 195.5 Q133 209 142.5 218 Q152 227 166 235 Q152 243 142.5 252 Q133 261 127 274.5 Q121 288 118.5 307.5 Q116 327 116 356 L116 521 Q116 539 113 555.5 Q110 572 101 584.5 Q92 597 76.5 605 Q61 613 37 613 L37 671 L54 671 Z " />
<glyph glyph-name="asciitilde" unicode="&#x7e;" horiz-adv-x="461" d="M224 586 Q200 598 184 602 Q168 606 152 606 Q135 606 117.5 593.5 Q100 581 80 552 L28 578 Q53 620 82 644.5 Q111 669 149 669 Q162 669 177.5 667 Q193 665 218 654 Q239 646 253 640 Q267 634 277.5 630 Q288 626 297 624.5 Q306 623 317 623 Q335 623 353 634 Q371 645 390 674 L442 644 Q417 599 386.5 579.5 Q356 560 321 560 Q305 560 283.5 563.5 Q262 567 224 586 Z " />
<glyph glyph-name="dagger" unicode="&#x2020;" horiz-adv-x="383" d="M153 403 L30 403 L30 465 L153 465 L153 665 L221 665 L221 465 L342 465 L342 403 L221 403 L221 -198 L153 -198 L153 403 Z " />
<glyph glyph-name="degree" unicode="&#xb0;" horiz-adv-x="323" d="M163 673 Q189 673 212 664.5 Q235 656 252.5 641 Q270 626 280 605.5 Q290 585 290 562 Q290 538 280 518 Q270 498 252.5 483 Q235 468 211.5 459.5 Q188 451 161 451 Q134 451 110.5 459.5 Q87 468 69.5 483 Q52 498 42 518 Q32 538 32 562 Q32 585 42 605.5 Q52 626 70 641 Q88 656 112 664.5 Q136 673 163 673 Z M161 622 Q133 622 115 604.5 Q97 587 97 562 Q97 536 115 519 Q133 502 161 502 Q188 502 207.5 519 Q227 536 227 562 Q227 587 207.5 604.5 Q188 622 161 622 Z " />
<glyph glyph-name="sterling" unicode="&#xa3;" horiz-adv-x="590" d="M203 305 L203 178 Q203 153 201.5 135.5 Q200 118 196.5 104.5 Q193 91 186 80 Q179 69 168 58 L520 58 L520 0 L69 0 L69 54 Q85 59 95 69 Q105 79 111 96.5 Q117 114 119 140.5 Q121 167 121 205 L121 305 L45 305 L45 367 L121 367 L121 508 Q121 545 130 575 Q139 605 163 626.5 Q187 648 228.5 659.5 Q270 671 335 671 Q391 671 428.5 664 Q466 657 488.5 643 Q511 629 520.5 607.5 Q530 586 530 558 Q530 546 529.5 534.5 Q529 523 529 514 Q528 503 528 494 L452 494 Q452 530 448 552.5 Q444 575 431.5 588 Q419 601 395.5 605.5 Q372 610 333 610 Q259 610 231 586.5 Q203 563 203 508 L203 367 L369 367 L351 305 L203 305 Z " />
<glyph glyph-name="section" unicode="&#xa7;" horiz-adv-x="588" d="M488 -53 Q488 -94 480.5 -122 Q473 -150 452.5 -167 Q432 -184 395.5 -192 Q359 -200 300 -200 Q243 -200 207.5 -194.5 Q172 -189 151.5 -178 Q131 -167 123.5 -151 Q116 -135 116 -115 Q116 -100 119 -86 Q120 -79 122 -71 L199 -71 L201 -97 Q203 -120 224 -128.5 Q245 -137 300 -137 Q335 -137 356.5 -133 Q378 -129 390 -119.5 Q402 -110 406 -94 Q410 -78 410 -53 Q410 -27 403 -8.5 Q396 10 381.5 23.5 Q367 37 346.5 47.5 Q326 58 299 69 L233 96 Q195 112 169.5 126 Q144 140 128.5 157 Q113 174 106.5 196 Q100 218 100 251 Q100 302 121 331 Q142 360 191 377 Q146 400 124 434.5 Q102 469 102 523 Q102 564 109.5 592 Q117 620 137.5 637.5 Q158 655 194.5 663 Q231 671 290 671 Q346 671 382 665 Q418 659 438.5 648 Q459 637 466.5 621 Q474 605 474 585 Q474 577 473 569.5 Q472 562 470 556 Q468 549 467 542 L391 542 L389 571 Q388 593 365 600.5 Q342 608 288 608 Q253 608 231.5 604 Q210 600 198.5 590 Q187 580 183 564 Q179 548 179 523 Q179 497 186 479 Q193 461 207 447.5 Q221 434 242 423.5 Q263 413 291 401 L357 374 Q394 359 419.5 345 Q445 331 460.5 314 Q476 297 482.5 274.5 Q489 252 489 219 Q489 168 467.5 139 Q446 110 397 93 Q444 70 466 35.5 Q488 1 488 -53 Z M241 345 Q207 330 194 309 Q181 288 181 251 Q181 231 185.5 216.5 Q190 202 201 191 Q212 180 230 170.5 Q248 161 276 151 L349 125 Q381 140 394.5 161 Q408 182 408 219 Q408 241 403 255.5 Q398 270 387 281 Q376 292 358 300.5 Q340 309 315 318 L241 345 Z " />
<glyph glyph-name="bullet" unicode="&#x2022;" horiz-adv-x="362" d="M291 338 Q291 315 282.5 295 Q274 275 259 260 Q244 245 224.5 236 Q205 227 183 227 Q160 227 139.5 235.5 Q119 244 104 259 Q89 274 80 294.5 Q71 315 71 338 Q71 361 80 381 Q89 401 104 416 Q119 431 139.5 439.5 Q160 448 183 448 Q206 448 226 439.5 Q246 431 260.5 416 Q275 401 283 381 Q291 361 291 338 Z " />
<glyph glyph-name="paragraph" unicode="&#xb6;" horiz-adv-x="523" d="M380 -196 L380 604 L316 604 L316 -196 L250 -196 L250 281 L168 281 Q133 281 108 289 Q83 297 66 318 Q49 339 41 375.5 Q33 412 33 469 Q33 533 42 571.5 Q51 610 69.5 631 Q88 652 117 658.5 Q146 665 185 665 L447 665 L447 -196 L380 -196 Z " />
<glyph glyph-name="germandbls" unicode="&#xdf;" horiz-adv-x="485" d="M431 199 Q431 135 420 95 Q409 55 389.5 32 Q370 9 342.5 0.5 Q315 -8 281 -8 Q263 -8 244 -6.5 Q225 -5 205 -1 L205 51 Q215 50 224 49 Q232 48 239 47.5 Q246 47 250 47 Q274 47 293.5 52 Q313 57 327.5 73.5 Q342 90 349.5 120.5 Q357 151 357 202 Q357 256 351 289 Q345 322 331 341 Q317 360 293.5 366.5 Q270 373 235 373 L205 373 L205 431 L226 431 Q256 431 276 434.5 Q296 438 308 448.5 Q320 459 325 478.5 Q330 498 330 530 Q330 583 308 604.5 Q286 626 231 626 Q204 626 185 621 Q166 616 154 602 Q142 588 137 564 Q132 540 132 503 L132 0 L60 0 L60 508 Q60 557 69 590.5 Q78 624 98.5 644 Q119 664 151.5 673 Q184 682 231 682 Q268 682 300 675 Q332 668 355 651 Q378 634 391 606 Q404 578 404 537 Q404 484 391.5 446 Q379 408 343 403 L343 402 Q372 397 389.5 381.5 Q407 366 416 340.5 Q425 315 428 279.5 Q431 244 431 199 Z " />
<glyph glyph-name="registered" unicode="&#xae;" horiz-adv-x="794" d="M737 333 Q737 263 710 201 Q683 139 637 93 Q591 47 529 20 Q467 -7 397 -7 Q327 -7 265 20 Q203 47 157 93 Q111 139 84.5 201 Q58 263 58 333 Q58 403 84.5 465 Q111 527 157 573 Q203 619 265 645.5 Q327 672 397 672 Q467 672 529 645.5 Q591 619 637 573 Q683 527 710 465 Q737 403 737 333 Z M700 333 Q700 396 676 451 Q652 506 611 547 Q570 588 515 611.5 Q460 635 397 635 Q334 635 279 611.5 Q224 588 183 547 Q142 506 118.5 451 Q95 396 95 333 Q95 270 118.5 215 Q142 160 183 119 Q224 78 279 54 Q334 30 397 30 Q460 30 515 54 Q570 78 611 119 Q652 160 676 215 Q700 270 700 333 Z M506 147 L366 297 L295 297 L295 147 L245 147 L245 525 L388 525 Q423 525 452.5 520.5 Q482 516 503.5 503.5 Q525 491 537 468.5 Q549 446 549 409 Q549 357 520 328 Q491 299 428 298 L574 147 L506 147 Z M498 409 Q498 436 489.5 450.5 Q481 465 466.5 472.5 Q452 480 432.5 481.5 Q413 483 391 483 L295 483 L295 338 L390 338 Q448 338 473 352.5 Q498 367 498 409 Z " />
<glyph glyph-name="copyright" unicode="&#xa9;" horiz-adv-x="794" d="M737 333 Q737 263 710 201 Q683 139 637 93 Q591 47 529 20 Q467 -7 397 -7 Q327 -7 265 20 Q203 47 157 93 Q111 139 84.5 201 Q58 263 58 333 Q58 403 84.5 465 Q111 527 157 573 Q203 619 265 645.5 Q327 672 397 672 Q467 672 529 645.5 Q591 619 637 573 Q683 527 710 465 Q737 403 737 333 Z M700 333 Q700 396 676 451 Q652 506 611 547 Q570 588 515 611.5 Q460 635 397 635 Q334 635 279 611.5 Q224 588 183 547 Q142 506 118.5 451 Q95 396 95 333 Q95 270 118.5 215 Q142 160 183 119 Q224 78 279 54 Q334 30 397 30 Q460 30 515 54 Q570 78 611 119 Q652 160 676 215 Q700 270 700 333 Z M550 277 Q550 237 543 211 Q536 185 518.5 170 Q501 155 470.5 149 Q440 143 394 143 Q348 143 317 153 Q286 163 267 185.5 Q248 208 239.5 245 Q231 282 231 336 Q231 392 239 429.5 Q247 467 266 489 Q285 511 315.5 520 Q346 529 390 529 Q438 529 468 524 Q498 519 515.5 505.5 Q533 492 539 468 Q545 444 545 405 L495 405 Q495 433 490.5 449 Q486 465 474.5 473.5 Q463 482 443.5 484.5 Q424 487 395 487 Q359 487 337 481.5 Q315 476 302 460.5 Q289 445 284.5 415.5 Q280 386 280 338 Q280 290 284.5 260 Q289 230 301.5 213.5 Q314 197 336.5 191 Q359 185 394 185 Q428 185 448.5 188 Q469 191 480.5 201 Q492 211 496 229 Q500 247 500 277 L550 277 Z " />
<glyph glyph-name="trademark" unicode="&#x2122;" horiz-adv-x="796" d="M338 665 L434 665 L535 362 L538 362 L639 665 L735 665 L735 287 L676 287 L676 597 L673 597 L568 287 L506 287 L398 597 L396 597 L396 287 L338 287 L338 665 Z M298 621 L198 621 L198 287 L141 287 L141 621 L27 621 L27 665 L313 665 L298 621 Z " />
<glyph glyph-name="acute" unicode="&#xb4;" horiz-adv-x="219" d="M35 544 L149 656 L191 607 L64 510 L35 544 Z " />
<glyph glyph-name="dieresis" unicode="&#xa8;" horiz-adv-x="272" d="M33 545 L33 624 L105 624 L105 545 L33 545 Z M172 545 L172 624 L244 624 L244 545 L172 545 Z " />
<glyph glyph-name="notequal" unicode="&#x2260;" horiz-adv-x="588" d="M345 374 L310 281 L537 281 L537 219 L290 219 L246 98 L183 114 L223 219 L50 219 L50 281 L242 281 L277 374 L50 374 L50 436 L296 436 L341 557 L403 541 L363 436 L537 436 L537 374 L345 374 Z " />
<glyph glyph-name="AE" unicode="&#xc6;" horiz-adv-x="876" d="M437 0 L437 144 L161 144 L92 0 L9 0 L336 665 L820 665 L820 599 L515 599 L515 373 L795 373 L769 308 L515 308 L515 66 L820 66 L820 0 L437 0 Z M188 209 L437 209 L437 599 L384 599 L188 209 Z " />
<glyph glyph-name="Oslash" unicode="&#xd8;" horiz-adv-x="598" d="M546 332 Q546 229 537.5 163.5 Q529 98 502.5 60 Q476 22 427.5 7.5 Q379 -7 299 -7 Q221 -7 172.5 7.5 Q124 22 97 60 Q70 98 61 163.5 Q52 229 52 332 Q52 437 61.5 503.5 Q71 570 97.5 607.5 Q124 645 172.5 658.5 Q221 672 299 672 Q380 672 429 657 Q478 642 504 604 Q530 566 538 500 Q546 434 546 332 Z M131 332 Q131 279 132.5 239 Q134 199 139 169 L444 545 Q427 578 393 591.5 Q359 605 299 605 Q244 605 211 594.5 Q178 584 160 554.5 Q142 525 136.5 471.5 Q131 418 131 332 Z M468 332 Q468 374 467 408.5 Q466 443 463 471 L164 103 Q182 77 214 68 Q246 59 299 59 Q357 59 390.5 70 Q424 81 441 111.5 Q458 142 463 195 Q468 248 468 332 Z " />
<glyph glyph-name="infinity" unicode="&#x221e;" horiz-adv-x="603" d="M30 281 Q30 311 40 338 Q50 365 67.5 385.5 Q85 406 109 417.5 Q133 429 162 429 Q179 429 196 425.5 Q213 422 230 412.5 Q247 403 266 385 Q285 367 307 339 Q341 388 375 409 Q409 430 445 430 Q476 430 500 418.5 Q524 407 539.5 386.5 Q555 366 563 338.5 Q571 311 571 278 Q571 246 562 219 Q553 192 536.5 171.5 Q520 151 496.5 139.5 Q473 128 444 128 Q395 128 363.5 152.5 Q332 177 298 226 Q266 183 234 155.5 Q202 128 159 128 Q129 128 105.5 139.5 Q82 151 65 171.5 Q48 192 39 220 Q30 248 30 281 Z M337 288 Q371 240 397 213 Q423 186 444 186 Q470 186 485.5 212.5 Q501 239 501 279 Q501 320 485 346 Q469 372 443 372 Q420 372 396.5 354 Q373 336 337 288 Z M265 277 Q233 320 210 346 Q187 372 163 372 Q134 372 116.5 346 Q99 320 99 281 Q99 239 115.5 212.5 Q132 186 159 186 Q173 186 185 191 Q197 196 209 207.5 Q221 219 234.5 236 Q248 253 265 277 Z " />
<glyph glyph-name="plusminus" unicode="&#xb1;" horiz-adv-x="588" d="M332 336 L332 137 L270 137 L270 336 L92 336 L92 399 L270 399 L270 597 L332 597 L332 399 L510 399 L510 336 L332 336 Z M92 0 L92 63 L511 63 L511 0 L92 0 Z " />
<glyph glyph-name="lessequal" unicode="&#x2264;" horiz-adv-x="587" d="M111 0 L111 62 L477 62 L477 0 L111 0 Z M111 346 L111 398 L476 591 L476 519 L184 372 L476 225 L476 152 L111 346 Z " />
<glyph glyph-name="greaterequal" unicode="&#x2265;" horiz-adv-x="587" d="M111 0 L111 62 L477 62 L477 0 L111 0 Z M112 152 L112 225 L403 372 L112 519 L112 591 L477 398 L477 346 L112 152 Z " />
<glyph glyph-name="yen" unicode="&#xa5;" horiz-adv-x="588" d="M256 0 L256 138 L107 138 L107 198 L256 198 L256 252 L252 262 L107 262 L107 321 L226 321 L52 665 L139 665 L294 345 L295 345 L452 665 L534 665 L359 321 L480 321 L480 262 L334 262 L330 252 L330 198 L480 198 L480 138 L330 138 L330 0 L256 0 Z " />
<glyph glyph-name="mu" unicode="&#xb5;" horiz-adv-x="471" d="M57 465 L129 465 L129 170 Q129 133 137 109 Q145 85 160 71.5 Q175 58 197 52.5 Q219 47 246 47 Q263 47 275 48 Q287 49 296.5 51 Q306 53 315.5 55 Q325 57 337 60 L337 465 L409 465 L409 27 Q368 13 323 3 Q278 -7 227 -7 Q194 -7 171.5 -2 Q149 3 129 19 L129 -196 L57 -196 L57 465 Z " />
<glyph glyph-name="partialdiff" unicode="&#x2202;" horiz-adv-x="480" d="M193 752 Q303 752 368 660 Q433 568 433 386 Q433 304 419.5 232.5 Q406 161 378.5 108.5 Q351 56 308 25.5 Q265 -5 206 -5 Q167 -5 137.5 4 Q108 13 88 35 Q68 57 57.5 93.5 Q47 130 47 185 Q47 244 65.5 294.5 Q84 345 121.5 382.5 Q159 420 216 442 Q273 464 350 465 Q340 573 297 632.5 Q254 692 193 692 Q167 692 143 683 Q119 674 98 654 L51 710 Q75 729 113 740.5 Q151 752 193 752 Z M353 404 Q244 399 183.5 341 Q123 283 123 164 Q123 145 125.5 125.5 Q128 106 136.5 90 Q145 74 161.5 64 Q178 54 206 54 Q238 54 261.5 71.5 Q285 89 301 118.5 Q317 148 327.5 185 Q338 222 343.5 261 Q349 300 351 337.5 Q353 375 353 404 Z " />
<glyph glyph-name="summation" unicode="&#x2211;" horiz-adv-x="589" d="M70 -130 L70 -64 L320 264 L85 608 L85 665 L491 665 L491 599 L176 599 L403 266 L158 -64 L524 -64 L524 -130 L70 -130 Z " />
<glyph glyph-name="product" unicode="&#x220f;" horiz-adv-x="589" d="M27 665 L562 665 L562 599 L494 599 L494 -130 L416 -130 L416 599 L173 599 L173 -130 L95 -130 L95 599 L27 599 L27 665 Z " />
<glyph glyph-name="pi" unicode="&#x3c0;" horiz-adv-x="505" d="M403 402 L403 125 Q403 78 406.5 47.5 Q410 17 416 0 L347 0 Q342 12 336.5 43 Q331 74 331 121 L331 402 L196 402 Q196 348 190.5 290 Q185 232 176.5 178 Q168 124 156 77.5 Q144 31 131 0 L64 0 Q79 35 90.5 82.5 Q102 130 110 183 Q118 236 122 291.5 Q126 347 126 400 Q95 400 76.5 398 Q58 396 49 394 L34 444 Q45 454 74 459.5 Q103 465 160 465 L469 465 L460 402 L403 402 Z " />
<glyph glyph-name="integral" unicode="&#x222b;" horiz-adv-x="379" d="M41 -71 Q49 -73 58 -74 Q67 -75 74 -75 Q116 -75 136 -38.5 Q156 -2 156 75 Q156 130 155 195.5 Q154 261 152.5 327.5 Q151 394 150 456.5 Q149 519 149 569 Q149 674 183 728 Q217 782 303 782 Q331 782 353 772 L337 717 Q329 719 320.5 720 Q312 721 305 721 Q275 721 259 705.5 Q243 690 235.5 667 Q228 644 227 618.5 Q226 593 226 574 Q226 522 227 458.5 Q228 395 229.5 328.5 Q231 262 232 197.5 Q233 133 233 81 Q233 32 226 -8 Q219 -48 201 -76.5 Q183 -105 153 -120.5 Q123 -136 77 -136 Q64 -136 49.5 -133.5 Q35 -131 26 -126 L41 -71 Z " />
<glyph glyph-name="ordfeminine" unicode="&#xaa;" horiz-adv-x="308" d="M220 394 L210 420 Q201 408 187 400 Q173 392 147 392 Q90 392 66 412 Q42 432 42 478 Q42 521 65 540.5 Q88 560 151 560 Q173 560 190 559.5 Q207 559 208 559 L208 574 Q208 590 206.5 600.5 Q205 611 199 617 Q193 623 182 625.5 Q171 628 152 628 Q124 628 117.5 619.5 Q111 611 111 587 L56 587 Q55 593 54 599 Q53 604 52.5 609.5 Q52 615 52 619 Q52 641 73.5 654.5 Q95 668 152 668 Q187 668 209 665 Q231 662 243 651 Q255 640 259.5 619 Q264 598 264 562 L264 394 L220 394 Z M208 522 L150 522 Q121 522 110 511 Q99 500 99 477 Q99 452 112 442.5 Q125 433 150 433 Q179 433 193.5 445.5 Q208 458 208 491 L208 522 Z M36 356 L272 356 L272 309 L36 309 L36 356 Z " />
<glyph glyph-name="ordmasculine" unicode="&#xba;" horiz-adv-x="308" d="M263 531 Q263 490 258.5 463.5 Q254 437 242 421 Q230 405 209 399 Q188 393 154 393 Q120 393 98.5 399 Q77 405 64.5 421 Q52 437 47.5 463.5 Q43 490 43 531 Q43 573 48 600 Q53 627 66 642 Q79 657 100 662.5 Q121 668 154 668 Q188 668 209.5 661.5 Q231 655 243 639.5 Q255 624 259 597.5 Q263 571 263 531 Z M208 531 Q208 561 206.5 579.5 Q205 598 199.5 608.5 Q194 619 183.5 623 Q173 627 154 627 Q136 627 125 624 Q114 621 108 611 Q102 601 100 582 Q98 563 98 531 Q98 500 99.5 481.5 Q101 463 107 452.5 Q113 442 124 438.5 Q135 435 154 435 Q171 435 181.5 438.5 Q192 442 198 452.5 Q204 463 206 481.5 Q208 500 208 531 Z M35 309 L35 356 L273 356 L273 309 L35 309 Z " />
<glyph glyph-name="Omega" unicode="&#x2126;" horiz-adv-x="590" d="M342 0 L342 185 Q380 188 402.5 200.5 Q425 213 436.5 238 Q448 263 451.5 301.5 Q455 340 455 395 Q455 459 450.5 500.5 Q446 542 430 566.5 Q414 591 382.5 600.5 Q351 610 297 610 Q245 610 213.5 601.5 Q182 593 165.5 569.5 Q149 546 143.5 504 Q138 462 138 395 Q138 340 142 301.5 Q146 263 158 238 Q170 213 192.5 200.5 Q215 188 252 185 L252 0 L26 0 L26 66 L186 66 L186 137 Q148 145 123.5 163.5 Q99 182 85 213 Q71 244 66 290 Q61 336 61 399 Q61 480 70.5 533 Q80 586 105.5 616.5 Q131 647 177 659 Q223 671 297 671 Q374 671 420.5 658 Q467 645 492 614 Q517 583 525 530.5 Q533 478 533 399 Q533 335 528 289 Q523 243 509 212 Q495 181 471 162.5 Q447 144 408 136 L408 66 L563 66 L563 0 L342 0 Z " />
<glyph glyph-name="ae" unicode="&#xe6;" horiz-adv-x="749" d="M701 263 Q701 246 700.5 239.5 Q700 233 700 225 L409 225 Q409 171 414 137.5 Q419 104 432 85 Q445 66 467 59 Q489 52 523 52 Q553 52 572 54.5 Q591 57 602.5 62.5 Q614 68 618.5 77 Q623 86 624 98 L627 132 L695 132 Q695 126 696 119 Q696 113 696.5 104.5 Q697 96 697 88 Q697 37 655 16.5 Q613 -4 523 -4 Q460 -4 425.5 9.5 Q391 23 375 65 L372 65 Q355 23 317.5 9 Q280 -5 214 -5 Q122 -5 82.5 28 Q43 61 43 138 Q43 174 51 200.5 Q59 227 79 245 Q99 263 132.5 271.5 Q166 280 218 280 Q270 280 301 278.5 Q332 277 337 277 L337 316 Q337 345 334 364 Q331 383 320.5 394 Q310 405 290.5 409 Q271 413 239 413 Q187 413 167 402 Q147 391 143 368 L138 338 L67 338 Q66 347 66 356 Q65 364 65 373 Q65 382 65 392 Q65 410 78 424.5 Q91 439 114 448.5 Q137 458 169.5 463.5 Q202 469 240 469 Q301 469 331.5 457.5 Q362 446 379 422 Q397 447 434 458 Q471 469 523 469 Q578 469 612.5 458.5 Q647 448 666.5 424 Q686 400 693.5 360.5 Q701 321 701 263 Z M337 225 L225 225 Q165 225 141.5 205 Q118 185 118 139 Q118 88 144 70 Q170 52 225 52 Q284 52 310.5 75.5 Q337 99 337 162 L337 225 Z M634 277 Q634 354 609 383.5 Q584 413 523 413 Q466 413 437.5 392 Q409 371 409 313 L409 277 L634 277 Z " />
<glyph glyph-name="oslash" unicode="&#xf8;" horiz-adv-x="462" d="M228 469 Q285 469 321 459.5 Q357 450 377.5 424 Q398 398 406 352 Q414 306 414 232 Q414 158 406 112 Q398 66 377.5 40 Q357 14 321 5 Q285 -4 228 -4 Q172 -4 137 5.5 Q102 15 82 41 Q62 67 55 113 Q48 159 48 233 Q48 307 55 353 Q62 399 82 425 Q102 451 137 460 Q172 469 228 469 Z M230 52 Q265 52 286.5 58 Q308 64 320 83 Q332 102 336 137.5 Q340 173 340 232 Q340 285 337 321 L140 84 Q151 64 173 58 Q195 52 230 52 Z M121 233 Q121 206 121.5 184 Q122 162 124 145 L321 380 Q309 400 287 406.5 Q265 413 230 413 Q195 413 174 407 Q153 401 141 382.5 Q129 364 125 328.5 Q121 293 121 233 Z " />
<glyph glyph-name="questiondown" unicode="&#xbf;" horiz-adv-x="458" d="M38 -31 Q38 14 41.5 44 Q45 74 55.5 95 Q66 116 86.5 130 Q107 144 141 158 Q169 169 184.5 179.5 Q200 190 207.5 203 Q215 216 217 232 Q219 248 219 270 L299 270 Q299 264 298.5 252 Q298 240 298 227 Q298 211 293 196.5 Q288 182 276 168.5 Q264 155 243 142 Q222 129 190 114 Q164 102 149 91.5 Q134 81 126 66 Q118 51 115.5 28 Q113 5 113 -31 Q113 -67 119 -89 Q125 -111 139 -123 Q153 -135 175.5 -139 Q198 -143 232 -143 Q265 -143 286 -139.5 Q307 -136 319 -128 Q331 -120 336 -107.5 Q341 -95 342 -77 L345 -39 L417 -39 Q419 -59 420.5 -70 Q422 -81 422 -91 Q422 -118 413.5 -138.5 Q405 -159 383.5 -173 Q362 -187 324 -194 Q286 -201 227 -201 Q174 -201 137.5 -194 Q101 -187 79 -168 Q57 -149 47.5 -116 Q38 -83 38 -31 Z M299 466 L299 386 L218 386 L218 466 L299 466 Z " />
<glyph glyph-name="exclamdown" unicode="&#xa1;" horiz-adv-x="230" d="M155 0 L70 0 L76 472 L147 472 L155 0 Z M152 665 L152 585 L70 585 L70 665 L152 665 Z " />
<glyph glyph-name="logicalnot" unicode="&#xac;" horiz-adv-x="589" d="M471 224 L471 375 L51 375 L51 437 L538 437 L538 224 L471 224 Z " />
<glyph glyph-name="radical" unicode="&#x221a;" horiz-adv-x="519" d="M354 -104 L293 -104 L127 311 L51 288 L28 343 L179 392 L315 29 L317 29 L438 819 L498 819 L354 -104 Z " />
<glyph glyph-name="florin" unicode="&#x192;" horiz-adv-x="589" d="M54 -58 Q67 -61 82.5 -63 Q98 -65 118 -65 Q137 -65 150 -57.5 Q163 -50 171 -38.5 Q179 -27 183.5 -12.5 Q188 2 190 16 L246 409 L137 409 L137 465 L251 465 L271 607 Q280 672 312 706.5 Q344 741 419 741 Q451 741 469.5 737 Q488 733 492 731 L478 665 Q454 674 415 674 Q380 674 363.5 651.5 Q347 629 343 601 L324 465 L461 465 L444 409 L318 409 L265 20 Q260 -15 252 -43.5 Q244 -72 227.5 -92.5 Q211 -113 184 -124 Q157 -135 114 -135 Q82 -135 64 -130.5 Q46 -126 41 -124 L54 -58 Z " />
<glyph glyph-name="approxequal" unicode="&#x2248;" horiz-adv-x="499" d="M43 225 Q68 261 99 280.5 Q130 300 167 300 Q190 300 212.5 293 Q235 286 257 278 Q279 270 299 263 Q319 256 337 256 Q355 256 374.5 266 Q394 276 414 303 L460 264 Q412 192 332 192 Q306 192 285.5 199 Q265 206 246.5 214.5 Q228 223 209 230 Q190 237 167 237 Q149 237 129.5 226 Q110 215 90 187 L43 225 Z M43 376 Q68 413 99 432.5 Q130 452 167 452 Q190 452 212.5 445 Q235 438 257 430 Q279 422 299 415 Q319 408 337 408 Q355 408 374.5 418 Q394 428 414 455 L460 416 Q412 344 332 344 Q306 344 285.5 351 Q265 358 246.5 366 Q228 374 209 381 Q190 388 167 388 Q149 388 129.5 377 Q110 366 90 339 L43 376 Z " />
<glyph glyph-name="Delta" unicode="&#x2206;" horiz-adv-x="588" d="M28 0 L293 700 L560 0 L28 0 Z M294 499 L129 66 L459 66 L294 499 Z " />
<glyph glyph-name="guillemotleft" unicode="&#xab;" horiz-adv-x="366" d="M143 9 L38 256 L132 501 L190 484 L108 256 L203 25 L143 9 Z M281 9 L179 256 L273 501 L334 484 L249 256 L343 25 L281 9 Z " />
<glyph glyph-name="guillemotright" unicode="&#xbb;" horiz-adv-x="364" d="M160 25 L255 256 L173 484 L232 501 L325 256 L220 9 L160 25 Z M20 25 L114 256 L29 484 L90 501 L184 256 L82 9 L20 25 Z " />
<glyph glyph-name="ellipsis" unicode="&#x2026;" horiz-adv-x="602" d="M47 0 L47 82 L135 82 L135 0 L47 0 Z M257 0 L257 82 L345 82 L345 0 L257 0 Z M467 0 L467 82 L555 82 L555 0 L467 0 Z " />
<glyph glyph-name="OE" unicode="&#x152;" horiz-adv-x="891" d="M445 0 L445 34 Q425 12 389 2.5 Q353 -7 299 -7 Q221 -7 172.5 7.5 Q124 22 97 60 Q70 98 61 163.5 Q52 229 52 332 Q52 437 61.5 503.5 Q71 570 97.5 607 Q124 644 172.5 657.5 Q221 671 299 671 Q353 671 388.5 662 Q424 653 445 629 L445 665 L829 665 L829 603 L522 603 L522 372 L804 372 L770 310 L522 310 L522 60 L829 60 L829 0 L445 0 Z M445 332 Q445 423 440.5 477.5 Q436 532 421 561.5 Q406 591 377 600.5 Q348 610 299 610 Q244 610 211 599.5 Q178 589 160 559 Q142 529 136.5 474.5 Q131 420 131 332 Q131 248 136 194 Q141 140 158.5 109 Q176 78 209.5 66 Q243 54 299 54 Q347 54 376 63 Q405 72 420.5 101 Q436 130 440.5 185 Q445 240 445 332 Z " />
<glyph glyph-name="oe" unicode="&#x153;" horiz-adv-x="765" d="M237 469 Q295 469 330 456.5 Q365 444 379 407 Q393 444 429.5 456.5 Q466 469 529 469 Q587 469 623.5 459.5 Q660 450 681 425 Q702 400 709.5 358 Q717 316 717 252 Q717 246 716.5 239.5 Q716 233 716 225 L417 225 Q417 171 421 137 Q425 103 437.5 84 Q450 65 473 58.5 Q496 52 533 52 Q568 52 588 55 Q608 58 617.5 66.5 Q627 75 629.5 90.5 Q632 106 632 132 L707 132 Q707 125 708 117 Q708 110 708.5 101.5 Q709 93 709 85 Q709 33 666 14.5 Q623 -4 529 -4 Q466 -4 429.5 8.5 Q393 21 379 57 Q365 22 329.5 9 Q294 -4 237 -4 Q178 -4 140.5 5.5 Q103 15 82 41 Q61 67 53.5 113 Q46 159 46 233 Q46 307 53.5 353 Q61 399 82 425 Q103 451 140.5 460 Q178 469 237 469 Z M231 52 Q267 52 289 58 Q311 64 322.5 83 Q334 102 338 137.5 Q342 173 342 232 Q342 291 338 326.5 Q334 362 322.5 381.5 Q311 401 289 407 Q267 413 231 413 Q196 413 174 407 Q152 401 140 382.5 Q128 364 123.5 328.5 Q119 293 119 233 Q119 174 123 138 Q127 102 139 83 Q151 64 173 58 Q195 52 231 52 Z M641 277 Q641 319 636.5 345.5 Q632 372 620 387 Q608 402 587 407.5 Q566 413 534 413 Q496 413 473.5 407.5 Q451 402 439 387 Q427 372 423 345.5 Q419 319 418 277 L641 277 Z " />
<glyph glyph-name="endash" unicode="&#x2013;" horiz-adv-x="640" d="M51 212 L51 274 L589 274 L589 212 L51 212 Z " />
<glyph glyph-name="emdash" unicode="&#x2014;" horiz-adv-x="1280" d="M51 212 L51 274 L1229 274 L1229 212 L51 212 Z " />
<glyph glyph-name="quotedblleft" unicode="&#x201c;" horiz-adv-x="288" d="M79 665 L125 665 L86 556 L123 556 L123 474 L39 474 L39 556 L79 665 Z M205 665 L254 665 L212 556 L249 556 L249 474 L165 474 L165 556 L205 665 Z " />
<glyph glyph-name="quotedblright" unicode="&#x201d;" horiz-adv-x="290" d="M77 473 L29 473 L72 582 L34 582 L34 665 L119 665 L119 582 L77 473 Z M207 473 L158 473 L198 582 L162 582 L162 665 L246 665 L246 582 L207 473 Z " />
<glyph glyph-name="quoteleft" unicode="&#x2018;" horiz-adv-x="155" d="M73 665 L120 665 L80 556 L118 556 L118 474 L30 474 L30 556 L73 665 Z " />
<glyph glyph-name="quoteright" unicode="&#x2019;" horiz-adv-x="152" d="M76 473 L27 473 L70 582 L29 582 L29 665 L117 665 L117 582 L76 473 Z " />
<glyph glyph-name="divide" unicode="&#xf7;" horiz-adv-x="651" d="M283 482 L283 575 L367 575 L367 482 L283 482 Z M116 301 L116 364 L534 364 L534 301 L116 301 Z M283 90 L283 183 L367 183 L367 90 L283 90 Z " />
<glyph glyph-name="lozenge" unicode="&#x25ca;" horiz-adv-x="444" d="M248 0 L192 0 L39 376 L195 739 L256 739 L405 373 L248 0 Z M224 611 L116 376 L220 130 L331 373 L224 611 Z " />
<glyph glyph-name="fraction" unicode="&#x2044;" horiz-adv-x="478" d="M72 0 L4 0 L403 665 L474 665 L72 0 Z " />
<glyph glyph-name="currency" unicode="&#xa4;" horiz-adv-x="601" d="M191 253 Q193 187 201.5 147.5 Q210 108 227.5 87.5 Q245 67 273 60.5 Q301 54 342 54 Q376 54 398.5 58.5 Q421 63 435 71.5 Q449 80 455 91.5 Q461 103 462 118 L464 183 L539 183 Q540 165 540 155.5 Q540 146 540 133 Q540 92 529 65.5 Q518 39 494 23 Q470 7 432.5 0.5 Q395 -6 342 -6 Q279 -6 236.5 4.5 Q194 15 167.5 43.5 Q141 72 128 122.5 Q115 173 112 253 L29 253 L46 307 L111 307 L111 365 L29 365 L46 420 L113 420 Q116 500 129 549.5 Q142 599 168.5 626 Q195 653 237 662.5 Q279 672 341 672 Q401 672 440 664.5 Q479 657 501.5 641.5 Q524 626 532.5 603 Q541 580 541 550 Q541 528 539.5 508.5 Q538 489 538 483 L463 483 Q463 521 459 545.5 Q455 570 441.5 584.5 Q428 599 403.5 605 Q379 611 337 611 Q298 611 271.5 604 Q245 597 228 577 Q211 557 202.5 519 Q194 481 191 420 L463 420 L445 365 L190 365 L190 307 L422 307 L403 253 L191 253 Z " />
<glyph glyph-name="guilsinglleft" unicode="&#x2039;" horiz-adv-x="222" d="M132 9 L28 256 L122 501 L180 484 L98 256 L193 25 L132 9 Z " />
<glyph glyph-name="guilsinglright" unicode="&#x203a;" horiz-adv-x="221" d="M27 25 L122 256 L39 484 L99 501 L192 256 L87 9 L27 25 Z " />
<glyph glyph-name="fi" unicode="&#xfb01;" horiz-adv-x="433" d="M296 0 L296 465 L368 465 L368 0 L296 0 Z M296 530 L296 609 L368 609 L368 530 L296 530 Z M253 409 L150 409 L150 0 L78 0 L78 409 L15 409 L15 465 L78 465 L78 544 Q78 580 89 604 Q100 628 117.5 642 Q135 656 157 662.5 Q179 669 202 669 Q227 669 247 668 Q267 667 272 666 L272 611 L257 611 Q250 611 240.5 611.5 Q231 612 221 612 Q179 612 165 595 Q151 578 151 546 L151 465 L270 465 L253 409 Z " />
<glyph glyph-name="fl" unicode="&#xfb02;" horiz-adv-x="431" d="M295 0 L295 665 L367 665 L367 0 L295 0 Z M253 409 L150 409 L150 0 L78 0 L78 409 L15 409 L15 465 L78 465 L78 544 Q78 580 89 604 Q100 628 117.5 642 Q135 656 157 662.5 Q179 669 202 669 Q227 669 247 668 Q267 667 272 666 L272 611 L257 611 Q250 611 240.5 611.5 Q231 612 221 612 Q179 612 165 595 Q151 578 151 546 L151 465 L270 465 L253 409 Z " />
<glyph glyph-name="daggerdbl" unicode="&#x2021;" horiz-adv-x="383" d="M30 62 L153 62 L153 403 L30 403 L30 465 L153 465 L153 665 L221 665 L221 465 L342 465 L342 403 L221 403 L221 62 L342 62 L342 0 L221 0 L221 -198 L153 -198 L153 0 L30 0 L30 62 Z " />
<glyph glyph-name="periodcentered" unicode="&#xb7;" horiz-adv-x="259" d="M85 288 L85 370 L173 370 L173 288 L85 288 Z " />
<glyph glyph-name="quotesinglbase" unicode="&#x201a;" horiz-adv-x="153" d="M77 -109 L28 -109 L69 0 L32 0 L32 82 L119 82 L119 0 L77 -109 Z " />
<glyph glyph-name="quotedblbase" unicode="&#x201e;" horiz-adv-x="290" d="M80 -109 L31 -109 L72 0 L35 0 L35 82 L119 82 L119 0 L80 -109 Z M207 -109 L159 -109 L200 0 L162 0 L162 82 L246 82 L246 0 L207 -109 Z " />
<glyph glyph-name="perthousand" unicode="&#x2030;" horiz-adv-x="1100" d="M226 0 L158 0 L557 665 L628 665 L226 0 Z M317 509 Q317 460 312.5 429 Q308 398 293.5 380 Q279 362 252.5 355.5 Q226 349 182 349 Q139 349 113 355.5 Q87 362 72.5 380 Q58 398 53 429 Q48 460 48 509 Q48 558 53.5 589.5 Q59 621 74 638.5 Q89 656 116 662.5 Q143 669 185 669 Q228 669 254.5 662 Q281 655 294.5 637 Q308 619 312.5 588 Q317 557 317 509 Z M253 509 Q253 542 251.5 564.5 Q250 587 243.5 601 Q237 615 223 621 Q209 627 185 627 Q162 627 147.5 622 Q133 617 125 603.5 Q117 590 114 567 Q111 544 111 509 Q111 475 113.5 452.5 Q116 430 123.5 416.5 Q131 403 145 397.5 Q159 392 182 392 Q206 392 220 397.5 Q234 403 241.5 416.5 Q249 430 251 452.5 Q253 475 253 509 Z M734 157 Q734 108 729 77 Q724 46 709.5 28 Q695 10 668.5 3 Q642 -4 599 -4 Q555 -4 529 3 Q503 10 489 28 Q475 46 471 77 Q467 108 467 157 Q467 206 472 237.5 Q477 269 491.5 286 Q506 303 531.5 309.5 Q557 316 599 316 Q644 316 670.5 309 Q697 302 711 284.5 Q725 267 729.5 236 Q734 205 734 157 Z M668 157 Q668 190 666.5 212 Q665 234 658.5 248 Q652 262 638 268 Q624 274 599 274 Q577 274 563.5 269 Q550 264 542 250.5 Q534 237 531 214.5 Q528 192 528 157 Q528 123 530 100 Q532 77 539 63.5 Q546 50 560.5 44.5 Q575 39 599 39 Q623 39 637 45 Q651 51 657.5 64.5 Q664 78 666 100.5 Q668 123 668 157 Z M1051 157 Q1051 108 1046 77 Q1041 46 1027 28 Q1013 10 986.5 3 Q960 -4 917 -4 Q873 -4 847 3 Q821 10 807 28 Q793 46 788.5 77 Q784 108 784 157 Q784 206 789 237.5 Q794 269 808.5 286 Q823 303 849 309.5 Q875 316 917 316 Q962 316 988.5 309 Q1015 302 1029 284.5 Q1043 267 1047 236 Q1051 205 1051 157 Z M987 157 Q987 190 985.5 212 Q984 234 977 248 Q970 262 956 268 Q942 274 917 274 Q895 274 881.5 269 Q868 264 860 250.5 Q852 237 849 214.5 Q846 192 846 157 Q846 123 848 100 Q850 77 857 63.5 Q864 50 878.5 44.5 Q893 39 917 39 Q941 39 955 45 Q969 51 976 64.5 Q983 78 985 100.5 Q987 123 987 157 Z " />
<glyph glyph-name="dotlessi" unicode="&#x131;" horiz-adv-x="233" d="M95 0 L95 409 L7 409 L7 465 L167 465 L167 0 L95 0 Z " />
<glyph glyph-name="circumflex" unicode="&#x2c6;" horiz-adv-x="301" d="M241 719 L151 785 L60 719 L33 753 L151 855 L270 753 L241 719 Z " />
<glyph glyph-name="tilde" unicode="&#x2dc;" horiz-adv-x="293" d="M100 633 Q114 633 129.5 626.5 Q145 620 158.5 612 Q172 604 182 597.5 Q192 591 195 591 Q203 591 209.5 596.5 Q216 602 224 623 L265 607 Q253 572 234.5 551.5 Q216 531 193 531 Q179 531 164 537.5 Q149 544 136 552 Q123 560 113 566.5 Q103 573 99 573 Q91 573 84.5 568 Q78 563 70 541 L28 557 Q40 592 58.5 612.5 Q77 633 100 633 Z " />
<glyph glyph-name="macron" unicode="&#xaf;" horiz-adv-x="277" d="M30 547 L30 600 L240 600 L240 547 L30 547 Z " />
<glyph glyph-name="breve" unicode="&#x2d8;" horiz-adv-x="304" d="M78 635 Q80 609 100 593.5 Q120 578 151 578 Q186 578 206 593.5 Q226 609 228 635 L271 635 Q273 589 241 560 Q209 531 152 531 Q92 531 62 561 Q32 591 34 635 L78 635 Z " />
<glyph glyph-name="dotaccent" unicode="&#x2d9;" horiz-adv-x="258" d="M94 540 L94 619 L166 619 L166 540 L94 540 Z " />
<glyph glyph-name="ring" unicode="&#x2da;" horiz-adv-x="250" d="M204 579 Q204 543 180.5 522.5 Q157 502 125 502 Q93 502 70 522.5 Q47 543 47 579 Q47 615 70 635.5 Q93 656 125 656 Q157 656 180.5 635.5 Q204 615 204 579 Z M169 579 Q169 600 156.5 611.5 Q144 623 125 623 Q106 623 94 611.5 Q82 600 82 579 Q82 559 94 547.5 Q106 536 125 536 Q144 536 156.5 547.5 Q169 559 169 579 Z " />
<glyph glyph-name="cedilla" unicode="&#xb8;" horiz-adv-x="213" d="M157 5 L122 -51 Q155 -51 177 -66 Q199 -81 199 -122 Q199 -167 175.5 -183.5 Q152 -200 94 -200 Q71 -200 49.5 -195 Q28 -190 11 -182 L32 -142 Q52 -150 64.5 -153.5 Q77 -157 93 -157 Q119 -157 128 -147 Q137 -137 137 -119 Q137 -100 128 -90.5 Q119 -81 93 -81 L54 -81 L101 5 L157 5 Z " />
<glyph glyph-name="hungarumlaut" unicode="&#x2dd;" horiz-adv-x="337" d="M40 533 L120 664 L180 636 L82 513 L40 533 Z M165 535 L250 664 L309 634 L208 514 L165 535 Z " />
<glyph glyph-name="ogonek" unicode="&#x2db;" horiz-adv-x="214" d="M147 4 Q138 -5 126.5 -18 Q115 -31 105 -45 Q95 -59 88 -73.5 Q81 -88 81 -101 Q81 -124 98 -136 Q115 -148 135 -148 Q151 -148 164.5 -145.5 Q178 -143 191 -138 L202 -178 Q185 -189 161.5 -194 Q138 -199 117 -199 Q75 -199 46.5 -178.5 Q18 -158 18 -120 Q18 -84 39.5 -51.5 Q61 -19 90 4 L147 4 Z " />
<glyph glyph-name="caron" unicode="&#x2c7;" horiz-adv-x="296" d="M29 607 L58 641 L148 575 L239 641 L266 607 L155 511 L141 511 L29 607 Z " />
<glyph glyph-name="Euro" unicode="&#x20ac;" horiz-adv-x="600" d="M191 253 Q193 187 201.5 147.5 Q210 108 227.5 87.5 Q245 67 273 60.5 Q301 54 342 54 Q376 54 398.5 58.5 Q421 63 435 71.5 Q449 80 455 91.5 Q461 103 462 118 L464 183 L539 183 Q540 162 541 148 Q542 134 542 114 Q542 48 494.5 21 Q447 -6 342 -6 Q279 -6 236.5 4.5 Q194 15 167 43.5 Q140 72 127 122.5 Q114 173 111 253 L29 253 L46 307 L111 307 L111 365 L29 365 L46 420 L113 420 Q116 500 129 549.5 Q142 599 168.5 626 Q195 653 237 662.5 Q279 672 341 672 Q396 672 434 665.5 Q472 659 496 644.5 Q520 630 530.5 606 Q541 582 541 547 Q541 536 540.5 524.5 Q540 513 540 504 Q539 493 539 483 L463 483 Q463 517 461 541.5 Q459 566 447 581.5 Q435 597 409.5 604 Q384 611 337 611 Q298 611 271.5 604 Q245 597 228 577 Q211 557 202.5 519 Q194 481 191 420 L463 420 L445 365 L190 365 L190 307 L422 307 L403 253 L191 253 Z " />
<glyph glyph-name="Eth" unicode="&#xd0;" horiz-adv-x="604" d="M9 370 L79 370 L79 665 L298 665 Q427 665 489 600 Q551 535 551 389 L551 274 Q551 130 489.5 65 Q428 0 298 0 L79 0 L79 308 L9 308 L9 370 Z M474 389 Q474 497 434.5 548 Q395 599 298 599 L156 599 L156 370 L344 370 L344 308 L156 308 L156 66 L298 66 Q342 66 375 76 Q408 86 430 110 Q452 134 463 174 Q474 214 474 274 L474 389 Z " />
<glyph glyph-name="aacute" unicode="&#xe1;" horiz-adv-x="473" d="M353 0 L345 44 L338 44 Q320 21 291 8 Q262 -5 214 -5 Q122 -5 82.5 28 Q43 61 43 138 Q43 174 51 200.5 Q59 227 79 245 Q99 263 132.5 271.5 Q166 280 218 280 Q270 280 302 278.5 Q334 277 339 277 L339 316 Q339 345 335.5 363.5 Q332 382 321.5 392.5 Q311 403 291 406.5 Q271 410 239 410 Q200 410 173.5 400.5 Q147 391 143 368 L138 338 L67 338 Q66 347 66 356 Q65 364 65 373 Q65 382 65 392 Q65 410 78 424.5 Q91 439 114 448.5 Q137 458 169.5 463.5 Q202 469 240 469 Q292 469 325 463 Q358 457 377 441.5 Q396 426 403.5 400 Q411 374 411 334 L411 0 L353 0 Z M339 225 L225 225 Q165 225 141.5 205 Q118 185 118 139 Q118 88 144 70 Q170 52 225 52 Q284 52 311.5 75.5 Q339 99 339 162 L339 225 Z M166 544 L280 656 L322 607 L195 510 L166 544 Z " />
<glyph glyph-name="agrave" unicode="&#xe0;" horiz-adv-x="473" d="M353 0 L345 44 L338 44 Q320 21 291 8 Q262 -5 214 -5 Q122 -5 82.5 28 Q43 61 43 138 Q43 174 51 200.5 Q59 227 79 245 Q99 263 132.5 271.5 Q166 280 218 280 Q270 280 302 278.5 Q334 277 339 277 L339 316 Q339 345 335.5 363.5 Q332 382 321.5 392.5 Q311 403 291 406.5 Q271 410 239 410 Q200 410 173.5 400.5 Q147 391 143 368 L138 338 L67 338 Q66 347 66 356 Q65 364 65 373 Q65 382 65 392 Q65 410 78 424.5 Q91 439 114 448.5 Q137 458 169.5 463.5 Q202 469 240 469 Q292 469 325 463 Q358 457 377 441.5 Q396 426 403.5 400 Q411 374 411 334 L411 0 L353 0 Z M339 225 L225 225 Q165 225 141.5 205 Q118 185 118 139 Q118 88 144 70 Q170 52 225 52 Q284 52 311.5 75.5 Q339 99 339 162 L339 225 Z M285 510 L157 607 L201 658 L316 546 L285 510 Z " />
<glyph glyph-name="acircumflex" unicode="&#xe2;" horiz-adv-x="473" d="M353 0 L345 44 L338 44 Q320 21 291 8 Q262 -5 214 -5 Q122 -5 82.5 28 Q43 61 43 138 Q43 174 51 200.5 Q59 227 79 245 Q99 263 132.5 271.5 Q166 280 218 280 Q270 280 302 278.5 Q334 277 339 277 L339 316 Q339 345 335.5 363.5 Q332 382 321.5 392.5 Q311 403 291 406.5 Q271 410 239 410 Q200 410 173.5 400.5 Q147 391 143 368 L138 338 L67 338 Q66 347 66 356 Q65 364 65 373 Q65 382 65 392 Q65 410 78 424.5 Q91 439 114 448.5 Q137 458 169.5 463.5 Q202 469 240 469 Q292 469 325 463 Q358 457 377 441.5 Q396 426 403.5 400 Q411 374 411 334 L411 0 L353 0 Z M339 225 L225 225 Q165 225 141.5 205 Q118 185 118 139 Q118 88 144 70 Q170 52 225 52 Q284 52 311.5 75.5 Q339 99 339 162 L339 225 Z M330 519 L240 585 L149 519 L122 553 L240 655 L359 553 L330 519 Z " />
<glyph glyph-name="adieresis" unicode="&#xe4;" horiz-adv-x="473" d="M353 0 L345 44 L338 44 Q320 21 291 8 Q262 -5 214 -5 Q122 -5 82.5 28 Q43 61 43 138 Q43 174 51 200.5 Q59 227 79 245 Q99 263 132.5 271.5 Q166 280 218 280 Q270 280 302 278.5 Q334 277 339 277 L339 316 Q339 345 335.5 363.5 Q332 382 321.5 392.5 Q311 403 291 406.5 Q271 410 239 410 Q200 410 173.5 400.5 Q147 391 143 368 L138 338 L67 338 Q66 347 66 356 Q65 364 65 373 Q65 382 65 392 Q65 410 78 424.5 Q91 439 114 448.5 Q137 458 169.5 463.5 Q202 469 240 469 Q292 469 325 463 Q358 457 377 441.5 Q396 426 403.5 400 Q411 374 411 334 L411 0 L353 0 Z M339 225 L225 225 Q165 225 141.5 205 Q118 185 118 139 Q118 88 144 70 Q170 52 225 52 Q284 52 311.5 75.5 Q339 99 339 162 L339 225 Z M134 545 L134 624 L206 624 L206 545 L134 545 Z M273 545 L273 624 L345 624 L345 545 L273 545 Z " />
<glyph glyph-name="atilde" unicode="&#xe3;" horiz-adv-x="473" d="M353 0 L345 44 L338 44 Q320 21 291 8 Q262 -5 214 -5 Q122 -5 82.5 28 Q43 61 43 138 Q43 174 51 200.5 Q59 227 79 245 Q99 263 132.5 271.5 Q166 280 218 280 Q270 280 302 278.5 Q334 277 339 277 L339 316 Q339 345 335.5 363.5 Q332 382 321.5 392.5 Q311 403 291 406.5 Q271 410 239 410 Q200 410 173.5 400.5 Q147 391 143 368 L138 338 L67 338 Q66 347 66 356 Q65 364 65 373 Q65 382 65 392 Q65 410 78 424.5 Q91 439 114 448.5 Q137 458 169.5 463.5 Q202 469 240 469 Q292 469 325 463 Q358 457 377 441.5 Q396 426 403.5 400 Q411 374 411 334 L411 0 L353 0 Z M339 225 L225 225 Q165 225 141.5 205 Q118 185 118 139 Q118 88 144 70 Q170 52 225 52 Q284 52 311.5 75.5 Q339 99 339 162 L339 225 Z M187 633 Q201 633 216.5 626.5 Q232 620 245.5 612 Q259 604 269 597.5 Q279 591 282 591 Q290 591 296.5 596.5 Q303 602 311 623 L352 607 Q340 572 321.5 551.5 Q303 531 280 531 Q266 531 251 537.5 Q236 544 223 552 Q210 560 200 566.5 Q190 573 186 573 Q178 573 171.5 568 Q165 563 157 541 L115 557 Q127 592 145.5 612.5 Q164 633 187 633 Z " />
<glyph glyph-name="aring" unicode="&#xe5;" horiz-adv-x="473" d="M353 0 L345 44 L338 44 Q320 21 291 8 Q262 -5 214 -5 Q122 -5 82.5 28 Q43 61 43 138 Q43 174 51 200.5 Q59 227 79 245 Q99 263 132.5 271.5 Q166 280 218 280 Q270 280 302 278.5 Q334 277 339 277 L339 316 Q339 345 335.5 363.5 Q332 382 321.5 392.5 Q311 403 291 406.5 Q271 410 239 410 Q200 410 173.5 400.5 Q147 391 143 368 L138 338 L67 338 Q66 347 66 356 Q65 364 65 373 Q65 382 65 392 Q65 410 78 424.5 Q91 439 114 448.5 Q137 458 169.5 463.5 Q202 469 240 469 Q292 469 325 463 Q358 457 377 441.5 Q396 426 403.5 400 Q411 374 411 334 L411 0 L353 0 Z M339 225 L225 225 Q165 225 141.5 205 Q118 185 118 139 Q118 88 144 70 Q170 52 225 52 Q284 52 311.5 75.5 Q339 99 339 162 L339 225 Z M320 579 Q320 543 296.5 522.5 Q273 502 241 502 Q209 502 186 522.5 Q163 543 163 579 Q163 615 186 635.5 Q209 656 241 656 Q273 656 296.5 635.5 Q320 615 320 579 Z M285 579 Q285 600 272.5 611.5 Q260 623 241 623 Q222 623 210 611.5 Q198 600 198 579 Q198 559 210 547.5 Q222 536 241 536 Q260 536 272.5 547.5 Q285 559 285 579 Z " />
<glyph glyph-name="ccedilla" unicode="&#xe7;" horiz-adv-x="469" d="M417 380 Q417 372 416.5 364.5 Q416 357 415 349 Q414 340 414 332 L346 332 L343 361 Q340 387 320 399.5 Q300 412 245 412 Q208 412 185 406 Q162 400 149.5 381 Q137 362 133 325.5 Q129 289 129 229 Q129 172 133 137 Q137 102 149.5 83 Q162 64 184.5 57.5 Q207 51 245 51 Q274 51 293 54.5 Q312 58 323 64.5 Q334 71 338.5 80.5 Q343 90 345 103 L348 132 L416 132 Q418 122 418 92 Q418 72 412 55 Q406 38 391 26 Q376 14 349.5 6 Q323 -2 282 -4 L253 -51 Q286 -51 308 -66 Q330 -81 330 -122 Q330 -167 306.5 -183.5 Q283 -200 225 -200 Q202 -200 180.5 -195 Q159 -190 142 -182 L163 -142 Q183 -150 195.5 -153.5 Q208 -157 224 -157 Q250 -157 259 -147 Q268 -137 268 -119 Q268 -100 259 -90.5 Q250 -81 224 -81 L185 -81 L226 -4 Q176 -3 143.5 8 Q111 19 92.5 45.5 Q74 72 66.5 117 Q59 162 59 233 Q59 306 68 352 Q77 398 99 424 Q121 450 156.5 460 Q192 470 246 470 Q294 470 327 463 Q360 456 380 443.5 Q400 431 408.5 414.5 Q417 398 417 380 Z " />
<glyph glyph-name="eacute" unicode="&#xe9;" horiz-adv-x="458" d="M410 263 Q410 246 409.5 235.5 Q409 225 409 217 L117 217 Q117 163 122.5 130.5 Q128 98 141 80.5 Q154 63 176 57.5 Q198 52 232 52 Q262 52 281 55 Q300 58 310.5 64 Q321 70 325.5 79 Q330 88 332 100 L336 132 L404 132 Q404 126 405 119 Q405 113 405.5 104.5 Q406 96 406 88 Q406 37 364 16.5 Q322 -4 232 -4 Q181 -4 146 4.5 Q111 13 89 38.5 Q67 64 57.5 110 Q48 156 48 230 Q48 297 56.5 343 Q65 389 86 417 Q107 445 142.5 457 Q178 469 232 469 Q287 469 321.5 458.5 Q356 448 375.5 424 Q395 400 402.5 360.5 Q410 321 410 263 Z M343 274 Q343 351 318 382 Q293 413 232 413 Q200 413 178.5 406 Q157 399 144 383 Q131 367 125 340 Q119 313 118 274 L343 274 Z M161 544 L275 656 L317 607 L190 510 L161 544 Z " />
<glyph glyph-name="egrave" unicode="&#xe8;" horiz-adv-x="458" d="M410 263 Q410 246 409.5 235.5 Q409 225 409 217 L117 217 Q117 163 122.5 130.5 Q128 98 141 80.5 Q154 63 176 57.5 Q198 52 232 52 Q262 52 281 55 Q300 58 310.5 64 Q321 70 325.5 79 Q330 88 332 100 L336 132 L404 132 Q404 126 405 119 Q405 113 405.5 104.5 Q406 96 406 88 Q406 37 364 16.5 Q322 -4 232 -4 Q181 -4 146 4.5 Q111 13 89 38.5 Q67 64 57.5 110 Q48 156 48 230 Q48 297 56.5 343 Q65 389 86 417 Q107 445 142.5 457 Q178 469 232 469 Q287 469 321.5 458.5 Q356 448 375.5 424 Q395 400 402.5 360.5 Q410 321 410 263 Z M343 274 Q343 351 318 382 Q293 413 232 413 Q200 413 178.5 406 Q157 399 144 383 Q131 367 125 340 Q119 313 118 274 L343 274 Z M282 510 L154 607 L198 658 L313 546 L282 510 Z " />
<glyph glyph-name="ecircumflex" unicode="&#xea;" horiz-adv-x="458" d="M410 263 Q410 246 409.5 235.5 Q409 225 409 217 L117 217 Q117 163 122.5 130.5 Q128 98 141 80.5 Q154 63 176 57.5 Q198 52 232 52 Q262 52 281 55 Q300 58 310.5 64 Q321 70 325.5 79 Q330 88 332 100 L336 132 L404 132 Q404 126 405 119 Q405 113 405.5 104.5 Q406 96 406 88 Q406 37 364 16.5 Q322 -4 232 -4 Q181 -4 146 4.5 Q111 13 89 38.5 Q67 64 57.5 110 Q48 156 48 230 Q48 297 56.5 343 Q65 389 86 417 Q107 445 142.5 457 Q178 469 232 469 Q287 469 321.5 458.5 Q356 448 375.5 424 Q395 400 402.5 360.5 Q410 321 410 263 Z M343 274 Q343 351 318 382 Q293 413 232 413 Q200 413 178.5 406 Q157 399 144 383 Q131 367 125 340 Q119 313 118 274 L343 274 Z M321 519 L231 585 L140 519 L113 553 L231 655 L350 553 L321 519 Z " />
<glyph glyph-name="edieresis" unicode="&#xeb;" horiz-adv-x="458" d="M410 263 Q410 246 409.5 235.5 Q409 225 409 217 L117 217 Q117 163 122.5 130.5 Q128 98 141 80.5 Q154 63 176 57.5 Q198 52 232 52 Q262 52 281 55 Q300 58 310.5 64 Q321 70 325.5 79 Q330 88 332 100 L336 132 L404 132 Q404 126 405 119 Q405 113 405.5 104.5 Q406 96 406 88 Q406 37 364 16.5 Q322 -4 232 -4 Q181 -4 146 4.5 Q111 13 89 38.5 Q67 64 57.5 110 Q48 156 48 230 Q48 297 56.5 343 Q65 389 86 417 Q107 445 142.5 457 Q178 469 232 469 Q287 469 321.5 458.5 Q356 448 375.5 424 Q395 400 402.5 360.5 Q410 321 410 263 Z M343 274 Q343 351 318 382 Q293 413 232 413 Q200 413 178.5 406 Q157 399 144 383 Q131 367 125 340 Q119 313 118 274 L343 274 Z M131 545 L131 624 L203 624 L203 545 L131 545 Z M270 545 L270 624 L342 624 L342 545 L270 545 Z " />
<glyph glyph-name="iacute" unicode="&#xed;" horiz-adv-x="233" d="M95 0 L95 409 L7 409 L7 465 L167 465 L167 0 L95 0 Z M35 544 L149 656 L191 607 L64 510 L35 544 Z " />
<glyph glyph-name="igrave" unicode="&#xec;" horiz-adv-x="233" d="M95 0 L95 409 L7 409 L7 465 L167 465 L167 0 L95 0 Z M155 510 L27 607 L71 658 L186 546 L155 510 Z " />
<glyph glyph-name="icircumflex" unicode="&#xee;" horiz-adv-x="233" d="M95 0 L95 409 L7 409 L7 465 L167 465 L167 0 L95 0 Z M196 519 L106 585 L15 519 L-12 553 L106 655 L225 553 L196 519 Z " />
<glyph glyph-name="idieresis" unicode="&#xef;" horiz-adv-x="233" d="M95 0 L95 409 L7 409 L7 465 L167 465 L167 0 L95 0 Z M7 545 L7 624 L79 624 L79 545 L7 545 Z M146 545 L146 624 L218 624 L218 545 L146 545 Z " />
<glyph glyph-name="odieresis" unicode="&#xf6;" horiz-adv-x="462" d="M228 469 Q285 469 321 459.5 Q357 450 377.5 424 Q398 398 406 352 Q414 306 414 232 Q414 158 406 112 Q398 66 377.5 40 Q357 14 321 5 Q285 -4 228 -4 Q172 -4 137 5.5 Q102 15 82 41 Q62 67 55 113 Q48 159 48 233 Q48 307 55 353 Q62 399 82 425 Q102 451 137 460 Q172 469 228 469 Z M230 52 Q265 52 286.5 58 Q308 64 320 83 Q332 102 336 137.5 Q340 173 340 232 Q340 291 336 326.5 Q332 362 320 381.5 Q308 401 286.5 407 Q265 413 230 413 Q195 413 174 407 Q153 401 141 382.5 Q129 364 125 328.5 Q121 293 121 233 Q121 174 125 138 Q129 102 141 83 Q153 64 174 58 Q195 52 230 52 Z M123 545 L123 624 L195 624 L195 545 L123 545 Z M262 545 L262 624 L334 624 L334 545 L262 545 Z " />
<glyph glyph-name="ograve" unicode="&#xf2;" horiz-adv-x="462" d="M228 469 Q285 469 321 459.5 Q357 450 377.5 424 Q398 398 406 352 Q414 306 414 232 Q414 158 406 112 Q398 66 377.5 40 Q357 14 321 5 Q285 -4 228 -4 Q172 -4 137 5.5 Q102 15 82 41 Q62 67 55 113 Q48 159 48 233 Q48 307 55 353 Q62 399 82 425 Q102 451 137 460 Q172 469 228 469 Z M230 52 Q265 52 286.5 58 Q308 64 320 83 Q332 102 336 137.5 Q340 173 340 232 Q340 291 336 326.5 Q332 362 320 381.5 Q308 401 286.5 407 Q265 413 230 413 Q195 413 174 407 Q153 401 141 382.5 Q129 364 125 328.5 Q121 293 121 233 Q121 174 125 138 Q129 102 141 83 Q153 64 174 58 Q195 52 230 52 Z M280 510 L152 607 L196 658 L311 546 L280 510 Z " />
<glyph glyph-name="oacute" unicode="&#xf3;" horiz-adv-x="462" d="M228 469 Q285 469 321 459.5 Q357 450 377.5 424 Q398 398 406 352 Q414 306 414 232 Q414 158 406 112 Q398 66 377.5 40 Q357 14 321 5 Q285 -4 228 -4 Q172 -4 137 5.5 Q102 15 82 41 Q62 67 55 113 Q48 159 48 233 Q48 307 55 353 Q62 399 82 425 Q102 451 137 460 Q172 469 228 469 Z M230 52 Q265 52 286.5 58 Q308 64 320 83 Q332 102 336 137.5 Q340 173 340 232 Q340 291 336 326.5 Q332 362 320 381.5 Q308 401 286.5 407 Q265 413 230 413 Q195 413 174 407 Q153 401 141 382.5 Q129 364 125 328.5 Q121 293 121 233 Q121 174 125 138 Q129 102 141 83 Q153 64 174 58 Q195 52 230 52 Z M151 544 L265 656 L307 607 L180 510 L151 544 Z " />
<glyph glyph-name="ocircumflex" unicode="&#xf4;" horiz-adv-x="462" d="M228 469 Q285 469 321 459.5 Q357 450 377.5 424 Q398 398 406 352 Q414 306 414 232 Q414 158 406 112 Q398 66 377.5 40 Q357 14 321 5 Q285 -4 228 -4 Q172 -4 137 5.5 Q102 15 82 41 Q62 67 55 113 Q48 159 48 233 Q48 307 55 353 Q62 399 82 425 Q102 451 137 460 Q172 469 228 469 Z M230 52 Q265 52 286.5 58 Q308 64 320 83 Q332 102 336 137.5 Q340 173 340 232 Q340 291 336 326.5 Q332 362 320 381.5 Q308 401 286.5 407 Q265 413 230 413 Q195 413 174 407 Q153 401 141 382.5 Q129 364 125 328.5 Q121 293 121 233 Q121 174 125 138 Q129 102 141 83 Q153 64 174 58 Q195 52 230 52 Z M321 519 L231 585 L140 519 L113 553 L231 655 L350 553 L321 519 Z " />
<glyph glyph-name="otilde" unicode="&#xf5;" horiz-adv-x="462" d="M228 469 Q285 469 321 459.5 Q357 450 377.5 424 Q398 398 406 352 Q414 306 414 232 Q414 158 406 112 Q398 66 377.5 40 Q357 14 321 5 Q285 -4 228 -4 Q172 -4 137 5.5 Q102 15 82 41 Q62 67 55 113 Q48 159 48 233 Q48 307 55 353 Q62 399 82 425 Q102 451 137 460 Q172 469 228 469 Z M230 52 Q265 52 286.5 58 Q308 64 320 83 Q332 102 336 137.5 Q340 173 340 232 Q340 291 336 326.5 Q332 362 320 381.5 Q308 401 286.5 407 Q265 413 230 413 Q195 413 174 407 Q153 401 141 382.5 Q129 364 125 328.5 Q121 293 121 233 Q121 174 125 138 Q129 102 141 83 Q153 64 174 58 Q195 52 230 52 Z M184 633 Q198 633 213.5 626.5 Q229 620 242.5 612 Q256 604 266 597.5 Q276 591 279 591 Q287 591 293.5 596.5 Q300 602 308 623 L349 607 Q337 572 318.5 551.5 Q300 531 277 531 Q263 531 248 537.5 Q233 544 220 552 Q207 560 197 566.5 Q187 573 183 573 Q175 573 168.5 568 Q162 563 154 541 L112 557 Q124 592 142.5 612.5 Q161 633 184 633 Z " />
<glyph glyph-name="ntilde" unicode="&#xf1;" horiz-adv-x="466" d="M262 471 Q345 471 377 438.5 Q409 406 409 339 L409 0 L337 0 L337 327 Q337 370 318.5 389.5 Q300 409 258 409 Q222 409 194 403.5 Q166 398 137 387 L137 0 L65 0 L65 465 L130 465 L135 428 Q158 447 189 459 Q220 471 262 471 Z M186 633 Q200 633 215.5 626.5 Q231 620 244.5 612 Q258 604 268 597.5 Q278 591 281 591 Q289 591 295.5 596.5 Q302 602 310 623 L351 607 Q339 572 320.5 551.5 Q302 531 279 531 Q265 531 250 537.5 Q235 544 222 552 Q209 560 199 566.5 Q189 573 185 573 Q177 573 170.5 568 Q164 563 156 541 L114 557 Q126 592 144.5 612.5 Q163 633 186 633 Z " />
<glyph glyph-name="scaron" unicode="&#x161;" horiz-adv-x="452" d="M405 133 Q405 97 396.5 71 Q388 45 367 28.5 Q346 12 310.5 4 Q275 -4 222 -4 Q171 -4 137 1 Q103 6 83 17 Q63 28 55 45 Q47 62 47 85 Q47 96 47.5 106 Q48 116 49 124 Q50 134 51 142 L120 142 L124 95 Q125 83 129.5 74.5 Q134 66 144.5 60.5 Q155 55 173.5 52.5 Q192 50 222 50 Q255 50 276.5 55 Q298 60 310 70.5 Q322 81 326.5 96 Q331 111 331 132 Q331 169 314 185.5 Q297 202 258 206 L169 215 Q109 221 81 247.5 Q53 274 53 341 Q53 377 60.5 401.5 Q68 426 86.5 441 Q105 456 137.5 463 Q170 470 221 470 Q308 470 348.5 450.5 Q389 431 389 387 Q389 379 388.5 371 Q388 363 388 356 Q387 348 387 340 L317 340 L313 377 Q311 388 306.5 395.5 Q302 403 291.5 407.5 Q281 412 264 414 Q247 416 221 416 Q191 416 172 412 Q153 408 143 399 Q133 390 129.5 376 Q126 362 126 341 Q126 305 138.5 288.5 Q151 272 181 270 L269 263 Q309 260 335 253.5 Q361 247 376.5 232.5 Q392 218 398.5 194 Q405 170 405 133 Z M105 607 L134 641 L224 575 L315 641 L342 607 L231 511 L217 511 L105 607 Z " />
<glyph glyph-name="Scaron" unicode="&#x160;" horiz-adv-x="537" d="M498 188 Q498 129 483.5 91.5 Q469 54 439.5 32.5 Q410 11 364 2.5 Q318 -6 255 -6 Q195 -6 155 1.5 Q115 9 91.5 22.5 Q68 36 58 55.5 Q48 75 48 99 Q48 114 48 127 Q48 140 49 150 Q50 161 51 171 L125 171 L128 119 Q129 104 135 92 Q141 80 155.5 71.5 Q170 63 194 59 Q218 55 254 55 Q302 55 333.5 61.5 Q365 68 384 83.5 Q403 99 411 124.5 Q419 150 419 189 Q419 225 412 248 Q405 271 391.5 285 Q378 299 358 304.5 Q338 310 311 312 L212 318 Q171 320 139 327.5 Q107 335 84.5 354 Q62 373 50 405.5 Q38 438 38 490 Q38 543 50 578 Q62 613 89.5 633.5 Q117 654 161 662.5 Q205 671 269 671 Q332 671 372.5 663.5 Q413 656 436 642 Q459 628 468 608 Q477 588 477 563 Q477 540 475 521.5 Q473 503 473 495 L398 495 L395 538 Q393 557 387.5 571 Q382 585 368 594 Q354 603 330.5 607 Q307 611 270 611 Q223 611 193 604.5 Q163 598 146.5 584 Q130 570 124 547 Q118 524 118 490 Q118 458 124 438 Q130 418 142.5 406 Q155 394 175 389 Q195 384 223 382 L347 374 Q374 372 401 365.5 Q428 359 449.5 339.5 Q471 320 484.5 284 Q498 248 498 188 Z M143 807 L172 841 L262 775 L353 841 L380 807 L269 711 L255 711 L143 807 Z " />
<glyph glyph-name="Zcaron" unicode="&#x17d;" horiz-adv-x="552" d="M494 0 L59 0 L59 68 L423 595 L423 600 L136 600 L136 504 L58 504 L58 665 L504 665 L504 600 L139 72 L139 68 L531 68 L494 0 Z M175 807 L204 841 L294 775 L385 841 L412 807 L301 711 L287 711 L175 807 Z " />
<glyph glyph-name="zcaron" unicode="&#x17e;" horiz-adv-x="404" d="M356 0 L36 0 L36 79 L281 395 L281 409 L109 409 L109 364 L50 364 L50 465 L354 465 L354 387 L113 78 L113 57 L380 57 L356 0 Z M85 607 L114 641 L204 575 L295 641 L322 607 L211 511 L197 511 L85 607 Z " />
<glyph glyph-name="ydieresis" unicode="&#xff;" horiz-adv-x="419" d="M240 -129 Q229 -168 208.5 -184 Q188 -200 146 -200 Q131 -200 116 -199 Q101 -198 87 -196 L87 -135 L120 -135 Q136 -135 146.5 -132 Q157 -129 164 -122.5 Q171 -116 176 -105.5 Q181 -95 186 -80 L210 0 L142 0 L6 465 L84 465 L197 51 L222 51 L335 465 L413 465 L240 -129 Z M105 545 L105 624 L177 624 L177 545 L105 545 Z M244 545 L244 624 L316 624 L316 545 L244 545 Z " />
<glyph glyph-name="Ydieresis" unicode="&#x178;" horiz-adv-x="549" d="M216 0 L136 0 L265 241 L209 241 L6 665 L94 665 L253 311 L292 311 L462 665 L543 665 L216 0 Z M179 745 L179 824 L251 824 L251 745 L179 745 Z M318 745 L318 824 L390 824 L390 745 L318 745 Z " />
<glyph glyph-name="ugrave" unicode="&#xf9;" horiz-adv-x="471" d="M409 27 Q368 13 322 3 Q276 -7 227 -7 Q180 -7 147.5 3 Q115 13 95 36 Q75 59 66 95.5 Q57 132 57 186 L57 465 L129 465 L129 171 Q129 101 157 74 Q185 47 246 47 Q269 47 291.5 50 Q314 53 337 61 L337 465 L409 465 L409 27 Z M280 510 L152 607 L196 658 L311 546 L280 510 Z " />
<glyph glyph-name="uacute" unicode="&#xfa;" horiz-adv-x="471" d="M409 27 Q368 13 322 3 Q276 -7 227 -7 Q180 -7 147.5 3 Q115 13 95 36 Q75 59 66 95.5 Q57 132 57 186 L57 465 L129 465 L129 171 Q129 101 157 74 Q185 47 246 47 Q269 47 291.5 50 Q314 53 337 61 L337 465 L409 465 L409 27 Z M155 544 L269 656 L311 607 L184 510 L155 544 Z " />
<glyph glyph-name="ucircumflex" unicode="&#xfb;" horiz-adv-x="471" d="M409 27 Q368 13 322 3 Q276 -7 227 -7 Q180 -7 147.5 3 Q115 13 95 36 Q75 59 66 95.5 Q57 132 57 186 L57 465 L129 465 L129 171 Q129 101 157 74 Q185 47 246 47 Q269 47 291.5 50 Q314 53 337 61 L337 465 L409 465 L409 27 Z M333 519 L243 585 L152 519 L125 553 L243 655 L362 553 L333 519 Z " />
<glyph glyph-name="udieresis" unicode="&#xfc;" horiz-adv-x="471" d="M409 27 Q368 13 322 3 Q276 -7 227 -7 Q180 -7 147.5 3 Q115 13 95 36 Q75 59 66 95.5 Q57 132 57 186 L57 465 L129 465 L129 171 Q129 101 157 74 Q185 47 246 47 Q269 47 291.5 50 Q314 53 337 61 L337 465 L409 465 L409 27 Z M129 545 L129 624 L201 624 L201 545 L129 545 Z M268 545 L268 624 L340 624 L340 545 L268 545 Z " />
<glyph glyph-name="yacute" unicode="&#xfd;" horiz-adv-x="419" d="M240 -129 Q229 -168 208.5 -184 Q188 -200 146 -200 Q131 -200 116 -199 Q101 -198 87 -196 L87 -135 L120 -135 Q136 -135 146.5 -132 Q157 -129 164 -122.5 Q171 -116 176 -105.5 Q181 -95 186 -80 L210 0 L142 0 L6 465 L84 465 L197 51 L222 51 L335 465 L413 465 L240 -129 Z M135 544 L249 656 L291 607 L164 510 L135 544 Z " />
<glyph glyph-name="Acircumflex" unicode="&#xc2;" horiz-adv-x="598" d="M512 0 L457 165 L141 165 L86 0 L6 0 L230 665 L370 665 L592 0 L512 0 Z M312 605 L287 605 L157 225 L442 225 L312 605 Z M389 719 L299 785 L208 719 L181 753 L299 855 L418 753 L389 719 Z " />
<glyph glyph-name="Atilde" unicode="&#xc3;" horiz-adv-x="598" d="M512 0 L457 165 L141 165 L86 0 L6 0 L230 665 L370 665 L592 0 L512 0 Z M312 605 L287 605 L157 225 L442 225 L312 605 Z M253 833 Q267 833 282.5 826.5 Q298 820 311.5 812 Q325 804 335 797.5 Q345 791 348 791 Q356 791 362.5 796.5 Q369 802 377 823 L418 807 Q406 772 387.5 751.5 Q369 731 346 731 Q332 731 317 737.5 Q302 744 289 752 Q276 760 266 766.5 Q256 773 252 773 Q244 773 237.5 768 Q231 763 223 741 L181 757 Q193 792 211.5 812.5 Q230 833 253 833 Z " />
<glyph glyph-name="Adieresis" unicode="&#xc4;" horiz-adv-x="598" d="M512 0 L457 165 L141 165 L86 0 L6 0 L230 665 L370 665 L592 0 L512 0 Z M312 605 L287 605 L157 225 L442 225 L312 605 Z M194 745 L194 824 L266 824 L266 745 L194 745 Z M333 745 L333 824 L405 824 L405 745 L333 745 Z " />
<glyph glyph-name="Aring" unicode="&#xc5;" horiz-adv-x="598" d="M512 0 L457 165 L141 165 L86 0 L6 0 L230 665 L370 665 L592 0 L512 0 Z M312 605 L287 605 L157 225 L442 225 L312 605 Z M379 779 Q379 743 355.5 722.5 Q332 702 300 702 Q268 702 245 722.5 Q222 743 222 779 Q222 815 245 835.5 Q268 856 300 856 Q332 856 355.5 835.5 Q379 815 379 779 Z M344 779 Q344 800 331.5 811.5 Q319 823 300 823 Q281 823 269 811.5 Q257 800 257 779 Q257 759 269 747.5 Q281 736 300 736 Q319 736 331.5 747.5 Q344 759 344 779 Z " />
<glyph glyph-name="Egrave" unicode="&#xc8;" horiz-adv-x="500" d="M70 0 L70 665 L462 665 L462 599 L148 599 L148 373 L437 373 L411 308 L148 308 L148 66 L462 66 L462 0 L70 0 Z M310 710 L182 807 L226 858 L341 746 L310 710 Z " />
<glyph glyph-name="Eacute" unicode="&#xc9;" horiz-adv-x="500" d="M70 0 L70 665 L462 665 L462 599 L148 599 L148 373 L437 373 L411 308 L148 308 L148 66 L462 66 L462 0 L70 0 Z M194 744 L308 856 L350 807 L223 710 L194 744 Z " />
<glyph glyph-name="Ecircumflex" unicode="&#xca;" horiz-adv-x="500" d="M70 0 L70 665 L462 665 L462 599 L148 599 L148 373 L437 373 L411 308 L148 308 L148 66 L462 66 L462 0 L70 0 Z M356 719 L266 785 L175 719 L148 753 L266 855 L385 753 L356 719 Z " />
<glyph glyph-name="Edieresis" unicode="&#xcb;" horiz-adv-x="500" d="M70 0 L70 665 L462 665 L462 599 L148 599 L148 373 L437 373 L411 308 L148 308 L148 66 L462 66 L462 0 L70 0 Z M159 745 L159 824 L231 824 L231 745 L159 745 Z M298 745 L298 824 L370 824 L370 745 L298 745 Z " />
<glyph glyph-name="Agrave" unicode="&#xc0;" horiz-adv-x="598" d="M512 0 L457 165 L141 165 L86 0 L6 0 L230 665 L370 665 L592 0 L512 0 Z M312 605 L287 605 L157 225 L442 225 L312 605 Z M343 710 L215 807 L259 858 L374 746 L343 710 Z " />
<glyph glyph-name="Aacute" unicode="&#xc1;" horiz-adv-x="598" d="M512 0 L457 165 L141 165 L86 0 L6 0 L230 665 L370 665 L592 0 L512 0 Z M312 605 L287 605 L157 225 L442 225 L312 605 Z M225 743 L339 855 L381 806 L254 709 L225 743 Z " />
<glyph glyph-name="Ccedilla" unicode="&#xc7;" horiz-adv-x="586" d="M533 111 Q533 79 518.5 57.5 Q504 36 477.5 22 Q451 8 414 1.5 Q377 -5 333 -6 L305 -51 Q338 -51 360 -66 Q382 -81 382 -122 Q382 -167 358.5 -183.5 Q335 -200 277 -200 Q254 -200 232.5 -195 Q211 -190 194 -182 L215 -142 Q235 -150 247.5 -153.5 Q260 -157 276 -157 Q302 -157 311 -147 Q320 -137 320 -119 Q320 -100 311 -90.5 Q302 -81 276 -81 L237 -81 L278 -5 Q210 -3 166.5 11.5 Q123 26 97.5 63 Q72 100 62 164.5 Q52 229 52 332 Q52 443 63.5 510 Q75 577 104 613 Q133 649 183.5 660.5 Q234 672 311 672 Q373 672 415 665.5 Q457 659 483 644 Q509 629 520.5 606 Q532 583 532 550 Q532 539 531.5 527 Q531 515 530 504 Q529 492 528 479 L453 479 L453 523 Q453 545 448.5 561 Q444 577 429 587 Q414 597 385.5 601.5 Q357 606 308 606 Q253 606 218 598 Q183 590 163.5 561.5 Q144 533 137 478.5 Q130 424 130 332 Q130 241 137.5 187 Q145 133 165 105 Q185 77 220.5 68.5 Q256 60 312 60 Q351 60 377.5 63 Q404 66 420 73 Q436 80 443 91 Q450 102 451 118 L455 187 L531 187 Q532 172 532.5 152.5 Q533 133 533 111 Z " />
<glyph glyph-name="Igrave" unicode="&#xcc;" horiz-adv-x="221" d="M72 0 L72 665 L149 665 L149 0 L72 0 Z M141 710 L13 807 L57 858 L172 746 L141 710 Z " />
<glyph glyph-name="Iacute" unicode="&#xcd;" horiz-adv-x="221" d="M72 0 L72 665 L149 665 L149 0 L72 0 Z M52 744 L166 856 L208 807 L81 710 L52 744 Z " />
<glyph glyph-name="Icircumflex" unicode="&#xce;" horiz-adv-x="221" d="M72 0 L72 665 L149 665 L149 0 L72 0 Z M201 719 L111 785 L20 719 L-7 753 L111 855 L230 753 L201 719 Z " />
<glyph glyph-name="Idieresis" unicode="&#xcf;" horiz-adv-x="221" d="M72 0 L72 665 L149 665 L149 0 L72 0 Z M5 745 L5 824 L77 824 L77 745 L5 745 Z M144 745 L144 824 L216 824 L216 745 L144 745 Z " />
<glyph glyph-name="Ntilde" unicode="&#xd1;" horiz-adv-x="664" d="M462 0 L155 597 L144 597 L144 0 L70 0 L70 665 L203 665 L510 67 L520 67 L520 665 L594 665 L594 0 L462 0 Z M288 833 Q302 833 317.5 826.5 Q333 820 346.5 812 Q360 804 370 797.5 Q380 791 383 791 Q391 791 397.5 796.5 Q404 802 412 823 L453 807 Q441 772 422.5 751.5 Q404 731 381 731 Q367 731 352 737.5 Q337 744 324 752 Q311 760 301 766.5 Q291 773 287 773 Q279 773 272.5 768 Q266 763 258 741 L216 757 Q228 792 246.5 812.5 Q265 833 288 833 Z " />
<glyph glyph-name="Ograve" unicode="&#xd2;" horiz-adv-x="598" d="M546 332 Q546 229 537.5 163.5 Q529 98 502.5 60 Q476 22 427.5 7.5 Q379 -7 299 -7 Q221 -7 172.5 7.5 Q124 22 97 60 Q70 98 61 163.5 Q52 229 52 332 Q52 437 61.5 503.5 Q71 570 97.5 607 Q124 644 172.5 657.5 Q221 671 299 671 Q380 671 429 656.5 Q478 642 504 603.5 Q530 565 538 499.5 Q546 434 546 332 Z M468 332 Q468 412 463.5 464.5 Q459 517 442 548 Q425 579 391.5 591.5 Q358 604 299 604 Q244 604 211 593.5 Q178 583 160 553.5 Q142 524 136.5 471 Q131 418 131 332 Q131 248 136 195 Q141 142 158.5 111.5 Q176 81 209.5 70 Q243 59 299 59 Q357 59 390.5 70 Q424 81 441 111.5 Q458 142 463 195 Q468 248 468 332 Z M350 710 L222 807 L266 858 L381 746 L350 710 Z " />
<glyph glyph-name="Oacute" unicode="&#xd3;" horiz-adv-x="598" d="M546 332 Q546 229 537.5 163.5 Q529 98 502.5 60 Q476 22 427.5 7.5 Q379 -7 299 -7 Q221 -7 172.5 7.5 Q124 22 97 60 Q70 98 61 163.5 Q52 229 52 332 Q52 437 61.5 503.5 Q71 570 97.5 607 Q124 644 172.5 657.5 Q221 671 299 671 Q380 671 429 656.5 Q478 642 504 603.5 Q530 565 538 499.5 Q546 434 546 332 Z M468 332 Q468 412 463.5 464.5 Q459 517 442 548 Q425 579 391.5 591.5 Q358 604 299 604 Q244 604 211 593.5 Q178 583 160 553.5 Q142 524 136.5 471 Q131 418 131 332 Q131 248 136 195 Q141 142 158.5 111.5 Q176 81 209.5 70 Q243 59 299 59 Q357 59 390.5 70 Q424 81 441 111.5 Q458 142 463 195 Q468 248 468 332 Z M225 744 L339 856 L381 807 L254 710 L225 744 Z " />
<glyph glyph-name="Ocircumflex" unicode="&#xd4;" horiz-adv-x="598" d="M546 332 Q546 229 537.5 163.5 Q529 98 502.5 60 Q476 22 427.5 7.5 Q379 -7 299 -7 Q221 -7 172.5 7.5 Q124 22 97 60 Q70 98 61 163.5 Q52 229 52 332 Q52 437 61.5 503.5 Q71 570 97.5 607 Q124 644 172.5 657.5 Q221 671 299 671 Q380 671 429 656.5 Q478 642 504 603.5 Q530 565 538 499.5 Q546 434 546 332 Z M468 332 Q468 412 463.5 464.5 Q459 517 442 548 Q425 579 391.5 591.5 Q358 604 299 604 Q244 604 211 593.5 Q178 583 160 553.5 Q142 524 136.5 471 Q131 418 131 332 Q131 248 136 195 Q141 142 158.5 111.5 Q176 81 209.5 70 Q243 59 299 59 Q357 59 390.5 70 Q424 81 441 111.5 Q458 142 463 195 Q468 248 468 332 Z M391 719 L301 785 L210 719 L183 753 L301 855 L420 753 L391 719 Z " />
<glyph glyph-name="Otilde" unicode="&#xd5;" horiz-adv-x="598" d="M546 332 Q546 229 537.5 163.5 Q529 98 502.5 60 Q476 22 427.5 7.5 Q379 -7 299 -7 Q221 -7 172.5 7.5 Q124 22 97 60 Q70 98 61 163.5 Q52 229 52 332 Q52 437 61.5 503.5 Q71 570 97.5 607 Q124 644 172.5 657.5 Q221 671 299 671 Q380 671 429 656.5 Q478 642 504 603.5 Q530 565 538 499.5 Q546 434 546 332 Z M468 332 Q468 412 463.5 464.5 Q459 517 442 548 Q425 579 391.5 591.5 Q358 604 299 604 Q244 604 211 593.5 Q178 583 160 553.5 Q142 524 136.5 471 Q131 418 131 332 Q131 248 136 195 Q141 142 158.5 111.5 Q176 81 209.5 70 Q243 59 299 59 Q357 59 390.5 70 Q424 81 441 111.5 Q458 142 463 195 Q468 248 468 332 Z M252 833 Q266 833 281.5 826.5 Q297 820 310.5 812 Q324 804 334 797.5 Q344 791 347 791 Q355 791 361.5 796.5 Q368 802 376 823 L417 807 Q405 772 386.5 751.5 Q368 731 345 731 Q331 731 316 737.5 Q301 744 288 752 Q275 760 265 766.5 Q255 773 251 773 Q243 773 236.5 768 Q230 763 222 741 L180 757 Q192 792 210.5 812.5 Q229 833 252 833 Z " />
<glyph glyph-name="Odieresis" unicode="&#xd6;" horiz-adv-x="598" d="M546 332 Q546 229 537.5 163.5 Q529 98 502.5 60 Q476 22 427.5 7.5 Q379 -7 299 -7 Q221 -7 172.5 7.5 Q124 22 97 60 Q70 98 61 163.5 Q52 229 52 332 Q52 437 61.5 503.5 Q71 570 97.5 607 Q124 644 172.5 657.5 Q221 671 299 671 Q380 671 429 656.5 Q478 642 504 603.5 Q530 565 538 499.5 Q546 434 546 332 Z M468 332 Q468 412 463.5 464.5 Q459 517 442 548 Q425 579 391.5 591.5 Q358 604 299 604 Q244 604 211 593.5 Q178 583 160 553.5 Q142 524 136.5 471 Q131 418 131 332 Q131 248 136 195 Q141 142 158.5 111.5 Q176 81 209.5 70 Q243 59 299 59 Q357 59 390.5 70 Q424 81 441 111.5 Q458 142 463 195 Q468 248 468 332 Z M194 745 L194 824 L266 824 L266 745 L194 745 Z M333 745 L333 824 L405 824 L405 745 L333 745 Z " />
<glyph glyph-name="Ugrave" unicode="&#xd9;" horiz-adv-x="615" d="M546 33 Q497 14 437 4 Q377 -6 306 -6 Q244 -6 199 2.5 Q154 11 125 35 Q96 59 82 101 Q68 143 68 209 L68 665 L145 665 L145 209 Q145 170 150.5 141.5 Q156 113 173.5 95 Q191 77 222.5 68 Q254 59 306 59 Q356 59 394.5 63 Q433 67 469 75 L469 665 L546 665 L546 33 Z M345 710 L217 807 L261 858 L376 746 L345 710 Z " />
<glyph glyph-name="Uacute" unicode="&#xda;" horiz-adv-x="615" d="M546 33 Q497 14 437 4 Q377 -6 306 -6 Q244 -6 199 2.5 Q154 11 125 35 Q96 59 82 101 Q68 143 68 209 L68 665 L145 665 L145 209 Q145 170 150.5 141.5 Q156 113 173.5 95 Q191 77 222.5 68 Q254 59 306 59 Q356 59 394.5 63 Q433 67 469 75 L469 665 L546 665 L546 33 Z M245 744 L359 856 L401 807 L274 710 L245 744 Z " />
<glyph glyph-name="Ucircumflex" unicode="&#xdb;" horiz-adv-x="615" d="M546 33 Q497 14 437 4 Q377 -6 306 -6 Q244 -6 199 2.5 Q154 11 125 35 Q96 59 82 101 Q68 143 68 209 L68 665 L145 665 L145 209 Q145 170 150.5 141.5 Q156 113 173.5 95 Q191 77 222.5 68 Q254 59 306 59 Q356 59 394.5 63 Q433 67 469 75 L469 665 L546 665 L546 33 Z M398 719 L308 785 L217 719 L190 753 L308 855 L427 753 L398 719 Z " />
<glyph glyph-name="Udieresis" unicode="&#xdc;" horiz-adv-x="615" d="M546 33 Q497 14 437 4 Q377 -6 306 -6 Q244 -6 199 2.5 Q154 11 125 35 Q96 59 82 101 Q68 143 68 209 L68 665 L145 665 L145 209 Q145 170 150.5 141.5 Q156 113 173.5 95 Q191 77 222.5 68 Q254 59 306 59 Q356 59 394.5 63 Q433 67 469 75 L469 665 L546 665 L546 33 Z M202 745 L202 824 L274 824 L274 745 L202 745 Z M341 745 L341 824 L413 824 L413 745 L341 745 Z " />
<glyph glyph-name="Yacute" unicode="&#xdd;" horiz-adv-x="549" d="M216 0 L136 0 L265 241 L209 241 L6 665 L94 665 L253 311 L292 311 L462 665 L543 665 L216 0 Z M208 744 L322 856 L364 807 L237 710 L208 744 Z " />
<glyph glyph-name="Amacron" unicode="&#x100;" horiz-adv-x="598" d="M512 0 L457 165 L141 165 L86 0 L6 0 L230 665 L370 665 L592 0 L512 0 Z M312 605 L287 605 L157 225 L442 225 L312 605 Z M195 747 L195 800 L405 800 L405 747 L195 747 Z " />
<glyph glyph-name="Aogonek" unicode="&#x104;" horiz-adv-x="598" d="M568 0 Q559 -9 548 -21.5 Q537 -34 527.5 -47.5 Q518 -61 512 -75 Q506 -89 506 -101 Q506 -124 523 -136 Q540 -148 560 -148 Q576 -148 589.5 -145.5 Q603 -143 616 -138 L627 -178 Q610 -189 586.5 -194 Q563 -199 542 -199 Q500 -199 471.5 -178.5 Q443 -158 443 -120 Q443 -85 463.5 -53.5 Q484 -22 511 1 L457 165 L141 165 L86 0 L6 0 L230 665 L370 665 L592 0 L568 0 Z M312 605 L287 605 L157 225 L442 225 L312 605 Z " />
<glyph glyph-name="aogonek" unicode="&#x105;" horiz-adv-x="473" d="M407 0 Q398 -9 387 -21.5 Q376 -34 366.5 -47.5 Q357 -61 351 -75 Q345 -89 345 -101 Q345 -124 362 -136 Q379 -148 399 -148 Q415 -148 428.5 -145.5 Q442 -143 455 -138 L466 -178 Q449 -189 425.5 -194 Q402 -199 381 -199 Q339 -199 310.5 -178.5 Q282 -158 282 -120 Q282 -84 303 -52.5 Q324 -21 352 2 L345 44 L338 44 Q320 21 291 8 Q262 -5 214 -5 Q122 -5 82.5 28 Q43 61 43 138 Q43 174 51 200.5 Q59 227 79 245 Q99 263 132.5 271.5 Q166 280 218 280 Q270 280 302 278.5 Q334 277 339 277 L339 316 Q339 345 335.5 363.5 Q332 382 321.5 392.5 Q311 403 291 406.5 Q271 410 239 410 Q200 410 173.5 400.5 Q147 391 143 368 L138 338 L67 338 Q66 347 66 356 Q65 364 65 373 Q65 382 65 392 Q65 410 78 424.5 Q91 439 114 448.5 Q137 458 169.5 463.5 Q202 469 240 469 Q292 469 325 463 Q358 457 377 441.5 Q396 426 403.5 400 Q411 374 411 334 L411 0 L407 0 Z M339 225 L225 225 Q165 225 141.5 205 Q118 185 118 139 Q118 88 144 70 Q170 52 225 52 Q284 52 311.5 75.5 Q339 99 339 162 L339 225 Z " />
<glyph glyph-name="Ccaron" unicode="&#x10c;" horiz-adv-x="586" d="M533 111 Q533 78 516.5 55.5 Q500 33 470.5 19.5 Q441 6 400.5 0 Q360 -6 311 -6 Q233 -6 183 6 Q133 18 103.5 54 Q74 90 63 156.5 Q52 223 52 332 Q52 443 63.5 510 Q75 577 104 613 Q133 649 183.5 660.5 Q234 672 311 672 Q373 672 415 665.5 Q457 659 483 644 Q509 629 520.5 606 Q532 583 532 550 Q532 539 531.5 527 Q531 515 530 504 Q529 492 528 479 L453 479 L453 523 Q453 545 448.5 561 Q444 577 429 587 Q414 597 385.5 601.5 Q357 606 308 606 Q253 606 218 598 Q183 590 163.5 561.5 Q144 533 137 478.5 Q130 424 130 332 Q130 241 137.5 187 Q145 133 165 105 Q185 77 220.5 68.5 Q256 60 312 60 Q351 60 377.5 63 Q404 66 420 73 Q436 80 443 91 Q450 102 451 118 L455 187 L531 187 Q532 172 532.5 152.5 Q533 133 533 111 Z M184 807 L213 841 L303 775 L394 841 L421 807 L310 711 L296 711 L184 807 Z " />
<glyph glyph-name="ccaron" unicode="&#x10d;" horiz-adv-x="469" d="M417 380 Q417 372 416.5 364.5 Q416 357 415 349 Q414 340 414 332 L346 332 L343 361 Q340 387 320 399.5 Q300 412 245 412 Q208 412 185 406 Q162 400 149.5 381 Q137 362 133 325.5 Q129 289 129 229 Q129 172 133 137 Q137 102 149.5 83 Q162 64 184.5 57.5 Q207 51 245 51 Q274 51 293 54.5 Q312 58 323 64.5 Q334 71 338.5 80.5 Q343 90 345 103 L348 132 L416 132 Q418 122 418 92 Q418 69 411 51.5 Q404 34 384.5 21 Q365 8 331.5 1.5 Q298 -5 245 -5 Q189 -5 153 4.5 Q117 14 96 40.5 Q75 67 67 113 Q59 159 59 233 Q59 306 68 352 Q77 398 99 424 Q121 450 156.5 460 Q192 470 246 470 Q294 470 327 463 Q360 456 380 443.5 Q400 431 408.5 414.5 Q417 398 417 380 Z M124 607 L153 641 L243 575 L334 641 L361 607 L250 511 L236 511 L124 607 Z " />
<glyph glyph-name="Edotaccent" unicode="&#x116;" horiz-adv-x="500" d="M70 0 L70 665 L462 665 L462 599 L148 599 L148 373 L437 373 L411 308 L148 308 L148 66 L462 66 L462 0 L70 0 Z M235 740 L235 819 L307 819 L307 740 L235 740 Z " />
<glyph glyph-name="edotaccent" unicode="&#x117;" horiz-adv-x="458" d="M410 263 Q410 246 409.5 235.5 Q409 225 409 217 L117 217 Q117 163 122.5 130.5 Q128 98 141 80.5 Q154 63 176 57.5 Q198 52 232 52 Q262 52 281 55 Q300 58 310.5 64 Q321 70 325.5 79 Q330 88 332 100 L336 132 L404 132 Q404 126 405 119 Q405 113 405.5 104.5 Q406 96 406 88 Q406 37 364 16.5 Q322 -4 232 -4 Q181 -4 146 4.5 Q111 13 89 38.5 Q67 64 57.5 110 Q48 156 48 230 Q48 297 56.5 343 Q65 389 86 417 Q107 445 142.5 457 Q178 469 232 469 Q287 469 321.5 458.5 Q356 448 375.5 424 Q395 400 402.5 360.5 Q410 321 410 263 Z M343 274 Q343 351 318 382 Q293 413 232 413 Q200 413 178.5 406 Q157 399 144 383 Q131 367 125 340 Q119 313 118 274 L343 274 Z M196 540 L196 619 L268 619 L268 540 L196 540 Z " />
<glyph glyph-name="Eogonek" unicode="&#x118;" horiz-adv-x="500" d="M402 0 Q393 -9 382 -21.5 Q371 -34 361.5 -47.5 Q352 -61 346 -75 Q340 -89 340 -101 Q340 -124 357 -136 Q374 -148 394 -148 Q410 -148 423.5 -145.5 Q437 -143 450 -138 L461 -178 Q444 -189 420.5 -194 Q397 -199 376 -199 Q334 -199 305.5 -178.5 Q277 -158 277 -120 Q277 -85 297 -54 Q317 -23 344 0 L70 0 L70 665 L462 665 L462 599 L148 599 L148 373 L437 373 L411 308 L148 308 L148 66 L462 66 L462 0 L402 0 Z " />
<glyph glyph-name="eogonek" unicode="&#x119;" horiz-adv-x="458" d="M410 263 Q410 246 409.5 235.5 Q409 225 409 217 L117 217 Q117 163 122.5 130.5 Q128 98 141 80.5 Q154 63 176 57.5 Q198 52 232 52 Q262 52 281 55 Q300 58 310.5 64 Q321 70 325.5 79 Q330 88 332 100 L336 132 L404 132 Q404 126 405 119 Q405 113 405.5 104.5 Q406 96 406 88 Q406 46 376 24 Q359 9 343 -7.5 Q327 -24 314.5 -40.5 Q302 -57 294 -73 Q286 -89 286 -101 Q286 -124 303 -136 Q320 -148 340 -148 Q356 -148 369.5 -145.5 Q383 -143 396 -138 L407 -178 Q390 -189 366.5 -194 Q343 -199 322 -199 Q280 -199 251.5 -178.5 Q223 -158 223 -120 Q223 -86 242.5 -55.5 Q262 -25 288 -2 Q275 -3 261 -3.5 Q247 -4 232 -4 Q181 -4 146 4.5 Q111 13 89 38.5 Q67 64 57.5 110 Q48 156 48 230 Q48 297 56.5 343 Q65 389 86 417 Q107 445 142.5 457 Q178 469 232 469 Q287 469 321.5 458.5 Q356 448 375.5 424 Q395 400 402.5 360.5 Q410 321 410 263 Z M343 274 Q343 351 318 382 Q293 413 232 413 Q200 413 178.5 406 Q157 399 144 383 Q131 367 125 340 Q119 313 118 274 L343 274 Z " />
<glyph glyph-name="Gcommaaccent" unicode="&#x122;" horiz-adv-x="604" d="M462 281 L330 281 L330 343 L535 343 L535 0 L470 0 L465 44 L460 44 Q441 18 404 5.5 Q367 -7 296 -7 Q223 -7 176 7 Q129 21 101.5 58.5 Q74 96 63 162 Q52 228 52 332 Q52 441 63 508 Q74 575 102.5 611.5 Q131 648 179.5 660 Q228 672 302 672 Q371 672 416 665 Q461 658 487.5 643.5 Q514 629 524.5 607 Q535 585 535 554 Q535 541 534.5 528 Q534 515 534 504 Q533 491 533 479 L459 479 L458 535 Q458 551 452 564 Q446 577 429.5 586 Q413 595 382.5 600 Q352 605 302 605 Q251 605 218 596 Q185 587 165.5 558 Q146 529 138.5 475.5 Q131 422 131 332 Q131 241 138 187.5 Q145 134 165.5 106.5 Q186 79 222 71 Q258 63 316 63 Q374 63 406.5 70.5 Q439 78 462 96 L462 281 Z M308 -229 L259 -229 L299 -120 L263 -120 L263 -38 L350 -38 L350 -120 L308 -229 Z " />
<glyph glyph-name="Imacron" unicode="&#x12a;" horiz-adv-x="221" d="M72 0 L72 665 L149 665 L149 0 L72 0 Z M6 747 L6 800 L216 800 L216 747 L6 747 Z " />
<glyph glyph-name="imacron" unicode="&#x12b;" horiz-adv-x="233" d="M95 0 L95 409 L7 409 L7 465 L167 465 L167 0 L95 0 Z M7 547 L7 600 L217 600 L217 547 L7 547 Z " />
<glyph glyph-name="Kcommaaccent" unicode="&#x136;" horiz-adv-x="592" d="M491 0 L206 310 L148 310 L148 0 L70 0 L70 665 L148 665 L148 372 L205 372 L463 665 L553 665 L270 345 L585 0 L491 0 Z M284 -229 L235 -229 L275 -120 L239 -120 L239 -38 L326 -38 L326 -120 L284 -229 Z " />
<glyph glyph-name="kcommaaccent" unicode="&#x137;" horiz-adv-x="432" d="M338 0 L175 223 L139 223 L139 0 L67 0 L67 665 L139 665 L139 280 L175 280 L328 465 L412 465 L234 251 L425 0 L338 0 Z M227 -229 L178 -229 L218 -120 L182 -120 L182 -38 L269 -38 L269 -120 L227 -229 Z " />
<glyph glyph-name="Lcommaaccent" unicode="&#x13b;" horiz-adv-x="461" d="M70 0 L70 665 L148 665 L148 66 L450 66 L450 0 L70 0 Z M264 -229 L215 -229 L255 -120 L219 -120 L219 -38 L306 -38 L306 -120 L264 -229 Z " />
<glyph glyph-name="lcommaaccent" unicode="&#x13c;" horiz-adv-x="208" d="M72 0 L72 609 L-17 609 L-17 665 L144 665 L144 0 L72 0 Z M109 -229 L60 -229 L100 -120 L64 -120 L64 -38 L151 -38 L151 -120 L109 -229 Z " />
<glyph glyph-name="Ncommaaccent" unicode="&#x145;" horiz-adv-x="664" d="M462 0 L155 597 L144 597 L144 0 L70 0 L70 665 L203 665 L510 67 L520 67 L520 665 L594 665 L594 0 L462 0 Z M333 -229 L284 -229 L324 -120 L288 -120 L288 -38 L375 -38 L375 -120 L333 -229 Z " />
<glyph glyph-name="ncommaaccent" unicode="&#x146;" horiz-adv-x="466" d="M262 471 Q345 471 377 438.5 Q409 406 409 339 L409 0 L337 0 L337 327 Q337 370 318.5 389.5 Q300 409 258 409 Q222 409 194 403.5 Q166 398 137 387 L137 0 L65 0 L65 465 L130 465 L135 428 Q158 447 189 459 Q220 471 262 471 Z M239 -229 L190 -229 L230 -120 L194 -120 L194 -38 L281 -38 L281 -120 L239 -229 Z " />
<glyph glyph-name="Umacron" unicode="&#x16a;" horiz-adv-x="615" d="M546 33 Q497 14 437 4 Q377 -6 306 -6 Q244 -6 199 2.5 Q154 11 125 35 Q96 59 82 101 Q68 143 68 209 L68 665 L145 665 L145 209 Q145 170 150.5 141.5 Q156 113 173.5 95 Q191 77 222.5 68 Q254 59 306 59 Q356 59 394.5 63 Q433 67 469 75 L469 665 L546 665 L546 33 Z M201 747 L201 800 L411 800 L411 747 L201 747 Z " />
<glyph glyph-name="umacron" unicode="&#x16b;" horiz-adv-x="471" d="M409 27 Q368 13 322 3 Q276 -7 227 -7 Q180 -7 147.5 3 Q115 13 95 36 Q75 59 66 95.5 Q57 132 57 186 L57 465 L129 465 L129 171 Q129 101 157 74 Q185 47 246 47 Q269 47 291.5 50 Q314 53 337 61 L337 465 L409 465 L409 27 Z M128 547 L128 600 L338 600 L338 547 L128 547 Z " />
<glyph glyph-name="Uogonek" unicode="&#x172;" horiz-adv-x="615" d="M546 33 Q537 29 527.5 26 Q518 23 508 20 Q493 6 478 -10 Q463 -26 451 -42.5 Q439 -59 432 -74.5 Q425 -90 425 -101 Q425 -124 442 -136 Q459 -148 479 -148 Q495 -148 508.5 -145.5 Q522 -143 535 -138 L546 -178 Q529 -189 505.5 -194 Q482 -199 461 -199 Q419 -199 390.5 -178.5 Q362 -158 362 -120 Q362 -84 383 -52 Q404 -20 433 3 Q404 -1 372 -3.5 Q340 -6 306 -6 Q244 -6 199 2.5 Q154 11 125 35 Q96 59 82 101 Q68 143 68 209 L68 665 L145 665 L145 209 Q145 170 150.5 141.5 Q156 113 173.5 95 Q191 77 222.5 68 Q254 59 306 59 Q356 59 394.5 63 Q433 67 469 75 L469 665 L546 665 L546 33 Z " />
<glyph glyph-name="uogonek" unicode="&#x173;" horiz-adv-x="471" d="M363 12 Q349 -2 336 -17 Q323 -32 312.5 -47.5 Q302 -63 295.5 -77 Q289 -91 289 -101 Q289 -124 306 -136 Q323 -148 343 -148 Q359 -148 372.5 -145.5 Q386 -143 399 -138 L410 -178 Q393 -189 369.5 -194 Q346 -199 325 -199 Q283 -199 254.5 -178.5 Q226 -158 226 -120 Q226 -86 245 -55.5 Q264 -25 290 -2 Q274 -4 258.5 -5.5 Q243 -7 227 -7 Q180 -7 147.5 3 Q115 13 95 36 Q75 59 66 95.5 Q57 132 57 186 L57 465 L129 465 L129 171 Q129 101 157 74 Q185 47 246 47 Q269 47 291.5 50 Q314 53 337 61 L337 465 L409 465 L409 27 L363 12 Z " />
<glyph glyph-name="amacron" unicode="&#x101;" horiz-adv-x="473" d="M353 0 L345 44 L338 44 Q320 21 291 8 Q262 -5 214 -5 Q122 -5 82.5 28 Q43 61 43 138 Q43 174 51 200.5 Q59 227 79 245 Q99 263 132.5 271.5 Q166 280 218 280 Q270 280 302 278.5 Q334 277 339 277 L339 316 Q339 345 335.5 363.5 Q332 382 321.5 392.5 Q311 403 291 406.5 Q271 410 239 410 Q200 410 173.5 400.5 Q147 391 143 368 L138 338 L67 338 Q66 347 66 356 Q65 364 65 373 Q65 382 65 392 Q65 410 78 424.5 Q91 439 114 448.5 Q137 458 169.5 463.5 Q202 469 240 469 Q292 469 325 463 Q358 457 377 441.5 Q396 426 403.5 400 Q411 374 411 334 L411 0 L353 0 Z M339 225 L225 225 Q165 225 141.5 205 Q118 185 118 139 Q118 88 144 70 Q170 52 225 52 Q284 52 311.5 75.5 Q339 99 339 162 L339 225 Z M135 547 L135 600 L345 600 L345 547 L135 547 Z " />
<glyph glyph-name="zero" unicode="0" horiz-adv-x="561" d="M505 332 Q505 230 497.5 164.5 Q490 99 466.5 61 Q443 23 399 8 Q355 -7 281 -7 Q208 -7 163.5 8 Q119 23 95 61 Q71 99 63.5 164.5 Q56 230 56 332 Q56 438 64.5 504 Q73 570 98 607 Q123 644 167 657.5 Q211 671 282 671 Q357 671 401.5 655.5 Q446 640 469 602 Q492 564 498.5 498 Q505 432 505 332 Z M426 332 Q426 419 422 472.5 Q418 526 403 555.5 Q388 585 359.5 595 Q331 605 282 605 Q235 605 206.5 595 Q178 585 162 555.5 Q146 526 141 472.5 Q136 419 136 332 Q136 249 140.5 196 Q145 143 160 112.5 Q175 82 203.5 70.5 Q232 59 281 59 Q330 59 359 70.5 Q388 82 403 112.5 Q418 143 422 196 Q426 249 426 332 Z " />
<glyph glyph-name="one" unicode="1" horiz-adv-x="407" d="M70 0 L70 65 L186 65 L186 600 L57 574 L57 637 L185 665 L264 665 L264 65 L369 65 L369 0 L70 0 Z " />
<glyph glyph-name="two" unicode="2" horiz-adv-x="565" d="M507 482 Q507 426 498.5 388.5 Q490 351 472.5 327 Q455 303 428.5 290.5 Q402 278 366 272 L233 251 Q183 243 161.5 214 Q140 185 140 120 L140 65 L499 65 L499 0 L62 0 L62 120 Q62 161 69.5 195.5 Q77 230 94.5 255.5 Q112 281 140.5 297.5 Q169 314 211 320 L334 338 Q361 342 378.5 349 Q396 356 406.5 371.5 Q417 387 421 413.5 Q425 440 425 482 Q425 518 418.5 542.5 Q412 567 395.5 581.5 Q379 596 350 602.5 Q321 609 277 609 Q236 609 210 605 Q184 601 169.5 591.5 Q155 582 150 567 Q145 552 145 530 L144 469 L70 469 Q68 485 66 501 Q64 515 63 528.5 Q62 542 62 552 Q62 580 71.5 602 Q81 624 105.5 639.5 Q130 655 171.5 663 Q213 671 277 671 Q345 671 389.5 661 Q434 651 460 628.5 Q486 606 496.5 570 Q507 534 507 482 Z " />
<glyph glyph-name="three" unicode="3" horiz-adv-x="559" d="M504 190 Q504 133 491.5 95 Q479 57 450.5 34.5 Q422 12 377 2.5 Q332 -7 267 -7 Q201 -7 157.5 0 Q114 7 88.5 22 Q63 37 53 59.5 Q43 82 43 113 Q43 131 46 152 Q49 173 51 184 L121 184 L124 119 Q125 103 132 91.5 Q139 80 155.5 72.5 Q172 65 199 61 Q226 57 267 57 Q313 57 343 62.5 Q373 68 391 82.5 Q409 97 416 123 Q423 149 423 190 Q423 223 419.5 247 Q416 271 403 286.5 Q390 302 364 309.5 Q338 317 294 317 L241 317 L241 394 L413 588 L413 600 L134 600 L134 509 L60 509 L60 665 L490 665 L490 582 L315 385 L315 373 Q369 373 405 366.5 Q441 360 463 340 Q485 320 494.5 284 Q504 248 504 190 Z " />
<glyph glyph-name="four" unicode="4" horiz-adv-x="543" d="M360 0 L360 152 L27 152 L27 232 L317 665 L437 665 L437 218 L521 218 L494 152 L437 152 L437 0 L360 0 Z M360 593 L357 593 L101 223 L101 218 L360 218 L360 593 Z " />
<glyph glyph-name="five" unicode="5" horiz-adv-x="565" d="M509 223 Q509 152 497 107.5 Q485 63 457 37.5 Q429 12 383.5 2.5 Q338 -7 271 -7 Q213 -7 172.5 0.5 Q132 8 107 22.5 Q82 37 71 56.5 Q60 76 60 100 Q60 109 60.5 123 Q61 137 62 150 Q63 165 65 182 L140 182 L144 122 Q146 104 151.5 91.5 Q157 79 173 72 Q192 64 222.5 60 Q253 56 291 56 Q326 56 352 61.5 Q378 67 395 84.5 Q412 102 420 135 Q428 168 428 223 Q428 270 424.5 302 Q421 334 407.5 353.5 Q394 373 367 381.5 Q340 390 294 390 Q219 390 185 374.5 Q151 359 143 326 L67 326 L67 665 L478 665 L478 600 L144 600 L144 397 Q168 427 205 441 Q242 455 305 455 Q368 455 407.5 443 Q447 431 469.5 403.5 Q492 376 500.5 331.5 Q509 287 509 223 Z " />
<glyph glyph-name="six" unicode="6" horiz-adv-x="589" d="M522 200 Q522 146 510.5 107 Q499 68 472.5 43 Q446 18 403.5 6 Q361 -6 299 -6 Q228 -6 183.5 6 Q139 18 113.5 54.5 Q88 91 79 157 Q70 223 70 331 Q70 439 79 505.5 Q88 572 113 608.5 Q138 645 182.5 658 Q227 671 297 671 Q412 671 462 639 Q512 607 512 550 Q512 542 511 531 Q510 520 508 509 Q506 497 505 484 L432 484 L428 543 Q427 561 420.5 573.5 Q414 586 398.5 594.5 Q383 603 357.5 606.5 Q332 610 292 610 Q249 610 221.5 600.5 Q194 591 178 567 Q162 543 156 502 Q150 461 150 398 L150 370 Q174 391 214 403 Q254 415 314 415 Q374 415 414 403 Q454 391 478 365.5 Q502 340 512 299 Q522 258 522 200 Z M445 200 Q445 245 437.5 274.5 Q430 304 413.5 321.5 Q397 339 370 346 Q343 353 303 353 Q255 353 217 345.5 Q179 338 150 321 Q150 238 154.5 186 Q159 134 174 105.5 Q189 77 218.5 67 Q248 57 298 57 Q338 57 366 63.5 Q394 70 411.5 86 Q429 102 437 129.5 Q445 157 445 200 Z " />
<glyph glyph-name="seven" unicode="7" horiz-adv-x="513" d="M193 0 L110 0 L404 577 L404 600 L115 600 L115 501 L45 501 L45 665 L481 665 L481 567 L193 0 Z " />
<glyph glyph-name="eight" unicode="8" horiz-adv-x="563" d="M509 179 Q509 129 499.5 93.5 Q490 58 465 36 Q440 14 396.5 4 Q353 -6 285 -6 Q217 -6 173 4 Q129 14 103 36 Q77 58 66.5 93.5 Q56 129 56 179 Q56 219 61.5 248.5 Q67 278 80.5 297.5 Q94 317 115.5 328 Q137 339 169 343 L169 350 Q137 354 117 366.5 Q97 379 85.5 398.5 Q74 418 69.5 444 Q65 470 65 502 Q65 555 79.5 588 Q94 621 122 639.5 Q150 658 191 664.5 Q232 671 285 671 Q335 671 375.5 665 Q416 659 444.5 640.5 Q473 622 488.5 589 Q504 556 504 502 Q504 470 500 444.5 Q496 419 484 400 Q472 381 451 368.5 Q430 356 396 350 L396 343 Q459 335 484 297.5 Q509 260 509 179 Z M429 179 Q429 218 423 243 Q417 268 401 283 Q385 298 357 304 Q329 310 285 310 Q242 310 214 304 Q186 298 169.5 283.5 Q153 269 146 243.5 Q139 218 139 179 Q139 144 145 121 Q151 98 167.5 84 Q184 70 212.5 64.5 Q241 59 285 59 Q329 59 357 64 Q385 69 401 82.5 Q417 96 423 119.5 Q429 143 429 179 Z M422 502 Q422 530 416.5 549.5 Q411 569 396 581.5 Q381 594 354 599.5 Q327 605 285 605 Q242 605 215 599.5 Q188 594 172.5 581.5 Q157 569 151 549.5 Q145 530 145 502 Q145 464 150.5 439.5 Q156 415 171.5 400.5 Q187 386 214.5 380.5 Q242 375 285 375 Q325 375 351.5 380.5 Q378 386 393.5 400 Q409 414 415.5 439 Q422 464 422 502 Z " />
<glyph glyph-name="nine" unicode="9" horiz-adv-x="561" d="M57 460 Q57 516 68.5 556 Q80 596 106 621.5 Q132 647 175 659 Q218 671 281 671 Q348 671 391.5 659.5 Q435 648 460.5 617.5 Q486 587 496 533.5 Q506 480 506 396 L506 263 Q506 189 497 138 Q488 87 463 55 Q438 23 394 8.5 Q350 -6 280 -6 Q176 -6 120.5 24 Q65 54 65 108 Q65 118 65.5 131 Q66 144 68 155 Q69 168 71 181 L144 181 L149 117 Q150 102 156 90.5 Q162 79 176 71.5 Q190 64 215 60.5 Q240 57 280 57 Q331 57 360 66.5 Q389 76 404 102.5 Q419 129 422.5 175.5 Q426 222 426 297 Q402 274 363.5 261.5 Q325 249 265 249 Q205 249 165 260.5 Q125 272 101 297.5 Q77 323 67 363 Q57 403 57 460 Z M137 460 Q137 416 143.5 387.5 Q150 359 166 342.5 Q182 326 208.5 319.5 Q235 313 276 313 Q335 313 369.5 322 Q404 331 426 343 L426 417 Q426 478 418 514.5 Q410 551 392.5 571 Q375 591 347.5 597.5 Q320 604 281 604 Q238 604 210.5 597 Q183 590 166.5 573.5 Q150 557 143.5 529.5 Q137 502 137 460 Z " />
<glyph glyph-name="gcommaaccent" unicode="&#x123;" horiz-adv-x="443" d="M351 409 L351 403 Q363 393 373 368.5 Q383 344 383 309 Q383 262 375 231 Q367 200 348 181.5 Q329 163 297 155 Q265 147 216 147 Q202 147 185.5 148.5 Q169 150 151 150 Q118 150 108.5 138.5 Q99 127 99 103 Q99 79 111.5 69.5 Q124 60 156 60 Q168 60 185 60.5 Q202 61 219 62 Q236 63 251.5 63.5 Q267 64 275 64 Q316 64 343.5 57.5 Q371 51 387.5 35.5 Q404 20 410.5 -5.5 Q417 -31 417 -70 Q417 -105 409.5 -130 Q402 -155 380.5 -171 Q359 -187 320.5 -194 Q282 -201 221 -201 Q163 -201 127.5 -196 Q92 -191 72.5 -181 Q53 -171 46 -156.5 Q39 -142 39 -123 Q39 -115 39 -105.5 Q39 -96 40 -87 Q41 -76 42 -65 L113 -65 L116 -106 Q117 -118 122 -125.5 Q127 -133 139 -137.5 Q151 -142 171.5 -143.5 Q192 -145 222 -145 Q263 -145 288 -141 Q313 -137 326 -128 Q339 -119 343 -104.5 Q347 -90 347 -69 Q347 -30 332.5 -15 Q318 0 274 0 Q264 0 247.5 -0.5 Q231 -1 213.5 -1.5 Q196 -2 180.5 -2.5 Q165 -3 156 -3 Q118 -3 95 2.5 Q72 8 60 20 Q48 32 44 50 Q40 68 40 92 Q40 118 55 141 Q70 164 97 171 L97 172 Q70 186 55 217.5 Q40 249 40 309 Q40 352 48 382.5 Q56 413 76.5 432.5 Q97 452 131 460.5 Q165 469 217 469 Q236 469 250 468.5 Q264 468 273 467 Q284 466 290 465 L426 465 L426 409 L351 409 Z M311 309 Q311 338 307.5 358.5 Q304 379 294 392.5 Q284 406 265.5 412 Q247 418 217 418 Q185 418 165 413 Q145 408 133.5 395.5 Q122 383 118 362 Q114 341 114 309 Q114 277 118.5 256 Q123 235 134 222.5 Q145 210 165 204.5 Q185 199 216 199 Q246 199 265 205 Q284 211 294 224.5 Q304 238 307.5 259 Q311 280 311 309 Z M212 684 L259 684 L219 575 L257 575 L257 493 L169 493 L169 575 L212 684 Z " />
<glyph glyph-name="dollar" unicode="&#x24;" horiz-adv-x="537" d="M238 -7 Q184 -6 148.5 2 Q113 10 91 23.5 Q69 37 60 56 Q51 75 51 99 Q51 113 51 126.5 Q51 140 52 150 Q52 161 53 171 L124 171 L127 118 Q127 89 151 74 Q175 59 238 56 L238 316 L212 318 Q171 321 139.5 329.5 Q108 338 86.5 356.5 Q65 375 53.5 407 Q42 439 42 490 Q42 539 52 572.5 Q62 606 85.5 627 Q109 648 146.5 658 Q184 668 238 670 L238 727 L296 727 L296 671 Q350 669 385 660.5 Q420 652 440 638 Q460 624 468 605 Q476 586 476 563 Q476 540 474 520.5 Q472 501 471 493 L401 493 L399 538 Q397 555 392 567.5 Q387 580 375.5 589 Q364 598 345 602.5 Q326 607 296 609 L296 376 L347 374 Q374 373 400.5 366 Q427 359 448 339.5 Q469 320 482.5 283.5 Q496 247 496 188 Q496 135 484 99 Q472 63 447.5 40.5 Q423 18 385.5 7.5 Q348 -3 296 -6 L296 -75 L238 -75 L238 -7 Z M420 189 Q420 225 413.5 248 Q407 271 392 284.5 Q377 298 353.5 303.5 Q330 309 296 311 L296 57 Q332 60 355.5 68 Q379 76 393.5 91.5 Q408 107 414 131 Q420 155 420 189 Z M118 490 Q118 458 124 438 Q130 418 144 406 Q158 394 181 388.5 Q204 383 238 381 L238 609 Q200 607 177 599.5 Q154 592 140.5 577.5 Q127 563 122.5 541.5 Q118 520 118 490 Z " />
<glyph glyph-name="cent" unicode="&#xa2;" horiz-adv-x="575" d="M270 67 Q208 69 169.5 80.5 Q131 92 109.5 119 Q88 146 80.5 190.5 Q73 235 73 304 Q73 372 81.5 416.5 Q90 461 111.5 487.5 Q133 514 171.5 525.5 Q210 537 270 539 L270 609 L328 609 L328 539 Q380 537 415 530 Q450 523 470.5 512 Q491 501 499.5 486.5 Q508 472 508 456 Q508 447 507.5 438.5 Q507 430 507 423 Q506 415 506 408 L434 408 L432 438 Q430 457 406.5 467 Q383 477 328 480 L328 124 Q369 125 391 130 Q413 135 423 143.5 Q433 152 435 165 Q437 178 437 196 L508 196 Q509 192 509 181 Q509 170 509 156 Q509 136 501.5 120 Q494 104 474 92.5 Q454 81 418.5 74.5 Q383 68 328 67 L328 0 L270 0 L270 67 Z M147 301 Q147 249 151.5 216 Q156 183 169 163 Q182 143 206 134.5 Q230 126 270 124 L270 480 Q231 478 206.5 469.5 Q182 461 169 441.5 Q156 422 151.5 388 Q147 354 147 301 Z " />
<glyph glyph-name="Emacron" unicode="&#x112;" horiz-adv-x="500" d="M70 0 L70 665 L462 665 L462 599 L148 599 L148 373 L437 373 L411 308 L148 308 L148 66 L462 66 L462 0 L70 0 Z M168 747 L168 800 L378 800 L378 747 L168 747 Z " />
<glyph glyph-name="emacron" unicode="&#x113;" horiz-adv-x="458" d="M410 263 Q410 246 409.5 235.5 Q409 225 409 217 L117 217 Q117 163 122.5 130.5 Q128 98 141 80.5 Q154 63 176 57.5 Q198 52 232 52 Q262 52 281 55 Q300 58 310.5 64 Q321 70 325.5 79 Q330 88 332 100 L336 132 L404 132 Q404 126 405 119 Q405 113 405.5 104.5 Q406 96 406 88 Q406 37 364 16.5 Q322 -4 232 -4 Q181 -4 146 4.5 Q111 13 89 38.5 Q67 64 57.5 110 Q48 156 48 230 Q48 297 56.5 343 Q65 389 86 417 Q107 445 142.5 457 Q178 469 232 469 Q287 469 321.5 458.5 Q356 448 375.5 424 Q395 400 402.5 360.5 Q410 321 410 263 Z M343 274 Q343 351 318 382 Q293 413 232 413 Q200 413 178.5 406 Q157 399 144 383 Q131 367 125 340 Q119 313 118 274 L343 274 Z M126 547 L126 600 L336 600 L336 547 L126 547 Z " />
<glyph glyph-name="Iogonek" unicode="&#x12e;" horiz-adv-x="221" d="M149 0 Q135 -5 124.5 -11.5 Q114 -18 107 -25 Q93 -39 80.5 -61 Q68 -83 68 -101 Q68 -124 85 -136 Q102 -148 122 -148 Q138 -148 151.5 -145.5 Q165 -143 178 -138 L189 -178 Q172 -189 148.5 -194 Q125 -199 104 -199 Q62 -199 33.5 -178.5 Q5 -158 5 -120 Q5 -85 25 -54 Q45 -23 72 0 L72 665 L149 665 L149 0 Z " />
<glyph glyph-name="iogonek" unicode="&#x12f;" horiz-adv-x="232" d="M167 0 Q144 -10 132 -20 Q120 -30 106 -49 Q97 -61 92 -75 Q87 -89 87 -101 Q87 -124 104 -136 Q121 -148 141 -148 Q157 -148 170.5 -145.5 Q184 -143 197 -138 L208 -178 Q191 -189 167.5 -194 Q144 -199 123 -199 Q81 -199 52.5 -178.5 Q24 -158 24 -120 Q24 -84 45 -52 Q66 -20 95 3 L95 409 L7 409 L7 465 L167 465 L167 0 Z M95 530 L95 609 L167 609 L167 530 L95 530 Z " />
<glyph glyph-name="eth" unicode="&#xf0;" horiz-adv-x="462" d="M141 550 L216 595 L161 665 L240 665 L269 627 L333 665 L359 623 L300 587 Q331 546 353 506.5 Q375 467 388.5 424 Q402 381 408 332.5 Q414 284 414 226 Q414 166 408 122.5 Q402 79 383.5 51 Q365 23 330.5 9.5 Q296 -4 239 -4 Q180 -4 142.5 5 Q105 14 84 39 Q63 64 55.5 109 Q48 154 48 226 Q48 305 56.5 353 Q65 401 84.5 426.5 Q104 452 136 460 Q168 468 215 468 Q251 468 273 462.5 Q295 457 306 452 Q303 461 297 474 Q291 487 282.5 501 Q274 515 265 529.5 Q256 544 247 555 L167 507 L141 550 Z M340 226 Q340 278 337.5 313.5 Q335 349 323.5 371 Q312 393 289.5 402.5 Q267 412 228 412 Q194 412 173 407 Q152 402 140.5 383 Q129 364 125 327 Q121 290 121 226 Q121 169 125 134.5 Q129 100 141.5 82 Q154 64 177 58 Q200 52 238 52 Q275 52 295.5 62 Q316 72 326 93 Q336 114 338 147 Q340 180 340 226 Z " />
<glyph glyph-name="Lslash" unicode="&#x141;" horiz-adv-x="466" d="M70 0 L70 245 L6 182 L6 258 L70 321 L70 665 L148 665 L148 399 L289 539 L289 463 L148 323 L148 66 L450 66 L450 0 L70 0 Z " />
</font>
</svg>
