<?xml version="1.0" encoding="UTF-8"?>
<svg xmlns="http://www.w3.org/2000/svg" xmlns:xlink="http://www.w3.org/1999/xlink" version="1.2" >
<font id="DanskeNarrowSemibold">
<font-face  font-family="DanskeNarrow" units-per-em="1000" ascent="665" descent="-196" font-style="normal" font-weight="600" font-stretch="normal" cap-height="665" x-height="465" underline-position="-123" underline-thickness="20" />
<missing-glyph  horiz-adv-x="72" d="" />
<glyph glyph-name="NULL" d="" />
<glyph glyph-name="nonmarkingreturn" unicode="&#xd;" horiz-adv-x="224" d="" />
<glyph glyph-name="space" unicode="&#x20;" horiz-adv-x="224" d="" />
<glyph glyph-name="Thorn" unicode="&#xde;" horiz-adv-x="558" d="M515 351 Q515 235 462.5 184.5 Q410 134 314 134 L172 134 L172 0 L65 0 L65 665 L172 665 L172 570 L314 570 Q420 570 467.5 514.5 Q515 459 515 351 Z M406 351 Q406 425 382.5 455 Q359 485 311 485 L172 485 L172 219 L311 219 Q362 219 384 250 Q406 281 406 351 Z " />
<glyph glyph-name="thorn" unicode="&#xfe;" horiz-adv-x="474" d="M435 233 Q435 160 426.5 113.5 Q418 67 398 40.5 Q378 14 345.5 4 Q313 -6 265 -6 Q231 -6 202 2 Q173 10 159 18 L159 -196 L58 -196 L58 665 L159 665 Q159 605 158.5 545 Q158 485 158 425 Q172 442 201.5 456.5 Q231 471 280 471 Q323 471 352.5 461 Q382 451 400.5 424 Q419 397 427 351 Q435 305 435 233 Z M335 233 Q335 285 330.5 316.5 Q326 348 316.5 365 Q307 382 290.5 388 Q274 394 250 394 Q219 394 201 387 Q183 380 173.5 365 Q164 350 161.5 326 Q159 302 159 268 L159 83 Q179 78 200.5 75.5 Q222 73 248 73 Q275 73 291.5 79 Q308 85 318 102 Q328 119 331.5 150.5 Q335 182 335 233 Z " />
<glyph glyph-name="onehalf" unicode="&#xbd;" horiz-adv-x="780" d="M234 0 L141 0 L520 665 L613 665 L234 0 Z M63 283 L63 345 L122 345 L122 596 L57 582 L57 650 L128 665 L207 665 L207 345 L260 345 L260 283 L63 283 Z M736 273 Q736 213 713 187.5 Q690 162 648 155 L579 144 Q555 140 549 122.5 Q543 105 543 64 L731 64 L731 0 L456 0 L456 85 Q456 136 477 167 Q498 198 546 204 L605 212 Q626 214 636 225 Q646 236 646 271 Q646 293 634 305.5 Q622 318 596 318 Q564 318 555.5 306 Q547 294 547 271 L464 271 Q462 278 461 286 Q460 293 459.5 300.5 Q459 308 459 316 Q459 332 465 344.5 Q471 357 486 365.5 Q501 374 527.5 378.5 Q554 383 596 383 Q674 383 705 358.5 Q736 334 736 273 Z " />
<glyph glyph-name="onequarter" unicode="&#xbc;" horiz-adv-x="778" d="M711 83 L677 83 L677 0 L590 0 L590 83 L401 83 L401 163 L544 381 L677 381 L677 147 L734 147 L711 83 Z M238 0 L146 0 L525 665 L618 665 L238 0 Z M63 283 L63 345 L122 345 L122 596 L57 582 L57 650 L128 665 L207 665 L207 345 L260 345 L260 283 L63 283 Z M590 253 Q590 271 590.5 286.5 Q591 302 592 313 L584 313 Q577 302 570 291 Q564 281 557 270 Q550 259 544 251 L478 153 L478 147 L590 147 L590 253 Z " />
<glyph glyph-name="onesuperior" unicode="&#xb9;" horiz-adv-x="366" d="M88 284 L88 346 L147 346 L147 596 L80 582 L80 651 L154 665 L232 665 L232 346 L285 346 L285 284 L88 284 Z " />
<glyph glyph-name="threequarters" unicode="&#xbe;" horiz-adv-x="773" d="M262 0 L171 0 L548 665 L642 665 L262 0 Z M324 400 Q324 366 316 343 Q308 320 291 306.5 Q274 293 245.5 287 Q217 281 177 281 Q96 281 66.5 299.5 Q37 318 37 353 Q37 358 37.5 364 Q38 370 39 375 Q40 380 41 386 L127 386 Q127 362 136 353 Q145 344 177 344 Q212 344 224 356 Q236 368 236 400 Q236 423 227 434 Q218 445 183 445 L134 445 L134 498 L234 598 L234 602 L125 602 L125 566 L45 566 L45 665 L317 665 L317 592 L227 509 L227 508 Q252 507 270.5 502 Q289 497 301 485 Q313 473 318.5 452.5 Q324 432 324 400 Z M722 83 L688 83 L688 0 L601 0 L601 83 L413 83 L413 163 L554 381 L688 381 L688 147 L744 147 L722 83 Z M601 253 Q601 272 601.5 288 Q602 304 603 313 L595 313 Q588 302 578.5 286.5 Q569 271 555 251 L490 153 L490 147 L601 147 L601 253 Z " />
<glyph glyph-name="threesuperior" unicode="&#xb3;" horiz-adv-x="358" d="M321 398 Q321 331 287.5 305 Q254 279 173 279 Q132 279 105.5 284 Q79 289 63 298 Q47 307 40.5 320.5 Q34 334 34 352 Q34 357 34.5 362.5 Q35 368 36 373 Q37 378 39 384 L122 384 Q122 360 132 351.5 Q142 343 174 343 Q208 343 219.5 355 Q231 367 231 398 Q231 422 222.5 433.5 Q214 445 180 445 L130 445 L130 498 L230 598 L230 602 L121 602 L121 566 L42 566 L42 665 L314 665 L314 592 L223 508 L223 507 Q248 506 266.5 501 Q285 496 297 483.5 Q309 471 315 450.5 Q321 430 321 398 Z " />
<glyph glyph-name="twosuperior" unicode="&#xb2;" horiz-adv-x="349" d="M318 557 Q318 497 295 471.5 Q272 446 230 439 L161 428 Q137 424 131 406.5 Q125 389 125 348 L313 348 L313 284 L38 284 L38 369 Q38 420 58.5 451 Q79 482 128 488 L187 496 Q208 498 217.5 509 Q227 520 227 555 Q227 577 215.5 589.5 Q204 602 178 602 Q146 602 137.5 590 Q129 578 129 555 L46 555 Q44 562 43 570 Q42 577 41.5 584.5 Q41 592 41 600 Q41 616 46.5 628.5 Q52 641 67.5 649.5 Q83 658 109.5 662.5 Q136 667 178 667 Q255 667 286.5 642.5 Q318 618 318 557 Z " />
<glyph glyph-name="brokenbar" unicode="&#xa6;" horiz-adv-x="214" d="M60 334 L60 665 L151 665 L151 334 L60 334 Z M60 -185 L60 142 L151 142 L151 -185 L60 -185 Z " />
<glyph glyph-name="minus" unicode="&#x2212;" horiz-adv-x="555" d="M55 281 L55 365 L500 365 L500 281 L55 281 Z " />
<glyph glyph-name="multiply" unicode="&#xd7;" horiz-adv-x="555" d="M338 331 L473 197 L413 137 L278 271 L144 137 L84 197 L218 331 L85 465 L145 525 L278 391 L412 525 L472 465 L338 331 Z " />
<glyph glyph-name="lslash" unicode="&#x142;" horiz-adv-x="220" d="M62 0 L62 209 L4 152 L4 258 L62 315 L62 594 L-21 594 L-21 665 L161 665 L161 413 L217 469 L217 363 L161 307 L161 0 L62 0 Z " />
<glyph glyph-name="exclam" unicode="&#x21;" horiz-adv-x="233" d="M166 190 L68 190 L61 665 L173 665 L166 190 Z M61 0 L61 108 L172 108 L172 0 L61 0 Z " />
<glyph glyph-name="quotedbl" unicode="&#x22;" horiz-adv-x="294" d="M113 399 L38 399 L29 665 L119 665 L113 399 Z M255 399 L180 399 L173 665 L261 665 L255 399 Z " />
<glyph glyph-name="numbersign" unicode="&#x23;" horiz-adv-x="556" d="M306 205 L214 205 L188 0 L105 0 L130 205 L31 205 L42 278 L138 278 L154 388 L56 388 L66 461 L163 461 L188 665 L273 665 L247 461 L338 461 L364 665 L448 665 L422 461 L520 461 L510 388 L414 388 L398 278 L495 278 L485 205 L390 205 L363 0 L280 0 L306 205 Z M222 278 L314 278 L329 388 L238 388 L222 278 Z " />
<glyph glyph-name="percent" unicode="&#x25;" horiz-adv-x="761" d="M237 0 L146 0 L522 665 L616 665 L237 0 Z M720 160 Q720 113 715.5 81.5 Q711 50 696.5 31 Q682 12 654.5 4 Q627 -4 582 -4 Q538 -4 511.5 4 Q485 12 471 31 Q457 50 452 81.5 Q447 113 447 160 Q447 209 452.5 240.5 Q458 272 473 290.5 Q488 309 515 316 Q542 323 584 323 Q629 323 656 315 Q683 307 697.5 288.5 Q712 270 716 238.5 Q720 207 720 160 Z M636 160 Q636 190 635 210.5 Q634 231 629 244 Q624 257 613.5 262.5 Q603 268 584 268 Q567 268 556.5 263 Q546 258 540 246 Q534 234 532 213 Q530 192 530 160 Q530 129 532 108 Q534 87 539.5 74 Q545 61 555 55.5 Q565 50 582 50 Q601 50 611.5 56 Q622 62 627.5 75 Q633 88 634.5 109 Q636 130 636 160 Z M314 506 Q314 459 309.5 427 Q305 395 290.5 376 Q276 357 248.5 349 Q221 341 176 341 Q132 341 105.5 349 Q79 357 65 376 Q51 395 46 427 Q41 459 41 506 Q41 555 46.5 586.5 Q52 618 67 636 Q82 654 109 661 Q136 668 179 668 Q224 668 251 660.5 Q278 653 292 634 Q306 615 310 584 Q314 553 314 506 Z M230 506 Q230 536 229 556.5 Q228 577 223 590 Q218 603 207.5 608.5 Q197 614 179 614 Q162 614 151 609 Q140 604 134 592 Q128 580 125.5 559 Q123 538 123 506 Q123 475 125 454 Q127 433 133 420 Q139 407 149 401.5 Q159 396 176 396 Q194 396 205 402 Q216 408 221.5 421 Q227 434 228.5 455 Q230 476 230 506 Z " />
<glyph glyph-name="ampersand" unicode="&#x26;" horiz-adv-x="607" d="M479 0 L439 37 Q417 17 374.5 5.5 Q332 -6 257 -6 Q195 -6 153 5 Q111 16 85.5 39.5 Q60 63 49.5 99 Q39 135 39 186 Q39 228 45.5 259 Q52 290 66.5 312.5 Q81 335 104 349.5 Q127 364 159 374 Q124 415 104.5 449.5 Q85 484 85 525 Q85 599 125.5 635 Q166 671 265 671 Q315 671 349.5 662 Q384 653 405.5 633 Q427 613 436.5 581 Q446 549 446 503 Q446 466 437.5 439.5 Q429 413 411.5 393.5 Q394 374 366.5 360.5 Q339 347 302 335 L423 215 L423 295 L525 295 L525 224 Q525 186 519.5 155 Q514 124 503 109 L600 0 L479 0 Z M335 504 Q335 558 318.5 577.5 Q302 597 267 597 Q229 597 212 581 Q195 565 195 530 Q195 503 203.5 477.5 Q212 452 230 429 L251 404 L278 412 Q307 421 321 443 Q335 465 335 504 Z M215 294 Q179 285 165 260 Q151 235 151 184 Q151 156 155.5 136 Q160 116 173 103 Q186 90 208.5 84 Q231 78 266 78 Q314 78 342 86 Q370 94 382 115 L215 294 Z " />
<glyph glyph-name="quotesingle" unicode="&#x27;" horiz-adv-x="150" d="M113 399 L37 399 L27 665 L120 665 L113 399 Z " />
<glyph glyph-name="parenleft" unicode="&#x28;" horiz-adv-x="272" d="M154 -28 Q154 -78 171.5 -97.5 Q189 -117 235 -122 L235 -201 L219 -201 Q174 -201 144 -193 Q114 -185 95 -164 Q76 -143 68 -106 Q60 -69 60 -11 L60 481 Q60 539 68 576 Q76 613 95 634 Q114 655 144 663 Q174 671 219 671 L235 671 L235 592 Q189 587 171.5 567.5 Q154 548 154 498 L154 -28 Z " />
<glyph glyph-name="parenright" unicode="&#x29;" horiz-adv-x="272" d="M34 -122 Q80 -117 98 -97.5 Q116 -78 116 -28 L116 498 Q116 547 98 567 Q80 587 34 592 L34 671 L50 671 Q95 671 125.5 663 Q156 655 174.5 634 Q193 613 201 576 Q209 539 209 481 L209 -11 Q209 -69 201 -106 Q193 -143 174.5 -164 Q156 -185 125.5 -193 Q95 -201 50 -201 L34 -201 L34 -122 Z " />
<glyph glyph-name="asterisk" unicode="&#x2a;" horiz-adv-x="436" d="M271 480 L343 380 L286 337 L215 438 L141 337 L82 380 L157 480 L39 523 L62 592 L178 551 L178 665 L252 665 L252 551 L369 592 L390 523 L271 480 Z " />
<glyph glyph-name="plus" unicode="&#x2b;" horiz-adv-x="555" d="M324 281 L324 107 L231 107 L231 281 L56 281 L56 365 L231 365 L231 539 L324 539 L324 365 L498 365 L498 281 L324 281 Z " />
<glyph glyph-name="comma" unicode="&#x2c;" horiz-adv-x="203" d="M112 -109 L48 -109 L92 0 L45 0 L45 106 L158 106 L158 0 L112 -109 Z " />
<glyph glyph-name="hyphen" unicode="&#x2d;" horiz-adv-x="351" d="M34 201 L34 285 L317 285 L317 201 L34 201 Z " />
<glyph glyph-name="period" unicode="&#x2e;" horiz-adv-x="203" d="M45 0 L45 106 L158 106 L158 0 L45 0 Z " />
<glyph glyph-name="slash" unicode="&#x2f;" horiz-adv-x="400" d="M13 -197 L301 665 L386 665 L96 -197 L13 -197 Z " />
<glyph glyph-name="colon" unicode="&#x3a;" horiz-adv-x="203" d="M45 0 L45 106 L158 106 L158 0 L45 0 Z M45 263 L45 370 L158 370 L158 263 L45 263 Z " />
<glyph glyph-name="semicolon" unicode="&#x3b;" horiz-adv-x="203" d="M45 263 L45 370 L158 370 L158 263 L45 263 Z M112 -109 L48 -109 L92 0 L45 0 L45 106 L158 106 L158 0 L112 -109 Z " />
<glyph glyph-name="less" unicode="&#x3c;" horiz-adv-x="555" d="M98 294 L98 369 L442 569 L442 468 L194 332 L442 196 L442 94 L98 294 Z " />
<glyph glyph-name="equal" unicode="&#x3d;" horiz-adv-x="535" d="M55 197 L55 280 L480 280 L480 197 L55 197 Z M55 369 L55 452 L480 452 L480 369 L55 369 Z " />
<glyph glyph-name="greater" unicode="&#x3e;" horiz-adv-x="555" d="M102 94 L102 196 L354 332 L102 468 L102 569 L446 369 L446 294 L102 94 Z " />
<glyph glyph-name="question" unicode="&#x3f;" horiz-adv-x="449" d="M416 498 Q416 452 412.5 421.5 Q409 391 398.5 370.5 Q388 350 369.5 336.5 Q351 323 321 311 Q294 300 279 288.5 Q264 277 257 264.5 Q250 252 249 236 Q248 220 248 200 L146 200 Q145 209 145 218 L145 254 Q145 287 164.5 314 Q184 341 239 367 Q263 379 278 389.5 Q293 400 300.5 414 Q308 428 310.5 448 Q313 468 313 498 Q313 526 308.5 544 Q304 562 293.5 572.5 Q283 583 265.5 586.5 Q248 590 222 590 Q172 590 155 576.5 Q138 563 137 532 L135 497 L35 497 Q33 506 32 522.5 Q31 539 31 555 Q31 583 39.5 605 Q48 627 70 641.5 Q92 656 129.5 663.5 Q167 671 225 671 Q278 671 314.5 663.5 Q351 656 373.5 637 Q396 618 406 584 Q416 550 416 498 Z M141 0 L141 105 L252 105 L252 0 L141 0 Z " />
<glyph glyph-name="at" unicode="&#x40;" horiz-adv-x="633" d="M591 333 Q591 277 584 239 Q577 201 563 178.5 Q549 156 526.5 146.5 Q504 137 473 137 Q439 137 414 149 Q389 161 378 181 L376 181 Q370 159 350.5 148 Q331 137 295 137 Q262 137 240.5 144.5 Q219 152 205.5 173 Q192 194 186.5 232.5 Q181 271 181 333 Q181 389 186.5 423.5 Q192 458 204 477.5 Q216 497 235.5 504 Q255 511 283 511 Q306 511 324.5 504 Q343 497 351 484 L353 484 L353 509 L440 509 L440 249 Q440 224 448.5 215.5 Q457 207 470 207 Q478 207 484 210.5 Q490 214 493.5 227 Q497 240 499 265.5 Q501 291 501 334 Q501 412 495 461.5 Q489 511 469.5 538.5 Q450 566 412.5 576 Q375 586 313 586 Q254 586 217.5 577.5 Q181 569 160.5 542.5 Q140 516 132.5 466 Q125 416 125 333 Q125 250 130.5 197.5 Q136 145 154.5 115.5 Q173 86 208 75.5 Q243 65 301 65 Q338 65 364.5 67 Q391 69 409 72.5 Q427 76 439.5 82 Q452 88 461 97 L506 37 Q494 25 478.5 17 Q463 9 440 3.5 Q417 -2 383 -4.5 Q349 -7 301 -7 Q214 -7 161.5 9 Q109 25 81 64 Q53 103 44.5 168.5 Q36 234 36 333 Q36 435 47 498.5 Q58 562 88 597.5 Q118 633 172 645 Q226 657 313 657 Q394 657 447.5 647 Q501 637 533 603.5 Q565 570 578 505.5 Q591 441 591 333 Z M353 428 Q345 434 337.5 436 Q330 438 316 438 Q304 438 295.5 434 Q287 430 281.5 419 Q276 408 274 387 Q272 366 272 333 Q272 290 274 265 Q276 240 281.5 227 Q287 214 296.5 210.5 Q306 207 320 207 Q353 207 353 247 L353 428 Z " />
<glyph glyph-name="A" unicode="A" horiz-adv-x="611" d="M493 0 L445 159 L163 159 L116 0 L6 0 L216 665 L394 665 L606 0 L493 0 Z M317 583 L293 583 L185 241 L425 241 L317 583 Z " />
<glyph glyph-name="B" unicode="B" horiz-adv-x="593" d="M431 343 Q481 333 513.5 295.5 Q546 258 546 190 Q546 0 352 0 L64 0 L64 665 L352 665 Q448 665 488.5 621.5 Q529 578 529 492 Q529 435 505 398 Q481 361 431 350 L431 343 Z M422 486 Q422 542 399.5 561 Q377 580 332 580 L171 580 L171 384 L336 384 Q357 384 373 388.5 Q389 393 400 404.5 Q411 416 416.5 435.5 Q422 455 422 486 Z M438 190 Q438 249 414.5 274.5 Q391 300 340 300 L171 300 L171 84 L335 84 Q384 84 411 106 Q438 128 438 190 Z " />
<glyph glyph-name="C" unicode="C" horiz-adv-x="586" d="M537 122 Q537 51 481 22 Q425 -7 310 -7 Q229 -7 178 6 Q127 19 97.5 56 Q68 93 57 159 Q46 225 46 332 Q46 442 57.5 509 Q69 576 99 612.5 Q129 649 180 661 Q231 673 309 673 Q363 673 405.5 667.5 Q448 662 477.5 647 Q507 632 522.5 606.5 Q538 581 538 541 Q538 531 537 518 Q536 505 535 493 Q533 479 532 463 L429 463 L428 519 Q428 534 424 547 Q420 560 408 569.5 Q396 579 373 584 Q350 589 312 589 Q263 589 232 581.5 Q201 574 184 547.5 Q167 521 160.5 470 Q154 419 154 332 Q154 249 160 199 Q166 149 182.5 122 Q199 95 229.5 86 Q260 77 310 77 Q374 77 399 90 Q424 103 426 137 L429 203 L535 203 Q536 189 536.5 167.5 Q537 146 537 122 Z " />
<glyph glyph-name="D" unicode="D" horiz-adv-x="600" d="M554 277 Q554 133 489.5 66.5 Q425 0 296 0 L64 0 L64 665 L298 665 Q426 665 490 599.5 Q554 534 554 388 L554 277 Z M447 388 Q447 485 412.5 532.5 Q378 580 296 580 L171 580 L171 84 L296 84 Q333 84 361.5 93.5 Q390 103 409 125 Q428 147 437.5 184 Q447 221 447 277 L447 388 Z " />
<glyph glyph-name="E" unicode="E" horiz-adv-x="506" d="M64 0 L64 665 L470 665 L470 580 L171 580 L171 383 L449 383 L417 299 L171 299 L171 84 L470 84 L470 0 L64 0 Z " />
<glyph glyph-name="F" unicode="F" horiz-adv-x="481" d="M171 580 L171 379 L440 379 L408 295 L171 295 L171 0 L64 0 L64 665 L453 665 L453 580 L171 580 Z " />
<glyph glyph-name="G" unicode="G" horiz-adv-x="605" d="M440 265 L317 265 L317 349 L547 349 L547 0 L449 0 L444 46 L443 46 Q424 21 386 7.5 Q348 -6 287 -6 Q214 -6 167.5 9 Q121 24 94 62 Q67 100 56.5 165.5 Q46 231 46 332 Q46 442 58 508.5 Q70 575 99 611 Q128 647 178 659 Q228 671 304 671 Q374 671 421.5 663.5 Q469 656 497 641 Q525 626 537 603 Q549 580 549 550 Q549 536 548.5 520.5 Q548 505 547 492 Q546 477 545 463 L442 463 Q442 502 437 526 Q432 550 417.5 563.5 Q403 577 376 581.5 Q349 586 304 586 Q259 586 230.5 578.5 Q202 571 185 544.5 Q168 518 161.5 467.5 Q155 417 155 332 Q155 246 161.5 195.5 Q168 145 185 119 Q202 93 233 85.5 Q264 78 312 78 Q361 78 391 87 Q421 96 440 113 L440 265 Z " />
<glyph glyph-name="H" unicode="H" horiz-adv-x="615" d="M444 0 L444 298 L171 298 L171 0 L64 0 L64 665 L171 665 L171 382 L444 382 L444 665 L551 665 L551 0 L444 0 Z " />
<glyph glyph-name="I" unicode="I" horiz-adv-x="235" d="M64 0 L64 665 L171 665 L171 0 L64 0 Z " />
<glyph glyph-name="J" unicode="J" horiz-adv-x="462" d="M403 194 Q403 138 392.5 100 Q382 62 358 38.5 Q334 15 295.5 5 Q257 -5 201 -5 Q148 -5 113.5 2 Q79 9 59.5 23.5 Q40 38 32.5 60.5 Q25 83 25 115 Q25 126 25 137.5 Q25 149 26 160 Q26 172 27 184 L129 184 L134 121 Q136 101 150.5 89 Q165 77 206 77 Q231 77 248.5 82 Q266 87 276.5 99.5 Q287 112 291.5 134 Q296 156 296 189 L296 665 L403 665 L403 194 Z " />
<glyph glyph-name="K" unicode="K" horiz-adv-x="600" d="M467 0 L223 299 L171 299 L171 0 L64 0 L64 665 L171 665 L171 383 L222 383 L444 665 L567 665 L311 346 L594 0 L467 0 Z " />
<glyph glyph-name="L" unicode="L" horiz-adv-x="478" d="M64 0 L64 665 L171 665 L171 85 L459 85 L459 0 L64 0 Z " />
<glyph glyph-name="M" unicode="M" horiz-adv-x="830" d="M659 0 L659 567 L654 567 L477 0 L356 0 L176 567 L171 567 L171 0 L64 0 L64 665 L245 665 L414 131 L417 131 L584 665 L766 665 L766 0 L659 0 Z " />
<glyph glyph-name="N" unicode="N" horiz-adv-x="657" d="M436 0 L165 559 L160 559 L160 0 L64 0 L64 665 L218 665 L492 107 L497 107 L497 665 L593 665 L593 0 L436 0 Z " />
<glyph glyph-name="O" unicode="O" horiz-adv-x="599" d="M552 332 Q552 229 543 163 Q534 97 507 59.5 Q480 22 430.5 7.5 Q381 -7 300 -7 Q219 -7 169 7.5 Q119 22 92 59.5 Q65 97 55.5 163 Q46 229 46 332 Q46 436 55.5 502 Q65 568 92.5 605.5 Q120 643 169.5 657 Q219 671 300 671 Q382 671 431.5 656.5 Q481 642 508 604 Q535 566 543.5 500 Q552 434 552 332 Z M444 332 Q444 408 440.5 457 Q437 506 422.5 534.5 Q408 563 379 574.5 Q350 586 300 586 Q253 586 224.5 576.5 Q196 567 180.5 539.5 Q165 512 160 462.5 Q155 413 155 332 Q155 254 159.5 204.5 Q164 155 179 126.5 Q194 98 223 87.5 Q252 77 300 77 Q349 77 377.5 87.5 Q406 98 421 126.5 Q436 155 440 204.5 Q444 254 444 332 Z " />
<glyph glyph-name="P" unicode="P" horiz-adv-x="581" d="M534 454 Q534 418 525 378.5 Q516 339 493.5 306 Q471 273 433.5 251.5 Q396 230 338 230 L171 230 L171 0 L64 0 L64 665 L337 665 Q387 665 424 650 Q461 635 485.5 607 Q510 579 522 540.5 Q534 502 534 454 Z M425 449 Q425 522 397.5 551 Q370 580 316 580 L171 580 L171 315 L307 315 Q338 315 360.5 320.5 Q383 326 397.5 341 Q412 356 418.5 382 Q425 408 425 449 Z " />
<glyph glyph-name="Q" unicode="Q" horiz-adv-x="612" d="M568 0 L394 0 Q371 -2 348.5 -2 Q326 -2 300 -2 Q220 -2 170 12.5 Q120 27 92.5 64.5 Q65 102 55.5 166.5 Q46 231 46 332 Q46 436 56 502 Q66 568 94 605.5 Q122 643 171.5 657 Q221 671 300 671 Q384 671 434 655.5 Q484 640 510 601 Q536 562 544 496.5 Q552 431 552 332 Q552 276 548.5 234 Q545 192 538.5 162 Q532 132 524 112.5 Q516 93 507 81 Q529 81 554.5 81 Q580 81 603 83 L568 0 Z M444 332 Q444 410 440.5 459 Q437 508 422.5 536.5 Q408 565 379 575.5 Q350 586 300 586 Q253 586 224.5 576.5 Q196 567 180.5 540 Q165 513 160 463 Q155 413 155 332 Q155 254 159.5 204.5 Q164 155 179.5 126.5 Q195 98 223.5 87.5 Q252 77 300 77 Q347 77 375.5 88 Q404 99 419 128 Q434 157 439 206 Q444 255 444 332 Z " />
<glyph glyph-name="R" unicode="R" horiz-adv-x="581" d="M451 0 L266 268 L171 268 L171 0 L64 0 L64 665 L321 665 Q380 665 420.5 651 Q461 637 486.5 611 Q512 585 523.5 548.5 Q535 512 535 467 Q535 372 497 327.5 Q459 283 379 273 L575 0 L451 0 Z M425 467 Q425 532 397 556 Q369 580 304 580 L171 580 L171 351 L279 351 Q319 351 347 354 Q375 357 392 369 Q409 381 417 404 Q425 427 425 467 Z " />
<glyph glyph-name="S" unicode="S" horiz-adv-x="537" d="M503 194 Q503 132 487 93 Q471 54 440 32 Q409 10 362.5 2.5 Q316 -5 256 -5 Q194 -5 153 2.5 Q112 10 87 24.5 Q62 39 51.5 60.5 Q41 82 41 110 Q41 126 41 140 Q41 154 42 165 Q42 177 43 188 L147 188 L150 133 Q152 108 175 93.5 Q198 79 255 79 Q295 79 322.5 84.5 Q350 90 366 103.5 Q382 117 389 139.5 Q396 162 396 196 Q396 224 390.5 242.5 Q385 261 373 272.5 Q361 284 342 290 Q323 296 297 298 L206 305 Q172 308 141 314 Q110 320 86 338 Q62 356 48 389.5 Q34 423 34 479 Q34 538 47.5 575.5 Q61 613 89.5 634.5 Q118 656 162 664 Q206 672 267 672 Q331 672 372.5 664.5 Q414 657 438.5 642 Q463 627 473 605 Q483 583 483 555 Q483 536 481.5 514 Q480 492 479 476 L378 476 L373 529 Q371 545 366 557 Q361 569 349.5 576 Q338 583 319 586.5 Q300 590 270 590 Q230 590 205 585 Q180 580 166 567 Q152 554 147 533 Q142 512 142 479 Q142 453 147.5 436.5 Q153 420 164 410.5 Q175 401 191 396.5 Q207 392 229 391 L347 383 Q375 381 403 374 Q431 367 453.5 347.5 Q476 328 489.5 291.5 Q503 255 503 194 Z " />
<glyph glyph-name="T" unicode="T" horiz-adv-x="515" d="M478 581 L312 581 L312 0 L205 0 L205 581 L23 581 L23 665 L509 665 L478 581 Z " />
<glyph glyph-name="U" unicode="U" horiz-adv-x="612" d="M550 665 Q550 507 549.5 350 Q549 193 549 34 Q516 22 482 14.5 Q448 7 416.5 2.5 Q385 -2 357.5 -3.5 Q330 -5 310 -5 Q253 -5 207 3 Q161 11 128.5 35 Q96 59 79 102 Q62 145 62 215 L62 665 L169 665 L169 213 Q169 178 174 152.5 Q179 127 194.5 110.5 Q210 94 237.5 86 Q265 78 310 78 Q348 78 379.5 81 Q411 84 442 89 L442 665 L550 665 Z " />
<glyph glyph-name="V" unicode="V" horiz-adv-x="581" d="M377 0 L208 0 L6 665 L115 665 L290 72 L295 72 Q301 97 321 168 Q330 198 342 242 Q354 286 371.5 346.5 Q389 407 411.5 485.5 Q434 564 463 665 L574 665 L377 0 Z " />
<glyph glyph-name="W" unicode="W" horiz-adv-x="892" d="M737 0 L567 0 L448 583 L445 583 L324 0 L149 0 L8 665 L114 665 L234 73 L238 73 L259 178 Q265 209 274 253.5 Q283 298 295 357.5 Q307 417 322.5 493.5 Q338 570 358 665 L532 665 L652 72 L655 72 Q662 108 678 185 Q685 218 694 262.5 Q703 307 715.5 366 Q728 425 743 499 Q758 573 777 665 L884 665 L737 0 Z " />
<glyph glyph-name="X" unicode="X" horiz-adv-x="566" d="M545 665 L361 338 L559 0 L437 0 L281 283 L278 283 L128 0 L6 0 L203 350 L20 665 L138 665 L285 403 L287 403 L425 665 L545 665 Z " />
<glyph glyph-name="Y" unicode="Y" horiz-adv-x="568" d="M256 0 L145 0 L260 233 L200 233 L6 665 L123 665 L267 330 L298 330 L450 665 L562 665 L256 0 Z " />
<glyph glyph-name="Z" unicode="Z" horiz-adv-x="565" d="M503 0 L46 0 L46 80 L396 573 L396 581 L159 581 L159 487 L52 487 L52 665 L516 665 L516 583 L166 92 L166 85 L536 85 L503 0 Z " />
<glyph glyph-name="bracketleft" unicode="&#x5b;" horiz-adv-x="271" d="M59 -197 L59 665 L234 665 L234 590 L151 590 L151 -117 L234 -117 L234 -197 L59 -197 Z " />
<glyph glyph-name="backslash" unicode="&#x5c;" horiz-adv-x="400" d="M301 -197 L12 665 L99 665 L388 -197 L301 -197 Z " />
<glyph glyph-name="bracketright" unicode="&#x5d;" horiz-adv-x="270" d="M33 -197 L33 -117 L116 -117 L116 590 L33 590 L33 665 L208 665 L208 -197 L33 -197 Z " />
<glyph glyph-name="asciicircum" unicode="&#x5e;" horiz-adv-x="554" d="M510 375 L407 375 L280 570 L153 375 L50 375 L236 665 L325 665 L510 375 Z " />
<glyph glyph-name="underscore" unicode="&#x5f;" horiz-adv-x="479" d="M31 -139 L31 -56 L448 -56 L448 -139 L31 -139 Z " />
<glyph glyph-name="grave" unicode="&#x60;" horiz-adv-x="244" d="M172 501 L35 604 L89 666 L211 545 L172 501 Z " />
<glyph glyph-name="a" unicode="a" horiz-adv-x="469" d="M327 0 L318 38 Q298 22 265.5 9 Q233 -4 191 -4 Q112 -4 75 29 Q38 62 38 142 Q38 175 46 200.5 Q54 226 73 243 Q92 260 123.5 269 Q155 278 203 278 Q229 278 247 278 Q265 278 277.5 277.5 Q290 277 299 277 Q308 277 316 277 L316 319 Q316 342 312 356.5 Q308 371 298.5 379 Q289 387 273 389.5 Q257 392 233 392 Q208 392 194 389 Q180 386 172.5 378.5 Q165 371 162 359.5 Q159 348 156 330 L58 330 Q57 337 57 345 Q56 352 56 360.5 Q56 369 56 378 Q56 404 70 421.5 Q84 439 108.5 449.5 Q133 460 165.5 464.5 Q198 469 234 469 Q288 469 323 462 Q358 455 378.5 438.5 Q399 422 407 394.5 Q415 367 415 326 L415 0 L327 0 Z M316 212 L227 212 Q177 212 159.5 195.5 Q142 179 142 144 Q142 103 161.5 87.5 Q181 72 226 72 Q272 72 294 90.5 Q316 109 316 161 L316 212 Z " />
<glyph glyph-name="b" unicode="b" horiz-adv-x="475" d="M431 234 Q431 158 422 111.5 Q413 65 391.5 39 Q370 13 333 4 Q296 -5 239 -5 Q191 -5 145.5 1 Q100 7 58 22 L58 665 L157 665 L157 424 Q173 443 202.5 456.5 Q232 470 277 470 Q321 470 350.5 460 Q380 450 398 424 Q416 398 423.5 352 Q431 306 431 234 Z M330 234 Q330 288 326.5 319 Q323 350 313.5 366 Q304 382 288 386 Q272 390 248 390 Q221 390 203 385 Q185 380 175 368 Q165 356 161 335 Q157 314 157 282 L157 78 Q174 74 195 73 Q216 72 245 72 Q269 72 285.5 76.5 Q302 81 311.5 97.5 Q321 114 325.5 146 Q330 178 330 234 Z " />
<glyph glyph-name="c" unicode="c" horiz-adv-x="457" d="M418 375 Q418 366 417.5 355.5 Q417 345 417 337 Q416 327 416 318 L318 318 L316 348 Q314 369 297.5 380.5 Q281 392 238 392 Q209 392 191.5 387 Q174 382 164 365 Q154 348 151 315 Q148 282 148 226 Q148 176 151 146 Q154 116 163.5 99.5 Q173 83 190.5 77.5 Q208 72 238 72 Q280 72 297 81.5 Q314 91 316 112 L319 141 L416 141 Q418 132 418.5 121 Q419 110 419 93 Q419 41 375 18 Q331 -5 238 -5 Q178 -5 140.5 5.5 Q103 16 82 43 Q61 70 53.5 116 Q46 162 46 234 Q46 304 54 349.5 Q62 395 83.5 422 Q105 449 142.5 459.5 Q180 470 240 470 Q288 470 321.5 462 Q355 454 376.5 441 Q398 428 408 411 Q418 394 418 375 Z " />
<glyph glyph-name="d" unicode="d" horiz-adv-x="476" d="M329 0 L322 41 Q289 -4 206 -4 Q159 -4 127.5 6.5 Q96 17 77.5 44 Q59 71 51 117 Q43 163 43 233 Q43 296 49.5 341 Q56 386 73.5 414.5 Q91 443 122 456 Q153 469 201 469 Q236 469 265 463 Q294 457 320 443 L320 665 L419 665 L419 0 L329 0 Z M320 382 Q307 384 294 386 Q283 388 268.5 389.5 Q254 391 240 391 Q213 391 194.5 385 Q176 379 164.5 362.5 Q153 346 148.5 316 Q144 286 144 237 Q144 183 148 151 Q152 119 162 101.5 Q172 84 188 78.5 Q204 73 227 73 Q275 73 297.5 91 Q320 109 320 160 L320 382 Z " />
<glyph glyph-name="e" unicode="e" horiz-adv-x="465" d="M423 251 Q423 240 422.5 230 Q422 220 421 209 L143 209 Q143 165 147 138 Q151 111 161 96.5 Q171 82 189 77 Q207 72 235 72 Q282 72 297.5 82 Q313 92 315 116 L317 145 L414 145 L414 131 Q414 125 414.5 117 Q415 109 415 101 Q415 69 402 48.5 Q389 28 365 16 Q341 4 307.5 -0.5 Q274 -5 234 -5 Q179 -5 142 3.5 Q105 12 83 37.5 Q61 63 52 108 Q43 153 43 227 Q43 300 51.5 347 Q60 394 81 421.5 Q102 449 139 459.5 Q176 470 233 470 Q290 470 327 459.5 Q364 449 385.5 424 Q407 399 415 356.5 Q423 314 423 251 Z M323 276 Q322 311 318 334 Q314 357 304 370 Q294 383 277 388 Q260 393 235 393 Q208 393 191 388 Q174 383 164 370 Q154 357 149.5 334.5 Q145 312 144 276 L323 276 Z " />
<glyph glyph-name="f" unicode="f" horiz-adv-x="309" d="M277 393 L177 393 L177 0 L77 0 L77 393 L18 393 L18 465 L77 465 L77 531 Q77 592 112 631.5 Q147 671 219 671 Q232 671 245 670.5 Q258 670 268.5 669.5 Q279 669 286.5 668 Q294 667 295 667 L295 597 L275 597 Q266 597 254.5 597.5 Q243 598 231 598 Q200 598 188.5 583.5 Q177 569 177 536 L177 465 L297 465 L277 393 Z " />
<glyph glyph-name="g" unicode="g" horiz-adv-x="460" d="M375 394 Q383 383 393 360 Q403 337 403 304 Q403 254 393.5 222.5 Q384 191 362 173.5 Q340 156 304.5 149.5 Q269 143 218 143 Q204 143 196 143.5 Q188 144 166 144 Q143 144 134 135 Q125 126 125 109 Q125 89 137 81 Q149 73 172 73 Q200 73 231.5 73.5 Q263 74 289 74 Q325 74 352 69.5 Q379 65 397 50.5 Q415 36 424.5 9.5 Q434 -17 434 -61 Q434 -99 425 -125.5 Q416 -152 392.5 -168.5 Q369 -185 329 -193 Q289 -201 227 -201 Q168 -201 130.5 -195.5 Q93 -190 71.5 -179 Q50 -168 42 -151.5 Q34 -135 34 -112 Q34 -104 34.5 -94.5 Q35 -85 36 -77 Q37 -68 38 -60 L135 -60 L138 -92 Q139 -112 157.5 -118.5 Q176 -125 230 -125 Q263 -125 284 -121.5 Q305 -118 317 -110.5 Q329 -103 333 -90.5 Q337 -78 337 -60 Q337 -26 321 -14 Q305 -2 270 -2 Q244 -2 211.5 -2.5 Q179 -3 153 -3 Q119 -3 96.5 2.5 Q74 8 60.5 19.5 Q47 31 41 49 Q35 67 35 91 Q35 116 50 138.5 Q65 161 88 169 L88 171 Q65 186 50.5 218 Q36 250 36 303 Q36 350 45 382 Q54 414 75 433.5 Q96 453 131.5 461.5 Q167 470 221 470 Q238 470 251.5 469 Q265 468 276 467 Q288 466 299 465 L448 465 L448 394 L375 394 Z M303 303 Q303 328 299.5 345.5 Q296 363 287 374 Q278 385 262 389.5 Q246 394 221 394 Q172 394 154.5 374.5 Q137 355 137 303 Q137 253 154.5 234 Q172 215 220 215 Q245 215 261.5 219.5 Q278 224 287 234.5 Q296 245 299.5 261.5 Q303 278 303 303 Z " />
<glyph glyph-name="h" unicode="h" horiz-adv-x="475" d="M287 470 Q333 470 360 458.5 Q387 447 401 424.5 Q415 402 419 370 Q423 338 423 298 L423 0 L324 0 L324 318 Q324 360 308 375 Q292 390 258 390 Q226 390 198.5 383.5 Q171 377 156 370 L156 0 L57 0 L57 665 L156 665 L156 431 Q181 447 213 458.5 Q245 470 287 470 Z " />
<glyph glyph-name="i" unicode="i" horiz-adv-x="246" d="M90 0 L90 394 L6 394 L6 465 L189 465 L189 0 L90 0 Z M90 526 L90 621 L189 621 L189 526 L90 526 Z " />
<glyph glyph-name="j" unicode="j" horiz-adv-x="249" d="M196 -59 Q196 -104 191.5 -131.5 Q187 -159 173.5 -174 Q160 -189 136 -194.5 Q112 -200 72 -200 Q58 -200 32.5 -198.5 Q7 -197 -24 -193 L-24 -121 L39 -121 Q73 -121 85 -109.5 Q97 -98 97 -75 L97 394 L12 394 L12 465 L196 465 L196 -59 Z M97 526 L97 621 L196 621 L196 526 L97 526 Z " />
<glyph glyph-name="k" unicode="k" horiz-adv-x="438" d="M319 0 L188 215 L157 215 L157 0 L58 0 L58 665 L157 665 L157 288 L188 288 L308 465 L418 465 L272 252 L431 0 L319 0 Z " />
<glyph glyph-name="l" unicode="l" horiz-adv-x="220" d="M62 0 L62 594 L-21 594 L-21 665 L161 665 L161 0 L62 0 Z " />
<glyph glyph-name="m" unicode="m" horiz-adv-x="736" d="M536 470 Q579 470 607.5 461.5 Q636 453 652 434 Q668 415 674.5 384.5 Q681 354 681 310 L681 0 L582 0 L582 313 Q582 359 567.5 374.5 Q553 390 514 390 Q485 390 460.5 384 Q436 378 413 367 Q416 357 417.5 336 Q419 315 419 295 L419 0 L320 0 L320 311 Q320 357 305.5 373.5 Q291 390 250 390 Q221 390 197.5 384 Q174 378 156 370 L156 0 L57 0 L57 465 L142 465 L151 430 Q176 448 207.5 459 Q239 470 281 470 Q323 470 347 459 Q371 448 390 426 Q445 470 536 470 Z " />
<glyph glyph-name="n" unicode="n" horiz-adv-x="475" d="M278 470 Q319 470 346.5 462 Q374 454 391 437.5 Q408 421 415.5 395 Q423 369 423 333 L423 0 L324 0 L324 311 Q324 356 309.5 373 Q295 390 257 390 Q228 390 203 384.5 Q178 379 156 371 L156 0 L57 0 L57 465 L143 465 L152 426 Q172 446 204 458 Q236 470 278 470 Z " />
<glyph glyph-name="o" unicode="o" horiz-adv-x="467" d="M232 470 Q290 470 327.5 460 Q365 450 386.5 423.5 Q408 397 416 350.5 Q424 304 424 232 Q424 160 416 113.5 Q408 67 386.5 41 Q365 15 327.5 5 Q290 -5 232 -5 Q174 -5 137.5 5 Q101 15 80 41 Q59 67 51 113.5 Q43 160 43 232 Q43 305 51 351 Q59 397 80 423.5 Q101 450 137.5 460 Q174 470 232 470 Z M233 72 Q262 72 279.5 77.5 Q297 83 306.5 100 Q316 117 319 148.5 Q322 180 322 232 Q322 284 319 315.5 Q316 347 307 364 Q298 381 280.5 387 Q263 393 233 393 Q204 393 187 388 Q170 383 160 366 Q150 349 147 317.5 Q144 286 144 232 Q144 180 147 148.5 Q150 117 160 100 Q170 83 187 77.5 Q204 72 233 72 Z " />
<glyph glyph-name="p" unicode="p" horiz-adv-x="473" d="M430 233 Q430 160 421 113.5 Q412 67 392.5 40.5 Q373 14 341.5 4 Q310 -6 264 -6 Q231 -6 201 2 Q171 10 156 18 L156 -196 L57 -196 L57 465 L142 465 L152 421 Q167 439 196.5 455 Q226 471 280 471 Q321 471 349.5 461 Q378 451 396 424 Q414 397 422 351 Q430 305 430 233 Z M329 233 Q329 286 324.5 318 Q320 350 310 366.5 Q300 383 284 388 Q268 393 246 393 Q214 393 196 385.5 Q178 378 169 362.5 Q160 347 158 324 Q156 301 156 271 L156 84 Q196 74 245 74 Q270 74 286.5 79.5 Q303 85 312.5 101.5 Q322 118 325.5 149.5 Q329 181 329 233 Z " />
<glyph glyph-name="q" unicode="q" horiz-adv-x="476" d="M321 -196 L321 37 Q307 21 280.5 8.5 Q254 -4 208 -4 Q160 -4 128.5 6.5 Q97 17 78.5 43.5 Q60 70 53 115.5 Q46 161 46 231 Q46 303 55.5 349.5 Q65 396 87 423 Q109 450 145 460.5 Q181 471 234 471 Q286 471 336.5 462.5 Q387 454 419 443 L419 -196 L321 -196 Z M320 386 Q309 388 288 390.5 Q267 393 238 393 Q212 393 194.5 387.5 Q177 382 166.5 365 Q156 348 151.5 316 Q147 284 147 231 Q147 178 151 147 Q155 116 164.5 100 Q174 84 189.5 79.5 Q205 75 228 75 Q253 75 270.5 79.5 Q288 84 299 94.5 Q310 105 315 123 Q320 141 320 169 L320 386 Z " />
<glyph glyph-name="r" unicode="r" horiz-adv-x="379" d="M360 391 Q360 371 359 356 Q358 341 357 330 L266 330 L262 368 Q260 390 230 390 Q214 390 193.5 385.5 Q173 381 157 376 L157 0 L58 0 L58 465 L145 465 L152 430 Q161 436 175 442.5 Q189 449 205 455 Q221 461 238 465 Q255 469 271 469 Q318 469 339 449 Q360 429 360 391 Z " />
<glyph glyph-name="s" unicode="s" horiz-adv-x="453" d="M414 139 Q414 103 404.5 76 Q395 49 373 31 Q351 13 314.5 4 Q278 -5 223 -5 Q184 -5 150.5 -0.5 Q117 4 93 16 Q69 28 55.5 48 Q42 68 42 99 Q42 109 42 117.5 Q42 126 43 133 Q44 141 45 148 L142 148 L144 112 Q145 92 161 82 Q177 72 224 72 Q277 72 295.5 87.5 Q314 103 314 137 Q314 165 300.5 181 Q287 197 251 200 L188 205 Q150 208 123 215 Q96 222 79 237 Q62 252 53.5 276 Q45 300 45 338 Q45 374 53.5 399.5 Q62 425 82 441 Q102 457 136.5 464 Q171 471 222 471 Q257 471 289 466.5 Q321 462 345.5 451 Q370 440 384.5 420.5 Q399 401 399 370 Q399 365 398.5 358.5 Q398 352 397 346 Q396 339 396 331 L299 331 Q298 351 294.5 364.5 Q291 378 283 385.5 Q275 393 260.5 396 Q246 399 222 399 Q199 399 184 395.5 Q169 392 160.5 385 Q152 378 149 366 Q146 354 146 338 Q146 306 158 293.5 Q170 281 198 279 L262 275 Q305 272 334 266.5 Q363 261 381 246.5 Q399 232 406.5 206.5 Q414 181 414 139 Z " />
<glyph glyph-name="t" unicode="t" horiz-adv-x="309" d="M288 2 Q276 0 264 -2 Q243 -5 215 -5 Q174 -5 146 2.5 Q118 10 100.5 27 Q83 44 75 72 Q67 100 67 141 L67 393 L15 393 L15 465 L67 465 L67 578 L166 578 L166 465 L299 465 L278 393 L166 393 L166 150 Q166 125 168.5 109.5 Q171 94 178 85 Q185 76 197.5 73 Q210 70 230 70 Q238 70 248 70 Q258 70 267 71 Q278 72 288 73 L288 2 Z " />
<glyph glyph-name="u" unicode="u" horiz-adv-x="475" d="M419 26 Q376 12 329.5 3 Q283 -6 229 -6 Q166 -6 130 10 Q94 26 76.5 54 Q59 82 55 120.5 Q51 159 51 203 L51 465 L150 465 L150 169 Q150 143 154 124 Q158 105 168.5 92 Q179 79 197.5 73 Q216 67 245 67 Q269 67 286.5 69 Q304 71 320 76 L320 465 L419 465 L419 26 Z " />
<glyph glyph-name="v" unicode="v" horiz-adv-x="427" d="M137 0 L6 465 L109 465 L211 72 L217 72 L320 465 L421 465 L290 0 L137 0 Z " />
<glyph glyph-name="w" unicode="w" horiz-adv-x="644" d="M546 0 L390 0 L325 398 L321 398 L250 0 L95 0 L7 465 L106 465 L171 72 L174 72 L247 465 L398 465 L468 72 L471 72 L537 465 L637 465 L546 0 Z " />
<glyph glyph-name="x" unicode="x" horiz-adv-x="411" d="M301 0 L206 189 L203 189 L109 0 L4 0 L140 247 L18 465 L124 465 L207 292 L211 292 L291 465 L397 465 L274 239 L408 0 L301 0 Z " />
<glyph glyph-name="y" unicode="y" horiz-adv-x="427" d="M267 -132 Q257 -169 231 -185 Q205 -201 165 -201 Q149 -201 131.5 -199.5 Q114 -198 93 -194 L93 -121 L137 -121 Q160 -121 169.5 -111.5 Q179 -102 184 -82 L206 0 L128 0 L6 465 L111 465 L204 77 L225 77 L317 465 L422 465 L267 -132 Z " />
<glyph glyph-name="z" unicode="z" horiz-adv-x="410" d="M364 0 L29 0 L29 93 L270 388 L270 394 L133 394 L133 345 L41 345 L41 465 L369 465 L369 370 L119 80 L119 72 L387 72 L364 0 Z " />
<glyph glyph-name="braceleft" unicode="&#x7b;" horiz-adv-x="282" d="M247 669 L247 590 Q219 590 202.5 581.5 Q186 573 177.5 559 Q169 545 166.5 527 Q164 509 164 490 L164 356 Q164 327 161 307.5 Q158 288 152 274.5 Q146 261 136.5 252 Q127 243 114 235 Q127 227 136.5 218 Q146 209 152 196 Q158 183 161 163.5 Q164 144 164 116 L164 -32 Q164 -50 168 -65.5 Q172 -81 181.5 -93 Q191 -105 207 -112 Q223 -119 247 -119 L247 -199 L228 -199 Q186 -199 156.5 -190 Q127 -181 108 -160.5 Q89 -140 80 -106.5 Q71 -73 71 -24 L71 113 Q71 151 60.5 175 Q50 199 25 210 L25 260 Q50 271 60.5 295.5 Q71 320 71 359 L71 494 Q71 543 80 576.5 Q89 610 108 630.5 Q127 651 157 660 Q187 669 228 669 L247 669 Z " />
<glyph glyph-name="bar" unicode="&#x7c;" horiz-adv-x="214" d="M60 -185 L60 665 L151 665 L151 -185 L60 -185 Z " />
<glyph glyph-name="braceright" unicode="&#x7d;" horiz-adv-x="282" d="M53 671 Q95 671 124.5 662 Q154 653 173 632.5 Q192 612 201 578.5 Q210 545 210 496 L210 359 Q210 321 220.5 296 Q231 271 256 260 L256 210 Q231 199 220.5 174.5 Q210 150 210 111 L210 -26 Q210 -75 201 -108.5 Q192 -142 173 -162.5 Q154 -183 124.5 -192 Q95 -201 53 -201 L35 -201 L35 -120 Q64 -120 80.5 -110.5 Q97 -101 105 -85.5 Q113 -70 115 -51 Q117 -32 117 -13 L117 114 Q117 142 119.5 162 Q122 182 128 195.5 Q134 209 143.5 218 Q153 227 167 235 Q153 243 143.5 252 Q134 261 128 274.5 Q122 288 119.5 307.5 Q117 327 117 356 L117 505 Q117 523 113.5 539 Q110 555 100.5 567 Q91 579 75 586 Q59 593 35 593 L35 671 L53 671 Z " />
<glyph glyph-name="asciitilde" unicode="&#x7e;" horiz-adv-x="434" d="M220 568 Q198 580 182.5 584 Q167 588 153 588 Q136 588 119.5 575.5 Q103 563 84 534 L20 566 Q43 608 71 638.5 Q99 669 140 669 Q153 669 170.5 666 Q188 663 216 649 Q232 641 244 636 Q256 631 265 628 Q274 625 282 624 Q290 623 299 623 Q316 623 333 634 Q350 645 368 674 L431 637 Q408 589 376.5 565.5 Q345 542 312 542 Q296 542 276.5 545.5 Q257 549 220 568 Z " />
<glyph glyph-name="dagger" unicode="&#x2020;" horiz-adv-x="374" d="M139 381 L28 381 L28 465 L139 465 L139 664 L230 664 L230 465 L339 465 L339 381 L230 381 L230 -197 L139 -197 L139 381 Z " />
<glyph glyph-name="degree" unicode="&#xb0;" horiz-adv-x="312" d="M157 678 Q182 678 204 669 Q226 660 242.5 644.5 Q259 629 268.5 607.5 Q278 586 278 562 Q278 537 268.5 516 Q259 495 242 479.5 Q225 464 202.5 455 Q180 446 155 446 Q130 446 107.5 455 Q85 464 68.5 479.5 Q52 495 42.5 516 Q33 537 33 562 Q33 586 42.5 607.5 Q52 629 69 644.5 Q86 660 108.5 669 Q131 678 157 678 Z M155 619 Q131 619 115.5 602 Q100 585 100 562 Q100 538 115.5 521.5 Q131 505 155 505 Q179 505 196 521.5 Q213 538 213 562 Q213 585 196 602 Q179 619 155 619 Z " />
<glyph glyph-name="sterling" unicode="&#xa3;" horiz-adv-x="556" d="M217 289 L217 181 Q217 142 212 119 Q207 96 190 80 L501 80 L501 0 L60 0 L60 70 Q74 75 83 84.5 Q92 94 97 109.5 Q102 125 104 148.5 Q106 172 106 206 L106 289 L38 289 L38 373 L106 373 L106 504 Q106 542 115 572.5 Q124 603 147.5 625 Q171 647 211.5 658.5 Q252 670 316 670 Q372 670 409 662.5 Q446 655 468.5 640.5 Q491 626 500 604 Q509 582 509 552 Q509 538 508.5 526 Q508 514 507 506 Q506 496 506 488 L402 488 Q402 511 399 529.5 Q396 548 387 560.5 Q378 573 360.5 580 Q343 587 314 587 Q260 587 238.5 566 Q217 545 217 504 L217 373 L370 373 L346 289 L217 289 Z " />
<glyph glyph-name="section" unicode="&#xa7;" horiz-adv-x="555" d="M475 -44 Q475 -86 467 -115.5 Q459 -145 437.5 -163.5 Q416 -182 378.5 -190.5 Q341 -199 283 -199 Q225 -199 188 -192.5 Q151 -186 130 -174 Q109 -162 101.5 -144.5 Q94 -127 94 -104 Q94 -94 95 -84.5 Q96 -75 98 -67 Q100 -58 103 -49 L211 -49 L214 -78 Q216 -97 232.5 -104 Q249 -111 284 -111 Q330 -111 346.5 -96 Q363 -81 363 -44 Q363 -5 344.5 18.5 Q326 42 281 61 L214 90 Q179 105 153.5 119 Q128 133 112 151 Q96 169 88.5 193 Q81 217 81 251 Q81 296 99 325 Q117 354 156 374 Q121 397 103 430 Q85 463 85 514 Q85 556 93 585.5 Q101 615 122.5 634 Q144 653 181.5 661.5 Q219 670 277 670 Q335 670 371.5 663.5 Q408 657 429 645 Q450 633 458 615 Q466 597 466 574 Q466 564 464.5 555 Q463 546 461 538 Q459 529 457 520 L349 520 L347 552 Q345 570 326.5 576 Q308 582 274 582 Q227 582 211.5 566.5 Q196 551 196 514 Q196 475 214 453 Q232 431 280 410 L345 381 Q381 365 406 350.5 Q431 336 447 318 Q463 300 470 277 Q477 254 477 220 Q477 174 459 145 Q441 116 401 97 Q439 73 457 40 Q475 7 475 -44 Z M237 323 Q214 310 205 293.5 Q196 277 196 251 Q196 213 213 196.5 Q230 180 271 166 L322 147 Q345 160 354 177 Q363 194 363 220 Q363 258 345 274 Q327 290 291 302 L237 323 Z " />
<glyph glyph-name="bullet" unicode="&#x2022;" horiz-adv-x="455" d="M347 338 Q347 313 337.5 290.5 Q328 268 312 251.5 Q296 235 274 225.5 Q252 216 228 216 Q203 216 180.5 225.5 Q158 235 141.5 251.5 Q125 268 115.5 290 Q106 312 106 338 Q106 363 115.5 385 Q125 407 141.5 423.5 Q158 440 180.5 449.5 Q203 459 228 459 Q252 459 274 449.5 Q296 440 312 423.5 Q328 407 337.5 385 Q347 363 347 338 Z " />
<glyph glyph-name="paragraph" unicode="&#xb6;" horiz-adv-x="558" d="M393 -197 L393 582 L333 582 L333 -197 L236 -197 L236 281 Q171 281 131 289 Q91 297 68.5 318 Q46 339 38.5 375.5 Q31 412 31 469 Q31 530 38.5 568 Q46 606 68.5 627.5 Q91 649 131 657 Q171 665 236 665 L491 665 L491 -197 L393 -197 Z " />
<glyph glyph-name="germandbls" unicode="&#xdf;" horiz-adv-x="486" d="M440 200 Q440 136 429 96 Q418 56 397 33 Q376 10 347 1.5 Q318 -7 282 -7 Q248 -7 214 0 L214 70 Q222 69 230 68 Q237 67 243.5 66.5 Q250 66 254 66 Q273 66 288 70.5 Q303 75 313 89.5 Q323 104 328.5 130.5 Q334 157 334 201 Q334 251 329.5 282.5 Q325 314 314.5 331.5 Q304 349 285.5 355 Q267 361 239 361 L214 361 L214 440 L232 440 Q254 440 268 443 Q282 446 290.5 455.5 Q299 465 302.5 481.5 Q306 498 306 525 Q306 566 290.5 584 Q275 602 233 602 Q191 602 174 581 Q157 560 157 497 L157 0 L56 0 L56 502 Q56 549 65 582.5 Q74 616 94.5 637 Q115 658 149.5 668 Q184 678 235 678 Q323 678 369.5 645.5 Q416 613 416 531 Q416 480 402.5 445 Q389 410 355 403 L355 401 Q380 396 396 383 Q412 370 422 346.5 Q432 323 436 287 Q440 251 440 200 Z " />
<glyph glyph-name="registered" unicode="&#xae;" horiz-adv-x="791" d="M476 147 L365 289 L321 289 L321 147 L249 147 L249 521 L399 521 Q472 521 505 493.5 Q538 466 538 406 Q538 359 517 329 Q496 299 442 294 L561 147 L476 147 Z M465 404 Q465 441 447.5 450.5 Q430 460 390 460 L321 460 L321 349 L366 349 Q394 349 412.5 350 Q431 351 442.5 356 Q454 361 459.5 372 Q465 383 465 404 Z M737 332 Q737 261 710 199.5 Q683 138 636.5 92 Q590 46 527.5 19.5 Q465 -7 395 -7 Q324 -7 262 19.5 Q200 46 154 92 Q108 138 81 199.5 Q54 261 54 332 Q54 402 81 464 Q108 526 154 572.5 Q200 619 262 645.5 Q324 672 395 672 Q465 672 527.5 645.5 Q590 619 636.5 572.5 Q683 526 710 464 Q737 402 737 332 Z M664 331 Q664 388 643 438 Q622 488 585 525 Q548 562 499 583.5 Q450 605 395 605 Q339 605 290.5 583.5 Q242 562 205.5 525 Q169 488 148 438 Q127 388 127 331 Q127 274 148 224 Q169 174 205.5 136.5 Q242 99 290.5 77.5 Q339 56 395 56 Q450 56 499 77.5 Q548 99 585 136.5 Q622 174 643 224 Q664 274 664 331 Z " />
<glyph glyph-name="copyright" unicode="&#xa9;" horiz-adv-x="791" d="M737 332 Q737 261 710 199.5 Q683 138 636.5 92 Q590 46 527.5 19.5 Q465 -7 395 -7 Q324 -7 262 19.5 Q200 46 154 92 Q108 138 81 199.5 Q54 261 54 332 Q54 402 81 464 Q108 526 154 572.5 Q200 619 262 645.5 Q324 672 395 672 Q465 672 527.5 645.5 Q590 619 636.5 572.5 Q683 526 710 464 Q737 402 737 332 Z M664 331 Q664 388 643 438 Q622 488 585 525 Q548 562 499 583.5 Q450 605 395 605 Q339 605 290.5 583.5 Q242 562 205.5 525 Q169 488 148 438 Q127 388 127 331 Q127 274 148 224 Q169 174 205.5 136.5 Q242 99 290.5 77.5 Q339 56 395 56 Q450 56 499 77.5 Q548 99 585 136.5 Q622 174 643 224 Q664 274 664 331 Z M543 242 Q543 215 537 196 Q531 177 514 164.5 Q497 152 467.5 146.5 Q438 141 391 141 Q346 141 316.5 148.5 Q287 156 270 177.5 Q253 199 246 236.5 Q239 274 239 334 Q239 393 246.5 430 Q254 467 271.5 487.5 Q289 508 318 515.5 Q347 523 390 523 Q410 523 436 521 Q462 519 485 510 Q508 501 523.5 481.5 Q539 462 539 427 L539 394 L468 394 L468 417 Q466 443 452 452.5 Q438 462 400 462 Q368 462 350.5 458.5 Q333 455 325 441 Q317 427 315.5 399.5 Q314 372 314 324 Q314 283 316 259 Q318 235 326 223 Q334 211 349.5 207.5 Q365 204 392 204 Q417 204 433 206 Q449 208 457 213.5 Q465 219 468 228 Q471 237 471 252 L471 273 L542 273 Q543 265 543 256.5 Q543 248 543 242 Z " />
<glyph glyph-name="trademark" unicode="&#x2122;" horiz-adv-x="783" d="M332 665 L451 665 L529 375 L532 375 L609 665 L729 665 L729 288 L659 288 L659 591 L656 591 L572 288 L489 288 L403 591 L401 591 L401 288 L332 288 L332 665 Z M296 614 L202 614 L202 288 L134 288 L134 614 L26 614 L26 665 L312 665 L296 614 Z " />
<glyph glyph-name="acute" unicode="&#xb4;" horiz-adv-x="251" d="M36 545 L158 666 L212 604 L75 501 L36 545 Z " />
<glyph glyph-name="dieresis" unicode="&#xa8;" horiz-adv-x="293" d="M28 530 L28 624 L117 624 L117 530 L28 530 Z M176 530 L176 624 L266 624 L266 530 L176 530 Z " />
<glyph glyph-name="notequal" unicode="&#x2260;" horiz-adv-x="555" d="M333 366 L301 280 L508 280 L508 197 L277 197 L237 84 L159 105 L192 197 L46 197 L46 280 L218 280 L247 366 L46 366 L46 449 L273 449 L313 561 L390 540 L357 449 L508 449 L508 366 L333 366 Z " />
<glyph glyph-name="AE" unicode="&#xc6;" horiz-adv-x="861" d="M436 0 L436 144 L188 144 L123 0 L10 0 L326 665 L818 665 L818 580 L542 580 L542 383 L795 383 L763 299 L542 299 L542 84 L818 84 L818 0 L436 0 Z M224 233 L436 233 L436 580 L390 580 L224 233 Z " />
<glyph glyph-name="Oslash" unicode="&#xd8;" horiz-adv-x="599" d="M552 332 Q552 229 543 163 Q534 97 507 59.5 Q480 22 430.5 7.5 Q381 -7 300 -7 Q219 -7 169 7.5 Q119 22 92 59.5 Q65 97 55.5 163 Q46 229 46 332 Q46 436 55.5 502.5 Q65 569 92.5 607 Q120 645 169.5 659 Q219 673 300 673 Q382 673 431.5 658 Q481 643 508 605 Q535 567 543.5 500.5 Q552 434 552 332 Z M155 332 Q155 292 156 261 Q157 230 159 204 L415 547 Q400 570 372.5 579 Q345 588 300 588 Q253 588 224.5 578 Q196 568 180.5 540.5 Q165 513 160 463 Q155 413 155 332 Z M444 332 Q444 400 441 448 L189 112 Q205 92 231.5 84.5 Q258 77 300 77 Q349 77 377.5 87.5 Q406 98 421 126.5 Q436 155 440 204.5 Q444 254 444 332 Z " />
<glyph glyph-name="infinity" unicode="&#x221e;" horiz-adv-x="602" d="M29 298 Q29 326 38.5 353 Q48 380 66 401 Q84 422 109.5 435 Q135 448 166 448 Q185 448 201.5 445 Q218 442 234.5 433.5 Q251 425 267.5 410 Q284 395 303 370 Q333 413 366.5 431 Q400 449 435 449 Q468 449 492.5 437 Q517 425 533.5 404.5 Q550 384 558.5 356 Q567 328 567 295 Q567 266 558.5 239 Q550 212 532.5 191 Q515 170 489.5 157 Q464 144 430 144 Q386 144 356.5 166 Q327 188 298 229 Q286 213 272 198 Q258 183 241.5 171 Q225 159 205 151.5 Q185 144 161 144 Q129 144 104.5 156.5 Q80 169 63 190 Q46 211 37.5 239 Q29 267 29 298 Z M344 302 Q377 254 397 236 Q417 218 432 218 Q453 218 467 239.5 Q481 261 481 297 Q481 333 467.5 355.5 Q454 378 431 378 Q414 378 395 361 Q376 344 344 302 Z M253 296 Q242 311 232 325.5 Q222 340 211.5 351.5 Q201 363 190 370.5 Q179 378 168 378 Q145 378 130.5 356.5 Q116 335 116 298 Q116 263 129.5 240.5 Q143 218 165 218 Q174 218 182.5 221 Q191 224 201 232.5 Q211 241 223.5 256.5 Q236 272 253 296 Z " />
<glyph glyph-name="plusminus" unicode="&#xb1;" horiz-adv-x="555" d="M56 0 L56 84 L499 84 L499 0 L56 0 Z M324 335 L324 160 L231 160 L231 335 L56 335 L56 419 L231 419 L231 594 L324 594 L324 419 L499 419 L499 335 L324 335 Z " />
<glyph glyph-name="lessequal" unicode="&#x2264;" horiz-adv-x="554" d="M105 0 L105 84 L450 84 L450 0 L105 0 Z M105 338 L105 407 L449 592 L449 495 L206 373 L449 250 L449 153 L105 338 Z " />
<glyph glyph-name="greaterequal" unicode="&#x2265;" horiz-adv-x="554" d="M105 0 L105 84 L450 84 L450 0 L105 0 Z M105 153 L105 250 L348 373 L105 495 L105 592 L450 407 L450 338 L105 153 Z " />
<glyph glyph-name="yen" unicode="&#xa5;" horiz-adv-x="555" d="M224 0 L224 129 L101 129 L101 205 L224 205 L224 247 L218 258 L101 258 L101 335 L188 335 L38 665 L156 665 L277 375 L278 375 L400 665 L515 665 L363 335 L453 335 L453 258 L333 258 L329 247 L329 205 L453 205 L453 129 L329 129 L329 0 L224 0 Z " />
<glyph glyph-name="mu" unicode="&#xb5;" horiz-adv-x="483" d="M53 465 L155 465 L155 156 Q155 109 174.5 87.5 Q194 66 242 66 Q269 66 287 68.5 Q305 71 325 76 L325 465 L426 465 L426 26 Q383 12 337.5 3 Q292 -6 246 -6 Q209 -6 188.5 -1 Q168 4 155 17 L155 -196 L53 -196 L53 465 Z " />
<glyph glyph-name="partialdiff" unicode="&#x2202;" horiz-adv-x="468" d="M191 753 Q245 753 288.5 729.5 Q332 706 363 659.5 Q394 613 411 543.5 Q428 474 428 382 Q428 291 415 219 Q402 147 374.5 97 Q347 47 304.5 20.5 Q262 -6 204 -6 Q166 -6 136 3.5 Q106 13 86 35.5 Q66 58 55.5 95 Q45 132 45 188 Q45 244 61.5 293.5 Q78 343 112 380 Q146 417 197 439 Q248 461 317 464 Q307 561 271 615 Q235 669 184 669 Q136 669 102 635 L44 706 Q67 726 105.5 739.5 Q144 753 191 753 Z M321 381 Q240 371 195 319.5 Q150 268 150 168 Q150 128 160.5 101.5 Q171 75 207 75 Q230 75 247.5 90 Q265 105 278 129.5 Q291 154 299 185.5 Q307 217 312 251 Q317 285 319 319 Q321 353 321 381 Z " />
<glyph glyph-name="summation" unicode="&#x2211;" horiz-adv-x="555" d="M69 -130 L69 -33 L282 265 L78 583 L78 665 L467 665 L467 577 L191 577 Q194 573 197.5 568 Q201 563 208 551.5 Q215 540 228 520 Q241 500 262.5 466.5 Q284 433 316 384 Q348 335 393 265 L181 -34 L496 -34 L496 -130 L69 -130 Z " />
<glyph glyph-name="product" unicode="&#x220f;" horiz-adv-x="555" d="M21 666 L535 666 L535 577 L475 577 L475 -130 L368 -130 L368 577 L187 577 L187 -130 L81 -130 L81 577 L21 577 L21 666 Z " />
<glyph glyph-name="pi" unicode="&#x3c0;" horiz-adv-x="508" d="M418 377 L418 131 Q418 86 421.5 53 Q425 20 430 0 L333 0 Q328 17 323 49 Q318 81 318 127 L318 377 L217 377 Q216 327 211 273 Q206 219 197.5 168.5 Q189 118 178 74 Q167 30 155 0 L58 0 Q72 36 83 81 Q94 126 101.5 175 Q109 224 113.5 274.5 Q118 325 119 373 Q93 373 76.5 371 Q60 369 51 367 L30 440 Q46 453 78.5 459 Q111 465 166 465 L482 465 L470 377 L418 377 Z " />
<glyph glyph-name="integral" unicode="&#x222b;" horiz-adv-x="369" d="M41 -45 Q49 -46 57 -47.5 Q65 -49 73 -49 Q92 -49 104.5 -39 Q117 -29 124.5 -13 Q132 3 134.5 23.5 Q137 44 137 66 Q137 125 136 193 Q135 261 134 328.5 Q133 396 132 458 Q131 520 131 568 Q131 680 166.5 730.5 Q202 781 281 781 Q298 781 316.5 778 Q335 775 349 769 L327 691 Q320 693 310.5 694 Q301 695 292 695 Q272 695 260.5 685 Q249 675 243 659 Q237 643 235.5 622.5 Q234 602 234 581 Q234 531 235 466.5 Q236 402 237 334 Q238 266 239 199.5 Q240 133 240 80 Q240 -29 206 -82 Q172 -135 89 -135 Q72 -135 51.5 -132 Q31 -129 20 -123 L41 -45 Z " />
<glyph glyph-name="ordfeminine" unicode="&#xaa;" horiz-adv-x="291" d="M201 393 L192 417 Q184 406 170.5 398.5 Q157 391 131 391 Q82 391 59.5 411 Q37 431 37 479 Q37 523 59 541 Q81 559 142 559 Q157 559 170.5 558.5 Q184 558 188 558 L188 575 Q188 602 181 610.5 Q174 619 146 619 Q124 619 118 611 Q112 603 112 583 L50 583 Q49 590 48 596 Q47 601 46.5 606.5 Q46 612 46 616 Q46 639 67.5 653.5 Q89 668 143 668 Q177 668 198.5 664 Q220 660 232 649 Q244 638 248.5 617.5 Q253 597 253 563 L253 393 L201 393 Z M188 515 L143 515 Q120 515 111.5 505.5 Q103 496 103 477 Q103 456 113 448 Q123 440 143 440 Q166 440 177 451 Q188 462 188 489 L188 515 Z M32 359 L258 359 L258 297 L32 297 L32 359 Z " />
<glyph glyph-name="ordmasculine" unicode="&#xba;" horiz-adv-x="291" d="M254 530 Q254 489 249.5 462.5 Q245 436 233 420 Q221 404 199.5 398 Q178 392 145 392 Q112 392 91 398 Q70 404 58 420 Q46 436 41.5 462.5 Q37 489 37 530 Q37 572 42 599 Q47 626 59 641.5 Q71 657 92 662.5 Q113 668 145 668 Q179 668 200.5 661.5 Q222 655 234 639.5 Q246 624 250 597 Q254 570 254 530 Z M186 530 Q186 557 185 574 Q184 591 180 600 Q176 609 167.5 612.5 Q159 616 145 616 Q131 616 123 613.5 Q115 611 110 602 Q105 593 103.5 576 Q102 559 102 530 Q102 503 103 486.5 Q104 470 108.5 460.5 Q113 451 121.5 448 Q130 445 145 445 Q158 445 166.5 448 Q175 451 179 460.5 Q183 470 184.5 486.5 Q186 503 186 530 Z M32 297 L32 359 L259 359 L259 297 L32 297 Z " />
<glyph glyph-name="Omega" unicode="&#x2126;" horiz-adv-x="555" d="M315 0 L315 197 Q342 199 359 211.5 Q376 224 385.5 247.5 Q395 271 398 306 Q401 341 401 389 Q401 449 397 488 Q393 527 380.5 549.5 Q368 572 343.5 580.5 Q319 589 279 589 Q240 589 216 581 Q192 573 178.5 551 Q165 529 160.5 490 Q156 451 156 389 Q156 341 159.5 306 Q163 271 173 247.5 Q183 224 199.5 211.5 Q216 199 243 197 L243 0 L25 0 L25 85 L160 85 L160 137 Q129 145 108.5 164 Q88 183 75.5 214.5 Q63 246 57.5 291 Q52 336 52 398 Q52 476 61.5 528 Q71 580 96.5 612 Q122 644 166.5 657.5 Q211 671 280 671 Q350 671 394 657 Q438 643 463 611 Q488 579 497 527 Q506 475 506 398 Q506 336 501 290.5 Q496 245 483.5 213.5 Q471 182 450 163.5 Q429 145 398 137 L398 85 L529 85 L529 0 L315 0 Z " />
<glyph glyph-name="ae" unicode="&#xe6;" horiz-adv-x="738" d="M696 251 Q696 241 695.5 232 Q695 223 695 213 L415 213 Q415 169 418.5 141.5 Q422 114 432 98 Q442 82 460.5 76.5 Q479 71 508 71 Q537 71 553.5 74.5 Q570 78 578 86.5 Q586 95 588 109 Q590 123 590 144 L688 144 L688 131 Q688 125 688.5 117 Q689 109 689 101 Q689 68 676 47.5 Q663 27 639 15.5 Q615 4 581 0 Q547 -4 505 -4 Q437 -4 408 13 Q379 30 368 56 L366 56 Q352 25 318 10 Q284 -5 218 -5 Q169 -5 135 3 Q101 11 79.5 28 Q58 45 48 73 Q38 101 38 142 Q38 175 46 200.5 Q54 226 73.5 243.5 Q93 261 125.5 270 Q158 279 206 279 Q241 279 267.5 278.5 Q294 278 316 278 L316 319 Q316 341 313 355 Q310 369 301 377.5 Q292 386 276 389 Q260 392 235 392 Q212 392 198 389.5 Q184 387 175.5 381 Q167 375 163.5 365 Q160 355 158 339 L157 331 L58 331 Q57 338 57 346 L57 379 Q57 404 71 421.5 Q85 439 109 449.5 Q133 460 165.5 464.5 Q198 469 236 469 Q296 469 326 455.5 Q356 442 369 420 L371 420 Q385 442 416.5 456 Q448 470 504 470 Q562 470 599.5 459.5 Q637 449 658.5 424 Q680 399 688 356.5 Q696 314 696 251 Z M316 161 L316 213 L229 213 Q178 213 160 196 Q142 179 142 144 Q142 102 161.5 86.5 Q181 71 228 71 Q273 71 294.5 90 Q316 109 316 161 Z M596 278 Q596 313 591.5 335.5 Q587 358 577 370.5 Q567 383 550 387.5 Q533 392 507 392 Q478 392 460.5 387.5 Q443 383 433 370 Q423 357 419.5 335 Q416 313 415 278 L596 278 Z " />
<glyph glyph-name="oslash" unicode="&#xf8;" horiz-adv-x="467" d="M232 470 Q290 470 327.5 460 Q365 450 386.5 423.5 Q408 397 416 350.5 Q424 304 424 232 Q424 160 416 113.5 Q408 67 386.5 41 Q365 15 327.5 5 Q290 -5 232 -5 Q174 -5 137.5 5 Q101 15 80 41 Q59 67 51 113.5 Q43 160 43 232 Q43 305 51 351 Q59 397 80 423.5 Q101 450 137.5 460 Q174 470 232 470 Z M144 232 Q144 214 144 199 Q144 184 145 170 L297 377 Q287 386 271.5 389.5 Q256 393 233 393 Q204 393 187 388 Q170 383 160 366 Q150 349 147 317.5 Q144 286 144 232 Z M233 72 Q262 72 279.5 77.5 Q297 83 306.5 100 Q316 117 319 148.5 Q322 180 322 232 Q322 247 322 260.5 Q322 274 321 285 L172 85 Q183 77 197.5 74.5 Q212 72 233 72 Z " />
<glyph glyph-name="questiondown" unicode="&#xbf;" horiz-adv-x="449" d="M33 -28 Q33 17 37 47.5 Q41 78 51.5 98.5 Q62 119 80.5 133 Q99 147 129 159 Q156 170 171 181.5 Q186 193 192.5 205.5 Q199 218 200.5 234 Q202 250 202 270 L304 270 L304 216 Q304 183 284 156 Q264 129 209 103 Q185 91 170.5 80.5 Q156 70 148.5 56 Q141 42 138.5 22 Q136 2 136 -28 Q136 -57 140.5 -75 Q145 -93 155.5 -103 Q166 -113 183.5 -117 Q201 -121 227 -121 Q277 -121 293.5 -107 Q310 -93 312 -62 L315 -27 L413 -27 Q414 -36 416 -52.5 Q418 -69 418 -85 Q418 -114 409.5 -135.5 Q401 -157 379.5 -172 Q358 -187 320 -194.5 Q282 -202 223 -202 Q170 -202 134 -194.5 Q98 -187 75.5 -167.5 Q53 -148 43 -114.5 Q33 -81 33 -28 Z M307 465 L307 360 L198 360 L198 465 L307 465 Z " />
<glyph glyph-name="exclamdown" unicode="&#xa1;" horiz-adv-x="233" d="M171 0 L58 0 L65 472 L164 472 L171 0 Z M169 665 L169 560 L58 560 L58 665 L169 665 Z " />
<glyph glyph-name="logicalnot" unicode="&#xac;" horiz-adv-x="555" d="M414 212 L414 368 L48 368 L48 451 L507 451 L507 212 L414 212 Z " />
<glyph glyph-name="radical" unicode="&#x221a;" horiz-adv-x="515" d="M357 -104 L269 -104 L121 286 L55 265 L23 344 L189 401 L298 81 L301 81 L404 819 L494 819 L357 -104 Z " />
<glyph glyph-name="florin" unicode="&#x192;" horiz-adv-x="555" d="M40 -34 Q67 -40 99 -40 Q128 -40 141.5 -21.5 Q155 -3 158 21 L208 385 L112 385 L112 465 L215 465 L234 603 Q243 672 276.5 706 Q310 740 381 740 Q410 740 432.5 737 Q455 734 466 729 L450 644 Q436 649 422.5 651.5 Q409 654 389 654 Q359 654 347 635.5 Q335 617 331 589 L315 465 L440 465 L416 385 L306 385 L258 11 Q249 -59 216 -97 Q183 -135 111 -135 Q83 -135 60.5 -131 Q38 -127 24 -121 L40 -34 Z " />
<glyph glyph-name="approxequal" unicode="&#x2248;" horiz-adv-x="555" d="M66 229 Q90 258 123 277.5 Q156 297 195 297 Q218 297 239.5 290.5 Q261 284 281.5 276.5 Q302 269 321.5 263 Q341 257 359 257 Q378 257 399 265.5 Q420 274 441 299 L488 241 Q465 210 432.5 191.5 Q400 173 352 173 Q328 173 309.5 179.5 Q291 186 273 194 Q255 202 236.5 208.5 Q218 215 195 215 Q179 215 157 206 Q135 197 115 171 L66 229 Z M66 378 Q90 408 123 427 Q156 446 195 446 Q218 446 239.5 439.5 Q261 433 281.5 425.5 Q302 418 321.5 412 Q341 406 359 406 Q378 406 399 414.5 Q420 423 441 449 L488 390 Q465 360 432.5 341 Q400 322 352 322 Q328 322 309.5 328.5 Q291 335 273 343 Q255 351 236.5 357.5 Q218 364 195 364 Q179 364 157 355 Q135 346 115 320 L66 378 Z " />
<glyph glyph-name="Delta" unicode="&#x2206;" horiz-adv-x="555" d="M21 0 L276 716 L534 0 L21 0 Z M272 419 L145 88 L403 88 L272 419 Z " />
<glyph glyph-name="guillemotleft" unicode="&#xab;" horiz-adv-x="390" d="M135 9 L37 256 L126 501 L198 479 L122 256 L209 29 L135 9 Z M289 9 L192 256 L281 501 L355 479 L278 256 L365 29 L289 9 Z " />
<glyph glyph-name="guillemotright" unicode="&#xbb;" horiz-adv-x="390" d="M179 29 L267 256 L191 479 L265 501 L352 256 L254 9 L179 29 Z M24 29 L111 256 L33 479 L109 501 L197 256 L99 9 L24 29 Z " />
<glyph glyph-name="ellipsis" unicode="&#x2026;" horiz-adv-x="611" d="M43 0 L43 106 L154 106 L154 0 L43 0 Z M249 0 L249 106 L362 106 L362 0 L249 0 Z M455 0 L455 106 L568 106 L568 0 L455 0 Z " />
<glyph glyph-name="OE" unicode="&#x152;" horiz-adv-x="860" d="M431 0 L431 27 Q413 10 379 1.5 Q345 -7 300 -7 Q219 -7 169 7.5 Q119 22 92 59.5 Q65 97 55.5 163 Q46 229 46 332 Q46 436 55.5 502 Q65 568 92.5 605.5 Q120 643 169.5 657 Q219 671 300 671 Q348 671 379 664 Q410 657 431 638 L431 665 L813 665 L813 581 L538 581 L538 383 L791 383 L757 299 L538 299 L538 82 L813 82 L813 0 L431 0 Z M431 332 Q431 413 427.5 463 Q424 513 410.5 541 Q397 569 371 579 Q345 589 300 589 Q253 589 224.5 579.5 Q196 570 180.5 542 Q165 514 160 463.5 Q155 413 155 332 Q155 254 159.5 204.5 Q164 155 179 126.5 Q194 98 223 87 Q252 76 300 76 Q344 76 370 85.5 Q396 95 409.5 122.5 Q423 150 427 200 Q431 250 431 332 Z " />
<glyph glyph-name="oe" unicode="&#x153;" horiz-adv-x="747" d="M236 470 Q288 470 322 461 Q356 452 373 426 Q391 452 425.5 461 Q460 470 514 470 Q573 470 611 460 Q649 450 670.5 424.5 Q692 399 700 356 Q708 313 708 248 Q708 240 707.5 231.5 Q707 223 707 213 L425 213 Q425 169 428.5 141 Q432 113 442 97.5 Q452 82 470.5 76.5 Q489 71 519 71 Q547 71 563 74 Q579 77 587.5 85 Q596 93 598 107 Q600 121 600 144 L699 144 L699 130 Q699 124 699.5 116 Q700 108 700 100 Q700 67 687 46.5 Q674 26 649.5 14.5 Q625 3 591 -1 Q557 -5 515 -5 Q460 -5 425.5 4 Q391 13 373 38 Q356 14 321.5 4.5 Q287 -5 236 -5 Q176 -5 137.5 5 Q99 15 77.5 41 Q56 67 48 113.5 Q40 160 40 232 Q40 305 48 351 Q56 397 77.5 423.5 Q99 450 137.5 460 Q176 470 236 470 Z M232 71 Q262 71 279.5 76.5 Q297 82 307 99 Q317 116 320 147.5 Q323 179 323 232 Q323 284 320 315.5 Q317 347 307.5 364.5 Q298 382 280 388 Q262 394 232 394 Q203 394 185 389 Q167 384 157.5 367 Q148 350 144.5 318 Q141 286 141 232 Q141 179 144 147.5 Q147 116 157 99 Q167 82 185 76.5 Q203 71 232 71 Z M606 278 Q606 314 602 337 Q598 360 588.5 372.5 Q579 385 562 389.5 Q545 394 519 394 Q490 394 472 389.5 Q454 385 444 372 Q434 359 430.5 336.5 Q427 314 427 278 L606 278 Z " />
<glyph glyph-name="endash" unicode="&#x2013;" horiz-adv-x="603" d="M48 201 L48 285 L555 285 L555 201 L48 201 Z " />
<glyph glyph-name="emdash" unicode="&#x2014;" horiz-adv-x="1207" d="M48 201 L48 285 L1158 285 L1158 201 L48 201 Z " />
<glyph glyph-name="quotedblleft" unicode="&#x201c;" horiz-adv-x="336" d="M80 665 L144 665 L99 556 L147 556 L147 450 L35 450 L35 556 L80 665 Z M235 665 L299 665 L253 556 L300 556 L300 450 L189 450 L189 556 L235 665 Z " />
<glyph glyph-name="quotedblright" unicode="&#x201d;" horiz-adv-x="337" d="M98 449 L34 449 L81 558 L33 558 L33 665 L145 665 L145 558 L98 449 Z M254 449 L189 449 L235 558 L187 558 L187 665 L299 665 L299 558 L254 449 Z " />
<glyph glyph-name="quoteleft" unicode="&#x2018;" horiz-adv-x="178" d="M77 665 L141 665 L94 556 L144 556 L144 450 L30 450 L30 556 L77 665 Z " />
<glyph glyph-name="quoteright" unicode="&#x2019;" horiz-adv-x="176" d="M98 449 L33 449 L80 558 L30 558 L30 665 L144 665 L144 558 L98 449 Z " />
<glyph glyph-name="divide" unicode="&#xf7;" horiz-adv-x="555" d="M230 452 L230 562 L342 562 L342 452 L230 452 Z M55 281 L55 365 L500 365 L500 281 L55 281 Z M230 84 L230 194 L342 194 L342 84 L230 84 Z " />
<glyph glyph-name="lozenge" unicode="&#x25ca;" horiz-adv-x="445" d="M257 0 L183 0 L40 377 L186 740 L264 740 L404 373 L257 0 Z M224 563 L141 376 L221 180 L306 373 L224 563 Z " />
<glyph glyph-name="fraction" unicode="&#x2044;" horiz-adv-x="495" d="M104 0 L11 0 L389 665 L483 665 L104 0 Z " />
<glyph glyph-name="currency" unicode="&#xa4;" horiz-adv-x="595" d="M214 239 Q216 186 223 154 Q230 122 244.5 105 Q259 88 282 82 Q305 76 338 76 Q393 76 413.5 91 Q434 106 436 137 L439 202 L543 202 Q543 188 543.5 179 Q544 170 544 162.5 Q544 155 544 148.5 Q544 142 544 134 Q544 95 534 68 Q524 41 500 24.5 Q476 8 437 0.5 Q398 -7 340 -7 Q277 -7 234.5 3 Q192 13 164.5 40 Q137 67 123.5 115 Q110 163 106 239 L23 239 L43 305 L103 305 L103 356 L23 356 L43 423 L106 423 Q110 501 124 549.5 Q138 598 165 625 Q192 652 234 661.5 Q276 671 338 671 Q401 671 441 663 Q481 655 504.5 639 Q528 623 536.5 598 Q545 573 545 539 Q545 517 543.5 497.5 Q542 478 541 464 L439 464 Q439 499 436.5 523 Q434 547 424 561.5 Q414 576 393.5 582 Q373 588 336 588 Q305 588 283 582.5 Q261 577 246.5 559.5 Q232 542 224.5 509.5 Q217 477 214 423 L429 423 L407 356 L212 356 L212 305 L387 305 L366 239 L214 239 Z " />
<glyph glyph-name="guilsinglleft" unicode="&#x2039;" horiz-adv-x="234" d="M129 9 L31 256 L120 501 L192 479 L117 256 L204 29 L129 9 Z " />
<glyph glyph-name="guilsinglright" unicode="&#x203a;" horiz-adv-x="233" d="M28 29 L116 256 L40 479 L114 501 L201 256 L103 9 L28 29 Z " />
<glyph glyph-name="fi" unicode="&#xfb01;" horiz-adv-x="486" d="M278 393 L178 393 L178 0 L78 0 L78 393 L19 393 L19 465 L78 465 L78 532 Q78 597 112.5 634 Q147 671 222 671 Q235 671 248 670.5 Q261 670 271.5 669.5 Q282 669 289 668 Q296 667 297 667 L297 597 Q288 597 277 598 Q268 598 256.5 598.5 Q245 599 233 599 Q201 599 189.5 584.5 Q178 570 178 537 L178 465 L298 465 L278 393 Z M329 0 L329 465 L428 465 L428 0 L329 0 Z M329 515 L329 619 L428 619 L428 515 L329 515 Z " />
<glyph glyph-name="fl" unicode="&#xfb02;" horiz-adv-x="485" d="M329 0 L329 665 L428 665 L428 0 L329 0 Z M278 393 L178 393 L178 0 L78 0 L78 393 L19 393 L19 465 L78 465 L78 532 Q78 597 112.5 634 Q147 671 222 671 Q235 671 248 670.5 Q261 670 271.5 669.5 Q282 669 289 668 Q296 667 297 667 L297 597 Q288 597 277 598 Q268 598 256.5 598.5 Q245 599 233 599 Q201 599 189.5 584.5 Q178 570 178 537 L178 465 L298 465 L278 393 Z " />
<glyph glyph-name="daggerdbl" unicode="&#x2021;" horiz-adv-x="374" d="M28 84 L139 84 L139 381 L28 381 L28 465 L139 465 L139 664 L230 664 L230 465 L339 465 L339 381 L230 381 L230 84 L339 84 L339 0 L230 0 L230 -197 L139 -197 L139 0 L28 0 L28 84 Z " />
<glyph glyph-name="periodcentered" unicode="&#xb7;" horiz-adv-x="249" d="M67 275 L67 382 L181 382 L181 275 L67 275 Z " />
<glyph glyph-name="quotesinglbase" unicode="&#x201a;" horiz-adv-x="177" d="M99 -109 L34 -109 L80 0 L31 0 L31 106 L145 106 L145 0 L99 -109 Z " />
<glyph glyph-name="quotedblbase" unicode="&#x201e;" horiz-adv-x="340" d="M99 -109 L35 -109 L81 0 L33 0 L33 106 L144 106 L144 0 L99 -109 Z M254 -109 L190 -109 L236 0 L187 0 L187 106 L299 106 L299 0 L254 -109 Z " />
<glyph glyph-name="perthousand" unicode="&#x2030;" horiz-adv-x="1079" d="M237 0 L146 0 L522 665 L616 665 L237 0 Z M314 507 Q314 460 309.5 429 Q305 398 290.5 379.5 Q276 361 248.5 353.5 Q221 346 176 346 Q132 346 105.5 353.5 Q79 361 65 379.5 Q51 398 46 429 Q41 460 41 507 Q41 556 46.5 587 Q52 618 67 636 Q82 654 109 661 Q136 668 179 668 Q224 668 251 660.5 Q278 653 292 634.5 Q306 616 310 585 Q314 554 314 507 Z M230 507 Q230 537 229 557.5 Q228 578 223 591 Q218 604 207.5 609.5 Q197 615 179 615 Q162 615 151 610 Q140 605 134 593 Q128 581 125.5 560 Q123 539 123 507 Q123 476 125 455.5 Q127 435 133 422.5 Q139 410 149 404.5 Q159 399 176 399 Q194 399 205 404.5 Q216 410 221.5 422.5 Q227 435 228.5 456 Q230 477 230 507 Z M720 158 Q720 110 715.5 79 Q711 48 696 30 Q681 12 654 4.5 Q627 -3 582 -3 Q538 -3 511.5 4.5 Q485 12 471 30 Q457 48 452.5 79 Q448 110 448 158 Q448 207 453.5 238 Q459 269 474 287 Q489 305 515.5 312 Q542 319 584 319 Q630 319 657 311.5 Q684 304 698 285 Q712 266 716 235 Q720 204 720 158 Z M636 158 Q636 188 635 208.5 Q634 229 629 241.5 Q624 254 613.5 259.5 Q603 265 584 265 Q567 265 556.5 260 Q546 255 540 243 Q534 231 532 210.5 Q530 190 530 158 Q530 127 531.5 106 Q533 85 538.5 72.5 Q544 60 554.5 54.5 Q565 49 582 49 Q601 49 611.5 54.5 Q622 60 627.5 72.5 Q633 85 634.5 106 Q636 127 636 158 Z M1039 158 Q1039 110 1034 79 Q1029 48 1014.5 30 Q1000 12 973 4.5 Q946 -3 901 -3 Q857 -3 830 4.5 Q803 12 789 30 Q775 48 770.5 79 Q766 110 766 158 Q766 207 771 238 Q776 269 791 287 Q806 305 833 312 Q860 319 903 319 Q948 319 975 311.5 Q1002 304 1016.5 285 Q1031 266 1035 235 Q1039 204 1039 158 Z M955 158 Q955 188 954 208.5 Q953 229 948 241.5 Q943 254 932.5 259.5 Q922 265 903 265 Q886 265 875.5 260 Q865 255 859 243 Q853 231 850.5 210.5 Q848 190 848 158 Q848 127 849.5 106 Q851 85 856.5 72.5 Q862 60 872.5 54.5 Q883 49 901 49 Q920 49 930.5 54.5 Q941 60 946.5 72.5 Q952 85 953.5 106 Q955 127 955 158 Z " />
<glyph glyph-name="dotlessi" unicode="&#x131;" horiz-adv-x="252" d="M90 0 L90 395 L6 395 L6 465 L191 465 L191 0 L90 0 Z " />
<glyph glyph-name="circumflex" unicode="&#x2c6;" horiz-adv-x="331" d="M77 504 L34 553 L146 654 L186 654 L298 553 L255 504 L167 578 L165 578 L77 504 Z " />
<glyph glyph-name="tilde" unicode="&#x2dc;" horiz-adv-x="330" d="M115 646 Q132 646 146.5 640 Q161 634 173.5 626.5 Q186 619 196 613 Q206 607 213 607 Q221 607 227.5 612 Q234 617 244 640 L299 616 Q286 577 264 552 Q242 527 215 527 Q198 527 184 533 Q170 539 157.5 546.5 Q145 554 135 560 Q125 566 118 566 Q110 566 103.5 561 Q97 556 87 532 L32 556 Q44 596 66 621 Q88 646 115 646 Z " />
<glyph glyph-name="macron" unicode="&#xaf;" horiz-adv-x="289" d="M28 546 L28 614 L257 614 L257 546 L28 546 Z " />
<glyph glyph-name="breve" unicode="&#x2d8;" horiz-adv-x="318" d="M91 646 Q94 620 112 605.5 Q130 591 157 591 Q190 591 208.5 607 Q227 623 228 646 L283 646 Q285 596 251 563.5 Q217 531 157 531 Q98 531 65.5 564 Q33 597 35 646 L91 646 Z " />
<glyph glyph-name="dotaccent" unicode="&#x2d9;" horiz-adv-x="247" d="M74 547 L74 641 L175 641 L175 547 L74 547 Z " />
<glyph glyph-name="ring" unicode="&#x2da;" horiz-adv-x="265" d="M133 662 Q178 662 202 637.5 Q226 613 226 578 Q226 543 201.5 518.5 Q177 494 133 494 Q88 494 63.5 519 Q39 544 39 578 Q39 613 63.5 637.5 Q88 662 133 662 Z M133 620 Q113 620 102 607.5 Q91 595 91 578 Q91 562 102 549.5 Q113 537 133 537 Q153 537 164 549 Q175 561 175 578 Q175 595 164 607.5 Q153 620 133 620 Z " />
<glyph glyph-name="cedilla" unicode="&#xb8;" horiz-adv-x="239" d="M173 5 L141 -47 Q178 -47 197.5 -64 Q217 -81 217 -119 Q217 -165 192.5 -183.5 Q168 -202 108 -202 Q84 -202 60.5 -196.5 Q37 -191 22 -183 L45 -135 Q62 -143 74 -147 Q86 -151 103 -151 Q125 -151 133.5 -141.5 Q142 -132 142 -115 Q142 -98 133.5 -90 Q125 -82 102 -82 L62 -82 L107 5 L173 5 Z " />
<glyph glyph-name="hungarumlaut" unicode="&#x2dd;" horiz-adv-x="353" d="M36 527 L106 674 L184 642 L93 504 L36 527 Z M171 528 L244 674 L321 641 L229 504 L171 528 Z " />
<glyph glyph-name="ogonek" unicode="&#x2db;" horiz-adv-x="242" d="M158 5 Q142 -13 125 -40 Q108 -67 108 -90 Q108 -111 123.5 -122.5 Q139 -134 158 -134 Q186 -134 208 -126 L222 -179 Q202 -193 177.5 -197.5 Q153 -202 132 -202 Q87 -202 58.5 -178.5 Q30 -155 30 -114 Q30 -96 35.5 -78.5 Q41 -61 49 -45 Q57 -29 67.5 -16.5 Q78 -4 87 5 L158 5 Z " />
<glyph glyph-name="caron" unicode="&#x2c7;" horiz-adv-x="328" d="M32 601 L74 648 L165 580 L254 648 L296 601 L191 507 L140 507 L32 601 Z " />
<glyph glyph-name="Euro" unicode="&#x20ac;" horiz-adv-x="594" d="M214 239 Q216 186 223 154 Q230 122 244.5 105 Q259 88 282 82 Q305 76 338 76 Q393 76 413.5 91 Q434 106 436 137 L440 202 L543 202 Q543 188 543.5 178.5 Q544 169 544.5 161.5 Q545 154 545 147 Q545 140 545 130 Q545 89 533 62.5 Q521 36 496 20.5 Q471 5 432 -1 Q393 -7 340 -7 Q277 -7 234 3 Q191 13 164 40 Q137 67 123 115 Q109 163 105 239 L23 239 L43 305 L103 305 L103 356 L23 356 L43 423 L106 423 Q110 501 124 549.5 Q138 598 165 625.5 Q192 653 234 663 Q276 673 338 673 Q387 673 425.5 668 Q464 663 490.5 648 Q517 633 531 605.5 Q545 578 545 534 Q545 523 544.5 511 Q544 499 543 488 Q542 476 542 464 L439 464 Q439 499 436.5 523 Q434 547 423.5 562 Q413 577 392.5 583.5 Q372 590 336 590 Q305 590 283 584 Q261 578 246.5 560 Q232 542 224.5 509.5 Q217 477 214 423 L429 423 L407 356 L212 356 L212 305 L387 305 L366 239 L214 239 Z " />
<glyph glyph-name="Eth" unicode="&#xd0;" horiz-adv-x="621" d="M573 277 Q573 133 508.5 66.5 Q444 0 316 0 L83 0 L83 295 L15 295 L15 379 L83 379 L83 665 L317 665 Q446 665 509.5 599.5 Q573 534 573 388 L573 277 Z M189 295 L189 84 L316 84 Q353 84 381 93.5 Q409 103 428 125 Q447 147 457 184 Q467 221 467 277 L467 388 Q467 485 432 532.5 Q397 580 316 580 L189 580 L189 379 L350 379 L350 295 L189 295 Z " />
<glyph glyph-name="aacute" unicode="&#xe1;" horiz-adv-x="474" d="M327 0 L318 38 Q298 22 265.5 9 Q233 -4 191 -4 Q112 -4 75 29 Q38 62 38 142 Q38 175 46 200.5 Q54 226 73 243 Q92 260 123.5 269 Q155 278 203 278 Q229 278 247 278 Q265 278 277.5 277.5 Q290 277 299 277 Q308 277 316 277 L316 319 Q316 342 312 356.5 Q308 371 298.5 379 Q289 387 273 389.5 Q257 392 233 392 Q208 392 194 389 Q180 386 172.5 378.5 Q165 371 162 359.5 Q159 348 156 330 L58 330 Q57 337 57 345 Q56 352 56 360.5 Q56 369 56 378 Q56 404 70 421.5 Q84 439 108.5 449.5 Q133 460 165.5 464.5 Q198 469 234 469 Q288 469 323 462 Q358 455 378.5 438.5 Q399 422 407 394.5 Q415 367 415 326 L415 0 L327 0 Z M316 212 L227 212 Q177 212 159.5 195.5 Q142 179 142 144 Q142 103 161.5 87.5 Q181 72 226 72 Q272 72 294 90.5 Q316 109 316 161 L316 212 Z M184 545 L306 666 L360 604 L223 501 L184 545 Z " />
<glyph glyph-name="agrave" unicode="&#xe0;" horiz-adv-x="474" d="M327 0 L318 38 Q298 22 265.5 9 Q233 -4 191 -4 Q112 -4 75 29 Q38 62 38 142 Q38 175 46 200.5 Q54 226 73 243 Q92 260 123.5 269 Q155 278 203 278 Q229 278 247 278 Q265 278 277.5 277.5 Q290 277 299 277 Q308 277 316 277 L316 319 Q316 342 312 356.5 Q308 371 298.5 379 Q289 387 273 389.5 Q257 392 233 392 Q208 392 194 389 Q180 386 172.5 378.5 Q165 371 162 359.5 Q159 348 156 330 L58 330 Q57 337 57 345 Q56 352 56 360.5 Q56 369 56 378 Q56 404 70 421.5 Q84 439 108.5 449.5 Q133 460 165.5 464.5 Q198 469 234 469 Q288 469 323 462 Q358 455 378.5 438.5 Q399 422 407 394.5 Q415 367 415 326 L415 0 L327 0 Z M316 212 L227 212 Q177 212 159.5 195.5 Q142 179 142 144 Q142 103 161.5 87.5 Q181 72 226 72 Q272 72 294 90.5 Q316 109 316 161 L316 212 Z M254 501 L117 604 L171 666 L293 545 L254 501 Z " />
<glyph glyph-name="acircumflex" unicode="&#xe2;" horiz-adv-x="474" d="M327 0 L318 38 Q298 22 265.5 9 Q233 -4 191 -4 Q112 -4 75 29 Q38 62 38 142 Q38 175 46 200.5 Q54 226 73 243 Q92 260 123.5 269 Q155 278 203 278 Q229 278 247 278 Q265 278 277.5 277.5 Q290 277 299 277 Q308 277 316 277 L316 319 Q316 342 312 356.5 Q308 371 298.5 379 Q289 387 273 389.5 Q257 392 233 392 Q208 392 194 389 Q180 386 172.5 378.5 Q165 371 162 359.5 Q159 348 156 330 L58 330 Q57 337 57 345 Q56 352 56 360.5 Q56 369 56 378 Q56 404 70 421.5 Q84 439 108.5 449.5 Q133 460 165.5 464.5 Q198 469 234 469 Q288 469 323 462 Q358 455 378.5 438.5 Q399 422 407 394.5 Q415 367 415 326 L415 0 L327 0 Z M316 212 L227 212 Q177 212 159.5 195.5 Q142 179 142 144 Q142 103 161.5 87.5 Q181 72 226 72 Q272 72 294 90.5 Q316 109 316 161 L316 212 Z M146 504 L103 553 L215 654 L255 654 L367 553 L324 504 L236 578 L234 578 L146 504 Z " />
<glyph glyph-name="adieresis" unicode="&#xe4;" horiz-adv-x="474" d="M327 0 L318 38 Q298 22 265.5 9 Q233 -4 191 -4 Q112 -4 75 29 Q38 62 38 142 Q38 175 46 200.5 Q54 226 73 243 Q92 260 123.5 269 Q155 278 203 278 Q229 278 247 278 Q265 278 277.5 277.5 Q290 277 299 277 Q308 277 316 277 L316 319 Q316 342 312 356.5 Q308 371 298.5 379 Q289 387 273 389.5 Q257 392 233 392 Q208 392 194 389 Q180 386 172.5 378.5 Q165 371 162 359.5 Q159 348 156 330 L58 330 Q57 337 57 345 Q56 352 56 360.5 Q56 369 56 378 Q56 404 70 421.5 Q84 439 108.5 449.5 Q133 460 165.5 464.5 Q198 469 234 469 Q288 469 323 462 Q358 455 378.5 438.5 Q399 422 407 394.5 Q415 367 415 326 L415 0 L327 0 Z M316 212 L227 212 Q177 212 159.5 195.5 Q142 179 142 144 Q142 103 161.5 87.5 Q181 72 226 72 Q272 72 294 90.5 Q316 109 316 161 L316 212 Z M121 530 L121 624 L210 624 L210 530 L121 530 Z M269 530 L269 624 L359 624 L359 530 L269 530 Z " />
<glyph glyph-name="atilde" unicode="&#xe3;" horiz-adv-x="474" d="M327 0 L318 38 Q298 22 265.5 9 Q233 -4 191 -4 Q112 -4 75 29 Q38 62 38 142 Q38 175 46 200.5 Q54 226 73 243 Q92 260 123.5 269 Q155 278 203 278 Q229 278 247 278 Q265 278 277.5 277.5 Q290 277 299 277 Q308 277 316 277 L316 319 Q316 342 312 356.5 Q308 371 298.5 379 Q289 387 273 389.5 Q257 392 233 392 Q208 392 194 389 Q180 386 172.5 378.5 Q165 371 162 359.5 Q159 348 156 330 L58 330 Q57 337 57 345 Q56 352 56 360.5 Q56 369 56 378 Q56 404 70 421.5 Q84 439 108.5 449.5 Q133 460 165.5 464.5 Q198 469 234 469 Q288 469 323 462 Q358 455 378.5 438.5 Q399 422 407 394.5 Q415 367 415 326 L415 0 L327 0 Z M316 212 L227 212 Q177 212 159.5 195.5 Q142 179 142 144 Q142 103 161.5 87.5 Q181 72 226 72 Q272 72 294 90.5 Q316 109 316 161 L316 212 Z M185 646 Q202 646 216.5 640 Q231 634 243.5 626.5 Q256 619 266 613 Q276 607 283 607 Q291 607 297.5 612 Q304 617 314 640 L369 616 Q356 577 334 552 Q312 527 285 527 Q268 527 254 533 Q240 539 227.5 546.5 Q215 554 205 560 Q195 566 188 566 Q180 566 173.5 561 Q167 556 157 532 L102 556 Q114 596 136 621 Q158 646 185 646 Z " />
<glyph glyph-name="aring" unicode="&#xe5;" horiz-adv-x="476" d="M327 0 L318 38 Q298 22 265.5 9 Q233 -4 191 -4 Q112 -4 75 29 Q38 62 38 142 Q38 175 46 200.5 Q54 226 73 243 Q92 260 123.5 269 Q155 278 203 278 Q229 278 247 278 Q265 278 277.5 277.5 Q290 277 299 277 Q308 277 316 277 L316 319 Q316 342 312 356.5 Q308 371 298.5 379 Q289 387 273 389.5 Q257 392 233 392 Q208 392 194 389 Q180 386 172.5 378.5 Q165 371 162 359.5 Q159 348 156 330 L58 330 Q57 337 57 345 Q56 352 56 360.5 Q56 369 56 378 Q56 404 70 421.5 Q84 439 108.5 449.5 Q133 460 165.5 464.5 Q198 469 234 469 Q288 469 323 462 Q358 455 378.5 438.5 Q399 422 407 394.5 Q415 367 415 326 L415 0 L327 0 Z M316 212 L227 212 Q177 212 159.5 195.5 Q142 179 142 144 Q142 103 161.5 87.5 Q181 72 226 72 Q272 72 294 90.5 Q316 109 316 161 L316 212 Z M238 662 Q283 662 307 637.5 Q331 613 331 578 Q331 543 306.5 518.5 Q282 494 238 494 Q193 494 168.5 519 Q144 544 144 578 Q144 613 168.5 637.5 Q193 662 238 662 Z M238 620 Q218 620 207 607.5 Q196 595 196 578 Q196 562 207 549.5 Q218 537 238 537 Q258 537 269 549 Q280 561 280 578 Q280 595 269 607.5 Q258 620 238 620 Z " />
<glyph glyph-name="ccedilla" unicode="&#xe7;" horiz-adv-x="465" d="M418 375 Q418 366 417.5 355.5 Q417 345 417 337 Q416 327 416 318 L318 318 L316 348 Q314 368 297.5 380 Q281 392 238 392 Q209 392 191.5 387 Q174 382 164 365 Q154 348 151 315 Q148 282 148 226 Q148 176 151 146 Q154 116 163.5 99.5 Q173 83 190.5 77.5 Q208 72 238 72 Q280 72 297 81.5 Q314 91 316 112 L319 141 L416 141 Q418 132 418.5 121 Q419 110 419 93 Q419 11 299 -2 L272 -47 Q309 -47 328.5 -64 Q348 -81 348 -119 Q348 -165 323.5 -183.5 Q299 -202 239 -202 Q215 -202 191.5 -196.5 Q168 -191 153 -183 L176 -135 Q193 -143 205 -147 Q217 -151 234 -151 Q256 -151 264.5 -141.5 Q273 -132 273 -115 Q273 -98 264.5 -90 Q256 -82 233 -82 L193 -82 L233 -5 Q174 -5 137.5 6 Q101 17 80.5 44 Q60 71 53 117 Q46 163 46 234 Q46 304 54 349.5 Q62 395 83.5 422 Q105 449 142.5 459.5 Q180 470 240 470 Q288 470 321.5 462 Q355 454 376.5 441 Q398 428 408 411 Q418 394 418 375 Z " />
<glyph glyph-name="eacute" unicode="&#xe9;" horiz-adv-x="470" d="M423 251 Q423 240 422.5 230 Q422 220 421 209 L143 209 Q143 165 147 138 Q151 111 161 96.5 Q171 82 189 77 Q207 72 235 72 Q282 72 297.5 82 Q313 92 315 116 L317 145 L414 145 L414 131 Q414 125 414.5 117 Q415 109 415 101 Q415 69 402 48.5 Q389 28 365 16 Q341 4 307.5 -0.5 Q274 -5 234 -5 Q179 -5 142 3.5 Q105 12 83 37.5 Q61 63 52 108 Q43 153 43 227 Q43 300 51.5 347 Q60 394 81 421.5 Q102 449 139 459.5 Q176 470 233 470 Q290 470 327 459.5 Q364 449 385.5 424 Q407 399 415 356.5 Q423 314 423 251 Z M323 276 Q322 311 318 334 Q314 357 304 370 Q294 383 277 388 Q260 393 235 393 Q208 393 191 388 Q174 383 164 370 Q154 357 149.5 334.5 Q145 312 144 276 L323 276 Z M162 545 L284 666 L338 604 L201 501 L162 545 Z " />
<glyph glyph-name="egrave" unicode="&#xe8;" horiz-adv-x="470" d="M423 251 Q423 240 422.5 230 Q422 220 421 209 L143 209 Q143 165 147 138 Q151 111 161 96.5 Q171 82 189 77 Q207 72 235 72 Q282 72 297.5 82 Q313 92 315 116 L317 145 L414 145 L414 131 Q414 125 414.5 117 Q415 109 415 101 Q415 69 402 48.5 Q389 28 365 16 Q341 4 307.5 -0.5 Q274 -5 234 -5 Q179 -5 142 3.5 Q105 12 83 37.5 Q61 63 52 108 Q43 153 43 227 Q43 300 51.5 347 Q60 394 81 421.5 Q102 449 139 459.5 Q176 470 233 470 Q290 470 327 459.5 Q364 449 385.5 424 Q407 399 415 356.5 Q423 314 423 251 Z M323 276 Q322 311 318 334 Q314 357 304 370 Q294 383 277 388 Q260 393 235 393 Q208 393 191 388 Q174 383 164 370 Q154 357 149.5 334.5 Q145 312 144 276 L323 276 Z M266 501 L129 604 L183 666 L305 545 L266 501 Z " />
<glyph glyph-name="ecircumflex" unicode="&#xea;" horiz-adv-x="470" d="M423 251 Q423 240 422.5 230 Q422 220 421 209 L143 209 Q143 165 147 138 Q151 111 161 96.5 Q171 82 189 77 Q207 72 235 72 Q282 72 297.5 82 Q313 92 315 116 L317 145 L414 145 L414 131 Q414 125 414.5 117 Q415 109 415 101 Q415 69 402 48.5 Q389 28 365 16 Q341 4 307.5 -0.5 Q274 -5 234 -5 Q179 -5 142 3.5 Q105 12 83 37.5 Q61 63 52 108 Q43 153 43 227 Q43 300 51.5 347 Q60 394 81 421.5 Q102 449 139 459.5 Q176 470 233 470 Q290 470 327 459.5 Q364 449 385.5 424 Q407 399 415 356.5 Q423 314 423 251 Z M323 276 Q322 311 318 334 Q314 357 304 370 Q294 383 277 388 Q260 393 235 393 Q208 393 191 388 Q174 383 164 370 Q154 357 149.5 334.5 Q145 312 144 276 L323 276 Z M145 504 L102 553 L214 654 L254 654 L366 553 L323 504 L235 578 L233 578 L145 504 Z " />
<glyph glyph-name="edieresis" unicode="&#xeb;" horiz-adv-x="470" d="M423 251 Q423 240 422.5 230 Q422 220 421 209 L143 209 Q143 165 147 138 Q151 111 161 96.5 Q171 82 189 77 Q207 72 235 72 Q282 72 297.5 82 Q313 92 315 116 L317 145 L414 145 L414 131 Q414 125 414.5 117 Q415 109 415 101 Q415 69 402 48.5 Q389 28 365 16 Q341 4 307.5 -0.5 Q274 -5 234 -5 Q179 -5 142 3.5 Q105 12 83 37.5 Q61 63 52 108 Q43 153 43 227 Q43 300 51.5 347 Q60 394 81 421.5 Q102 449 139 459.5 Q176 470 233 470 Q290 470 327 459.5 Q364 449 385.5 424 Q407 399 415 356.5 Q423 314 423 251 Z M323 276 Q322 311 318 334 Q314 357 304 370 Q294 383 277 388 Q260 393 235 393 Q208 393 191 388 Q174 383 164 370 Q154 357 149.5 334.5 Q145 312 144 276 L323 276 Z M116 530 L116 624 L205 624 L205 530 L116 530 Z M264 530 L264 624 L354 624 L354 530 L264 530 Z " />
<glyph glyph-name="iacute" unicode="&#xed;" horiz-adv-x="247" d="M90 0 L90 395 L6 395 L6 465 L191 465 L191 0 L90 0 Z " />
<glyph glyph-name="igrave" unicode="&#xec;" horiz-adv-x="247" d="M144 501 L7 604 L61 666 L183 545 L144 501 Z M90 0 L90 395 L6 395 L6 465 L191 465 L191 0 L90 0 Z " />
<glyph glyph-name="icircumflex" unicode="&#xee;" horiz-adv-x="244" d="M90 0 L90 395 L6 395 L6 465 L191 465 L191 0 L90 0 Z M29 504 L-14 553 L98 654 L138 654 L250 553 L207 504 L119 578 L117 578 L29 504 Z " />
<glyph glyph-name="idieresis" unicode="&#xef;" horiz-adv-x="245" d="M90 0 L90 395 L6 395 L6 465 L191 465 L191 0 L90 0 Z M7 530 L7 624 L96 624 L96 530 L7 530 Z M155 530 L155 624 L245 624 L245 530 L155 530 Z " />
<glyph glyph-name="odieresis" unicode="&#xf6;" horiz-adv-x="472" d="M232 470 Q290 470 327.5 460 Q365 450 386.5 423.5 Q408 397 416 350.5 Q424 304 424 232 Q424 160 416 113.5 Q408 67 386.5 41 Q365 15 327.5 5 Q290 -5 232 -5 Q174 -5 137.5 5 Q101 15 80 41 Q59 67 51 113.5 Q43 160 43 232 Q43 305 51 351 Q59 397 80 423.5 Q101 450 137.5 460 Q174 470 232 470 Z M233 72 Q262 72 279.5 77.5 Q297 83 306.5 100 Q316 117 319 148.5 Q322 180 322 232 Q322 284 319 315.5 Q316 347 307 364 Q298 381 280.5 387 Q263 393 233 393 Q204 393 187 388 Q170 383 160 366 Q150 349 147 317.5 Q144 286 144 232 Q144 180 147 148.5 Q150 117 160 100 Q170 83 187 77.5 Q204 72 233 72 Z M114 530 L114 624 L203 624 L203 530 L114 530 Z M262 530 L262 624 L352 624 L352 530 L262 530 Z " />
<glyph glyph-name="ograve" unicode="&#xf2;" horiz-adv-x="472" d="M232 470 Q290 470 327.5 460 Q365 450 386.5 423.5 Q408 397 416 350.5 Q424 304 424 232 Q424 160 416 113.5 Q408 67 386.5 41 Q365 15 327.5 5 Q290 -5 232 -5 Q174 -5 137.5 5 Q101 15 80 41 Q59 67 51 113.5 Q43 160 43 232 Q43 305 51 351 Q59 397 80 423.5 Q101 450 137.5 460 Q174 470 232 470 Z M233 72 Q262 72 279.5 77.5 Q297 83 306.5 100 Q316 117 319 148.5 Q322 180 322 232 Q322 284 319 315.5 Q316 347 307 364 Q298 381 280.5 387 Q263 393 233 393 Q204 393 187 388 Q170 383 160 366 Q150 349 147 317.5 Q144 286 144 232 Q144 180 147 148.5 Q150 117 160 100 Q170 83 187 77.5 Q204 72 233 72 Z M252 501 L115 604 L169 666 L291 545 L252 501 Z " />
<glyph glyph-name="oacute" unicode="&#xf3;" horiz-adv-x="472" d="M232 470 Q290 470 327.5 460 Q365 450 386.5 423.5 Q408 397 416 350.5 Q424 304 424 232 Q424 160 416 113.5 Q408 67 386.5 41 Q365 15 327.5 5 Q290 -5 232 -5 Q174 -5 137.5 5 Q101 15 80 41 Q59 67 51 113.5 Q43 160 43 232 Q43 305 51 351 Q59 397 80 423.5 Q101 450 137.5 460 Q174 470 232 470 Z M233 72 Q262 72 279.5 77.5 Q297 83 306.5 100 Q316 117 319 148.5 Q322 180 322 232 Q322 284 319 315.5 Q316 347 307 364 Q298 381 280.5 387 Q263 393 233 393 Q204 393 187 388 Q170 383 160 366 Q150 349 147 317.5 Q144 286 144 232 Q144 180 147 148.5 Q150 117 160 100 Q170 83 187 77.5 Q204 72 233 72 Z M169 545 L291 666 L345 604 L208 501 L169 545 Z " />
<glyph glyph-name="ocircumflex" unicode="&#xf4;" horiz-adv-x="472" d="M232 470 Q290 470 327.5 460 Q365 450 386.5 423.5 Q408 397 416 350.5 Q424 304 424 232 Q424 160 416 113.5 Q408 67 386.5 41 Q365 15 327.5 5 Q290 -5 232 -5 Q174 -5 137.5 5 Q101 15 80 41 Q59 67 51 113.5 Q43 160 43 232 Q43 305 51 351 Q59 397 80 423.5 Q101 450 137.5 460 Q174 470 232 470 Z M233 72 Q262 72 279.5 77.5 Q297 83 306.5 100 Q316 117 319 148.5 Q322 180 322 232 Q322 284 319 315.5 Q316 347 307 364 Q298 381 280.5 387 Q263 393 233 393 Q204 393 187 388 Q170 383 160 366 Q150 349 147 317.5 Q144 286 144 232 Q144 180 147 148.5 Q150 117 160 100 Q170 83 187 77.5 Q204 72 233 72 Z M144 504 L101 553 L213 654 L253 654 L365 553 L322 504 L234 578 L232 578 L144 504 Z " />
<glyph glyph-name="otilde" unicode="&#xf5;" horiz-adv-x="472" d="M232 470 Q290 470 327.5 460 Q365 450 386.5 423.5 Q408 397 416 350.5 Q424 304 424 232 Q424 160 416 113.5 Q408 67 386.5 41 Q365 15 327.5 5 Q290 -5 232 -5 Q174 -5 137.5 5 Q101 15 80 41 Q59 67 51 113.5 Q43 160 43 232 Q43 305 51 351 Q59 397 80 423.5 Q101 450 137.5 460 Q174 470 232 470 Z M233 72 Q262 72 279.5 77.5 Q297 83 306.5 100 Q316 117 319 148.5 Q322 180 322 232 Q322 284 319 315.5 Q316 347 307 364 Q298 381 280.5 387 Q263 393 233 393 Q204 393 187 388 Q170 383 160 366 Q150 349 147 317.5 Q144 286 144 232 Q144 180 147 148.5 Q150 117 160 100 Q170 83 187 77.5 Q204 72 233 72 Z M183 646 Q200 646 214.5 640 Q229 634 241.5 626.5 Q254 619 264 613 Q274 607 281 607 Q289 607 295.5 612 Q302 617 312 640 L367 616 Q354 577 332 552 Q310 527 283 527 Q266 527 252 533 Q238 539 225.5 546.5 Q213 554 203 560 Q193 566 186 566 Q178 566 171.5 561 Q165 556 155 532 L100 556 Q112 596 134 621 Q156 646 183 646 Z " />
<glyph glyph-name="ntilde" unicode="&#xf1;" horiz-adv-x="480" d="M278 470 Q319 470 346.5 462 Q374 454 391 437.5 Q408 421 415.5 395 Q423 369 423 333 L423 0 L324 0 L324 311 Q324 356 309.5 373 Q295 390 257 390 Q228 390 203 384.5 Q178 379 156 371 L156 0 L57 0 L57 465 L143 465 L152 426 Q172 446 204 458 Q236 470 278 470 Z M189 646 Q206 646 220.5 640 Q235 634 247.5 626.5 Q260 619 270 613 Q280 607 287 607 Q295 607 301.5 612 Q308 617 318 640 L373 616 Q360 577 338 552 Q316 527 289 527 Q272 527 258 533 Q244 539 231.5 546.5 Q219 554 209 560 Q199 566 192 566 Q184 566 177.5 561 Q171 556 161 532 L106 556 Q118 596 140 621 Q162 646 189 646 Z " />
<glyph glyph-name="scaron" unicode="&#x161;" horiz-adv-x="458" d="M414 139 Q414 103 404.5 76 Q395 49 373 31 Q351 13 314.5 4 Q278 -5 223 -5 Q184 -5 150.5 -0.5 Q117 4 93 16 Q69 28 55.5 48 Q42 68 42 99 Q42 109 42 117.5 Q42 126 43 133 Q44 141 45 148 L142 148 L144 112 Q145 92 161 82 Q177 72 224 72 Q277 72 295.5 87.5 Q314 103 314 137 Q314 165 300.5 181 Q287 197 251 200 L188 205 Q150 208 123 215 Q96 222 79 237 Q62 252 53.5 276 Q45 300 45 338 Q45 374 53.5 399.5 Q62 425 82 441 Q102 457 136.5 464 Q171 471 222 471 Q257 471 289 466.5 Q321 462 345.5 451 Q370 440 384.5 420.5 Q399 401 399 370 Q399 365 398.5 358.5 Q398 352 397 346 Q396 339 396 331 L299 331 Q298 351 294.5 364.5 Q291 378 283 385.5 Q275 393 260.5 396 Q246 399 222 399 Q199 399 184 395.5 Q169 392 160.5 385 Q152 378 149 366 Q146 354 146 338 Q146 306 158 293.5 Q170 281 198 279 L262 275 Q305 272 334 266.5 Q363 261 381 246.5 Q399 232 406.5 206.5 Q414 181 414 139 Z M91 601 L133 648 L224 580 L313 648 L355 601 L250 507 L199 507 L91 601 Z " />
<glyph glyph-name="Scaron" unicode="&#x160;" horiz-adv-x="537" d="M503 194 Q503 132 487 93 Q471 54 440 32 Q409 10 362.5 2.5 Q316 -5 256 -5 Q194 -5 153 2.5 Q112 10 87 24.5 Q62 39 51.5 60.5 Q41 82 41 110 Q41 126 41 140 Q41 154 42 165 Q42 177 43 188 L147 188 L150 133 Q152 108 175 93.5 Q198 79 255 79 Q295 79 322.5 84.5 Q350 90 366 103.5 Q382 117 389 139.5 Q396 162 396 196 Q396 224 390.5 242.5 Q385 261 373 272.5 Q361 284 342 290 Q323 296 297 298 L206 305 Q172 308 141 314 Q110 320 86 338 Q62 356 48 389.5 Q34 423 34 479 Q34 538 47.5 575.5 Q61 613 89.5 634.5 Q118 656 162 664 Q206 672 267 672 Q331 672 372.5 664.5 Q414 657 438.5 642 Q463 627 473 605 Q483 583 483 555 Q483 536 481.5 514 Q480 492 479 476 L378 476 L373 529 Q371 545 366 557 Q361 569 349.5 576 Q338 583 319 586.5 Q300 590 270 590 Q230 590 205 585 Q180 580 166 567 Q152 554 147 533 Q142 512 142 479 Q142 453 147.5 436.5 Q153 420 164 410.5 Q175 401 191 396.5 Q207 392 229 391 L347 383 Q375 381 403 374 Q431 367 453.5 347.5 Q476 328 489.5 291.5 Q503 255 503 194 Z M128 800 L170 847 L261 779 L350 847 L392 800 L287 706 L236 706 L128 800 Z " />
<glyph glyph-name="Zcaron" unicode="&#x17d;" horiz-adv-x="571" d="M503 0 L46 0 L46 80 L396 573 L396 581 L160 581 L160 487 L52 487 L52 665 L516 665 L516 583 L166 92 L166 85 L536 85 L503 0 Z M159 801 L204 846 L291 780 L293 780 L379 846 L423 801 L320 708 Q306 708 293.5 707.5 Q281 707 267 707 L159 801 Z " />
<glyph glyph-name="zcaron" unicode="&#x17e;" horiz-adv-x="416" d="M369 0 L30 0 L30 92 L277 391 L277 395 L134 395 L134 345 L42 345 L42 465 L374 465 L374 371 L128 79 L128 71 L392 71 L369 0 Z M78 601 L122 646 Q154 622 173.5 607 Q193 592 208 580 L210 580 L297 646 L341 601 L237 508 Q224 508 211.5 507.5 Q199 507 185 507 L78 601 Z " />
<glyph glyph-name="ydieresis" unicode="&#xff;" horiz-adv-x="432" d="M267 -132 Q257 -169 231 -185 Q205 -201 165 -201 Q149 -201 131.5 -199.5 Q114 -198 93 -194 L93 -121 L137 -121 Q160 -121 169.5 -111.5 Q179 -102 184 -82 L206 0 L128 0 L6 465 L111 465 L204 77 L225 77 L317 465 L422 465 L267 -132 Z M100 530 L100 624 L189 624 L189 530 L100 530 Z M248 530 L248 624 L338 624 L338 530 L248 530 Z " />
<glyph glyph-name="Ydieresis" unicode="&#x178;" horiz-adv-x="574" d="M256 0 L145 0 L260 233 L200 233 L6 665 L123 665 L267 330 L298 330 L450 665 L562 665 L256 0 Z M164 735 L164 829 L253 829 L253 735 L164 735 Z M312 735 L312 829 L402 829 L402 735 L312 735 Z " />
<glyph glyph-name="ugrave" unicode="&#xf9;" horiz-adv-x="480" d="M419 26 Q376 12 329.5 3 Q283 -6 229 -6 Q166 -6 130 10 Q94 26 76.5 54 Q59 82 55 120.5 Q51 159 51 203 L51 465 L150 465 L150 169 Q150 143 154 124 Q158 105 168.5 92 Q179 79 197.5 73 Q216 67 245 67 Q269 67 286.5 69 Q304 71 320 76 L320 465 L419 465 L419 26 Z M266 501 L129 604 L183 666 L305 545 L266 501 Z " />
<glyph glyph-name="uacute" unicode="&#xfa;" horiz-adv-x="480" d="M419 26 Q376 12 329.5 3 Q283 -6 229 -6 Q166 -6 130 10 Q94 26 76.5 54 Q59 82 55 120.5 Q51 159 51 203 L51 465 L150 465 L150 169 Q150 143 154 124 Q158 105 168.5 92 Q179 79 197.5 73 Q216 67 245 67 Q269 67 286.5 69 Q304 71 320 76 L320 465 L419 465 L419 26 Z M174 545 L296 666 L350 604 L213 501 L174 545 Z " />
<glyph glyph-name="ucircumflex" unicode="&#xfb;" horiz-adv-x="481" d="M419 26 Q376 12 329.5 3 Q283 -6 229 -6 Q166 -6 130 10 Q94 26 76.5 54 Q59 82 55 120.5 Q51 159 51 203 L51 465 L150 465 L150 169 Q150 143 154 124 Q158 105 168.5 92 Q179 79 197.5 73 Q216 67 245 67 Q269 67 286.5 69 Q304 71 320 76 L320 465 L419 465 L419 26 Z M146 504 L103 553 L215 654 L255 654 L367 553 L324 504 L236 578 L234 578 L146 504 Z " />
<glyph glyph-name="udieresis" unicode="&#xfc;" horiz-adv-x="480" d="M419 26 Q376 12 329.5 3 Q283 -6 229 -6 Q166 -6 130 10 Q94 26 76.5 54 Q59 82 55 120.5 Q51 159 51 203 L51 465 L150 465 L150 169 Q150 143 154 124 Q158 105 168.5 92 Q179 79 197.5 73 Q216 67 245 67 Q269 67 286.5 69 Q304 71 320 76 L320 465 L419 465 L419 26 Z M117 530 L117 624 L206 624 L206 530 L117 530 Z M265 530 L265 624 L355 624 L355 530 L265 530 Z " />
<glyph glyph-name="yacute" unicode="&#xfd;" horiz-adv-x="432" d="M267 -132 Q257 -169 231 -185 Q205 -201 165 -201 Q149 -201 131.5 -199.5 Q114 -198 93 -194 L93 -121 L137 -121 Q160 -121 169.5 -111.5 Q179 -102 184 -82 L206 0 L128 0 L6 465 L111 465 L204 77 L225 77 L317 465 L422 465 L267 -132 Z M143 545 L265 666 L319 604 L182 501 L143 545 Z " />
<glyph glyph-name="Acircumflex" unicode="&#xc2;" horiz-adv-x="615" d="M216 702 L173 751 L285 852 L325 852 L437 751 L394 702 L306 776 L304 776 L216 702 Z M493 0 L445 159 L163 159 L116 0 L6 0 L216 665 L394 665 L606 0 L493 0 Z M317 583 L293 583 L185 241 L425 241 L317 583 Z " />
<glyph glyph-name="Atilde" unicode="&#xc3;" horiz-adv-x="615" d="M254 846 Q271 846 285.5 840 Q300 834 312.5 826.5 Q325 819 335 813 Q345 807 352 807 Q360 807 366.5 812 Q373 817 383 840 L438 816 Q425 777 403 752 Q381 727 354 727 Q337 727 323 733 Q309 739 296.5 746.5 Q284 754 274 760 Q264 766 257 766 Q249 766 242.5 761 Q236 756 226 732 L171 756 Q183 796 205 821 Q227 846 254 846 Z M493 0 L445 159 L163 159 L116 0 L6 0 L216 665 L394 665 L606 0 L493 0 Z M317 583 L293 583 L185 241 L425 241 L317 583 Z " />
<glyph glyph-name="Adieresis" unicode="&#xc4;" horiz-adv-x="615" d="M188 735 L188 829 L277 829 L277 735 L188 735 Z M336 735 L336 829 L426 829 L426 735 L336 735 Z M493 0 L445 159 L163 159 L116 0 L6 0 L216 665 L394 665 L606 0 L493 0 Z M317 583 L293 583 L185 241 L425 241 L317 583 Z " />
<glyph glyph-name="Aring" unicode="&#xc5;" horiz-adv-x="615" d="M307 866 Q352 866 376 841.5 Q400 817 400 782 Q400 747 375.5 722.5 Q351 698 307 698 Q262 698 237.5 723 Q213 748 213 782 Q213 817 237.5 841.5 Q262 866 307 866 Z M307 824 Q287 824 276 811.5 Q265 799 265 782 Q265 766 276 753.5 Q287 741 307 741 Q327 741 338 753 Q349 765 349 782 Q349 799 338 811.5 Q327 824 307 824 Z M493 0 L445 159 L163 159 L116 0 L6 0 L216 665 L394 665 L606 0 L493 0 Z M317 583 L293 583 L185 241 L425 241 L317 583 Z " />
<glyph glyph-name="Egrave" unicode="&#xc8;" horiz-adv-x="508" d="M298 709 L161 812 L215 874 L337 753 L298 709 Z M64 0 L64 665 L470 665 L470 580 L171 580 L171 383 L449 383 L417 299 L171 299 L171 84 L470 84 L470 0 L64 0 Z " />
<glyph glyph-name="Eacute" unicode="&#xc9;" horiz-adv-x="508" d="M196 745 L318 866 L372 804 L235 701 L196 745 Z M64 0 L64 665 L470 665 L470 580 L171 580 L171 383 L449 383 L417 299 L171 299 L171 84 L470 84 L470 0 L64 0 Z " />
<glyph glyph-name="Ecircumflex" unicode="&#xca;" horiz-adv-x="508" d="M64 0 L64 665 L470 665 L470 580 L171 580 L171 383 L449 383 L417 299 L171 299 L171 84 L470 84 L470 0 L64 0 Z M177 702 L134 751 L246 852 L286 852 L398 751 L355 702 L267 776 L265 776 L177 702 Z " />
<glyph glyph-name="Edieresis" unicode="&#xcb;" horiz-adv-x="508" d="M153 735 L153 829 L242 829 L242 735 L153 735 Z M301 735 L301 829 L391 829 L391 735 L301 735 Z M64 0 L64 665 L470 665 L470 580 L171 580 L171 383 L449 383 L417 299 L171 299 L171 84 L470 84 L470 0 L64 0 Z " />
<glyph glyph-name="Agrave" unicode="&#xc0;" horiz-adv-x="615" d="M345 702 L208 805 L262 867 L384 746 L345 702 Z M493 0 L445 159 L163 159 L116 0 L6 0 L216 665 L394 665 L606 0 L493 0 Z M317 583 L293 583 L185 241 L425 241 L317 583 Z " />
<glyph glyph-name="Aacute" unicode="&#xc1;" horiz-adv-x="615" d="M233 741 L355 862 L409 800 L272 697 L233 741 Z M493 0 L445 159 L163 159 L116 0 L6 0 L216 665 L394 665 L606 0 L493 0 Z M317 583 L293 583 L185 241 L425 241 L317 583 Z " />
<glyph glyph-name="Ccedilla" unicode="&#xc7;" horiz-adv-x="585" d="M537 122 Q537 57 490.5 28 Q444 -1 349 -6 L324 -47 Q361 -47 380.5 -64 Q400 -81 400 -119 Q400 -165 375.5 -183.5 Q351 -202 291 -202 Q267 -202 243.5 -196.5 Q220 -191 205 -183 L228 -135 Q245 -143 257 -147 Q269 -151 286 -151 Q308 -151 316.5 -141.5 Q325 -132 325 -115 Q325 -98 316.5 -90 Q308 -82 285 -82 L245 -82 L284 -6 Q212 -5 165.5 10 Q119 25 92.5 62.5 Q66 100 56 165 Q46 230 46 332 Q46 442 57.5 509 Q69 576 99 612.5 Q129 649 180 661 Q231 673 309 673 Q363 673 405.5 667.5 Q448 662 477.5 647 Q507 632 522.5 606.5 Q538 581 538 541 Q538 531 537 518 Q536 505 535 493 Q533 479 532 463 L428 463 L428 506 Q428 526 424 541.5 Q420 557 408 567.5 Q396 578 373 583.5 Q350 589 312 589 Q263 589 232 581.5 Q201 574 184 547.5 Q167 521 160.5 470 Q154 419 154 332 Q154 249 160 199 Q166 149 182.5 122 Q199 95 229.5 86 Q260 77 310 77 Q374 77 399 90 Q424 103 426 137 L429 203 L535 203 Q536 189 536.5 167.5 Q537 146 537 122 Z " />
<glyph glyph-name="Igrave" unicode="&#xcc;" horiz-adv-x="236" d="M138 709 L1 812 L55 874 L177 753 L138 709 Z M64 0 L64 665 L171 665 L171 0 L64 0 Z " />
<glyph glyph-name="Iacute" unicode="&#xcd;" horiz-adv-x="236" d="M58 745 L180 866 L234 804 L97 701 L58 745 Z M64 0 L64 665 L171 665 L171 0 L64 0 Z " />
<glyph glyph-name="Icircumflex" unicode="&#xce;" horiz-adv-x="236" d="M64 0 L64 665 L171 665 L171 0 L64 0 Z M28 702 L-15 751 L97 852 L137 852 L249 751 L206 702 L118 776 L116 776 L28 702 Z " />
<glyph glyph-name="Idieresis" unicode="&#xcf;" horiz-adv-x="236" d="M-1 735 L-1 829 L88 829 L88 735 L-1 735 Z M147 735 L147 829 L237 829 L237 735 L147 735 Z M64 0 L64 665 L171 665 L171 0 L64 0 Z " />
<glyph glyph-name="Ntilde" unicode="&#xd1;" horiz-adv-x="658" d="M287 846 Q304 846 318.5 840 Q333 834 345.5 826.5 Q358 819 368 813 Q378 807 385 807 Q393 807 399.5 812 Q406 817 416 840 L471 816 Q458 777 436 752 Q414 727 387 727 Q370 727 356 733 Q342 739 329.5 746.5 Q317 754 307 760 Q297 766 290 766 Q282 766 275.5 761 Q269 756 259 732 L204 756 Q216 796 238 821 Q260 846 287 846 Z M436 0 L165 559 L160 559 L160 0 L64 0 L64 665 L218 665 L492 107 L497 107 L497 665 L593 665 L593 0 L436 0 Z " />
<glyph glyph-name="Ograve" unicode="&#xd2;" horiz-adv-x="599" d="M552 332 Q552 229 543 163 Q534 97 507 59.5 Q480 22 430.5 7.5 Q381 -7 300 -7 Q219 -7 169 7.5 Q119 22 92 59.5 Q65 97 55.5 163 Q46 229 46 332 Q46 436 55.5 502 Q65 568 92.5 605.5 Q120 643 169.5 657 Q219 671 300 671 Q382 671 431.5 656.5 Q481 642 508 604 Q535 566 543.5 500 Q552 434 552 332 Z M444 332 Q444 408 440.5 457 Q437 506 422.5 534.5 Q408 563 379 574.5 Q350 586 300 586 Q253 586 224.5 576.5 Q196 567 180.5 539.5 Q165 512 160 462.5 Q155 413 155 332 Q155 254 159.5 204.5 Q164 155 179 126.5 Q194 98 223 87.5 Q252 77 300 77 Q349 77 377.5 87.5 Q406 98 421 126.5 Q436 155 440 204.5 Q444 254 444 332 Z M335 709 L198 812 L252 874 L374 753 L335 709 Z " />
<glyph glyph-name="Oacute" unicode="&#xd3;" horiz-adv-x="599" d="M552 332 Q552 229 543 163 Q534 97 507 59.5 Q480 22 430.5 7.5 Q381 -7 300 -7 Q219 -7 169 7.5 Q119 22 92 59.5 Q65 97 55.5 163 Q46 229 46 332 Q46 436 55.5 502 Q65 568 92.5 605.5 Q120 643 169.5 657 Q219 671 300 671 Q382 671 431.5 656.5 Q481 642 508 604 Q535 566 543.5 500 Q552 434 552 332 Z M444 332 Q444 408 440.5 457 Q437 506 422.5 534.5 Q408 563 379 574.5 Q350 586 300 586 Q253 586 224.5 576.5 Q196 567 180.5 539.5 Q165 512 160 462.5 Q155 413 155 332 Q155 254 159.5 204.5 Q164 155 179 126.5 Q194 98 223 87.5 Q252 77 300 77 Q349 77 377.5 87.5 Q406 98 421 126.5 Q436 155 440 204.5 Q444 254 444 332 Z M223 745 L345 866 L399 804 L262 701 L223 745 Z " />
<glyph glyph-name="Ocircumflex" unicode="&#xd4;" horiz-adv-x="599" d="M552 332 Q552 229 543 163 Q534 97 507 59.5 Q480 22 430.5 7.5 Q381 -7 300 -7 Q219 -7 169 7.5 Q119 22 92 59.5 Q65 97 55.5 163 Q46 229 46 332 Q46 436 55.5 502 Q65 568 92.5 605.5 Q120 643 169.5 657 Q219 671 300 671 Q382 671 431.5 656.5 Q481 642 508 604 Q535 566 543.5 500 Q552 434 552 332 Z M444 332 Q444 408 440.5 457 Q437 506 422.5 534.5 Q408 563 379 574.5 Q350 586 300 586 Q253 586 224.5 576.5 Q196 567 180.5 539.5 Q165 512 160 462.5 Q155 413 155 332 Q155 254 159.5 204.5 Q164 155 179 126.5 Q194 98 223 87.5 Q252 77 300 77 Q349 77 377.5 87.5 Q406 98 421 126.5 Q436 155 440 204.5 Q444 254 444 332 Z M212 702 L169 751 L281 852 L321 852 L433 751 L390 702 L302 776 L300 776 L212 702 Z " />
<glyph glyph-name="Otilde" unicode="&#xd5;" horiz-adv-x="599" d="M552 332 Q552 229 543 163 Q534 97 507 59.5 Q480 22 430.5 7.5 Q381 -7 300 -7 Q219 -7 169 7.5 Q119 22 92 59.5 Q65 97 55.5 163 Q46 229 46 332 Q46 436 55.5 502 Q65 568 92.5 605.5 Q120 643 169.5 657 Q219 671 300 671 Q382 671 431.5 656.5 Q481 642 508 604 Q535 566 543.5 500 Q552 434 552 332 Z M444 332 Q444 408 440.5 457 Q437 506 422.5 534.5 Q408 563 379 574.5 Q350 586 300 586 Q253 586 224.5 576.5 Q196 567 180.5 539.5 Q165 512 160 462.5 Q155 413 155 332 Q155 254 159.5 204.5 Q164 155 179 126.5 Q194 98 223 87.5 Q252 77 300 77 Q349 77 377.5 87.5 Q406 98 421 126.5 Q436 155 440 204.5 Q444 254 444 332 Z M250 846 Q267 846 281.5 840 Q296 834 308.5 826.5 Q321 819 331 813 Q341 807 348 807 Q356 807 362.5 812 Q369 817 379 840 L434 816 Q421 777 399 752 Q377 727 350 727 Q333 727 319 733 Q305 739 292.5 746.5 Q280 754 270 760 Q260 766 253 766 Q245 766 238.5 761 Q232 756 222 732 L167 756 Q179 796 201 821 Q223 846 250 846 Z " />
<glyph glyph-name="Odieresis" unicode="&#xd6;" horiz-adv-x="599" d="M552 332 Q552 229 543 163 Q534 97 507 59.5 Q480 22 430.5 7.5 Q381 -7 300 -7 Q219 -7 169 7.5 Q119 22 92 59.5 Q65 97 55.5 163 Q46 229 46 332 Q46 436 55.5 502 Q65 568 92.5 605.5 Q120 643 169.5 657 Q219 671 300 671 Q382 671 431.5 656.5 Q481 642 508 604 Q535 566 543.5 500 Q552 434 552 332 Z M444 332 Q444 408 440.5 457 Q437 506 422.5 534.5 Q408 563 379 574.5 Q350 586 300 586 Q253 586 224.5 576.5 Q196 567 180.5 539.5 Q165 512 160 462.5 Q155 413 155 332 Q155 254 159.5 204.5 Q164 155 179 126.5 Q194 98 223 87.5 Q252 77 300 77 Q349 77 377.5 87.5 Q406 98 421 126.5 Q436 155 440 204.5 Q444 254 444 332 Z M181 735 L181 829 L270 829 L270 735 L181 735 Z M329 735 L329 829 L419 829 L419 735 L329 735 Z " />
<glyph glyph-name="Ugrave" unicode="&#xd9;" horiz-adv-x="613" d="M550 665 Q550 507 549.5 350 Q549 193 549 34 Q516 22 482 14.5 Q448 7 416.5 2.5 Q385 -2 357.5 -3.5 Q330 -5 310 -5 Q253 -5 207 3 Q161 11 128.5 35 Q96 59 79 102 Q62 145 62 215 L62 665 L169 665 L169 213 Q169 178 174 152.5 Q179 127 194.5 110.5 Q210 94 237.5 86 Q265 78 310 78 Q348 78 379.5 81 Q411 84 442 89 L442 665 L550 665 Z M319 709 L182 812 L236 874 L358 753 L319 709 Z " />
<glyph glyph-name="Uacute" unicode="&#xda;" horiz-adv-x="613" d="M550 665 Q550 507 549.5 350 Q549 193 549 34 Q516 22 482 14.5 Q448 7 416.5 2.5 Q385 -2 357.5 -3.5 Q330 -5 310 -5 Q253 -5 207 3 Q161 11 128.5 35 Q96 59 79 102 Q62 145 62 215 L62 665 L169 665 L169 213 Q169 178 174 152.5 Q179 127 194.5 110.5 Q210 94 237.5 86 Q265 78 310 78 Q348 78 379.5 81 Q411 84 442 89 L442 665 L550 665 Z M246 745 L368 866 L422 804 L285 701 L246 745 Z " />
<glyph glyph-name="Ucircumflex" unicode="&#xdb;" horiz-adv-x="613" d="M550 665 Q550 507 549.5 350 Q549 193 549 34 Q516 22 482 14.5 Q448 7 416.5 2.5 Q385 -2 357.5 -3.5 Q330 -5 310 -5 Q253 -5 207 3 Q161 11 128.5 35 Q96 59 79 102 Q62 145 62 215 L62 665 L169 665 L169 213 Q169 178 174 152.5 Q179 127 194.5 110.5 Q210 94 237.5 86 Q265 78 310 78 Q348 78 379.5 81 Q411 84 442 89 L442 665 L550 665 Z M216 702 L173 751 L285 852 L325 852 L437 751 L394 702 L306 776 L304 776 L216 702 Z " />
<glyph glyph-name="Udieresis" unicode="&#xdc;" horiz-adv-x="613" d="M550 665 Q550 507 549.5 350 Q549 193 549 34 Q516 22 482 14.5 Q448 7 416.5 2.5 Q385 -2 357.5 -3.5 Q330 -5 310 -5 Q253 -5 207 3 Q161 11 128.5 35 Q96 59 79 102 Q62 145 62 215 L62 665 L169 665 L169 213 Q169 178 174 152.5 Q179 127 194.5 110.5 Q210 94 237.5 86 Q265 78 310 78 Q348 78 379.5 81 Q411 84 442 89 L442 665 L550 665 Z M190 735 L190 829 L279 829 L279 735 L190 735 Z M338 735 L338 829 L428 829 L428 735 L338 735 Z " />
<glyph glyph-name="Yacute" unicode="&#xdd;" horiz-adv-x="574" d="M256 0 L145 0 L260 233 L200 233 L6 665 L123 665 L267 330 L298 330 L450 665 L562 665 L256 0 Z M219 745 L341 866 L395 804 L258 701 L219 745 Z " />
<glyph glyph-name="Amacron" unicode="&#x100;" horiz-adv-x="615" d="M493 0 L445 159 L163 159 L116 0 L6 0 L216 665 L394 665 L606 0 L493 0 Z M317 583 L293 583 L185 241 L425 241 L317 583 Z M191 739 L191 807 L420 807 L420 739 L191 739 Z " />
<glyph glyph-name="Aogonek" unicode="&#x104;" horiz-adv-x="615" d="M578 0 Q563 -18 548 -43.5 Q533 -69 533 -90 Q533 -111 548.5 -122.5 Q564 -134 583 -134 Q611 -134 633 -126 L647 -179 Q627 -193 602.5 -197.5 Q578 -202 557 -202 Q512 -202 483.5 -178.5 Q455 -155 455 -114 Q455 -80 471.5 -49 Q488 -18 506 0 L493 0 L445 159 L163 159 L116 0 L6 0 L216 665 L394 665 L606 0 L578 0 Z M317 583 L293 583 L185 241 L425 241 L317 583 Z " />
<glyph glyph-name="aogonek" unicode="&#x105;" horiz-adv-x="479" d="M398 0 Q383 -18 368 -43.5 Q353 -69 353 -90 Q353 -111 368.5 -122.5 Q384 -134 403 -134 Q431 -134 453 -126 L467 -179 Q447 -193 422.5 -197.5 Q398 -202 377 -202 Q332 -202 303.5 -178.5 Q275 -155 275 -114 Q275 -80 292 -49 Q309 -18 327 0 L318 38 Q298 22 265.5 9 Q233 -4 191 -4 Q112 -4 75 29 Q38 62 38 142 Q38 175 46 200.5 Q54 226 73 243 Q92 260 123.5 269 Q155 278 203 278 Q229 278 247 278 Q265 278 277.5 277.5 Q290 277 299 277 Q308 277 316 277 L316 319 Q316 342 312 356.5 Q308 371 298.5 379 Q289 387 273 389.5 Q257 392 233 392 Q208 392 194 389 Q180 386 172.5 378.5 Q165 371 162 359.5 Q159 348 156 330 L58 330 Q57 337 57 345 Q56 352 56 360.5 Q56 369 56 378 Q56 404 70 421.5 Q84 439 108.5 449.5 Q133 460 165.5 464.5 Q198 469 234 469 Q288 469 323 462 Q358 455 378.5 438.5 Q399 422 407 394.5 Q415 367 415 326 L415 0 L398 0 Z M316 212 L227 212 Q177 212 159.5 195.5 Q142 179 142 144 Q142 103 161.5 87.5 Q181 72 226 72 Q272 72 294 90.5 Q316 109 316 161 L316 212 Z " />
<glyph glyph-name="Ccaron" unicode="&#x10c;" horiz-adv-x="585" d="M537 122 Q537 51 481 22 Q425 -7 310 -7 Q229 -7 178 6 Q127 19 97.5 56 Q68 93 57 159 Q46 225 46 332 Q46 442 57.5 509 Q69 576 99 612.5 Q129 649 180 661 Q231 673 309 673 Q363 673 405.5 667.5 Q448 662 477.5 647 Q507 632 522.5 606.5 Q538 581 538 541 Q538 531 537 518 Q536 505 535 493 Q533 479 532 463 L429 463 L428 519 Q428 534 424 547 Q420 560 408 569.5 Q396 579 373 584 Q350 589 312 589 Q263 589 232 581.5 Q201 574 184 547.5 Q167 521 160.5 470 Q154 419 154 332 Q154 249 160 199 Q166 149 182.5 122 Q199 95 229.5 86 Q260 77 310 77 Q374 77 399 90 Q424 103 426 137 L429 203 L535 203 Q536 189 536.5 167.5 Q537 146 537 122 Z M165 800 L207 847 L298 779 L387 847 L429 800 L324 706 L273 706 L165 800 Z " />
<glyph glyph-name="ccaron" unicode="&#x10d;" horiz-adv-x="463" d="M418 375 Q418 366 417.5 355.5 Q417 345 417 337 Q416 327 416 318 L318 318 L316 348 Q314 369 297.5 380.5 Q281 392 238 392 Q209 392 191.5 387 Q174 382 164 365 Q154 348 151 315 Q148 282 148 226 Q148 176 151 146 Q154 116 163.5 99.5 Q173 83 190.5 77.5 Q208 72 238 72 Q280 72 297 81.5 Q314 91 316 112 L319 141 L416 141 Q418 132 418.5 121 Q419 110 419 93 Q419 41 375 18 Q331 -5 238 -5 Q178 -5 140.5 5.5 Q103 16 82 43 Q61 70 53.5 116 Q46 162 46 234 Q46 304 54 349.5 Q62 395 83.5 422 Q105 449 142.5 459.5 Q180 470 240 470 Q288 470 321.5 462 Q355 454 376.5 441 Q398 428 408 411 Q418 394 418 375 Z M104 601 L146 648 L237 580 L326 648 L368 601 L263 507 L212 507 L104 601 Z " />
<glyph glyph-name="Edotaccent" unicode="&#x116;" horiz-adv-x="508" d="M64 0 L64 665 L470 665 L470 580 L171 580 L171 383 L449 383 L417 299 L171 299 L171 84 L470 84 L470 0 L64 0 Z M218 734 L218 828 L319 828 L319 734 L218 734 Z " />
<glyph glyph-name="edotaccent" unicode="&#x117;" horiz-adv-x="471" d="M423 251 Q423 240 422.5 230 Q422 220 421 209 L143 209 Q143 165 147 138 Q151 111 161 96.5 Q171 82 189 77 Q207 72 235 72 Q282 72 297.5 82 Q313 92 315 116 L317 145 L414 145 L414 131 Q414 125 414.5 117 Q415 109 415 101 Q415 69 402 48.5 Q389 28 365 16 Q341 4 307.5 -0.5 Q274 -5 234 -5 Q179 -5 142 3.5 Q105 12 83 37.5 Q61 63 52 108 Q43 153 43 227 Q43 300 51.5 347 Q60 394 81 421.5 Q102 449 139 459.5 Q176 470 233 470 Q290 470 327 459.5 Q364 449 385.5 424 Q407 399 415 356.5 Q423 314 423 251 Z M323 276 Q322 311 318 334 Q314 357 304 370 Q294 383 277 388 Q260 393 235 393 Q208 393 191 388 Q174 383 164 370 Q154 357 149.5 334.5 Q145 312 144 276 L323 276 Z M185 547 L185 641 L286 641 L286 547 L185 547 Z " />
<glyph glyph-name="Eogonek" unicode="&#x118;" horiz-adv-x="508" d="M412 0 Q397 -18 382 -43.5 Q367 -69 367 -90 Q367 -111 382.5 -122.5 Q398 -134 417 -134 Q445 -134 467 -126 L481 -179 Q461 -193 436.5 -197.5 Q412 -202 391 -202 Q346 -202 317.5 -178.5 Q289 -155 289 -114 Q289 -80 305.5 -49 Q322 -18 340 0 L64 0 L64 665 L470 665 L470 580 L171 580 L171 383 L449 383 L417 299 L171 299 L171 84 L470 84 L470 0 L412 0 Z " />
<glyph glyph-name="eogonek" unicode="&#x119;" horiz-adv-x="471" d="M423 251 Q423 240 422.5 230 Q422 220 421 209 L143 209 Q143 165 147 138 Q151 111 161 96.5 Q171 82 189 77 Q207 72 235 72 Q282 72 297.5 82 Q313 92 315 116 L317 145 L414 145 L414 131 Q414 125 414.5 117 Q415 109 415 101 Q415 70 403 50 Q391 30 369 18 Q353 4 338 -12 Q323 -28 311.5 -44 Q300 -60 293 -74.5 Q286 -89 286 -101 Q286 -124 303 -136 Q320 -148 340 -148 Q356 -148 369.5 -145.5 Q383 -143 396 -138 L407 -178 Q390 -189 366.5 -194 Q343 -199 322 -199 Q280 -199 251.5 -178.5 Q223 -158 223 -120 Q223 -86 241.5 -56 Q260 -26 286 -3 Q274 -4 261 -4.5 Q248 -5 234 -5 Q179 -5 142 3.5 Q105 12 83 37.5 Q61 63 52 108 Q43 153 43 227 Q43 300 51.5 347 Q60 394 81 421.5 Q102 449 139 459.5 Q176 470 233 470 Q290 470 327 459.5 Q364 449 385.5 424 Q407 399 415 356.5 Q423 314 423 251 Z M323 276 Q322 311 318 334 Q314 357 304 370 Q294 383 277 388 Q260 393 235 393 Q208 393 191 388 Q174 383 164 370 Q154 357 149.5 334.5 Q145 312 144 276 L323 276 Z " />
<glyph glyph-name="Gcommaaccent" unicode="&#x122;" horiz-adv-x="605" d="M318 -266 L254 -266 L300 -157 L251 -157 L251 -51 L365 -51 L365 -157 L318 -266 Z M440 265 L317 265 L317 349 L547 349 L547 0 L449 0 L444 46 L443 46 Q424 21 386 7.5 Q348 -6 287 -6 Q214 -6 167.5 9 Q121 24 94 62 Q67 100 56.5 165.5 Q46 231 46 332 Q46 442 58 508.5 Q70 575 99 611 Q128 647 178 659 Q228 671 304 671 Q374 671 421.5 663.5 Q469 656 497 641 Q525 626 537 603 Q549 580 549 550 Q549 536 548.5 520.5 Q548 505 547 492 Q546 477 545 463 L442 463 Q442 502 437 526 Q432 550 417.5 563.5 Q403 577 376 581.5 Q349 586 304 586 Q259 586 230.5 578.5 Q202 571 185 544.5 Q168 518 161.5 467.5 Q155 417 155 332 Q155 246 161.5 195.5 Q168 145 185 119 Q202 93 233 85.5 Q264 78 312 78 Q361 78 391 87 Q421 96 440 113 L440 265 Z " />
<glyph glyph-name="Imacron" unicode="&#x12a;" horiz-adv-x="236" d="M64 0 L64 665 L171 665 L171 0 L64 0 Z M4 739 L4 807 L233 807 L233 739 L4 739 Z " />
<glyph glyph-name="imacron" unicode="&#x12b;" horiz-adv-x="252" d="M90 0 L90 395 L6 395 L6 465 L191 465 L191 0 L90 0 Z M6 546 L6 614 L235 614 L235 546 L6 546 Z " />
<glyph glyph-name="Kcommaaccent" unicode="&#x136;" horiz-adv-x="600" d="M304 -266 L240 -266 L285 -157 L238 -157 L238 -51 L350 -51 L350 -157 L304 -266 Z M467 0 L223 299 L171 299 L171 0 L64 0 L64 665 L171 665 L171 383 L222 383 L444 665 L567 665 L311 346 L594 0 L467 0 Z " />
<glyph glyph-name="kcommaaccent" unicode="&#x137;" horiz-adv-x="443" d="M241 -266 L177 -266 L223 -157 L176 -157 L176 -51 L288 -51 L288 -157 L241 -266 Z M319 0 L188 215 L157 215 L157 0 L58 0 L58 665 L157 665 L157 288 L188 288 L308 465 L418 465 L272 252 L431 0 L319 0 Z " />
<glyph glyph-name="Lcommaaccent" unicode="&#x13b;" horiz-adv-x="478" d="M273 -266 L209 -266 L254 -157 L206 -157 L206 -51 L320 -51 L320 -157 L273 -266 Z M64 0 L64 665 L171 665 L171 85 L459 85 L459 0 L64 0 Z " />
<glyph glyph-name="lcommaaccent" unicode="&#x13c;" horiz-adv-x="221" d="M122 -266 L57 -266 L103 -157 L55 -157 L55 -51 L168 -51 L168 -157 L122 -266 Z M62 0 L62 594 L-21 594 L-21 665 L161 665 L161 0 L62 0 Z " />
<glyph glyph-name="Ncommaaccent" unicode="&#x145;" horiz-adv-x="657" d="M338 -266 L274 -266 L320 -157 L272 -157 L272 -51 L384 -51 L384 -157 L338 -266 Z M436 0 L165 559 L160 559 L160 0 L64 0 L64 665 L218 665 L492 107 L497 107 L497 665 L593 665 L593 0 L436 0 Z " />
<glyph glyph-name="ncommaaccent" unicode="&#x146;" horiz-adv-x="480" d="M256 -266 L192 -266 L238 -157 L190 -157 L190 -51 L303 -51 L303 -157 L256 -266 Z M278 470 Q319 470 346.5 462 Q374 454 391 437.5 Q408 421 415.5 395 Q423 369 423 333 L423 0 L324 0 L324 311 Q324 356 309.5 373 Q295 390 257 390 Q228 390 203 384.5 Q178 379 156 371 L156 0 L57 0 L57 465 L143 465 L152 426 Q172 446 204 458 Q236 470 278 470 Z " />
<glyph glyph-name="Umacron" unicode="&#x16a;" horiz-adv-x="613" d="M550 665 Q550 507 549.5 350 Q549 193 549 34 Q516 22 482 14.5 Q448 7 416.5 2.5 Q385 -2 357.5 -3.5 Q330 -5 310 -5 Q253 -5 207 3 Q161 11 128.5 35 Q96 59 79 102 Q62 145 62 215 L62 665 L169 665 L169 213 Q169 178 174 152.5 Q179 127 194.5 110.5 Q210 94 237.5 86 Q265 78 310 78 Q348 78 379.5 81 Q411 84 442 89 L442 665 L550 665 Z M191 739 L191 807 L420 807 L420 739 L191 739 Z " />
<glyph glyph-name="umacron" unicode="&#x16b;" horiz-adv-x="480" d="M419 26 Q376 12 329.5 3 Q283 -6 229 -6 Q166 -6 130 10 Q94 26 76.5 54 Q59 82 55 120.5 Q51 159 51 203 L51 465 L150 465 L150 169 Q150 143 154 124 Q158 105 168.5 92 Q179 79 197.5 73 Q216 67 245 67 Q269 67 286.5 69 Q304 71 320 76 L320 465 L419 465 L419 26 Z M122 546 L122 614 L351 614 L351 546 L122 546 Z " />
<glyph glyph-name="Uogonek" unicode="&#x172;" horiz-adv-x="613" d="M550 665 Q550 507 549.5 350 Q549 193 549 34 Q539 30 529 27 Q519 24 508 21 Q493 7 478 -9.5 Q463 -26 451.5 -42.5 Q440 -59 432.5 -74.5 Q425 -90 425 -101 Q425 -124 442 -136 Q459 -148 479 -148 Q495 -148 508.5 -145.5 Q522 -143 535 -138 L546 -178 Q529 -189 505.5 -194 Q482 -199 461 -199 Q419 -199 390.5 -178.5 Q362 -158 362 -120 Q362 -84 383.5 -51.5 Q405 -19 434 4 L440 6 Q402 0 367.5 -2.5 Q333 -5 310 -5 Q253 -5 207 3 Q161 11 128.5 35 Q96 59 79 102 Q62 145 62 215 L62 665 L169 665 L169 213 Q169 178 174 152.5 Q179 127 194.5 110.5 Q210 94 237.5 86 Q265 78 310 78 Q348 78 379.5 81 Q411 84 442 89 L442 665 L550 665 Z " />
<glyph glyph-name="uogonek" unicode="&#x173;" horiz-adv-x="480" d="M419 26 Q388 15 360 9 Q346 -5 333.5 -20 Q321 -35 311 -49.5 Q301 -64 295 -77.5 Q289 -91 289 -101 Q289 -124 306 -136 Q323 -148 343 -148 Q359 -148 372.5 -145.5 Q386 -143 399 -138 L410 -178 Q393 -189 369.5 -194 Q346 -199 325 -199 Q283 -199 254.5 -178.5 Q226 -158 226 -120 Q226 -86 245 -55.5 Q264 -25 290 -2 Q275 -4 260 -5 Q245 -6 229 -6 Q166 -6 130 10 Q94 26 76.5 54 Q59 82 55 120.5 Q51 159 51 203 L51 465 L150 465 L150 169 Q150 143 154 124 Q158 105 168.5 92 Q179 79 197.5 73 Q216 67 245 67 Q269 67 286.5 69 Q304 71 320 76 L320 465 L419 465 L419 26 Z " />
<glyph glyph-name="amacron" unicode="&#x101;" horiz-adv-x="478" d="M327 0 L318 38 Q298 22 265.5 9 Q233 -4 191 -4 Q112 -4 75 29 Q38 62 38 142 Q38 175 46 200.5 Q54 226 73 243 Q92 260 123.5 269 Q155 278 203 278 Q229 278 247 278 Q265 278 277.5 277.5 Q290 277 299 277 Q308 277 316 277 L316 319 Q316 342 312 356.5 Q308 371 298.5 379 Q289 387 273 389.5 Q257 392 233 392 Q208 392 194 389 Q180 386 172.5 378.5 Q165 371 162 359.5 Q159 348 156 330 L58 330 Q57 337 57 345 Q56 352 56 360.5 Q56 369 56 378 Q56 404 70 421.5 Q84 439 108.5 449.5 Q133 460 165.5 464.5 Q198 469 234 469 Q288 469 323 462 Q358 455 378.5 438.5 Q399 422 407 394.5 Q415 367 415 326 L415 0 L327 0 Z M316 212 L227 212 Q177 212 159.5 195.5 Q142 179 142 144 Q142 103 161.5 87.5 Q181 72 226 72 Q272 72 294 90.5 Q316 109 316 161 L316 212 Z M120 546 L120 614 L349 614 L349 546 L120 546 Z " />
<glyph glyph-name="zero" unicode="0" horiz-adv-x="562" d="M509 333 Q509 232 501.5 166.5 Q494 101 470 63 Q446 25 401 9.5 Q356 -6 281 -6 Q207 -6 162 9.5 Q117 25 92.5 63 Q68 101 60 166.5 Q52 232 52 333 Q52 437 61 502.5 Q70 568 95 605.5 Q120 643 165 657 Q210 671 282 671 Q359 671 404 655 Q449 639 472.5 600.5 Q496 562 502.5 497 Q509 432 509 333 Z M400 333 Q400 409 397 458.5 Q394 508 382 537 Q370 566 346.5 577.5 Q323 589 282 589 Q244 589 220.5 579 Q197 569 184 541 Q171 513 167 463 Q163 413 163 333 Q163 256 166.5 206.5 Q170 157 182 128 Q194 99 217.5 87.5 Q241 76 281 76 Q322 76 345.5 87.5 Q369 99 381 128 Q393 157 396.5 206.5 Q400 256 400 333 Z " />
<glyph glyph-name="one" unicode="1" horiz-adv-x="419" d="M66 0 L66 83 L175 83 L175 576 L54 550 L54 639 L175 665 L282 665 L282 83 L381 83 L381 0 L66 0 Z " />
<glyph glyph-name="two" unicode="2" horiz-adv-x="564" d="M512 479 Q512 427 503 391 Q494 355 476 331.5 Q458 308 431.5 295 Q405 282 370 276 L246 257 Q203 250 185 223 Q167 196 167 136 L167 83 L503 83 L503 0 L59 0 L59 136 Q59 177 66.5 211.5 Q74 246 91 272.5 Q108 299 136.5 316 Q165 333 207 339 L317 355 Q341 358 357 364.5 Q373 371 382.5 384 Q392 397 396 420 Q400 443 400 479 Q400 510 395 531 Q390 552 376.5 564.5 Q363 577 340 582.5 Q317 588 281 588 Q247 588 226 584.5 Q205 581 193 572.5 Q181 564 176.5 551 Q172 538 172 520 L171 473 L68 473 Q66 488 64 502 Q62 514 61 527.5 Q60 541 60 550 Q60 578 70 600.5 Q80 623 104.5 638.5 Q129 654 172 662 Q215 670 281 670 Q348 670 392.5 660 Q437 650 463.5 627 Q490 604 501 567.5 Q512 531 512 479 Z " />
<glyph glyph-name="three" unicode="3" horiz-adv-x="558" d="M509 195 Q509 136 496 97.5 Q483 59 454.5 36 Q426 13 380 3.5 Q334 -6 269 -6 Q203 -6 159 1.5 Q115 9 89 23.5 Q63 38 52 60 Q41 82 41 112 Q41 132 45 153 Q49 174 50 177 L153 177 L154 133 Q154 105 178.5 91 Q203 77 269 77 Q307 77 332 82.5 Q357 88 371.5 101.5 Q386 115 392 137.5 Q398 160 398 195 Q398 225 394.5 245 Q391 265 379.5 277.5 Q368 290 346 295 Q324 300 287 300 L216 300 L216 377 L391 577 L391 582 L158 582 L158 500 L56 500 L56 665 L495 665 L495 570 L329 385 L329 380 Q379 379 413.5 371.5 Q448 364 469 343.5 Q490 323 499.5 287.5 Q509 252 509 195 Z " />
<glyph glyph-name="four" unicode="4" horiz-adv-x="549" d="M345 0 L345 151 L28 151 L28 253 L293 665 L451 665 L451 235 L537 235 L502 151 L451 151 L451 0 L345 0 Z M345 563 L342 563 L128 238 L128 235 L345 235 L345 563 Z " />
<glyph glyph-name="five" unicode="5" horiz-adv-x="564" d="M513 223 Q513 152 501 107.5 Q489 63 460.5 38 Q432 13 385.5 3.5 Q339 -6 270 -6 Q151 -6 101.5 23.5 Q52 53 52 108 Q52 127 55 145 Q58 163 62 176 L165 176 Q165 146 169 127 Q173 108 185 96.5 Q197 85 219 81 Q241 77 277 77 Q312 77 336 82 Q360 87 374.5 103 Q389 119 395 147.5 Q401 176 401 223 Q401 265 396 292 Q391 319 377.5 335 Q364 351 340.5 357 Q317 363 279 363 Q225 363 199 351.5 Q173 340 162 314 L61 314 L61 665 L482 665 L482 582 L167 582 L167 407 Q193 430 227.5 438.5 Q262 447 314 447 Q369 447 407 436.5 Q445 426 468.5 400.5 Q492 375 502.5 332 Q513 289 513 223 Z " />
<glyph glyph-name="six" unicode="6" horiz-adv-x="580" d="M522 194 Q522 136 509 98 Q496 60 468.5 37 Q441 14 398 4.5 Q355 -5 294 -5 Q222 -5 176.5 7.5 Q131 20 105.5 56 Q80 92 70.5 157.5 Q61 223 61 330 Q61 438 70.5 504.5 Q80 571 105.5 607.5 Q131 644 176 657 Q221 670 291 670 Q351 670 393.5 662.5 Q436 655 462 640 Q488 625 500 602 Q512 579 512 549 Q512 540 511 528.5 Q510 517 509 506 Q507 494 506 481 L399 481 L398 527 Q398 545 392.5 557 Q387 569 375 576 Q363 583 342 586 Q321 589 289 589 Q255 589 232.5 581 Q210 573 196.5 552.5 Q183 532 177.5 497 Q172 462 172 407 L172 361 Q196 378 232.5 387 Q269 396 323 396 Q378 396 416.5 386.5 Q455 377 478 353.5 Q501 330 511.5 291 Q522 252 522 194 Z M412 194 Q412 230 406 253.5 Q400 277 387 290 Q374 303 353 308 Q332 313 302 313 Q251 313 222.5 306 Q194 299 172 283 Q172 218 177 178 Q182 138 195 115.5 Q208 93 231.5 85 Q255 77 292 77 Q325 77 348 82 Q371 87 385.5 99.5 Q400 112 406 135 Q412 158 412 194 Z " />
<glyph glyph-name="seven" unicode="7" horiz-adv-x="520" d="M214 0 L98 0 L384 573 Q384 577 384.5 578.5 Q385 580 385 582 L141 582 L141 497 L40 497 L40 665 L489 665 L489 558 L214 0 Z " />
<glyph glyph-name="eight" unicode="8" horiz-adv-x="563" d="M514 184 Q514 133 504 97 Q494 61 468 38.5 Q442 16 398 5.5 Q354 -5 285 -5 Q216 -5 171 5.5 Q126 16 99.5 38.5 Q73 61 62.5 97 Q52 133 52 184 Q52 262 76.5 298.5 Q101 335 157 343 L157 350 Q101 361 80 399.5 Q59 438 59 495 Q59 550 74 584 Q89 618 117.5 637.5 Q146 657 188.5 664 Q231 671 285 671 Q337 671 378.5 664 Q420 657 448.5 638 Q477 619 492.5 584.5 Q508 550 508 495 Q508 438 486.5 400 Q465 362 408 350 L408 343 Q464 335 489 298.5 Q514 262 514 184 Z M402 184 Q402 218 397 240.5 Q392 263 379 276.5 Q366 290 343.5 295 Q321 300 285 300 Q250 300 226.5 295 Q203 290 189 277 Q175 264 169.5 241.5 Q164 219 164 184 Q164 153 169 132.5 Q174 112 187.5 100 Q201 88 224.5 83 Q248 78 285 78 Q321 78 344 82.5 Q367 87 379.5 99 Q392 111 397 131.5 Q402 152 402 184 Z M396 495 Q396 519 391.5 536.5 Q387 554 374.5 565.5 Q362 577 340.5 582 Q319 587 285 587 Q250 587 227.5 582 Q205 577 192.5 565.5 Q180 554 175 536.5 Q170 519 170 495 Q170 462 174.5 440.5 Q179 419 192 406.5 Q205 394 227.5 389 Q250 384 285 384 Q317 384 338.5 389 Q360 394 372.5 406.5 Q385 419 390.5 440.5 Q396 462 396 495 Z " />
<glyph glyph-name="nine" unicode="9" horiz-adv-x="562" d="M53 468 Q53 525 66 564 Q79 603 106.5 627 Q134 651 177.5 661 Q221 671 282 671 Q348 671 392 661.5 Q436 652 462.5 625 Q489 598 500 548.5 Q511 499 511 418 L511 290 Q511 202 501.5 145 Q492 88 466.5 54.5 Q441 21 396 8 Q351 -5 281 -5 Q169 -5 114.5 22.5 Q60 50 60 109 Q60 119 60.5 131 Q61 143 63 154 Q64 166 66 179 L171 179 Q172 146 175 125.5 Q178 105 188.5 94.5 Q199 84 220.5 80.5 Q242 77 281 77 Q320 77 343.5 84.5 Q367 92 379.5 116 Q392 140 396 184 Q400 228 400 302 Q377 286 341 276 Q305 266 251 266 Q195 266 157.5 276 Q120 286 96.5 309 Q73 332 63 371 Q53 410 53 468 Z M164 468 Q164 432 169.5 409 Q175 386 187.5 373 Q200 360 221 355 Q242 350 273 350 Q323 350 351.5 358 Q380 366 400 380 Q400 446 395.5 487 Q391 528 378 550 Q365 572 342.5 579.5 Q320 587 283 587 Q248 587 225.5 581.5 Q203 576 189 562 Q175 548 169.5 525 Q164 502 164 468 Z " />
<glyph glyph-name="gcommaaccent" unicode="&#x123;" horiz-adv-x="466" d="M210 726 L273 726 L227 617 L276 617 L276 511 L163 511 L163 617 L210 726 Z M375 394 Q383 383 393 360 Q403 337 403 304 Q403 254 393.5 222.5 Q384 191 362 173.5 Q340 156 304.5 149.5 Q269 143 218 143 Q204 143 196 143.5 Q188 144 166 144 Q143 144 134 135 Q125 126 125 109 Q125 89 137 81 Q149 73 172 73 Q200 73 231.5 73.5 Q263 74 289 74 Q325 74 352 69.5 Q379 65 397 50.5 Q415 36 424.5 9.5 Q434 -17 434 -61 Q434 -99 425 -125.5 Q416 -152 392.5 -168.5 Q369 -185 329 -193 Q289 -201 227 -201 Q168 -201 130.5 -195.5 Q93 -190 71.5 -179 Q50 -168 42 -151.5 Q34 -135 34 -112 Q34 -104 34.5 -94.5 Q35 -85 36 -77 Q37 -68 38 -60 L135 -60 L138 -92 Q139 -112 157.5 -118.5 Q176 -125 230 -125 Q263 -125 284 -121.5 Q305 -118 317 -110.5 Q329 -103 333 -90.5 Q337 -78 337 -60 Q337 -26 321 -14 Q305 -2 270 -2 Q244 -2 211.5 -2.5 Q179 -3 153 -3 Q119 -3 96.5 2.5 Q74 8 60.5 19.5 Q47 31 41 49 Q35 67 35 91 Q35 116 50 138.5 Q65 161 88 169 L88 171 Q65 186 50.5 218 Q36 250 36 303 Q36 350 45 382 Q54 414 75 433.5 Q96 453 131.5 461.5 Q167 470 221 470 Q238 470 251.5 469 Q265 468 276 467 Q288 466 299 465 L448 465 L448 394 L375 394 Z M303 303 Q303 328 299.5 345.5 Q296 363 287 374 Q278 385 262 389.5 Q246 394 221 394 Q172 394 154.5 374.5 Q137 355 137 303 Q137 253 154.5 234 Q172 215 220 215 Q245 215 261.5 219.5 Q278 224 287 234.5 Q296 245 299.5 261.5 Q303 278 303 303 Z " />
<glyph glyph-name="dollar" unicode="&#x24;" horiz-adv-x="538" d="M232 -6 Q181 -5 146 3.5 Q111 12 89.5 26 Q68 40 59 60.5 Q50 81 50 108 Q50 124 50 138.5 Q50 153 51 164 Q51 177 52 188 L143 188 L147 132 Q149 111 167.5 98 Q186 85 232 80 L232 303 L209 305 Q176 308 146 315.5 Q116 323 93.5 341.5 Q71 360 58 392.5 Q45 425 45 478 Q45 532 56 568 Q67 604 90 626 Q113 648 148 658 Q183 668 232 671 L232 726 L306 726 L306 671 Q356 668 389 659.5 Q422 651 442 636 Q462 621 470.5 600.5 Q479 580 479 555 Q479 536 477.5 514 Q476 492 475 476 L384 476 L381 529 Q378 555 362 568.5 Q346 582 306 587 L306 385 L345 383 Q372 381 399 374 Q426 367 447 347 Q468 327 481.5 290.5 Q495 254 495 193 Q495 138 483 101 Q471 64 447 41.5 Q423 19 387.5 8.5 Q352 -2 306 -5 L306 -74 L232 -74 L232 -6 Z M400 195 Q400 222 395.5 240 Q391 258 380 269.5 Q369 281 351 287 Q333 293 306 295 L306 81 Q359 88 379.5 113.5 Q400 139 400 195 Z M140 478 Q140 431 162.5 413 Q185 395 232 391 L232 587 Q204 584 186 576.5 Q168 569 158 556.5 Q148 544 144 524.5 Q140 505 140 478 Z " />
<glyph glyph-name="cent" unicode="&#xa2;" horiz-adv-x="509" d="M226 68 Q170 71 135 84 Q100 97 81 124 Q62 151 55.5 195 Q49 239 49 305 Q49 369 56 412.5 Q63 456 82.5 483 Q102 510 136.5 522.5 Q171 535 226 538 L226 609 L299 609 L299 538 Q344 535 375.5 527 Q407 519 426.5 507 Q446 495 455 479.5 Q464 464 464 447 Q464 437 463.5 427.5 Q463 418 463 410 Q462 400 462 391 L371 391 L369 419 Q367 434 351 444.5 Q335 455 299 459 L299 144 Q324 146 339 151.5 Q354 157 361.5 166 Q369 175 371 186.5 Q373 198 374 212 L464 212 Q465 203 465 192.5 Q465 182 465 172 Q465 117 425.5 94 Q386 71 299 68 L299 0 L226 0 L226 68 Z M143 298 Q143 257 146 229 Q149 201 157.5 183.5 Q166 166 182.5 157 Q199 148 226 145 L226 460 Q200 457 183.5 448.5 Q167 440 158 421.5 Q149 403 146 373 Q143 343 143 298 Z " />
<glyph glyph-name="Emacron" unicode="&#x112;" horiz-adv-x="506" d="M64 0 L64 665 L470 665 L470 580 L171 580 L171 383 L449 383 L417 299 L171 299 L171 84 L470 84 L470 0 L64 0 Z M152 746 L152 814 L381 814 L381 746 L152 746 Z " />
<glyph glyph-name="emacron" unicode="&#x113;" horiz-adv-x="465" d="M423 251 Q423 240 422.5 230 Q422 220 421 209 L143 209 Q143 165 147 138 Q151 111 161 96.5 Q171 82 189 77 Q207 72 235 72 Q282 72 297.5 82 Q313 92 315 116 L317 145 L414 145 L414 131 Q414 125 414.5 117 Q415 109 415 101 Q415 69 402 48.5 Q389 28 365 16 Q341 4 307.5 -0.5 Q274 -5 234 -5 Q179 -5 142 3.5 Q105 12 83 37.5 Q61 63 52 108 Q43 153 43 227 Q43 300 51.5 347 Q60 394 81 421.5 Q102 449 139 459.5 Q176 470 233 470 Q290 470 327 459.5 Q364 449 385.5 424 Q407 399 415 356.5 Q423 314 423 251 Z M323 276 Q322 311 318 334 Q314 357 304 370 Q294 383 277 388 Q260 393 235 393 Q208 393 191 388 Q174 383 164 370 Q154 357 149.5 334.5 Q145 312 144 276 L323 276 Z M118 546 L118 614 L347 614 L347 546 L118 546 Z " />
<glyph glyph-name="iogonek" unicode="&#x12f;" horiz-adv-x="246" d="M189 0 Q166 -7 152.5 -20 Q139 -33 131 -44 Q125 -53 120.5 -66 Q116 -79 116 -90 Q116 -111 131.5 -122.5 Q147 -134 166 -134 Q194 -134 216 -126 L230 -179 Q210 -193 185.5 -197.5 Q161 -202 140 -202 Q95 -202 66.5 -178.5 Q38 -155 38 -114 Q38 -80 55 -49 Q72 -18 90 0 L90 394 L6 394 L6 465 L189 465 L189 0 Z M90 526 L90 621 L189 621 L189 526 L90 526 Z " />
<glyph glyph-name="Iogonek" unicode="&#x12e;" horiz-adv-x="235" d="M171 0 Q147 -4 131.5 -15.5 Q116 -27 108 -37 Q100 -48 94.5 -63 Q89 -78 89 -90 Q89 -111 104.5 -122.5 Q120 -134 139 -134 Q167 -134 189 -126 L203 -179 Q183 -193 158.5 -197.5 Q134 -202 113 -202 Q68 -202 39.5 -178.5 Q11 -155 11 -114 Q11 -79 28 -47.5 Q45 -16 64 1 L64 665 L171 665 L171 0 Z " />
<glyph glyph-name="eth" unicode="&#xf0;" horiz-adv-x="467" d="M142 547 L206 586 L144 665 L262 665 L285 635 L333 665 L368 613 L325 586 Q381 511 402.5 421.5 Q424 332 424 232 Q424 159 415 113 Q406 67 384.5 40.5 Q363 14 326 4.5 Q289 -5 232 -5 Q174 -5 137.5 5 Q101 15 80 41 Q59 67 51 113.5 Q43 160 43 232 Q43 305 51 351 Q59 397 80 423.5 Q101 450 137.5 460 Q174 470 232 470 Q262 470 288 467 Q280 484 269.5 501 Q259 518 245 537 L178 495 L142 547 Z M233 72 Q261 72 278.5 77.5 Q296 83 306 99.5 Q316 116 319 147.5 Q322 179 322 232 Q322 285 318.5 316.5 Q315 348 305 365 Q295 382 277.5 387.5 Q260 393 233 393 Q204 393 187 388 Q170 383 160 366 Q150 349 147 317.5 Q144 286 144 232 Q144 180 147 148.5 Q150 117 160 100 Q170 83 187 77.5 Q204 72 233 72 Z " />
<glyph glyph-name="Lslash" unicode="&#x141;" horiz-adv-x="488" d="M64 0 L64 209 L6 152 L6 258 L64 315 L64 665 L171 665 L171 422 L289 539 L289 433 L171 316 L171 85 L459 85 L459 0 L64 0 Z " />
</font>
</svg>
